solid OpenSCAD_Model
  facet normal 0 0 -1
    outer loop
      vertex 5 -11.547 0
      vertex 2.5 -5.7735 0
      vertex 5 -5.7735 0
    endloop
  endfacet
  facet normal 0 0 -1
    outer loop
      vertex 2.5 -5.7735 0
      vertex -2.5 -5.7735 0
      vertex 2.5 -5 0
    endloop
  endfacet
  facet normal 0 0 -1
    outer loop
      vertex -5 -10 0
      vertex 2.5 -5.7735 0
      vertex 5 -11.547 0
    endloop
  endfacet
  facet normal 0 0 -1
    outer loop
      vertex -5 -10 0
      vertex 5 -11.547 0
      vertex -5 -11.547 0
    endloop
  endfacet
  facet normal -0 0 -1
    outer loop
      vertex 2.5 -5.7735 0
      vertex -5 -10 0
      vertex -2.5 -5.7735 0
    endloop
  endfacet
  facet normal -0 0 -1
    outer loop
      vertex -2.5 -5.7735 0
      vertex -5 -10 0
      vertex -5 -5.7735 0
    endloop
  endfacet
  facet normal -0 0 -1
    outer loop
      vertex 2.5 -5 0
      vertex -2.5 -5.7735 0
      vertex -2.5 -5 0
    endloop
  endfacet
  facet normal 1 0 0
    outer loop
      vertex -5 -10 0
      vertex -5 -11.547 0
      vertex -5 -10 -3.33333
    endloop
  endfacet
  facet normal 1 0 0
    outer loop
      vertex -5 10 -3.33333
      vertex -5 8.08013 -3.99519
      vertex -5 10 -10
    endloop
  endfacet
  facet normal 1 0 -0
    outer loop
      vertex -5 8.08013 -3.99519
      vertex -5 10 -3.33333
      vertex -5 7.698 -3.33333
    endloop
  endfacet
  facet normal 1 0 0
    outer loop
      vertex -5 8.08013 -3.99519
      vertex -5 -1.22465e-15 -10
      vertex -5 10 -10
    endloop
  endfacet
  facet normal 1 -0 0
    outer loop
      vertex -5 -0.580127 -8.99519
      vertex -5 -1.22465e-15 -10
      vertex -5 8.08013 -3.99519
    endloop
  endfacet
  facet normal 1 -0 0
    outer loop
      vertex -5 -10 -3.33333
      vertex -5 -0.580127 -8.99519
      vertex -5 -3.849 -3.33333
    endloop
  endfacet
  facet normal 1 0 0
    outer loop
      vertex -5 -17.3205 -10
      vertex -5 -0.580127 -8.99519
      vertex -5 -10 -3.33333
    endloop
  endfacet
  facet normal 1 0 0
    outer loop
      vertex -5 -0.580127 -8.99519
      vertex -5 -17.3205 -10
      vertex -5 -1.22465e-15 -10
    endloop
  endfacet
  facet normal 1 0 0
    outer loop
      vertex -5 -17.3205 -10
      vertex -5 -10 -3.33333
      vertex -5 -11.547 0
    endloop
  endfacet
  facet normal 1 0 0
    outer loop
      vertex -5 10 10
      vertex -5 3.849 3.33333
      vertex -5 10 3.33333
    endloop
  endfacet
  facet normal 1 0 -0
    outer loop
      vertex -5 3.849 3.33333
      vertex -5 10 10
      vertex -5 3.00067e-15 10
    endloop
  endfacet
  facet normal -1 0 0
    outer loop
      vertex -5 -10 0
      vertex -5 -7.698 3.33333
      vertex -5 -5.7735 0
    endloop
  endfacet
  facet normal -1 -0 0
    outer loop
      vertex -5 -7.698 3.33333
      vertex -5 -10 0
      vertex -5 -10 3.33333
    endloop
  endfacet
  facet normal -1 0 0
    outer loop
      vertex 5 -17.3205 -10
      vertex 5 -10 -3.33333
      vertex 5 -10 -10
    endloop
  endfacet
  facet normal -1 -0 0
    outer loop
      vertex 5 -10 -3.33333
      vertex 5 -17.3205 -10
      vertex 5 -11.547 0
    endloop
  endfacet
  facet normal -1 0 0
    outer loop
      vertex 5 -10 -3.33333
      vertex 5 -5.7735 0
      vertex 5 -3.849 -3.33333
    endloop
  endfacet
  facet normal -1 -0 0
    outer loop
      vertex 5 -5.7735 0
      vertex 5 -10 -3.33333
      vertex 5 -11.547 0
    endloop
  endfacet
  facet normal -1 0 0
    outer loop
      vertex 5 7.698 -3.33333
      vertex 5 10 3.33333
      vertex 5 10 -3.33333
    endloop
  endfacet
  facet normal -1 -0 0
    outer loop
      vertex 5 10 3.33333
      vertex 5 7.698 -3.33333
      vertex 5 3.849 3.33333
    endloop
  endfacet
  facet normal 1 -0 0
    outer loop
      vertex 5 -10 10
      vertex 5 -10 8.66025
      vertex 5 -7.67949 10
    endloop
  endfacet
  facet normal 1 0 0
    outer loop
      vertex 5 -10 7.32051
      vertex 5 -10 3.33333
      vertex 5 -7.698 3.33333
    endloop
  endfacet
  facet normal 0 1 -0
    outer loop
      vertex 2.5 -5 0
      vertex -2.5 -5 10
      vertex 2.5 -5 10
    endloop
  endfacet
  facet normal 0 1 0
    outer loop
      vertex -2.5 -5 10
      vertex 2.5 -5 0
      vertex -2.5 -5 0
    endloop
  endfacet
  facet normal 0 0 -1
    outer loop
      vertex -10 -1.22465e-15 -10
      vertex -5 10 -10
      vertex -5 -1.22465e-15 -10
    endloop
  endfacet
  facet normal -0 0 -1
    outer loop
      vertex -5 10 -10
      vertex -10 -1.22465e-15 -10
      vertex -10 10 -10
    endloop
  endfacet
  facet normal 0 0.866025 -0.5
    outer loop
      vertex 5 -17.3205 -10
      vertex -5 -11.547 0
      vertex 5 -11.547 0
    endloop
  endfacet
  facet normal 0 0.866025 -0.5
    outer loop
      vertex -5 -11.547 0
      vertex 5 -17.3205 -10
      vertex -5 -17.3205 -10
    endloop
  endfacet
  facet normal -1 0 0
    outer loop
      vertex -10 -1.22465e-15 -10
      vertex -10 10 -3.33333
      vertex -10 10 -10
    endloop
  endfacet
  facet normal -1 0 0
    outer loop
      vertex -10 -1.22465e-15 -10
      vertex -10 -10 -3.33333
      vertex -10 10 -3.33333
    endloop
  endfacet
  facet normal -1 -0 0
    outer loop
      vertex -10 -10 -3.33333
      vertex -10 -90 -10
      vertex -10 -10 3.33333
    endloop
  endfacet
  facet normal -1 0 0
    outer loop
      vertex -10 -90 -10
      vertex -10 -10 -3.33333
      vertex -10 -1.22465e-15 -10
    endloop
  endfacet
  facet normal -1 0 0
    outer loop
      vertex -10 -10 3.33333
      vertex -10 10 10
      vertex -10 10 3.33333
    endloop
  endfacet
  facet normal -1 0 0
    outer loop
      vertex -10 -90 10
      vertex -10 -10 3.33333
      vertex -10 -90 -10
    endloop
  endfacet
  facet normal -1 0 0
    outer loop
      vertex -10 -10 3.33333
      vertex -10 -90 10
      vertex -10 10 10
    endloop
  endfacet
  facet normal 0 0 -1
    outer loop
      vertex 10 -90 -10
      vertex 5 -17.3205 -10
      vertex 10 -10 -10
    endloop
  endfacet
  facet normal 0 0 -1
    outer loop
      vertex 10 -90 -10
      vertex -5 -17.3205 -10
      vertex 5 -17.3205 -10
    endloop
  endfacet
  facet normal 0 0 -1
    outer loop
      vertex -10 -90 -10
      vertex -5 -17.3205 -10
      vertex 10 -90 -10
    endloop
  endfacet
  facet normal 0 0 -1
    outer loop
      vertex -10 -1.22465e-15 -10
      vertex -5 -17.3205 -10
      vertex -10 -90 -10
    endloop
  endfacet
  facet normal 0 0 -1
    outer loop
      vertex -5 -17.3205 -10
      vertex -10 -1.22465e-15 -10
      vertex -5 -1.22465e-15 -10
    endloop
  endfacet
  facet normal -0 0 -1
    outer loop
      vertex 10 -10 -10
      vertex 5 -17.3205 -10
      vertex 5 -10 -10
    endloop
  endfacet
  facet normal 1 -0 0
    outer loop
      vertex 10 -90 10
      vertex 10 -10 3.33333
      vertex 10 -10 10
    endloop
  endfacet
  facet normal 1 0 0
    outer loop
      vertex 10 -10 3.33333
      vertex 10 -90 10
      vertex 10 -10 -3.33333
    endloop
  endfacet
  facet normal 1 0 0
    outer loop
      vertex 10 -90 -10
      vertex 10 -10 -3.33333
      vertex 10 -90 10
    endloop
  endfacet
  facet normal 1 0 0
    outer loop
      vertex 10 -10 -3.33333
      vertex 10 -90 -10
      vertex 10 -10 -10
    endloop
  endfacet
  facet normal 1 -0 0
    outer loop
      vertex 10 -10 3.33333
      vertex 10 10 -3.33333
      vertex 10 10 3.33333
    endloop
  endfacet
  facet normal 1 0 0
    outer loop
      vertex 10 10 -3.33333
      vertex 10 -10 3.33333
      vertex 10 -10 -3.33333
    endloop
  endfacet
  facet normal 0 0 1
    outer loop
      vertex -5 10 10
      vertex -7.5 3.00067e-15 10
      vertex -5 3.00067e-15 10
    endloop
  endfacet
  facet normal 0 0 1
    outer loop
      vertex -7.5 3.00067e-15 10
      vertex -10 10 10
      vertex -7.5 -7.67949 10
    endloop
  endfacet
  facet normal -0 0 1
    outer loop
      vertex -10 10 10
      vertex -7.5 3.00067e-15 10
      vertex -5 10 10
    endloop
  endfacet
  facet normal 0 0 1
    outer loop
      vertex 2.5 -5 10
      vertex -2.5 -5 10
      vertex 2.5 -7.67949 10
    endloop
  endfacet
  facet normal 0 0 1
    outer loop
      vertex 5 -7.67949 10
      vertex 2.5 -7.67949 10
      vertex 5 -10 10
    endloop
  endfacet
  facet normal -0 0 1
    outer loop
      vertex 5 -10 10
      vertex 10 -90 10
      vertex 10 -10 10
    endloop
  endfacet
  facet normal -0 0 1
    outer loop
      vertex -2.5 -7.67949 10
      vertex 5 -10 10
      vertex 2.5 -7.67949 10
    endloop
  endfacet
  facet normal 0 0 1
    outer loop
      vertex -2.5 -7.67949 10
      vertex 2.5 -7.67949 10
      vertex -2.5 -5 10
    endloop
  endfacet
  facet normal -0 0 1
    outer loop
      vertex -7.5 -7.67949 10
      vertex 5 -10 10
      vertex -2.5 -7.67949 10
    endloop
  endfacet
  facet normal 0 0 1
    outer loop
      vertex 5 -10 10
      vertex -7.5 -7.67949 10
      vertex -10 -90 10
    endloop
  endfacet
  facet normal 0 0 1
    outer loop
      vertex 5 -10 10
      vertex -10 -90 10
      vertex 10 -90 10
    endloop
  endfacet
  facet normal 0 0 1
    outer loop
      vertex -10 -90 10
      vertex -7.5 -7.67949 10
      vertex -10 10 10
    endloop
  endfacet
  facet normal 0 1 -0
    outer loop
      vertex -5 10 -10
      vertex -10 10 -3.33333
      vertex -5 10 -3.33333
    endloop
  endfacet
  facet normal 0 1 0
    outer loop
      vertex -10 10 -3.33333
      vertex -5 10 -10
      vertex -10 10 -10
    endloop
  endfacet
  facet normal 0 1 -0
    outer loop
      vertex -5 10 3.33333
      vertex -10 10 10
      vertex -5 10 10
    endloop
  endfacet
  facet normal 0 1 0
    outer loop
      vertex -10 10 10
      vertex -5 10 3.33333
      vertex -10 10 3.33333
    endloop
  endfacet
  facet normal 0 1 -0
    outer loop
      vertex 10 10 -3.33333
      vertex 5 10 3.33333
      vertex 10 10 3.33333
    endloop
  endfacet
  facet normal 0 1 0
    outer loop
      vertex 5 10 3.33333
      vertex 10 10 -3.33333
      vertex 5 10 -3.33333
    endloop
  endfacet
  facet normal 0 -1 0
    outer loop
      vertex -10 -90 -10
      vertex 10 -90 10
      vertex -10 -90 10
    endloop
  endfacet
  facet normal 0 -1 -0
    outer loop
      vertex 10 -90 10
      vertex -10 -90 -10
      vertex 10 -90 -10
    endloop
  endfacet
  facet normal 0 0 1
    outer loop
      vertex -5 10 -3.33333
      vertex -7.5 7.698 -3.33333
      vertex -5 7.698 -3.33333
    endloop
  endfacet
  facet normal 0 0 1
    outer loop
      vertex -7.5 7.698 -3.33333
      vertex -10 10 -3.33333
      vertex -7.5 -3.849 -3.33333
    endloop
  endfacet
  facet normal -0 0 1
    outer loop
      vertex -10 10 -3.33333
      vertex -7.5 7.698 -3.33333
      vertex -5 10 -3.33333
    endloop
  endfacet
  facet normal -0 0 1
    outer loop
      vertex -7.5 -3.849 -3.33333
      vertex -5 -10 -3.33333
      vertex -5 -3.849 -3.33333
    endloop
  endfacet
  facet normal 0 0 1
    outer loop
      vertex -7.5 -3.849 -3.33333
      vertex -10 -10 -3.33333
      vertex -5 -10 -3.33333
    endloop
  endfacet
  facet normal 0 0 1
    outer loop
      vertex -10 -10 -3.33333
      vertex -7.5 -3.849 -3.33333
      vertex -10 10 -3.33333
    endloop
  endfacet
  facet normal 0 1 -0
    outer loop
      vertex -5 -10 0
      vertex -10 -10 3.33333
      vertex -5 -10 3.33333
    endloop
  endfacet
  facet normal 0 1 0
    outer loop
      vertex -10 -10 -3.33333
      vertex -5 -10 0
      vertex -5 -10 -3.33333
    endloop
  endfacet
  facet normal 0 1 0
    outer loop
      vertex -5 -10 0
      vertex -10 -10 -3.33333
      vertex -10 -10 3.33333
    endloop
  endfacet
  facet normal 0 0 -1
    outer loop
      vertex -5 -10 3.33333
      vertex -7.5 -7.698 3.33333
      vertex -5 -7.698 3.33333
    endloop
  endfacet
  facet normal -0 0 -1
    outer loop
      vertex -7.5 -7.698 3.33333
      vertex -10 -10 3.33333
      vertex -7.5 3.849 3.33333
    endloop
  endfacet
  facet normal 0 0 -1
    outer loop
      vertex -10 -10 3.33333
      vertex -7.5 -7.698 3.33333
      vertex -5 -10 3.33333
    endloop
  endfacet
  facet normal 0 0 -1
    outer loop
      vertex -7.5 3.849 3.33333
      vertex -5 10 3.33333
      vertex -5 3.849 3.33333
    endloop
  endfacet
  facet normal 0 0 -1
    outer loop
      vertex -7.5 3.849 3.33333
      vertex -10 10 3.33333
      vertex -5 10 3.33333
    endloop
  endfacet
  facet normal 0 0 -1
    outer loop
      vertex -10 10 3.33333
      vertex -7.5 3.849 3.33333
      vertex -10 -10 3.33333
    endloop
  endfacet
  facet normal 0 1 -0
    outer loop
      vertex 10 -10 -10
      vertex 5 -10 -3.33333
      vertex 10 -10 -3.33333
    endloop
  endfacet
  facet normal 0 1 0
    outer loop
      vertex 5 -10 -3.33333
      vertex 10 -10 -10
      vertex 5 -10 -10
    endloop
  endfacet
  facet normal 0 0 -1
    outer loop
      vertex 10 -10 -3.33333
      vertex 7.5 -3.849 -3.33333
      vertex 10 10 -3.33333
    endloop
  endfacet
  facet normal 0 0 -1
    outer loop
      vertex 5 -10 -3.33333
      vertex 7.5 -3.849 -3.33333
      vertex 10 -10 -3.33333
    endloop
  endfacet
  facet normal -0 0 -1
    outer loop
      vertex 7.5 -3.849 -3.33333
      vertex 5 -10 -3.33333
      vertex 5 -3.849 -3.33333
    endloop
  endfacet
  facet normal 0 0 -1
    outer loop
      vertex 7.5 7.698 -3.33333
      vertex 10 10 -3.33333
      vertex 7.5 -3.849 -3.33333
    endloop
  endfacet
  facet normal 0 0 -1
    outer loop
      vertex 5 10 -3.33333
      vertex 7.5 7.698 -3.33333
      vertex 5 7.698 -3.33333
    endloop
  endfacet
  facet normal 0 0 -1
    outer loop
      vertex 7.5 7.698 -3.33333
      vertex 5 10 -3.33333
      vertex 10 10 -3.33333
    endloop
  endfacet
  facet normal 0 0 1
    outer loop
      vertex 10 10 3.33333
      vertex 7.5 3.849 3.33333
      vertex 10 -10 3.33333
    endloop
  endfacet
  facet normal -0 0 1
    outer loop
      vertex 5 10 3.33333
      vertex 7.5 3.849 3.33333
      vertex 10 10 3.33333
    endloop
  endfacet
  facet normal 0 0 1
    outer loop
      vertex 7.5 3.849 3.33333
      vertex 5 10 3.33333
      vertex 5 3.849 3.33333
    endloop
  endfacet
  facet normal -0 0 1
    outer loop
      vertex 7.5 -7.698 3.33333
      vertex 10 -10 3.33333
      vertex 7.5 3.849 3.33333
    endloop
  endfacet
  facet normal 0 0 1
    outer loop
      vertex 5 -10 3.33333
      vertex 7.5 -7.698 3.33333
      vertex 5 -7.698 3.33333
    endloop
  endfacet
  facet normal 0 0 1
    outer loop
      vertex 7.5 -7.698 3.33333
      vertex 5 -10 3.33333
      vertex 10 -10 3.33333
    endloop
  endfacet
  facet normal 0 1 0
    outer loop
      vertex 10 -10 10
      vertex 7.5 -10 8.66025
      vertex 5 -10 10
    endloop
  endfacet
  facet normal 0 1 0
    outer loop
      vertex 10 -10 10
      vertex 7.5 -10 7.32051
      vertex 7.5 -10 8.66025
    endloop
  endfacet
  facet normal 0 1 -0
    outer loop
      vertex 10 -10 3.33333
      vertex 7.5 -10 7.32051
      vertex 10 -10 10
    endloop
  endfacet
  facet normal 0 1 0
    outer loop
      vertex 5 -10 3.33333
      vertex 7.5 -10 7.32051
      vertex 10 -10 3.33333
    endloop
  endfacet
  facet normal 0 1 0
    outer loop
      vertex 7.5 -10 7.32051
      vertex 5 -10 3.33333
      vertex 5 -10 7.32051
    endloop
  endfacet
  facet normal 0 1 0
    outer loop
      vertex 5 -10 10
      vertex 7.5 -10 8.66025
      vertex 5 -10 8.66025
    endloop
  endfacet
  facet normal 1 0 0
    outer loop
      vertex 2.5 -5 10
      vertex 2.5 -5.7735 0
      vertex 2.5 -5 0
    endloop
  endfacet
  facet normal 1 -0 0
    outer loop
      vertex 2.5 -7.67949 10
      vertex 2.5 -5.7735 0
      vertex 2.5 -5 10
    endloop
  endfacet
  facet normal 1 0 0
    outer loop
      vertex 2.5 -5.7735 0
      vertex 2.5 -7.67949 10
      vertex 2.5 -10.5801 8.32532
    endloop
  endfacet
  facet normal 0 0.866025 0.5
    outer loop
      vertex 7.5 -7.698 3.33333
      vertex 5 -5.7735 0
      vertex 5 -7.698 3.33333
    endloop
  endfacet
  facet normal -8.25906e-08 0.866025 0.5
    outer loop
      vertex 7.5 -3.849 -3.33333
      vertex 5 -5.7735 0
      vertex 7.5 -7.698 3.33333
    endloop
  endfacet
  facet normal 0 0.866025 0.5
    outer loop
      vertex 5 -5.7735 0
      vertex 7.5 -3.849 -3.33333
      vertex 5 -3.849 -3.33333
    endloop
  endfacet
  facet normal -0 0.866025 0.5
    outer loop
      vertex 5 -10 7.32051
      vertex 7.5 -10.5801 8.32532
      vertex 7.5 -10 7.32051
    endloop
  endfacet
  facet normal 0 0.866025 0.5
    outer loop
      vertex 7.5 -10.5801 8.32532
      vertex 5 -10 7.32051
      vertex 2.5 -10.5801 8.32532
    endloop
  endfacet
  facet normal 8.40244e-08 0.866025 0.5
    outer loop
      vertex 5 -7.698 3.33333
      vertex 2.5 -10.5801 8.32532
      vertex 5 -10 7.32051
    endloop
  endfacet
  facet normal -0 0.866025 0.5
    outer loop
      vertex 2.5 -5.7735 0
      vertex 5 -7.698 3.33333
      vertex 5 -5.7735 0
    endloop
  endfacet
  facet normal -4.49343e-08 0.866025 0.5
    outer loop
      vertex 5 -7.698 3.33333
      vertex 2.5 -5.7735 0
      vertex 2.5 -10.5801 8.32532
    endloop
  endfacet
  facet normal -1 0 -0
    outer loop
      vertex 7.5 -10 8.66025
      vertex 7.5 -10 7.32051
      vertex 7.5 -10.5801 8.32532
    endloop
  endfacet
  facet normal -1 0 0
    outer loop
      vertex 7.5 -3.849 -3.33333
      vertex 7.5 3.849 3.33333
      vertex 7.5 7.698 -3.33333
    endloop
  endfacet
  facet normal -1 -0 0
    outer loop
      vertex 7.5 3.849 3.33333
      vertex 7.5 -3.849 -3.33333
      vertex 7.5 -7.698 3.33333
    endloop
  endfacet
  facet normal 0 0.500001 -0.866025
    outer loop
      vertex 7.5 -10.5801 8.32532
      vertex 5 -10 8.66025
      vertex 7.5 -10 8.66025
    endloop
  endfacet
  facet normal 0 0.500001 -0.866025
    outer loop
      vertex 2.5 -10.5801 8.32532
      vertex 5 -10 8.66025
      vertex 7.5 -10.5801 8.32532
    endloop
  endfacet
  facet normal 2.36364e-07 0.5 -0.866025
    outer loop
      vertex 2.5 -7.67949 10
      vertex 5 -10 8.66025
      vertex 2.5 -10.5801 8.32532
    endloop
  endfacet
  facet normal 0 0.5 -0.866025
    outer loop
      vertex 5 -10 8.66025
      vertex 2.5 -7.67949 10
      vertex 5 -7.67949 10
    endloop
  endfacet
  facet normal 0 -0.866025 -0.5
    outer loop
      vertex 5 7.698 -3.33333
      vertex 7.5 3.849 3.33333
      vertex 5 3.849 3.33333
    endloop
  endfacet
  facet normal 0 -0.866025 -0.5
    outer loop
      vertex 7.5 3.849 3.33333
      vertex 5 7.698 -3.33333
      vertex 7.5 7.698 -3.33333
    endloop
  endfacet
  facet normal 1 0 0
    outer loop
      vertex -7.5 7.698 -3.33333
      vertex -7.5 -0.580127 -8.99519
      vertex -7.5 8.08013 -3.99519
    endloop
  endfacet
  facet normal 1 0 -0
    outer loop
      vertex -7.5 -0.580127 -8.99519
      vertex -7.5 7.698 -3.33333
      vertex -7.5 -3.849 -3.33333
    endloop
  endfacet
  facet normal 1 0 0
    outer loop
      vertex -7.5 -7.698 3.33333
      vertex -7.5 3.00067e-15 10
      vertex -7.5 -7.67949 10
    endloop
  endfacet
  facet normal 1 0 0
    outer loop
      vertex -7.5 3.00067e-15 10
      vertex -7.5 -7.698 3.33333
      vertex -7.5 3.849 3.33333
    endloop
  endfacet
  facet normal 1 0 -0
    outer loop
      vertex -7.5 -7.698 3.33333
      vertex -7.5 -7.67949 10
      vertex -7.5 -10.5801 8.32532
    endloop
  endfacet
  facet normal 0 0.866025 0.5
    outer loop
      vertex -5 -0.580127 -8.99519
      vertex -7.5 -3.849 -3.33333
      vertex -5 -3.849 -3.33333
    endloop
  endfacet
  facet normal 0 0.866025 0.5
    outer loop
      vertex -7.5 -3.849 -3.33333
      vertex -5 -0.580127 -8.99519
      vertex -7.5 -0.580127 -8.99519
    endloop
  endfacet
  facet normal 0 0.866025 0.5
    outer loop
      vertex -2.5 -10.5801 8.32532
      vertex -5 -7.698 3.33333
      vertex -7.5 -10.5801 8.32532
    endloop
  endfacet
  facet normal 4.49343e-08 0.866025 0.5
    outer loop
      vertex -2.5 -5.7735 0
      vertex -5 -7.698 3.33333
      vertex -2.5 -10.5801 8.32532
    endloop
  endfacet
  facet normal 0 0.866025 0.5
    outer loop
      vertex -5 -7.698 3.33333
      vertex -2.5 -5.7735 0
      vertex -5 -5.7735 0
    endloop
  endfacet
  facet normal 0 0.866025 0.5
    outer loop
      vertex -7.5 -10.5801 8.32532
      vertex -5 -7.698 3.33333
      vertex -7.5 -7.698 3.33333
    endloop
  endfacet
  facet normal -1 0 0
    outer loop
      vertex -2.5 -5.7735 0
      vertex -2.5 -5 10
      vertex -2.5 -5 0
    endloop
  endfacet
  facet normal -1 0 0
    outer loop
      vertex -2.5 -5.7735 0
      vertex -2.5 -7.67949 10
      vertex -2.5 -5 10
    endloop
  endfacet
  facet normal -1 0 -0
    outer loop
      vertex -2.5 -7.67949 10
      vertex -2.5 -5.7735 0
      vertex -2.5 -10.5801 8.32532
    endloop
  endfacet
  facet normal 0 0.5 -0.866025
    outer loop
      vertex -7.5 -10.5801 8.32532
      vertex -2.5 -7.67949 10
      vertex -2.5 -10.5801 8.32532
    endloop
  endfacet
  facet normal 0 0.5 -0.866025
    outer loop
      vertex -2.5 -7.67949 10
      vertex -7.5 -10.5801 8.32532
      vertex -7.5 -7.67949 10
    endloop
  endfacet
  facet normal 0 -0.866026 -0.5
    outer loop
      vertex -7.5 8.08013 -3.99519
      vertex -5 7.698 -3.33333
      vertex -7.5 7.698 -3.33333
    endloop
  endfacet
  facet normal 0 -0.866026 -0.5
    outer loop
      vertex -5 7.698 -3.33333
      vertex -7.5 8.08013 -3.99519
      vertex -5 8.08013 -3.99519
    endloop
  endfacet
  facet normal 0 -0.866025 -0.5
    outer loop
      vertex -7.5 3.849 3.33333
      vertex -5 3.00067e-15 10
      vertex -7.5 3.00067e-15 10
    endloop
  endfacet
  facet normal 0 -0.866025 -0.5
    outer loop
      vertex -5 3.00067e-15 10
      vertex -7.5 3.849 3.33333
      vertex -5 3.849 3.33333
    endloop
  endfacet
  facet normal 0 -0.5 0.866025
    outer loop
      vertex -7.5 8.08013 -3.99519
      vertex -5 -0.580127 -8.99519
      vertex -5 8.08013 -3.99519
    endloop
  endfacet
  facet normal 0 -0.5 0.866025
    outer loop
      vertex -5 -0.580127 -8.99519
      vertex -7.5 8.08013 -3.99519
      vertex -7.5 -0.580127 -8.99519
    endloop
  endfacet
endsolid OpenSCAD_Model
