solid OpenSCAD_Model
  facet normal 1 0 0
    outer loop
      vertex 10 0 20
      vertex 10 -11.547 0
      vertex 10 0 0
    endloop
  endfacet
  facet normal 1 -0 0
    outer loop
      vertex 10 -53.6603 72.9423
      vertex 10 0 20
      vertex 10 -36.3397 82.9423
    endloop
  endfacet
  facet normal 1 0 0
    outer loop
      vertex 10 0 20
      vertex 10 -53.6603 72.9423
      vertex 10 -11.547 0
    endloop
  endfacet
  facet normal 0 -0.866025 -0.5
    outer loop
      vertex -10 -11.547 0
      vertex 10 -53.6603 72.9423
      vertex -10 -53.6603 72.9423
    endloop
  endfacet
  facet normal 0 -0.866025 -0.5
    outer loop
      vertex 10 -53.6603 72.9423
      vertex -10 -11.547 0
      vertex 10 -11.547 0
    endloop
  endfacet
  facet normal 0 -0.5 0.866025
    outer loop
      vertex -10 -36.3397 82.9423
      vertex 10 -53.6603 72.9423
      vertex 10 -36.3397 82.9423
    endloop
  endfacet
  facet normal 0 -0.5 0.866025
    outer loop
      vertex 10 -53.6603 72.9423
      vertex -10 -36.3397 82.9423
      vertex -10 -53.6603 72.9423
    endloop
  endfacet
  facet normal -1 0 0
    outer loop
      vertex -10 -11.547 0
      vertex -10 0 20
      vertex -10 0 0
    endloop
  endfacet
  facet normal -1 0 0
    outer loop
      vertex -10 -53.6603 72.9423
      vertex -10 0 20
      vertex -10 -11.547 0
    endloop
  endfacet
  facet normal -1 0 0
    outer loop
      vertex -10 0 20
      vertex -10 -53.6603 72.9423
      vertex -10 -36.3397 82.9423
    endloop
  endfacet
  facet normal 0 0.866025 0.5
    outer loop
      vertex 10 0 20
      vertex -10 -36.3397 82.9423
      vertex 10 -36.3397 82.9423
    endloop
  endfacet
  facet normal 0 0.866025 0.5
    outer loop
      vertex -10 -36.3397 82.9423
      vertex 10 0 20
      vertex -10 0 20
    endloop
  endfacet
  facet normal 0 1 -0
    outer loop
      vertex 2.5 0 0
      vertex -2.5 0 10
      vertex 2.5 0 10
    endloop
  endfacet
  facet normal 0 1 0
    outer loop
      vertex -2.5 0 10
      vertex 2.5 0 0
      vertex -2.5 0 0
    endloop
  endfacet
  facet normal 0 1 0
    outer loop
      vertex 2.5 0 10
      vertex 10 0 20
      vertex 7.5 0 10
    endloop
  endfacet
  facet normal 0 1 -0
    outer loop
      vertex 10 0 0
      vertex 7.5 0 10
      vertex 10 0 20
    endloop
  endfacet
  facet normal 0 1 0
    outer loop
      vertex 7.5 0 10
      vertex 10 0 0
      vertex 7.5 0 0
    endloop
  endfacet
  facet normal 0 1 0
    outer loop
      vertex 10 0 20
      vertex 2.5 0 10
      vertex -10 0 20
    endloop
  endfacet
  facet normal 0 1 -0
    outer loop
      vertex -2.5 0 10
      vertex -10 0 20
      vertex 2.5 0 10
    endloop
  endfacet
  facet normal 0 1 -0
    outer loop
      vertex -7.5 0 10
      vertex -10 0 20
      vertex -2.5 0 10
    endloop
  endfacet
  facet normal 0 1 0
    outer loop
      vertex -10 0 0
      vertex -7.5 0 10
      vertex -7.5 0 0
    endloop
  endfacet
  facet normal 0 1 0
    outer loop
      vertex -7.5 0 10
      vertex -10 0 0
      vertex -10 0 20
    endloop
  endfacet
  facet normal 0 0 -1
    outer loop
      vertex 10 -11.547 0
      vertex 7.5 -5.7735 0
      vertex 10 0 0
    endloop
  endfacet
  facet normal 0 0 -1
    outer loop
      vertex 10 -11.547 0
      vertex 2.5 -5.7735 0
      vertex 7.5 -5.7735 0
    endloop
  endfacet
  facet normal 0 0 -1
    outer loop
      vertex 2.5 -5.7735 0
      vertex -2.5 -5.7735 0
      vertex 2.5 0 0
    endloop
  endfacet
  facet normal 0 0 -1
    outer loop
      vertex 10 -11.547 0
      vertex -2.5 -5.7735 0
      vertex 2.5 -5.7735 0
    endloop
  endfacet
  facet normal 0 0 -1
    outer loop
      vertex -10 -11.547 0
      vertex -2.5 -5.7735 0
      vertex 10 -11.547 0
    endloop
  endfacet
  facet normal -0 0 -1
    outer loop
      vertex -2.5 -5.7735 0
      vertex -10 -11.547 0
      vertex -7.5 -5.7735 0
    endloop
  endfacet
  facet normal 0 0 -1
    outer loop
      vertex -10 0 0
      vertex -7.5 -5.7735 0
      vertex -10 -11.547 0
    endloop
  endfacet
  facet normal 0 0 -1
    outer loop
      vertex -7.5 -5.7735 0
      vertex -10 0 0
      vertex -7.5 0 0
    endloop
  endfacet
  facet normal -0 0 -1
    outer loop
      vertex 10 0 0
      vertex 7.5 -5.7735 0
      vertex 7.5 0 0
    endloop
  endfacet
  facet normal -0 0 -1
    outer loop
      vertex 2.5 0 0
      vertex -2.5 -5.7735 0
      vertex -2.5 0 0
    endloop
  endfacet
  facet normal -1 0 0
    outer loop
      vertex 2.5 -0.580127 -8.99519
      vertex 2.5 0 0
      vertex 2.5 8.08013 -3.99519
    endloop
  endfacet
  facet normal -1 -0 0
    outer loop
      vertex 2.5 0 0
      vertex 2.5 -0.580127 -8.99519
      vertex 2.5 -5.7735 0
    endloop
  endfacet
  facet normal -1 0 0
    outer loop
      vertex 2.5 8.08013 -3.99519
      vertex 2.5 0 0
      vertex 2.5 0 10
    endloop
  endfacet
  facet normal 0 -0.866025 -0.5
    outer loop
      vertex 2.5 -0.580127 -8.99519
      vertex 7.5 -5.7735 0
      vertex 2.5 -5.7735 0
    endloop
  endfacet
  facet normal 0 -0.866025 -0.5
    outer loop
      vertex 7.5 -5.7735 0
      vertex 2.5 -0.580127 -8.99519
      vertex 7.5 -0.580127 -8.99519
    endloop
  endfacet
  facet normal 1 -0 0
    outer loop
      vertex 7.5 0 0
      vertex 7.5 8.08013 -3.99519
      vertex 7.5 0 10
    endloop
  endfacet
  facet normal 1 0 0
    outer loop
      vertex 7.5 0 0
      vertex 7.5 -0.580127 -8.99519
      vertex 7.5 8.08013 -3.99519
    endloop
  endfacet
  facet normal 1 0 -0
    outer loop
      vertex 7.5 -0.580127 -8.99519
      vertex 7.5 0 0
      vertex 7.5 -5.7735 0
    endloop
  endfacet
  facet normal 0 0.866025 0.5
    outer loop
      vertex 7.5 8.08013 -3.99519
      vertex 2.5 0 10
      vertex 7.5 0 10
    endloop
  endfacet
  facet normal 0 0.866025 0.5
    outer loop
      vertex 2.5 0 10
      vertex 7.5 8.08013 -3.99519
      vertex 2.5 8.08013 -3.99519
    endloop
  endfacet
  facet normal 0 0.5 -0.866025
    outer loop
      vertex 2.5 -0.580127 -8.99519
      vertex 7.5 8.08013 -3.99519
      vertex 7.5 -0.580127 -8.99519
    endloop
  endfacet
  facet normal 0 0.5 -0.866025
    outer loop
      vertex 7.5 8.08013 -3.99519
      vertex 2.5 -0.580127 -8.99519
      vertex 2.5 8.08013 -3.99519
    endloop
  endfacet
  facet normal -1 0 0
    outer loop
      vertex -7.5 -0.580127 -8.99519
      vertex -7.5 0 0
      vertex -7.5 8.08013 -3.99519
    endloop
  endfacet
  facet normal -1 -0 0
    outer loop
      vertex -7.5 0 0
      vertex -7.5 -0.580127 -8.99519
      vertex -7.5 -5.7735 0
    endloop
  endfacet
  facet normal -1 0 0
    outer loop
      vertex -7.5 8.08013 -3.99519
      vertex -7.5 0 0
      vertex -7.5 0 10
    endloop
  endfacet
  facet normal 0 -0.866025 -0.5
    outer loop
      vertex -7.5 -0.580127 -8.99519
      vertex -2.5 -5.7735 0
      vertex -7.5 -5.7735 0
    endloop
  endfacet
  facet normal 0 -0.866025 -0.5
    outer loop
      vertex -2.5 -5.7735 0
      vertex -7.5 -0.580127 -8.99519
      vertex -2.5 -0.580127 -8.99519
    endloop
  endfacet
  facet normal 1 -0 0
    outer loop
      vertex -2.5 0 0
      vertex -2.5 8.08013 -3.99519
      vertex -2.5 0 10
    endloop
  endfacet
  facet normal 1 0 0
    outer loop
      vertex -2.5 0 0
      vertex -2.5 -0.580127 -8.99519
      vertex -2.5 8.08013 -3.99519
    endloop
  endfacet
  facet normal 1 0 -0
    outer loop
      vertex -2.5 -0.580127 -8.99519
      vertex -2.5 0 0
      vertex -2.5 -5.7735 0
    endloop
  endfacet
  facet normal 0 0.866025 0.5
    outer loop
      vertex -2.5 8.08013 -3.99519
      vertex -7.5 0 10
      vertex -2.5 0 10
    endloop
  endfacet
  facet normal 0 0.866025 0.5
    outer loop
      vertex -7.5 0 10
      vertex -2.5 8.08013 -3.99519
      vertex -7.5 8.08013 -3.99519
    endloop
  endfacet
  facet normal 0 0.5 -0.866025
    outer loop
      vertex -7.5 -0.580127 -8.99519
      vertex -2.5 8.08013 -3.99519
      vertex -2.5 -0.580127 -8.99519
    endloop
  endfacet
  facet normal 0 0.5 -0.866025
    outer loop
      vertex -2.5 8.08013 -3.99519
      vertex -7.5 -0.580127 -8.99519
      vertex -7.5 8.08013 -3.99519
    endloop
  endfacet
endsolid OpenSCAD_Model
