solid OpenSCAD_Model
  facet normal 0 0 1
    outer loop
      vertex 5 11.547 0
      vertex 2.5 5.7735 0
      vertex 5 5.7735 0
    endloop
  endfacet
  facet normal -0 0 1
    outer loop
      vertex 0 11.547 0
      vertex 2.5 5.7735 0
      vertex 5 11.547 0
    endloop
  endfacet
  facet normal 0 0 1
    outer loop
      vertex 0 5.7735 0
      vertex 2.5 5.7735 0
      vertex 0 11.547 0
    endloop
  endfacet
  facet normal -0 0 1
    outer loop
      vertex 2.5 -5.7735 0
      vertex 5 -11.547 0
      vertex 5 -5.7735 0
    endloop
  endfacet
  facet normal 0 0 1
    outer loop
      vertex 0 -11.547 0
      vertex 2.5 -5.7735 0
      vertex 0 -5.7735 0
    endloop
  endfacet
  facet normal 0 0 1
    outer loop
      vertex 2.5 -5.7735 0
      vertex 0 -11.547 0
      vertex 5 -11.547 0
    endloop
  endfacet
  facet normal -1 0 0
    outer loop
      vertex -5 -5.7735 -10
      vertex -5 -17.3205 -10
      vertex -5 -11.547 -3.10077e-07
    endloop
  endfacet
  facet normal 1 0 0
    outer loop
      vertex 5 11.547 0
      vertex 5 5.7735 0
      vertex 5 8.08013 -3.99519
    endloop
  endfacet
  facet normal 1 -0 0
    outer loop
      vertex 5 8.08013 -3.99519
      vertex 5 5.7735 -10
      vertex 5 11.547 0
    endloop
  endfacet
  facet normal 1 -0 0
    outer loop
      vertex 5 -0.580127 -8.99519
      vertex 5 5.7735 -10
      vertex 5 8.08013 -3.99519
    endloop
  endfacet
  facet normal 1 -0 0
    outer loop
      vertex 5 -11.547 0
      vertex 5 -0.580127 -8.99519
      vertex 5 -5.7735 0
    endloop
  endfacet
  facet normal 1 0 0
    outer loop
      vertex 5 -0.580127 -8.99519
      vertex 5 -17.3205 -10
      vertex 5 5.7735 -10
    endloop
  endfacet
  facet normal 1 0 0
    outer loop
      vertex 5 -17.3205 -10
      vertex 5 -0.580127 -8.99519
      vertex 5 -11.547 0
    endloop
  endfacet
  facet normal -0 0 1
    outer loop
      vertex -10 -5.7735 -10
      vertex -5 -17.3205 -10
      vertex -5 -5.7735 -10
    endloop
  endfacet
  facet normal 0 0 1
    outer loop
      vertex -5 -17.3205 -10
      vertex -10 -5.7735 -10
      vertex -10 -17.3205 -10
    endloop
  endfacet
  facet normal -0 0 1
    outer loop
      vertex 5 5.7735 -10
      vertex 10 -17.3205 -10
      vertex 10 5.7735 -10
    endloop
  endfacet
  facet normal 0 0 1
    outer loop
      vertex 10 -17.3205 -10
      vertex 5 5.7735 -10
      vertex 5 -17.3205 -10
    endloop
  endfacet
  facet normal -1 0 0
    outer loop
      vertex 2.5 -1.16025 -7.99038
      vertex 2.5 -8.08013 -3.99519
      vertex 2.5 -5.7735 0
    endloop
  endfacet
  facet normal -1 0 0
    outer loop
      vertex 2.5 0.580127 -8.99519
      vertex 2.5 6.35116e-07 -8.66025
      vertex 2.5 1.16025 -7.99038
    endloop
  endfacet
  facet normal 1 0 0
    outer loop
      vertex 2.5 8.08013 -3.99519
      vertex 2.5 5.7735 0
      vertex 2.5 1.16025 -7.99038
    endloop
  endfacet
  facet normal 1 0 -0
    outer loop
      vertex 2.5 -0.580127 -8.99519
      vertex 2.5 6.35116e-07 -8.66025
      vertex 2.5 -1.16025 -7.99038
    endloop
  endfacet
  facet normal 0 0.866025 0.5
    outer loop
      vertex 5 -5.7735 0
      vertex 2.5 -1.16025 -7.99038
      vertex 2.5 -5.7735 0
    endloop
  endfacet
  facet normal 3.0058e-08 0.866025 0.5
    outer loop
      vertex 5 -0.580127 -8.99519
      vertex 2.5 -1.16025 -7.99038
      vertex 5 -5.7735 0
    endloop
  endfacet
  facet normal 0 0.866025 0.5
    outer loop
      vertex 2.5 -1.16025 -7.99038
      vertex 5 -0.580127 -8.99519
      vertex 2.5 -0.580127 -8.99519
    endloop
  endfacet
  facet normal 0 -0.866025 -0.5
    outer loop
      vertex 2.5 8.08013 -3.99519
      vertex 5 5.7735 0
      vertex 2.5 5.7735 0
    endloop
  endfacet
  facet normal 0 -0.866025 -0.5
    outer loop
      vertex 5 5.7735 0
      vertex 2.5 8.08013 -3.99519
      vertex 5 8.08013 -3.99519
    endloop
  endfacet
  facet normal 0 -0.5 0.866025
    outer loop
      vertex 2.5 1.16025 -7.99038
      vertex 5 8.08013 -3.99519
      vertex 2.5 8.08013 -3.99519
    endloop
  endfacet
  facet normal 1.73416e-08 -0.5 0.866025
    outer loop
      vertex 5 8.08013 -3.99519
      vertex 2.5 1.16025 -7.99038
      vertex 5 -0.580127 -8.99519
    endloop
  endfacet
  facet normal 1.1513e-07 -0.5 0.866025
    outer loop
      vertex 2.5 6.35116e-07 -8.66025
      vertex 5 -0.580127 -8.99519
      vertex 2.5 1.16025 -7.99038
    endloop
  endfacet
  facet normal 0 -0.5 0.866025
    outer loop
      vertex 5 -0.580127 -8.99519
      vertex 2.5 6.35116e-07 -8.66025
      vertex 2.5 -0.580127 -8.99519
    endloop
  endfacet
  facet normal 1 -0 0
    outer loop
      vertex 10 -17.3205 -10
      vertex 10 -36.3397 -82.9423
      vertex 10 5.7735 -10
    endloop
  endfacet
  facet normal 1 0 -0
    outer loop
      vertex 10 -36.3397 -82.9423
      vertex 10 -17.3205 -10
      vertex 10 -53.6603 -72.9423
    endloop
  endfacet
  facet normal 0 0.866025 -0.5
    outer loop
      vertex 10 5.7735 -10
      vertex 0 -2.97361e-08 -20
      vertex 5 5.7735 -10
    endloop
  endfacet
  facet normal 2.50095e-08 0.866025 -0.5
    outer loop
      vertex 10 -36.3397 -82.9423
      vertex 0 -2.97361e-08 -20
      vertex 10 5.7735 -10
    endloop
  endfacet
  facet normal 0 0.866025 -0.5
    outer loop
      vertex -10 -36.3397 -82.9423
      vertex 0 -2.97361e-08 -20
      vertex 10 -36.3397 -82.9423
    endloop
  endfacet
  facet normal 0 0.866025 -0.5
    outer loop
      vertex 0 -2.97361e-08 -20
      vertex -10 -36.3397 -82.9423
      vertex -10 -2.97361e-08 -20
    endloop
  endfacet
  facet normal 0 0.866025 -0.5
    outer loop
      vertex 5 5.7735 -10
      vertex 0 11.547 0
      vertex 5 11.547 0
    endloop
  endfacet
  facet normal -2.57522e-09 0.866025 -0.5
    outer loop
      vertex 0 11.547 0
      vertex 5 5.7735 -10
      vertex 0 -2.97361e-08 -20
    endloop
  endfacet
  facet normal 0 -0.5 -0.866025
    outer loop
      vertex -10 -53.6603 -72.9423
      vertex 10 -36.3397 -82.9423
      vertex 10 -53.6603 -72.9423
    endloop
  endfacet
  facet normal -0 -0.5 -0.866025
    outer loop
      vertex 10 -36.3397 -82.9423
      vertex -10 -53.6603 -72.9423
      vertex -10 -36.3397 -82.9423
    endloop
  endfacet
  facet normal -1 0 0
    outer loop
      vertex -10 -2.97361e-08 -20
      vertex -10 -17.3205 -10
      vertex -10 -5.7735 -10
    endloop
  endfacet
  facet normal -1 0 0
    outer loop
      vertex -10 -36.3397 -82.9423
      vertex -10 -17.3205 -10
      vertex -10 -2.97361e-08 -20
    endloop
  endfacet
  facet normal -1 0 0
    outer loop
      vertex -10 -17.3205 -10
      vertex -10 -36.3397 -82.9423
      vertex -10 -53.6603 -72.9423
    endloop
  endfacet
  facet normal 0 -0.866025 0.5
    outer loop
      vertex -5 -11.547 -3.10077e-07
      vertex -5 -17.3205 -10
      vertex 0 -11.547 -3.10077e-07
    endloop
  endfacet
  facet normal 0 -1 0
    outer loop
      vertex 0 -11.547 -3.10077e-07
      vertex 5 -11.547 0
      vertex 0 -11.547 0
    endloop
  endfacet
  facet normal 0 -0.866025 0.5
    outer loop
      vertex 5 -17.3205 -10
      vertex 0 -11.547 -3.10077e-07
      vertex -5 -17.3205 -10
    endloop
  endfacet
  facet normal -3.10077e-08 -0.866025 0.5
    outer loop
      vertex 0 -11.547 -3.10077e-07
      vertex 5 -17.3205 -10
      vertex 5 -11.547 0
    endloop
  endfacet
  facet normal 0 -0.866025 0.5
    outer loop
      vertex -10 -53.6603 -72.9423
      vertex -5 -17.3205 -10
      vertex -10 -17.3205 -10
    endloop
  endfacet
  facet normal 0 -0.866025 0.5
    outer loop
      vertex -5 -17.3205 -10
      vertex -10 -53.6603 -72.9423
      vertex 5 -17.3205 -10
    endloop
  endfacet
  facet normal 0 -0.866025 0.5
    outer loop
      vertex 10 -53.6603 -72.9423
      vertex 5 -17.3205 -10
      vertex -10 -53.6603 -72.9423
    endloop
  endfacet
  facet normal 0 -0.866025 0.5
    outer loop
      vertex 5 -17.3205 -10
      vertex 10 -53.6603 -72.9423
      vertex 10 -17.3205 -10
    endloop
  endfacet
  facet normal -1 -0 0
    outer loop
      vertex 0 11.547 0
      vertex 0 0.580127 -8.99519
      vertex 0 5.7735 0
    endloop
  endfacet
  facet normal -1 0 0
    outer loop
      vertex 0 -2.97361e-08 -20
      vertex 0 0.580127 -8.99519
      vertex 0 11.547 0
    endloop
  endfacet
  facet normal -1 0 0
    outer loop
      vertex 0 -2.97361e-08 -20
      vertex 0 -8.08013 -3.99519
      vertex 0 0.580127 -8.99519
    endloop
  endfacet
  facet normal -1 -0 -0
    outer loop
      vertex 0 -8.08013 -3.99519
      vertex 0 -2.97361e-08 -20
      vertex 0 -11.547 -3.10077e-07
    endloop
  endfacet
  facet normal -1 0 0
    outer loop
      vertex 0 -11.547 -3.10077e-07
      vertex 0 -5.7735 0
      vertex 0 -8.08013 -3.99519
    endloop
  endfacet
  facet normal -1 -0 0
    outer loop
      vertex 0 -5.7735 0
      vertex 0 -11.547 -3.10077e-07
      vertex 0 -11.547 0
    endloop
  endfacet
  facet normal 0 0.866025 0.5
    outer loop
      vertex 0 -11.547 -3.10077e-07
      vertex -5 -5.7735 -10
      vertex -5 -11.547 -3.10077e-07
    endloop
  endfacet
  facet normal 1.80791e-08 0.866025 0.5
    outer loop
      vertex 0 -2.97361e-08 -20
      vertex -5 -5.7735 -10
      vertex 0 -11.547 -3.10077e-07
    endloop
  endfacet
  facet normal -0 0.866025 0.5
    outer loop
      vertex -10 -2.97361e-08 -20
      vertex -5 -5.7735 -10
      vertex 0 -2.97361e-08 -20
    endloop
  endfacet
  facet normal 0 0.866025 0.5
    outer loop
      vertex -5 -5.7735 -10
      vertex -10 -2.97361e-08 -20
      vertex -10 -5.7735 -10
    endloop
  endfacet
  facet normal 0 0.866025 -0.5
    outer loop
      vertex 2.5 -8.08013 -3.99519
      vertex 0 -5.7735 0
      vertex 2.5 -5.7735 0
    endloop
  endfacet
  facet normal 0 0.866025 -0.5
    outer loop
      vertex 0 -5.7735 0
      vertex 2.5 -8.08013 -3.99519
      vertex 0 -8.08013 -3.99519
    endloop
  endfacet
  facet normal 0 -0.866025 0.5
    outer loop
      vertex 0 5.7735 0
      vertex 2.5 1.16025 -7.99038
      vertex 2.5 5.7735 0
    endloop
  endfacet
  facet normal 1.16789e-08 -0.866025 0.5
    outer loop
      vertex 0 0.580127 -8.99519
      vertex 2.5 1.16025 -7.99038
      vertex 0 5.7735 0
    endloop
  endfacet
  facet normal 0 -0.866025 0.5
    outer loop
      vertex 2.5 1.16025 -7.99038
      vertex 0 0.580127 -8.99519
      vertex 2.5 0.580127 -8.99519
    endloop
  endfacet
  facet normal -0 0.5 0.866025
    outer loop
      vertex 0 0.580127 -8.99519
      vertex 2.5 6.35116e-07 -8.66025
      vertex 2.5 0.580127 -8.99519
    endloop
  endfacet
  facet normal -6.19723e-08 0.5 0.866025
    outer loop
      vertex 2.5 6.35116e-07 -8.66025
      vertex 0 0.580127 -8.99519
      vertex 2.5 -1.16025 -7.99038
    endloop
  endfacet
  facet normal -2.81773e-08 0.5 0.866025
    outer loop
      vertex 0 -8.08013 -3.99519
      vertex 2.5 -1.16025 -7.99038
      vertex 0 0.580127 -8.99519
    endloop
  endfacet
  facet normal 0 0.5 0.866025
    outer loop
      vertex 2.5 -1.16025 -7.99038
      vertex 0 -8.08013 -3.99519
      vertex 2.5 -8.08013 -3.99519
    endloop
  endfacet
endsolid OpenSCAD_Model
