solid OpenSCAD_Model
  facet normal 0 0.104529 -0.994522
    outer loop
      vertex 18.656 1.59616 -9.83224
      vertex 18.4965 2.07912 -9.78148
      vertex 27.3267 2.07912 -9.78148
    endloop
  endfacet
  facet normal 6.04109e-08 0.104529 -0.994522
    outer loop
      vertex -2.5135 0.417002 -9.95617
      vertex -0.490197 2.07912 -9.78148
      vertex 0.214542 0.568956 -9.9402
    endloop
  endfacet
  facet normal 0 0.104529 -0.994522
    outer loop
      vertex -0.490197 2.07912 -9.78148
      vertex -2.5135 0.417002 -9.95617
      vertex -4.25267 2.07912 -9.78148
    endloop
  endfacet
  facet normal -1 0 0
    outer loop
      vertex -10 6.50334 -5.27505
      vertex -10 9.51056 -3.09017
      vertex -10 6.61755 -5.69505
    endloop
  endfacet
  facet normal 0 0.104528 -0.994522
    outer loop
      vertex 18.8364 1.05034 -9.8896
      vertex 27.3267 -5.54798e-16 -10
      vertex 18.9127 -4.06446e-16 -10
    endloop
  endfacet
  facet normal 2.42689e-08 0.104528 -0.994522
    outer loop
      vertex 27.3267 -5.54798e-16 -10
      vertex 18.8364 1.05034 -9.8896
      vertex 27.3267 2.07912 -9.78148
    endloop
  endfacet
  facet normal 4.23763e-08 0.104528 -0.994522
    outer loop
      vertex 27.3267 2.07912 -9.78148
      vertex 18.8364 1.05034 -9.8896
      vertex 18.656 1.59616 -9.83224
    endloop
  endfacet
  facet normal 1.84303e-18 0.104529 -0.994522
    outer loop
      vertex -2.07717 -3.63591e-17 -10
      vertex 0.214542 0.568956 -9.9402
      vertex 0.480054 -8.14471e-17 -10
    endloop
  endfacet
  facet normal 4.51549e-08 0.104529 -0.994522
    outer loop
      vertex 0.214542 0.568956 -9.9402
      vertex -2.07717 -3.63591e-17 -10
      vertex -2.5135 0.417002 -9.95617
    endloop
  endfacet
  facet normal 0 0.104529 0.994522
    outer loop
      vertex 27.3267 2.07912 9.78148
      vertex 17.5084 -2.35719e-16 10
      vertex 27.3267 -4.08832e-16 10
    endloop
  endfacet
  facet normal 2.04668e-07 0.104528 0.994522
    outer loop
      vertex 27.3267 2.07912 9.78148
      vertex 17.3192 0.279587 9.97061
      vertex 17.5084 -2.35719e-16 10
    endloop
  endfacet
  facet normal 0 0.104529 0.994522
    outer loop
      vertex 17.3192 0.279587 9.97061
      vertex 27.3267 2.07912 9.78148
      vertex 15.6146 2.07912 9.78148
    endloop
  endfacet
  facet normal 0 0.104529 0.994522
    outer loop
      vertex 5.65816 2.07912 9.78148
      vertex -7.60992 2.07159e-16 10
      vertex 4.20491 -1.15655e-18 10
    endloop
  endfacet
  facet normal 0 0.104529 0.994522
    outer loop
      vertex -7.60992 2.07159e-16 10
      vertex 5.65816 2.07912 9.78148
      vertex -9.66452 2.07912 9.78148
    endloop
  endfacet
  facet normal 0 -0.978148 0.207911
    outer loop
      vertex 4.98439 -9.94522 1.04528
      vertex 8.22018 -9.51056 3.09017
      vertex 3.97653 -9.51056 3.09017
    endloop
  endfacet
  facet normal -2.13515e-07 -0.978148 0.207912
    outer loop
      vertex 8.22018 -9.51056 3.09017
      vertex 4.98439 -9.94522 1.04528
      vertex 9.00185 -9.64568 2.4545
    endloop
  endfacet
  facet normal -5.33067e-08 -0.978148 0.207911
    outer loop
      vertex 9.00185 -9.64568 2.4545
      vertex 4.98439 -9.94522 1.04528
      vertex 9.854 -9.79298 1.76151
    endloop
  endfacet
  facet normal 8.09081e-07 -0.978149 0.207906
    outer loop
      vertex 9.854 -9.79298 1.76151
      vertex 4.98439 -9.94522 1.04528
      vertex 9.90214 -9.8013 1.72236
    endloop
  endfacet
  facet normal 2.51716e-06 -0.978151 0.207894
    outer loop
      vertex 9.90214 -9.8013 1.72236
      vertex 4.98439 -9.94522 1.04528
      vertex 9.92713 -9.80562 1.70204
    endloop
  endfacet
  facet normal -1.70648e-06 -0.978145 0.207924
    outer loop
      vertex 9.92713 -9.80562 1.70204
      vertex 4.98439 -9.94522 1.04528
      vertex 9.98216 -9.81513 1.65729
    endloop
  endfacet
  facet normal 2.07304e-06 -0.978151 0.207895
    outer loop
      vertex 9.98216 -9.81513 1.65729
      vertex 4.98439 -9.94522 1.04528
      vertex 10.014 -9.82063 1.63141
    endloop
  endfacet
  facet normal -1.45739e-08 -0.978148 0.207911
    outer loop
      vertex 27.3267 -9.94522 1.04528
      vertex 12.265 -9.51056 3.09017
      vertex 10.014 -9.82063 1.63141
    endloop
  endfacet
  facet normal 0 -0.978148 0.207912
    outer loop
      vertex 27.3267 -9.94522 1.04528
      vertex 10.014 -9.82063 1.63141
      vertex 4.98439 -9.94522 1.04528
    endloop
  endfacet
  facet normal 0 -0.978148 0.207911
    outer loop
      vertex 12.265 -9.51056 3.09017
      vertex 27.3267 -9.94522 1.04528
      vertex 27.3267 -9.51056 3.09017
    endloop
  endfacet
  facet normal -1 1.47685e-06 -1.6402e-06
    outer loop
      vertex -10 6.61755 -5.69505
      vertex -10 9.51056 -3.09017
      vertex -10 6.74457 -6.16212
    endloop
  endfacet
  facet normal -1 0 0
    outer loop
      vertex -10 5.90919 -3.09017
      vertex -10 9.94522 -1.04528
      vertex -10 9.51056 -3.09017
    endloop
  endfacet
  facet normal -1 -0 0
    outer loop
      vertex -10 9.94522 -1.04528
      vertex -10 5.90919 -3.09017
      vertex -10 9.94522 1.04528
    endloop
  endfacet
  facet normal -1 -0 0
    outer loop
      vertex -10 9.94522 1.04528
      vertex -10 5.90919 -3.09017
      vertex -10 9.51056 3.09017
    endloop
  endfacet
  facet normal -1 -0 0
    outer loop
      vertex -10 9.51056 3.09017
      vertex -10 5.90919 -3.09017
      vertex -10 8.66025 5
    endloop
  endfacet
  facet normal -1 -0 0
    outer loop
      vertex -10 8.66025 5
      vertex -10 5.90919 -3.09017
      vertex -10 7.43145 6.69131
    endloop
  endfacet
  facet normal -1 0 0
    outer loop
      vertex -10 5.90919 -3.09017
      vertex -10 5.87785 8.09017
      vertex -10 7.43145 6.69131
    endloop
  endfacet
  facet normal -1 0 0
    outer loop
      vertex -10 5.90919 -3.09017
      vertex -10 4.06737 9.13545
      vertex -10 5.87785 8.09017
    endloop
  endfacet
  facet normal -1 -0 -0
    outer loop
      vertex -10 4.06737 9.13545
      vertex -10 5.90919 -3.09017
      vertex -10 2.44086 9.66394
    endloop
  endfacet
  facet normal 0 -0.5 0.866026
    outer loop
      vertex 18.9424 -4.06737 9.13545
      vertex 27.3267 -5.87785 8.09017
      vertex 27.3267 -4.06737 9.13545
    endloop
  endfacet
  facet normal -3.33413e-08 -0.5 0.866025
    outer loop
      vertex 18.5474 -5.64871 8.22247
      vertex 27.3267 -5.87785 8.09017
      vertex 18.9424 -4.06737 9.13545
    endloop
  endfacet
  facet normal 0 -0.499999 0.866026
    outer loop
      vertex 27.3267 -5.87785 8.09017
      vertex 18.5474 -5.64871 8.22247
      vertex 18.4203 -5.87785 8.09017
    endloop
  endfacet
  facet normal 0 -0.5 0.866026
    outer loop
      vertex 3.10376 -4.06737 9.13545
      vertex -1.10215 -5.87785 8.09017
      vertex 3.50398 -5.87785 8.09017
    endloop
  endfacet
  facet normal 0 -0.5 0.866026
    outer loop
      vertex -1.10215 -5.87785 8.09017
      vertex 3.10376 -4.06737 9.13545
      vertex -3.2331 -4.06737 9.13545
    endloop
  endfacet
  facet normal -1 0 0
    outer loop
      vertex -10 5.90919 -3.09017
      vertex -10 9.51056 -3.09017
      vertex -10 6.50334 -5.27505
    endloop
  endfacet
  facet normal -1 -2.64808e-07 -7.20114e-08
    outer loop
      vertex -10 6.81152 -6.40835
      vertex -10 9.51056 -3.09017
      vertex -10 6.89003 -6.69703
    endloop
  endfacet
  facet normal -1 -2.64808e-07 -7.20114e-08
    outer loop
      vertex -10 9.51056 -3.09017
      vertex -10 6.81152 -6.40835
      vertex -10 6.74457 -6.16212
    endloop
  endfacet
  facet normal -0 0.669131 0.743145
    outer loop
      vertex -10 7.43145 6.69131
      vertex 27.3267 5.87785 8.09017
      vertex 27.3267 7.43145 6.69131
    endloop
  endfacet
  facet normal 0 0.669131 0.743145
    outer loop
      vertex 27.3267 5.87785 8.09017
      vertex -10 7.43145 6.69131
      vertex -10 5.87785 8.09017
    endloop
  endfacet
  facet normal 0 0.5 0.866026
    outer loop
      vertex 27.3267 5.87785 8.09017
      vertex 13.0342 4.06737 9.13545
      vertex 27.3267 4.06737 9.13545
    endloop
  endfacet
  facet normal 1.02036e-07 0.499999 0.866026
    outer loop
      vertex 27.3267 5.87785 8.09017
      vertex 12.6719 4.32695 8.98558
      vertex 13.0342 4.06737 9.13545
    endloop
  endfacet
  facet normal -1.97977e-07 0.500001 0.866025
    outer loop
      vertex 27.3267 5.87785 8.09017
      vertex 12.3108 4.52737 8.86987
      vertex 12.6719 4.32695 8.98558
    endloop
  endfacet
  facet normal -1.02323e-08 0.5 0.866026
    outer loop
      vertex 27.3267 5.87785 8.09017
      vertex 9.9796 5.82124 8.12286
      vertex 12.3108 4.52737 8.86987
    endloop
  endfacet
  facet normal 2.08794e-08 0.500001 0.866025
    outer loop
      vertex -10 5.87785 8.09017
      vertex 9.41624 5.39944 8.36638
      vertex 9.80361 5.68948 8.19893
    endloop
  endfacet
  facet normal -0 0.499997 0.866027
    outer loop
      vertex -10 5.87785 8.09017
      vertex 9.9796 5.82124 8.12286
      vertex 27.3267 5.87785 8.09017
    endloop
  endfacet
  facet normal 9.6498e-09 0.5 0.866025
    outer loop
      vertex -10 5.87785 8.09017
      vertex 9.80361 5.68948 8.19893
      vertex 9.9796 5.82124 8.12286
    endloop
  endfacet
  facet normal -1.76775e-08 0.5 0.866026
    outer loop
      vertex 9.41624 5.39944 8.36638
      vertex -10 5.87785 8.09017
      vertex 7.63709 4.06737 9.13545
    endloop
  endfacet
  facet normal 0 0.5 0.866026
    outer loop
      vertex 7.63709 4.06737 9.13545
      vertex -10 5.87785 8.09017
      vertex -10 4.06737 9.13545
    endloop
  endfacet
  facet normal 5.1655e-08 -0.309017 0.951057
    outer loop
      vertex 27.3267 -2.07912 9.78148
      vertex 18.9623 -3.81082 9.21881
      vertex 27.3267 -4.06737 9.13545
    endloop
  endfacet
  facet normal -7.65023e-08 -0.309016 0.951057
    outer loop
      vertex 27.3267 -2.07912 9.78148
      vertex 18.7969 -2.93844 9.50226
      vertex 18.9623 -3.81082 9.21881
    endloop
  endfacet
  facet normal 0 -0.309017 0.951057
    outer loop
      vertex 18.7969 -2.93844 9.50226
      vertex 27.3267 -2.07912 9.78148
      vertex 18.6339 -2.07912 9.78148
    endloop
  endfacet
  facet normal 0 -0.309018 0.951056
    outer loop
      vertex 27.3267 -4.06737 9.13545
      vertex 18.9623 -3.81082 9.21881
      vertex 18.9424 -4.06737 9.13545
    endloop
  endfacet
  facet normal 0 -0.309017 0.951057
    outer loop
      vertex 3.34085 -2.07912 9.78148
      vertex -3.2331 -4.06737 9.13545
      vertex 3.10376 -4.06737 9.13545
    endloop
  endfacet
  facet normal 0 -0.309017 0.951057
    outer loop
      vertex -3.2331 -4.06737 9.13545
      vertex 3.34085 -2.07912 9.78148
      vertex -5.43442 -2.07912 9.78148
    endloop
  endfacet
  facet normal 0 -1 0
    outer loop
      vertex 5.56272 -9.94522 -1.04528
      vertex 27.3267 -9.94522 1.04528
      vertex 4.98439 -9.94522 1.04528
    endloop
  endfacet
  facet normal 0 -1 -0
    outer loop
      vertex 27.3267 -9.94522 1.04528
      vertex 5.56272 -9.94522 -1.04528
      vertex 27.3267 -9.94522 -1.04528
    endloop
  endfacet
  facet normal 0 0.309017 -0.951057
    outer loop
      vertex 18.4965 2.07912 -9.78148
      vertex 27.3267 4.06737 -9.13545
      vertex 27.3267 2.07912 -9.78148
    endloop
  endfacet
  facet normal 2.1854e-08 0.309017 -0.951057
    outer loop
      vertex 18.0078 3.095 -9.4514
      vertex 27.3267 4.06737 -9.13545
      vertex 18.4965 2.07912 -9.78148
    endloop
  endfacet
  facet normal 1.20514e-08 0.309017 -0.951057
    outer loop
      vertex 17.4628 3.80892 -9.21943
      vertex 27.3267 4.06737 -9.13545
      vertex 18.0078 3.095 -9.4514
    endloop
  endfacet
  facet normal 0 0.309017 -0.951056
    outer loop
      vertex 27.3267 4.06737 -9.13545
      vertex 17.4628 3.80892 -9.21943
      vertex 17.2656 4.06737 -9.13545
    endloop
  endfacet
  facet normal 0 0.309017 -0.951056
    outer loop
      vertex -0.490197 2.07912 -9.78148
      vertex -4.25267 2.07912 -9.78148
      vertex -1.18649 3.207 -9.415
    endloop
  endfacet
  facet normal 0 0.309016 -0.951057
    outer loop
      vertex -1.18649 3.207 -9.415
      vertex -6.45399 4.06737 -9.13545
      vertex 1.82671 4.06737 -9.13545
    endloop
  endfacet
  facet normal 8.09237e-08 0.309017 -0.951057
    outer loop
      vertex -6.45399 4.06737 -9.13545
      vertex -1.18649 3.207 -9.415
      vertex -4.25267 2.07912 -9.78148
    endloop
  endfacet
  facet normal 0 0.978148 -0.207911
    outer loop
      vertex 27.3267 9.51056 -3.09017
      vertex -10 9.94522 -1.04528
      vertex 27.3267 9.94522 -1.04528
    endloop
  endfacet
  facet normal 0 0.978148 -0.207911
    outer loop
      vertex -10 9.94522 -1.04528
      vertex 27.3267 9.51056 -3.09017
      vertex -10 9.51056 -3.09017
    endloop
  endfacet
  facet normal -0 0.309017 0.951057
    outer loop
      vertex -10 4.06737 9.13545
      vertex 5.65816 2.07912 9.78148
      vertex 7.63709 4.06737 9.13545
    endloop
  endfacet
  facet normal 0 0.309017 0.951057
    outer loop
      vertex 5.65816 2.07912 9.78148
      vertex -10 4.06737 9.13545
      vertex -9.66452 2.07912 9.78148
    endloop
  endfacet
  facet normal 1.75014e-06 0.309017 0.951056
    outer loop
      vertex -9.66452 2.07912 9.78148
      vertex -10 4.06737 9.13545
      vertex -10 2.44086 9.66394
    endloop
  endfacet
  facet normal 0 0.309017 0.951057
    outer loop
      vertex 27.3267 4.06737 9.13545
      vertex 15.6146 2.07912 9.78148
      vertex 27.3267 2.07912 9.78148
    endloop
  endfacet
  facet normal 2.05512e-08 0.309017 0.951057
    outer loop
      vertex 27.3267 4.06737 9.13545
      vertex 15.3323 2.35373 9.69225
      vertex 15.6146 2.07912 9.78148
    endloop
  endfacet
  facet normal 0 0.309017 0.951057
    outer loop
      vertex 15.3323 2.35373 9.69225
      vertex 27.3267 4.06737 9.13545
      vertex 13.0342 4.06737 9.13545
    endloop
  endfacet
  facet normal 0 0.913545 0.406737
    outer loop
      vertex 27.3267 9.51056 3.09017
      vertex -10 9.51056 3.09017
      vertex 27.3267 8.66025 5
    endloop
  endfacet
  facet normal 4.62509e-08 -0.809017 0.587786
    outer loop
      vertex 27.3267 -8.66025 5
      vertex 17.0901 -7.43145 6.69131
      vertex 15.3347 -8.51167 5.20451
    endloop
  endfacet
  facet normal 0 -0.809018 0.587784
    outer loop
      vertex 27.3267 -8.66025 5
      vertex 15.3347 -8.51167 5.20451
      vertex 15.0089 -8.66025 5
    endloop
  endfacet
  facet normal 0 -0.809017 0.587785
    outer loop
      vertex 17.0901 -7.43145 6.69131
      vertex 27.3267 -8.66025 5
      vertex 27.3267 -7.43145 6.69131
    endloop
  endfacet
  facet normal 0 -0.669131 0.743145
    outer loop
      vertex 18.4203 -5.87785 8.09017
      vertex 27.3267 -7.43145 6.69131
      vertex 27.3267 -5.87785 8.09017
    endloop
  endfacet
  facet normal 2.04289e-09 -0.669131 0.743145
    outer loop
      vertex 17.3205 -7.23887 6.8647
      vertex 27.3267 -7.43145 6.69131
      vertex 18.4203 -5.87785 8.09017
    endloop
  endfacet
  facet normal 0 -0.669131 0.743145
    outer loop
      vertex 27.3267 -7.43145 6.69131
      vertex 17.3205 -7.23887 6.8647
      vertex 17.0901 -7.43145 6.69131
    endloop
  endfacet
  facet normal 0 -0.66913 0.743145
    outer loop
      vertex 3.50398 -5.87785 8.09017
      vertex -0.943797 -6.0029 7.97758
      vertex 3.58609 -6.0029 7.97758
    endloop
  endfacet
  facet normal 0 -0.66913 0.743145
    outer loop
      vertex -0.943797 -6.0029 7.97758
      vertex 3.50398 -5.87785 8.09017
      vertex -1.10215 -5.87785 8.09017
    endloop
  endfacet
  facet normal -3.33139e-09 -0.913545 0.406737
    outer loop
      vertex 27.3267 -9.51056 3.09017
      vertex 15.0089 -8.66025 5
      vertex 12.6763 -9.4111 3.31357
    endloop
  endfacet
  facet normal 2.18753e-08 -0.913545 0.406738
    outer loop
      vertex 27.3267 -9.51056 3.09017
      vertex 12.6763 -9.4111 3.31357
      vertex 12.3406 -9.4923 3.1312
    endloop
  endfacet
  facet normal 0 -0.913548 0.406731
    outer loop
      vertex 27.3267 -9.51056 3.09017
      vertex 12.3406 -9.4923 3.1312
      vertex 12.265 -9.51056 3.09017
    endloop
  endfacet
  facet normal 0 -0.913545 0.406737
    outer loop
      vertex 15.0089 -8.66025 5
      vertex 27.3267 -9.51056 3.09017
      vertex 27.3267 -8.66025 5
    endloop
  endfacet
  facet normal 1.84658e-07 -0.913546 0.406734
    outer loop
      vertex 3.97653 -9.51056 3.09017
      vertex 8.06947 -9.44956 3.22718
      vertex 3.87658 -9.44957 3.22718
    endloop
  endfacet
  facet normal 0 -0.913544 0.406739
    outer loop
      vertex 8.06947 -9.44956 3.22718
      vertex 3.97653 -9.51056 3.09017
      vertex 8.22018 -9.51056 3.09017
    endloop
  endfacet
  facet normal 0 -0.104529 0.994522
    outer loop
      vertex 27.3267 -4.08832e-16 10
      vertex 18.6339 -2.07912 9.78148
      vertex 27.3267 -2.07912 9.78148
    endloop
  endfacet
  facet normal 1.70599e-07 -0.10453 0.994522
    outer loop
      vertex 27.3267 -4.08832e-16 10
      vertex 18.5469 -1.80554 9.81023
      vertex 18.6339 -2.07912 9.78148
    endloop
  endfacet
  facet normal -5.22118e-08 -0.104529 0.994522
    outer loop
      vertex 27.3267 -4.08832e-16 10
      vertex 17.8253 -0.550971 9.94209
      vertex 18.5469 -1.80554 9.81023
    endloop
  endfacet
  facet normal -2.55135e-18 -0.104529 0.994522
    outer loop
      vertex 17.8253 -0.550971 9.94209
      vertex 27.3267 -4.08832e-16 10
      vertex 17.5084 -2.35719e-16 10
    endloop
  endfacet
  facet normal 0 -0.104529 0.994522
    outer loop
      vertex 3.79555 -0.985017 9.89647
      vertex -5.43442 -2.07912 9.78148
      vertex 3.34085 -2.07912 9.78148
    endloop
  endfacet
  facet normal 9.68031e-09 -0.104529 0.994522
    outer loop
      vertex 4.20491 -1.15655e-18 10
      vertex -5.43442 -2.07912 9.78148
      vertex 3.79555 -0.985017 9.89647
    endloop
  endfacet
  facet normal 0 -0.104529 0.994522
    outer loop
      vertex -5.43442 -2.07912 9.78148
      vertex 4.20491 -1.15655e-18 10
      vertex -7.60992 2.07159e-16 10
    endloop
  endfacet
  facet normal 0 -0.669131 -0.743145
    outer loop
      vertex 27.3267 -7.43145 -6.69131
      vertex 15.2724 -5.87785 -8.09017
      vertex 27.3267 -5.87785 -8.09017
    endloop
  endfacet
  facet normal 1.45283e-08 -0.669131 -0.743145
    outer loop
      vertex 27.3267 -7.43145 -6.69131
      vertex 14.0602 -6.68753 -7.36113
      vertex 15.2724 -5.87785 -8.09017
    endloop
  endfacet
  facet normal 0 -0.669131 -0.743145
    outer loop
      vertex 14.0602 -6.68753 -7.36113
      vertex 27.3267 -7.43145 -6.69131
      vertex 12.6003 -7.43145 -6.69131
    endloop
  endfacet
  facet normal 0 -0.669131 -0.743145
    outer loop
      vertex 4.56741 -7.43145 -6.69131
      vertex 5.88448 -5.87785 -8.09017
      vertex 7.9251 -7.43145 -6.69131
    endloop
  endfacet
  facet normal -0 -0.669131 -0.743145
    outer loop
      vertex 5.88448 -5.87785 -8.09017
      vertex 4.56741 -7.43145 -6.69131
      vertex 3.37394 -5.87785 -8.09017
    endloop
  endfacet
  facet normal 0 0.669131 -0.743145
    outer loop
      vertex 15.2723 5.87785 -8.09017
      vertex 27.3267 7.43145 -6.69131
      vertex 27.3267 5.87785 -8.09017
    endloop
  endfacet
  facet normal 4.08208e-08 0.669131 -0.743145
    outer loop
      vertex 14.6341 6.30361 -7.70682
      vertex 27.3267 7.43145 -6.69131
      vertex 15.2723 5.87785 -8.09017
    endloop
  endfacet
  facet normal -3.42845e-08 0.669131 -0.743144
    outer loop
      vertex 14.0473 6.69508 -7.35434
      vertex 27.3267 7.43145 -6.69131
      vertex 14.6341 6.30361 -7.70682
    endloop
  endfacet
  facet normal 0 0.669131 -0.743145
    outer loop
      vertex 27.3267 7.43145 -6.69131
      vertex 14.0473 6.69508 -7.35434
      vertex 12.6002 7.43145 -6.69131
    endloop
  endfacet
  facet normal -4.74563e-09 0.669131 -0.743145
    outer loop
      vertex -10 7.43145 -6.69131
      vertex 7.42103 7.04768 -7.03685
      vertex 5.88448 5.87785 -8.09017
    endloop
  endfacet
  facet normal 6.01388e-09 0.669131 -0.743144
    outer loop
      vertex 7.42103 7.04768 -7.03685
      vertex -10 7.43145 -6.69131
      vertex 7.69161 7.25368 -6.85137
    endloop
  endfacet
  facet normal 0 0.669131 -0.743145
    outer loop
      vertex -10 7.43145 -6.69131
      vertex 5.88448 5.87785 -8.09017
      vertex -8.58494 5.87785 -8.09017
    endloop
  endfacet
  facet normal -2.68521e-07 0.669131 -0.743145
    outer loop
      vertex -10 7.43145 -6.69131
      vertex -8.58494 5.87785 -8.09017
      vertex -10 6.99527 -7.08404
    endloop
  endfacet
  facet normal 0 0.669131 -0.743145
    outer loop
      vertex 7.69161 7.25368 -6.85137
      vertex -10 7.43145 -6.69131
      vertex 7.9251 7.43145 -6.69131
    endloop
  endfacet
  facet normal -1 1.77506e-06 -1.28966e-06
    outer loop
      vertex -10 7.43145 -6.69131
      vertex -10 9.51056 -3.09017
      vertex -10 8.66025 -5
    endloop
  endfacet
  facet normal 0 0.809017 -0.587785
    outer loop
      vertex 12.6002 7.43145 -6.69131
      vertex 11.3987 7.9558 -5.96959
      vertex 27.3267 7.43145 -6.69131
    endloop
  endfacet
  facet normal -1.92514e-08 0.809017 -0.587786
    outer loop
      vertex 7.9251 7.43145 -6.69131
      vertex -10 8.66025 -5
      vertex 9.128 8.03055 -5.86671
    endloop
  endfacet
  facet normal 0 0.809017 -0.587785
    outer loop
      vertex -10 8.66025 -5
      vertex 7.9251 7.43145 -6.69131
      vertex -10 7.43145 -6.69131
    endloop
  endfacet
  facet normal 1.50176e-08 0.809017 -0.587785
    outer loop
      vertex 27.3267 8.66025 -5
      vertex 9.98085 8.45531 -5.28207
      vertex -10 8.66025 -5
    endloop
  endfacet
  facet normal 1.17341e-10 0.809017 -0.587785
    outer loop
      vertex 27.3267 8.66025 -5
      vertex 11.084 8.09315 -5.78055
      vertex 9.98085 8.45531 -5.28207
    endloop
  endfacet
  facet normal 1.30511e-07 0.809016 -0.587787
    outer loop
      vertex 27.3267 8.66025 -5
      vertex 11.3987 7.9558 -5.96959
      vertex 11.084 8.09315 -5.78055
    endloop
  endfacet
  facet normal 6.06541e-09 0.809017 -0.587785
    outer loop
      vertex 11.3987 7.9558 -5.96959
      vertex 27.3267 8.66025 -5
      vertex 27.3267 7.43145 -6.69131
    endloop
  endfacet
  facet normal 4.02061e-08 0.809018 -0.587784
    outer loop
      vertex 9.74045 8.33559 -5.44687
      vertex -10 8.66025 -5
      vertex 9.98085 8.45531 -5.28207
    endloop
  endfacet
  facet normal -5.35491e-08 0.809016 -0.587787
    outer loop
      vertex 9.45517 8.1935 -5.64243
      vertex -10 8.66025 -5
      vertex 9.74045 8.33559 -5.44687
    endloop
  endfacet
  facet normal 1.06203e-07 0.809018 -0.587784
    outer loop
      vertex -10 8.66025 -5
      vertex 9.45517 8.1935 -5.64243
      vertex 9.128 8.03055 -5.86671
    endloop
  endfacet
  facet normal 0 0.913545 -0.406737
    outer loop
      vertex -10 8.66025 -5
      vertex -10 9.51056 -3.09017
      vertex 27.3267 9.51056 -3.09017
    endloop
  endfacet
  facet normal -1.03919e-08 0.913545 0.406737
    outer loop
      vertex 27.3267 8.66025 5
      vertex -10 9.51056 3.09017
      vertex -10 8.66025 5
    endloop
  endfacet
  facet normal 0 0.978148 0.207911
    outer loop
      vertex 27.3267 9.94522 1.04528
      vertex -10 9.51056 3.09017
      vertex 27.3267 9.51056 3.09017
    endloop
  endfacet
  facet normal 0 0.978148 0.207911
    outer loop
      vertex -10 9.51056 3.09017
      vertex 27.3267 9.94522 1.04528
      vertex -10 9.94522 1.04528
    endloop
  endfacet
  facet normal -1.50176e-08 0.809017 0.587785
    outer loop
      vertex 27.3267 8.66025 5
      vertex -10 8.66025 5
      vertex -10 7.43145 6.69131
    endloop
  endfacet
  facet normal 0 -0.978148 -0.207911
    outer loop
      vertex 5.68625 -9.51056 -3.09017
      vertex 27.3267 -9.94522 -1.04528
      vertex 5.56272 -9.94522 -1.04528
    endloop
  endfacet
  facet normal 0 -0.978148 -0.207911
    outer loop
      vertex 27.3267 -9.94522 -1.04528
      vertex 5.68625 -9.51056 -3.09017
      vertex 27.3267 -9.51056 -3.09017
    endloop
  endfacet
  facet normal 1 0 0
    outer loop
      vertex 27.3267 9.51056 3.09017
      vertex 27.3267 9.94522 -1.04528
      vertex 27.3267 9.94522 1.04528
    endloop
  endfacet
  facet normal 1 0 0
    outer loop
      vertex 27.3267 9.51056 3.09017
      vertex 27.3267 9.51056 -3.09017
      vertex 27.3267 9.94522 -1.04528
    endloop
  endfacet
  facet normal 1 0 0
    outer loop
      vertex 27.3267 8.66025 5
      vertex 27.3267 9.51056 -3.09017
      vertex 27.3267 9.51056 3.09017
    endloop
  endfacet
  facet normal 1 0 0
    outer loop
      vertex 27.3267 8.66025 5
      vertex 27.3267 8.66025 -5
      vertex 27.3267 9.51056 -3.09017
    endloop
  endfacet
  facet normal 1 0 0
    outer loop
      vertex 27.3267 7.43145 6.69131
      vertex 27.3267 8.66025 -5
      vertex 27.3267 8.66025 5
    endloop
  endfacet
  facet normal 1 0 0
    outer loop
      vertex 27.3267 7.43145 6.69131
      vertex 27.3267 7.43145 -6.69131
      vertex 27.3267 8.66025 -5
    endloop
  endfacet
  facet normal 1 0 0
    outer loop
      vertex 27.3267 5.87785 8.09017
      vertex 27.3267 7.43145 -6.69131
      vertex 27.3267 7.43145 6.69131
    endloop
  endfacet
  facet normal 1 0 0
    outer loop
      vertex 27.3267 5.87785 8.09017
      vertex 27.3267 5.87785 -8.09017
      vertex 27.3267 7.43145 -6.69131
    endloop
  endfacet
  facet normal 1 0 0
    outer loop
      vertex 27.3267 4.06737 9.13545
      vertex 27.3267 5.87785 -8.09017
      vertex 27.3267 5.87785 8.09017
    endloop
  endfacet
  facet normal 1 0 0
    outer loop
      vertex 27.3267 4.06737 9.13545
      vertex 27.3267 4.06737 -9.13545
      vertex 27.3267 5.87785 -8.09017
    endloop
  endfacet
  facet normal 1 0 0
    outer loop
      vertex 27.3267 2.07912 9.78148
      vertex 27.3267 4.06737 -9.13545
      vertex 27.3267 4.06737 9.13545
    endloop
  endfacet
  facet normal 1 0 0
    outer loop
      vertex 27.3267 2.07912 9.78148
      vertex 27.3267 2.07912 -9.78148
      vertex 27.3267 4.06737 -9.13545
    endloop
  endfacet
  facet normal 1 0 0
    outer loop
      vertex 27.3267 -4.08832e-16 10
      vertex 27.3267 2.07912 -9.78148
      vertex 27.3267 2.07912 9.78148
    endloop
  endfacet
  facet normal 1 0 0
    outer loop
      vertex 27.3267 -4.08832e-16 10
      vertex 27.3267 -5.54798e-16 -10
      vertex 27.3267 2.07912 -9.78148
    endloop
  endfacet
  facet normal 1 -0 0
    outer loop
      vertex 27.3267 -2.07912 9.78148
      vertex 27.3267 -5.54798e-16 -10
      vertex 27.3267 -4.08832e-16 10
    endloop
  endfacet
  facet normal 1 0 0
    outer loop
      vertex 27.3267 -2.07912 9.78148
      vertex 27.3267 -2.07912 -9.78148
      vertex 27.3267 -5.54798e-16 -10
    endloop
  endfacet
  facet normal 1 -0 0
    outer loop
      vertex 27.3267 -4.06737 9.13545
      vertex 27.3267 -2.07912 -9.78148
      vertex 27.3267 -2.07912 9.78148
    endloop
  endfacet
  facet normal 1 0 0
    outer loop
      vertex 27.3267 -4.06737 9.13545
      vertex 27.3267 -4.06737 -9.13545
      vertex 27.3267 -2.07912 -9.78148
    endloop
  endfacet
  facet normal 1 -0 0
    outer loop
      vertex 27.3267 -5.87785 8.09017
      vertex 27.3267 -4.06737 -9.13545
      vertex 27.3267 -4.06737 9.13545
    endloop
  endfacet
  facet normal 1 0 0
    outer loop
      vertex 27.3267 -5.87785 8.09017
      vertex 27.3267 -5.87785 -8.09017
      vertex 27.3267 -4.06737 -9.13545
    endloop
  endfacet
  facet normal 1 -0 0
    outer loop
      vertex 27.3267 -7.43145 6.69131
      vertex 27.3267 -5.87785 -8.09017
      vertex 27.3267 -5.87785 8.09017
    endloop
  endfacet
  facet normal 1 0 0
    outer loop
      vertex 27.3267 -7.43145 6.69131
      vertex 27.3267 -7.43145 -6.69131
      vertex 27.3267 -5.87785 -8.09017
    endloop
  endfacet
  facet normal 1 -0 0
    outer loop
      vertex 27.3267 -8.66025 5
      vertex 27.3267 -7.43145 -6.69131
      vertex 27.3267 -7.43145 6.69131
    endloop
  endfacet
  facet normal 1 0 0
    outer loop
      vertex 27.3267 -8.66025 5
      vertex 27.3267 -8.66025 -5
      vertex 27.3267 -7.43145 -6.69131
    endloop
  endfacet
  facet normal 1 -0 0
    outer loop
      vertex 27.3267 -9.51056 3.09017
      vertex 27.3267 -8.66025 -5
      vertex 27.3267 -8.66025 5
    endloop
  endfacet
  facet normal 1 0 0
    outer loop
      vertex 27.3267 -9.51056 3.09017
      vertex 27.3267 -9.51056 -3.09017
      vertex 27.3267 -8.66025 -5
    endloop
  endfacet
  facet normal 1 -0 0
    outer loop
      vertex 27.3267 -9.94522 1.04528
      vertex 27.3267 -9.51056 -3.09017
      vertex 27.3267 -9.51056 3.09017
    endloop
  endfacet
  facet normal 1 0 0
    outer loop
      vertex 27.3267 -9.51056 -3.09017
      vertex 27.3267 -9.94522 1.04528
      vertex 27.3267 -9.94522 -1.04528
    endloop
  endfacet
  facet normal 1.24126e-07 -0.809017 -0.587785
    outer loop
      vertex 5.34957 -8.66025 -5
      vertex 9.85359 -8.39193 -5.36931
      vertex 9.98054 -8.45516 -5.28229
    endloop
  endfacet
  facet normal 1.68618e-07 -0.809018 -0.587784
    outer loop
      vertex 5.34957 -8.66025 -5
      vertex 9.56177 -8.24659 -5.56936
      vertex 9.85359 -8.39193 -5.36931
    endloop
  endfacet
  facet normal -1.04901e-07 -0.809017 -0.587785
    outer loop
      vertex 9.128 -8.03055 -5.86671
      vertex 5.34957 -8.66025 -5
      vertex 5.03453 -8.16531 -5.68123
    endloop
  endfacet
  facet normal 1.26697e-07 -0.809017 -0.587785
    outer loop
      vertex 5.34957 -8.66025 -5
      vertex 9.128 -8.03055 -5.86671
      vertex 9.56177 -8.24659 -5.56936
    endloop
  endfacet
  facet normal 1.27532e-08 -0.809016 -0.587786
    outer loop
      vertex 9.98054 -8.45516 -5.28229
      vertex 27.3267 -8.66025 -5
      vertex 5.34957 -8.66025 -5
    endloop
  endfacet
  facet normal -1.7404e-08 -0.809017 -0.587785
    outer loop
      vertex 11.0996 -8.08718 -5.78876
      vertex 27.3267 -8.66025 -5
      vertex 9.98054 -8.45516 -5.28229
    endloop
  endfacet
  facet normal 6.79353e-10 -0.809017 -0.587785
    outer loop
      vertex 11.4004 -7.95575 -5.96967
      vertex 27.3267 -8.66025 -5
      vertex 11.0996 -8.08718 -5.78876
    endloop
  endfacet
  facet normal 1.20436e-08 -0.809017 -0.587785
    outer loop
      vertex 27.3267 -8.66025 -5
      vertex 11.4004 -7.95575 -5.96967
      vertex 27.3267 -7.43145 -6.69131
    endloop
  endfacet
  facet normal 0 -0.309017 -0.951057
    outer loop
      vertex 27.3267 -4.06737 -9.13545
      vertex 18.4965 -2.07912 -9.78148
      vertex 27.3267 -2.07912 -9.78148
    endloop
  endfacet
  facet normal 1.92084e-09 -0.309017 -0.951057
    outer loop
      vertex 27.3267 -4.06737 -9.13545
      vertex 18.0137 -3.08534 -9.45453
      vertex 18.4965 -2.07912 -9.78148
    endloop
  endfacet
  facet normal 0 -0.309017 -0.951057
    outer loop
      vertex 18.0137 -3.08534 -9.45453
      vertex 27.3267 -4.06737 -9.13545
      vertex 17.2656 -4.06737 -9.13545
    endloop
  endfacet
  facet normal 0 -0.309017 -0.951057
    outer loop
      vertex 1.82133 -4.06737 -9.13545
      vertex 3.41726 -2.07912 -9.78148
      vertex 4.35965 -4.06737 -9.13545
    endloop
  endfacet
  facet normal -0 -0.309017 -0.951057
    outer loop
      vertex 3.41726 -2.07912 -9.78148
      vertex 1.82133 -4.06737 -9.13545
      vertex -0.0225684 -2.07912 -9.78148
    endloop
  endfacet
  facet normal 1.05952e-08 -0.913545 -0.406737
    outer loop
      vertex 5.48928 -9.0131 -4.20749
      vertex 27.3267 -8.66025 -5
      vertex 27.3267 -9.51056 -3.09017
    endloop
  endfacet
  facet normal 8.82498e-09 -0.913545 -0.406737
    outer loop
      vertex 27.3267 -8.66025 -5
      vertex 5.48928 -9.0131 -4.20749
      vertex 5.34957 -8.66025 -5
    endloop
  endfacet
  facet normal 0 -0.913545 -0.406737
    outer loop
      vertex 5.68625 -9.51056 -3.09017
      vertex 5.48928 -9.0131 -4.20749
      vertex 27.3267 -9.51056 -3.09017
    endloop
  endfacet
  facet normal 0 0.5 -0.866026
    outer loop
      vertex 17.2656 4.06737 -9.13545
      vertex 27.3267 5.87785 -8.09017
      vertex 27.3267 4.06737 -9.13545
    endloop
  endfacet
  facet normal -6.60043e-08 0.5 -0.866025
    outer loop
      vertex 16.3882 5.0044 -8.59446
      vertex 27.3267 5.87785 -8.09017
      vertex 17.2656 4.06737 -9.13545
    endloop
  endfacet
  facet normal 0 0.499999 -0.866026
    outer loop
      vertex 27.3267 5.87785 -8.09017
      vertex 16.3882 5.0044 -8.59446
      vertex 15.2723 5.87785 -8.09017
    endloop
  endfacet
  facet normal 9.43227e-07 0.499999 -0.866026
    outer loop
      vertex 4.44881 4.85498 -8.68073
      vertex 5.88448 5.87785 -8.09017
      vertex 5.21745 5.08586 -8.54743
    endloop
  endfacet
  facet normal 7.97778e-08 0.5 -0.866026
    outer loop
      vertex 1.82671 4.06737 -9.13545
      vertex 5.88448 5.87785 -8.09017
      vertex 4.44881 4.85498 -8.68073
    endloop
  endfacet
  facet normal 0 0.5 -0.866026
    outer loop
      vertex -8.58494 5.87785 -8.09017
      vertex 1.82671 4.06737 -9.13545
      vertex -6.45399 4.06737 -9.13545
    endloop
  endfacet
  facet normal 0 0.5 -0.866026
    outer loop
      vertex 1.82671 4.06737 -9.13545
      vertex -8.58494 5.87785 -8.09017
      vertex 5.88448 5.87785 -8.09017
    endloop
  endfacet
  facet normal -1 0 0
    outer loop
      vertex -10 6.89003 -6.69703
      vertex -10 7.43145 -6.69131
      vertex -10 6.99527 -7.08404
    endloop
  endfacet
  facet normal -1 2.81696e-09 -2.66452e-07
    outer loop
      vertex -10 7.43145 -6.69131
      vertex -10 6.89003 -6.69703
      vertex -10 9.51056 -3.09017
    endloop
  endfacet
  facet normal 0 1 -0
    outer loop
      vertex 27.3267 9.94522 -1.04528
      vertex -10 9.94522 1.04528
      vertex 27.3267 9.94522 1.04528
    endloop
  endfacet
  facet normal 0 1 0
    outer loop
      vertex -10 9.94522 1.04528
      vertex 27.3267 9.94522 -1.04528
      vertex -10 9.94522 -1.04528
    endloop
  endfacet
  facet normal 1.03919e-08 0.913545 -0.406737
    outer loop
      vertex 27.3267 8.66025 -5
      vertex -10 8.66025 -5
      vertex 27.3267 9.51056 -3.09017
    endloop
  endfacet
  facet normal 0 0.809017 0.587785
    outer loop
      vertex 27.3267 8.66025 5
      vertex -10 7.43145 6.69131
      vertex 27.3267 7.43145 6.69131
    endloop
  endfacet
  facet normal 0 -0.5 -0.866026
    outer loop
      vertex 27.3267 -5.87785 -8.09017
      vertex 17.2656 -4.06737 -9.13545
      vertex 27.3267 -4.06737 -9.13545
    endloop
  endfacet
  facet normal 2.83423e-07 -0.499999 -0.866026
    outer loop
      vertex 27.3267 -5.87785 -8.09017
      vertex 17.0265 -4.32317 -8.98776
      vertex 17.2656 -4.06737 -9.13545
    endloop
  endfacet
  facet normal -4.6244e-08 -0.5 -0.866025
    outer loop
      vertex 27.3267 -5.87785 -8.09017
      vertex 16.3979 -4.9956 -8.59954
      vertex 17.0265 -4.32317 -8.98776
    endloop
  endfacet
  facet normal 0 -0.5 -0.866026
    outer loop
      vertex 16.3979 -4.9956 -8.59954
      vertex 27.3267 -5.87785 -8.09017
      vertex 15.2724 -5.87785 -8.09017
    endloop
  endfacet
  facet normal 0 -0.5 -0.866026
    outer loop
      vertex 3.37394 -5.87785 -8.09017
      vertex 5.31375 -5.20019 -8.48142
      vertex 5.88448 -5.87785 -8.09017
    endloop
  endfacet
  facet normal -2.93906e-08 -0.5 -0.866026
    outer loop
      vertex 5.31375 -5.20019 -8.48142
      vertex 3.37394 -5.87785 -8.09017
      vertex 4.35965 -4.06737 -9.13545
    endloop
  endfacet
  facet normal -0 -0.5 -0.866026
    outer loop
      vertex 4.35965 -4.06737 -9.13545
      vertex 3.37394 -5.87785 -8.09017
      vertex 1.82133 -4.06737 -9.13545
    endloop
  endfacet
  facet normal -0 -0.809017 -0.587785
    outer loop
      vertex 27.3267 -7.43145 -6.69131
      vertex 11.4004 -7.95575 -5.96967
      vertex 12.6003 -7.43145 -6.69131
    endloop
  endfacet
  facet normal -1.19758e-07 -0.809017 -0.587786
    outer loop
      vertex 5.03453 -8.16531 -5.68123
      vertex 9.0225 -7.97801 -5.93903
      vertex 9.128 -8.03055 -5.86671
    endloop
  endfacet
  facet normal -1.25116e-07 -0.809017 -0.587786
    outer loop
      vertex 5.03453 -8.16531 -5.68123
      vertex 8.33797 -7.63708 -6.40828
      vertex 9.0225 -7.97801 -5.93903
    endloop
  endfacet
  facet normal -0 -0.809017 -0.587785
    outer loop
      vertex 7.9251 -7.43145 -6.69131
      vertex 5.03453 -8.16531 -5.68123
      vertex 4.56741 -7.43145 -6.69131
    endloop
  endfacet
  facet normal 4.14627e-09 -0.809017 -0.587785
    outer loop
      vertex 5.03453 -8.16531 -5.68123
      vertex 7.9251 -7.43145 -6.69131
      vertex 8.33797 -7.63708 -6.40828
    endloop
  endfacet
  facet normal -1.01226e-07 -0.104532 -0.994522
    outer loop
      vertex 27.3267 -2.07912 -9.78148
      vertex 18.55 -1.9166 -9.79856
      vertex 18.6555 -1.59613 -9.83224
    endloop
  endfacet
  facet normal 0 -0.104526 -0.994522
    outer loop
      vertex 18.55 -1.9166 -9.79856
      vertex 27.3267 -2.07912 -9.78148
      vertex 18.4965 -2.07912 -9.78148
    endloop
  endfacet
  facet normal -1.62112e-07 -0.104529 -0.994522
    outer loop
      vertex 3.41726 -2.07912 -9.78148
      vertex 0.979223 -1.5475 -9.83735
      vertex 3.24428 -0.950962 -9.90005
    endloop
  endfacet
  facet normal 0 -0.104528 -0.994522
    outer loop
      vertex -0.0225684 -2.07912 -9.78148
      vertex 0.979223 -1.5475 -9.83735
      vertex 3.41726 -2.07912 -9.78148
    endloop
  endfacet
  facet normal 5.14005e-07 -0.104529 -0.994522
    outer loop
      vertex -0.0225684 -2.07912 -9.78148
      vertex 0.671795 -0.594425 -9.93752
      vertex 0.979223 -1.5475 -9.83735
    endloop
  endfacet
  facet normal -6.47015e-08 -0.104529 -0.994522
    outer loop
      vertex 0.671795 -0.594425 -9.93752
      vertex -0.0225684 -2.07912 -9.78148
      vertex -1.61566 -0.467013 -9.95091
    endloop
  endfacet
  facet normal -5.22803e-09 -0.104528 -0.994522
    outer loop
      vertex 18.8384 -1.04023 -9.89067
      vertex 27.3267 -5.54798e-16 -10
      vertex 27.3267 -2.07912 -9.78148
    endloop
  endfacet
  facet normal -1.84301e-18 -0.104529 -0.994522
    outer loop
      vertex 27.3267 -5.54798e-16 -10
      vertex 18.8384 -1.04023 -9.89067
      vertex 18.9127 -4.06446e-16 -10
    endloop
  endfacet
  facet normal 1.36637e-07 -0.104527 -0.994522
    outer loop
      vertex 18.8384 -1.04023 -9.89067
      vertex 27.3267 -2.07912 -9.78148
      vertex 18.6555 -1.59613 -9.83224
    endloop
  endfacet
  facet normal -9.78897e-08 -0.104529 -0.994522
    outer loop
      vertex -1.61566 -0.467013 -9.95091
      vertex 0.480054 -8.14471e-17 -10
      vertex 0.671795 -0.594425 -9.93752
    endloop
  endfacet
  facet normal -1.84303e-18 -0.10453 -0.994522
    outer loop
      vertex 0.480054 -8.14471e-17 -10
      vertex -1.61566 -0.467013 -9.95091
      vertex -2.07717 -3.63591e-17 -10
    endloop
  endfacet
  facet normal -0.820289 -0.311417 0.479734
    outer loop
      vertex 18.7969 -2.93844 9.50226
      vertex 13.722 0.88328 3.30566
      vertex 13.9022 -0.990943 2.3972
    endloop
  endfacet
  facet normal -0.820289 -0.311416 0.479734
    outer loop
      vertex 13.722 0.88328 3.30566
      vertex 18.7969 -2.93844 9.50226
      vertex 18.5469 -1.80554 9.81023
    endloop
  endfacet
  facet normal -0.820292 -0.311416 0.47973
    outer loop
      vertex 18.5469 -1.80554 9.81023
      vertex 18.7969 -2.93844 9.50226
      vertex 18.6339 -2.07912 9.78148
    endloop
  endfacet
  facet normal -0.820289 -0.311416 0.479734
    outer loop
      vertex 18.9623 -3.81082 9.21881
      vertex 18.7969 -2.93844 9.50226
      vertex 13.9022 -0.990943 2.3972
    endloop
  endfacet
  facet normal 0.565413 -0.315094 0.762249
    outer loop
      vertex 13.9022 -0.990943 2.3972
      vertex 13.722 0.88328 3.30566
      vertex 13.1891 2.58119 4.40277
    endloop
  endfacet
  facet normal 0.565414 -0.315092 0.762249
    outer loop
      vertex 9.41624 5.39944 8.36638
      vertex 11.1732 5.16218 6.96506
      vertex 9.80361 5.68948 8.19893
    endloop
  endfacet
  facet normal 0.565413 -0.315094 0.762249
    outer loop
      vertex 11.1732 5.16218 6.96506
      vertex 9.41624 5.39944 8.36638
      vertex 13.1891 2.58119 4.40277
    endloop
  endfacet
  facet normal 0.565413 -0.315094 0.76225
    outer loop
      vertex 11.1334 -7.62939 1.70683
      vertex 12.327 -6.8355 1.14968
      vertex 13.722 -2.95957 1.71712
    endloop
  endfacet
  facet normal 0.565413 -0.315093 0.76225
    outer loop
      vertex 10.6296 -8.77912 1.60529
      vertex 12.327 -6.8355 1.14968
      vertex 11.1334 -7.62939 1.70683
    endloop
  endfacet
  facet normal 0.565413 -0.315094 0.76225
    outer loop
      vertex 10.6296 -8.77912 1.60529
      vertex 9.98216 -9.81513 1.65729
      vertex 12.327 -6.8355 1.14968
    endloop
  endfacet
  facet normal 0.565411 -0.315093 0.762251
    outer loop
      vertex 10.4735 -8.82001 1.70421
      vertex 9.98216 -9.81513 1.65729
      vertex 10.6296 -8.77912 1.60529
    endloop
  endfacet
  facet normal 0.56541 -0.315092 0.762252
    outer loop
      vertex 9.98216 -9.81513 1.65729
      vertex 10.4735 -8.82001 1.70421
      vertex 9.92713 -9.80562 1.70204
    endloop
  endfacet
  facet normal 0.565413 -0.315094 0.76225
    outer loop
      vertex 13.9022 -0.990943 2.3972
      vertex 11.4291 -3.94898 3.00891
      vertex 11.8402 -3.84133 2.74847
    endloop
  endfacet
  facet normal 0.565413 -0.315094 0.762249
    outer loop
      vertex 11.4291 -3.94898 3.00891
      vertex 13.9022 -0.990943 2.3972
      vertex 13.1891 2.58119 4.40277
    endloop
  endfacet
  facet normal 0.565413 -0.315094 0.762249
    outer loop
      vertex 13.9022 -0.990943 2.3972
      vertex 11.8402 -3.84133 2.74847
      vertex 11.8402 -5.53264 2.04933
    endloop
  endfacet
  facet normal 0.565414 -0.315094 0.762248
    outer loop
      vertex 10.0891 -8.92066 1.9477
      vertex 9.90214 -9.8013 1.72236
      vertex 10.3307 -8.8574 1.79466
    endloop
  endfacet
  facet normal 0.565411 -0.315094 0.762251
    outer loop
      vertex 9.90214 -9.8013 1.72236
      vertex 10.0891 -8.92066 1.9477
      vertex 9.854 -9.79298 1.76151
    endloop
  endfacet
  facet normal -0.48481 -0.874617 -0.00192675
    outer loop
      vertex 12.6719 4.32695 8.98558
      vertex 12.3108 4.52737 8.86987
      vertex 11.1732 5.16218 6.96506
    endloop
  endfacet
  facet normal 0.565413 -0.315094 0.762249
    outer loop
      vertex 7.63709 4.06737 9.13545
      vertex 13.1891 2.58119 4.40277
      vertex 9.41624 5.39944 8.36638
    endloop
  endfacet
  facet normal 0.565413 -0.315094 0.762249
    outer loop
      vertex 5.65816 2.07912 9.78148
      vertex 13.1891 2.58119 4.40277
      vertex 7.63709 4.06737 9.13545
    endloop
  endfacet
  facet normal 0.565413 -0.315094 0.762249
    outer loop
      vertex 4.20491 -1.15655e-18 10
      vertex 13.1891 2.58119 4.40277
      vertex 5.65816 2.07912 9.78148
    endloop
  endfacet
  facet normal 0.565413 -0.315094 0.762249
    outer loop
      vertex 13.1891 2.58119 4.40277
      vertex 4.20491 -1.15655e-18 10
      vertex 3.79555 -0.985017 9.89647
    endloop
  endfacet
  facet normal -0.784439 -0.491006 0.378904
    outer loop
      vertex 17.8253 -0.550971 9.94209
      vertex 17.3192 0.279587 9.97061
      vertex 13.1891 2.58119 4.40277
    endloop
  endfacet
  facet normal -0.784445 -0.49101 0.378887
    outer loop
      vertex 17.3192 0.279587 9.97061
      vertex 17.8253 -0.550971 9.94209
      vertex 17.5084 -2.35719e-16 10
    endloop
  endfacet
  facet normal -0.612952 -0.778898 0.132693
    outer loop
      vertex 12.327 4.02857 5.64061
      vertex 13.0342 4.06737 9.13545
      vertex 12.6719 4.32695 8.98558
    endloop
  endfacet
  facet normal -0.612952 -0.778899 0.132693
    outer loop
      vertex 12.327 4.02857 5.64061
      vertex 12.6719 4.32695 8.98558
      vertex 11.1732 5.16218 6.96506
    endloop
  endfacet
  facet normal -0.612952 -0.778899 0.132692
    outer loop
      vertex 13.0342 4.06737 9.13545
      vertex 12.327 4.02857 5.64061
      vertex 15.3323 2.35373 9.69225
    endloop
  endfacet
  facet normal -0.784439 -0.491007 0.378903
    outer loop
      vertex 13.722 0.88328 3.30566
      vertex 17.8253 -0.550971 9.94209
      vertex 13.1891 2.58119 4.40277
    endloop
  endfacet
  facet normal -0.784439 -0.491008 0.378903
    outer loop
      vertex 17.8253 -0.550971 9.94209
      vertex 13.722 0.88328 3.30566
      vertex 18.5469 -1.80554 9.81023
    endloop
  endfacet
  facet normal -0.784439 0.0801513 0.615005
    outer loop
      vertex 17.3205 -7.23887 6.8647
      vertex 13.722 -2.95957 1.71712
      vertex 13.1891 -4.93656 1.29514
    endloop
  endfacet
  facet normal -0.784439 0.0801504 0.615005
    outer loop
      vertex 13.722 -2.95957 1.71712
      vertex 18.4203 -5.87785 8.09017
      vertex 18.5474 -5.64871 8.22247
    endloop
  endfacet
  facet normal -0.784439 0.0801512 0.615005
    outer loop
      vertex 13.722 -2.95957 1.71712
      vertex 17.3205 -7.23887 6.8647
      vertex 18.4203 -5.87785 8.09017
    endloop
  endfacet
  facet normal -0.714305 0.275015 0.643534
    outer loop
      vertex 15.3347 -8.51167 5.20451
      vertex 13.1891 -4.93656 1.29514
      vertex 12.327 -6.8355 1.14968
    endloop
  endfacet
  facet normal -0.714304 0.275017 0.643534
    outer loop
      vertex 13.1891 -4.93656 1.29514
      vertex 17.0901 -7.43145 6.69131
      vertex 17.3205 -7.23887 6.8647
    endloop
  endfacet
  facet normal -0.714305 0.275015 0.643534
    outer loop
      vertex 13.1891 -4.93656 1.29514
      vertex 15.3347 -8.51167 5.20451
      vertex 17.0901 -7.43145 6.69131
    endloop
  endfacet
  facet normal 0.565413 -0.315094 0.762249
    outer loop
      vertex 3.79555 -0.985017 9.89647
      vertex 11.4291 -3.94898 3.00891
      vertex 13.1891 2.58119 4.40277
    endloop
  endfacet
  facet normal 0.565413 -0.315094 0.762249
    outer loop
      vertex 3.34085 -2.07912 9.78148
      vertex 11.4291 -3.94898 3.00891
      vertex 3.79555 -0.985017 9.89647
    endloop
  endfacet
  facet normal 0.565413 -0.315094 0.762249
    outer loop
      vertex 3.10376 -4.06737 9.13545
      vertex 11.4291 -3.94898 3.00891
      vertex 3.34085 -2.07912 9.78148
    endloop
  endfacet
  facet normal 0.565413 -0.315094 0.762249
    outer loop
      vertex 11.4291 -3.94898 3.00891
      vertex 3.10376 -4.06737 9.13545
      vertex 3.58609 -6.0029 7.97758
    endloop
  endfacet
  facet normal 0.565412 -0.315095 0.76225
    outer loop
      vertex 3.58609 -6.0029 7.97758
      vertex 3.10376 -4.06737 9.13545
      vertex 3.50398 -5.87785 8.09017
    endloop
  endfacet
  facet normal 0.565413 -0.315095 0.762249
    outer loop
      vertex 10.0891 -8.92066 1.9477
      vertex 9.00185 -9.64568 2.4545
      vertex 9.854 -9.79298 1.76151
    endloop
  endfacet
  facet normal 0.565413 -0.315094 0.762249
    outer loop
      vertex 9.00185 -9.64568 2.4545
      vertex 10.0891 -8.92066 1.9477
      vertex 8.46099 -9.34703 2.97914
    endloop
  endfacet
  facet normal 0.565413 -0.315094 0.762249
    outer loop
      vertex 8.46099 -9.34703 2.97914
      vertex 8.22018 -9.51056 3.09017
      vertex 9.00185 -9.64568 2.4545
    endloop
  endfacet
  facet normal 0.565413 -0.315093 0.76225
    outer loop
      vertex 8.22018 -9.51056 3.09017
      vertex 8.46099 -9.34703 2.97914
      vertex 8.06947 -9.44956 3.22718
    endloop
  endfacet
  facet normal 0.565413 -0.315094 0.762249
    outer loop
      vertex 13.1891 2.58119 4.40277
      vertex 12.327 4.02857 5.64061
      vertex 11.1732 5.16218 6.96506
    endloop
  endfacet
  facet normal -0.714305 -0.649138 0.261513
    outer loop
      vertex 13.1891 2.58119 4.40277
      vertex 15.3323 2.35373 9.69225
      vertex 12.327 4.02857 5.64061
    endloop
  endfacet
  facet normal -0.714305 -0.649138 0.261513
    outer loop
      vertex 13.1891 2.58119 4.40277
      vertex 15.6146 2.07912 9.78148
      vertex 15.3323 2.35373 9.69225
    endloop
  endfacet
  facet normal -0.714304 -0.649138 0.261512
    outer loop
      vertex 15.6146 2.07912 9.78148
      vertex 13.1891 2.58119 4.40277
      vertex 17.3192 0.279587 9.97061
    endloop
  endfacet
  facet normal 0.565413 -0.315094 0.762249
    outer loop
      vertex 11.8402 -5.53264 2.04933
      vertex 13.722 -2.95957 1.71712
      vertex 13.9022 -0.990943 2.3972
    endloop
  endfacet
  facet normal 0.565413 -0.315094 0.762249
    outer loop
      vertex 11.8402 -5.92506 1.88711
      vertex 13.722 -2.95957 1.71712
      vertex 11.8402 -5.53264 2.04933
    endloop
  endfacet
  facet normal 0.565414 -0.315094 0.762249
    outer loop
      vertex 13.722 -2.95957 1.71712
      vertex 11.8402 -5.92506 1.88711
      vertex 11.1334 -7.62939 1.70683
    endloop
  endfacet
  facet normal 0.565414 -0.315094 0.762248
    outer loop
      vertex 10.3307 -8.8574 1.79466
      vertex 9.92713 -9.80562 1.70204
      vertex 10.4735 -8.82001 1.70421
    endloop
  endfacet
  facet normal 0.565413 -0.315094 0.762249
    outer loop
      vertex 9.92713 -9.80562 1.70204
      vertex 10.3307 -8.8574 1.79466
      vertex 9.90214 -9.8013 1.72236
    endloop
  endfacet
  facet normal -0.820289 -0.118216 0.559598
    outer loop
      vertex 18.5474 -5.64871 8.22247
      vertex 13.9022 -0.990943 2.3972
      vertex 13.722 -2.95957 1.71712
    endloop
  endfacet
  facet normal -0.820289 -0.118217 0.559598
    outer loop
      vertex 13.9022 -0.990943 2.3972
      vertex 18.9424 -4.06737 9.13545
      vertex 18.9623 -3.81082 9.21881
    endloop
  endfacet
  facet normal -0.820289 -0.118216 0.559598
    outer loop
      vertex 13.9022 -0.990943 2.3972
      vertex 18.5474 -5.64871 8.22247
      vertex 18.9424 -4.06737 9.13545
    endloop
  endfacet
  facet normal -0.484811 0.620693 0.616196
    outer loop
      vertex 12.3406 -9.4923 3.1312
      vertex 12.6763 -9.4111 3.31357
      vertex 11.1732 -8.57342 1.28712
    endloop
  endfacet
  facet normal -0.484804 0.6207 0.616195
    outer loop
      vertex 11.1732 -8.57342 1.28712
      vertex 12.265 -9.51056 3.09017
      vertex 12.3406 -9.4923 3.1312
    endloop
  endfacet
  facet normal -0.48481 0.620695 0.616196
    outer loop
      vertex 12.265 -9.51056 3.09017
      vertex 11.1732 -8.57342 1.28712
      vertex 10.014 -9.82063 1.63141
    endloop
  endfacet
  facet normal 0.565413 -0.315094 0.762249
    outer loop
      vertex 11.1732 5.16218 6.96506
      vertex 9.9796 5.82124 8.12286
      vertex 9.80361 5.68948 8.19893
    endloop
  endfacet
  facet normal -0.48481 -0.874617 -0.00192686
    outer loop
      vertex 11.1732 5.16218 6.96506
      vertex 12.3108 4.52737 8.86987
      vertex 9.9796 5.82124 8.12286
    endloop
  endfacet
  facet normal 0.565413 -0.315094 0.76225
    outer loop
      vertex 12.327 -6.8355 1.14968
      vertex 13.1891 -4.93656 1.29514
      vertex 13.722 -2.95957 1.71712
    endloop
  endfacet
  facet normal -0.612952 0.45786 0.643936
    outer loop
      vertex 12.327 -6.8355 1.14968
      vertex 15.0089 -8.66025 5
      vertex 15.3347 -8.51167 5.20451
    endloop
  endfacet
  facet normal -0.612952 0.45786 0.643936
    outer loop
      vertex 15.0089 -8.66025 5
      vertex 12.327 -6.8355 1.14968
      vertex 12.6763 -9.4111 3.31357
    endloop
  endfacet
  facet normal -0.612952 0.45786 0.643936
    outer loop
      vertex 12.6763 -9.4111 3.31357
      vertex 12.327 -6.8355 1.14968
      vertex 11.1732 -8.57342 1.28712
    endloop
  endfacet
  facet normal 0.565412 -0.315093 0.76225
    outer loop
      vertex 9.98216 -9.81513 1.65729
      vertex 11.1732 -8.57342 1.28712
      vertex 12.327 -6.8355 1.14968
    endloop
  endfacet
  facet normal 0.565417 -0.3151 0.762243
    outer loop
      vertex 11.1732 -8.57342 1.28712
      vertex 9.98216 -9.81513 1.65729
      vertex 10.014 -9.82063 1.63141
    endloop
  endfacet
  facet normal -0.565413 0.315094 -0.762249
    outer loop
      vertex 11.8402 -8.46209 0.838368
      vertex 11.1334 -7.62939 1.70683
      vertex 11.8402 -5.92506 1.88711
    endloop
  endfacet
  facet normal -0.565413 0.315094 -0.762249
    outer loop
      vertex 11.1334 -7.62939 1.70683
      vertex 11.8402 -8.46209 0.838368
      vertex 10.6296 -8.77912 1.60529
    endloop
  endfacet
  facet normal 0 -0.924154 -0.382021
    outer loop
      vertex -2.04282 -2.84536 0.339107
      vertex 3.58609 -6.0029 7.97758
      vertex -0.943797 -6.0029 7.97758
    endloop
  endfacet
  facet normal 2.63283e-08 -0.924154 -0.382021
    outer loop
      vertex 6.18606 -0.690387 -4.87402
      vertex 3.58609 -6.0029 7.97758
      vertex -2.04282 -2.84536 0.339107
    endloop
  endfacet
  facet normal 3.39045e-08 -0.924154 -0.382021
    outer loop
      vertex 3.58609 -6.0029 7.97758
      vertex 6.18606 -0.690387 -4.87402
      vertex 11.4291 -3.94898 3.00891
    endloop
  endfacet
  facet normal 9.9361e-08 -0.924154 -0.382021
    outer loop
      vertex 11.4291 -3.94898 3.00891
      vertex 6.18606 -0.690387 -4.87402
      vertex 11.8402 -3.84133 2.74847
    endloop
  endfacet
  facet normal 0.565413 -0.315094 0.762249
    outer loop
      vertex 6.18606 -0.690387 -4.87402
      vertex 2.7494 -6.21114 -4.60695
      vertex 6.18606 -5.31115 -6.78412
    endloop
  endfacet
  facet normal 0.565413 -0.315094 0.762249
    outer loop
      vertex 6.18606 -0.690387 -4.87402
      vertex -1.60186 -3.15507 -0.116014
      vertex 2.7494 -6.21114 -4.60695
    endloop
  endfacet
  facet normal 0.565413 -0.315094 0.762249
    outer loop
      vertex -1.60186 -3.15507 -0.116014
      vertex 6.18606 -0.690387 -4.87402
      vertex -2.04282 -2.84536 0.339107
    endloop
  endfacet
  facet normal -0.824808 -0.216 0.522529
    outer loop
      vertex 11.8402 -5.92506 1.88711
      vertex 6.18606 -0.690387 -4.87402
      vertex 6.18606 -5.31115 -6.78412
    endloop
  endfacet
  facet normal -0.824808 -0.216 0.522529
    outer loop
      vertex 6.18606 -0.690387 -4.87402
      vertex 11.8402 -5.53264 2.04933
      vertex 11.8402 -3.84133 2.74847
    endloop
  endfacet
  facet normal -0.824808 -0.216 0.522529
    outer loop
      vertex 6.18606 -0.690387 -4.87402
      vertex 11.8402 -5.92506 1.88711
      vertex 11.8402 -5.53264 2.04933
    endloop
  endfacet
  facet normal -0.824808 -0.216 0.522529
    outer loop
      vertex 11.8402 -5.92506 1.88711
      vertex 6.18606 -5.31115 -6.78412
      vertex 11.8402 -8.46209 0.838368
    endloop
  endfacet
  facet normal -2.31921e-07 0.924154 0.38202
    outer loop
      vertex 8.46099 -9.34703 2.97914
      vertex 3.87658 -9.44957 3.22718
      vertex 8.06947 -9.44956 3.22718
    endloop
  endfacet
  facet normal 1.35535e-07 0.924154 0.382021
    outer loop
      vertex 2.7494 -6.21114 -4.60695
      vertex 8.46099 -9.34703 2.97914
      vertex 10.0891 -8.92066 1.9477
    endloop
  endfacet
  facet normal -3.34068e-07 0.924154 0.382021
    outer loop
      vertex 6.18606 -5.31115 -6.78412
      vertex 10.0891 -8.92066 1.9477
      vertex 10.3307 -8.8574 1.79466
    endloop
  endfacet
  facet normal -4.40642e-08 0.924154 0.382021
    outer loop
      vertex 6.18606 -5.31115 -6.78412
      vertex 10.3307 -8.8574 1.79466
      vertex 10.4735 -8.82001 1.70421
    endloop
  endfacet
  facet normal 7.833e-07 0.924154 0.382021
    outer loop
      vertex 6.18606 -5.31115 -6.78412
      vertex 10.4735 -8.82001 1.70421
      vertex 10.6296 -8.77912 1.60529
    endloop
  endfacet
  facet normal -4.1575e-07 0.924154 0.382021
    outer loop
      vertex 6.18606 -5.31115 -6.78412
      vertex 10.6296 -8.77912 1.60529
      vertex 11.8402 -8.46209 0.838368
    endloop
  endfacet
  facet normal -1.64349e-07 0.924154 0.382021
    outer loop
      vertex 8.46099 -9.34703 2.97914
      vertex 2.7494 -6.21114 -4.60695
      vertex 3.87658 -9.44957 3.22718
    endloop
  endfacet
  facet normal -6.44085e-08 0.924154 0.382021
    outer loop
      vertex 10.0891 -8.92066 1.9477
      vertex 6.18606 -5.31115 -6.78412
      vertex 2.7494 -6.21114 -4.60695
    endloop
  endfacet
  facet normal 0.565413 -1.98441e-07 -0.824808
    outer loop
      vertex 8.64833 5.00184 -6.19553
      vertex 13.8575 -1.04023 -2.62462
      vertex 13.4998 -3.08534 -2.86979
    endloop
  endfacet
  facet normal 0.565413 -2.21163e-08 -0.824808
    outer loop
      vertex 8.29929 6.302 -6.4348
      vertex 13.8575 -1.04023 -2.62462
      vertex 8.64833 5.00184 -6.19553
    endloop
  endfacet
  facet normal 0.565413 -3.66217e-07 -0.824808
    outer loop
      vertex 8.29929 6.302 -6.4348
      vertex 7.69161 7.25368 -6.85137
      vertex 13.8575 -1.04023 -2.62462
    endloop
  endfacet
  facet normal 0.565414 4.40665e-07 -0.824807
    outer loop
      vertex 7.95085 6.1645 -6.67366
      vertex 7.69161 7.25368 -6.85137
      vertex 8.29929 6.302 -6.4348
    endloop
  endfacet
  facet normal 0.565413 3.58861e-07 -0.824808
    outer loop
      vertex 7.69161 7.25368 -6.85137
      vertex 7.95085 6.1645 -6.67366
      vertex 7.42103 7.04768 -7.03685
    endloop
  endfacet
  facet normal -0.753329 -0.407201 -0.516414
    outer loop
      vertex 13.4972 3.095 -2.87157
      vertex 16.3882 5.0044 -8.59446
      vertex 17.2656 4.06737 -9.13545
    endloop
  endfacet
  facet normal -0.753329 -0.407202 -0.516414
    outer loop
      vertex 13.4972 3.095 -2.87157
      vertex 17.2656 4.06737 -9.13545
      vertex 17.4628 3.80892 -9.21943
    endloop
  endfacet
  facet normal -0.753329 -0.407201 -0.516414
    outer loop
      vertex 16.3882 5.0044 -8.59446
      vertex 13.4972 3.095 -2.87157
      vertex 12.7951 5.0044 -3.35289
    endloop
  endfacet
  facet normal 0.565413 3.59288e-07 -0.824808
    outer loop
      vertex 7.9251 -7.43145 -6.69131
      vertex 13.4998 -3.08534 -2.86979
      vertex 8.33797 -7.63708 -6.40828
    endloop
  endfacet
  facet normal 0.565413 7.61684e-08 -0.824808
    outer loop
      vertex 5.88448 -5.87785 -8.09017
      vertex 13.4998 -3.08534 -2.86979
      vertex 7.9251 -7.43145 -6.69131
    endloop
  endfacet
  facet normal 0.565413 -2.13304e-07 -0.824808
    outer loop
      vertex 13.4998 -3.08534 -2.86979
      vertex 5.88448 -5.87785 -8.09017
      vertex 5.31375 -5.20019 -8.48142
    endloop
  endfacet
  facet normal 0.565412 -6.68874e-07 -0.824809
    outer loop
      vertex 13.4972 3.095 -2.87157
      vertex 13.8566 1.05034 -2.62522
      vertex 12.7951 5.0044 -3.35289
    endloop
  endfacet
  facet normal 0.565413 -1.54532e-07 -0.824808
    outer loop
      vertex 13.4998 -3.08534 -2.86979
      vertex 5.65413 -1.2717e-06 -8.24808
      vertex 9.57568 1.5475 -5.55982
    endloop
  endfacet
  facet normal 0.565413 1.23802e-08 -0.824808
    outer loop
      vertex 5.31375 -5.20019 -8.48142
      vertex 5.65413 -1.2717e-06 -8.24808
      vertex 13.4998 -3.08534 -2.86979
    endloop
  endfacet
  facet normal 0.565413 2.6625e-08 -0.824808
    outer loop
      vertex 4.35965 -4.06737 -9.13545
      vertex 5.65413 -1.2717e-06 -8.24808
      vertex 5.31375 -5.20019 -8.48142
    endloop
  endfacet
  facet normal 0.565413 -4.51246e-08 -0.824808
    outer loop
      vertex 3.41726 -2.07912 -9.78148
      vertex 5.65413 -1.2717e-06 -8.24808
      vertex 4.35965 -4.06737 -9.13545
    endloop
  endfacet
  facet normal 0.565413 1.1981e-07 -0.824808
    outer loop
      vertex 5.65413 -1.2717e-06 -8.24808
      vertex 3.41726 -2.07912 -9.78148
      vertex 3.24428 -0.950962 -9.90005
    endloop
  endfacet
  facet normal 0.565413 2.12453e-07 -0.824808
    outer loop
      vertex 13.4998 -3.08534 -2.86979
      vertex 9.57568 1.5475 -5.55982
      vertex 8.64833 5.00184 -6.19553
    endloop
  endfacet
  facet normal 0.565413 7.16842e-08 -0.824808
    outer loop
      vertex 7.95085 6.1645 -6.67366
      vertex 5.88448 5.87785 -8.09017
      vertex 7.42103 7.04768 -7.03685
    endloop
  endfacet
  facet normal 0.565413 -3.31131e-07 -0.824808
    outer loop
      vertex 5.88448 5.87785 -8.09017
      vertex 7.95085 6.1645 -6.67366
      vertex 5.21745 5.08586 -8.54743
    endloop
  endfacet
  facet normal -0.667037 -0.588196 -0.45726
    outer loop
      vertex 14.0473 6.69508 -7.35434
      vertex 14.6341 6.30361 -7.70682
      vertex 11.7808 6.69508 -4.04816
    endloop
  endfacet
  facet normal 0.565413 -3.76188e-07 -0.824808
    outer loop
      vertex 13.8575 -1.04023 -2.62462
      vertex 9.128 8.03055 -5.86671
      vertex 9.45517 8.1935 -5.64243
    endloop
  endfacet
  facet normal 0.565413 4.56256e-08 -0.824808
    outer loop
      vertex 7.69161 7.25368 -6.85137
      vertex 9.128 8.03055 -5.86671
      vertex 13.8575 -1.04023 -2.62462
    endloop
  endfacet
  facet normal 0.565413 -1.64036e-07 -0.824808
    outer loop
      vertex 9.128 8.03055 -5.86671
      vertex 7.69161 7.25368 -6.85137
      vertex 7.9251 7.43145 -6.69131
    endloop
  endfacet
  facet normal -0.551593 -0.743484 -0.378122
    outer loop
      vertex 11.084 8.09315 -5.78055
      vertex 11.7808 6.69508 -4.04816
      vertex 10.4988 8.09315 -4.92699
    endloop
  endfacet
  facet normal -0.551593 -0.743484 -0.378122
    outer loop
      vertex 11.3987 7.9558 -5.96959
      vertex 11.7808 6.69508 -4.04816
      vertex 11.084 8.09315 -5.78055
    endloop
  endfacet
  facet normal -0.551593 -0.743485 -0.378122
    outer loop
      vertex 12.6002 7.43145 -6.69131
      vertex 11.7808 6.69508 -4.04816
      vertex 11.3987 7.9558 -5.96959
    endloop
  endfacet
  facet normal -0.551593 -0.743484 -0.378122
    outer loop
      vertex 11.7808 6.69508 -4.04816
      vertex 12.6002 7.43145 -6.69131
      vertex 14.0473 6.69508 -7.35434
    endloop
  endfacet
  facet normal -0.667037 -0.588196 -0.45726
    outer loop
      vertex 12.7951 5.0044 -3.35289
      vertex 14.6341 6.30361 -7.70682
      vertex 15.2723 5.87785 -8.09017
    endloop
  endfacet
  facet normal -0.667037 -0.588196 -0.45726
    outer loop
      vertex 12.7951 5.0044 -3.35289
      vertex 15.2723 5.87785 -8.09017
      vertex 16.3882 5.0044 -8.59446
    endloop
  endfacet
  facet normal -0.667037 -0.588196 -0.45726
    outer loop
      vertex 14.6341 6.30361 -7.70682
      vertex 12.7951 5.0044 -3.35289
      vertex 11.7808 6.69508 -4.04816
    endloop
  endfacet
  facet normal -0.75367 0.406273 -0.516647
    outer loop
      vertex 17.2656 -4.06737 -9.13545
      vertex 13.4998 -3.08534 -2.86979
      vertex 18.0137 -3.08534 -9.45453
    endloop
  endfacet
  facet normal -0.75367 0.406272 -0.516648
    outer loop
      vertex 17.0265 -4.32317 -8.98776
      vertex 13.4998 -3.08534 -2.86979
      vertex 17.2656 -4.06737 -9.13545
    endloop
  endfacet
  facet normal -0.75367 0.406272 -0.516648
    outer loop
      vertex 13.4998 -3.08534 -2.86979
      vertex 17.0265 -4.32317 -8.98776
      vertex 12.7993 -4.9956 -3.35002
    endloop
  endfacet
  facet normal -0.753669 0.406274 -0.516647
    outer loop
      vertex 17.0265 -4.32317 -8.98776
      vertex 16.3979 -4.9956 -8.59954
      vertex 12.7993 -4.9956 -3.35002
    endloop
  endfacet
  facet normal 0.565412 3.96666e-06 -0.824809
    outer loop
      vertex 9.85359 -8.39193 -5.36931
      vertex 10.5056 -8.08718 -4.92234
      vertex 9.98054 -8.45516 -5.28229
    endloop
  endfacet
  facet normal 0.565412 1.10597e-06 -0.824808
    outer loop
      vertex 10.5056 -8.08718 -4.92234
      vertex 9.85359 -8.39193 -5.36931
      vertex 11.7865 -6.68753 -4.04432
    endloop
  endfacet
  facet normal -0.753329 -0.4072 -0.516414
    outer loop
      vertex 17.4628 3.80892 -9.21943
      vertex 18.0078 3.095 -9.4514
      vertex 13.4972 3.095 -2.87157
    endloop
  endfacet
  facet normal -0.806696 -0.20841 -0.552998
    outer loop
      vertex 13.8566 1.05034 -2.62522
      vertex 18.0078 3.095 -9.4514
      vertex 18.4965 2.07912 -9.78148
    endloop
  endfacet
  facet normal -0.806697 -0.208406 -0.552998
    outer loop
      vertex 13.8566 1.05034 -2.62522
      vertex 18.4965 2.07912 -9.78148
      vertex 18.656 1.59616 -9.83224
    endloop
  endfacet
  facet normal -0.806696 -0.20841 -0.552998
    outer loop
      vertex 13.8566 1.05034 -2.62522
      vertex 18.656 1.59616 -9.83224
      vertex 18.8364 1.05034 -9.8896
    endloop
  endfacet
  facet normal -0.806697 -0.208409 -0.552998
    outer loop
      vertex 18.0078 3.095 -9.4514
      vertex 13.8566 1.05034 -2.62522
      vertex 13.4972 3.095 -2.87157
    endloop
  endfacet
  facet normal -0.412041 -0.86628 -0.282457
    outer loop
      vertex 11.084 8.09315 -5.78055
      vertex 10.4988 8.09315 -4.92699
      vertex 9.98085 8.45531 -5.28207
    endloop
  endfacet
  facet normal 0.565413 -7.63245e-08 -0.824808
    outer loop
      vertex 13.8566 1.05034 -2.62522
      vertex 13.8575 -1.04023 -2.62462
      vertex 12.7951 5.0044 -3.35289
    endloop
  endfacet
  facet normal 0.565413 -9.07215e-08 -0.824808
    outer loop
      vertex 9.45517 8.1935 -5.64243
      vertex 12.7951 5.0044 -3.35289
      vertex 13.8575 -1.04023 -2.62462
    endloop
  endfacet
  facet normal 0.565413 -5.93709e-07 -0.824808
    outer loop
      vertex 12.7951 5.0044 -3.35289
      vertex 9.45517 8.1935 -5.64243
      vertex 9.74045 8.33559 -5.44687
    endloop
  endfacet
  facet normal -0.806879 0.207422 -0.553103
    outer loop
      vertex 18.0137 -3.08534 -9.45453
      vertex 18.55 -1.9166 -9.79856
      vertex 18.4965 -2.07912 -9.78148
    endloop
  endfacet
  facet normal -0.806871 0.207414 -0.553117
    outer loop
      vertex 18.55 -1.9166 -9.79856
      vertex 18.0137 -3.08534 -9.45453
      vertex 13.8575 -1.04023 -2.62462
    endloop
  endfacet
  facet normal -0.806871 0.207415 -0.553117
    outer loop
      vertex 13.8575 -1.04023 -2.62462
      vertex 18.0137 -3.08534 -9.45453
      vertex 13.4998 -3.08534 -2.86979
    endloop
  endfacet
  facet normal -0.66753 0.587374 -0.457598
    outer loop
      vertex 15.2724 -5.87785 -8.09017
      vertex 12.7993 -4.9956 -3.35002
      vertex 16.3979 -4.9956 -8.59954
    endloop
  endfacet
  facet normal -0.66753 0.587374 -0.457598
    outer loop
      vertex 14.0602 -6.68753 -7.36113
      vertex 12.7993 -4.9956 -3.35002
      vertex 15.2724 -5.87785 -8.09017
    endloop
  endfacet
  facet normal -0.66753 0.587374 -0.457598
    outer loop
      vertex 12.7993 -4.9956 -3.35002
      vertex 14.0602 -6.68753 -7.36113
      vertex 11.7865 -6.68753 -4.04432
    endloop
  endfacet
  facet normal -0.412767 0.865771 -0.282955
    outer loop
      vertex 10.5056 -8.08718 -4.92234
      vertex 11.0996 -8.08718 -5.78876
      vertex 9.98054 -8.45516 -5.28229
    endloop
  endfacet
  facet normal 0.565411 1.98923e-06 -0.82481
    outer loop
      vertex 12.7993 -4.9956 -3.35002
      vertex 11.7865 -6.68753 -4.04432
      vertex 13.4998 -3.08534 -2.86979
    endloop
  endfacet
  facet normal 0.565413 -4.46884e-07 -0.824808
    outer loop
      vertex 11.7865 -6.68753 -4.04432
      vertex 9.85359 -8.39193 -5.36931
      vertex 9.56177 -8.24659 -5.56936
    endloop
  endfacet
  facet normal 0.565413 -8.72838e-08 -0.824808
    outer loop
      vertex 9.74045 8.33559 -5.44687
      vertex 10.4988 8.09315 -4.92699
      vertex 12.7951 5.0044 -3.35289
    endloop
  endfacet
  facet normal 0.565413 3.45053e-07 -0.824808
    outer loop
      vertex 10.4988 8.09315 -4.92699
      vertex 9.74045 8.33559 -5.44687
      vertex 9.98085 8.45531 -5.28207
    endloop
  endfacet
  facet normal 0.565412 -1.63417e-06 -0.824809
    outer loop
      vertex 11.7808 6.69508 -4.04816
      vertex 12.7951 5.0044 -3.35289
      vertex 10.4988 8.09315 -4.92699
    endloop
  endfacet
  facet normal -0.824808 -0.00050741 -0.565413
    outer loop
      vertex 18.9127 -4.06446e-16 -10
      vertex 13.8566 1.05034 -2.62522
      vertex 18.8364 1.05034 -9.8896
    endloop
  endfacet
  facet normal -0.824808 -0.000507758 -0.565413
    outer loop
      vertex 13.8575 -1.04023 -2.62462
      vertex 18.9127 -4.06446e-16 -10
      vertex 18.8384 -1.04023 -9.89067
    endloop
  endfacet
  facet normal -0.824808 -0.000507774 -0.565413
    outer loop
      vertex 18.9127 -4.06446e-16 -10
      vertex 13.8575 -1.04023 -2.62462
      vertex 13.8566 1.05034 -2.62522
    endloop
  endfacet
  facet normal 0.565413 5.6887e-07 -0.824808
    outer loop
      vertex 9.128 -8.03055 -5.86671
      vertex 11.7865 -6.68753 -4.04432
      vertex 9.56177 -8.24659 -5.56936
    endloop
  endfacet
  facet normal 0.565413 -2.5556e-07 -0.824808
    outer loop
      vertex 9.0225 -7.97801 -5.93903
      vertex 11.7865 -6.68753 -4.04432
      vertex 9.128 -8.03055 -5.86671
    endloop
  endfacet
  facet normal 0.565413 3.52224e-07 -0.824808
    outer loop
      vertex 11.7865 -6.68753 -4.04432
      vertex 9.0225 -7.97801 -5.93903
      vertex 13.4998 -3.08534 -2.86979
    endloop
  endfacet
  facet normal 0.565413 -1.79914e-07 -0.824808
    outer loop
      vertex 13.4998 -3.08534 -2.86979
      vertex 9.0225 -7.97801 -5.93903
      vertex 8.33797 -7.63708 -6.40828
    endloop
  endfacet
  facet normal -0.552215 0.742805 -0.378549
    outer loop
      vertex 11.7865 -6.68753 -4.04432
      vertex 11.0996 -8.08718 -5.78876
      vertex 10.5056 -8.08718 -4.92234
    endloop
  endfacet
  facet normal -0.552215 0.742805 -0.378549
    outer loop
      vertex 11.7865 -6.68753 -4.04432
      vertex 11.4004 -7.95575 -5.96967
      vertex 11.0996 -8.08718 -5.78876
    endloop
  endfacet
  facet normal -0.552216 0.742805 -0.378549
    outer loop
      vertex 11.7865 -6.68753 -4.04432
      vertex 12.6003 -7.43145 -6.69131
      vertex 11.4004 -7.95575 -5.96967
    endloop
  endfacet
  facet normal -0.552215 0.742805 -0.378549
    outer loop
      vertex 12.6003 -7.43145 -6.69131
      vertex 11.7865 -6.68753 -4.04432
      vertex 14.0602 -6.68753 -7.36113
    endloop
  endfacet
  facet normal -0.806871 0.207414 -0.553117
    outer loop
      vertex 18.6555 -1.59613 -9.83224
      vertex 13.8575 -1.04023 -2.62462
      vertex 18.8384 -1.04023 -9.89067
    endloop
  endfacet
  facet normal -0.806871 0.207414 -0.553117
    outer loop
      vertex 13.8575 -1.04023 -2.62462
      vertex 18.6555 -1.59613 -9.83224
      vertex 18.55 -1.9166 -9.79856
    endloop
  endfacet
  facet normal 0.255278 -0.9509 0.174995
    outer loop
      vertex 5.47222 6.302 -2.31076
      vertex 7.95085 6.1645 -6.67366
      vertex 8.29929 6.302 -6.4348
    endloop
  endfacet
  facet normal 0.255278 -0.950899 0.174995
    outer loop
      vertex 5.47222 6.302 -2.31076
      vertex 5.21745 5.08586 -8.54743
      vertex 7.95085 6.1645 -6.67366
    endloop
  endfacet
  facet normal 0.255278 -0.9509 0.174995
    outer loop
      vertex 5.21745 5.08586 -8.54743
      vertex 5.47222 6.302 -2.31076
      vertex 4.44881 4.85498 -8.68073
    endloop
  endfacet
  facet normal -0.784309 -0.3095 -0.537651
    outer loop
      vertex 8.64833 5.00184 -6.19553
      vertex 5.47222 6.302 -2.31076
      vertex 8.29929 6.302 -6.4348
    endloop
  endfacet
  facet normal -0.784309 -0.3095 -0.537651
    outer loop
      vertex 9.57568 1.5475 -5.55982
      vertex 5.47222 6.302 -2.31076
      vertex 8.64833 5.00184 -6.19553
    endloop
  endfacet
  facet normal -0.784309 -0.3095 -0.537651
    outer loop
      vertex 5.47222 6.302 -2.31076
      vertex 9.57568 1.5475 -5.55982
      vertex 6.74861 1.5475 -1.43578
    endloop
  endfacet
  facet normal -0.255278 0.950899 -0.174995
    outer loop
      vertex 3.24428 -0.950962 -9.90005
      vertex -1.09448 -1.5475 -6.81229
      vertex 5.65413 -1.2717e-06 -8.24808
    endloop
  endfacet
  facet normal -0.255278 0.950899 -0.174995
    outer loop
      vertex -1.09448 -1.5475 -6.81229
      vertex 3.24428 -0.950962 -9.90005
      vertex 0.979223 -1.5475 -9.83735
    endloop
  endfacet
  facet normal -0.255278 0.950899 -0.174995
    outer loop
      vertex 5.65413 -1.2717e-06 -8.24808
      vertex 6.74861 1.5475 -1.43578
      vertex 9.57568 1.5475 -5.55982
    endloop
  endfacet
  facet normal -0.255278 0.950899 -0.174995
    outer loop
      vertex 6.74861 1.5475 -1.43578
      vertex 5.65413 -1.2717e-06 -8.24808
      vertex -1.09448 -1.5475 -6.81229
    endloop
  endfacet
  facet normal 0.784309 0.3095 0.537651
    outer loop
      vertex -2.37087 3.207 -7.68727
      vertex -0.490197 2.07912 -9.78148
      vertex -1.18649 3.207 -9.415
    endloop
  endfacet
  facet normal 0.784309 0.3095 0.537651
    outer loop
      vertex -2.37087 3.207 -7.68727
      vertex 0.214542 0.568956 -9.9402
      vertex -0.490197 2.07912 -9.78148
    endloop
  endfacet
  facet normal 0.784309 0.3095 0.537651
    outer loop
      vertex -1.09448 -1.5475 -6.81229
      vertex 0.214542 0.568956 -9.9402
      vertex -2.37087 3.207 -7.68727
    endloop
  endfacet
  facet normal 0.784309 0.3095 0.537651
    outer loop
      vertex 0.214542 0.568956 -9.9402
      vertex -1.09448 -1.5475 -6.81229
      vertex 0.480054 -8.14471e-17 -10
    endloop
  endfacet
  facet normal 0.784309 0.309501 0.537651
    outer loop
      vertex 0.480054 -8.14471e-17 -10
      vertex -1.09448 -1.5475 -6.81229
      vertex 0.671795 -0.594425 -9.93752
    endloop
  endfacet
  facet normal 0.784309 0.3095 0.537651
    outer loop
      vertex 0.671795 -0.594425 -9.93752
      vertex -1.09448 -1.5475 -6.81229
      vertex 0.979223 -1.5475 -9.83735
    endloop
  endfacet
  facet normal 0.565413 -4.58917e-08 -0.824808
    outer loop
      vertex -2.37087 3.207 -7.68727
      vertex 6.74861 1.5475 -1.43578
      vertex -1.09448 -1.5475 -6.81229
    endloop
  endfacet
  facet normal 0.565413 -2.41491e-08 -0.824808
    outer loop
      vertex 6.74861 1.5475 -1.43578
      vertex -2.37087 3.207 -7.68727
      vertex 5.47222 6.302 -2.31076
    endloop
  endfacet
  facet normal 0.255278 -0.950899 0.174995
    outer loop
      vertex 1.82671 4.06737 -9.13545
      vertex 5.47222 6.302 -2.31076
      vertex -2.37087 3.207 -7.68727
    endloop
  endfacet
  facet normal 0.255278 -0.950899 0.174995
    outer loop
      vertex 5.47222 6.302 -2.31076
      vertex 1.82671 4.06737 -9.13545
      vertex 4.44881 4.85498 -8.68073
    endloop
  endfacet
  facet normal 0.255278 -0.950899 0.174995
    outer loop
      vertex 1.82671 4.06737 -9.13545
      vertex -2.37087 3.207 -7.68727
      vertex -1.18649 3.207 -9.415
    endloop
  endfacet
  facet normal -0.688201 -0.700095 -0.190383
    outer loop
      vertex 2.7494 -6.21114 -4.60695
      vertex 5.03453 -8.16531 -5.68123
      vertex 5.34957 -8.66025 -5
    endloop
  endfacet
  facet normal -0.688201 -0.700095 -0.190382
    outer loop
      vertex -8.58494 5.87785 -8.09017
      vertex -1.60186 -3.15507 -0.116014
      vertex -10 6.81152 -6.40835
    endloop
  endfacet
  facet normal -0.688201 -0.700095 -0.190383
    outer loop
      vertex -4.25267 2.07912 -9.78148
      vertex -1.60186 -3.15507 -0.116014
      vertex -6.45399 4.06737 -9.13545
    endloop
  endfacet
  facet normal -0.688201 -0.700095 -0.190383
    outer loop
      vertex -1.60186 -3.15507 -0.116014
      vertex -2.5135 0.417002 -9.95617
      vertex 2.7494 -6.21114 -4.60695
    endloop
  endfacet
  facet normal -0.688201 -0.700095 -0.190382
    outer loop
      vertex -8.58494 5.87785 -8.09017
      vertex -10 6.81152 -6.40835
      vertex -10 6.89003 -6.69703
    endloop
  endfacet
  facet normal -0.688201 -0.700095 -0.190383
    outer loop
      vertex -8.58494 5.87785 -8.09017
      vertex -10 6.89003 -6.69703
      vertex -10 6.99527 -7.08404
    endloop
  endfacet
  facet normal -0.688201 -0.700095 -0.190383
    outer loop
      vertex -1.60186 -3.15507 -0.116014
      vertex -8.58494 5.87785 -8.09017
      vertex -6.45399 4.06737 -9.13545
    endloop
  endfacet
  facet normal -0.688201 -0.700095 -0.190383
    outer loop
      vertex -2.5135 0.417002 -9.95617
      vertex -1.60186 -3.15507 -0.116014
      vertex -4.25267 2.07912 -9.78148
    endloop
  endfacet
  facet normal -0.688201 -0.700095 -0.190383
    outer loop
      vertex -1.61566 -0.467013 -9.95091
      vertex 2.7494 -6.21114 -4.60695
      vertex -2.5135 0.417002 -9.95617
    endloop
  endfacet
  facet normal -0.688201 -0.700095 -0.190383
    outer loop
      vertex -0.0225684 -2.07912 -9.78148
      vertex 2.7494 -6.21114 -4.60695
      vertex -1.61566 -0.467013 -9.95091
    endloop
  endfacet
  facet normal -0.688201 -0.700095 -0.190383
    outer loop
      vertex 1.82133 -4.06737 -9.13545
      vertex 2.7494 -6.21114 -4.60695
      vertex -0.0225684 -2.07912 -9.78148
    endloop
  endfacet
  facet normal -0.688201 -0.700095 -0.190383
    outer loop
      vertex 3.37394 -5.87785 -8.09017
      vertex 2.7494 -6.21114 -4.60695
      vertex 1.82133 -4.06737 -9.13545
    endloop
  endfacet
  facet normal -0.688201 -0.700095 -0.190383
    outer loop
      vertex 4.56741 -7.43145 -6.69131
      vertex 2.7494 -6.21114 -4.60695
      vertex 3.37394 -5.87785 -8.09017
    endloop
  endfacet
  facet normal -0.688201 -0.700095 -0.190383
    outer loop
      vertex 2.7494 -6.21114 -4.60695
      vertex 4.56741 -7.43145 -6.69131
      vertex 5.03453 -8.16531 -5.68123
    endloop
  endfacet
  facet normal -0.688201 -0.700096 -0.190381
    outer loop
      vertex -1.61566 -0.467013 -9.95091
      vertex -2.5135 0.417002 -9.95617
      vertex -2.07717 -3.63591e-17 -10
    endloop
  endfacet
  facet normal -0.6882 -0.700096 -0.190383
    outer loop
      vertex 2.7494 -6.21114 -4.60695
      vertex 3.97653 -9.51056 3.09017
      vertex 3.87658 -9.44957 3.22718
    endloop
  endfacet
  facet normal -0.688201 -0.700095 -0.190383
    outer loop
      vertex 3.97653 -9.51056 3.09017
      vertex 2.7494 -6.21114 -4.60695
      vertex 4.98439 -9.94522 1.04528
    endloop
  endfacet
  facet normal -0.688201 -0.700095 -0.190383
    outer loop
      vertex 4.98439 -9.94522 1.04528
      vertex 2.7494 -6.21114 -4.60695
      vertex 5.56272 -9.94522 -1.04528
    endloop
  endfacet
  facet normal -0.688201 -0.700095 -0.190383
    outer loop
      vertex 5.56272 -9.94522 -1.04528
      vertex 2.7494 -6.21114 -4.60695
      vertex 5.68625 -9.51056 -3.09017
    endloop
  endfacet
  facet normal -0.688201 -0.700095 -0.190382
    outer loop
      vertex 5.68625 -9.51056 -3.09017
      vertex 2.7494 -6.21114 -4.60695
      vertex 5.48928 -9.0131 -4.20749
    endloop
  endfacet
  facet normal -0.688201 -0.700095 -0.190383
    outer loop
      vertex 5.48928 -9.0131 -4.20749
      vertex 2.7494 -6.21114 -4.60695
      vertex 5.34957 -8.66025 -5
    endloop
  endfacet
  facet normal -0.688201 -0.700095 -0.190383
    outer loop
      vertex -8.87622 2.68921 4.68841
      vertex -7.60992 2.07159e-16 10
      vertex -9.66452 2.07912 9.78148
    endloop
  endfacet
  facet normal -0.688201 -0.700095 -0.190383
    outer loop
      vertex -8.87622 2.68921 4.68841
      vertex -9.66452 2.07912 9.78148
      vertex -10 2.44086 9.66394
    endloop
  endfacet
  facet normal -0.688201 -0.700095 -0.190382
    outer loop
      vertex -7.60992 2.07159e-16 10
      vertex -8.87622 2.68921 4.68841
      vertex -5.43442 -2.07912 9.78148
    endloop
  endfacet
  facet normal -0.688201 -0.700095 -0.190383
    outer loop
      vertex -6.27122 0.439091 3.54614
      vertex -5.43442 -2.07912 9.78148
      vertex -8.87622 2.68921 4.68841
    endloop
  endfacet
  facet normal -0.688201 -0.700095 -0.190383
    outer loop
      vertex -3.91891 -1.59276 2.51467
      vertex -3.2331 -4.06737 9.13545
      vertex -6.27122 0.439091 3.54614
    endloop
  endfacet
  facet normal -0.688201 -0.700095 -0.190383
    outer loop
      vertex -5.43442 -2.07912 9.78148
      vertex -6.27122 0.439091 3.54614
      vertex -3.2331 -4.06737 9.13545
    endloop
  endfacet
  facet normal -0.688202 -0.700095 -0.190383
    outer loop
      vertex -10 2.44086 9.66394
      vertex -9.09717 3.45208 2.68179
      vertex -8.87622 2.68921 4.68841
    endloop
  endfacet
  facet normal -0.688201 -0.700096 -0.190383
    outer loop
      vertex -10 2.44086 9.66394
      vertex -9.38812 4.45668 0.0393254
      vertex -9.09717 3.45208 2.68179
    endloop
  endfacet
  facet normal -0.688201 -0.700095 -0.190383
    outer loop
      vertex -10 6.50334 -5.27505
      vertex -6.78312 2.20656 -1.10294
      vertex -10 5.90919 -3.09017
    endloop
  endfacet
  facet normal -0.688201 -0.700095 -0.190383
    outer loop
      vertex -9.38812 4.45668 0.0393254
      vertex -10 5.90919 -3.09017
      vertex -6.78312 2.20656 -1.10294
    endloop
  endfacet
  facet normal -0.688201 -0.700095 -0.190383
    outer loop
      vertex -10 5.90919 -3.09017
      vertex -9.38812 4.45668 0.0393254
      vertex -10 2.44086 9.66394
    endloop
  endfacet
  facet normal -0.688201 -0.700095 -0.190383
    outer loop
      vertex -3.2331 -4.06737 9.13545
      vertex -3.91891 -1.59276 2.51467
      vertex -1.10215 -5.87785 8.09017
    endloop
  endfacet
  facet normal -0.688201 -0.700095 -0.190383
    outer loop
      vertex -1.10215 -5.87785 8.09017
      vertex -3.91891 -1.59276 2.51467
      vertex -0.943797 -6.0029 7.97758
    endloop
  endfacet
  facet normal -0.688201 -0.700095 -0.190383
    outer loop
      vertex -3.91891 -1.59276 2.51467
      vertex -2.04282 -2.84536 0.339107
      vertex -0.943797 -6.0029 7.97758
    endloop
  endfacet
  facet normal -0.688201 -0.700095 -0.190383
    outer loop
      vertex -4.23129 -0.514168 -0.322432
      vertex -2.04282 -2.84536 0.339107
      vertex -3.91891 -1.59276 2.51467
    endloop
  endfacet
  facet normal -0.688201 -0.700095 -0.190382
    outer loop
      vertex -4.23129 -0.514168 -0.322432
      vertex -1.60186 -3.15507 -0.116014
      vertex -2.04282 -2.84536 0.339107
    endloop
  endfacet
  facet normal -0.688201 -0.700095 -0.190383
    outer loop
      vertex -4.43081 0.174703 -2.13441
      vertex -1.60186 -3.15507 -0.116014
      vertex -4.23129 -0.514168 -0.322432
    endloop
  endfacet
  facet normal -0.688201 -0.700095 -0.190383
    outer loop
      vertex -6.78312 2.20656 -1.10294
      vertex -10 6.50334 -5.27505
      vertex -4.43081 0.174703 -2.13441
    endloop
  endfacet
  facet normal -0.688201 -0.700095 -0.190383
    outer loop
      vertex -10 6.61755 -5.69505
      vertex -4.43081 0.174703 -2.13441
      vertex -10 6.50334 -5.27505
    endloop
  endfacet
  facet normal -0.688201 -0.700095 -0.190383
    outer loop
      vertex -10 6.74457 -6.16212
      vertex -4.43081 0.174703 -2.13441
      vertex -10 6.61755 -5.69505
    endloop
  endfacet
  facet normal -0.688201 -0.700095 -0.190382
    outer loop
      vertex -10 6.81152 -6.40835
      vertex -4.43081 0.174703 -2.13441
      vertex -10 6.74457 -6.16212
    endloop
  endfacet
  facet normal -0.688201 -0.700095 -0.190383
    outer loop
      vertex -4.43081 0.174703 -2.13441
      vertex -10 6.81152 -6.40835
      vertex -1.60186 -3.15507 -0.116014
    endloop
  endfacet
  facet normal 0.10238 -0.353494 0.929817
    outer loop
      vertex -4.43081 0.174703 -2.13441
      vertex -1.11539 2.18451 -1.73539
      vertex -6.78312 2.20656 -1.10294
    endloop
  endfacet
  facet normal 0.515666 -0.780468 -0.353494
    outer loop
      vertex -4.55317 7.38764 0.621237
      vertex -9.09717 3.45208 2.68179
      vertex -9.38812 4.45668 0.0393254
    endloop
  endfacet
  facet normal 0.10238 -0.353494 0.929817
    outer loop
      vertex -4.55317 7.38764 0.621237
      vertex -6.78312 2.20656 -1.10294
      vertex -1.11539 2.18451 -1.73539
    endloop
  endfacet
  facet normal 0.10238 -0.353494 0.929817
    outer loop
      vertex -6.78312 2.20656 -1.10294
      vertex -4.55317 7.38764 0.621237
      vertex -9.38812 4.45668 0.0393254
    endloop
  endfacet
  facet normal -0.515666 0.780468 0.353494
    outer loop
      vertex -0.603493 0.417045 2.9137
      vertex -4.23129 -0.514168 -0.322432
      vertex -3.91891 -1.59276 2.51467
    endloop
  endfacet
  facet normal -0.515666 0.780468 0.353494
    outer loop
      vertex -4.23129 -0.514168 -0.322432
      vertex -0.603493 0.417045 2.9137
      vertex -1.11539 2.18451 -1.73539
    endloop
  endfacet
  facet normal -0.10238 0.353494 -0.929817
    outer loop
      vertex -0.603493 0.417045 2.9137
      vertex -3.91891 -1.59276 2.51467
      vertex -6.27122 0.439091 3.54614
    endloop
  endfacet
  facet normal -0.10238 0.353494 -0.929817
    outer loop
      vertex -6.27122 0.439091 3.54614
      vertex -4.04127 5.62017 5.27032
      vertex -0.603493 0.417045 2.9137
    endloop
  endfacet
  facet normal -0.10238 0.353494 -0.929817
    outer loop
      vertex -4.04127 5.62017 5.27032
      vertex -6.27122 0.439091 3.54614
      vertex -8.87622 2.68921 4.68841
    endloop
  endfacet
  facet normal -0.850651 -0.515666 -0.10238
    outer loop
      vertex -1.11539 2.18451 -1.73539
      vertex -0.603493 0.417045 2.9137
      vertex -4.55317 7.38764 0.621237
    endloop
  endfacet
  facet normal -0.515666 0.780468 0.353494
    outer loop
      vertex -4.23129 -0.514168 -0.322432
      vertex -1.11539 2.18451 -1.73539
      vertex -4.43081 0.174703 -2.13441
    endloop
  endfacet
  facet normal -0.850651 -0.515666 -0.10238
    outer loop
      vertex -0.603493 0.417045 2.9137
      vertex -4.04127 5.62017 5.27032
      vertex -4.55317 7.38764 0.621237
    endloop
  endfacet
  facet normal 0.515666 -0.780468 -0.353494
    outer loop
      vertex -9.09717 3.45208 2.68179
      vertex -4.04127 5.62017 5.27032
      vertex -8.87622 2.68921 4.68841
    endloop
  endfacet
  facet normal 0.515666 -0.780468 -0.353494
    outer loop
      vertex -4.04127 5.62017 5.27032
      vertex -9.09717 3.45208 2.68179
      vertex -4.55317 7.38764 0.621237
    endloop
  endfacet
endsolid OpenSCAD_Model
