solid OpenSCAD_Model
  facet normal -0.497088 -0.476529 0.725137
    outer loop
      vertex -9.21576 3.82021 -17.522
      vertex -0.00487794 5.65815 -10
      vertex -8.21701 5.65815 -15.6295
    endloop
  endfacet
  facet normal -0.497081 -0.476535 0.725138
    outer loop
      vertex -9.21576 3.82021 -17.522
      vertex -8.21701 5.65815 -15.6295
      vertex -9.13545 4.06737 -17.3045
    endloop
  endfacet
  facet normal -0.497088 -0.476529 0.725137
    outer loop
      vertex -0.00487794 5.65815 -10
      vertex -9.21576 3.82021 -17.522
      vertex 1.75705 3.82021 -10
    endloop
  endfacet
  facet normal -0.319919 0.824532 0.466688
    outer loop
      vertex -3.11109 -7.60871 -10
      vertex -5.87498 -8.02455 -11.16
      vertex -5.28589 -8.45254 -10
    endloop
  endfacet
  facet normal -0.31992 0.824532 0.466689
    outer loop
      vertex -5.87498 -8.02455 -11.16
      vertex -3.11109 -7.60871 -10
      vertex -6.44732 -7.60871 -12.287
    endloop
  endfacet
  facet normal -0.560523 0.131237 0.817674
    outer loop
      vertex 3.33333 -0.268937 -9.83462
      vertex 2.76483 -1.66667 -10
      vertex 3.33333 -1.66667 -9.61028
    endloop
  endfacet
  facet normal -0.560523 0.131237 0.817674
    outer loop
      vertex -9.84678 -1.45781 -18.6789
      vertex 2.60685 -2.34143 -10
      vertex 2.76483 -1.66667 -10
    endloop
  endfacet
  facet normal -0.560523 0.131237 0.817674
    outer loop
      vertex -9.97173 -0.268937 -18.9554
      vertex 2.76483 -1.66667 -10
      vertex 3.33333 -0.268937 -9.83462
    endloop
  endfacet
  facet normal -0.560523 0.131236 0.817674
    outer loop
      vertex 2.60685 -2.34143 -10
      vertex -9.84678 -1.45781 -18.6789
      vertex -9.69625 -2.34143 -18.4339
    endloop
  endfacet
  facet normal -0.560517 0.131237 0.817678
    outer loop
      vertex -9.69625 -2.34143 -18.4339
      vertex -9.84678 -1.45781 -18.6789
      vertex -9.78148 -2.07912 -18.5344
    endloop
  endfacet
  facet normal -0.560523 0.131237 0.817674
    outer loop
      vertex 2.76483 -1.66667 -10
      vertex -9.97173 -0.268937 -18.9554
      vertex -9.84678 -1.45781 -18.6789
    endloop
  endfacet
  facet normal -0.344524 -0.792916 0.50258
    outer loop
      vertex -5.87477 8.0247 -11.155
      vertex -2.40414 7.24881 -10
      vertex -5.24421 8.48282 -10
    endloop
  endfacet
  facet normal -0.344524 -0.792916 0.502581
    outer loop
      vertex -6.69131 7.43145 -12.6507
      vertex -2.40414 7.24881 -10
      vertex -5.87477 8.0247 -11.155
    endloop
  endfacet
  facet normal -0.344524 -0.792915 0.502582
    outer loop
      vertex -2.40414 7.24881 -10
      vertex -6.69131 7.43145 -12.6507
      vertex -6.85576 7.24881 -13.0516
    endloop
  endfacet
  facet normal -0.563701 -0.0777442 0.822312
    outer loop
      vertex 2.82513 1.66667 -10
      vertex 3.33333 1.18769 -9.69691
      vertex 3.21123 1.66667 -9.73532
    endloop
  endfacet
  facet normal -0.563701 -0.0777443 0.822312
    outer loop
      vertex 3.33333 1.18769 -9.69691
      vertex 2.82513 1.66667 -10
      vertex 3.33333 -0.268937 -9.83462
    endloop
  endfacet
  facet normal -0.563702 -0.0777456 0.822311
    outer loop
      vertex -9.84663 1.4592 -18.7062
      vertex 2.80463 1.8153 -10
      vertex -9.8092 1.8153 -18.6469
    endloop
  endfacet
  facet normal -0.563702 -0.0777439 0.822311
    outer loop
      vertex 2.80463 1.8153 -10
      vertex -9.84663 1.4592 -18.7062
      vertex 2.82513 1.66667 -10
    endloop
  endfacet
  facet normal -0.563702 -0.0777442 0.822311
    outer loop
      vertex -9.97173 -0.268937 -18.9554
      vertex 2.82513 1.66667 -10
      vertex -9.84663 1.4592 -18.7062
    endloop
  endfacet
  facet normal -0.563702 -0.0777444 0.822311
    outer loop
      vertex 2.82513 1.66667 -10
      vertex -9.97173 -0.268937 -18.9554
      vertex 3.33333 -0.268937 -9.83462
    endloop
  endfacet
  facet normal -0.563697 -0.0777451 0.822315
    outer loop
      vertex -9.97173 -0.268937 -18.9554
      vertex -9.84663 1.4592 -18.7062
      vertex -10 6.73587e-17 -18.9493
    endloop
  endfacet
  facet normal -0.430207 -0.648903 0.627573
    outer loop
      vertex -6.85576 7.24881 -13.0516
      vertex -0.00487794 5.65815 -10
      vertex -2.40414 7.24881 -10
    endloop
  endfacet
  facet normal -0.430207 -0.648903 0.627573
    outer loop
      vertex -8.09017 5.87785 -15.3154
      vertex -0.00487794 5.65815 -10
      vertex -6.85576 7.24881 -13.0516
    endloop
  endfacet
  facet normal -0.430207 -0.648902 0.627573
    outer loop
      vertex -0.00487794 5.65815 -10
      vertex -8.09017 5.87785 -15.3154
      vertex -8.21701 5.65815 -15.6295
    endloop
  endfacet
  facet normal -0.481882 0.52311 0.702955
    outer loop
      vertex -8.99446 -4.31158 -17.105
      vertex -0.564034 -6.0933 -10
      vertex 1.37012 -4.31158 -10
    endloop
  endfacet
  facet normal -0.481882 0.52311 0.702955
    outer loop
      vertex -0.564034 -6.0933 -10
      vertex -8.99446 -4.31158 -17.105
      vertex -7.89618 -6.0933 -15.0263
    endloop
  endfacet
  facet normal -0.481884 0.523108 0.702955
    outer loop
      vertex -7.89618 -6.0933 -15.0263
      vertex -8.99446 -4.31158 -17.105
      vertex -8.09017 -5.87785 -15.3196
    endloop
  endfacet
  facet normal -0.532846 0.334483 0.7773
    outer loop
      vertex -9.69625 -2.34143 -18.4339
      vertex 1.37012 -4.31158 -10
      vertex 2.60685 -2.34143 -10
    endloop
  endfacet
  facet normal -0.532846 0.334483 0.7773
    outer loop
      vertex 1.37012 -4.31158 -10
      vertex -9.69625 -2.34143 -18.4339
      vertex -8.99446 -4.31158 -17.105
    endloop
  endfacet
  facet normal -0.532838 0.334488 0.777304
    outer loop
      vertex -8.99446 -4.31158 -17.105
      vertex -9.69625 -2.34143 -18.4339
      vertex -9.13545 -4.06737 -17.3068
    endloop
  endfacet
  facet normal -0.409857 0.688874 0.597887
    outer loop
      vertex -0.564034 -6.0933 -10
      vertex -6.44732 -7.60871 -12.287
      vertex -3.11109 -7.60871 -10
    endloop
  endfacet
  facet normal -0.409857 0.688875 0.597887
    outer loop
      vertex -0.564034 -6.0933 -10
      vertex -6.69131 -7.43145 -12.6585
      vertex -6.44732 -7.60871 -12.287
    endloop
  endfacet
  facet normal -0.409857 0.688875 0.597887
    outer loop
      vertex -6.69131 -7.43145 -12.6585
      vertex -0.564034 -6.0933 -10
      vertex -7.89618 -6.0933 -15.0263
    endloop
  endfacet
  facet normal -0.542244 -0.283327 0.79101
    outer loop
      vertex -9.8092 1.8153 -18.6469
      vertex 1.75705 3.82021 -10
      vertex -9.21576 3.82021 -17.522
    endloop
  endfacet
  facet normal -0.542252 -0.283323 0.791006
    outer loop
      vertex -9.8092 1.8153 -18.6469
      vertex -9.21576 3.82021 -17.522
      vertex -9.78148 2.07912 -18.5334
    endloop
  endfacet
  facet normal -0.542244 -0.283327 0.79101
    outer loop
      vertex 1.75705 3.82021 -10
      vertex -9.8092 1.8153 -18.6469
      vertex 2.80463 1.8153 -10
    endloop
  endfacet
  facet normal 0.440493 -0.253299 0.861281
    outer loop
      vertex 3.91624 -5.71104e-07 -13.5499
      vertex 6.71766 -5.16967e-07 -14.9827
      vertex 4.22792 0.810365 -13.471
    endloop
  endfacet
  facet normal 0.356539 -0.44102 0.823639
    outer loop
      vertex 6.71766 -5.16967e-07 -14.9827
      vertex 10 7.1303e-16 -16.4035
      vertex 9.88872 1.05879 -15.7884
    endloop
  endfacet
  facet normal 0.0994459 -0.968161 0.22973
    outer loop
      vertex 10 7.1303e-16 -16.4035
      vertex 6.71766 -5.16967e-07 -14.9827
      vertex 10 -4.52584e-07 -16.4036
    endloop
  endfacet
  facet normal 0.356539 -0.44102 0.823639
    outer loop
      vertex 5.15043 2.60102 -12.9115
      vertex 6.71766 -5.16967e-07 -14.9827
      vertex 9.88872 1.05879 -15.7884
    endloop
  endfacet
  facet normal 0.356539 -0.44102 0.823639
    outer loop
      vertex 6.71766 -5.16967e-07 -14.9827
      vertex 5.15043 2.60102 -12.9115
      vertex 4.22792 0.810365 -13.471
    endloop
  endfacet
  facet normal -1 0 0
    outer loop
      vertex 10 7.1303e-16 -16.4035
      vertex 10 -4.52584e-07 -16.4036
      vertex 10 -1.95306e-06 -16.4036
    endloop
  endfacet
  facet normal 0.146232 -0.751278 0.643582
    outer loop
      vertex 6.20776 4.16085 -12.0063
      vertex 8.5849 5.02095 -11.5424
      vertex 7.35369 5.42169 -10.7948
    endloop
  endfacet
  facet normal 0.146232 -0.751278 0.643582
    outer loop
      vertex 6.20776 4.16085 -12.0063
      vertex 9.13545 4.06737 -12.7806
      vertex 8.5849 5.02095 -11.5424
    endloop
  endfacet
  facet normal 0.146232 -0.751278 0.643582
    outer loop
      vertex 9.13545 4.06737 -12.7806
      vertex 6.20776 4.16085 -12.0063
      vertex 9.44772 3.1063 -13.9735
    endloop
  endfacet
  facet normal 0.0290726 -0.860254 0.509036
    outer loop
      vertex 7.35369 5.42169 -10.7948
      vertex 8.11996 5.82625 -10.1549
      vertex 7.95896 5.88505 -10.0463
    endloop
  endfacet
  facet normal 0.0290716 -0.860253 0.509037
    outer loop
      vertex 8.11996 5.82625 -10.1549
      vertex 7.35369 5.42169 -10.7948
      vertex 8.5849 5.02095 -11.5424
    endloop
  endfacet
  facet normal 0.0290723 -0.860253 0.509038
    outer loop
      vertex 8.09017 5.87785 -10.066
      vertex 7.99644 5.91374 -10
      vertex 7.95896 5.88505 -10.0463
    endloop
  endfacet
  facet normal 0.0290688 -0.860255 0.509035
    outer loop
      vertex 7.99644 5.91374 -10
      vertex 8.09017 5.87785 -10.066
      vertex 8.05604 5.91575 -10
    endloop
  endfacet
  facet normal 0.0290718 -0.860254 0.509035
    outer loop
      vertex 8.09017 5.87785 -10.066
      vertex 7.95896 5.88505 -10.0463
      vertex 8.11996 5.82625 -10.1549
    endloop
  endfacet
  facet normal 0.257002 -0.609467 0.75
    outer loop
      vertex 5.15043 2.60102 -12.9115
      vertex 9.78148 2.07912 -14.9226
      vertex 9.44772 3.1063 -13.9735
    endloop
  endfacet
  facet normal 0.257002 -0.609467 0.75
    outer loop
      vertex 5.15043 2.60102 -12.9115
      vertex 9.44772 3.1063 -13.9735
      vertex 6.20776 4.16085 -12.0063
    endloop
  endfacet
  facet normal 0.257002 -0.609467 0.75
    outer loop
      vertex 9.78148 2.07912 -14.9226
      vertex 5.15043 2.60102 -12.9115
      vertex 9.88872 1.05879 -15.7884
    endloop
  endfacet
  facet normal 0.823503 -0.268035 -0.5
    outer loop
      vertex 6.07162 -5.12253e-07 -10
      vertex 7.35369 5.42169 -10.7948
      vertex 7.95896 5.88505 -10.0463
    endloop
  endfacet
  facet normal 0.823501 -0.268034 -0.500003
    outer loop
      vertex 6.07162 -5.12253e-07 -10
      vertex 7.95896 5.88505 -10.0463
      vertex 7.99644 5.91374 -10
    endloop
  endfacet
  facet normal 0.823503 -0.268035 -0.5
    outer loop
      vertex 7.35369 5.42169 -10.7948
      vertex 6.07162 -5.12253e-07 -10
      vertex 6.20776 4.16085 -12.0063
    endloop
  endfacet
  facet normal 0.823503 -0.268035 -0.5
    outer loop
      vertex 6.20776 4.16085 -12.0063
      vertex 6.07162 -5.12253e-07 -10
      vertex 5.15043 2.60102 -12.9115
    endloop
  endfacet
  facet normal 0.823503 -0.268035 -0.5
    outer loop
      vertex 5.15043 2.60102 -12.9115
      vertex 6.07162 -5.12253e-07 -10
      vertex 4.22792 0.810365 -13.471
    endloop
  endfacet
  facet normal 0.823503 -0.268035 -0.5
    outer loop
      vertex 4.22792 0.810365 -13.471
      vertex 6.07162 -5.12253e-07 -10
      vertex 3.91624 -5.71104e-07 -13.5499
    endloop
  endfacet
  facet normal 0 0 -1
    outer loop
      vertex 7.99644 5.91374 -10
      vertex 4.82767 -3.8219 -10
      vertex 6.07162 -5.12253e-07 -10
    endloop
  endfacet
  facet normal -0.823503 0.268034 0.5
    outer loop
      vertex 6.66086 1.81035 -10
      vertex 6.7796 2.17518 -10
      vertex 5.95874 2.44236 -11.4952
    endloop
  endfacet
  facet normal -0.823503 0.268035 0.5
    outer loop
      vertex 5.20233 0.118376 -11.4952
      vertex 6.66086 1.81035 -10
      vertex 5.95874 2.44236 -11.4952
    endloop
  endfacet
  facet normal -0.823503 0.268035 0.5
    outer loop
      vertex 5.20233 0.118376 -11.4952
      vertex 6.07162 -5.12253e-07 -10
      vertex 6.66086 1.81035 -10
    endloop
  endfacet
  facet normal -0.823503 0.268035 0.5
    outer loop
      vertex 6.07162 -5.12253e-07 -10
      vertex 5.20233 0.118376 -11.4952
      vertex 5.19584 -5.36166e-07 -11.4424
    endloop
  endfacet
  facet normal 0 0 1
    outer loop
      vertex 6.66086 1.81035 -10
      vertex 6.07162 -5.12253e-07 -10
      vertex 5.74794 -0.994485 -10
    endloop
  endfacet
  facet normal -0.3095 -0.950899 1.32309e-08
    outer loop
      vertex 5.95874 2.44236 -11.4952
      vertex 6.7796 2.17518 -10
      vertex 3.49615 3.24388 -10
    endloop
  endfacet
  facet normal 0.47545 -0.15475 0.866025
    outer loop
      vertex 5.20233 0.118376 -11.4952
      vertex 5.95874 2.44236 -11.4952
      vertex 3.26739 2.30024 -10.043
    endloop
  endfacet
  facet normal 0.3095 0.950899 -2.01367e-08
    outer loop
      vertex 3.33333 -0.208576 -4.92566
      vertex 0.257916 0.792416 2.56796e-17
      vertex 3.33333 -0.208576 5.62558e-16
    endloop
  endfacet
  facet normal 0.3095 0.950899 -2.27039e-08
    outer loop
      vertex 0.257916 0.792416 2.56796e-17
      vertex 3.33333 -0.208576 -4.92566
      vertex -1.79819 1.46164 -3.74517
    endloop
  endfacet
  facet normal 0.3095 0.950899 -8.11544e-09
    outer loop
      vertex -1.79819 1.46164 -3.74517
      vertex 3.33333 -0.208576 -4.92566
      vertex 0.64782 0.665509 -6.32854
    endloop
  endfacet
  facet normal 0.3095 0.950899 -1.25258e-07
    outer loop
      vertex 2.86512 -0.0561802 -8.45002
      vertex 3.33333 -0.208576 -9.16485
      vertex 2.72554 -0.0107516 -8.52293
    endloop
  endfacet
  facet normal 0.3095 0.950899 -1.91123e-08
    outer loop
      vertex 3.33333 -0.208576 -9.16485
      vertex 2.86512 -0.0561802 -8.45002
      vertex 3.33333 -0.208576 -7.68209
    endloop
  endfacet
  facet normal 0.47545 -0.15475 0.866025
    outer loop
      vertex 3.49615 3.24388 -10
      vertex 3.26739 2.30024 -10.043
      vertex 5.95874 2.44236 -11.4952
    endloop
  endfacet
  facet normal 0.475448 -0.15475 0.866026
    outer loop
      vertex 3.26739 2.30024 -10.043
      vertex 3.49615 3.24388 -10
      vertex 3.21006 2.36489 -10
    endloop
  endfacet
  facet normal 0.823503 -0.268035 -0.5
    outer loop
      vertex 0.542468 1.66667 5.40113e-17
      vertex -1.79819 1.46164 -3.74517
      vertex -1.78695 1.66667 -3.83657
    endloop
  endfacet
  facet normal 0.823503 -0.268035 -0.5
    outer loop
      vertex -1.79819 1.46164 -3.74517
      vertex 0.542468 1.66667 5.40113e-17
      vertex 0.257916 0.792416 2.56796e-17
    endloop
  endfacet
  facet normal 0.740798 0.239189 0.627699
    outer loop
      vertex 1.4407 -1.01123 -6.62535
      vertex 2.72554 -0.0107516 -8.52293
      vertex 0.64782 0.665509 -6.32854
    endloop
  endfacet
  facet normal 0.740796 0.239193 0.6277
    outer loop
      vertex 2.72554 -0.0107516 -8.52293
      vertex 1.4407 -1.01123 -6.62535
      vertex 2.74703 -0.0561802 -8.53097
    endloop
  endfacet
  facet normal 0.740798 0.239189 0.627699
    outer loop
      vertex -1.79819 1.46164 -3.74517
      vertex 0.174401 1.66667 -6.15132
      vertex -1.78695 1.66667 -3.83657
    endloop
  endfacet
  facet normal 0.740798 0.239189 0.627699
    outer loop
      vertex 0.174401 1.66667 -6.15132
      vertex 0.64782 0.665509 -6.32854
      vertex 1.93234 1.66667 -8.226
    endloop
  endfacet
  facet normal 0.740798 0.239189 0.627699
    outer loop
      vertex 0.174401 1.66667 -6.15132
      vertex -1.79819 1.46164 -3.74517
      vertex 0.64782 0.665509 -6.32854
    endloop
  endfacet
  facet normal 0.740798 0.239189 0.627699
    outer loop
      vertex 2.72554 -0.0107516 -8.52293
      vertex 1.93234 1.66667 -8.226
      vertex 0.64782 0.665509 -6.32854
    endloop
  endfacet
  facet normal 0.740798 0.239189 0.627699
    outer loop
      vertex 1.93234 1.66667 -8.226
      vertex 2.72554 -0.0107516 -8.52293
      vertex 3.33333 1.66667 -9.87942
    endloop
  endfacet
  facet normal 0.740798 0.239189 0.627699
    outer loop
      vertex 3.33333 1.66667 -9.87942
      vertex 2.72554 -0.0107516 -8.52293
      vertex 3.33333 -0.208576 -9.16485
    endloop
  endfacet
  facet normal 0.740798 0.239189 0.627699
    outer loop
      vertex 3.97363 -5.56763e-07 -10
      vertex 5.20233 0.118376 -11.4952
      vertex 3.26739 2.30024 -10.043
    endloop
  endfacet
  facet normal 0.740798 0.239188 0.6277
    outer loop
      vertex 3.97363 -5.56763e-07 -10
      vertex 3.26739 2.30024 -10.043
      vertex 3.21006 2.36489 -10
    endloop
  endfacet
  facet normal 0.740797 0.239193 0.627699
    outer loop
      vertex 5.20233 0.118376 -11.4952
      vertex 3.97363 -5.56763e-07 -10
      vertex 5.19584 -5.36166e-07 -11.4424
    endloop
  endfacet
  facet normal 0 0 -1
    outer loop
      vertex 3.97363 -5.56763e-07 -10
      vertex 3.21006 2.36489 -10
      vertex 4.12408 -0.465949 -10
    endloop
  endfacet
  facet normal -0.522529 -0.382021 0.762249
    outer loop
      vertex -3.33333 1.06273 -0.112532
      vertex -3.16918 1.06273 -5.53935e-16
      vertex -3.33333 1.28726 -5.8637e-16
    endloop
  endfacet
  facet normal -0.216 0.924154 0.315094
    outer loop
      vertex -3.33333 1.02436 -5.80566e-16
      vertex -3.16918 1.06273 -5.53935e-16
      vertex -3.33333 1.06273 -0.112532
    endloop
  endfacet
  facet normal -0.522528 -0.382016 0.762252
    outer loop
      vertex 2.74703 -0.0561802 -8.53097
      vertex 2.86512 -0.0561802 -8.45002
      vertex 2.72554 -0.0107516 -8.52293
    endloop
  endfacet
  facet normal 0.522529 0.382021 -0.762249
    outer loop
      vertex 1.4407 -1.01123 -6.62535
      vertex 3.33333 -0.208576 -4.92566
      vertex 3.33333 -1.01123 -5.32794
    endloop
  endfacet
  facet normal 0.522529 0.382021 -0.762249
    outer loop
      vertex 3.33333 -0.208576 -4.92566
      vertex 1.4407 -1.01123 -6.62535
      vertex 0.64782 0.665509 -6.32854
    endloop
  endfacet
  facet normal -0.216 0.924154 0.315094
    outer loop
      vertex 3.33333 -0.208576 -7.68209
      vertex 1.4407 -1.01123 -6.62535
      vertex 3.33333 -1.01123 -5.32794
    endloop
  endfacet
  facet normal -0.216 0.924154 0.315094
    outer loop
      vertex 2.86512 -0.0561802 -8.45002
      vertex 1.4407 -1.01123 -6.62535
      vertex 3.33333 -0.208576 -7.68209
    endloop
  endfacet
  facet normal -0.215999 0.924154 0.315094
    outer loop
      vertex 1.4407 -1.01123 -6.62535
      vertex 2.86512 -0.0561802 -8.45002
      vertex 2.74703 -0.0561802 -8.53097
    endloop
  endfacet
  facet normal 0 0 1
    outer loop
      vertex 6.98261 -3.01739 -10
      vertex 10 -1.31164e-06 -10
      vertex 10 -4.28912e-07 -10
    endloop
  endfacet
  facet normal 0 0 1
    outer loop
      vertex 10 -1.31164e-06 -10
      vertex 6.98261 -3.01739 -10
      vertex 9.78148 -2.07912 -10
    endloop
  endfacet
  facet normal 0 0 1
    outer loop
      vertex 9.78148 -2.07912 -10
      vertex 6.98261 -3.01739 -10
      vertex 9.13545 -4.06737 -10
    endloop
  endfacet
  facet normal 0 0 1
    outer loop
      vertex 9.13545 -4.06737 -10
      vertex 6.98261 -3.01739 -10
      vertex 8.09017 -5.87785 -10
    endloop
  endfacet
  facet normal 0 0 1
    outer loop
      vertex 6.98261 -3.01739 -10
      vertex 6.69131 -7.43145 -10
      vertex 8.09017 -5.87785 -10
    endloop
  endfacet
  facet normal 0 -0 1
    outer loop
      vertex 6.69131 -7.43145 -10
      vertex 6.98261 -3.01739 -10
      vertex 5.53849 -8.26902 -10
    endloop
  endfacet
  facet normal 1 -0 0
    outer loop
      vertex 10 -1.31164e-06 -10
      vertex 10 -4.52584e-07 -16.4036
      vertex 10 -4.28912e-07 -10
    endloop
  endfacet
  facet normal 1 0 0
    outer loop
      vertex 10 -4.52584e-07 -16.4036
      vertex 10 -1.31164e-06 -10
      vertex 10 -1.95306e-06 -16.4036
    endloop
  endfacet
  facet normal -0 0 1
    outer loop
      vertex 6.07162 -5.12253e-07 -10
      vertex 6.98261 -3.01739 -10
      vertex 10 -4.28912e-07 -10
    endloop
  endfacet
  facet normal 0 0 1
    outer loop
      vertex 6.98261 -3.01739 -10
      vertex 6.07162 -5.12253e-07 -10
      vertex 4.82767 -3.8219 -10
    endloop
  endfacet
  facet normal 0 0 1
    outer loop
      vertex 6.07162 -5.12253e-07 -10
      vertex 4.12408 -0.465949 -10
      vertex 5.74794 -0.994485 -10
    endloop
  endfacet
  facet normal 0 -0 1
    outer loop
      vertex 4.12408 -0.465949 -10
      vertex 6.07162 -5.12253e-07 -10
      vertex 3.97363 -5.56763e-07 -10
    endloop
  endfacet
  facet normal -2.12153e-08 1 -3.69678e-09
    outer loop
      vertex 6.71766 -5.16967e-07 -14.9827
      vertex 6.07162 -5.12253e-07 -10
      vertex 10 -4.28912e-07 -10
    endloop
  endfacet
  facet normal -2.12153e-08 1 -3.69678e-09
    outer loop
      vertex 6.07162 -5.12253e-07 -10
      vertex 6.71766 -5.16967e-07 -14.9827
      vertex 3.91624 -5.71104e-07 -13.5499
    endloop
  endfacet
  facet normal -2.12153e-08 1 -3.69679e-09
    outer loop
      vertex 6.71766 -5.16967e-07 -14.9827
      vertex 10 -4.28912e-07 -10
      vertex 10 -4.52584e-07 -16.4036
    endloop
  endfacet
  facet normal -2.12153e-08 1 -3.69679e-09
    outer loop
      vertex 5.19584 -5.36166e-07 -11.4424
      vertex 3.97363 -5.56763e-07 -10
      vertex 6.07162 -5.12253e-07 -10
    endloop
  endfacet
  facet normal -0.994522 0.104529 0
    outer loop
      vertex -9.78148 2.07912 -30.9017
      vertex -9.8092 1.8153 -18.6469
      vertex -9.78148 2.07912 -18.5334
    endloop
  endfacet
  facet normal -0.994522 0.104529 -3.64257e-10
    outer loop
      vertex -9.8092 1.8153 -18.6469
      vertex -9.78148 2.07912 -30.9017
      vertex -9.84663 1.4592 -18.7062
    endloop
  endfacet
  facet normal -0.994522 0.104528 2.30739e-18
    outer loop
      vertex -10 6.73587e-17 -18.9493
      vertex -9.78148 2.07912 -30.9017
      vertex -10 3.31199e-16 -30.9017
    endloop
  endfacet
  facet normal -0.994522 0.104528 -7.12698e-08
    outer loop
      vertex -9.78148 2.07912 -30.9017
      vertex -10 6.73587e-17 -18.9493
      vertex -9.84663 1.4592 -18.7062
    endloop
  endfacet
  facet normal 0.994522 0.104529 0
    outer loop
      vertex 9.88872 1.05879 -15.7884
      vertex 9.78148 2.07912 -30.9017
      vertex 9.78148 2.07912 -14.9226
    endloop
  endfacet
  facet normal 0.994522 0.104529 4.54937e-09
    outer loop
      vertex 10 7.1303e-16 -16.4035
      vertex 9.78148 2.07912 -30.9017
      vertex 9.88872 1.05879 -15.7884
    endloop
  endfacet
  facet normal 0.994522 0.104529 0
    outer loop
      vertex 9.78148 2.07912 -30.9017
      vertex 10 7.1303e-16 -16.4035
      vertex 10 1.03307e-15 -30.9017
    endloop
  endfacet
  facet normal 0.207911 -0.978148 0
    outer loop
      vertex 1.04528 -9.94522 -30.9017
      vertex 3.09017 -9.51056 -10
      vertex 1.04528 -9.94522 -10
    endloop
  endfacet
  facet normal 0.207911 -0.978148 0
    outer loop
      vertex 3.09017 -9.51056 -10
      vertex 1.04528 -9.94522 -30.9017
      vertex 3.09017 -9.51056 -30.9017
    endloop
  endfacet
  facet normal 0 1 -0
    outer loop
      vertex 1.04528 9.94522 -30.9017
      vertex -1.04528 9.94522 -10
      vertex 1.04528 9.94522 -10
    endloop
  endfacet
  facet normal 0 1 0
    outer loop
      vertex -1.04528 9.94522 -10
      vertex 1.04528 9.94522 -30.9017
      vertex -1.04528 9.94522 -30.9017
    endloop
  endfacet
  facet normal 0.866026 -0.5 0
    outer loop
      vertex 8.09017 -5.87785 -10
      vertex 9.13545 -4.06737 -30.9017
      vertex 9.13545 -4.06737 -10
    endloop
  endfacet
  facet normal 0.866026 -0.5 0
    outer loop
      vertex 9.13545 -4.06737 -30.9017
      vertex 8.09017 -5.87785 -10
      vertex 8.09017 -5.87785 -30.9017
    endloop
  endfacet
  facet normal 0.743145 0.669131 -2.58248e-06
    outer loop
      vertex 8.09017 5.87785 -10.066
      vertex 6.69131 7.43145 -10
      vertex 8.05604 5.91575 -10
    endloop
  endfacet
  facet normal 0.743145 0.669131 0
    outer loop
      vertex 6.69131 7.43145 -10
      vertex 8.09017 5.87785 -10.066
      vertex 6.69131 7.43145 -30.9017
    endloop
  endfacet
  facet normal 0.743145 0.669131 0
    outer loop
      vertex 6.69131 7.43145 -30.9017
      vertex 8.09017 5.87785 -10.066
      vertex 8.09017 5.87785 -30.9017
    endloop
  endfacet
  facet normal 0.866027 0.499997 0
    outer loop
      vertex 8.11996 5.82625 -10.1549
      vertex 8.09017 5.87785 -30.9017
      vertex 8.09017 5.87785 -10.066
    endloop
  endfacet
  facet normal 0.866025 0.5 1.07403e-08
    outer loop
      vertex 8.5849 5.02095 -11.5424
      vertex 8.09017 5.87785 -30.9017
      vertex 8.11996 5.82625 -10.1549
    endloop
  endfacet
  facet normal 0.866026 0.5 -1.16704e-08
    outer loop
      vertex 9.13545 4.06737 -12.7806
      vertex 8.09017 5.87785 -30.9017
      vertex 8.5849 5.02095 -11.5424
    endloop
  endfacet
  facet normal 0.866026 0.5 0
    outer loop
      vertex 8.09017 5.87785 -30.9017
      vertex 9.13545 4.06737 -12.7806
      vertex 9.13545 4.06737 -30.9017
    endloop
  endfacet
  facet normal 0.951057 -0.309017 0
    outer loop
      vertex 9.13545 -4.06737 -10
      vertex 9.78148 -2.07912 -30.9017
      vertex 9.78148 -2.07912 -10
    endloop
  endfacet
  facet normal 0.951057 -0.309017 0
    outer loop
      vertex 9.78148 -2.07912 -30.9017
      vertex 9.13545 -4.06737 -10
      vertex 9.13545 -4.06737 -30.9017
    endloop
  endfacet
  facet normal 0 -1 0
    outer loop
      vertex -1.04528 -9.94522 -30.9017
      vertex 1.04528 -9.94522 -10
      vertex -1.04528 -9.94522 -10
    endloop
  endfacet
  facet normal 0 -1 -0
    outer loop
      vertex 1.04528 -9.94522 -10
      vertex -1.04528 -9.94522 -30.9017
      vertex 1.04528 -9.94522 -30.9017
    endloop
  endfacet
  facet normal -0.951057 0.309017 0
    outer loop
      vertex -9.13545 4.06737 -30.9017
      vertex -9.21576 3.82021 -17.522
      vertex -9.13545 4.06737 -17.3045
    endloop
  endfacet
  facet normal -0.951057 0.309017 0
    outer loop
      vertex -9.78148 2.07912 -18.5334
      vertex -9.13545 4.06737 -30.9017
      vertex -9.78148 2.07912 -30.9017
    endloop
  endfacet
  facet normal -0.951057 0.309017 3.13606e-09
    outer loop
      vertex -9.13545 4.06737 -30.9017
      vertex -9.78148 2.07912 -18.5334
      vertex -9.21576 3.82021 -17.522
    endloop
  endfacet
  facet normal -0.207911 0.978148 0
    outer loop
      vertex -1.04528 9.94522 -30.9017
      vertex -3.09017 9.51056 -10
      vertex -1.04528 9.94522 -10
    endloop
  endfacet
  facet normal -0.207911 0.978148 0
    outer loop
      vertex -3.09017 9.51056 -10
      vertex -1.04528 9.94522 -30.9017
      vertex -3.09017 9.51056 -30.9017
    endloop
  endfacet
  facet normal 0.951057 0.309017 0
    outer loop
      vertex 9.44772 3.1063 -13.9735
      vertex 9.13545 4.06737 -30.9017
      vertex 9.13545 4.06737 -12.7806
    endloop
  endfacet
  facet normal 0.951057 0.309017 1.4173e-09
    outer loop
      vertex 9.78148 2.07912 -14.9226
      vertex 9.13545 4.06737 -30.9017
      vertex 9.44772 3.1063 -13.9735
    endloop
  endfacet
  facet normal 0.951057 0.309017 0
    outer loop
      vertex 9.13545 4.06737 -30.9017
      vertex 9.78148 2.07912 -14.9226
      vertex 9.78148 2.07912 -30.9017
    endloop
  endfacet
  facet normal 0.406737 0.913545 -8.50707e-10
    outer loop
      vertex 3.09017 9.51056 -30.9017
      vertex 4.02403 9.09478 -10
      vertex 5 8.66025 -30.9017
    endloop
  endfacet
  facet normal 0.406737 0.913545 0
    outer loop
      vertex 4.02403 9.09478 -10
      vertex 3.09017 9.51056 -30.9017
      vertex 3.09017 9.51056 -10
    endloop
  endfacet
  facet normal 0.587786 -0.809017 0
    outer loop
      vertex 5 -8.66025 -30.9017
      vertex 5.53849 -8.26902 -10
      vertex 5 -8.66025 -10
    endloop
  endfacet
  facet normal 0.587785 -0.809017 1.62178e-08
    outer loop
      vertex 6.69131 -7.43145 -30.9017
      vertex 5.53849 -8.26902 -10
      vertex 5 -8.66025 -30.9017
    endloop
  endfacet
  facet normal 0.587785 -0.809017 0
    outer loop
      vertex 5.53849 -8.26902 -10
      vertex 6.69131 -7.43145 -30.9017
      vertex 6.69131 -7.43145 -10
    endloop
  endfacet
  facet normal 0.743145 -0.669131 0
    outer loop
      vertex 6.69131 -7.43145 -10
      vertex 8.09017 -5.87785 -30.9017
      vertex 8.09017 -5.87785 -10
    endloop
  endfacet
  facet normal 0.743145 -0.669131 0
    outer loop
      vertex 8.09017 -5.87785 -30.9017
      vertex 6.69131 -7.43145 -10
      vertex 6.69131 -7.43145 -30.9017
    endloop
  endfacet
  facet normal 0.406737 -0.913545 0
    outer loop
      vertex 3.09017 -9.51056 -30.9017
      vertex 5 -8.66025 -10
      vertex 3.09017 -9.51056 -10
    endloop
  endfacet
  facet normal 0.406737 -0.913545 0
    outer loop
      vertex 5 -8.66025 -10
      vertex 3.09017 -9.51056 -30.9017
      vertex 5 -8.66025 -30.9017
    endloop
  endfacet
  facet normal 0.994522 -0.104529 1.04703e-08
    outer loop
      vertex 10 -1.31164e-06 -10
      vertex 9.78148 -2.07912 -10
      vertex 10 -1.95306e-06 -16.4036
    endloop
  endfacet
  facet normal 1 -0 0
    outer loop
      vertex 10 -1.95306e-06 -16.4036
      vertex 10 1.03307e-15 -30.9017
      vertex 10 7.1303e-16 -16.4035
    endloop
  endfacet
  facet normal 0.994522 -0.104529 0
    outer loop
      vertex 9.78148 -2.07912 -30.9017
      vertex 10 -1.95306e-06 -16.4036
      vertex 9.78148 -2.07912 -10
    endloop
  endfacet
  facet normal 0.994522 -0.104529 -1.40812e-08
    outer loop
      vertex 10 -1.95306e-06 -16.4036
      vertex 9.78148 -2.07912 -30.9017
      vertex 10 1.03307e-15 -30.9017
    endloop
  endfacet
  facet normal -0.743145 -0.669131 0
    outer loop
      vertex -6.69131 -7.43145 -30.9017
      vertex -8.09017 -5.87785 -15.3196
      vertex -8.09017 -5.87785 -30.9017
    endloop
  endfacet
  facet normal -0.743145 -0.669131 -8.64031e-09
    outer loop
      vertex -8.09017 -5.87785 -15.3196
      vertex -6.69131 -7.43145 -30.9017
      vertex -7.89618 -6.0933 -15.0263
    endloop
  endfacet
  facet normal -0.743145 -0.669131 0
    outer loop
      vertex -7.89618 -6.0933 -15.0263
      vertex -6.69131 -7.43145 -30.9017
      vertex -6.69131 -7.43145 -12.6585
    endloop
  endfacet
  facet normal -0.743145 0.669131 0
    outer loop
      vertex -6.69131 7.43145 -30.9017
      vertex -6.85576 7.24881 -13.0516
      vertex -6.69131 7.43145 -12.6507
    endloop
  endfacet
  facet normal -0.743145 0.669131 0
    outer loop
      vertex -8.09017 5.87785 -15.3154
      vertex -6.69131 7.43145 -30.9017
      vertex -8.09017 5.87785 -30.9017
    endloop
  endfacet
  facet normal -0.743145 0.669131 3.65496e-10
    outer loop
      vertex -6.69131 7.43145 -30.9017
      vertex -8.09017 5.87785 -15.3154
      vertex -6.85576 7.24881 -13.0516
    endloop
  endfacet
  facet normal -0.587786 0.809017 0
    outer loop
      vertex -6.69131 7.43145 -12.6507
      vertex -5.87477 8.0247 -11.155
      vertex -6.69131 7.43145 -30.9017
    endloop
  endfacet
  facet normal -0.587785 0.809017 -1.80326e-08
    outer loop
      vertex -5 8.66025 -10
      vertex -5.87477 8.0247 -11.155
      vertex -5.24421 8.48282 -10
    endloop
  endfacet
  facet normal -0.587785 0.809017 -1.34093e-08
    outer loop
      vertex -5 8.66025 -30.9017
      vertex -5.87477 8.0247 -11.155
      vertex -5 8.66025 -10
    endloop
  endfacet
  facet normal -0.587785 0.809017 -3.44326e-08
    outer loop
      vertex -5.87477 8.0247 -11.155
      vertex -5 8.66025 -30.9017
      vertex -6.69131 7.43145 -30.9017
    endloop
  endfacet
  facet normal -0.406737 0.913545 0
    outer loop
      vertex -4.06614 9.07604 -10
      vertex -3.09017 9.51056 -10
      vertex -3.09017 9.51056 -30.9017
    endloop
  endfacet
  facet normal 0.406737 0.913545 9.27902e-09
    outer loop
      vertex 5 8.66025 -30.9017
      vertex 4.02403 9.09478 -10
      vertex 5 8.66025 -10
    endloop
  endfacet
  facet normal 0.207911 0.978148 -0
    outer loop
      vertex 3.09017 9.51056 -30.9017
      vertex 1.04528 9.94522 -10
      vertex 3.09017 9.51056 -10
    endloop
  endfacet
  facet normal 0.207911 0.978148 0
    outer loop
      vertex 1.04528 9.94522 -10
      vertex 3.09017 9.51056 -30.9017
      vertex 1.04528 9.94522 -30.9017
    endloop
  endfacet
  facet normal 0.587785 0.809017 1.34093e-08
    outer loop
      vertex 5 8.66025 -30.9017
      vertex 5 8.66025 -10
      vertex 5.8643 8.03231 -10
    endloop
  endfacet
  facet normal -0.207911 -0.978148 0
    outer loop
      vertex -3.09017 -9.51056 -30.9017
      vertex -1.04528 -9.94522 -10
      vertex -3.09017 -9.51056 -10
    endloop
  endfacet
  facet normal -0.207911 -0.978148 -0
    outer loop
      vertex -1.04528 -9.94522 -10
      vertex -3.09017 -9.51056 -30.9017
      vertex -1.04528 -9.94522 -30.9017
    endloop
  endfacet
  facet normal 0 0 -1
    outer loop
      vertex 9.78148 -2.07912 -30.9017
      vertex 9.78148 2.07912 -30.9017
      vertex 10 1.03307e-15 -30.9017
    endloop
  endfacet
  facet normal 0 0 -1
    outer loop
      vertex 9.13545 -4.06737 -30.9017
      vertex 9.78148 2.07912 -30.9017
      vertex 9.78148 -2.07912 -30.9017
    endloop
  endfacet
  facet normal 0 0 -1
    outer loop
      vertex 9.13545 -4.06737 -30.9017
      vertex 9.13545 4.06737 -30.9017
      vertex 9.78148 2.07912 -30.9017
    endloop
  endfacet
  facet normal 0 0 -1
    outer loop
      vertex 8.09017 -5.87785 -30.9017
      vertex 9.13545 4.06737 -30.9017
      vertex 9.13545 -4.06737 -30.9017
    endloop
  endfacet
  facet normal 0 0 -1
    outer loop
      vertex 8.09017 -5.87785 -30.9017
      vertex 8.09017 5.87785 -30.9017
      vertex 9.13545 4.06737 -30.9017
    endloop
  endfacet
  facet normal 0 0 -1
    outer loop
      vertex 6.69131 -7.43145 -30.9017
      vertex 8.09017 5.87785 -30.9017
      vertex 8.09017 -5.87785 -30.9017
    endloop
  endfacet
  facet normal 0 0 -1
    outer loop
      vertex 6.69131 -7.43145 -30.9017
      vertex 6.69131 7.43145 -30.9017
      vertex 8.09017 5.87785 -30.9017
    endloop
  endfacet
  facet normal 0 0 -1
    outer loop
      vertex 5 -8.66025 -30.9017
      vertex 6.69131 7.43145 -30.9017
      vertex 6.69131 -7.43145 -30.9017
    endloop
  endfacet
  facet normal 0 0 -1
    outer loop
      vertex 5 -8.66025 -30.9017
      vertex 5 8.66025 -30.9017
      vertex 6.69131 7.43145 -30.9017
    endloop
  endfacet
  facet normal 0 0 -1
    outer loop
      vertex 3.09017 -9.51056 -30.9017
      vertex 5 8.66025 -30.9017
      vertex 5 -8.66025 -30.9017
    endloop
  endfacet
  facet normal 0 0 -1
    outer loop
      vertex 3.09017 -9.51056 -30.9017
      vertex 3.09017 9.51056 -30.9017
      vertex 5 8.66025 -30.9017
    endloop
  endfacet
  facet normal 0 0 -1
    outer loop
      vertex 1.04528 -9.94522 -30.9017
      vertex 3.09017 9.51056 -30.9017
      vertex 3.09017 -9.51056 -30.9017
    endloop
  endfacet
  facet normal 0 0 -1
    outer loop
      vertex 1.04528 -9.94522 -30.9017
      vertex 1.04528 9.94522 -30.9017
      vertex 3.09017 9.51056 -30.9017
    endloop
  endfacet
  facet normal 0 0 -1
    outer loop
      vertex -1.04528 -9.94522 -30.9017
      vertex 1.04528 9.94522 -30.9017
      vertex 1.04528 -9.94522 -30.9017
    endloop
  endfacet
  facet normal 0 0 -1
    outer loop
      vertex -1.04528 -9.94522 -30.9017
      vertex -1.04528 9.94522 -30.9017
      vertex 1.04528 9.94522 -30.9017
    endloop
  endfacet
  facet normal 0 0 -1
    outer loop
      vertex -3.09017 -9.51056 -30.9017
      vertex -1.04528 9.94522 -30.9017
      vertex -1.04528 -9.94522 -30.9017
    endloop
  endfacet
  facet normal 0 0 -1
    outer loop
      vertex -3.09017 -9.51056 -30.9017
      vertex -3.09017 9.51056 -30.9017
      vertex -1.04528 9.94522 -30.9017
    endloop
  endfacet
  facet normal 0 0 -1
    outer loop
      vertex -5 -8.66025 -30.9017
      vertex -3.09017 9.51056 -30.9017
      vertex -3.09017 -9.51056 -30.9017
    endloop
  endfacet
  facet normal 0 0 -1
    outer loop
      vertex -5 -8.66025 -30.9017
      vertex -5 8.66025 -30.9017
      vertex -3.09017 9.51056 -30.9017
    endloop
  endfacet
  facet normal 0 0 -1
    outer loop
      vertex -6.69131 -7.43145 -30.9017
      vertex -5 8.66025 -30.9017
      vertex -5 -8.66025 -30.9017
    endloop
  endfacet
  facet normal 0 0 -1
    outer loop
      vertex -6.69131 -7.43145 -30.9017
      vertex -6.69131 7.43145 -30.9017
      vertex -5 8.66025 -30.9017
    endloop
  endfacet
  facet normal 0 0 -1
    outer loop
      vertex -8.09017 -5.87785 -30.9017
      vertex -6.69131 7.43145 -30.9017
      vertex -6.69131 -7.43145 -30.9017
    endloop
  endfacet
  facet normal 0 0 -1
    outer loop
      vertex -8.09017 -5.87785 -30.9017
      vertex -8.09017 5.87785 -30.9017
      vertex -6.69131 7.43145 -30.9017
    endloop
  endfacet
  facet normal 0 0 -1
    outer loop
      vertex -9.13545 -4.06737 -30.9017
      vertex -8.09017 5.87785 -30.9017
      vertex -8.09017 -5.87785 -30.9017
    endloop
  endfacet
  facet normal 0 0 -1
    outer loop
      vertex -9.13545 -4.06737 -30.9017
      vertex -9.13545 4.06737 -30.9017
      vertex -8.09017 5.87785 -30.9017
    endloop
  endfacet
  facet normal 0 0 -1
    outer loop
      vertex -9.78148 -2.07912 -30.9017
      vertex -9.13545 4.06737 -30.9017
      vertex -9.13545 -4.06737 -30.9017
    endloop
  endfacet
  facet normal 0 0 -1
    outer loop
      vertex -9.78148 -2.07912 -30.9017
      vertex -9.78148 2.07912 -30.9017
      vertex -9.13545 4.06737 -30.9017
    endloop
  endfacet
  facet normal 0 -0 -1
    outer loop
      vertex -9.78148 2.07912 -30.9017
      vertex -9.78148 -2.07912 -30.9017
      vertex -10 3.31199e-16 -30.9017
    endloop
  endfacet
  facet normal -0.587785 -0.809017 -4.16934e-07
    outer loop
      vertex -5.87498 -8.02455 -11.16
      vertex -5 -8.66025 -10
      vertex -5.28589 -8.45254 -10
    endloop
  endfacet
  facet normal -0.587785 -0.809017 -2.83186e-08
    outer loop
      vertex -5 -8.66025 -30.9017
      vertex -5.87498 -8.02455 -11.16
      vertex -6.69131 -7.43145 -30.9017
    endloop
  endfacet
  facet normal -0.587785 -0.809017 -1.34093e-08
    outer loop
      vertex -5.87498 -8.02455 -11.16
      vertex -5 -8.66025 -30.9017
      vertex -5 -8.66025 -10
    endloop
  endfacet
  facet normal -0.951057 -0.309017 0
    outer loop
      vertex -9.13545 -4.06737 -30.9017
      vertex -9.78148 -2.07912 -18.5344
      vertex -9.78148 -2.07912 -30.9017
    endloop
  endfacet
  facet normal -0.951057 -0.309016 -1.0478e-07
    outer loop
      vertex -9.78148 -2.07912 -18.5344
      vertex -9.13545 -4.06737 -30.9017
      vertex -9.69625 -2.34143 -18.4339
    endloop
  endfacet
  facet normal -0.951057 -0.309017 0
    outer loop
      vertex -9.69625 -2.34143 -18.4339
      vertex -9.13545 -4.06737 -30.9017
      vertex -9.13545 -4.06737 -17.3068
    endloop
  endfacet
  facet normal -0.406737 -0.913545 -9.27902e-09
    outer loop
      vertex -5 -8.66025 -30.9017
      vertex -4.06614 -9.07604 -10
      vertex -5 -8.66025 -10
    endloop
  endfacet
  facet normal -0.406737 -0.913545 -8.63287e-09
    outer loop
      vertex -4.06614 -9.07604 -10
      vertex -5 -8.66025 -30.9017
      vertex -3.09017 -9.51056 -30.9017
    endloop
  endfacet
  facet normal -0.406737 -0.913545 -0
    outer loop
      vertex -3.09017 -9.51056 -10
      vertex -4.06614 -9.07604 -10
      vertex -3.09017 -9.51056 -30.9017
    endloop
  endfacet
  facet normal -0.866026 0.499999 0
    outer loop
      vertex -8.09017 5.87785 -30.9017
      vertex -8.21701 5.65815 -15.6295
      vertex -8.09017 5.87785 -15.3154
    endloop
  endfacet
  facet normal -0.866026 0.5 0
    outer loop
      vertex -9.13545 4.06737 -17.3045
      vertex -8.09017 5.87785 -30.9017
      vertex -9.13545 4.06737 -30.9017
    endloop
  endfacet
  facet normal -0.866026 0.5 6.34938e-09
    outer loop
      vertex -8.09017 5.87785 -30.9017
      vertex -9.13545 4.06737 -17.3045
      vertex -8.21701 5.65815 -15.6295
    endloop
  endfacet
  facet normal -0.406737 0.913545 -8.63287e-09
    outer loop
      vertex -5 8.66025 -30.9017
      vertex -4.06614 9.07604 -10
      vertex -3.09017 9.51056 -30.9017
    endloop
  endfacet
  facet normal -0.406737 0.913545 -9.27902e-09
    outer loop
      vertex -4.06614 9.07604 -10
      vertex -5 8.66025 -30.9017
      vertex -5 8.66025 -10
    endloop
  endfacet
  facet normal 0.587785 0.809017 -0
    outer loop
      vertex 6.69131 7.43145 -30.9017
      vertex 5.8643 8.03231 -10
      vertex 6.69131 7.43145 -10
    endloop
  endfacet
  facet normal 0.587785 0.809017 6.5924e-09
    outer loop
      vertex 5.8643 8.03231 -10
      vertex 6.69131 7.43145 -30.9017
      vertex 5 8.66025 -30.9017
    endloop
  endfacet
  facet normal -0.866026 -0.5 0
    outer loop
      vertex -8.09017 -5.87785 -30.9017
      vertex -9.13545 -4.06737 -17.3068
      vertex -9.13545 -4.06737 -30.9017
    endloop
  endfacet
  facet normal -0.866026 -0.499999 -6.94577e-08
    outer loop
      vertex -9.13545 -4.06737 -17.3068
      vertex -8.09017 -5.87785 -30.9017
      vertex -8.99446 -4.31158 -17.105
    endloop
  endfacet
  facet normal -0.866026 -0.5 0
    outer loop
      vertex -8.99446 -4.31158 -17.105
      vertex -8.09017 -5.87785 -30.9017
      vertex -8.09017 -5.87785 -15.3196
    endloop
  endfacet
  facet normal -0.587786 -0.809017 -8.80487e-11
    outer loop
      vertex -6.44732 -7.60871 -12.287
      vertex -6.69131 -7.43145 -30.9017
      vertex -5.87498 -8.02455 -11.16
    endloop
  endfacet
  facet normal -0.587786 -0.809017 0
    outer loop
      vertex -6.69131 -7.43145 -30.9017
      vertex -6.44732 -7.60871 -12.287
      vertex -6.69131 -7.43145 -12.6585
    endloop
  endfacet
  facet normal -0.994522 -0.104529 -0
    outer loop
      vertex -9.78148 -2.07912 -18.5344
      vertex -9.84678 -1.45781 -18.6789
      vertex -9.78148 -2.07912 -30.9017
    endloop
  endfacet
  facet normal -0.994522 -0.104527 -2.30735e-18
    outer loop
      vertex -10 3.31199e-16 -30.9017
      vertex -9.97173 -0.268937 -18.9554
      vertex -10 6.73587e-17 -18.9493
    endloop
  endfacet
  facet normal -0.994522 -0.104528 -3.56943e-08
    outer loop
      vertex -9.78148 -2.07912 -30.9017
      vertex -9.97173 -0.268937 -18.9554
      vertex -10 3.31199e-16 -30.9017
    endloop
  endfacet
  facet normal -0.994522 -0.104528 -4.48053e-08
    outer loop
      vertex -9.97173 -0.268937 -18.9554
      vertex -9.78148 -2.07912 -30.9017
      vertex -9.84678 -1.45781 -18.6789
    endloop
  endfacet
  facet normal 0 0 1
    outer loop
      vertex 6.69131 7.43145 -10
      vertex 7.99644 5.91374 -10
      vertex 8.05604 5.91575 -10
    endloop
  endfacet
  facet normal 0 0 1
    outer loop
      vertex 3.49615 3.24388 -10
      vertex 7.99644 5.91374 -10
      vertex 6.69131 7.43145 -10
    endloop
  endfacet
  facet normal 0 0 1
    outer loop
      vertex 3.49615 3.24388 -10
      vertex 6.69131 7.43145 -10
      vertex 5.8643 8.03231 -10
    endloop
  endfacet
  facet normal 0 0 1
    outer loop
      vertex 3.49615 3.24388 -10
      vertex 5.8643 8.03231 -10
      vertex 5 8.66025 -10
    endloop
  endfacet
  facet normal 0 0 1
    outer loop
      vertex 1.75705 3.82021 -10
      vertex 5 8.66025 -10
      vertex 4.02403 9.09478 -10
    endloop
  endfacet
  facet normal 0 0 1
    outer loop
      vertex 7.99644 5.91374 -10
      vertex 3.49615 3.24388 -10
      vertex 6.7796 2.17518 -10
    endloop
  endfacet
  facet normal 0 0 1
    outer loop
      vertex 5 8.66025 -10
      vertex 1.75705 3.82021 -10
      vertex 3.49615 3.24388 -10
    endloop
  endfacet
  facet normal 0 0 1
    outer loop
      vertex -0.00487794 5.65815 -10
      vertex 4.02403 9.09478 -10
      vertex 3.09017 9.51056 -10
    endloop
  endfacet
  facet normal 0 0 1
    outer loop
      vertex 6.66086 1.81035 -10
      vertex 7.99644 5.91374 -10
      vertex 6.7796 2.17518 -10
    endloop
  endfacet
  facet normal 0 0 1
    outer loop
      vertex 5.74794 -0.994485 -10
      vertex 7.99644 5.91374 -10
      vertex 6.66086 1.81035 -10
    endloop
  endfacet
  facet normal -0 0 1
    outer loop
      vertex 5.74794 -0.994485 -10
      vertex 4.82767 -3.8219 -10
      vertex 7.99644 5.91374 -10
    endloop
  endfacet
  facet normal 0 0 1
    outer loop
      vertex 3.33333 -1.66667 -10
      vertex 5.74794 -0.994485 -10
      vertex 4.12408 -0.465949 -10
    endloop
  endfacet
  facet normal -0 0 1
    outer loop
      vertex 4.82767 -3.8219 -10
      vertex 5.53849 -8.26902 -10
      vertex 6.98261 -3.01739 -10
    endloop
  endfacet
  facet normal 0 0 1
    outer loop
      vertex 5.53849 -8.26902 -10
      vertex 4.82767 -3.8219 -10
      vertex 5 -8.66025 -10
    endloop
  endfacet
  facet normal 0 0 1
    outer loop
      vertex 5.74794 -0.994485 -10
      vertex 3.33333 -1.66667 -10
      vertex 4.82767 -3.8219 -10
    endloop
  endfacet
  facet normal 0 0 1
    outer loop
      vertex 3.33333 -1.66667 -10
      vertex 4.12408 -0.465949 -10
      vertex 3.33333 1.66667 -10
    endloop
  endfacet
  facet normal -0 0 1
    outer loop
      vertex 2.60685 -2.34143 -10
      vertex 4.82767 -3.8219 -10
      vertex 3.33333 -1.66667 -10
    endloop
  endfacet
  facet normal 0 0 1
    outer loop
      vertex 1.37012 -4.31158 -10
      vertex 4.82767 -3.8219 -10
      vertex 2.60685 -2.34143 -10
    endloop
  endfacet
  facet normal 0 0 1
    outer loop
      vertex 2.60685 -2.34143 -10
      vertex 3.33333 -1.66667 -10
      vertex 2.76483 -1.66667 -10
    endloop
  endfacet
  facet normal 0 0 1
    outer loop
      vertex 4.82767 -3.8219 -10
      vertex 1.37012 -4.31158 -10
      vertex 5 -8.66025 -10
    endloop
  endfacet
  facet normal 0 0 1
    outer loop
      vertex 5 -8.66025 -10
      vertex 1.37012 -4.31158 -10
      vertex 3.09017 -9.51056 -10
    endloop
  endfacet
  facet normal -0 0 1
    outer loop
      vertex -0.564034 -6.0933 -10
      vertex 3.09017 -9.51056 -10
      vertex 1.37012 -4.31158 -10
    endloop
  endfacet
  facet normal 0 0 1
    outer loop
      vertex 3.09017 -9.51056 -10
      vertex -0.564034 -6.0933 -10
      vertex 1.04528 -9.94522 -10
    endloop
  endfacet
  facet normal 0 0 1
    outer loop
      vertex -0.564034 -6.0933 -10
      vertex -1.04528 -9.94522 -10
      vertex 1.04528 -9.94522 -10
    endloop
  endfacet
  facet normal -0 0 1
    outer loop
      vertex -3.11109 -7.60871 -10
      vertex -1.04528 -9.94522 -10
      vertex -0.564034 -6.0933 -10
    endloop
  endfacet
  facet normal 0 0 1
    outer loop
      vertex -1.04528 -9.94522 -10
      vertex -3.11109 -7.60871 -10
      vertex -3.09017 -9.51056 -10
    endloop
  endfacet
  facet normal 0 0 1
    outer loop
      vertex -3.11109 -7.60871 -10
      vertex -4.06614 -9.07604 -10
      vertex -3.09017 -9.51056 -10
    endloop
  endfacet
  facet normal 0 0 1
    outer loop
      vertex -3.11109 -7.60871 -10
      vertex -5 -8.66025 -10
      vertex -4.06614 -9.07604 -10
    endloop
  endfacet
  facet normal 0 -0 1
    outer loop
      vertex -5 -8.66025 -10
      vertex -3.11109 -7.60871 -10
      vertex -5.28589 -8.45254 -10
    endloop
  endfacet
  facet normal 0 0 1
    outer loop
      vertex 3.21006 2.36489 -10
      vertex 3.33333 1.66667 -10
      vertex 4.12408 -0.465949 -10
    endloop
  endfacet
  facet normal -0 0 1
    outer loop
      vertex 2.80463 1.8153 -10
      vertex 3.33333 1.66667 -10
      vertex 3.21006 2.36489 -10
    endloop
  endfacet
  facet normal 0 0 1
    outer loop
      vertex 3.49615 3.24388 -10
      vertex 1.75705 3.82021 -10
      vertex 3.21006 2.36489 -10
    endloop
  endfacet
  facet normal 0 0 1
    outer loop
      vertex 3.33333 1.66667 -10
      vertex 2.80463 1.8153 -10
      vertex 2.82513 1.66667 -10
    endloop
  endfacet
  facet normal 0 0 1
    outer loop
      vertex 3.21006 2.36489 -10
      vertex 1.75705 3.82021 -10
      vertex 2.80463 1.8153 -10
    endloop
  endfacet
  facet normal 0 0 1
    outer loop
      vertex -0.00487794 5.65815 -10
      vertex 3.09017 9.51056 -10
      vertex 1.04528 9.94522 -10
    endloop
  endfacet
  facet normal 0 0 1
    outer loop
      vertex 4.02403 9.09478 -10
      vertex -0.00487794 5.65815 -10
      vertex 1.75705 3.82021 -10
    endloop
  endfacet
  facet normal -0 0 1
    outer loop
      vertex -1.04528 9.94522 -10
      vertex -0.00487794 5.65815 -10
      vertex 1.04528 9.94522 -10
    endloop
  endfacet
  facet normal 0 0 1
    outer loop
      vertex -1.04528 9.94522 -10
      vertex -2.40414 7.24881 -10
      vertex -0.00487794 5.65815 -10
    endloop
  endfacet
  facet normal -0 0 1
    outer loop
      vertex -3.09017 9.51056 -10
      vertex -2.40414 7.24881 -10
      vertex -1.04528 9.94522 -10
    endloop
  endfacet
  facet normal -0 0 1
    outer loop
      vertex -4.06614 9.07604 -10
      vertex -2.40414 7.24881 -10
      vertex -3.09017 9.51056 -10
    endloop
  endfacet
  facet normal -0 0 1
    outer loop
      vertex -5 8.66025 -10
      vertex -2.40414 7.24881 -10
      vertex -4.06614 9.07604 -10
    endloop
  endfacet
  facet normal 0 0 1
    outer loop
      vertex -2.40414 7.24881 -10
      vertex -5 8.66025 -10
      vertex -5.24421 8.48282 -10
    endloop
  endfacet
  facet normal -1.67386e-16 2.20743e-17 1
    outer loop
      vertex 0.542468 1.66667 5.40113e-17
      vertex -3.16918 1.06273 -5.53935e-16
      vertex 0.257916 0.792416 2.56796e-17
    endloop
  endfacet
  facet normal -1.67386e-16 2.20742e-17 1
    outer loop
      vertex -3.33333 1.66667 -5.94745e-16
      vertex -3.16918 1.06273 -5.53935e-16
      vertex 0.542468 1.66667 5.40113e-17
    endloop
  endfacet
  facet normal -1.67386e-16 2.20742e-17 1
    outer loop
      vertex -3.16918 1.06273 -5.53935e-16
      vertex -3.33333 1.66667 -5.94745e-16
      vertex -3.33333 1.28726 -5.8637e-16
    endloop
  endfacet
  facet normal -1.67386e-16 2.20742e-17 1
    outer loop
      vertex 0.257916 0.792416 2.56796e-17
      vertex 3.33333 -1.66667 5.94745e-16
      vertex 3.33333 -0.208576 5.62558e-16
    endloop
  endfacet
  facet normal -1.67386e-16 2.20743e-17 1
    outer loop
      vertex -3.33333 -1.66667 -5.21164e-16
      vertex 0.257916 0.792416 2.56796e-17
      vertex -3.16918 1.06273 -5.53935e-16
    endloop
  endfacet
  facet normal -1.67386e-16 2.20743e-17 1
    outer loop
      vertex -3.33333 -1.66667 -5.21164e-16
      vertex -3.16918 1.06273 -5.53935e-16
      vertex -3.33333 1.02436 -5.80566e-16
    endloop
  endfacet
  facet normal -1.67386e-16 2.20743e-17 1
    outer loop
      vertex 0.257916 0.792416 2.56796e-17
      vertex -3.33333 -1.66667 -5.21164e-16
      vertex 3.33333 -1.66667 5.94745e-16
    endloop
  endfacet
  facet normal 1 0 0
    outer loop
      vertex 3.33333 -1.66667 5.94745e-16
      vertex 3.33333 -0.208576 -4.92566
      vertex 3.33333 -0.208576 5.62558e-16
    endloop
  endfacet
  facet normal 1 0 0
    outer loop
      vertex 3.33333 -0.208576 -4.92566
      vertex 3.33333 -1.66667 5.94745e-16
      vertex 3.33333 -1.01123 -5.32794
    endloop
  endfacet
  facet normal 1 0 0
    outer loop
      vertex 3.33333 -1.66667 -8.60924
      vertex 3.33333 -0.208576 -7.68209
      vertex 3.33333 -1.01123 -5.32794
    endloop
  endfacet
  facet normal 1 0 0
    outer loop
      vertex 3.33333 -0.208576 -7.68209
      vertex 3.33333 -1.66667 -8.60924
      vertex 3.33333 -0.208576 -9.16485
    endloop
  endfacet
  facet normal 1 0 0
    outer loop
      vertex 3.33333 -1.66667 -8.60924
      vertex 3.33333 -1.01123 -5.32794
      vertex 3.33333 -1.66667 5.94745e-16
    endloop
  endfacet
  facet normal 1 0 0
    outer loop
      vertex 3.33333 1.66667 -9.87942
      vertex 3.33333 1.18769 -9.69691
      vertex 3.33333 1.66667 -10
    endloop
  endfacet
  facet normal 1 -0 -0
    outer loop
      vertex 3.33333 1.18769 -9.69691
      vertex 3.33333 1.66667 -9.87942
      vertex 3.33333 -0.208576 -9.16485
    endloop
  endfacet
  facet normal 1 -0 0
    outer loop
      vertex 3.33333 -0.268937 -9.83462
      vertex 3.33333 1.66667 -10
      vertex 3.33333 1.18769 -9.69691
    endloop
  endfacet
  facet normal 1 0 0
    outer loop
      vertex 3.33333 -0.268937 -9.83462
      vertex 3.33333 -1.66667 -10
      vertex 3.33333 1.66667 -10
    endloop
  endfacet
  facet normal 1 0 0
    outer loop
      vertex 3.33333 -1.66667 -10
      vertex 3.33333 -0.268937 -9.83462
      vertex 3.33333 -1.66667 -9.61028
    endloop
  endfacet
  facet normal -1 0 0
    outer loop
      vertex 3.33333 1.18769 -9.69691
      vertex 3.33333 -0.208576 -9.16485
      vertex 3.33333 -1.66667 -8.60924
    endloop
  endfacet
  facet normal 0 1 0
    outer loop
      vertex 0.542468 1.66667 5.40113e-17
      vertex -3.33333 1.66667 -2.01156
      vertex -3.33333 1.66667 -5.94745e-16
    endloop
  endfacet
  facet normal 0 1 0
    outer loop
      vertex 0.542468 1.66667 5.40113e-17
      vertex -2.27523 1.66667 -3.26031
      vertex -3.33333 1.66667 -2.01156
    endloop
  endfacet
  facet normal 0 1 -0
    outer loop
      vertex -1.78695 1.66667 -3.83657
      vertex -2.27523 1.66667 -3.26031
      vertex 0.542468 1.66667 5.40113e-17
    endloop
  endfacet
  facet normal 0 1 0
    outer loop
      vertex 0.174401 1.66667 -6.15132
      vertex -2.27523 1.66667 -3.26031
      vertex -1.78695 1.66667 -3.83657
    endloop
  endfacet
  facet normal 0 1 0
    outer loop
      vertex 1.93234 1.66667 -8.226
      vertex -2.27523 1.66667 -3.26031
      vertex 0.174401 1.66667 -6.15132
    endloop
  endfacet
  facet normal 0 1 0
    outer loop
      vertex 1.93234 1.66667 -8.226
      vertex 3.21123 1.66667 -9.73532
      vertex -2.27523 1.66667 -3.26031
    endloop
  endfacet
  facet normal 0 1 0
    outer loop
      vertex 3.33333 1.66667 -9.87942
      vertex 3.21123 1.66667 -9.73532
      vertex 1.93234 1.66667 -8.226
    endloop
  endfacet
  facet normal 0 1 -0
    outer loop
      vertex 3.33333 1.66667 -10
      vertex 3.21123 1.66667 -9.73532
      vertex 3.33333 1.66667 -9.87942
    endloop
  endfacet
  facet normal 0 1 0
    outer loop
      vertex 3.21123 1.66667 -9.73532
      vertex 3.33333 1.66667 -10
      vertex 2.82513 1.66667 -10
    endloop
  endfacet
  facet normal -1 0 0
    outer loop
      vertex -3.33333 1.06273 -0.112532
      vertex -3.33333 1.66667 -5.94745e-16
      vertex -3.33333 1.66667 -2.01156
    endloop
  endfacet
  facet normal -1 -0 0
    outer loop
      vertex -3.33333 1.66667 -5.94745e-16
      vertex -3.33333 1.06273 -0.112532
      vertex -3.33333 1.28726 -5.8637e-16
    endloop
  endfacet
  facet normal -1 0 0
    outer loop
      vertex -3.33333 -1.66667 -0.741372
      vertex -3.33333 1.06273 -0.112532
      vertex -3.33333 1.66667 -2.01156
    endloop
  endfacet
  facet normal -1 -0 0
    outer loop
      vertex -3.33333 1.06273 -0.112532
      vertex -3.33333 -1.66667 -0.741372
      vertex -3.33333 1.02436 -5.80566e-16
    endloop
  endfacet
  facet normal -1 -0 0
    outer loop
      vertex -3.33333 1.02436 -5.80566e-16
      vertex -3.33333 -1.66667 -0.741372
      vertex -3.33333 -1.66667 -5.21164e-16
    endloop
  endfacet
  facet normal 0 -1 0
    outer loop
      vertex -2.53781 -1.66667 -1.68023
      vertex -3.33333 -1.66667 -5.21164e-16
      vertex -3.33333 -1.66667 -0.741372
    endloop
  endfacet
  facet normal 0 -1 0
    outer loop
      vertex -3.33333 -1.66667 -5.21164e-16
      vertex -2.53781 -1.66667 -1.68023
      vertex 3.33333 -1.66667 5.94745e-16
    endloop
  endfacet
  facet normal 0 -1 -0
    outer loop
      vertex 3.33333 -1.66667 5.94745e-16
      vertex -2.53781 -1.66667 -1.68023
      vertex 3.33333 -1.66667 -8.60924
    endloop
  endfacet
  facet normal 0 -1 -0
    outer loop
      vertex 3.33333 -1.66667 -9.61028
      vertex 2.76483 -1.66667 -10
      vertex 3.33333 -1.66667 -10
    endloop
  endfacet
  facet normal -0.740798 -0.239189 -0.627699
    outer loop
      vertex -2.53781 -1.66667 -1.68023
      vertex -3.33333 1.66667 -2.01156
      vertex -2.27523 1.66667 -3.26031
    endloop
  endfacet
  facet normal -0.740798 -0.239189 -0.627699
    outer loop
      vertex -3.33333 1.66667 -2.01156
      vertex -2.53781 -1.66667 -1.68023
      vertex -3.33333 -1.66667 -0.741372
    endloop
  endfacet
  facet normal -0.740798 -0.239189 -0.627699
    outer loop
      vertex 3.33333 1.18769 -9.69691
      vertex -2.27523 1.66667 -3.26031
      vertex 3.21123 1.66667 -9.73532
    endloop
  endfacet
  facet normal -0.740798 -0.239189 -0.627699
    outer loop
      vertex 3.33333 -1.66667 -8.60924
      vertex -2.27523 1.66667 -3.26031
      vertex 3.33333 1.18769 -9.69691
    endloop
  endfacet
  facet normal -0.740798 -0.239189 -0.6277
    outer loop
      vertex -2.27523 1.66667 -3.26031
      vertex 3.33333 -1.66667 -8.60924
      vertex -2.53781 -1.66667 -1.68023
    endloop
  endfacet
endsolid OpenSCAD_Model
