solid OpenSCAD_Model
  facet normal -0.994522 0.104529 0
    outer loop
      vertex -9.78148 2.07912 -18.0206
      vertex -9.78148 2.07912 -65.584
      vertex -9.92068 0.754626 -17.4336
    endloop
  endfacet
  facet normal -0.994522 0.104529 0
    outer loop
      vertex -9.9509 0.467182 -6.98389
      vertex -9.78148 2.07912 -2.8892
      vertex -9.78148 2.07912 -6.70628
    endloop
  endfacet
  facet normal -0.994522 0.104529 6.68882e-08
    outer loop
      vertex -9.78148 2.07912 -2.8892
      vertex -9.9509 0.467182 -6.98389
      vertex -9.96497 0.333263 -2.11539
    endloop
  endfacet
  facet normal -0.994522 0.104528 -3.92988e-09
    outer loop
      vertex -10 -9.52152e-15 -65.584
      vertex -9.92068 0.754626 -17.4336
      vertex -9.78148 2.07912 -65.584
    endloop
  endfacet
  facet normal -0.994522 0.104529 -1.95618e-08
    outer loop
      vertex -9.92068 0.754626 -17.4336
      vertex -10 -9.52152e-15 -65.584
      vertex -10 -3.14224e-15 -17.0991
    endloop
  endfacet
  facet normal -0.994522 0.104528 5.00335e-08
    outer loop
      vertex -10 -1.82194e-15 -7.06436
      vertex -9.96497 0.333263 -2.11539
      vertex -9.9509 0.467182 -6.98389
    endloop
  endfacet
  facet normal -0.994522 0.104529 -1.32043e-17
    outer loop
      vertex -9.96497 0.333263 -2.11539
      vertex -10 -1.82194e-15 -7.06436
      vertex -10 -1.15135e-15 -1.96768
    endloop
  endfacet
  facet normal 0.951057 0.309017 -0
    outer loop
      vertex 9.78148 2.07912 -65.584
      vertex 9.13545 4.06737 -6.8939
      vertex 9.78148 2.07912 -6.4625
    endloop
  endfacet
  facet normal 0.951057 0.309017 0
    outer loop
      vertex 9.13545 4.06737 -6.8939
      vertex 9.78148 2.07912 -65.584
      vertex 9.13545 4.06737 -65.584
    endloop
  endfacet
  facet normal 0 1 0
    outer loop
      vertex 1.04528 9.94522 -4.61636
      vertex -1.04528 9.94522 -3.99332
      vertex -0.837782 9.94522 -3.53385
    endloop
  endfacet
  facet normal 0 1 0
    outer loop
      vertex -1.04528 9.94522 -65.584
      vertex 1.04528 9.94522 -4.61636
      vertex 1.04528 9.94522 -65.584
    endloop
  endfacet
  facet normal 0 1 0
    outer loop
      vertex 1.04528 9.94522 -4.61636
      vertex -1.04528 9.94522 -65.584
      vertex -1.04528 9.94522 -3.99332
    endloop
  endfacet
  facet normal -0.951057 0.309017 0
    outer loop
      vertex -9.78148 2.07912 -18.0206
      vertex -9.13545 4.06737 -65.584
      vertex -9.78148 2.07912 -65.584
    endloop
  endfacet
  facet normal -0.951057 0.309017 0
    outer loop
      vertex -9.13545 4.06737 -65.584
      vertex -9.78148 2.07912 -18.0206
      vertex -9.13545 4.06737 -17.9341
    endloop
  endfacet
  facet normal -0.951057 0.309017 0
    outer loop
      vertex -9.78148 2.07912 -2.8892
      vertex -9.25694 3.69348 -6.56544
      vertex -9.78148 2.07912 -6.70628
    endloop
  endfacet
  facet normal -0.951057 0.309017 1.61948e-08
    outer loop
      vertex -9.25694 3.69348 -6.56544
      vertex -9.78148 2.07912 -2.8892
      vertex -9.34512 3.42209 -2.83077
    endloop
  endfacet
  facet normal -0.587785 0.809017 -5.2191e-09
    outer loop
      vertex -5 8.66025 -65.584
      vertex -5.50927 8.29025 -12.7592
      vertex -5 8.66025 -11.8816
    endloop
  endfacet
  facet normal -0.587785 0.809017 -8.97071e-09
    outer loop
      vertex -5.50927 8.29025 -12.7592
      vertex -5 8.66025 -65.584
      vertex -6.69131 7.43145 -65.584
    endloop
  endfacet
  facet normal 0.406737 0.913545 6.55084e-09
    outer loop
      vertex 5 8.66025 -6.37098
      vertex 5 8.66025 -65.584
      vertex 3.48874 9.33311 -5.77387
    endloop
  endfacet
  facet normal 0.951057 -0.309017 0
    outer loop
      vertex 9.13545 -4.06737 -65.584
      vertex 9.78148 -2.07912 -4.78358
      vertex 9.13545 -4.06737 -3.60944
    endloop
  endfacet
  facet normal 0.951057 -0.309017 0
    outer loop
      vertex 9.78148 -2.07912 -4.78358
      vertex 9.13545 -4.06737 -65.584
      vertex 9.78148 -2.07912 -65.584
    endloop
  endfacet
  facet normal 0.587785 -0.809017 0
    outer loop
      vertex 5 -8.66025 -65.584
      vertex 6.69131 -7.43145 -0.846104
      vertex 5 -8.66025 0.622311
    endloop
  endfacet
  facet normal 0.587785 -0.809017 0
    outer loop
      vertex 6.69131 -7.43145 -0.846104
      vertex 5 -8.66025 -65.584
      vertex 6.69131 -7.43145 -65.584
    endloop
  endfacet
  facet normal 0.866026 -0.5 0
    outer loop
      vertex 8.09017 -5.87785 -65.584
      vertex 9.13545 -4.06737 -3.60944
      vertex 8.09017 -5.87785 -2.27754
    endloop
  endfacet
  facet normal 0.866026 -0.5 0
    outer loop
      vertex 9.13545 -4.06737 -3.60944
      vertex 8.09017 -5.87785 -65.584
      vertex 9.13545 -4.06737 -65.584
    endloop
  endfacet
  facet normal -0.406737 -0.913545 -5.93018e-09
    outer loop
      vertex -3.09017 -9.51056 -65.584
      vertex -5 -8.66025 -0.173674
      vertex -5 -8.66025 -65.584
    endloop
  endfacet
  facet normal -0.406737 -0.913545 -2.1589e-08
    outer loop
      vertex -5 -8.66025 -0.173674
      vertex -3.09017 -9.51056 -65.584
      vertex -4.7583 -8.76787 0.434271
    endloop
  endfacet
  facet normal -0.951057 -0.309017 0
    outer loop
      vertex -9.13545 -4.06737 -65.584
      vertex -9.78148 -2.07912 -15.2098
      vertex -9.78148 -2.07912 -65.584
    endloop
  endfacet
  facet normal -0.951057 -0.309017 0
    outer loop
      vertex -9.78148 -2.07912 -15.2098
      vertex -9.13545 -4.06737 -65.584
      vertex -9.13545 -4.06737 -12.4354
    endloop
  endfacet
  facet normal -0.951057 -0.309017 -0
    outer loop
      vertex -9.13545 -4.06737 -0.977297
      vertex -9.78148 -2.07912 -7.59141
      vertex -9.13545 -4.06737 -8.2644
    endloop
  endfacet
  facet normal -0.951057 -0.309017 0
    outer loop
      vertex -9.78148 -2.07912 -7.59141
      vertex -9.13545 -4.06737 -0.977297
      vertex -9.78148 -2.07912 -0.304302
    endloop
  endfacet
  facet normal -0.207911 -0.978148 -1.57562e-08
    outer loop
      vertex -3.09017 -9.51056 4.63003
      vertex -1.04528 -9.94522 4.61636
      vertex -2.74371 -9.58421 5.44697
    endloop
  endfacet
  facet normal -0.207911 -0.978148 0
    outer loop
      vertex -3.09017 -9.51056 -65.584
      vertex -1.04528 -9.94522 4.61636
      vertex -3.09017 -9.51056 4.63003
    endloop
  endfacet
  facet normal -0.207911 -0.978148 -0
    outer loop
      vertex -1.04528 -9.94522 4.61636
      vertex -3.09017 -9.51056 -65.584
      vertex -1.04528 -9.94522 -65.584
    endloop
  endfacet
  facet normal 0 -1 0
    outer loop
      vertex -1.04528 -9.94522 -65.584
      vertex 1.04528 -9.94522 3.41456
      vertex -1.04528 -9.94522 4.61636
    endloop
  endfacet
  facet normal 0 -1 -0
    outer loop
      vertex 1.04528 -9.94522 3.41456
      vertex -1.04528 -9.94522 -65.584
      vertex 1.04528 -9.94522 -65.584
    endloop
  endfacet
  facet normal -0.743145 0.669131 0
    outer loop
      vertex -8.09017 5.87785 -16.8434
      vertex -6.69131 7.43145 -65.584
      vertex -8.09017 5.87785 -65.584
    endloop
  endfacet
  facet normal -0.743145 0.669131 0
    outer loop
      vertex -6.69131 7.43145 -65.584
      vertex -8.09017 5.87785 -16.8434
      vertex -6.69131 7.43145 -14.7961
    endloop
  endfacet
  facet normal 0.994522 0.104529 -1.37531e-17
    outer loop
      vertex 10 -7.73659e-15 -65.584
      vertex 9.78148 2.07912 -6.4625
      vertex 10 1.36095e-16 -5.74867
    endloop
  endfacet
  facet normal 0.994522 0.104529 0
    outer loop
      vertex 9.78148 2.07912 -6.4625
      vertex 10 -7.73659e-15 -65.584
      vertex 9.78148 2.07912 -65.584
    endloop
  endfacet
  facet normal 0.866026 0.5 -0
    outer loop
      vertex 9.13545 4.06737 -65.584
      vertex 8.09017 5.87785 -7.024
      vertex 9.13545 4.06737 -6.8939
    endloop
  endfacet
  facet normal 0.866026 0.5 0
    outer loop
      vertex 8.09017 5.87785 -7.024
      vertex 9.13545 4.06737 -65.584
      vertex 8.09017 5.87785 -65.584
    endloop
  endfacet
  facet normal 0.587785 0.809017 9.46677e-09
    outer loop
      vertex 6.31669 7.70363 -6.74165
      vertex 5 8.66025 -65.584
      vertex 5 8.66025 -6.37098
    endloop
  endfacet
  facet normal 0.207911 -0.978148 0
    outer loop
      vertex 1.04528 -9.94522 -65.584
      vertex 3.09017 -9.51056 2.06353
      vertex 1.04528 -9.94522 3.41456
    endloop
  endfacet
  facet normal 0.207911 -0.978148 0
    outer loop
      vertex 3.09017 -9.51056 2.06353
      vertex 1.04528 -9.94522 -65.584
      vertex 3.09017 -9.51056 -65.584
    endloop
  endfacet
  facet normal 0.743145 -0.669131 0
    outer loop
      vertex 6.69131 -7.43145 -65.584
      vertex 8.09017 -5.87785 -2.27754
      vertex 6.69131 -7.43145 -0.846104
    endloop
  endfacet
  facet normal 0.743145 -0.669131 0
    outer loop
      vertex 8.09017 -5.87785 -2.27754
      vertex 6.69131 -7.43145 -65.584
      vertex 8.09017 -5.87785 -65.584
    endloop
  endfacet
  facet normal 0.994522 -0.104529 0
    outer loop
      vertex 9.78148 -2.07912 -65.584
      vertex 10 1.36095e-16 -5.74867
      vertex 9.78148 -2.07912 -4.78358
    endloop
  endfacet
  facet normal 0.994522 -0.104529 1.37531e-17
    outer loop
      vertex 10 1.36095e-16 -5.74867
      vertex 9.78148 -2.07912 -65.584
      vertex 10 -7.73659e-15 -65.584
    endloop
  endfacet
  facet normal -0.406737 0.913545 0
    outer loop
      vertex -3.09017 9.51056 -8.22749
      vertex -3.09017 9.51056 -65.584
      vertex -4.4726 8.89507 -10.8725
    endloop
  endfacet
  facet normal -0.207911 0.978148 0
    outer loop
      vertex -1.04528 9.94522 -65.584
      vertex -3.09017 9.51056 -8.22749
      vertex -1.04528 9.94522 -3.99332
    endloop
  endfacet
  facet normal -0.207911 0.978148 0
    outer loop
      vertex -3.09017 9.51056 -8.22749
      vertex -1.04528 9.94522 -65.584
      vertex -3.09017 9.51056 -65.584
    endloop
  endfacet
  facet normal -0.866026 0.5 0
    outer loop
      vertex -9.13545 4.06737 -17.9341
      vertex -8.09017 5.87785 -65.584
      vertex -9.13545 4.06737 -65.584
    endloop
  endfacet
  facet normal -0.866026 0.5 0
    outer loop
      vertex -8.09017 5.87785 -65.584
      vertex -9.13545 4.06737 -17.9341
      vertex -8.09017 5.87785 -16.8434
    endloop
  endfacet
  facet normal 0.406737 0.913545 -5.00021e-09
    outer loop
      vertex 3.09017 9.51056 -65.584
      vertex 3.48874 9.33311 -5.77387
      vertex 5 8.66025 -65.584
    endloop
  endfacet
  facet normal 0.406736 0.913546 0
    outer loop
      vertex 3.48874 9.33311 -5.77387
      vertex 3.09017 9.51056 -65.584
      vertex 3.09017 9.51056 -5.6164
    endloop
  endfacet
  facet normal 0.743145 0.669131 0
    outer loop
      vertex 8.09017 5.87785 -7.024
      vertex 6.69131 7.43145 -65.584
      vertex 6.69131 7.43145 -6.84711
    endloop
  endfacet
  facet normal 0.743145 0.669131 0
    outer loop
      vertex 6.69131 7.43145 -65.584
      vertex 8.09017 5.87785 -7.024
      vertex 8.09017 5.87785 -65.584
    endloop
  endfacet
  facet normal 0.406737 -0.913545 0
    outer loop
      vertex 3.09017 -9.51056 -65.584
      vertex 5 -8.66025 0.622311
      vertex 3.09017 -9.51056 2.06353
    endloop
  endfacet
  facet normal 0.406737 -0.913545 0
    outer loop
      vertex 5 -8.66025 0.622311
      vertex 3.09017 -9.51056 -65.584
      vertex 5 -8.66025 -65.584
    endloop
  endfacet
  facet normal 0 0 -1
    outer loop
      vertex 9.78148 -2.07912 -65.584
      vertex 9.78148 2.07912 -65.584
      vertex 10 -7.73659e-15 -65.584
    endloop
  endfacet
  facet normal 0 0 -1
    outer loop
      vertex 9.13545 -4.06737 -65.584
      vertex 9.78148 2.07912 -65.584
      vertex 9.78148 -2.07912 -65.584
    endloop
  endfacet
  facet normal 0 0 -1
    outer loop
      vertex 9.13545 -4.06737 -65.584
      vertex 9.13545 4.06737 -65.584
      vertex 9.78148 2.07912 -65.584
    endloop
  endfacet
  facet normal 0 0 -1
    outer loop
      vertex 8.09017 -5.87785 -65.584
      vertex 9.13545 4.06737 -65.584
      vertex 9.13545 -4.06737 -65.584
    endloop
  endfacet
  facet normal 0 0 -1
    outer loop
      vertex 8.09017 -5.87785 -65.584
      vertex 8.09017 5.87785 -65.584
      vertex 9.13545 4.06737 -65.584
    endloop
  endfacet
  facet normal 0 0 -1
    outer loop
      vertex 6.69131 -7.43145 -65.584
      vertex 8.09017 5.87785 -65.584
      vertex 8.09017 -5.87785 -65.584
    endloop
  endfacet
  facet normal 0 0 -1
    outer loop
      vertex 6.69131 -7.43145 -65.584
      vertex 6.69131 7.43145 -65.584
      vertex 8.09017 5.87785 -65.584
    endloop
  endfacet
  facet normal 0 0 -1
    outer loop
      vertex 5 -8.66025 -65.584
      vertex 6.69131 7.43145 -65.584
      vertex 6.69131 -7.43145 -65.584
    endloop
  endfacet
  facet normal 0 0 -1
    outer loop
      vertex 5 -8.66025 -65.584
      vertex 5 8.66025 -65.584
      vertex 6.69131 7.43145 -65.584
    endloop
  endfacet
  facet normal 0 0 -1
    outer loop
      vertex 3.09017 -9.51056 -65.584
      vertex 5 8.66025 -65.584
      vertex 5 -8.66025 -65.584
    endloop
  endfacet
  facet normal 0 0 -1
    outer loop
      vertex 3.09017 -9.51056 -65.584
      vertex 3.09017 9.51056 -65.584
      vertex 5 8.66025 -65.584
    endloop
  endfacet
  facet normal 0 0 -1
    outer loop
      vertex 1.04528 -9.94522 -65.584
      vertex 3.09017 9.51056 -65.584
      vertex 3.09017 -9.51056 -65.584
    endloop
  endfacet
  facet normal 0 0 -1
    outer loop
      vertex 1.04528 -9.94522 -65.584
      vertex 1.04528 9.94522 -65.584
      vertex 3.09017 9.51056 -65.584
    endloop
  endfacet
  facet normal 0 0 -1
    outer loop
      vertex -1.04528 -9.94522 -65.584
      vertex 1.04528 9.94522 -65.584
      vertex 1.04528 -9.94522 -65.584
    endloop
  endfacet
  facet normal 0 0 -1
    outer loop
      vertex -1.04528 -9.94522 -65.584
      vertex -1.04528 9.94522 -65.584
      vertex 1.04528 9.94522 -65.584
    endloop
  endfacet
  facet normal 0 0 -1
    outer loop
      vertex -3.09017 -9.51056 -65.584
      vertex -1.04528 9.94522 -65.584
      vertex -1.04528 -9.94522 -65.584
    endloop
  endfacet
  facet normal 0 0 -1
    outer loop
      vertex -3.09017 -9.51056 -65.584
      vertex -3.09017 9.51056 -65.584
      vertex -1.04528 9.94522 -65.584
    endloop
  endfacet
  facet normal 0 0 -1
    outer loop
      vertex -5 -8.66025 -65.584
      vertex -3.09017 9.51056 -65.584
      vertex -3.09017 -9.51056 -65.584
    endloop
  endfacet
  facet normal 0 0 -1
    outer loop
      vertex -5 -8.66025 -65.584
      vertex -5 8.66025 -65.584
      vertex -3.09017 9.51056 -65.584
    endloop
  endfacet
  facet normal 0 0 -1
    outer loop
      vertex -6.69131 -7.43145 -65.584
      vertex -5 8.66025 -65.584
      vertex -5 -8.66025 -65.584
    endloop
  endfacet
  facet normal 0 0 -1
    outer loop
      vertex -6.69131 -7.43145 -65.584
      vertex -6.69131 7.43145 -65.584
      vertex -5 8.66025 -65.584
    endloop
  endfacet
  facet normal 0 0 -1
    outer loop
      vertex -8.09017 -5.87785 -65.584
      vertex -6.69131 7.43145 -65.584
      vertex -6.69131 -7.43145 -65.584
    endloop
  endfacet
  facet normal 0 0 -1
    outer loop
      vertex -8.09017 -5.87785 -65.584
      vertex -8.09017 5.87785 -65.584
      vertex -6.69131 7.43145 -65.584
    endloop
  endfacet
  facet normal 0 0 -1
    outer loop
      vertex -9.13545 -4.06737 -65.584
      vertex -8.09017 5.87785 -65.584
      vertex -8.09017 -5.87785 -65.584
    endloop
  endfacet
  facet normal 0 0 -1
    outer loop
      vertex -9.13545 -4.06737 -65.584
      vertex -9.13545 4.06737 -65.584
      vertex -8.09017 5.87785 -65.584
    endloop
  endfacet
  facet normal 0 0 -1
    outer loop
      vertex -9.78148 -2.07912 -65.584
      vertex -9.13545 4.06737 -65.584
      vertex -9.13545 -4.06737 -65.584
    endloop
  endfacet
  facet normal 0 0 -1
    outer loop
      vertex -9.78148 -2.07912 -65.584
      vertex -9.78148 2.07912 -65.584
      vertex -9.13545 4.06737 -65.584
    endloop
  endfacet
  facet normal 0 -0 -1
    outer loop
      vertex -9.78148 2.07912 -65.584
      vertex -9.78148 -2.07912 -65.584
      vertex -10 -9.52152e-15 -65.584
    endloop
  endfacet
  facet normal -0.406737 -0.913545 0
    outer loop
      vertex -4.7583 -8.76787 0.434271
      vertex -3.09017 -9.51056 -65.584
      vertex -3.09017 -9.51056 4.63003
    endloop
  endfacet
  facet normal -0.587785 -0.809017 -3.91789e-09
    outer loop
      vertex -5 -8.66025 -65.584
      vertex -5.24232 -8.4842 -0.829251
      vertex -6.69131 -7.43145 -65.584
    endloop
  endfacet
  facet normal -0.587786 -0.809016 -8.56985e-09
    outer loop
      vertex -5.24232 -8.4842 -0.829251
      vertex -5 -8.66025 -65.584
      vertex -5 -8.66025 -0.173674
    endloop
  endfacet
  facet normal -0.587785 0.809017 0
    outer loop
      vertex -5.50927 8.29025 -12.7592
      vertex -6.69131 7.43145 -65.584
      vertex -6.69131 7.43145 -14.7961
    endloop
  endfacet
  facet normal -0.406737 0.913545 1.30121e-09
    outer loop
      vertex -3.09017 9.51056 -65.584
      vertex -5 8.66025 -11.8816
      vertex -4.4726 8.89507 -10.8725
    endloop
  endfacet
  facet normal -0.406737 0.913545 -3.61152e-09
    outer loop
      vertex -5 8.66025 -11.8816
      vertex -3.09017 9.51056 -65.584
      vertex -5 8.66025 -65.584
    endloop
  endfacet
  facet normal 0.207911 0.978148 0
    outer loop
      vertex 1.04528 9.94522 -65.584
      vertex 3.09017 9.51056 -5.6164
      vertex 3.09017 9.51056 -65.584
    endloop
  endfacet
  facet normal 0.207911 0.978148 0
    outer loop
      vertex 3.09017 9.51056 -5.6164
      vertex 1.04528 9.94522 -65.584
      vertex 1.04528 9.94522 -4.61636
    endloop
  endfacet
  facet normal 0.587785 0.809017 0
    outer loop
      vertex 5 8.66025 -65.584
      vertex 6.69131 7.43145 -6.84711
      vertex 6.69131 7.43145 -65.584
    endloop
  endfacet
  facet normal 0.587786 0.809017 -8.66991e-09
    outer loop
      vertex 6.69131 7.43145 -6.84711
      vertex 5 8.66025 -65.584
      vertex 6.31669 7.70363 -6.74165
    endloop
  endfacet
  facet normal -0.743145 -0.669131 -0
    outer loop
      vertex -6.69131 -7.43145 -2.63837
      vertex -8.09017 -5.87785 -65.584
      vertex -6.69131 -7.43145 -65.584
    endloop
  endfacet
  facet normal -0.743145 -0.669131 0
    outer loop
      vertex -8.09017 -5.87785 -65.584
      vertex -6.69131 -7.43145 -2.63837
      vertex -8.09017 -5.87785 -1.76682
    endloop
  endfacet
  facet normal -0.587785 -0.809017 -0
    outer loop
      vertex -6.69131 -7.43145 -2.63837
      vertex -6.69131 -7.43145 -65.584
      vertex -6.04111 -7.90384 -2.9903
    endloop
  endfacet
  facet normal -0.587785 -0.809017 -2.67012e-09
    outer loop
      vertex -5.24232 -8.4842 -0.829251
      vertex -6.04111 -7.90384 -2.9903
      vertex -6.69131 -7.43145 -65.584
    endloop
  endfacet
  facet normal -0.866026 -0.5 0
    outer loop
      vertex -8.09017 -5.87785 -65.584
      vertex -9.13545 -4.06737 -12.4354
      vertex -9.13545 -4.06737 -65.584
    endloop
  endfacet
  facet normal -0.866026 -0.5 2.18592e-09
    outer loop
      vertex -9.13545 -4.06737 -12.4354
      vertex -8.09017 -5.87785 -65.584
      vertex -8.12807 -5.81221 -9.0253
    endloop
  endfacet
  facet normal -0.866026 -0.5 -1.70044e-08
    outer loop
      vertex -8.09017 -5.87785 -1.76682
      vertex -9.13545 -4.06737 -8.2644
      vertex -8.12807 -5.81221 -9.0253
    endloop
  endfacet
  facet normal -0.866026 -0.5 0
    outer loop
      vertex -9.13545 -4.06737 -8.2644
      vertex -8.09017 -5.87785 -1.76682
      vertex -9.13545 -4.06737 -0.977297
    endloop
  endfacet
  facet normal -0.866026 -0.499998 -0
    outer loop
      vertex -8.09017 -5.87785 -1.76682
      vertex -8.12807 -5.81221 -9.0253
      vertex -8.09017 -5.87785 -65.584
    endloop
  endfacet
  facet normal -0.994522 -0.104528 -1.95618e-08
    outer loop
      vertex -9.78148 -2.07912 -65.584
      vertex -10 -3.14224e-15 -17.0991
      vertex -10 -9.52152e-15 -65.584
    endloop
  endfacet
  facet normal -0.994522 -0.104529 -9.20383e-09
    outer loop
      vertex -10 -3.14224e-15 -17.0991
      vertex -9.78148 -2.07912 -65.584
      vertex -9.92356 -0.727248 -16.4383
    endloop
  endfacet
  facet normal -0.994522 -0.104528 1.289e-17
    outer loop
      vertex -9.95032 -0.472692 -7.18418
      vertex -10 -1.15135e-15 -1.96768
      vertex -10 -1.82194e-15 -7.06436
    endloop
  endfacet
  facet normal -0.994522 -0.104528 -1.58432e-08
    outer loop
      vertex -10 -1.15135e-15 -1.96768
      vertex -9.95032 -0.472692 -7.18418
      vertex -9.96624 -0.321172 -1.67583
    endloop
  endfacet
  facet normal -0.994522 -0.104529 0
    outer loop
      vertex -9.92356 -0.727248 -16.4383
      vertex -9.78148 -2.07912 -65.584
      vertex -9.78148 -2.07912 -15.2098
    endloop
  endfacet
  facet normal -0.994522 -0.104529 2.40425e-08
    outer loop
      vertex -9.78148 -2.07912 -7.59141
      vertex -9.96624 -0.321172 -1.67583
      vertex -9.95032 -0.472692 -7.18418
    endloop
  endfacet
  facet normal -0.994522 -0.104529 0
    outer loop
      vertex -9.96624 -0.321172 -1.67583
      vertex -9.78148 -2.07912 -7.59141
      vertex -9.78148 -2.07912 -0.304302
    endloop
  endfacet
  facet normal -0.994522 -0.104528 1.09737e-06
    outer loop
      vertex -9.96624 -0.321172 -1.67583
      vertex -9.78148 -2.07912 -0.304302
      vertex -9.8019 -1.88474 -0.255028
    endloop
  endfacet
  facet normal -0.353712 0.194739 -0.914858
    outer loop
      vertex -9.13545 -4.06737 -8.2644
      vertex -5.29317 2.48346 -8.35553
      vertex -8.12807 -5.81221 -9.0253
    endloop
  endfacet
  facet normal -0.353712 0.194739 -0.914858
    outer loop
      vertex -9.78148 -2.07912 -7.59141
      vertex -5.29317 2.48346 -8.35553
      vertex -9.13545 -4.06737 -8.2644
    endloop
  endfacet
  facet normal -0.353712 0.194739 -0.914858
    outer loop
      vertex -5.29317 2.48346 -8.35553
      vertex -9.78148 -2.07912 -7.59141
      vertex -9.95032 -0.472692 -7.18418
    endloop
  endfacet
  facet normal -0.353712 0.194739 -0.914858
    outer loop
      vertex -9.9509 0.467182 -6.98389
      vertex -5.29317 2.48346 -8.35553
      vertex -9.95032 -0.472692 -7.18418
    endloop
  endfacet
  facet normal -0.353712 0.194739 -0.914858
    outer loop
      vertex -9.78148 2.07912 -6.70628
      vertex -5.29317 2.48346 -8.35553
      vertex -9.9509 0.467182 -6.98389
    endloop
  endfacet
  facet normal -0.353712 0.194739 -0.914858
    outer loop
      vertex -5.29317 2.48346 -8.35553
      vertex -9.78148 2.07912 -6.70628
      vertex -9.25694 3.69348 -6.56544
    endloop
  endfacet
  facet normal -0.353711 0.194739 -0.914858
    outer loop
      vertex -9.9509 0.467182 -6.98389
      vertex -9.95032 -0.472692 -7.18418
      vertex -10 -1.82194e-15 -7.06436
    endloop
  endfacet
  facet normal 0.322433 0.943522 0.076178
    outer loop
      vertex -2.93509 1.1852 -2.25648
      vertex -9.34512 3.42209 -2.83077
      vertex -8.20323 2.79341 0.122676
    endloop
  endfacet
  facet normal 0.322433 0.943522 0.076178
    outer loop
      vertex -5.29317 2.48346 -8.35553
      vertex -9.34512 3.42209 -2.83077
      vertex -2.93509 1.1852 -2.25648
    endloop
  endfacet
  facet normal 0.322433 0.943522 0.076178
    outer loop
      vertex -9.34512 3.42209 -2.83077
      vertex -5.29317 2.48346 -8.35553
      vertex -9.25694 3.69348 -6.56544
    endloop
  endfacet
  facet normal 0.353712 -0.194739 0.914858
    outer loop
      vertex -2.93509 1.1852 -2.25648
      vertex -6.69131 -7.43145 -2.63837
      vertex -6.04111 -7.90384 -2.9903
    endloop
  endfacet
  facet normal 0.353712 -0.194739 0.914858
    outer loop
      vertex -2.93509 1.1852 -2.25648
      vertex -8.09017 -5.87785 -1.76682
      vertex -6.69131 -7.43145 -2.63837
    endloop
  endfacet
  facet normal 0.353712 -0.194739 0.914858
    outer loop
      vertex -9.8019 -1.88474 -0.255028
      vertex -2.93509 1.1852 -2.25648
      vertex -8.20323 2.79341 0.122676
    endloop
  endfacet
  facet normal 0.353712 -0.194739 0.914858
    outer loop
      vertex -2.93509 1.1852 -2.25648
      vertex -9.13545 -4.06737 -0.977297
      vertex -8.09017 -5.87785 -1.76682
    endloop
  endfacet
  facet normal 0.353712 -0.194739 0.914858
    outer loop
      vertex -9.78148 -2.07912 -0.304302
      vertex -2.93509 1.1852 -2.25648
      vertex -9.8019 -1.88474 -0.255028
    endloop
  endfacet
  facet normal 0.353712 -0.194739 0.914858
    outer loop
      vertex -2.93509 1.1852 -2.25648
      vertex -9.78148 -2.07912 -0.304302
      vertex -9.13545 -4.06737 -0.977297
    endloop
  endfacet
  facet normal -0.878023 0.268035 0.396525
    outer loop
      vertex -9.78148 2.07912 -2.8892
      vertex -8.20323 2.79341 0.122676
      vertex -9.34512 3.42209 -2.83077
    endloop
  endfacet
  facet normal -0.878023 0.268035 0.396525
    outer loop
      vertex -9.96497 0.333263 -2.11539
      vertex -8.20323 2.79341 0.122676
      vertex -9.78148 2.07912 -2.8892
    endloop
  endfacet
  facet normal -0.878023 0.268035 0.396525
    outer loop
      vertex -9.96624 -0.321172 -1.67583
      vertex -9.96497 0.333263 -2.11539
      vertex -10 -1.15135e-15 -1.96768
    endloop
  endfacet
  facet normal -0.878023 0.268035 0.396525
    outer loop
      vertex -9.96497 0.333263 -2.11539
      vertex -9.96624 -0.321172 -1.67583
      vertex -8.20323 2.79341 0.122676
    endloop
  endfacet
  facet normal -0.878023 0.268035 0.396525
    outer loop
      vertex -8.20323 2.79341 0.122676
      vertex -9.96624 -0.321172 -1.67583
      vertex -9.8019 -1.88474 -0.255028
    endloop
  endfacet
  facet normal -0.878023 0.268035 0.396525
    outer loop
      vertex -9.13545 4.06737 -17.9341
      vertex -9.92068 0.754626 -17.4336
      vertex -8.09017 5.87785 -16.8434
    endloop
  endfacet
  facet normal -0.878023 0.268035 0.396525
    outer loop
      vertex -8.09017 5.87785 -16.8434
      vertex -9.92068 0.754626 -17.4336
      vertex -5.29317 2.48346 -8.35553
    endloop
  endfacet
  facet normal -0.878023 0.268036 0.396525
    outer loop
      vertex -9.92356 -0.727248 -16.4383
      vertex -9.92068 0.754626 -17.4336
      vertex -10 -3.14224e-15 -17.0991
    endloop
  endfacet
  facet normal -0.878023 0.268035 0.396525
    outer loop
      vertex -9.92068 0.754626 -17.4336
      vertex -9.92356 -0.727248 -16.4383
      vertex -5.29317 2.48346 -8.35553
    endloop
  endfacet
  facet normal -0.878023 0.268035 0.396525
    outer loop
      vertex -9.78148 -2.07912 -15.2098
      vertex -5.29317 2.48346 -8.35553
      vertex -9.92356 -0.727248 -16.4383
    endloop
  endfacet
  facet normal -0.878023 0.268035 0.396525
    outer loop
      vertex -9.13545 -4.06737 -12.4354
      vertex -5.29317 2.48346 -8.35553
      vertex -9.78148 -2.07912 -15.2098
    endloop
  endfacet
  facet normal -0.878023 0.268035 0.396525
    outer loop
      vertex -5.29317 2.48346 -8.35553
      vertex -9.13545 -4.06737 -12.4354
      vertex -8.12807 -5.81221 -9.0253
    endloop
  endfacet
  facet normal -0.878023 0.268035 0.396525
    outer loop
      vertex -5.29317 2.48346 -8.35553
      vertex -1.04528 9.94522 -3.99332
      vertex -3.09017 9.51056 -8.22749
    endloop
  endfacet
  facet normal -0.878023 0.268035 0.396525
    outer loop
      vertex -5.29317 2.48346 -8.35553
      vertex -3.09017 9.51056 -8.22749
      vertex -4.4726 8.89507 -10.8725
    endloop
  endfacet
  facet normal -0.878023 0.268035 0.396525
    outer loop
      vertex -5.29317 2.48346 -8.35553
      vertex -4.4726 8.89507 -10.8725
      vertex -5 8.66025 -11.8816
    endloop
  endfacet
  facet normal -0.878023 0.268035 0.396525
    outer loop
      vertex -5.29317 2.48346 -8.35553
      vertex -5 8.66025 -11.8816
      vertex -5.50927 8.29025 -12.7592
    endloop
  endfacet
  facet normal -0.878023 0.268035 0.396525
    outer loop
      vertex -5.29317 2.48346 -8.35553
      vertex -5.50927 8.29025 -12.7592
      vertex -6.69131 7.43145 -14.7961
    endloop
  endfacet
  facet normal -0.878023 0.268035 0.396525
    outer loop
      vertex -5.29317 2.48346 -8.35553
      vertex -6.69131 7.43145 -14.7961
      vertex -8.09017 5.87785 -16.8434
    endloop
  endfacet
  facet normal -0.878023 0.268035 0.396526
    outer loop
      vertex -9.92068 0.754626 -17.4336
      vertex -9.13545 4.06737 -17.9341
      vertex -9.78148 2.07912 -18.0206
    endloop
  endfacet
  facet normal -0.878023 0.268035 0.396525
    outer loop
      vertex -2.93509 1.1852 -2.25648
      vertex -1.04528 9.94522 -3.99332
      vertex -5.29317 2.48346 -8.35553
    endloop
  endfacet
  facet normal -0.878023 0.268035 0.396525
    outer loop
      vertex -1.04528 9.94522 -3.99332
      vertex -2.93509 1.1852 -2.25648
      vertex -0.837782 9.94522 -3.53385
    endloop
  endfacet
  facet normal -0.878023 0.268035 0.396525
    outer loop
      vertex -5.24232 -8.4842 -0.829251
      vertex -2.93509 1.1852 -2.25648
      vertex -6.04111 -7.90384 -2.9903
    endloop
  endfacet
  facet normal -0.878023 0.268035 0.396525
    outer loop
      vertex -5 -8.66025 -0.173674
      vertex -2.93509 1.1852 -2.25648
      vertex -5.24232 -8.4842 -0.829251
    endloop
  endfacet
  facet normal -0.878023 0.268035 0.396525
    outer loop
      vertex -2.93509 1.1852 -2.25648
      vertex -5 -8.66025 -0.173674
      vertex -4.7583 -8.76787 0.434271
    endloop
  endfacet
  facet normal -0.878023 0.268035 0.396525
    outer loop
      vertex -3.09017 -9.51056 4.63003
      vertex -2.93509 1.1852 -2.25648
      vertex -4.7583 -8.76787 0.434271
    endloop
  endfacet
  facet normal -0.878023 0.268035 0.396525
    outer loop
      vertex -2.74371 -9.58421 5.44697
      vertex -2.93509 1.1852 -2.25648
      vertex -3.09017 -9.51056 4.63003
    endloop
  endfacet
  facet normal -0.878023 0.268035 0.396525
    outer loop
      vertex -2.93509 1.1852 -2.25648
      vertex -2.74371 -9.58421 5.44697
      vertex -0.837782 9.94522 -3.53385
    endloop
  endfacet
  facet normal 0.470398 0.330384 0.818274
    outer loop
      vertex 9.78148 2.07912 -6.4625
      vertex 9.78148 -2.07912 -4.78358
      vertex 10 1.36095e-16 -5.74867
    endloop
  endfacet
  facet normal 0.470399 0.330384 0.818273
    outer loop
      vertex 9.13545 4.06737 -6.8939
      vertex 9.78148 -2.07912 -4.78358
      vertex 9.78148 2.07912 -6.4625
    endloop
  endfacet
  facet normal 0.470398 0.330384 0.818274
    outer loop
      vertex 9.13545 4.06737 -6.8939
      vertex 9.13545 -4.06737 -3.60944
      vertex 9.78148 -2.07912 -4.78358
    endloop
  endfacet
  facet normal 0.470398 0.330384 0.818274
    outer loop
      vertex 6.31669 7.70363 -6.74165
      vertex 9.13545 4.06737 -6.8939
      vertex 8.09017 5.87785 -7.024
    endloop
  endfacet
  facet normal 0.470398 0.330384 0.818274
    outer loop
      vertex 9.13545 4.06737 -6.8939
      vertex 6.31669 7.70363 -6.74165
      vertex 9.13545 -4.06737 -3.60944
    endloop
  endfacet
  facet normal 0.4704 0.330386 0.818272
    outer loop
      vertex 6.31669 7.70363 -6.74165
      vertex 8.09017 5.87785 -7.024
      vertex 6.69131 7.43145 -6.84711
    endloop
  endfacet
  facet normal 0.470398 0.330384 0.818274
    outer loop
      vertex 9.13545 -4.06737 -3.60944
      vertex 6.31669 7.70363 -6.74165
      vertex 8.09017 -5.87785 -2.27754
    endloop
  endfacet
  facet normal 0.470398 0.330384 0.818274
    outer loop
      vertex 8.09017 -5.87785 -2.27754
      vertex 6.31669 7.70363 -6.74165
      vertex 6.69131 -7.43145 -0.846104
    endloop
  endfacet
  facet normal 0.470398 0.330384 0.818274
    outer loop
      vertex 6.31669 7.70363 -6.74165
      vertex 5 -8.66025 0.622311
      vertex 6.69131 -7.43145 -0.846104
    endloop
  endfacet
  facet normal 0.470399 0.330386 0.818273
    outer loop
      vertex 3.48874 9.33311 -5.77387
      vertex 6.31669 7.70363 -6.74165
      vertex 5 8.66025 -6.37098
    endloop
  endfacet
  facet normal 0.470398 0.330384 0.818274
    outer loop
      vertex 6.31669 7.70363 -6.74165
      vertex 3.48874 9.33311 -5.77387
      vertex 5 -8.66025 0.622311
    endloop
  endfacet
  facet normal 0.470398 0.330385 0.818273
    outer loop
      vertex 1.04528 9.94522 -4.61636
      vertex 3.48874 9.33311 -5.77387
      vertex 3.09017 9.51056 -5.6164
    endloop
  endfacet
  facet normal 0.470398 0.330384 0.818274
    outer loop
      vertex 3.48874 9.33311 -5.77387
      vertex 3.09017 -9.51056 2.06353
      vertex 5 -8.66025 0.622311
    endloop
  endfacet
  facet normal 0.470398 0.330384 0.818274
    outer loop
      vertex 3.48874 9.33311 -5.77387
      vertex 1.04528 9.94522 -4.61636
      vertex -0.837782 9.94522 -3.53385
    endloop
  endfacet
  facet normal 0.470398 0.330384 0.818274
    outer loop
      vertex 3.48874 9.33311 -5.77387
      vertex -0.837782 9.94522 -3.53385
      vertex 3.09017 -9.51056 2.06353
    endloop
  endfacet
  facet normal 0.470398 0.330384 0.818274
    outer loop
      vertex 3.09017 -9.51056 2.06353
      vertex -0.837782 9.94522 -3.53385
      vertex 1.04528 -9.94522 3.41456
    endloop
  endfacet
  facet normal 0.470398 0.330384 0.818274
    outer loop
      vertex -2.74371 -9.58421 5.44697
      vertex 1.04528 -9.94522 3.41456
      vertex -0.837782 9.94522 -3.53385
    endloop
  endfacet
  facet normal 0.470398 0.330384 0.818274
    outer loop
      vertex 1.04528 -9.94522 3.41456
      vertex -2.74371 -9.58421 5.44697
      vertex -1.04528 -9.94522 4.61636
    endloop
  endfacet
endsolid OpenSCAD_Model
