solid OpenSCAD_Model
  facet normal -0.554549 0.19509 0.808959
    outer loop
      vertex -5.22114e-07 -0.624171 -5.91149
      vertex -4.38235 -1.25 -8.76471
      vertex -5.63133e-07 -1.25 -5.76057
    endloop
  endfacet
  facet normal -0.554549 0.195091 0.808959
    outer loop
      vertex -4.82179 -0.895916 -9.15134
      vertex -4.38235 -1.25 -8.76471
      vertex -5.22114e-07 -0.624171 -5.91149
    endloop
  endfacet
  facet normal -0.55455 0.19509 0.808959
    outer loop
      vertex -4.38235 -1.25 -8.76471
      vertex -4.80505 -0.980096 -9.11956
      vertex -4.75136 -1.25 -9.01766
    endloop
  endfacet
  facet normal -0.554548 0.195092 0.808959
    outer loop
      vertex -4.38235 -1.25 -8.76471
      vertex -4.82179 -0.895916 -9.15134
      vertex -4.80505 -0.980096 -9.11956
    endloop
  endfacet
  facet normal -0.554549 0.19509 0.808959
    outer loop
      vertex -4.81204e-07 5.47089e-15 -6.06202
      vertex -4.82179 -0.895916 -9.15134
      vertex -5.22114e-07 -0.624171 -5.91149
    endloop
  endfacet
  facet normal -0.554549 0.19509 0.808959
    outer loop
      vertex -5 5.56829e-15 -9.48956
      vertex -4.82179 -0.895916 -9.15134
      vertex -4.81204e-07 5.47089e-15 -6.06202
    endloop
  endfacet
  facet normal -0.882075 0 0.471108
    outer loop
      vertex -4.82179 -0.895916 -9.15134
      vertex -5 5.56829e-15 -9.48956
      vertex -5 -1.6948e-15 -9.48956
    endloop
  endfacet
  facet normal 0.562925 -0.0937124 -0.821178
    outer loop
      vertex -4.75136 -1.25 2.50347
      vertex -4.4308 -1.25 2.72321
      vertex -4.17008 -1.25 2.90194
    endloop
  endfacet
  facet normal -0.554549 -0.19509 0.808959
    outer loop
      vertex -4.82179 0.895916 -9.15134
      vertex -4.81204e-07 5.47089e-15 -6.06202
      vertex -4.48331e-07 0.624171 -5.91149
    endloop
  endfacet
  facet normal -0.554549 -0.19509 0.808959
    outer loop
      vertex -4.81204e-07 5.47089e-15 -6.06202
      vertex -4.82179 0.895916 -9.15134
      vertex -5 5.56829e-15 -9.48956
    endloop
  endfacet
  facet normal -0.554549 -0.19509 0.808959
    outer loop
      vertex -4.75136 1.25 -9.01766
      vertex -4.48331e-07 0.624171 -5.91149
      vertex -4.1537e-07 1.25 -5.76057
    endloop
  endfacet
  facet normal -0.554549 -0.195091 0.808959
    outer loop
      vertex -4.80505 0.980096 -9.11956
      vertex -4.48331e-07 0.624171 -5.91149
      vertex -4.75136 1.25 -9.01766
    endloop
  endfacet
  facet normal -0.554549 -0.195092 0.808959
    outer loop
      vertex -4.48331e-07 0.624171 -5.91149
      vertex -4.80505 0.980096 -9.11956
      vertex -4.82179 0.895916 -9.15134
    endloop
  endfacet
  facet normal -0.980785 0.195091 0
    outer loop
      vertex -4.6194 1.91342 -27.3267
      vertex -4.75136 1.25 -9.01766
      vertex -4.6194 1.91342 1.88298
    endloop
  endfacet
  facet normal -0.980785 0.19509 -7.71334e-09
    outer loop
      vertex -4.75136 1.25 -9.01766
      vertex -4.6194 1.91342 -27.3267
      vertex -4.80505 0.980096 -9.11956
    endloop
  endfacet
  facet normal -0.980785 0.195091 8.27316e-09
    outer loop
      vertex -4.6194 1.91342 1.88298
      vertex -4.75136 1.25 -9.01766
      vertex -4.75136 1.25 2.2267
    endloop
  endfacet
  facet normal 0.195091 -0.980785 7.05437e-17
    outer loop
      vertex 9.43494e-15 -5 -27.3267
      vertex 1.91342 -4.6194 0.765158
      vertex -1.17621e-15 -5 2.01879
    endloop
  endfacet
  facet normal 0.195091 -0.980785 0
    outer loop
      vertex 1.91342 -4.6194 0.765158
      vertex 9.43494e-15 -5 -27.3267
      vertex 1.91342 -4.6194 -27.3267
    endloop
  endfacet
  facet normal -0.55557 0.83147 0
    outer loop
      vertex -3.53553 3.53553 -27.3267
      vertex -1.91342 4.6194 -0.765158
      vertex -1.91342 4.6194 -27.3267
    endloop
  endfacet
  facet normal -0.55557 0.83147 0
    outer loop
      vertex -1.91342 4.6194 -0.765158
      vertex -3.53553 3.53553 -27.3267
      vertex -3.53553 3.53553 0.604962
    endloop
  endfacet
  facet normal -0.83147 0.55557 0
    outer loop
      vertex -4.6194 1.91342 -27.3267
      vertex -3.53553 3.53553 0.604962
      vertex -3.53553 3.53553 -27.3267
    endloop
  endfacet
  facet normal -0.83147 0.55557 0
    outer loop
      vertex -3.53553 3.53553 0.604962
      vertex -4.6194 1.91342 -27.3267
      vertex -4.6194 1.91342 1.88298
    endloop
  endfacet
  facet normal -0.195091 -0.980785 0
    outer loop
      vertex -1.91342 -4.6194 -27.3267
      vertex -1.17621e-15 -5 2.01879
      vertex -1.91342 -4.6194 2.96508
    endloop
  endfacet
  facet normal -0.195091 -0.980785 -7.05437e-17
    outer loop
      vertex -1.17621e-15 -5 2.01879
      vertex -1.91342 -4.6194 -27.3267
      vertex 9.43494e-15 -5 -27.3267
    endloop
  endfacet
  facet normal -0.83147 -0.55557 0
    outer loop
      vertex -3.53553 -3.53553 -27.3267
      vertex -4.6194 -1.91342 3.42809
      vertex -4.6194 -1.91342 -27.3267
    endloop
  endfacet
  facet normal -0.83147 -0.55557 0
    outer loop
      vertex -4.6194 -1.91342 3.42809
      vertex -3.53553 -3.53553 -27.3267
      vertex -3.53553 -3.53553 3.45996
    endloop
  endfacet
  facet normal -0.55557 -0.83147 0
    outer loop
      vertex -3.53553 -3.53553 -27.3267
      vertex -1.91342 -4.6194 2.96508
      vertex -3.53553 -3.53553 3.45996
    endloop
  endfacet
  facet normal -0.55557 -0.83147 -0
    outer loop
      vertex -1.91342 -4.6194 2.96508
      vertex -3.53553 -3.53553 -27.3267
      vertex -1.91342 -4.6194 -27.3267
    endloop
  endfacet
  facet normal -0.195091 0.980785 -7.19563e-17
    outer loop
      vertex -1.91342 4.6194 -27.3267
      vertex 1.17621e-15 5 -2.01879
      vertex 1.03274e-14 5 -27.3267
    endloop
  endfacet
  facet normal -0.195091 0.980785 0
    outer loop
      vertex 1.17621e-15 5 -2.01879
      vertex -1.91342 4.6194 -27.3267
      vertex -1.91342 4.6194 -0.765158
    endloop
  endfacet
  facet normal -0.980785 -0.195091 -0
    outer loop
      vertex -4.6194 -1.91342 3.42809
      vertex -4.75136 -1.25 -9.01766
      vertex -4.6194 -1.91342 -27.3267
    endloop
  endfacet
  facet normal -0.980785 -0.19509 -4.28523e-08
    outer loop
      vertex -4.6194 -1.91342 -27.3267
      vertex -4.75136 -1.25 -9.01766
      vertex -4.80505 -0.980096 -9.11956
    endloop
  endfacet
  facet normal -0.980785 -0.195091 0
    outer loop
      vertex -4.75136 -1.25 -9.01766
      vertex -4.6194 -1.91342 3.42809
      vertex -4.75136 -1.25 2.50347
    endloop
  endfacet
  facet normal -0.980785 -0.195091 6.34882e-08
    outer loop
      vertex -4.75136 -1.25 2.50347
      vertex -4.6194 -1.91342 3.42809
      vertex -4.75136 -1.25 3.23609
    endloop
  endfacet
  facet normal -9.53674e-08 1 4.76837e-08
    outer loop
      vertex -6.50172e-07 -1.25 -2.5
      vertex -4.38235 -1.25 -8.76471
      vertex -6.1224e-07 -1.25 -9.23817e-08
    endloop
  endfacet
  facet normal -7.94671e-08 1 3.65609e-08
    outer loop
      vertex -4.38235 -1.25 -8.76471
      vertex -6.50172e-07 -1.25 -2.5
      vertex -5.63133e-07 -1.25 -5.76057
    endloop
  endfacet
  facet normal 0 1 0
    outer loop
      vertex -6.04582e-07 -1.25 0.504697
      vertex -4.75136 -1.25 2.50347
      vertex -4.17008 -1.25 2.90194
    endloop
  endfacet
  facet normal 0 1 -0
    outer loop
      vertex -6.1224e-07 -1.25 -9.23817e-08
      vertex -4.75136 -1.25 2.50347
      vertex -6.04582e-07 -1.25 0.504697
    endloop
  endfacet
  facet normal 0 1 -0
    outer loop
      vertex -4.38235 -1.25 -8.76471
      vertex -4.75136 -1.25 2.50347
      vertex -6.1224e-07 -1.25 -9.23817e-08
    endloop
  endfacet
  facet normal 0 1 0
    outer loop
      vertex -4.75136 -1.25 2.50347
      vertex -4.38235 -1.25 -8.76471
      vertex -4.75136 -1.25 -9.01766
    endloop
  endfacet
  facet normal -2.60773e-08 -1 -4.53624e-08
    outer loop
      vertex -4.75136 1.25 2.2267
      vertex -4.1537e-07 1.25 -5.76057
      vertex -5.55673e-07 1.25 -0.504697
    endloop
  endfacet
  facet normal -2.11088e-08 -1 -4.24068e-08
    outer loop
      vertex -4.1537e-07 1.25 -5.76057
      vertex -4.75136 1.25 2.2267
      vertex -4.75136 1.25 -9.01766
    endloop
  endfacet
  facet normal -1 5.91049e-08 -2.66945e-08
    outer loop
      vertex -6.50172e-07 -1.25 -2.5
      vertex -4.1537e-07 1.25 -5.76057
      vertex -4.48331e-07 0.624171 -5.91149
    endloop
  endfacet
  facet normal -1 5.91049e-08 -2.66945e-08
    outer loop
      vertex -4.1537e-07 1.25 -5.76057
      vertex -6.50172e-07 -1.25 -2.5
      vertex -5.55673e-07 1.25 -0.504697
    endloop
  endfacet
  facet normal -1 5.91049e-08 -2.66947e-08
    outer loop
      vertex -5.22114e-07 -0.624171 -5.91149
      vertex -4.48331e-07 0.624171 -5.91149
      vertex -4.81204e-07 5.47089e-15 -6.06202
    endloop
  endfacet
  facet normal -1 5.91049e-08 -2.66945e-08
    outer loop
      vertex -4.48331e-07 0.624171 -5.91149
      vertex -5.22114e-07 -0.624171 -5.91149
      vertex -6.50172e-07 -1.25 -2.5
    endloop
  endfacet
  facet normal -1 5.9105e-08 -2.66945e-08
    outer loop
      vertex -6.50172e-07 -1.25 -2.5
      vertex -5.22114e-07 -0.624171 -5.91149
      vertex -5.63133e-07 -1.25 -5.76057
    endloop
  endfacet
  facet normal -1 5.91049e-08 -2.66945e-08
    outer loop
      vertex -5.55673e-07 1.25 -0.504697
      vertex -6.50172e-07 -1.25 -2.5
      vertex -6.43027e-07 7.75382e-07 5.65885e-08
    endloop
  endfacet
  facet normal -1 -2.46299e-08 1.51729e-08
    outer loop
      vertex -6.1224e-07 -1.25 -9.23817e-08
      vertex -6.43027e-07 7.75382e-07 5.65885e-08
      vertex -6.50172e-07 -1.25 -2.5
    endloop
  endfacet
  facet normal -1 -2.46299e-08 1.51729e-08
    outer loop
      vertex -6.43027e-07 7.75382e-07 5.65885e-08
      vertex -6.1224e-07 -1.25 -9.23817e-08
      vertex -6.04582e-07 -1.25 0.504697
    endloop
  endfacet
  facet normal -0.980786 0.195088 -1.227e-07
    outer loop
      vertex -4.6194 1.91342 -27.3267
      vertex -4.82179 0.895916 -9.15134
      vertex -4.80505 0.980096 -9.11956
    endloop
  endfacet
  facet normal -0.980785 0.19509 -1.74947e-09
    outer loop
      vertex -4.6194 1.91342 -27.3267
      vertex -5 5.56829e-15 -9.48956
      vertex -4.82179 0.895916 -9.15134
    endloop
  endfacet
  facet normal -0.980785 0.19509 -2.62192e-08
    outer loop
      vertex -5 -4.04167e-15 -27.3267
      vertex -5 5.56829e-15 -9.48956
      vertex -4.6194 1.91342 -27.3267
    endloop
  endfacet
  facet normal -1 -0 -2.67329e-08
    outer loop
      vertex -5 5.56829e-15 -9.48956
      vertex -5 -4.04167e-15 -27.3267
      vertex -5 -1.6948e-15 -9.48956
    endloop
  endfacet
  facet normal 0.980785 0.195091 -2.56686e-17
    outer loop
      vertex 5 -3.14921e-15 -27.3267
      vertex 4.6194 1.91342 -3.42809
      vertex 5 6.80475e-17 -2.87433
    endloop
  endfacet
  facet normal 0.980785 0.195091 0
    outer loop
      vertex 4.6194 1.91342 -3.42809
      vertex 5 -3.14921e-15 -27.3267
      vertex 4.6194 1.91342 -27.3267
    endloop
  endfacet
  facet normal 0.195091 0.980785 0
    outer loop
      vertex 1.03274e-14 5 -27.3267
      vertex 1.91342 4.6194 -2.96508
      vertex 1.91342 4.6194 -27.3267
    endloop
  endfacet
  facet normal 0.195091 0.980785 7.19563e-17
    outer loop
      vertex 1.91342 4.6194 -2.96508
      vertex 1.03274e-14 5 -27.3267
      vertex 1.17621e-15 5 -2.01879
    endloop
  endfacet
  facet normal 0.55557 0.83147 0
    outer loop
      vertex 1.91342 4.6194 -27.3267
      vertex 3.53553 3.53553 -3.45996
      vertex 3.53553 3.53553 -27.3267
    endloop
  endfacet
  facet normal 0.55557 0.83147 0
    outer loop
      vertex 3.53553 3.53553 -3.45996
      vertex 1.91342 4.6194 -27.3267
      vertex 1.91342 4.6194 -2.96508
    endloop
  endfacet
  facet normal 0.980785 -0.195091 0
    outer loop
      vertex 4.6194 -1.91342 -27.3267
      vertex 5 6.80475e-17 -2.87433
      vertex 4.6194 -1.91342 -1.88298
    endloop
  endfacet
  facet normal 0.980785 -0.195091 2.56686e-17
    outer loop
      vertex 5 6.80475e-17 -2.87433
      vertex 4.6194 -1.91342 -27.3267
      vertex 5 -3.14921e-15 -27.3267
    endloop
  endfacet
  facet normal 0.83147 -0.55557 0
    outer loop
      vertex 3.53553 -3.53553 -27.3267
      vertex 4.6194 -1.91342 -1.88298
      vertex 3.53553 -3.53553 -0.604962
    endloop
  endfacet
  facet normal 0.83147 -0.55557 0
    outer loop
      vertex 4.6194 -1.91342 -1.88298
      vertex 3.53553 -3.53553 -27.3267
      vertex 4.6194 -1.91342 -27.3267
    endloop
  endfacet
  facet normal 0.83147 0.55557 -0
    outer loop
      vertex 4.6194 1.91342 -27.3267
      vertex 3.53553 3.53553 -3.45996
      vertex 4.6194 1.91342 -3.42809
    endloop
  endfacet
  facet normal 0.83147 0.55557 0
    outer loop
      vertex 3.53553 3.53553 -3.45996
      vertex 4.6194 1.91342 -27.3267
      vertex 3.53553 3.53553 -27.3267
    endloop
  endfacet
  facet normal 0 0 -1
    outer loop
      vertex 4.6194 -1.91342 -27.3267
      vertex 4.6194 1.91342 -27.3267
      vertex 5 -3.14921e-15 -27.3267
    endloop
  endfacet
  facet normal 0 0 -1
    outer loop
      vertex 3.53553 -3.53553 -27.3267
      vertex 4.6194 1.91342 -27.3267
      vertex 4.6194 -1.91342 -27.3267
    endloop
  endfacet
  facet normal 0 0 -1
    outer loop
      vertex 3.53553 -3.53553 -27.3267
      vertex 3.53553 3.53553 -27.3267
      vertex 4.6194 1.91342 -27.3267
    endloop
  endfacet
  facet normal 0 0 -1
    outer loop
      vertex 1.91342 -4.6194 -27.3267
      vertex 3.53553 3.53553 -27.3267
      vertex 3.53553 -3.53553 -27.3267
    endloop
  endfacet
  facet normal 0 0 -1
    outer loop
      vertex 1.91342 -4.6194 -27.3267
      vertex 1.91342 4.6194 -27.3267
      vertex 3.53553 3.53553 -27.3267
    endloop
  endfacet
  facet normal 0 0 -1
    outer loop
      vertex 1.91342 -4.6194 -27.3267
      vertex 1.03274e-14 5 -27.3267
      vertex 1.91342 4.6194 -27.3267
    endloop
  endfacet
  facet normal 0 0 -1
    outer loop
      vertex 9.43494e-15 -5 -27.3267
      vertex 1.03274e-14 5 -27.3267
      vertex 1.91342 -4.6194 -27.3267
    endloop
  endfacet
  facet normal 0 0 -1
    outer loop
      vertex -1.91342 -4.6194 -27.3267
      vertex 1.03274e-14 5 -27.3267
      vertex 9.43494e-15 -5 -27.3267
    endloop
  endfacet
  facet normal 0 0 -1
    outer loop
      vertex -1.91342 -4.6194 -27.3267
      vertex -1.91342 4.6194 -27.3267
      vertex 1.03274e-14 5 -27.3267
    endloop
  endfacet
  facet normal 0 0 -1
    outer loop
      vertex -3.53553 -3.53553 -27.3267
      vertex -1.91342 4.6194 -27.3267
      vertex -1.91342 -4.6194 -27.3267
    endloop
  endfacet
  facet normal 0 0 -1
    outer loop
      vertex -3.53553 -3.53553 -27.3267
      vertex -3.53553 3.53553 -27.3267
      vertex -1.91342 4.6194 -27.3267
    endloop
  endfacet
  facet normal 0 0 -1
    outer loop
      vertex -4.6194 -1.91342 -27.3267
      vertex -3.53553 3.53553 -27.3267
      vertex -3.53553 -3.53553 -27.3267
    endloop
  endfacet
  facet normal 0 0 -1
    outer loop
      vertex -4.6194 -1.91342 -27.3267
      vertex -4.6194 1.91342 -27.3267
      vertex -3.53553 3.53553 -27.3267
    endloop
  endfacet
  facet normal 0 -0 -1
    outer loop
      vertex -4.6194 1.91342 -27.3267
      vertex -4.6194 -1.91342 -27.3267
      vertex -5 -4.04167e-15 -27.3267
    endloop
  endfacet
  facet normal 0.55557 -0.83147 0
    outer loop
      vertex 1.91342 -4.6194 -27.3267
      vertex 3.53553 -3.53553 -0.604962
      vertex 1.91342 -4.6194 0.765158
    endloop
  endfacet
  facet normal 0.55557 -0.83147 0
    outer loop
      vertex 3.53553 -3.53553 -0.604962
      vertex 1.91342 -4.6194 -27.3267
      vertex 3.53553 -3.53553 -27.3267
    endloop
  endfacet
  facet normal -0.980785 -0.19509 -2.62192e-08
    outer loop
      vertex -4.6194 -1.91342 -27.3267
      vertex -5 -1.6948e-15 -9.48956
      vertex -5 -4.04167e-15 -27.3267
    endloop
  endfacet
  facet normal -0.980785 -0.19509 -1.74947e-09
    outer loop
      vertex -5 -1.6948e-15 -9.48956
      vertex -4.6194 -1.91342 -27.3267
      vertex -4.82179 -0.895916 -9.15134
    endloop
  endfacet
  facet normal -0.980786 -0.195088 -1.227e-07
    outer loop
      vertex -4.82179 -0.895916 -9.15134
      vertex -4.6194 -1.91342 -27.3267
      vertex -4.80505 -0.980096 -9.11956
    endloop
  endfacet
  facet normal 0 1 0
    outer loop
      vertex -4.75136 -1.25 2.50347
      vertex -4.52674 -1.25 3.10697
      vertex -4.4308 -1.25 2.72321
    endloop
  endfacet
  facet normal 0 1 0
    outer loop
      vertex -4.52674 -1.25 3.10697
      vertex -4.75136 -1.25 2.50347
      vertex -4.75136 -1.25 3.23609
    endloop
  endfacet
  facet normal 0 1 0
    outer loop
      vertex -4.52674 -1.25 3.10697
      vertex -4.17008 -1.25 2.90194
      vertex -4.4308 -1.25 2.72321
    endloop
  endfacet
  facet normal 0.470398 0.330384 0.818274
    outer loop
      vertex 4.6194 -1.91342 -1.88298
      vertex -6.43027e-07 7.75382e-07 5.65885e-08
      vertex -6.04582e-07 -1.25 0.504697
    endloop
  endfacet
  facet normal 0.470398 0.330384 0.818274
    outer loop
      vertex -6.43027e-07 7.75382e-07 5.65885e-08
      vertex 4.6194 1.91342 -3.42809
      vertex -5.55673e-07 1.25 -0.504697
    endloop
  endfacet
  facet normal 0.470398 0.330384 0.818274
    outer loop
      vertex -5.55673e-07 1.25 -0.504697
      vertex 4.6194 1.91342 -3.42809
      vertex 3.53553 3.53553 -3.45996
    endloop
  endfacet
  facet normal 0.470398 0.330384 0.818274
    outer loop
      vertex 4.6194 1.91342 -3.42809
      vertex -6.43027e-07 7.75382e-07 5.65885e-08
      vertex 5 6.80475e-17 -2.87433
    endloop
  endfacet
  facet normal 0.470398 0.330384 0.818274
    outer loop
      vertex -5.55673e-07 1.25 -0.504697
      vertex 3.53553 3.53553 -3.45996
      vertex 1.91342 4.6194 -2.96508
    endloop
  endfacet
  facet normal 0.470398 0.330384 0.818274
    outer loop
      vertex -6.43027e-07 7.75382e-07 5.65885e-08
      vertex 4.6194 -1.91342 -1.88298
      vertex 5 6.80475e-17 -2.87433
    endloop
  endfacet
  facet normal 0.470398 0.330384 0.818274
    outer loop
      vertex -5.55673e-07 1.25 -0.504697
      vertex 1.91342 4.6194 -2.96508
      vertex 1.17621e-15 5 -2.01879
    endloop
  endfacet
  facet normal 0.470398 0.330384 0.818274
    outer loop
      vertex 4.6194 -1.91342 -1.88298
      vertex -6.04582e-07 -1.25 0.504697
      vertex 3.53553 -3.53553 -0.604962
    endloop
  endfacet
  facet normal 0.470398 0.330384 0.818274
    outer loop
      vertex 3.53553 -3.53553 -0.604962
      vertex -6.04582e-07 -1.25 0.504697
      vertex 1.91342 -4.6194 0.765158
    endloop
  endfacet
  facet normal 0.470398 0.330384 0.818274
    outer loop
      vertex -1.91342 4.6194 -0.765158
      vertex -5.55673e-07 1.25 -0.504697
      vertex 1.17621e-15 5 -2.01879
    endloop
  endfacet
  facet normal 0.470398 0.330384 0.818274
    outer loop
      vertex -3.53553 3.53553 0.604962
      vertex -5.55673e-07 1.25 -0.504697
      vertex -1.91342 4.6194 -0.765158
    endloop
  endfacet
  facet normal 0.470398 0.330384 0.818274
    outer loop
      vertex -4.6194 1.91342 1.88298
      vertex -5.55673e-07 1.25 -0.504697
      vertex -3.53553 3.53553 0.604962
    endloop
  endfacet
  facet normal 0.470398 0.330384 0.818274
    outer loop
      vertex -5.55673e-07 1.25 -0.504697
      vertex -4.6194 1.91342 1.88298
      vertex -4.75136 1.25 2.2267
    endloop
  endfacet
  facet normal 0.470398 0.330384 0.818274
    outer loop
      vertex 1.91342 -4.6194 0.765158
      vertex -6.04582e-07 -1.25 0.504697
      vertex -1.17621e-15 -5 2.01879
    endloop
  endfacet
  facet normal 0.470398 0.330384 0.818274
    outer loop
      vertex -6.04582e-07 -1.25 0.504697
      vertex -1.91342 -4.6194 2.96508
      vertex -1.17621e-15 -5 2.01879
    endloop
  endfacet
  facet normal 0.470398 0.330384 0.818274
    outer loop
      vertex -6.04582e-07 -1.25 0.504697
      vertex -3.53553 -3.53553 3.45996
      vertex -1.91342 -4.6194 2.96508
    endloop
  endfacet
  facet normal 0.470398 0.330384 0.818274
    outer loop
      vertex -4.17008 -1.25 2.90194
      vertex -3.53553 -3.53553 3.45996
      vertex -6.04582e-07 -1.25 0.504697
    endloop
  endfacet
  facet normal 0.470399 0.330384 0.818273
    outer loop
      vertex -4.6194 -1.91342 3.42809
      vertex -4.17008 -1.25 2.90194
      vertex -4.52674 -1.25 3.10697
    endloop
  endfacet
  facet normal 0.470398 0.330384 0.818274
    outer loop
      vertex -4.17008 -1.25 2.90194
      vertex -4.6194 -1.91342 3.42809
      vertex -3.53553 -3.53553 3.45996
    endloop
  endfacet
  facet normal 0.470398 0.330384 0.818274
    outer loop
      vertex -4.6194 -1.91342 3.42809
      vertex -4.52674 -1.25 3.10697
      vertex -4.75136 -1.25 3.23609
    endloop
  endfacet
endsolid OpenSCAD_Model
