solid OpenSCAD_Model
  facet normal -0.994522 0.104529 0
    outer loop
      vertex -9.78148 2.07912 -21.9247
      vertex -9.78148 2.07912 -74.1641
      vertex -9.91834 0.776965 -21.4521
    endloop
  endfacet
  facet normal -0.994522 0.104528 -2.00638e-08
    outer loop
      vertex -10 -1.83479e-15 -74.1641
      vertex -9.91834 0.776965 -21.4521
      vertex -9.78148 2.07912 -74.1641
    endloop
  endfacet
  facet normal -0.994522 0.104528 -1.78973e-08
    outer loop
      vertex -9.91834 0.776965 -21.4521
      vertex -10 -1.83479e-15 -74.1641
      vertex -10 1.92452e-15 -21.1701
    endloop
  endfacet
  facet normal 0.406737 -0.913545 0
    outer loop
      vertex 3.09017 -9.51056 -74.1641
      vertex 5 -8.66025 -5.7673
      vertex 3.09017 -9.51056 -5.1794
    endloop
  endfacet
  facet normal 0.406737 -0.913545 0
    outer loop
      vertex 5 -8.66025 -5.7673
      vertex 3.09017 -9.51056 -74.1641
      vertex 5 -8.66025 -74.1641
    endloop
  endfacet
  facet normal 0 1 0
    outer loop
      vertex -1.04528 9.94522 -74.1641
      vertex 1.04528 9.94522 -15.9038
      vertex 1.04528 9.94522 -74.1641
    endloop
  endfacet
  facet normal 0 1 0
    outer loop
      vertex 1.04528 9.94522 -15.9038
      vertex -1.04528 9.94522 -74.1641
      vertex -1.04528 9.94522 -14.4707
    endloop
  endfacet
  facet normal -0.951057 0.309017 0
    outer loop
      vertex -9.78148 2.07912 -74.1641
      vertex -9.13545 4.06737 -21.9265
      vertex -9.13545 4.06737 -74.1641
    endloop
  endfacet
  facet normal -0.951057 0.309017 0
    outer loop
      vertex -9.13545 4.06737 -21.9265
      vertex -9.78148 2.07912 -74.1641
      vertex -9.78148 2.07912 -21.9247
    endloop
  endfacet
  facet normal -0.587785 0.809017 -4.95308e-09
    outer loop
      vertex -5 8.66025 -74.1641
      vertex -5.56855 8.24718 -18.2925
      vertex -5 8.66025 -17.5775
    endloop
  endfacet
  facet normal -0.587785 0.809017 -1.18042e-08
    outer loop
      vertex -5.56855 8.24718 -18.2925
      vertex -5 8.66025 -74.1641
      vertex -6.69131 7.43145 -74.1641
    endloop
  endfacet
  facet normal 0.406737 0.913545 3.17651e-09
    outer loop
      vertex 5 8.66025 -13.1075
      vertex 5 8.66025 -74.1641
      vertex 3.67137 9.2518 -15.6128
    endloop
  endfacet
  facet normal 0.406737 0.913545 -0
    outer loop
      vertex 5 8.66025 -9.19976
      vertex 3.41024 9.36806 -4.10524
      vertex 5 8.66025 -1.10747
    endloop
  endfacet
  facet normal 0.406737 0.913545 6.7903e-08
    outer loop
      vertex 3.41024 9.36806 -4.10524
      vertex 5 8.66025 -9.19976
      vertex 3.50624 9.32532 -8.33586
    endloop
  endfacet
  facet normal 0.951057 -0.309017 0
    outer loop
      vertex 9.13545 -4.06737 -5.97158
      vertex 9.78148 -2.07912 -74.1641
      vertex 9.78148 -2.07912 -5.50994
    endloop
  endfacet
  facet normal 0.951057 -0.309017 0
    outer loop
      vertex 9.78148 -2.07912 -74.1641
      vertex 9.13545 -4.06737 -5.97158
      vertex 9.13545 -4.06737 -74.1641
    endloop
  endfacet
  facet normal 0.587785 -0.809017 0
    outer loop
      vertex 5 -8.66025 -74.1641
      vertex 6.69131 -7.43145 -6.10314
      vertex 5 -8.66025 -5.7673
    endloop
  endfacet
  facet normal 0.587785 -0.809017 0
    outer loop
      vertex 6.69131 -7.43145 -6.10314
      vertex 5 -8.66025 -74.1641
      vertex 6.69131 -7.43145 -74.1641
    endloop
  endfacet
  facet normal 0.866026 -0.5 0
    outer loop
      vertex 8.09017 -5.87785 -6.17224
      vertex 9.13545 -4.06737 -74.1641
      vertex 9.13545 -4.06737 -5.97158
    endloop
  endfacet
  facet normal 0.866026 -0.5 0
    outer loop
      vertex 9.13545 -4.06737 -74.1641
      vertex 8.09017 -5.87785 -6.17224
      vertex 8.09017 -5.87785 -74.1641
    endloop
  endfacet
  facet normal -0.406737 -0.913545 -5.88865e-09
    outer loop
      vertex -3.09017 -9.51056 -74.1641
      vertex -5 -8.66025 -8.29253
      vertex -5 -8.66025 -74.1641
    endloop
  endfacet
  facet normal -0.406736 -0.913546 2.20655e-08
    outer loop
      vertex -5 -8.66025 -8.29253
      vertex -3.09017 -9.51056 -74.1641
      vertex -4.60194 -8.83748 -7.54192
    endloop
  endfacet
  facet normal -0.951057 -0.309017 0
    outer loop
      vertex -9.13545 -4.06737 -74.1641
      vertex -9.78148 -2.07912 -19.6956
      vertex -9.78148 -2.07912 -74.1641
    endloop
  endfacet
  facet normal -0.951057 -0.309017 0
    outer loop
      vertex -9.78148 -2.07912 -19.6956
      vertex -9.13545 -4.06737 -74.1641
      vertex -9.13545 -4.06737 -17.5658
    endloop
  endfacet
  facet normal -0.207911 -0.978148 -1.30638e-07
    outer loop
      vertex -3.09017 -9.51056 -4.6912
      vertex -1.04528 -9.94522 -3.3601
      vertex -2.02188 -9.73764 -2.80999
    endloop
  endfacet
  facet normal -0.207911 -0.978148 0
    outer loop
      vertex -1.04528 -9.94522 -74.1641
      vertex -3.09017 -9.51056 -4.6912
      vertex -3.09017 -9.51056 -74.1641
    endloop
  endfacet
  facet normal -0.207911 -0.978148 0
    outer loop
      vertex -3.09017 -9.51056 -4.6912
      vertex -1.04528 -9.94522 -74.1641
      vertex -1.04528 -9.94522 -3.3601
    endloop
  endfacet
  facet normal -0.743145 0.669131 0
    outer loop
      vertex -8.09017 5.87785 -21.1755
      vertex -6.69131 7.43145 -74.1641
      vertex -8.09017 5.87785 -74.1641
    endloop
  endfacet
  facet normal -0.743145 0.669131 0
    outer loop
      vertex -6.69131 7.43145 -74.1641
      vertex -8.09017 5.87785 -21.1755
      vertex -6.69131 7.43145 -19.7044
    endloop
  endfacet
  facet normal 0.994522 0.104529 0
    outer loop
      vertex 10 -3.76733e-15 -4.80749
      vertex 9.78148 2.07912 -74.1641
      vertex 9.78148 2.07912 -3.89492
    endloop
  endfacet
  facet normal 0.994522 0.104529 -8.03984e-18
    outer loop
      vertex 9.78148 2.07912 -74.1641
      vertex 10 -3.76733e-15 -4.80749
      vertex 10 -8.68737e-15 -74.1641
    endloop
  endfacet
  facet normal 0.866026 0.5 0
    outer loop
      vertex 9.13545 4.06737 -2.81213
      vertex 8.09017 5.87785 -74.1641
      vertex 8.09017 5.87785 -1.60644
    endloop
  endfacet
  facet normal 0.866026 0.5 0
    outer loop
      vertex 8.09017 5.87785 -74.1641
      vertex 9.13545 4.06737 -2.81213
      vertex 9.13545 4.06737 -74.1641
    endloop
  endfacet
  facet normal 0.587785 0.809017 4.59046e-09
    outer loop
      vertex 6.27931 7.73078 -10.5022
      vertex 5 8.66025 -74.1641
      vertex 5 8.66025 -13.1075
    endloop
  endfacet
  facet normal 0.587785 0.809017 2.38423e-07
    outer loop
      vertex 6.48684 7.58 -0.174546
      vertex 5 8.66025 -1.10747
      vertex 5.73847 8.12372 0.396412
    endloop
  endfacet
  facet normal 0.587785 0.809017 1.41029e-08
    outer loop
      vertex 6.29222 7.7214 -9.8596
      vertex 5 8.66025 -1.10747
      vertex 6.48684 7.58 -0.174546
    endloop
  endfacet
  facet normal 0.587785 0.809017 0
    outer loop
      vertex 5 8.66025 -1.10747
      vertex 6.29222 7.7214 -9.8596
      vertex 5 8.66025 -9.19976
    endloop
  endfacet
  facet normal 0.207911 -0.978148 0
    outer loop
      vertex 1.04528 -9.94522 -74.1641
      vertex 3.09017 -9.51056 -5.1794
      vertex 1.04528 -9.94522 -4.36514
    endloop
  endfacet
  facet normal 0.207911 -0.978148 0
    outer loop
      vertex 3.09017 -9.51056 -5.1794
      vertex 1.04528 -9.94522 -74.1641
      vertex 3.09017 -9.51056 -74.1641
    endloop
  endfacet
  facet normal 0.743145 -0.669131 0
    outer loop
      vertex 6.69131 -7.43145 -74.1641
      vertex 8.09017 -5.87785 -6.17224
      vertex 6.69131 -7.43145 -6.10314
    endloop
  endfacet
  facet normal 0.743145 -0.669131 0
    outer loop
      vertex 8.09017 -5.87785 -6.17224
      vertex 6.69131 -7.43145 -74.1641
      vertex 8.09017 -5.87785 -74.1641
    endloop
  endfacet
  facet normal 0.994522 -0.104529 8.03984e-18
    outer loop
      vertex 9.78148 -2.07912 -5.50994
      vertex 10 -8.68737e-15 -74.1641
      vertex 10 -3.76733e-15 -4.80749
    endloop
  endfacet
  facet normal 0.994522 -0.104529 0
    outer loop
      vertex 10 -8.68737e-15 -74.1641
      vertex 9.78148 -2.07912 -5.50994
      vertex 9.78148 -2.07912 -74.1641
    endloop
  endfacet
  facet normal -0.406737 0.913545 0
    outer loop
      vertex -3.09017 9.51056 -14.8879
      vertex -3.09017 9.51056 -74.1641
      vertex -4.3936 8.93024 -16.7235
    endloop
  endfacet
  facet normal -0.207911 0.978148 5.78522e-08
    outer loop
      vertex -1.04528 9.94522 -14.4707
      vertex -3.09017 9.51056 -14.8879
      vertex -2.24267 9.69071 -13.5886
    endloop
  endfacet
  facet normal -0.207911 0.978148 0
    outer loop
      vertex -1.04528 9.94522 -74.1641
      vertex -3.09017 9.51056 -14.8879
      vertex -1.04528 9.94522 -14.4707
    endloop
  endfacet
  facet normal -0.207911 0.978148 0
    outer loop
      vertex -3.09017 9.51056 -14.8879
      vertex -1.04528 9.94522 -74.1641
      vertex -3.09017 9.51056 -74.1641
    endloop
  endfacet
  facet normal -0.866026 0.5 0
    outer loop
      vertex -9.13545 4.06737 -21.9265
      vertex -8.09017 5.87785 -74.1641
      vertex -9.13545 4.06737 -74.1641
    endloop
  endfacet
  facet normal -0.866026 0.5 0
    outer loop
      vertex -8.09017 5.87785 -74.1641
      vertex -9.13545 4.06737 -21.9265
      vertex -8.09017 5.87785 -21.1755
    endloop
  endfacet
  facet normal 0.951057 0.309017 0
    outer loop
      vertex 9.78148 2.07912 -3.89492
      vertex 9.13545 4.06737 -74.1641
      vertex 9.13545 4.06737 -2.81213
    endloop
  endfacet
  facet normal 0.951057 0.309017 0
    outer loop
      vertex 9.13545 4.06737 -74.1641
      vertex 9.78148 2.07912 -3.89492
      vertex 9.78148 2.07912 -74.1641
    endloop
  endfacet
  facet normal 0.406737 0.913545 5.87579e-09
    outer loop
      vertex 5 8.66025 -74.1641
      vertex 3.09017 9.51056 -16.7088
      vertex 3.67137 9.2518 -15.6128
    endloop
  endfacet
  facet normal 0.406737 0.913545 0
    outer loop
      vertex 3.09017 9.51056 -16.7088
      vertex 5 8.66025 -74.1641
      vertex 3.09017 9.51056 -74.1641
    endloop
  endfacet
  facet normal 0.406737 0.913545 6.23181e-08
    outer loop
      vertex 3.50624 9.32532 -8.33586
      vertex 3.09017 9.51056 -4.7088
      vertex 3.41024 9.36806 -4.10524
    endloop
  endfacet
  facet normal 0.406736 0.913546 0
    outer loop
      vertex 3.09017 9.51056 -4.7088
      vertex 3.50624 9.32532 -8.33586
      vertex 3.09017 9.51056 -8.09523
    endloop
  endfacet
  facet normal 0.743145 0.669131 0
    outer loop
      vertex 8.09017 5.87785 -1.60644
      vertex 6.69131 7.43145 -74.1641
      vertex 6.69131 7.43145 -0.330535
    endloop
  endfacet
  facet normal 0.743145 0.669131 0
    outer loop
      vertex 6.69131 7.43145 -74.1641
      vertex 8.09017 5.87785 -1.60644
      vertex 8.09017 5.87785 -74.1641
    endloop
  endfacet
  facet normal 0 0 -1
    outer loop
      vertex 9.78148 -2.07912 -74.1641
      vertex 9.78148 2.07912 -74.1641
      vertex 10 -8.68737e-15 -74.1641
    endloop
  endfacet
  facet normal 0 0 -1
    outer loop
      vertex 9.13545 -4.06737 -74.1641
      vertex 9.78148 2.07912 -74.1641
      vertex 9.78148 -2.07912 -74.1641
    endloop
  endfacet
  facet normal 0 0 -1
    outer loop
      vertex 9.13545 -4.06737 -74.1641
      vertex 9.13545 4.06737 -74.1641
      vertex 9.78148 2.07912 -74.1641
    endloop
  endfacet
  facet normal 0 0 -1
    outer loop
      vertex 8.09017 -5.87785 -74.1641
      vertex 9.13545 4.06737 -74.1641
      vertex 9.13545 -4.06737 -74.1641
    endloop
  endfacet
  facet normal 0 0 -1
    outer loop
      vertex 8.09017 -5.87785 -74.1641
      vertex 8.09017 5.87785 -74.1641
      vertex 9.13545 4.06737 -74.1641
    endloop
  endfacet
  facet normal 0 0 -1
    outer loop
      vertex 6.69131 -7.43145 -74.1641
      vertex 8.09017 5.87785 -74.1641
      vertex 8.09017 -5.87785 -74.1641
    endloop
  endfacet
  facet normal 0 0 -1
    outer loop
      vertex 6.69131 -7.43145 -74.1641
      vertex 6.69131 7.43145 -74.1641
      vertex 8.09017 5.87785 -74.1641
    endloop
  endfacet
  facet normal 0 0 -1
    outer loop
      vertex 5 -8.66025 -74.1641
      vertex 6.69131 7.43145 -74.1641
      vertex 6.69131 -7.43145 -74.1641
    endloop
  endfacet
  facet normal 0 0 -1
    outer loop
      vertex 5 -8.66025 -74.1641
      vertex 5 8.66025 -74.1641
      vertex 6.69131 7.43145 -74.1641
    endloop
  endfacet
  facet normal 0 0 -1
    outer loop
      vertex 3.09017 -9.51056 -74.1641
      vertex 5 8.66025 -74.1641
      vertex 5 -8.66025 -74.1641
    endloop
  endfacet
  facet normal 0 0 -1
    outer loop
      vertex 3.09017 -9.51056 -74.1641
      vertex 3.09017 9.51056 -74.1641
      vertex 5 8.66025 -74.1641
    endloop
  endfacet
  facet normal 0 0 -1
    outer loop
      vertex 1.04528 -9.94522 -74.1641
      vertex 3.09017 9.51056 -74.1641
      vertex 3.09017 -9.51056 -74.1641
    endloop
  endfacet
  facet normal 0 0 -1
    outer loop
      vertex 1.04528 -9.94522 -74.1641
      vertex 1.04528 9.94522 -74.1641
      vertex 3.09017 9.51056 -74.1641
    endloop
  endfacet
  facet normal 0 0 -1
    outer loop
      vertex -1.04528 -9.94522 -74.1641
      vertex 1.04528 9.94522 -74.1641
      vertex 1.04528 -9.94522 -74.1641
    endloop
  endfacet
  facet normal 0 0 -1
    outer loop
      vertex -1.04528 -9.94522 -74.1641
      vertex -1.04528 9.94522 -74.1641
      vertex 1.04528 9.94522 -74.1641
    endloop
  endfacet
  facet normal 0 0 -1
    outer loop
      vertex -3.09017 -9.51056 -74.1641
      vertex -1.04528 9.94522 -74.1641
      vertex -1.04528 -9.94522 -74.1641
    endloop
  endfacet
  facet normal 0 0 -1
    outer loop
      vertex -3.09017 -9.51056 -74.1641
      vertex -3.09017 9.51056 -74.1641
      vertex -1.04528 9.94522 -74.1641
    endloop
  endfacet
  facet normal 0 0 -1
    outer loop
      vertex -5 -8.66025 -74.1641
      vertex -3.09017 9.51056 -74.1641
      vertex -3.09017 -9.51056 -74.1641
    endloop
  endfacet
  facet normal 0 0 -1
    outer loop
      vertex -5 -8.66025 -74.1641
      vertex -5 8.66025 -74.1641
      vertex -3.09017 9.51056 -74.1641
    endloop
  endfacet
  facet normal 0 0 -1
    outer loop
      vertex -6.69131 -7.43145 -74.1641
      vertex -5 8.66025 -74.1641
      vertex -5 -8.66025 -74.1641
    endloop
  endfacet
  facet normal 0 0 -1
    outer loop
      vertex -6.69131 -7.43145 -74.1641
      vertex -6.69131 7.43145 -74.1641
      vertex -5 8.66025 -74.1641
    endloop
  endfacet
  facet normal 0 0 -1
    outer loop
      vertex -8.09017 -5.87785 -74.1641
      vertex -6.69131 7.43145 -74.1641
      vertex -6.69131 -7.43145 -74.1641
    endloop
  endfacet
  facet normal 0 0 -1
    outer loop
      vertex -8.09017 -5.87785 -74.1641
      vertex -8.09017 5.87785 -74.1641
      vertex -6.69131 7.43145 -74.1641
    endloop
  endfacet
  facet normal 0 0 -1
    outer loop
      vertex -9.13545 -4.06737 -74.1641
      vertex -8.09017 5.87785 -74.1641
      vertex -8.09017 -5.87785 -74.1641
    endloop
  endfacet
  facet normal 0 0 -1
    outer loop
      vertex -9.13545 -4.06737 -74.1641
      vertex -9.13545 4.06737 -74.1641
      vertex -8.09017 5.87785 -74.1641
    endloop
  endfacet
  facet normal 0 0 -1
    outer loop
      vertex -9.78148 -2.07912 -74.1641
      vertex -9.13545 4.06737 -74.1641
      vertex -9.13545 -4.06737 -74.1641
    endloop
  endfacet
  facet normal 0 0 -1
    outer loop
      vertex -9.78148 -2.07912 -74.1641
      vertex -9.78148 2.07912 -74.1641
      vertex -9.13545 4.06737 -74.1641
    endloop
  endfacet
  facet normal 0 -0 -1
    outer loop
      vertex -9.78148 2.07912 -74.1641
      vertex -9.78148 -2.07912 -74.1641
      vertex -10 -1.83479e-15 -74.1641
    endloop
  endfacet
  facet normal 0 -1 0
    outer loop
      vertex -1.04528 -9.94522 -74.1641
      vertex 1.04528 -9.94522 -4.36514
      vertex -1.04528 -9.94522 -3.3601
    endloop
  endfacet
  facet normal 0 -1 -0
    outer loop
      vertex 1.04528 -9.94522 -4.36514
      vertex -1.04528 -9.94522 -74.1641
      vertex 1.04528 -9.94522 -74.1641
    endloop
  endfacet
  facet normal -0.406737 -0.913545 0
    outer loop
      vertex -4.60194 -8.83748 -7.54192
      vertex -3.09017 -9.51056 -74.1641
      vertex -3.09017 -9.51056 -4.6912
    endloop
  endfacet
  facet normal -0.587785 -0.809017 -7.69795e-09
    outer loop
      vertex -5 -8.66025 -74.1641
      vertex -5.38328 -8.38178 -9.07307
      vertex -6.69131 -7.43145 -74.1641
    endloop
  endfacet
  facet normal -0.587785 -0.809017 -8.50983e-09
    outer loop
      vertex -5.38328 -8.38178 -9.07307
      vertex -5 -8.66025 -74.1641
      vertex -5 -8.66025 -8.29253
    endloop
  endfacet
  facet normal -0.587786 0.809017 0
    outer loop
      vertex -5.56855 8.24718 -18.2925
      vertex -6.69131 7.43145 -74.1641
      vertex -6.69131 7.43145 -19.7044
    endloop
  endfacet
  facet normal -0.406737 0.913545 2.65761e-10
    outer loop
      vertex -3.09017 9.51056 -74.1641
      vertex -5 8.66025 -17.5775
      vertex -4.3936 8.93024 -16.7235
    endloop
  endfacet
  facet normal -0.406737 0.913545 -3.42744e-09
    outer loop
      vertex -5 8.66025 -17.5775
      vertex -3.09017 9.51056 -74.1641
      vertex -5 8.66025 -74.1641
    endloop
  endfacet
  facet normal 0.207911 0.978148 0
    outer loop
      vertex 3.09017 9.51056 -16.7088
      vertex 3.09017 9.51056 -74.1641
      vertex 2.88471 9.55424 -17.0706
    endloop
  endfacet
  facet normal 0.207911 0.978148 3.02681e-10
    outer loop
      vertex 1.04528 9.94522 -74.1641
      vertex 2.88471 9.55424 -17.0706
      vertex 3.09017 9.51056 -74.1641
    endloop
  endfacet
  facet normal 0.207911 0.978148 0
    outer loop
      vertex 2.88471 9.55424 -17.0706
      vertex 1.04528 9.94522 -74.1641
      vertex 1.04528 9.94522 -15.9038
    endloop
  endfacet
  facet normal 0.207912 0.978148 0
    outer loop
      vertex 3.09017 9.51056 -4.7088
      vertex 3.09017 9.51056 -8.09523
      vertex 1.67638 9.81107 -7.19841
    endloop
  endfacet
  facet normal 0.587785 0.809017 2.19543e-08
    outer loop
      vertex 6.69131 7.43145 -0.330535
      vertex 6.29222 7.7214 -9.8596
      vertex 6.48684 7.58 -0.174546
    endloop
  endfacet
  facet normal 0.587785 0.809017 3.33029e-08
    outer loop
      vertex 6.69131 7.43145 -0.330535
      vertex 6.53418 7.54561 -9.98314
      vertex 6.29222 7.7214 -9.8596
    endloop
  endfacet
  facet normal 0.587786 0.809016 -0
    outer loop
      vertex 6.69131 7.43145 -74.1641
      vertex 6.53418 7.54561 -9.98314
      vertex 6.69131 7.43145 -0.330535
    endloop
  endfacet
  facet normal 0.587785 0.809017 -3.07992e-09
    outer loop
      vertex 6.69131 7.43145 -74.1641
      vertex 6.27931 7.73078 -10.5022
      vertex 6.53418 7.54561 -9.98314
    endloop
  endfacet
  facet normal 0.587785 0.809017 -2.01967e-09
    outer loop
      vertex 6.27931 7.73078 -10.5022
      vertex 6.69131 7.43145 -74.1641
      vertex 5 8.66025 -74.1641
    endloop
  endfacet
  facet normal -0.743145 -0.669131 0
    outer loop
      vertex -6.69131 -7.43145 -74.1641
      vertex -8.09017 -5.87785 -14.8736
      vertex -8.09017 -5.87785 -74.1641
    endloop
  endfacet
  facet normal -0.743145 -0.669131 0
    outer loop
      vertex -8.09017 -5.87785 -14.8736
      vertex -6.69131 -7.43145 -74.1641
      vertex -6.69131 -7.43145 -11.7368
    endloop
  endfacet
  facet normal -0.587785 -0.809017 -0
    outer loop
      vertex -6.69131 -7.43145 -11.7368
      vertex -6.69131 -7.43145 -74.1641
      vertex -5.38328 -8.38178 -9.07307
    endloop
  endfacet
  facet normal -0.866026 -0.5 0
    outer loop
      vertex -8.09017 -5.87785 -74.1641
      vertex -9.13545 -4.06737 -17.5658
      vertex -9.13545 -4.06737 -74.1641
    endloop
  endfacet
  facet normal -0.866026 -0.5 0
    outer loop
      vertex -9.13545 -4.06737 -17.5658
      vertex -8.09017 -5.87785 -74.1641
      vertex -8.09017 -5.87785 -14.8736
    endloop
  endfacet
  facet normal -0.994522 -0.104528 -1.78973e-08
    outer loop
      vertex -9.78148 -2.07912 -74.1641
      vertex -10 1.92452e-15 -21.1701
      vertex -10 -1.83479e-15 -74.1641
    endloop
  endfacet
  facet normal -0.994522 -0.104529 1.79141e-08
    outer loop
      vertex -10 1.92452e-15 -21.1701
      vertex -9.78148 -2.07912 -74.1641
      vertex -9.92046 -0.756741 -20.6334
    endloop
  endfacet
  facet normal -0.994522 -0.104529 0
    outer loop
      vertex -9.92046 -0.756741 -20.6334
      vertex -9.78148 -2.07912 -74.1641
      vertex -9.78148 -2.07912 -19.6956
    endloop
  endfacet
  facet normal 0.554588 0.194739 0.809017
    outer loop
      vertex -3.84657 -2.97566 -9.44017
      vertex 2.88471 9.55424 -17.0706
      vertex 1.04528 9.94522 -15.9038
    endloop
  endfacet
  facet normal 0.554588 0.194739 0.809017
    outer loop
      vertex -3.84657 -2.97566 -9.44017
      vertex 1.04528 9.94522 -15.9038
      vertex -1.04528 9.94522 -14.4707
    endloop
  endfacet
  facet normal 0.554588 0.194739 0.809017
    outer loop
      vertex -3.84657 -2.97566 -9.44017
      vertex -1.04528 9.94522 -14.4707
      vertex -2.24267 9.69071 -13.5886
    endloop
  endfacet
  facet normal 0.554588 0.194739 0.809017
    outer loop
      vertex 2.88471 9.55424 -17.0706
      vertex -3.84657 -2.97566 -9.44017
      vertex 1.09444 -4.58387 -12.4402
    endloop
  endfacet
  facet normal 0.119476 0.943522 -0.309017
    outer loop
      vertex 1.09444 -4.58387 -12.4402
      vertex 0.238894 -1.54108 -3.48041
      vertex 5.17991 -3.14929 -6.48041
    endloop
  endfacet
  facet normal 0.119475 0.943522 -0.309017
    outer loop
      vertex 0.238894 -1.54108 -3.48041
      vertex 1.09444 -4.58387 -12.4402
      vertex -3.84657 -2.97566 -9.44017
    endloop
  endfacet
  facet normal -0.554588 -0.194739 -0.809017
    outer loop
      vertex 0.238894 -1.54108 -3.48041
      vertex 6.53418 7.54561 -9.98314
      vertex 5.17991 -3.14929 -6.48041
    endloop
  endfacet
  facet normal -0.554589 -0.194739 -0.809017
    outer loop
      vertex 6.53418 7.54561 -9.98314
      vertex 0.238894 -1.54108 -3.48041
      vertex 6.29222 7.7214 -9.8596
    endloop
  endfacet
  facet normal -0.554588 -0.194739 -0.809017
    outer loop
      vertex 6.29222 7.7214 -9.8596
      vertex 0.238894 -1.54108 -3.48041
      vertex 5 8.66025 -9.19976
    endloop
  endfacet
  facet normal -0.554588 -0.194739 -0.809017
    outer loop
      vertex 5 8.66025 -9.19976
      vertex 0.238894 -1.54108 -3.48041
      vertex 3.50624 9.32532 -8.33586
    endloop
  endfacet
  facet normal -0.554588 -0.194739 -0.809017
    outer loop
      vertex 1.67638 9.81107 -7.19841
      vertex 3.50624 9.32532 -8.33586
      vertex 0.238894 -1.54108 -3.48041
    endloop
  endfacet
  facet normal -0.554588 -0.194735 -0.809018
    outer loop
      vertex 3.50624 9.32532 -8.33586
      vertex 1.67638 9.81107 -7.19841
      vertex 3.09017 9.51056 -8.09523
    endloop
  endfacet
  facet normal -0.823502 0.268037 0.5
    outer loop
      vertex 2.88471 9.55424 -17.0706
      vertex 3.67137 9.2518 -15.6128
      vertex 3.09017 9.51056 -16.7088
    endloop
  endfacet
  facet normal -0.823503 0.268035 0.5
    outer loop
      vertex 1.09444 -4.58387 -12.4402
      vertex 3.67137 9.2518 -15.6128
      vertex 2.88471 9.55424 -17.0706
    endloop
  endfacet
  facet normal -0.823503 0.268035 0.5
    outer loop
      vertex 3.67137 9.2518 -15.6128
      vertex 1.09444 -4.58387 -12.4402
      vertex 5 8.66025 -13.1075
    endloop
  endfacet
  facet normal -0.823503 0.268035 0.5
    outer loop
      vertex 5 8.66025 -13.1075
      vertex 1.09444 -4.58387 -12.4402
      vertex 6.27931 7.73078 -10.5022
    endloop
  endfacet
  facet normal -0.823503 0.268035 0.5
    outer loop
      vertex 6.27931 7.73078 -10.5022
      vertex 1.09444 -4.58387 -12.4402
      vertex 6.53418 7.54561 -9.98314
    endloop
  endfacet
  facet normal -0.823503 0.268035 0.5
    outer loop
      vertex 6.53418 7.54561 -9.98314
      vertex 1.09444 -4.58387 -12.4402
      vertex 5.17991 -3.14929 -6.48041
    endloop
  endfacet
  facet normal -0.823503 0.268035 0.5
    outer loop
      vertex -3.84657 -2.97566 -9.44017
      vertex -3.09017 9.51056 -14.8879
      vertex -4.3936 8.93024 -16.7235
    endloop
  endfacet
  facet normal -0.823503 0.26803 0.500002
    outer loop
      vertex -5.56855 8.24718 -18.2925
      vertex -4.3936 8.93024 -16.7235
      vertex -5 8.66025 -17.5775
    endloop
  endfacet
  facet normal -0.823503 0.268035 0.5
    outer loop
      vertex -9.92046 -0.756741 -20.6334
      vertex -4.3936 8.93024 -16.7235
      vertex -5.56855 8.24718 -18.2925
    endloop
  endfacet
  facet normal -0.823503 0.268035 0.5
    outer loop
      vertex -9.91834 0.776965 -21.4521
      vertex -5.56855 8.24718 -18.2925
      vertex -6.69131 7.43145 -19.7044
    endloop
  endfacet
  facet normal -0.823503 0.268035 0.5
    outer loop
      vertex -9.91834 0.776965 -21.4521
      vertex -6.69131 7.43145 -19.7044
      vertex -8.09017 5.87785 -21.1755
    endloop
  endfacet
  facet normal -0.823503 0.268035 0.5
    outer loop
      vertex -9.91834 0.776965 -21.4521
      vertex -8.09017 5.87785 -21.1755
      vertex -9.13545 4.06737 -21.9265
    endloop
  endfacet
  facet normal -0.823503 0.268035 0.5
    outer loop
      vertex -9.91834 0.776965 -21.4521
      vertex -9.13545 4.06737 -21.9265
      vertex -9.78148 2.07912 -21.9247
    endloop
  endfacet
  facet normal -0.823503 0.268035 0.500001
    outer loop
      vertex -5.56855 8.24718 -18.2925
      vertex -9.91834 0.776965 -21.4521
      vertex -9.92046 -0.756741 -20.6334
    endloop
  endfacet
  facet normal -0.823502 0.268035 0.500002
    outer loop
      vertex -9.92046 -0.756741 -20.6334
      vertex -9.91834 0.776965 -21.4521
      vertex -10 1.92452e-15 -21.1701
    endloop
  endfacet
  facet normal -0.823503 0.268035 0.5
    outer loop
      vertex -4.3936 8.93024 -16.7235
      vertex -9.92046 -0.756741 -20.6334
      vertex -9.78148 -2.07912 -19.6956
    endloop
  endfacet
  facet normal -0.823503 0.268035 0.5
    outer loop
      vertex -4.3936 8.93024 -16.7235
      vertex -9.78148 -2.07912 -19.6956
      vertex -3.84657 -2.97566 -9.44017
    endloop
  endfacet
  facet normal -0.823503 0.268035 0.5
    outer loop
      vertex -3.09017 9.51056 -14.8879
      vertex -3.84657 -2.97566 -9.44017
      vertex -2.24267 9.69071 -13.5886
    endloop
  endfacet
  facet normal -0.823503 0.268035 0.5
    outer loop
      vertex -3.84657 -2.97566 -9.44017
      vertex -9.78148 -2.07912 -19.6956
      vertex -9.13545 -4.06737 -17.5658
    endloop
  endfacet
  facet normal -0.823503 0.268035 0.5
    outer loop
      vertex 0.238894 -1.54108 -3.48041
      vertex 3.09017 9.51056 -4.7088
      vertex 1.67638 9.81107 -7.19841
    endloop
  endfacet
  facet normal -0.823503 0.268035 0.5
    outer loop
      vertex 3.09017 9.51056 -4.7088
      vertex 0.238894 -1.54108 -3.48041
      vertex 3.41024 9.36806 -4.10524
    endloop
  endfacet
  facet normal -0.823503 0.268035 0.5
    outer loop
      vertex 3.41024 9.36806 -4.10524
      vertex 0.238894 -1.54108 -3.48041
      vertex 5 8.66025 -1.10747
    endloop
  endfacet
  facet normal -0.823503 0.268035 0.5
    outer loop
      vertex 5 8.66025 -1.10747
      vertex 0.238894 -1.54108 -3.48041
      vertex 5.73847 8.12372 0.396412
    endloop
  endfacet
  facet normal -0.823503 0.268035 0.5
    outer loop
      vertex -8.09017 -5.87785 -14.8736
      vertex -3.84657 -2.97566 -9.44017
      vertex -9.13545 -4.06737 -17.5658
    endloop
  endfacet
  facet normal -0.823503 0.268035 0.5
    outer loop
      vertex -6.69131 -7.43145 -11.7368
      vertex -3.84657 -2.97566 -9.44017
      vertex -8.09017 -5.87785 -14.8736
    endloop
  endfacet
  facet normal -0.823503 0.268035 0.5
    outer loop
      vertex -5.38328 -8.38178 -9.07307
      vertex -3.84657 -2.97566 -9.44017
      vertex -6.69131 -7.43145 -11.7368
    endloop
  endfacet
  facet normal -0.823503 0.268035 0.5
    outer loop
      vertex -5 -8.66025 -8.29253
      vertex -3.84657 -2.97566 -9.44017
      vertex -5.38328 -8.38178 -9.07307
    endloop
  endfacet
  facet normal -0.823503 0.268035 0.5
    outer loop
      vertex -4.60194 -8.83748 -7.54192
      vertex -3.84657 -2.97566 -9.44017
      vertex -5 -8.66025 -8.29253
    endloop
  endfacet
  facet normal -0.823503 0.268035 0.5
    outer loop
      vertex -3.84657 -2.97566 -9.44017
      vertex -4.60194 -8.83748 -7.54192
      vertex 0.238894 -1.54108 -3.48041
    endloop
  endfacet
  facet normal -0.823503 0.268035 0.5
    outer loop
      vertex -3.09017 -9.51056 -4.6912
      vertex 0.238894 -1.54108 -3.48041
      vertex -4.60194 -8.83748 -7.54192
    endloop
  endfacet
  facet normal -0.823503 0.268035 0.5
    outer loop
      vertex -2.02188 -9.73764 -2.80999
      vertex 0.238894 -1.54108 -3.48041
      vertex -3.09017 -9.51056 -4.6912
    endloop
  endfacet
  facet normal -0.823503 0.268035 0.5
    outer loop
      vertex 0.238894 -1.54108 -3.48041
      vertex -2.02188 -9.73764 -2.80999
      vertex 5.73847 8.12372 0.396412
    endloop
  endfacet
  facet normal 0.408949 -0.330384 0.850651
    outer loop
      vertex 9.78148 2.07912 -3.89492
      vertex 9.78148 -2.07912 -5.50994
      vertex 10 -3.76733e-15 -4.80749
    endloop
  endfacet
  facet normal 0.408949 -0.330384 0.850651
    outer loop
      vertex 9.13545 4.06737 -2.81213
      vertex 9.78148 -2.07912 -5.50994
      vertex 9.78148 2.07912 -3.89492
    endloop
  endfacet
  facet normal 0.408949 -0.330384 0.850651
    outer loop
      vertex 9.13545 4.06737 -2.81213
      vertex 9.13545 -4.06737 -5.97158
      vertex 9.78148 -2.07912 -5.50994
    endloop
  endfacet
  facet normal 0.408949 -0.330384 0.850651
    outer loop
      vertex 5.73847 8.12372 0.396412
      vertex 9.13545 4.06737 -2.81213
      vertex 8.09017 5.87785 -1.60644
    endloop
  endfacet
  facet normal 0.408949 -0.330384 0.850651
    outer loop
      vertex 9.13545 4.06737 -2.81213
      vertex 5.73847 8.12372 0.396412
      vertex 9.13545 -4.06737 -5.97158
    endloop
  endfacet
  facet normal 0.408948 -0.330385 0.850651
    outer loop
      vertex 6.48684 7.58 -0.174546
      vertex 8.09017 5.87785 -1.60644
      vertex 6.69131 7.43145 -0.330535
    endloop
  endfacet
  facet normal 0.40895 -0.330383 0.850651
    outer loop
      vertex 5.73847 8.12372 0.396412
      vertex 8.09017 5.87785 -1.60644
      vertex 6.48684 7.58 -0.174546
    endloop
  endfacet
  facet normal 0.408949 -0.330384 0.850651
    outer loop
      vertex 9.13545 -4.06737 -5.97158
      vertex 5.73847 8.12372 0.396412
      vertex 8.09017 -5.87785 -6.17224
    endloop
  endfacet
  facet normal 0.408949 -0.330384 0.850651
    outer loop
      vertex 8.09017 -5.87785 -6.17224
      vertex 5.73847 8.12372 0.396412
      vertex 6.69131 -7.43145 -6.10314
    endloop
  endfacet
  facet normal 0.408949 -0.330384 0.850651
    outer loop
      vertex 5.73847 8.12372 0.396412
      vertex 5 -8.66025 -5.7673
      vertex 6.69131 -7.43145 -6.10314
    endloop
  endfacet
  facet normal 0.408949 -0.330384 0.850651
    outer loop
      vertex 5.73847 8.12372 0.396412
      vertex 3.09017 -9.51056 -5.1794
      vertex 5 -8.66025 -5.7673
    endloop
  endfacet
  facet normal 0.408949 -0.330384 0.850651
    outer loop
      vertex -2.02188 -9.73764 -2.80999
      vertex 3.09017 -9.51056 -5.1794
      vertex 5.73847 8.12372 0.396412
    endloop
  endfacet
  facet normal 0.408949 -0.330384 0.850651
    outer loop
      vertex 3.09017 -9.51056 -5.1794
      vertex -2.02188 -9.73764 -2.80999
      vertex 1.04528 -9.94522 -4.36514
    endloop
  endfacet
  facet normal 0.408949 -0.330385 0.850651
    outer loop
      vertex 1.04528 -9.94522 -4.36514
      vertex -2.02188 -9.73764 -2.80999
      vertex -1.04528 -9.94522 -3.3601
    endloop
  endfacet
endsolid OpenSCAD_Model
