solid OpenSCAD_Model
  facet normal 0 0.195091 -0.980785
    outer loop
      vertex 5 0.812801 -4.83832
      vertex 5 1.91342 -4.6194
      vertex 18.541 1.91342 -4.6194
    endloop
  endfacet
  facet normal 3.45376e-08 0.19509 -0.980785
    outer loop
      vertex 5 0.812801 -4.83832
      vertex 18.541 -7.0353e-16 -5
      vertex 5 -4.09163e-16 -5
    endloop
  endfacet
  facet normal 4.16153e-08 0.19509 -0.980785
    outer loop
      vertex 18.541 -7.0353e-16 -5
      vertex 5 0.812801 -4.83832
      vertex 18.541 1.91342 -4.6194
    endloop
  endfacet
  facet normal 5.48357e-18 0.195091 0.980785
    outer loop
      vertex 18.541 1.91342 4.6194
      vertex 8.16308 1.23011e-16 5
      vertex 18.541 -1.02595e-16 5
    endloop
  endfacet
  facet normal -9.6089e-08 0.195091 0.980785
    outer loop
      vertex 18.541 1.91342 4.6194
      vertex 7.96058 0.41145 4.91816
      vertex 8.16308 1.23011e-16 5
    endloop
  endfacet
  facet normal 5.4057e-10 0.19509 0.980785
    outer loop
      vertex 18.541 1.91342 4.6194
      vertex 7.51624 0.867617 4.82742
      vertex 7.96058 0.41145 4.91816
    endloop
  endfacet
  facet normal 0 0.19509 0.980785
    outer loop
      vertex 7.51624 0.867617 4.82742
      vertex 18.541 1.91342 4.6194
      vertex 6.49758 1.91342 4.6194
    endloop
  endfacet
  facet normal 4.79067e-07 -0.980785 0.19509
    outer loop
      vertex 5 -5 -7.42053e-16
      vertex 5.50071 -4.6194 1.91342
      vertex 5 -4.69182 1.54932
    endloop
  endfacet
  facet normal 2.10132e-17 -0.980785 0.195091
    outer loop
      vertex 5.50071 -4.6194 1.91342
      vertex 5 -5 -7.42053e-16
      vertex 18.541 -5 -1.93796e-15
    endloop
  endfacet
  facet normal 0 -0.980785 0.195091
    outer loop
      vertex 5.50071 -4.6194 1.91342
      vertex 18.541 -5 -1.93796e-15
      vertex 18.541 -4.6194 1.91342
    endloop
  endfacet
  facet normal -2.10132e-17 -0.980785 -0.195091
    outer loop
      vertex 5 -4.6194 -1.91342
      vertex 18.541 -5 -1.93796e-15
      vertex 5 -5 -7.42053e-16
    endloop
  endfacet
  facet normal 0 -0.980785 -0.195091
    outer loop
      vertex 18.541 -5 -1.93796e-15
      vertex 5 -4.6194 -1.91342
      vertex 18.541 -4.6194 -1.91342
    endloop
  endfacet
  facet normal 0 -0.55557 0.83147
    outer loop
      vertex 8.56195 -1.91342 4.6194
      vertex 18.541 -3.53553 3.53553
      vertex 18.541 -1.91342 4.6194
    endloop
  endfacet
  facet normal -6.15833e-09 -0.55557 0.83147
    outer loop
      vertex 8.4539 -2.15137 4.4604
      vertex 18.541 -3.53553 3.53553
      vertex 8.56195 -1.91342 4.6194
    endloop
  endfacet
  facet normal -1.7442e-09 -0.55557 0.83147
    outer loop
      vertex 7.96437 -3.22952 3.74001
      vertex 18.541 -3.53553 3.53553
      vertex 8.4539 -2.15137 4.4604
    endloop
  endfacet
  facet normal 0 -0.55557 0.83147
    outer loop
      vertex 18.541 -3.53553 3.53553
      vertex 7.96437 -3.22952 3.74001
      vertex 7.63346 -3.53553 3.53553
    endloop
  endfacet
  facet normal 0 0.83147 -0.55557
    outer loop
      vertex 18.541 3.53553 -3.53553
      vertex 5 4.6194 -1.91342
      vertex 18.541 4.6194 -1.91342
    endloop
  endfacet
  facet normal 0 0.83147 -0.55557
    outer loop
      vertex 5 4.6194 -1.91342
      vertex 18.541 3.53553 -3.53553
      vertex 5 3.53553 -3.53553
    endloop
  endfacet
  facet normal 0 0.55557 -0.83147
    outer loop
      vertex 5 1.91342 -4.6194
      vertex 18.541 3.53553 -3.53553
      vertex 18.541 1.91342 -4.6194
    endloop
  endfacet
  facet normal 0 0.55557 -0.83147
    outer loop
      vertex 18.541 3.53553 -3.53553
      vertex 5 1.91342 -4.6194
      vertex 5 3.53553 -3.53553
    endloop
  endfacet
  facet normal 0 0.83147 0.55557
    outer loop
      vertex 18.541 4.6194 1.91342
      vertex 5 3.53553 3.53553
      vertex 18.541 3.53553 3.53553
    endloop
  endfacet
  facet normal 0 0.83147 0.55557
    outer loop
      vertex 5 3.53553 3.53553
      vertex 18.541 4.6194 1.91342
      vertex 5 4.6194 1.91342
    endloop
  endfacet
  facet normal 0 0.55557 0.83147
    outer loop
      vertex 18.541 3.53553 3.53553
      vertex 6.49758 1.91342 4.6194
      vertex 18.541 1.91342 4.6194
    endloop
  endfacet
  facet normal -7.69918e-09 0.55557 0.83147
    outer loop
      vertex 18.541 3.53553 3.53553
      vertex 6.06669 2.29826 4.36225
      vertex 6.49758 1.91342 4.6194
    endloop
  endfacet
  facet normal -0 0.55557 0.83147
    outer loop
      vertex 5 3.53553 3.53553
      vertex 6.06669 2.29826 4.36225
      vertex 18.541 3.53553 3.53553
    endloop
  endfacet
  facet normal -6.71147e-08 0.55557 0.83147
    outer loop
      vertex 6.06669 2.29826 4.36225
      vertex 5 3.53553 3.53553
      vertex 5.0003 2.88054 3.97319
    endloop
  endfacet
  facet normal 0.000322681 0.55557 0.83147
    outer loop
      vertex 5.0003 2.88054 3.97319
      vertex 5 3.53553 3.53553
      vertex 5 2.88035 3.97331
    endloop
  endfacet
  facet normal 0 0.980785 0.195091
    outer loop
      vertex 18.541 4.6194 1.91342
      vertex 5 5 -1.41117e-16
      vertex 5 4.6194 1.91342
    endloop
  endfacet
  facet normal 1.72298e-17 0.980785 0.195091
    outer loop
      vertex 5 5 -1.41117e-16
      vertex 18.541 4.6194 1.91342
      vertex 18.541 5 -1.33702e-15
    endloop
  endfacet
  facet normal -8.42938e-09 -0.83147 0.55557
    outer loop
      vertex 18.541 -4.6194 1.91342
      vertex 7.63346 -3.53553 3.53553
      vertex 6.33915 -4.28197 2.41842
    endloop
  endfacet
  facet normal -2.54587e-09 -0.83147 0.55557
    outer loop
      vertex 18.541 -4.6194 1.91342
      vertex 6.33915 -4.28197 2.41842
      vertex 6.07881 -4.43211 2.19372
    endloop
  endfacet
  facet normal 0 -0.83147 0.55557
    outer loop
      vertex 18.541 -4.6194 1.91342
      vertex 6.07881 -4.43211 2.19372
      vertex 5.50071 -4.6194 1.91342
    endloop
  endfacet
  facet normal 0 -0.83147 0.55557
    outer loop
      vertex 7.63346 -3.53553 3.53553
      vertex 18.541 -4.6194 1.91342
      vertex 18.541 -3.53553 3.53553
    endloop
  endfacet
  facet normal 1 0 0
    outer loop
      vertex 18.541 4.6194 1.91342
      vertex 18.541 4.6194 -1.91342
      vertex 18.541 5 -1.33702e-15
    endloop
  endfacet
  facet normal 1 0 0
    outer loop
      vertex 18.541 3.53553 3.53553
      vertex 18.541 4.6194 -1.91342
      vertex 18.541 4.6194 1.91342
    endloop
  endfacet
  facet normal 1 0 0
    outer loop
      vertex 18.541 3.53553 3.53553
      vertex 18.541 3.53553 -3.53553
      vertex 18.541 4.6194 -1.91342
    endloop
  endfacet
  facet normal 1 0 0
    outer loop
      vertex 18.541 1.91342 4.6194
      vertex 18.541 3.53553 -3.53553
      vertex 18.541 3.53553 3.53553
    endloop
  endfacet
  facet normal 1 0 0
    outer loop
      vertex 18.541 1.91342 4.6194
      vertex 18.541 1.91342 -4.6194
      vertex 18.541 3.53553 -3.53553
    endloop
  endfacet
  facet normal 1 0 0
    outer loop
      vertex 18.541 -1.02595e-16 5
      vertex 18.541 1.91342 -4.6194
      vertex 18.541 1.91342 4.6194
    endloop
  endfacet
  facet normal 1 0 0
    outer loop
      vertex 18.541 -1.02595e-16 5
      vertex 18.541 -7.0353e-16 -5
      vertex 18.541 1.91342 -4.6194
    endloop
  endfacet
  facet normal 1 -0 0
    outer loop
      vertex 18.541 -1.91342 4.6194
      vertex 18.541 -7.0353e-16 -5
      vertex 18.541 -1.02595e-16 5
    endloop
  endfacet
  facet normal 1 0 0
    outer loop
      vertex 18.541 -1.91342 4.6194
      vertex 18.541 -1.91342 -4.6194
      vertex 18.541 -7.0353e-16 -5
    endloop
  endfacet
  facet normal 1 -0 0
    outer loop
      vertex 18.541 -3.53553 3.53553
      vertex 18.541 -1.91342 -4.6194
      vertex 18.541 -1.91342 4.6194
    endloop
  endfacet
  facet normal 1 0 0
    outer loop
      vertex 18.541 -3.53553 3.53553
      vertex 18.541 -3.53553 -3.53553
      vertex 18.541 -1.91342 -4.6194
    endloop
  endfacet
  facet normal 1 -0 0
    outer loop
      vertex 18.541 -4.6194 1.91342
      vertex 18.541 -3.53553 -3.53553
      vertex 18.541 -3.53553 3.53553
    endloop
  endfacet
  facet normal 1 0 0
    outer loop
      vertex 18.541 -4.6194 1.91342
      vertex 18.541 -4.6194 -1.91342
      vertex 18.541 -3.53553 -3.53553
    endloop
  endfacet
  facet normal 1 0 -0
    outer loop
      vertex 18.541 -4.6194 -1.91342
      vertex 18.541 -4.6194 1.91342
      vertex 18.541 -5 -1.93796e-15
    endloop
  endfacet
  facet normal -1.21089e-08 -0.195091 0.980785
    outer loop
      vertex 18.541 -1.02595e-16 5
      vertex 8.62472 -1.52845 4.69597
      vertex 18.541 -1.91342 4.6194
    endloop
  endfacet
  facet normal 1.33593e-08 -0.195091 0.980785
    outer loop
      vertex 18.541 -1.02595e-16 5
      vertex 8.24024 -0.255489 4.94918
      vertex 8.62472 -1.52845 4.69597
    endloop
  endfacet
  facet normal -3.8501e-18 -0.19509 0.980785
    outer loop
      vertex 8.24024 -0.255489 4.94918
      vertex 18.541 -1.02595e-16 5
      vertex 8.16308 1.23011e-16 5
    endloop
  endfacet
  facet normal 0 -0.19509 0.980785
    outer loop
      vertex 18.541 -1.91342 4.6194
      vertex 8.62472 -1.52845 4.69597
      vertex 8.56195 -1.91342 4.6194
    endloop
  endfacet
  facet normal 0 -0.55557 -0.83147
    outer loop
      vertex 5 -3.53553 -3.53553
      vertex 18.541 -1.91342 -4.6194
      vertex 18.541 -3.53553 -3.53553
    endloop
  endfacet
  facet normal -0 -0.55557 -0.83147
    outer loop
      vertex 18.541 -1.91342 -4.6194
      vertex 5 -3.53553 -3.53553
      vertex 5 -1.91342 -4.6194
    endloop
  endfacet
  facet normal -1.68106e-17 0.980785 -0.195091
    outer loop
      vertex 18.541 4.6194 -1.91342
      vertex 5 5 -1.41117e-16
      vertex 18.541 5 -1.33702e-15
    endloop
  endfacet
  facet normal 0 0.980785 -0.195091
    outer loop
      vertex 5 5 -1.41117e-16
      vertex 18.541 4.6194 -1.91342
      vertex 5 4.6194 -1.91342
    endloop
  endfacet
  facet normal 0 -0.83147 -0.55557
    outer loop
      vertex 5 -3.53553 -3.53553
      vertex 18.541 -4.6194 -1.91342
      vertex 5 -4.6194 -1.91342
    endloop
  endfacet
  facet normal 0 -0.83147 -0.55557
    outer loop
      vertex 18.541 -4.6194 -1.91342
      vertex 5 -3.53553 -3.53553
      vertex 18.541 -3.53553 -3.53553
    endloop
  endfacet
  facet normal 0 -0.195091 -0.980785
    outer loop
      vertex 5 -1.91342 -4.6194
      vertex 5 -0.812801 -4.83832
      vertex 18.541 -1.91342 -4.6194
    endloop
  endfacet
  facet normal 4.16153e-08 -0.19509 -0.980785
    outer loop
      vertex 5 -0.812801 -4.83832
      vertex 18.541 -7.0353e-16 -5
      vertex 18.541 -1.91342 -4.6194
    endloop
  endfacet
  facet normal 3.45376e-08 -0.19509 -0.980785
    outer loop
      vertex 18.541 -7.0353e-16 -5
      vertex 5 -0.812801 -4.83832
      vertex 5 -4.09163e-16 -5
    endloop
  endfacet
  facet normal -1 0 0
    outer loop
      vertex 5 -4.09163e-16 -5
      vertex 5 0.0225259 -3.95749
      vertex 5 0.812801 -4.83832
    endloop
  endfacet
  facet normal -1 0 0
    outer loop
      vertex 5 -4.09163e-16 -5
      vertex 5 -0.207045 -4.11336
      vertex 5 0.0225259 -3.95749
    endloop
  endfacet
  facet normal -1 0 0
    outer loop
      vertex 5 -0.812801 -4.83832
      vertex 5 -0.207045 -4.11336
      vertex 5 -4.09163e-16 -5
    endloop
  endfacet
  facet normal -1 -0 0
    outer loop
      vertex 5 -0.207045 -4.11336
      vertex 5 -0.812801 -4.83832
      vertex 5 -0.265102 -4.00074
    endloop
  endfacet
  facet normal -1 -0 0
    outer loop
      vertex 5 -0.265102 -4.00074
      vertex 5 -0.812801 -4.83832
      vertex 5 -0.297241 -3.9384
    endloop
  endfacet
  facet normal -1 0 0
    outer loop
      vertex 5 -1.91342 -4.6194
      vertex 5 -0.297241 -3.9384
      vertex 5 -0.812801 -4.83832
    endloop
  endfacet
  facet normal -1 0 0
    outer loop
      vertex 5 -3.53553 -3.53553
      vertex 5 -0.297241 -3.9384
      vertex 5 -1.91342 -4.6194
    endloop
  endfacet
  facet normal -1 0 0
    outer loop
      vertex 5 -0.297241 -3.9384
      vertex 5 -2.23615 2.30799
      vertex 5 -0.493738 2.87511
    endloop
  endfacet
  facet normal -1 0 0
    outer loop
      vertex 5 -4.6194 -1.91342
      vertex 5 -0.297241 -3.9384
      vertex 5 -3.53553 -3.53553
    endloop
  endfacet
  facet normal -1 0 0
    outer loop
      vertex 5 -0.297241 -3.9384
      vertex 5 -4.6194 -1.91342
      vertex 5 -2.23615 2.30799
    endloop
  endfacet
  facet normal -1 0 0
    outer loop
      vertex 5 -2.23615 2.30799
      vertex 5 -4.6194 -1.91342
      vertex 5 -3.39536 1.93068
    endloop
  endfacet
  facet normal -1 0 0
    outer loop
      vertex 5 -5 -7.42053e-16
      vertex 5 -3.39536 1.93068
      vertex 5 -4.6194 -1.91342
    endloop
  endfacet
  facet normal -1 0 0
    outer loop
      vertex 5 -3.39536 1.93068
      vertex 5 -5 -7.42053e-16
      vertex 5 -4.36049 1.61655
    endloop
  endfacet
  facet normal -1 0 0
    outer loop
      vertex 5 -4.36049 1.61655
      vertex 5 -5 -7.42053e-16
      vertex 5 -4.66761 1.51659
    endloop
  endfacet
  facet normal -1 -0 0
    outer loop
      vertex 5 -4.66761 1.51659
      vertex 5 -5 -7.42053e-16
      vertex 5 -4.69182 1.54932
    endloop
  endfacet
  facet normal -1 0 0
    outer loop
      vertex 5 3.75 -2.5
      vertex 5 5 -1.41117e-16
      vertex 5 4.6194 -1.91342
    endloop
  endfacet
  facet normal -1 0 0
    outer loop
      vertex 5 3.75 2.5
      vertex 5 5 -1.41117e-16
      vertex 5 3.75 -2.5
    endloop
  endfacet
  facet normal -1 0 0
    outer loop
      vertex 5 3.53553 -3.53553
      vertex 5 3.75 -2.5
      vertex 5 4.6194 -1.91342
    endloop
  endfacet
  facet normal -1 0 0
    outer loop
      vertex 5 1.25 -2.5
      vertex 5 3.53553 -3.53553
      vertex 5 1.91342 -4.6194
    endloop
  endfacet
  facet normal -1 0 0
    outer loop
      vertex 5 3.53553 -3.53553
      vertex 5 1.25 -2.5
      vertex 5 3.75 -2.5
    endloop
  endfacet
  facet normal -1 0 0
    outer loop
      vertex 5 1.91342 -4.6194
      vertex 5 0.0225259 -3.95749
      vertex 5 1.25 -2.5
    endloop
  endfacet
  facet normal -1 0 0
    outer loop
      vertex 5 0.0225259 -3.95749
      vertex 5 1.91342 -4.6194
      vertex 5 0.812801 -4.83832
    endloop
  endfacet
  facet normal -1 0 0
    outer loop
      vertex 5 5 -1.41117e-16
      vertex 5 3.75 2.5
      vertex 5 4.6194 1.91342
    endloop
  endfacet
  facet normal -1 0 0
    outer loop
      vertex 5 3.75 2.5
      vertex 5 3.53553 3.53553
      vertex 5 4.6194 1.91342
    endloop
  endfacet
  facet normal -1 0 0
    outer loop
      vertex 5 2.11396 3.72387
      vertex 5 3.53553 3.53553
      vertex 5 3.75 2.5
    endloop
  endfacet
  facet normal -1 0 0
    outer loop
      vertex 5 3.53553 3.53553
      vertex 5 2.11396 3.72387
      vertex 5 2.88035 3.97331
    endloop
  endfacet
  facet normal -1 0 0
    outer loop
      vertex 5 1.25 2.5
      vertex 5 2.11396 3.72387
      vertex 5 3.75 2.5
    endloop
  endfacet
  facet normal -1 0 0
    outer loop
      vertex 5 -0.297241 -3.9384
      vertex 5 1.25 -2.5
      vertex 5 0.0225259 -3.95749
    endloop
  endfacet
  facet normal -1 0 0
    outer loop
      vertex 5 -0.493738 2.87511
      vertex 5 1.25 -2.5
      vertex 5 -0.297241 -3.9384
    endloop
  endfacet
  facet normal -1 0 0
    outer loop
      vertex 5 1.25 2.5
      vertex 5 -0.493738 2.87511
      vertex 5 2.11396 3.72387
    endloop
  endfacet
  facet normal -1 0 0
    outer loop
      vertex 5 1.25 -2.5
      vertex 5 -0.493738 2.87511
      vertex 5 1.25 2.5
    endloop
  endfacet
  facet normal -1 -2.1739e-17 -8.8317e-17
    outer loop
      vertex -3.0312e-17 1.25 0.0355347
      vertex -3.02314e-16 3.75 2.5
      vertex -8.46594e-17 3.75 0.0355347
    endloop
  endfacet
  facet normal -1 -2.1739e-17 -8.8317e-17
    outer loop
      vertex -3.02314e-16 3.75 2.5
      vertex -3.0312e-17 1.25 0.0355347
      vertex -2.47966e-16 1.25 2.5
    endloop
  endfacet
  facet normal 0 0 1
    outer loop
      vertex 5 3.75 2.5
      vertex -2.47966e-16 1.25 2.5
      vertex 5 1.25 2.5
    endloop
  endfacet
  facet normal 0 -0 1
    outer loop
      vertex -2.47966e-16 1.25 2.5
      vertex 5 3.75 2.5
      vertex -3.02314e-16 3.75 2.5
    endloop
  endfacet
  facet normal 0 1 0
    outer loop
      vertex 5 3.75 2.5
      vertex -8.46594e-17 3.75 0.0355347
      vertex -3.02314e-16 3.75 2.5
    endloop
  endfacet
  facet normal 0 1 0
    outer loop
      vertex 2.53553 3.75 -2.5
      vertex 5 3.75 2.5
      vertex 5 3.75 -2.5
    endloop
  endfacet
  facet normal 0 1 0
    outer loop
      vertex 5 3.75 2.5
      vertex 2.53553 3.75 -2.5
      vertex -8.46594e-17 3.75 0.0355347
    endloop
  endfacet
  facet normal 0 0 -1
    outer loop
      vertex 2.53553 1.25 -2.5
      vertex 5 3.75 -2.5
      vertex 5 1.25 -2.5
    endloop
  endfacet
  facet normal -0 0 -1
    outer loop
      vertex 5 3.75 -2.5
      vertex 2.53553 1.25 -2.5
      vertex 2.53553 3.75 -2.5
    endloop
  endfacet
  facet normal 0 -1 0
    outer loop
      vertex -3.0312e-17 1.25 0.0355347
      vertex 5 1.25 2.5
      vertex -2.47966e-16 1.25 2.5
    endloop
  endfacet
  facet normal 0 -1 0
    outer loop
      vertex 2.53553 1.25 -2.5
      vertex 5 1.25 2.5
      vertex -3.0312e-17 1.25 0.0355347
    endloop
  endfacet
  facet normal 0 -1 -0
    outer loop
      vertex 5 1.25 2.5
      vertex 2.53553 1.25 -2.5
      vertex 5 1.25 -2.5
    endloop
  endfacet
  facet normal -0.707107 0 -0.707107
    outer loop
      vertex 2.53553 1.25 -2.5
      vertex -8.46594e-17 3.75 0.0355347
      vertex 2.53553 3.75 -2.5
    endloop
  endfacet
  facet normal -0.707107 -1.53718e-17 -0.707107
    outer loop
      vertex -8.46594e-17 3.75 0.0355347
      vertex 2.53553 1.25 -2.5
      vertex -3.0312e-17 1.25 0.0355347
    endloop
  endfacet
  facet normal -0.396527 -0.515666 0.75951
    outer loop
      vertex 5 -0.207045 -4.11336
      vertex 5.07113 -0.204734 -4.07465
      vertex 5 0.0225259 -3.95749
    endloop
  endfacet
  facet normal -0.268039 0.856314 0.441453
    outer loop
      vertex 5.07113 -0.204734 -4.07465
      vertex 5 -0.265102 -4.00074
      vertex 5 -0.297241 -3.9384
    endloop
  endfacet
  facet normal -0.878023 -0.0285275 -0.477768
    outer loop
      vertex 5.07113 -0.204734 -4.07465
      vertex 5 -0.297241 -3.9384
      vertex 5 0.0225259 -3.95749
    endloop
  endfacet
  facet normal -0.268036 0.856314 0.441455
    outer loop
      vertex 5.07113 -0.204734 -4.07465
      vertex 5 -0.207045 -4.11336
      vertex 5 -0.265102 -4.00074
    endloop
  endfacet
  facet normal -0.849385 -0.337287 0.405934
    outer loop
      vertex 8.24024 -0.255489 4.94918
      vertex 7.96058 0.41145 4.91816
      vertex 6.50052 1.19414 2.51343
    endloop
  endfacet
  facet normal -0.849384 -0.337286 0.405938
    outer loop
      vertex 7.96058 0.41145 4.91816
      vertex 8.24024 -0.255489 4.94918
      vertex 8.16308 1.23011e-16 5
    endloop
  endfacet
  facet normal -0.849385 -0.337288 0.405934
    outer loop
      vertex 6.83013 -0.566425 1.74027
      vertex 8.24024 -0.255489 4.94918
      vertex 6.50052 1.19414 2.51343
    endloop
  endfacet
  facet normal -0.849385 -0.337288 0.405934
    outer loop
      vertex 8.24024 -0.255489 4.94918
      vertex 6.83013 -0.566425 1.74027
      vertex 8.62472 -1.52845 4.69597
    endloop
  endfacet
  facet normal 0.499999 -0.268035 0.823503
    outer loop
      vertex 6.83013 -0.566425 1.74027
      vertex 6.50052 1.19414 2.51343
      vertex 5.56186 2.56889 3.53079
    endloop
  endfacet
  facet normal 0.5 -0.268035 0.823503
    outer loop
      vertex 5 -2.23615 2.30799
      vertex 6.50052 -2.44479 1.32902
      vertex 6.83013 -0.566425 1.74027
    endloop
  endfacet
  facet normal 0.5 -0.268035 0.823503
    outer loop
      vertex 6.50052 -2.44479 1.32902
      vertex 5 -2.23615 2.30799
      vertex 5 -3.39536 1.93068
    endloop
  endfacet
  facet normal -0.720074 0.399621 0.567271
    outer loop
      vertex 6.50052 -2.44479 1.32902
      vertex 7.63346 -3.53553 3.53553
      vertex 7.96437 -3.22952 3.74001
    endloop
  endfacet
  facet normal -0.720074 0.399621 0.567271
    outer loop
      vertex 6.33915 -4.28197 2.41842
      vertex 6.50052 -2.44479 1.32902
      vertex 5.56186 -4.15499 1.3423
    endloop
  endfacet
  facet normal -0.720074 0.399621 0.567271
    outer loop
      vertex 6.50052 -2.44479 1.32902
      vertex 6.33915 -4.28197 2.41842
      vertex 7.63346 -3.53553 3.53553
    endloop
  endfacet
  facet normal 0.5 -0.268035 0.823503
    outer loop
      vertex 5 -4.36049 1.61655
      vertex 6.50052 -2.44479 1.32902
      vertex 5 -3.39536 1.93068
    endloop
  endfacet
  facet normal 0.499999 -0.268034 0.823504
    outer loop
      vertex 5 -4.36049 1.61655
      vertex 5.56186 -4.15499 1.3423
      vertex 6.50052 -2.44479 1.32902
    endloop
  endfacet
  facet normal 0.499999 -0.268034 0.823504
    outer loop
      vertex 5.56186 -4.15499 1.3423
      vertex 5 -4.36049 1.61655
      vertex 5 -4.66761 1.51659
    endloop
  endfacet
  facet normal -0.720074 -0.656962 0.223373
    outer loop
      vertex 6.50052 1.19414 2.51343
      vertex 7.96058 0.41145 4.91816
      vertex 7.51624 0.867617 4.82742
    endloop
  endfacet
  facet normal -0.720074 0.399621 0.567271
    outer loop
      vertex 5.56186 -4.15499 1.3423
      vertex 6.07881 -4.43211 2.19372
      vertex 6.33915 -4.28197 2.41842
    endloop
  endfacet
  facet normal -0.481138 0.704669 0.521485
    outer loop
      vertex 5.56186 -4.15499 1.3423
      vertex 5.50071 -4.6194 1.91342
      vertex 6.07881 -4.43211 2.19372
    endloop
  endfacet
  facet normal -0.481138 0.704669 0.521486
    outer loop
      vertex 5.50071 -4.6194 1.91342
      vertex 5.56186 -4.15499 1.3423
      vertex 5 -4.69182 1.54932
    endloop
  endfacet
  facet normal -0.481135 0.704668 0.521491
    outer loop
      vertex 5 -4.69182 1.54932
      vertex 5.56186 -4.15499 1.3423
      vertex 5 -4.66761 1.51659
    endloop
  endfacet
  facet normal -0.481138 -0.876618 0.00680597
    outer loop
      vertex 5.56186 2.56889 3.53079
      vertex 6.06669 2.29826 4.36225
      vertex 5.0003 2.88054 3.97319
    endloop
  endfacet
  facet normal -0.720074 -0.656961 0.223373
    outer loop
      vertex 5.56186 2.56889 3.53079
      vertex 6.49758 1.91342 4.6194
      vertex 6.06669 2.29826 4.36225
    endloop
  endfacet
  facet normal -0.720074 -0.656962 0.223373
    outer loop
      vertex 6.50052 1.19414 2.51343
      vertex 6.49758 1.91342 4.6194
      vertex 5.56186 2.56889 3.53079
    endloop
  endfacet
  facet normal -0.720074 -0.656962 0.223373
    outer loop
      vertex 6.49758 1.91342 4.6194
      vertex 6.50052 1.19414 2.51343
      vertex 7.51624 0.867617 4.82742
    endloop
  endfacet
  facet normal 0.499775 -0.268445 0.823506
    outer loop
      vertex 5 2.88035 3.97331
      vertex 5.56186 2.56889 3.53079
      vertex 5.0003 2.88054 3.97319
    endloop
  endfacet
  facet normal 0.499999 -0.268035 0.823503
    outer loop
      vertex 5.56186 2.56889 3.53079
      vertex 5 2.88035 3.97331
      vertex 5 2.11396 3.72387
    endloop
  endfacet
  facet normal 0.499999 -0.268035 0.823503
    outer loop
      vertex 5.56186 2.56889 3.53079
      vertex 5 2.11396 3.72387
      vertex 6.83013 -0.566425 1.74027
    endloop
  endfacet
  facet normal 0.5 -0.268035 0.823503
    outer loop
      vertex 5 -2.23615 2.30799
      vertex 6.83013 -0.566425 1.74027
      vertex 5 -0.493738 2.87511
    endloop
  endfacet
  facet normal 0.5 -0.268035 0.823503
    outer loop
      vertex 5 -0.493738 2.87511
      vertex 6.83013 -0.566425 1.74027
      vertex 5 2.11396 3.72387
    endloop
  endfacet
  facet normal -0.849385 0.0337351 0.526695
    outer loop
      vertex 6.50052 -2.44479 1.32902
      vertex 8.4539 -2.15137 4.4604
      vertex 6.83013 -0.566425 1.74027
    endloop
  endfacet
  facet normal -0.849385 0.0337349 0.526695
    outer loop
      vertex 8.4539 -2.15137 4.4604
      vertex 6.50052 -2.44479 1.32902
      vertex 7.96437 -3.22952 3.74001
    endloop
  endfacet
  facet normal -0.849385 0.0337349 0.526695
    outer loop
      vertex 8.4539 -2.15137 4.4604
      vertex 8.62472 -1.52845 4.69597
      vertex 6.83013 -0.566425 1.74027
    endloop
  endfacet
  facet normal -0.849381 0.0337313 0.526701
    outer loop
      vertex 8.62472 -1.52845 4.69597
      vertex 8.4539 -2.15137 4.4604
      vertex 8.56195 -1.91342 4.6194
    endloop
  endfacet
endsolid OpenSCAD_Model
