solid OpenSCAD_Model
  facet normal -0.994522 0.104529 0
    outer loop
      vertex -9.89315 1.01664 -10
      vertex -9.78148 2.07912 -10
      vertex -9.78148 2.07912 -30.9017
    endloop
  endfacet
  facet normal -0.994522 0.104528 -3.35866e-08
    outer loop
      vertex -10 -1.27271e-15 -30.9017
      vertex -9.89315 1.01664 -10
      vertex -9.78148 2.07912 -30.9017
    endloop
  endfacet
  facet normal -0.994522 0.104529 -4.53767e-08
    outer loop
      vertex -9.89315 1.01664 -10
      vertex -10 -1.27271e-15 -30.9017
      vertex -10 -8.18325e-16 -10
    endloop
  endfacet
  facet normal 0 1 -0
    outer loop
      vertex 1.04528 9.94522 -30.9017
      vertex -1.04528 9.94522 -10
      vertex 1.04528 9.94522 -10
    endloop
  endfacet
  facet normal 0 1 0
    outer loop
      vertex -1.04528 9.94522 -10
      vertex 1.04528 9.94522 -30.9017
      vertex -1.04528 9.94522 -30.9017
    endloop
  endfacet
  facet normal -0.951057 0.309017 0
    outer loop
      vertex -9.78148 2.07912 -30.9017
      vertex -9.13545 4.06737 -10
      vertex -9.13545 4.06737 -30.9017
    endloop
  endfacet
  facet normal -0.951057 0.309017 0
    outer loop
      vertex -9.13545 4.06737 -10
      vertex -9.78148 2.07912 -30.9017
      vertex -9.78148 2.07912 -10
    endloop
  endfacet
  facet normal -0.587785 0.809017 -1.34093e-08
    outer loop
      vertex -5 8.66025 -30.9017
      vertex -5.82701 8.0594 -10
      vertex -5 8.66025 -10
    endloop
  endfacet
  facet normal -0.587785 0.809017 -2.02973e-08
    outer loop
      vertex -5.82701 8.0594 -10
      vertex -5 8.66025 -30.9017
      vertex -6.69131 7.43145 -30.9017
    endloop
  endfacet
  facet normal 0.406737 0.913545 9.27901e-09
    outer loop
      vertex 4.02403 9.09478 -10
      vertex 5 8.66025 -10
      vertex 5 8.66025 -30.9017
    endloop
  endfacet
  facet normal 0.951057 -0.309016 0
    outer loop
      vertex 9.68856 -2.36508 -17.1977
      vertex 9.78148 -2.07912 -30.9017
      vertex 9.78148 -2.07912 -17.1611
    endloop
  endfacet
  facet normal 0.951056 -0.309018 -3.65064e-08
    outer loop
      vertex 9.4569 -3.07804 -17.2889
      vertex 9.78148 -2.07912 -30.9017
      vertex 9.68856 -2.36508 -17.1977
    endloop
  endfacet
  facet normal 0.951057 -0.309016 -4.25888e-08
    outer loop
      vertex 9.13545 -4.06737 -30.9017
      vertex 9.4569 -3.07804 -17.2889
      vertex 9.22522 -3.7911 -17.1981
    endloop
  endfacet
  facet normal 0.951056 -0.309018 0
    outer loop
      vertex 9.13545 -4.06737 -30.9017
      vertex 9.22522 -3.7911 -17.1981
      vertex 9.13545 -4.06737 -17.1629
    endloop
  endfacet
  facet normal 0.951057 -0.309017 2.53379e-08
    outer loop
      vertex 9.4569 -3.07804 -17.2889
      vertex 9.13545 -4.06737 -30.9017
      vertex 9.78148 -2.07912 -30.9017
    endloop
  endfacet
  facet normal 0.587785 -0.809017 0
    outer loop
      vertex 5 -8.66025 -30.9017
      vertex 5.80938 -8.0722 -13.9735
      vertex 5 -8.66025 -12.7924
    endloop
  endfacet
  facet normal 0.587785 -0.809017 4.51898e-09
    outer loop
      vertex 5 -8.66025 -30.9017
      vertex 6.69131 -7.43145 -14.9314
      vertex 5.80938 -8.0722 -13.9735
    endloop
  endfacet
  facet normal 0.587785 -0.809017 0
    outer loop
      vertex 6.69131 -7.43145 -14.9314
      vertex 5 -8.66025 -30.9017
      vertex 6.69131 -7.43145 -30.9017
    endloop
  endfacet
  facet normal 0.866026 -0.5 -5.28888e-09
    outer loop
      vertex 8.09017 -5.87785 -30.9017
      vertex 9.13545 -4.06737 -17.1629
      vertex 8.60447 -4.98707 -16.9097
    endloop
  endfacet
  facet normal 0.866026 -0.5 0
    outer loop
      vertex 8.09017 -5.87785 -30.9017
      vertex 8.60447 -4.98707 -16.9097
      vertex 8.09017 -5.87785 -16.409
    endloop
  endfacet
  facet normal 0.866026 -0.5 0
    outer loop
      vertex 9.13545 -4.06737 -17.1629
      vertex 8.09017 -5.87785 -30.9017
      vertex 9.13545 -4.06737 -30.9017
    endloop
  endfacet
  facet normal -0.406737 -0.913545 -9.27902e-09
    outer loop
      vertex -5 -8.66025 -30.9017
      vertex -4.06614 -9.07604 -10
      vertex -5 -8.66025 -10
    endloop
  endfacet
  facet normal -0.406737 -0.913545 -1.79119e-08
    outer loop
      vertex -4.06614 -9.07604 -10
      vertex -5 -8.66025 -30.9017
      vertex -3.09017 -9.51056 -30.9017
    endloop
  endfacet
  facet normal -0.951057 -0.309017 0
    outer loop
      vertex -9.13545 -4.06737 -30.9017
      vertex -9.78148 -2.07912 -10
      vertex -9.78148 -2.07912 -30.9017
    endloop
  endfacet
  facet normal -0.951057 -0.309017 0
    outer loop
      vertex -9.78148 -2.07912 -10
      vertex -9.13545 -4.06737 -30.9017
      vertex -9.13545 -4.06737 -10
    endloop
  endfacet
  facet normal -0.207911 -0.978148 0
    outer loop
      vertex -3.09017 -9.51056 -30.9017
      vertex -1.04528 -9.94522 -10
      vertex -3.09017 -9.51056 -10
    endloop
  endfacet
  facet normal -0.207911 -0.978148 -0
    outer loop
      vertex -1.04528 -9.94522 -10
      vertex -3.09017 -9.51056 -30.9017
      vertex -1.04528 -9.94522 -30.9017
    endloop
  endfacet
  facet normal 0 -1 0
    outer loop
      vertex -1.04528 -9.94522 -30.9017
      vertex 1.04528 -9.94522 -10
      vertex -1.04528 -9.94522 -10
    endloop
  endfacet
  facet normal 0 -1 -0
    outer loop
      vertex 1.04528 -9.94522 -10
      vertex -1.04528 -9.94522 -30.9017
      vertex 1.04528 -9.94522 -30.9017
    endloop
  endfacet
  facet normal 0.994522 0.104529 0
    outer loop
      vertex 9.88872 1.0588 -15.7884
      vertex 9.78148 2.07912 -30.9017
      vertex 9.78148 2.07912 -14.9226
    endloop
  endfacet
  facet normal 0.994522 0.104529 -2.50513e-08
    outer loop
      vertex 10 2.44339e-16 -16.4036
      vertex 9.78148 2.07912 -30.9017
      vertex 9.88872 1.0588 -15.7884
    endloop
  endfacet
  facet normal 0.994522 0.104529 -3.66297e-18
    outer loop
      vertex 9.78148 2.07912 -30.9017
      vertex 10 2.44339e-16 -16.4036
      vertex 10 -7.08355e-17 -30.9017
    endloop
  endfacet
  facet normal 0.866025 0.5 0
    outer loop
      vertex 8.5849 5.02095 -11.5424
      vertex 8.09017 5.87785 -30.9017
      vertex 8.09017 5.87785 -10.066
    endloop
  endfacet
  facet normal 0.866026 0.5 -2.35198e-08
    outer loop
      vertex 9.13545 4.06737 -12.7806
      vertex 8.09017 5.87785 -30.9017
      vertex 8.5849 5.02095 -11.5424
    endloop
  endfacet
  facet normal 0.866026 0.5 0
    outer loop
      vertex 8.09017 5.87785 -30.9017
      vertex 9.13545 4.06737 -12.7806
      vertex 9.13545 4.06737 -30.9017
    endloop
  endfacet
  facet normal 0.587785 0.809017 1.34093e-08
    outer loop
      vertex 5 8.66025 -10
      vertex 5.8643 8.03231 -10
      vertex 5 8.66025 -30.9017
    endloop
  endfacet
  facet normal 0.207911 -0.978148 -1.74902e-07
    outer loop
      vertex 1.04528 -9.94522 -10
      vertex 3.09017 -9.51056 -10.0802
      vertex 3.02957 -9.52345 -10
    endloop
  endfacet
  facet normal 0.207911 -0.978148 0
    outer loop
      vertex 1.04528 -9.94522 -30.9017
      vertex 3.09017 -9.51056 -10.0802
      vertex 1.04528 -9.94522 -10
    endloop
  endfacet
  facet normal 0.207911 -0.978148 0
    outer loop
      vertex 3.09017 -9.51056 -10.0802
      vertex 1.04528 -9.94522 -30.9017
      vertex 3.09017 -9.51056 -30.9017
    endloop
  endfacet
  facet normal 0.743145 -0.669131 -1.60216e-08
    outer loop
      vertex 6.69131 -7.43145 -30.9017
      vertex 8.09017 -5.87785 -16.409
      vertex 7.37104 -6.67652 -15.7885
    endloop
  endfacet
  facet normal 0.743144 -0.669131 0
    outer loop
      vertex 6.69131 -7.43145 -30.9017
      vertex 7.37104 -6.67652 -15.7885
      vertex 6.69131 -7.43145 -14.9314
    endloop
  endfacet
  facet normal 0.743145 -0.669131 0
    outer loop
      vertex 8.09017 -5.87785 -16.409
      vertex 6.69131 -7.43145 -30.9017
      vertex 8.09017 -5.87785 -30.9017
    endloop
  endfacet
  facet normal 0.994522 -0.104529 1.84311e-18
    outer loop
      vertex 9.89143 -1.033 -16.9097
      vertex 10 -7.08355e-17 -30.9017
      vertex 10 2.44339e-16 -16.4036
    endloop
  endfacet
  facet normal 0.994522 -0.104529 -2.58169e-08
    outer loop
      vertex 9.78148 -2.07912 -17.1611
      vertex 10 -7.08355e-17 -30.9017
      vertex 9.89143 -1.033 -16.9097
    endloop
  endfacet
  facet normal 0.994522 -0.104529 0
    outer loop
      vertex 10 -7.08355e-17 -30.9017
      vertex 9.78148 -2.07912 -17.1611
      vertex 9.78148 -2.07912 -30.9017
    endloop
  endfacet
  facet normal -0.406737 0.913546 0
    outer loop
      vertex -4.06614 9.07604 -10
      vertex -3.09017 9.51056 -10
      vertex -3.09017 9.51056 -30.9017
    endloop
  endfacet
  facet normal -0.207911 0.978148 0
    outer loop
      vertex -1.04528 9.94522 -30.9017
      vertex -3.09017 9.51056 -10
      vertex -1.04528 9.94522 -10
    endloop
  endfacet
  facet normal -0.207911 0.978148 0
    outer loop
      vertex -3.09017 9.51056 -10
      vertex -1.04528 9.94522 -30.9017
      vertex -3.09017 9.51056 -30.9017
    endloop
  endfacet
  facet normal -0.866026 0.5 0
    outer loop
      vertex -9.13545 4.06737 -30.9017
      vertex -8.09017 5.87785 -10
      vertex -8.09017 5.87785 -30.9017
    endloop
  endfacet
  facet normal -0.866026 0.5 0
    outer loop
      vertex -8.09017 5.87785 -10
      vertex -9.13545 4.06737 -30.9017
      vertex -9.13545 4.06737 -10
    endloop
  endfacet
  facet normal 0.951057 0.309017 0
    outer loop
      vertex 9.44772 3.1063 -13.9735
      vertex 9.13545 4.06737 -30.9017
      vertex 9.13545 4.06737 -12.7806
    endloop
  endfacet
  facet normal 0.951056 0.309017 2.79177e-08
    outer loop
      vertex 9.78148 2.07912 -14.9226
      vertex 9.13545 4.06737 -30.9017
      vertex 9.44772 3.1063 -13.9735
    endloop
  endfacet
  facet normal 0.951057 0.309017 0
    outer loop
      vertex 9.13545 4.06737 -30.9017
      vertex 9.78148 2.07912 -14.9226
      vertex 9.78148 2.07912 -30.9017
    endloop
  endfacet
  facet normal 0.406737 0.913545 8.42831e-09
    outer loop
      vertex 3.09017 9.51056 -30.9017
      vertex 4.02403 9.09478 -10
      vertex 5 8.66025 -30.9017
    endloop
  endfacet
  facet normal 0.406737 0.913545 0
    outer loop
      vertex 4.02403 9.09478 -10
      vertex 3.09017 9.51056 -30.9017
      vertex 3.09017 9.51056 -10
    endloop
  endfacet
  facet normal 0.743144 0.669131 -5.34486e-06
    outer loop
      vertex 8.09017 5.87785 -10.066
      vertex 6.69131 7.43145 -10
      vertex 8.05604 5.91576 -10
    endloop
  endfacet
  facet normal 0.743145 0.669131 0
    outer loop
      vertex 6.69131 7.43145 -10
      vertex 8.09017 5.87785 -10.066
      vertex 6.69131 7.43145 -30.9017
    endloop
  endfacet
  facet normal 0.743145 0.669131 0
    outer loop
      vertex 6.69131 7.43145 -30.9017
      vertex 8.09017 5.87785 -10.066
      vertex 8.09017 5.87785 -30.9017
    endloop
  endfacet
  facet normal 0.406737 -0.913545 0
    outer loop
      vertex 3.09017 -9.51056 -30.9017
      vertex 3.98492 -9.1122 -11.5424
      vertex 3.09017 -9.51056 -10.0802
    endloop
  endfacet
  facet normal 0.406737 -0.913545 2.68739e-09
    outer loop
      vertex 3.09017 -9.51056 -30.9017
      vertex 5 -8.66025 -12.7924
      vertex 3.98492 -9.1122 -11.5424
    endloop
  endfacet
  facet normal 0.406737 -0.913545 0
    outer loop
      vertex 5 -8.66025 -12.7924
      vertex 3.09017 -9.51056 -30.9017
      vertex 5 -8.66025 -30.9017
    endloop
  endfacet
  facet normal 0 0 -1
    outer loop
      vertex 9.78148 -2.07912 -30.9017
      vertex 9.78148 2.07912 -30.9017
      vertex 10 -7.08355e-17 -30.9017
    endloop
  endfacet
  facet normal 0 0 -1
    outer loop
      vertex 9.13545 -4.06737 -30.9017
      vertex 9.78148 2.07912 -30.9017
      vertex 9.78148 -2.07912 -30.9017
    endloop
  endfacet
  facet normal 0 0 -1
    outer loop
      vertex 9.13545 -4.06737 -30.9017
      vertex 9.13545 4.06737 -30.9017
      vertex 9.78148 2.07912 -30.9017
    endloop
  endfacet
  facet normal 0 0 -1
    outer loop
      vertex 8.09017 -5.87785 -30.9017
      vertex 9.13545 4.06737 -30.9017
      vertex 9.13545 -4.06737 -30.9017
    endloop
  endfacet
  facet normal 0 0 -1
    outer loop
      vertex 8.09017 -5.87785 -30.9017
      vertex 8.09017 5.87785 -30.9017
      vertex 9.13545 4.06737 -30.9017
    endloop
  endfacet
  facet normal 0 0 -1
    outer loop
      vertex 6.69131 -7.43145 -30.9017
      vertex 8.09017 5.87785 -30.9017
      vertex 8.09017 -5.87785 -30.9017
    endloop
  endfacet
  facet normal 0 0 -1
    outer loop
      vertex 6.69131 -7.43145 -30.9017
      vertex 6.69131 7.43145 -30.9017
      vertex 8.09017 5.87785 -30.9017
    endloop
  endfacet
  facet normal 0 0 -1
    outer loop
      vertex 5 -8.66025 -30.9017
      vertex 6.69131 7.43145 -30.9017
      vertex 6.69131 -7.43145 -30.9017
    endloop
  endfacet
  facet normal 0 0 -1
    outer loop
      vertex 5 -8.66025 -30.9017
      vertex 5 8.66025 -30.9017
      vertex 6.69131 7.43145 -30.9017
    endloop
  endfacet
  facet normal 0 0 -1
    outer loop
      vertex 3.09017 -9.51056 -30.9017
      vertex 5 8.66025 -30.9017
      vertex 5 -8.66025 -30.9017
    endloop
  endfacet
  facet normal 0 0 -1
    outer loop
      vertex 3.09017 -9.51056 -30.9017
      vertex 3.09017 9.51056 -30.9017
      vertex 5 8.66025 -30.9017
    endloop
  endfacet
  facet normal 0 0 -1
    outer loop
      vertex 1.04528 -9.94522 -30.9017
      vertex 3.09017 9.51056 -30.9017
      vertex 3.09017 -9.51056 -30.9017
    endloop
  endfacet
  facet normal 0 0 -1
    outer loop
      vertex 1.04528 -9.94522 -30.9017
      vertex 1.04528 9.94522 -30.9017
      vertex 3.09017 9.51056 -30.9017
    endloop
  endfacet
  facet normal 0 0 -1
    outer loop
      vertex -1.04528 -9.94522 -30.9017
      vertex 1.04528 9.94522 -30.9017
      vertex 1.04528 -9.94522 -30.9017
    endloop
  endfacet
  facet normal 0 0 -1
    outer loop
      vertex -1.04528 -9.94522 -30.9017
      vertex -1.04528 9.94522 -30.9017
      vertex 1.04528 9.94522 -30.9017
    endloop
  endfacet
  facet normal 0 0 -1
    outer loop
      vertex -3.09017 -9.51056 -30.9017
      vertex -1.04528 9.94522 -30.9017
      vertex -1.04528 -9.94522 -30.9017
    endloop
  endfacet
  facet normal 0 0 -1
    outer loop
      vertex -3.09017 -9.51056 -30.9017
      vertex -3.09017 9.51056 -30.9017
      vertex -1.04528 9.94522 -30.9017
    endloop
  endfacet
  facet normal 0 0 -1
    outer loop
      vertex -5 -8.66025 -30.9017
      vertex -3.09017 9.51056 -30.9017
      vertex -3.09017 -9.51056 -30.9017
    endloop
  endfacet
  facet normal 0 0 -1
    outer loop
      vertex -5 -8.66025 -30.9017
      vertex -5 8.66025 -30.9017
      vertex -3.09017 9.51056 -30.9017
    endloop
  endfacet
  facet normal 0 0 -1
    outer loop
      vertex -6.69131 -7.43145 -30.9017
      vertex -5 8.66025 -30.9017
      vertex -5 -8.66025 -30.9017
    endloop
  endfacet
  facet normal 0 0 -1
    outer loop
      vertex -6.69131 -7.43145 -30.9017
      vertex -6.69131 7.43145 -30.9017
      vertex -5 8.66025 -30.9017
    endloop
  endfacet
  facet normal 0 0 -1
    outer loop
      vertex -8.09017 -5.87785 -30.9017
      vertex -6.69131 7.43145 -30.9017
      vertex -6.69131 -7.43145 -30.9017
    endloop
  endfacet
  facet normal 0 0 -1
    outer loop
      vertex -8.09017 -5.87785 -30.9017
      vertex -8.09017 5.87785 -30.9017
      vertex -6.69131 7.43145 -30.9017
    endloop
  endfacet
  facet normal 1.82472e-06 0 -1
    outer loop
      vertex -9.13545 -4.06737 -30.9017
      vertex -8.09017 5.87785 -30.9017
      vertex -8.09017 -5.87785 -30.9017
    endloop
  endfacet
  facet normal 1.82472e-06 0 -1
    outer loop
      vertex -9.13545 -4.06737 -30.9017
      vertex -9.13545 4.06737 -30.9017
      vertex -8.09017 5.87785 -30.9017
    endloop
  endfacet
  facet normal 0 0 -1
    outer loop
      vertex -9.78148 -2.07912 -30.9017
      vertex -9.13545 4.06737 -30.9017
      vertex -9.13545 -4.06737 -30.9017
    endloop
  endfacet
  facet normal 0 0 -1
    outer loop
      vertex -9.78148 -2.07912 -30.9017
      vertex -9.78148 2.07912 -30.9017
      vertex -9.13545 4.06737 -30.9017
    endloop
  endfacet
  facet normal 0 -0 -1
    outer loop
      vertex -9.78148 2.07912 -30.9017
      vertex -9.78148 -2.07912 -30.9017
      vertex -10 -1.27271e-15 -30.9017
    endloop
  endfacet
  facet normal -0.406737 -0.913546 0
    outer loop
      vertex -3.09017 -9.51056 -30.9017
      vertex -3.09017 -9.51056 -10
      vertex -4.06614 -9.07604 -10
    endloop
  endfacet
  facet normal -0.587785 -0.809017 -2.02973e-08
    outer loop
      vertex -5 -8.66025 -30.9017
      vertex -5.82701 -8.0594 -10
      vertex -6.69131 -7.43145 -30.9017
    endloop
  endfacet
  facet normal -0.587785 -0.809017 -1.34093e-08
    outer loop
      vertex -5.82701 -8.0594 -10
      vertex -5 -8.66025 -30.9017
      vertex -5 -8.66025 -10
    endloop
  endfacet
  facet normal -0.587785 0.809017 0
    outer loop
      vertex -6.69131 7.43145 -10
      vertex -5.82701 8.0594 -10
      vertex -6.69131 7.43145 -30.9017
    endloop
  endfacet
  facet normal -0.743145 0.669131 0
    outer loop
      vertex -8.09017 5.87785 -30.9017
      vertex -6.69131 7.43145 -10
      vertex -6.69131 7.43145 -30.9017
    endloop
  endfacet
  facet normal -0.743145 0.669131 0
    outer loop
      vertex -6.69131 7.43145 -10
      vertex -8.09017 5.87785 -30.9017
      vertex -8.09017 5.87785 -10
    endloop
  endfacet
  facet normal -0.406737 0.913545 -1.79119e-08
    outer loop
      vertex -5 8.66025 -30.9017
      vertex -4.06614 9.07604 -10
      vertex -3.09017 9.51056 -30.9017
    endloop
  endfacet
  facet normal -0.406737 0.913545 -9.27902e-09
    outer loop
      vertex -4.06614 9.07604 -10
      vertex -5 8.66025 -30.9017
      vertex -5 8.66025 -10
    endloop
  endfacet
  facet normal 0.207911 0.978148 -0
    outer loop
      vertex 3.09017 9.51056 -30.9017
      vertex 1.04528 9.94522 -10
      vertex 3.09017 9.51056 -10
    endloop
  endfacet
  facet normal 0.207911 0.978148 0
    outer loop
      vertex 1.04528 9.94522 -10
      vertex 3.09017 9.51056 -30.9017
      vertex 1.04528 9.94522 -30.9017
    endloop
  endfacet
  facet normal 0.587785 0.809017 -0
    outer loop
      vertex 6.69131 7.43145 -30.9017
      vertex 5.8643 8.03231 -10
      vertex 6.69131 7.43145 -10
    endloop
  endfacet
  facet normal 0.587785 0.809017 6.5924e-09
    outer loop
      vertex 5.8643 8.03231 -10
      vertex 6.69131 7.43145 -30.9017
      vertex 5 8.66025 -30.9017
    endloop
  endfacet
  facet normal -0.743145 -0.669131 0
    outer loop
      vertex -6.69131 -7.43145 -30.9017
      vertex -8.09017 -5.87785 -10
      vertex -8.09017 -5.87785 -30.9017
    endloop
  endfacet
  facet normal -0.743145 -0.669131 0
    outer loop
      vertex -8.09017 -5.87785 -10
      vertex -6.69131 -7.43145 -30.9017
      vertex -6.69131 -7.43145 -10
    endloop
  endfacet
  facet normal -0.587785 -0.809017 0
    outer loop
      vertex -6.69131 -7.43145 -30.9017
      vertex -5.82701 -8.0594 -10
      vertex -6.69131 -7.43145 -10
    endloop
  endfacet
  facet normal -0.866026 -0.5 0
    outer loop
      vertex -8.09017 -5.87785 -30.9017
      vertex -9.13545 -4.06737 -10
      vertex -9.13545 -4.06737 -30.9017
    endloop
  endfacet
  facet normal -0.866026 -0.5 0
    outer loop
      vertex -9.13545 -4.06737 -10
      vertex -8.09017 -5.87785 -30.9017
      vertex -8.09017 -5.87785 -10
    endloop
  endfacet
  facet normal -0.994522 -0.104529 -4.53767e-08
    outer loop
      vertex -10 -1.27271e-15 -30.9017
      vertex -9.89315 -1.01664 -10
      vertex -10 -8.18325e-16 -10
    endloop
  endfacet
  facet normal -0.994522 -0.104528 -3.35866e-08
    outer loop
      vertex -9.89315 -1.01664 -10
      vertex -10 -1.27271e-15 -30.9017
      vertex -9.78148 -2.07912 -30.9017
    endloop
  endfacet
  facet normal -0.994522 -0.104529 -0
    outer loop
      vertex -9.78148 -2.07912 -10
      vertex -9.89315 -1.01664 -10
      vertex -9.78148 -2.07912 -30.9017
    endloop
  endfacet
  facet normal 0 0 1
    outer loop
      vertex 6.69131 7.43145 -10
      vertex 7.81991 5.37139 -10
      vertex 7.99643 5.91374 -10
    endloop
  endfacet
  facet normal 0 0 1
    outer loop
      vertex 6.69131 7.43145 -10
      vertex 7.99643 5.91374 -10
      vertex 8.05604 5.91576 -10
    endloop
  endfacet
  facet normal 0 0 1
    outer loop
      vertex 4.01199 4.82872 -10
      vertex 7.81991 5.37139 -10
      vertex 6.69131 7.43145 -10
    endloop
  endfacet
  facet normal 0 0 1
    outer loop
      vertex 7.81991 5.37139 -10
      vertex 4.01199 4.82872 -10
      vertex 7.46162 4.27059 -10
    endloop
  endfacet
  facet normal 0 0 1
    outer loop
      vertex 4.01199 4.82872 -10
      vertex 6.69131 7.43145 -10
      vertex 5.8643 8.03231 -10
    endloop
  endfacet
  facet normal 0 0 1
    outer loop
      vertex 4.01199 4.82872 -10
      vertex 5.8643 8.03231 -10
      vertex 5 8.66025 -10
    endloop
  endfacet
  facet normal 0 0 1
    outer loop
      vertex 4.01199 4.82872 -10
      vertex 5 8.66025 -10
      vertex 4.02403 9.09478 -10
    endloop
  endfacet
  facet normal 0 0 1
    outer loop
      vertex 7.46162 4.27059 -10
      vertex 4.01199 4.82872 -10
      vertex 7.29544 3.76001 -10
    endloop
  endfacet
  facet normal 0 0 1
    outer loop
      vertex 3.09017 9.51056 -10
      vertex 4.01199 4.82872 -10
      vertex 4.02403 9.09478 -10
    endloop
  endfacet
  facet normal 0 0 1
    outer loop
      vertex 1.04528 9.94522 -10
      vertex 4.01199 4.82872 -10
      vertex 3.09017 9.51056 -10
    endloop
  endfacet
  facet normal -0 0 1
    outer loop
      vertex -1.04528 9.94522 -10
      vertex 4.01199 4.82872 -10
      vertex 1.04528 9.94522 -10
    endloop
  endfacet
  facet normal 0 0 1
    outer loop
      vertex 2.46449 0.0742189 -10
      vertex 5 -2.5 -10
      vertex 5.74794 -0.994483 -10
    endloop
  endfacet
  facet normal -0 0 1
    outer loop
      vertex -3.09017 9.51056 -10
      vertex 4.01199 4.82872 -10
      vertex -1.04528 9.94522 -10
    endloop
  endfacet
  facet normal -0 0 1
    outer loop
      vertex -4.06614 9.07604 -10
      vertex 4.01199 4.82872 -10
      vertex -3.09017 9.51056 -10
    endloop
  endfacet
  facet normal 0 0 1
    outer loop
      vertex 4.01199 4.82872 -10
      vertex -4.06614 9.07604 -10
      vertex 2.46449 0.0742189 -10
    endloop
  endfacet
  facet normal 0 0 1
    outer loop
      vertex -5.82701 8.0594 -10
      vertex -4.06614 9.07604 -10
      vertex -5 8.66025 -10
    endloop
  endfacet
  facet normal 0 0 1
    outer loop
      vertex 2.46449 0.0742189 -10
      vertex -5 -2.5 -10
      vertex 5 -2.5 -10
    endloop
  endfacet
  facet normal 0 0 1
    outer loop
      vertex -4.06614 9.07604 -10
      vertex -5.82701 8.0594 -10
      vertex 2.46449 0.0742189 -10
    endloop
  endfacet
  facet normal -0 0 1
    outer loop
      vertex -6.69131 7.43145 -10
      vertex -5 -2.5 -10
      vertex -5.82701 8.0594 -10
    endloop
  endfacet
  facet normal 0 0 1
    outer loop
      vertex 2.46449 0.0742189 -10
      vertex -5.82701 8.0594 -10
      vertex -5 -2.5 -10
    endloop
  endfacet
  facet normal 0 0 1
    outer loop
      vertex 5.74794 -0.994483 -10
      vertex 5 -2.5 -10
      vertex 5 -3.29243 -10
    endloop
  endfacet
  facet normal 0 0 1
    outer loop
      vertex 3.16013 -8.94519 -10
      vertex 1.04528 -9.94522 -10
      vertex 2.98361 -9.48754 -10
    endloop
  endfacet
  facet normal 0 0 1
    outer loop
      vertex 3.51842 -7.84439 -10
      vertex 1.04528 -9.94522 -10
      vertex 3.16013 -8.94519 -10
    endloop
  endfacet
  facet normal 0 0 1
    outer loop
      vertex 3.63051 -7.5 -10
      vertex 1.04528 -9.94522 -10
      vertex 3.51842 -7.84439 -10
    endloop
  endfacet
  facet normal 0 0 1
    outer loop
      vertex 3.63051 -7.5 -10
      vertex -1.04528 -9.94522 -10
      vertex 1.04528 -9.94522 -10
    endloop
  endfacet
  facet normal 0 0 1
    outer loop
      vertex -5 -7.5 -10
      vertex -1.04528 -9.94522 -10
      vertex 3.63051 -7.5 -10
    endloop
  endfacet
  facet normal 0 0 1
    outer loop
      vertex -1.04528 -9.94522 -10
      vertex -5 -7.5 -10
      vertex -3.09017 -9.51056 -10
    endloop
  endfacet
  facet normal 0 0 1
    outer loop
      vertex -3.09017 -9.51056 -10
      vertex -5 -7.5 -10
      vertex -4.06614 -9.07604 -10
    endloop
  endfacet
  facet normal 0 0 1
    outer loop
      vertex -4.06614 -9.07604 -10
      vertex -5 -7.5 -10
      vertex -5 -8.66025 -10
    endloop
  endfacet
  facet normal -0 0 1
    outer loop
      vertex -9.13545 4.06737 -10
      vertex -5 -2.5 -10
      vertex -8.09017 5.87785 -10
    endloop
  endfacet
  facet normal 0 0 1
    outer loop
      vertex -5 -7.5 -10
      vertex -5.82701 -8.0594 -10
      vertex -5 -8.66025 -10
    endloop
  endfacet
  facet normal 0 0 1
    outer loop
      vertex -5 -2.5 -10
      vertex -6.69131 7.43145 -10
      vertex -8.09017 5.87785 -10
    endloop
  endfacet
  facet normal -0 -0 1
    outer loop
      vertex -9.78148 -2.07912 -10
      vertex -5 -2.5 -10
      vertex -9.89315 -1.01664 -10
    endloop
  endfacet
  facet normal -0 0 1
    outer loop
      vertex -9.78148 2.07912 -10
      vertex -5 -2.5 -10
      vertex -9.13545 4.06737 -10
    endloop
  endfacet
  facet normal 0 -0 1
    outer loop
      vertex -9.13545 -4.06737 -10
      vertex -5 -2.5 -10
      vertex -9.78148 -2.07912 -10
    endloop
  endfacet
  facet normal -0 0 1
    outer loop
      vertex -10 -8.18325e-16 -10
      vertex -5 -2.5 -10
      vertex -9.89315 1.01664 -10
    endloop
  endfacet
  facet normal -0 -0 1
    outer loop
      vertex -6.69131 -7.43145 -10
      vertex -5 -7.5 -10
      vertex -8.09017 -5.87785 -10
    endloop
  endfacet
  facet normal 0 0 1
    outer loop
      vertex -5 -2.5 -10
      vertex -9.78148 2.07912 -10
      vertex -9.89315 1.01664 -10
    endloop
  endfacet
  facet normal 0 0 1
    outer loop
      vertex -5 -7.5 -10
      vertex -6.69131 -7.43145 -10
      vertex -5.82701 -8.0594 -10
    endloop
  endfacet
  facet normal 0 0 1
    outer loop
      vertex -5 -2.5 -10
      vertex -8.09017 -5.87785 -10
      vertex -5 -7.5 -10
    endloop
  endfacet
  facet normal 0 -0 1
    outer loop
      vertex -8.09017 -5.87785 -10
      vertex -5 -2.5 -10
      vertex -9.13545 -4.06737 -10
    endloop
  endfacet
  facet normal 0 0 1
    outer loop
      vertex -5 -2.5 -10
      vertex -10 -8.18325e-16 -10
      vertex -9.89315 -1.01664 -10
    endloop
  endfacet
  facet normal 0 0 1
    outer loop
      vertex 3.02957 -9.52345 -10
      vertex 2.98361 -9.48754 -10
      vertex 1.04528 -9.94522 -10
    endloop
  endfacet
  facet normal -3.10362e-16 -2.1739e-17 1
    outer loop
      vertex -5 -2.5 -1.60616e-15
      vertex -0.703298 -7.5 -3.81319e-16
      vertex 2.69143 -2.5 7.80969e-16
    endloop
  endfacet
  facet normal -3.10362e-16 -2.1739e-17 1
    outer loop
      vertex -0.703298 -7.5 -3.81319e-16
      vertex -5 -2.5 -1.60616e-15
      vertex -5 -7.5 -1.71485e-15
    endloop
  endfacet
  facet normal 8.00002e-08 1 4.85731e-08
    outer loop
      vertex 5 -2.5 -4.42187
      vertex 0.545716 -2.5 -6.90254
      vertex -0.753744 -2.5 -4.76232
    endloop
  endfacet
  facet normal 1.03712e-07 1 -4.80154e-09
    outer loop
      vertex 0.545716 -2.5 -6.90254
      vertex 5 -2.5 -10
      vertex -1.81253 -2.5 -8.18576
    endloop
  endfacet
  facet normal 1.07051e-07 1 -0
    outer loop
      vertex 5 -2.5 -10
      vertex 0.545716 -2.5 -6.90254
      vertex 5 -2.5 -4.42187
    endloop
  endfacet
  facet normal 8.34856e-08 1 -1.03319e-08
    outer loop
      vertex -0.753744 -2.5 -4.76232
      vertex 2.69143 -2.5 7.80969e-16
      vertex 5 -2.5 -4.42187
    endloop
  endfacet
  facet normal 9.29939e-08 1 -1.72104e-08
    outer loop
      vertex 2.69143 -2.5 7.80969e-16
      vertex -0.753744 -2.5 -4.76232
      vertex -5 -2.5 -1.60616e-15
    endloop
  endfacet
  facet normal 1.09113e-07 1 -2.83831e-09
    outer loop
      vertex -2.97019 -2.5 -5.96838
      vertex -5 -2.5 -1.60616e-15
      vertex -0.753744 -2.5 -4.76232
    endloop
  endfacet
  facet normal 1.17458e-07 1 0
    outer loop
      vertex -2.97019 -2.5 -5.96838
      vertex -5 -2.5 -10
      vertex -5 -2.5 -1.60616e-15
    endloop
  endfacet
  facet normal 5.76636e-08 1 3.0105e-08
    outer loop
      vertex -1.81253 -2.5 -8.18576
      vertex -5 -2.5 -10
      vertex -2.97019 -2.5 -5.96838
    endloop
  endfacet
  facet normal 9.53674e-08 1 -3.61373e-08
    outer loop
      vertex -5 -2.5 -10
      vertex -1.81253 -2.5 -8.18576
      vertex 5 -2.5 -10
    endloop
  endfacet
  facet normal -1 0 0
    outer loop
      vertex -5 -7.5 -10
      vertex -5 -2.5 -1.60616e-15
      vertex -5 -2.5 -10
    endloop
  endfacet
  facet normal -1 0 0
    outer loop
      vertex -5 -2.5 -1.60616e-15
      vertex -5 -7.5 -10
      vertex -5 -7.5 -1.71485e-15
    endloop
  endfacet
  facet normal -1.10977e-07 -1 0
    outer loop
      vertex -5 -7.5 -10
      vertex -0.703298 -7.5 -3.81319e-16
      vertex -5 -7.5 -1.71485e-15
    endloop
  endfacet
  facet normal -1.04473e-07 -1 -2.7948e-09
    outer loop
      vertex -0.703298 -7.5 -3.81319e-16
      vertex -5 -7.5 -10
      vertex 4.10742 -7.5 -9.21453
    endloop
  endfacet
  facet normal -1.105e-07 -1 6.70916e-08
    outer loop
      vertex 4.10742 -7.5 -9.21453
      vertex -5 -7.5 -10
      vertex 3.63051 -7.5 -10
    endloop
  endfacet
  facet normal 1 -0 0
    outer loop
      vertex 5 -4.73619 -9.22604
      vertex 5 -2.5 -10
      vertex 5 -2.5 -4.42187
    endloop
  endfacet
  facet normal 1 0 0
    outer loop
      vertex 5 -2.5 -10
      vertex 5 -4.73619 -9.22604
      vertex 5 -3.29243 -10
    endloop
  endfacet
  facet normal 1 0 -0
    outer loop
      vertex 5 -4.73619 -9.22604
      vertex 5 -2.5 -4.42187
      vertex 5 -5.76862 -8.67259
    endloop
  endfacet
  facet normal 0.759511 -0.515666 0.396525
    outer loop
      vertex -3.49917 -3.5261 -6.28956
      vertex -1.81253 -2.5 -8.18576
      vertex -2.97019 -2.5 -5.96838
    endloop
  endfacet
  facet normal 0.759511 -0.515666 0.396525
    outer loop
      vertex -1.81253 -2.5 -8.18576
      vertex -3.49917 -3.5261 -6.28956
      vertex -2.30475 -3.45478 -8.48462
    endloop
  endfacet
  facet normal 0.477767 0.0285274 -0.878023
    outer loop
      vertex 1.56423 -6.96388 -3.64606
      vertex -0.753744 -2.5 -4.76232
      vertex 2.66787 -4.82309 -2.97597
    endloop
  endfacet
  facet normal 0.477767 0.0285274 -0.878023
    outer loop
      vertex -3.49917 -3.5261 -6.28956
      vertex -0.753744 -2.5 -4.76232
      vertex 1.56423 -6.96388 -3.64606
    endloop
  endfacet
  facet normal 0.477767 0.0285277 -0.878023
    outer loop
      vertex -0.753744 -2.5 -4.76232
      vertex -3.49917 -3.5261 -6.28956
      vertex -2.97019 -2.5 -5.96838
    endloop
  endfacet
  facet normal -0.441455 -0.856315 -0.268035
    outer loop
      vertex 0.545716 -2.5 -6.90254
      vertex 2.66787 -4.82309 -2.97597
      vertex -0.753744 -2.5 -4.76232
    endloop
  endfacet
  facet normal -0.441455 -0.856315 -0.268035
    outer loop
      vertex 2.66787 -4.82309 -2.97597
      vertex 0.545716 -2.5 -6.90254
      vertex 3.86229 -4.75177 -5.17103
    endloop
  endfacet
  facet normal -0.477767 -0.0285273 0.878023
    outer loop
      vertex 0.545716 -2.5 -6.90254
      vertex 2.75865 -6.89256 -5.84111
      vertex 3.86229 -4.75177 -5.17103
    endloop
  endfacet
  facet normal -0.477767 -0.0285275 0.878023
    outer loop
      vertex -2.30475 -3.45478 -8.48462
      vertex 0.545716 -2.5 -6.90254
      vertex -1.81253 -2.5 -8.18576
    endloop
  endfacet
  facet normal -0.477767 -0.0285274 0.878023
    outer loop
      vertex 0.545716 -2.5 -6.90254
      vertex -2.30475 -3.45478 -8.48462
      vertex 2.75865 -6.89256 -5.84111
    endloop
  endfacet
  facet normal 0.441455 0.856315 0.268035
    outer loop
      vertex -2.30475 -3.45478 -8.48462
      vertex 1.56423 -6.96388 -3.64606
      vertex 2.75865 -6.89256 -5.84111
    endloop
  endfacet
  facet normal 0.441455 0.856315 0.268035
    outer loop
      vertex 1.56423 -6.96388 -3.64606
      vertex -2.30475 -3.45478 -8.48462
      vertex -3.49917 -3.5261 -6.28956
    endloop
  endfacet
  facet normal 0.440501 -0.253299 0.861277
    outer loop
      vertex 9.89143 -1.033 -16.9097
      vertex 9.68856 -2.36508 -17.1977
      vertex 9.78148 -2.07912 -17.1611
    endloop
  endfacet
  facet normal 0.440493 -0.253299 0.861281
    outer loop
      vertex 4.22792 0.810366 -13.471
      vertex 9.68856 -2.36508 -17.1977
      vertex 9.89143 -1.033 -16.9097
    endloop
  endfacet
  facet normal 0.440493 -0.253299 0.861281
    outer loop
      vertex 9.68856 -2.36508 -17.1977
      vertex 4.22792 0.810366 -13.471
      vertex 3.48053 -1.13285 -13.6603
    endloop
  endfacet
  facet normal 0.823503 -0.268035 -0.5
    outer loop
      vertex 5.11588 -0.147218 -11.4952
      vertex 4.22792 0.810366 -13.471
      vertex 5.62703 1.42321 -11.4952
    endloop
  endfacet
  facet normal 0.823503 -0.268035 -0.5
    outer loop
      vertex 4.22792 0.810366 -13.471
      vertex 5.11588 -0.147218 -11.4952
      vertex 3.48053 -1.13285 -13.6603
    endloop
  endfacet
  facet normal 0.440493 -0.253299 0.861281
    outer loop
      vertex 3.48053 -1.13285 -13.6603
      vertex 9.4569 -3.07804 -17.2889
      vertex 9.68856 -2.36508 -17.1977
    endloop
  endfacet
  facet normal 0.505193 -0.0545036 0.861283
    outer loop
      vertex 9.22522 -3.7911 -17.1981
      vertex 8.60447 -4.98707 -16.9097
      vertex 9.13545 -4.06737 -17.1629
    endloop
  endfacet
  facet normal 0.505197 -0.0545059 0.861281
    outer loop
      vertex 3.48053 -1.13285 -13.6603
      vertex 8.60447 -4.98707 -16.9097
      vertex 9.22522 -3.7911 -17.1981
    endloop
  endfacet
  facet normal 0.505197 -0.0545057 0.861281
    outer loop
      vertex 8.60447 -4.98707 -16.9097
      vertex 3.48053 -1.13285 -13.6603
      vertex 2.94094 -3.1437 -13.471
    endloop
  endfacet
  facet normal 0.823503 -0.268035 -0.5
    outer loop
      vertex 5.62703 1.42321 -11.4952
      vertex 5.15043 2.60102 -12.9115
      vertex 6.09247 2.85323 -11.4952
    endloop
  endfacet
  facet normal 0.823503 -0.268035 -0.5
    outer loop
      vertex 5.15043 2.60102 -12.9115
      vertex 5.62703 1.42321 -11.4952
      vertex 4.22792 0.810366 -13.471
    endloop
  endfacet
  facet normal 0.823503 -0.268034 -0.5
    outer loop
      vertex 2.98361 -9.48754 -10
      vertex 2.75362 -8.71143 -10.7948
      vertex 3.16013 -8.94519 -10
    endloop
  endfacet
  facet normal 0.823503 -0.268035 -0.5
    outer loop
      vertex 7.81991 5.37139 -10
      vertex 7.35368 5.42169 -10.7948
      vertex 7.99643 5.91374 -10
    endloop
  endfacet
  facet normal 0.560424 0.521275 0.643582
    outer loop
      vertex 2.56937 -7.01764 -12.0063
      vertex 5 -8.66025 -12.7924
      vertex 5.80938 -8.0722 -13.9735
    endloop
  endfacet
  facet normal 0.560424 0.521274 0.643582
    outer loop
      vertex 5 -8.66025 -12.7924
      vertex 2.56937 -7.01764 -12.0063
      vertex 3.98492 -9.1122 -11.5424
    endloop
  endfacet
  facet normal 0.560424 0.521274 0.643582
    outer loop
      vertex 3.98492 -9.1122 -11.5424
      vertex 2.56937 -7.01764 -12.0063
      vertex 2.75362 -8.71143 -10.7948
    endloop
  endfacet
  facet normal 0.823503 -0.268035 -0.5
    outer loop
      vertex 4.92707 -0.727307 -11.4952
      vertex 3.48053 -1.13285 -13.6603
      vertex 5.11588 -0.147218 -11.4952
    endloop
  endfacet
  facet normal 0.823503 -0.268035 -0.5
    outer loop
      vertex 5 -3.29243 -10
      vertex 4.92707 -0.727307 -11.4952
      vertex 5.74794 -0.994483 -10
    endloop
  endfacet
  facet normal 0.823503 -0.268035 -0.5
    outer loop
      vertex 4.92707 -0.727307 -11.4952
      vertex 5 -3.29243 -10
      vertex 3.48053 -1.13285 -13.6603
    endloop
  endfacet
  facet normal 0.823503 -0.268035 -0.5
    outer loop
      vertex 3.48053 -1.13285 -13.6603
      vertex 5 -3.29243 -10
      vertex 5 -4.73619 -9.22604
    endloop
  endfacet
  facet normal 0.0290758 -0.860252 0.509039
    outer loop
      vertex 7.99643 5.91374 -10
      vertex 8.09017 5.87785 -10.066
      vertex 8.05604 5.91576 -10
    endloop
  endfacet
  facet normal 0.029073 -0.860254 0.509036
    outer loop
      vertex 7.35368 5.42169 -10.7948
      vertex 8.09017 5.87785 -10.066
      vertex 7.99643 5.91374 -10
    endloop
  endfacet
  facet normal 0.0290717 -0.860254 0.509037
    outer loop
      vertex 8.09017 5.87785 -10.066
      vertex 7.35368 5.42169 -10.7948
      vertex 8.5849 5.02095 -11.5424
    endloop
  endfacet
  facet normal 0.823503 -0.268035 -0.5
    outer loop
      vertex 7.46162 4.27059 -10
      vertex 6.47457 4.02719 -11.4952
      vertex 6.20776 4.16085 -12.0063
    endloop
  endfacet
  facet normal 0.823503 -0.268035 -0.5
    outer loop
      vertex 6.47457 4.02719 -11.4952
      vertex 7.46162 4.27059 -10
      vertex 7.29544 3.76001 -10
    endloop
  endfacet
  facet normal 0.823503 -0.268035 -0.5
    outer loop
      vertex 6.09247 2.85323 -11.4952
      vertex 6.20776 4.16085 -12.0063
      vertex 6.47457 4.02719 -11.4952
    endloop
  endfacet
  facet normal 0.823503 -0.268035 -0.5
    outer loop
      vertex 6.20776 4.16085 -12.0063
      vertex 6.09247 2.85323 -11.4952
      vertex 5.15043 2.60102 -12.9115
    endloop
  endfacet
  facet normal 0.529852 0.678335 0.509037
    outer loop
      vertex 3.09017 -9.51056 -10.0802
      vertex 2.98361 -9.48754 -10
      vertex 3.02957 -9.52345 -10
    endloop
  endfacet
  facet normal 0.529853 0.678334 0.509037
    outer loop
      vertex 3.09017 -9.51056 -10.0802
      vertex 2.75362 -8.71143 -10.7948
      vertex 2.98361 -9.48754 -10
    endloop
  endfacet
  facet normal 0.529853 0.678334 0.509037
    outer loop
      vertex 2.75362 -8.71143 -10.7948
      vertex 3.09017 -9.51056 -10.0802
      vertex 3.98492 -9.1122 -11.5424
    endloop
  endfacet
  facet normal 0.54782 0.146668 0.823639
    outer loop
      vertex 2.94094 -3.1437 -13.471
      vertex 8.09017 -5.87785 -16.409
      vertex 8.60447 -4.98707 -16.9097
    endloop
  endfacet
  facet normal 0.547821 0.146669 0.823639
    outer loop
      vertex 8.09017 -5.87785 -16.409
      vertex 2.94094 -3.1437 -13.471
      vertex 7.37104 -6.67652 -15.7885
    endloop
  endfacet
  facet normal 0.54782 0.146668 0.823639
    outer loop
      vertex 7.37104 -6.67652 -15.7885
      vertex 2.94094 -3.1437 -13.471
      vertex 2.63273 -5.13429 -12.9115
    endloop
  endfacet
  facet normal 0.356539 -0.441019 0.823639
    outer loop
      vertex 4.22792 0.810366 -13.471
      vertex 10 2.44339e-16 -16.4036
      vertex 9.88872 1.0588 -15.7884
    endloop
  endfacet
  facet normal 0.356539 -0.44102 0.823639
    outer loop
      vertex 4.22792 0.810366 -13.471
      vertex 9.88872 1.0588 -15.7884
      vertex 5.15043 2.60102 -12.9115
    endloop
  endfacet
  facet normal 0.356539 -0.441021 0.823639
    outer loop
      vertex 10 2.44339e-16 -16.4036
      vertex 4.22792 0.810366 -13.471
      vertex 9.89143 -1.033 -16.9097
    endloop
  endfacet
  facet normal 0.823503 -0.268035 -0.5
    outer loop
      vertex 7.46162 4.27059 -10
      vertex 7.35368 5.42169 -10.7948
      vertex 7.81991 5.37139 -10
    endloop
  endfacet
  facet normal 0.823503 -0.268035 -0.5
    outer loop
      vertex 7.35368 5.42169 -10.7948
      vertex 7.46162 4.27059 -10
      vertex 6.20776 4.16085 -12.0063
    endloop
  endfacet
  facet normal 0.146232 -0.751278 0.643582
    outer loop
      vertex 6.20776 4.16085 -12.0063
      vertex 8.5849 5.02095 -11.5424
      vertex 7.35368 5.42169 -10.7948
    endloop
  endfacet
  facet normal 0.146232 -0.751278 0.643582
    outer loop
      vertex 6.20776 4.16085 -12.0063
      vertex 9.13545 4.06737 -12.7806
      vertex 8.5849 5.02095 -11.5424
    endloop
  endfacet
  facet normal 0.146232 -0.751278 0.643582
    outer loop
      vertex 9.13545 4.06737 -12.7806
      vertex 6.20776 4.16085 -12.0063
      vertex 9.44772 3.1063 -13.9735
    endloop
  endfacet
  facet normal 0.505197 -0.0545058 0.861281
    outer loop
      vertex 3.48053 -1.13285 -13.6603
      vertex 9.22522 -3.7911 -17.1981
      vertex 9.4569 -3.07804 -17.2889
    endloop
  endfacet
  facet normal 0.823503 -0.268034 -0.5
    outer loop
      vertex 3.51842 -7.84439 -10
      vertex 2.75362 -8.71143 -10.7948
      vertex 2.56937 -7.01764 -12.0063
    endloop
  endfacet
  facet normal 0.823503 -0.268035 -0.5
    outer loop
      vertex 2.75362 -8.71143 -10.7948
      vertex 3.51842 -7.84439 -10
      vertex 3.16013 -8.94519 -10
    endloop
  endfacet
  facet normal 0.257002 -0.609467 0.75
    outer loop
      vertex 5.15043 2.60102 -12.9115
      vertex 9.78148 2.07912 -14.9226
      vertex 9.44772 3.1063 -13.9735
    endloop
  endfacet
  facet normal 0.257002 -0.609467 0.75
    outer loop
      vertex 5.15043 2.60102 -12.9115
      vertex 9.44772 3.1063 -13.9735
      vertex 6.20776 4.16085 -12.0063
    endloop
  endfacet
  facet normal 0.257002 -0.609467 0.75
    outer loop
      vertex 9.78148 2.07912 -14.9226
      vertex 5.15043 2.60102 -12.9115
      vertex 9.88872 1.0588 -15.7884
    endloop
  endfacet
  facet normal 0.823503 -0.268035 -0.5
    outer loop
      vertex 4.75341 -6.24695 -8.82231
      vertex 2.63273 -5.13429 -12.9115
      vertex 2.94094 -3.1437 -13.471
    endloop
  endfacet
  facet normal 0.823503 -0.268035 -0.5
    outer loop
      vertex 2.63273 -5.13429 -12.9115
      vertex 4.75341 -6.24695 -8.82231
      vertex 4.27791 -7.16929 -9.11101
    endloop
  endfacet
  facet normal 0.823503 -0.268035 -0.5
    outer loop
      vertex 5 -4.73619 -9.22604
      vertex 2.94094 -3.1437 -13.471
      vertex 3.48053 -1.13285 -13.6603
    endloop
  endfacet
  facet normal 0.823503 -0.268035 -0.500001
    outer loop
      vertex 4.75341 -6.24695 -8.82231
      vertex 5 -4.73619 -9.22604
      vertex 5 -5.76862 -8.67259
    endloop
  endfacet
  facet normal 0.823503 -0.268035 -0.5
    outer loop
      vertex 5 -4.73619 -9.22604
      vertex 4.75341 -6.24695 -8.82231
      vertex 2.94094 -3.1437 -13.471
    endloop
  endfacet
  facet normal 0.823503 -0.268035 -0.5
    outer loop
      vertex 3.63051 -7.5 -10
      vertex 2.63273 -5.13429 -12.9115
      vertex 4.27791 -7.16929 -9.11101
    endloop
  endfacet
  facet normal 0.823503 -0.268035 -0.5
    outer loop
      vertex 3.63051 -7.5 -10
      vertex 4.27791 -7.16929 -9.11101
      vertex 4.10742 -7.5 -9.21453
    endloop
  endfacet
  facet normal 0.823503 -0.268035 -0.5
    outer loop
      vertex 2.63273 -5.13429 -12.9115
      vertex 3.63051 -7.5 -10
      vertex 2.56937 -7.01764 -12.0063
    endloop
  endfacet
  facet normal 0.823503 -0.268035 -0.5
    outer loop
      vertex 2.56937 -7.01764 -12.0063
      vertex 3.63051 -7.5 -10
      vertex 3.51842 -7.84439 -10
    endloop
  endfacet
  facet normal 0.566501 0.341432 0.75
    outer loop
      vertex 2.63273 -5.13429 -12.9115
      vertex 6.69131 -7.43145 -14.9314
      vertex 7.37104 -6.67652 -15.7885
    endloop
  endfacet
  facet normal 0.566501 0.341432 0.75
    outer loop
      vertex 6.69131 -7.43145 -14.9314
      vertex 2.63273 -5.13429 -12.9115
      vertex 5.80938 -8.0722 -13.9735
    endloop
  endfacet
  facet normal 0.566502 0.341432 0.75
    outer loop
      vertex 5.80938 -8.0722 -13.9735
      vertex 2.63273 -5.13429 -12.9115
      vertex 2.56937 -7.01764 -12.0063
    endloop
  endfacet
  facet normal 0.47545 -0.15475 0.866025
    outer loop
      vertex 4.01199 4.82872 -10
      vertex 6.09247 2.85323 -11.4952
      vertex 6.47457 4.02719 -11.4952
    endloop
  endfacet
  facet normal 0.47545 -0.15475 0.866025
    outer loop
      vertex 6.09247 2.85323 -11.4952
      vertex 4.01199 4.82872 -10
      vertex 5.62703 1.42321 -11.4952
    endloop
  endfacet
  facet normal 0.47545 -0.15475 0.866025
    outer loop
      vertex 2.46449 0.0742189 -10
      vertex 5.62703 1.42321 -11.4952
      vertex 4.01199 4.82872 -10
    endloop
  endfacet
  facet normal 0.47545 -0.15475 0.866025
    outer loop
      vertex 5.62703 1.42321 -11.4952
      vertex 2.46449 0.0742189 -10
      vertex 5.11588 -0.147218 -11.4952
    endloop
  endfacet
  facet normal 0.47545 -0.15475 0.866025
    outer loop
      vertex 5.11588 -0.147218 -11.4952
      vertex 2.46449 0.0742189 -10
      vertex 4.92707 -0.727307 -11.4952
    endloop
  endfacet
  facet normal 0.3095 0.950899 -3.53373e-08
    outer loop
      vertex 4.92707 -0.727307 -11.4952
      vertex 2.46449 0.0742189 -10
      vertex 5.74794 -0.994483 -10
    endloop
  endfacet
  facet normal -0.3095 -0.950899 -1.26952e-07
    outer loop
      vertex 4.01199 4.82872 -10
      vertex 6.47457 4.02719 -11.4952
      vertex 7.29544 3.76001 -10
    endloop
  endfacet
  facet normal 0.759511 -0.515666 0.396525
    outer loop
      vertex 2.66787 -4.82309 -2.97597
      vertex 5 -2.5 -4.42187
      vertex 2.69143 -2.5 7.80969e-16
    endloop
  endfacet
  facet normal 0.759511 -0.515666 0.396525
    outer loop
      vertex 5 -2.5 -4.42187
      vertex 2.66787 -4.82309 -2.97597
      vertex 3.86229 -4.75177 -5.17103
    endloop
  endfacet
  facet normal 0.759511 -0.515666 0.396525
    outer loop
      vertex -0.703298 -7.5 -3.81319e-16
      vertex 2.66787 -4.82309 -2.97597
      vertex 2.69143 -2.5 7.80969e-16
    endloop
  endfacet
  facet normal 0.759511 -0.515666 0.396525
    outer loop
      vertex 2.66787 -4.82309 -2.97597
      vertex -0.703298 -7.5 -3.81319e-16
      vertex 1.56423 -6.96388 -3.64606
    endloop
  endfacet
  facet normal 0.759511 -0.515666 0.396525
    outer loop
      vertex 4.10742 -7.5 -9.21453
      vertex 1.56423 -6.96388 -3.64606
      vertex -0.703298 -7.5 -3.81319e-16
    endloop
  endfacet
  facet normal 0.75951 -0.515666 0.396525
    outer loop
      vertex 1.56423 -6.96388 -3.64606
      vertex 4.10742 -7.5 -9.21453
      vertex 4.27791 -7.16929 -9.11101
    endloop
  endfacet
  facet normal 0.759511 -0.515666 0.396525
    outer loop
      vertex 3.86229 -4.75177 -5.17103
      vertex 5 -5.76862 -8.67259
      vertex 5 -2.5 -4.42187
    endloop
  endfacet
  facet normal 0.759511 -0.515666 0.396525
    outer loop
      vertex 2.75865 -6.89256 -5.84111
      vertex 5 -5.76862 -8.67259
      vertex 3.86229 -4.75177 -5.17103
    endloop
  endfacet
  facet normal 0.759511 -0.515666 0.396525
    outer loop
      vertex 5 -5.76862 -8.67259
      vertex 2.75865 -6.89256 -5.84111
      vertex 4.75341 -6.24695 -8.82231
    endloop
  endfacet
  facet normal 0.759511 -0.515666 0.396525
    outer loop
      vertex 2.75865 -6.89256 -5.84111
      vertex 4.27791 -7.16929 -9.11101
      vertex 4.75341 -6.24695 -8.82231
    endloop
  endfacet
  facet normal 0.75951 -0.515667 0.396525
    outer loop
      vertex 4.27791 -7.16929 -9.11101
      vertex 2.75865 -6.89256 -5.84111
      vertex 1.56423 -6.96388 -3.64606
    endloop
  endfacet
endsolid OpenSCAD_Model
