solid OpenSCAD_Model
  facet normal -1 -2.1739e-17 -8.8317e-17
    outer loop
      vertex -2.6757e-16 3.75 2.1066
      vertex -9.06941e-16 11.25 7.5
      vertex -4.30612e-16 11.25 2.1066
    endloop
  endfacet
  facet normal -1 -2.1739e-17 -8.8317e-17
    outer loop
      vertex -9.06941e-16 11.25 7.5
      vertex -2.6757e-16 3.75 2.1066
      vertex -7.43899e-16 3.75 7.5
    endloop
  endfacet
  facet normal 0 0 1
    outer loop
      vertex 15 11.25 7.5
      vertex -7.43899e-16 3.75 7.5
      vertex 15 3.75 7.5
    endloop
  endfacet
  facet normal 0 -0 1
    outer loop
      vertex -7.43899e-16 3.75 7.5
      vertex 15 11.25 7.5
      vertex -9.06941e-16 11.25 7.5
    endloop
  endfacet
  facet normal -1 0 0
    outer loop
      vertex 15 11.25 -7.5
      vertex 15 14.9178 -1.56793
      vertex 15 14.2658 -4.63525
    endloop
  endfacet
  facet normal -1 -0 0
    outer loop
      vertex 15 14.9178 -1.56793
      vertex 15 11.25 -7.5
      vertex 15 14.9178 1.56793
    endloop
  endfacet
  facet normal -1 0 0
    outer loop
      vertex 15 14.9178 1.56793
      vertex 15 11.25 7.5
      vertex 15 14.2658 4.63525
    endloop
  endfacet
  facet normal -1 0 0
    outer loop
      vertex 15 11.25 -7.5
      vertex 15 14.2658 -4.63525
      vertex 15 13.3722 -6.64234
    endloop
  endfacet
  facet normal -1 0 0
    outer loop
      vertex 15 11.25 -7.5
      vertex 15 13.3722 -6.64234
      vertex 15 12.9904 -7.5
    endloop
  endfacet
  facet normal -1 -0 0
    outer loop
      vertex 15 14.9178 1.56793
      vertex 15 11.25 -7.5
      vertex 15 11.25 7.5
    endloop
  endfacet
  facet normal -1 0 0
    outer loop
      vertex 15 11.25 -7.5
      vertex 15 12.9904 -7.5
      vertex 15 12.4385 -8.25953
    endloop
  endfacet
  facet normal -1 0 0
    outer loop
      vertex 15 14.2658 4.63525
      vertex 15 11.25 7.5
      vertex 15 13.884 5.49292
    endloop
  endfacet
  facet normal -1 0 0
    outer loop
      vertex 15 13.884 5.49292
      vertex 15 11.25 7.5
      vertex 15 12.9904 7.5
    endloop
  endfacet
  facet normal -1 0 0
    outer loop
      vertex 15 11.1472 -10.037
      vertex 15 11.25 -7.5
      vertex 15 12.4385 -8.25953
    endloop
  endfacet
  facet normal -1 0 0
    outer loop
      vertex 15 8.81678 -12.1353
      vertex 15 11.25 -7.5
      vertex 15 11.1472 -10.037
    endloop
  endfacet
  facet normal -1 0 0
    outer loop
      vertex 15 3.75 -7.5
      vertex 15 8.81678 -12.1353
      vertex 15 6.10105 -13.7032
    endloop
  endfacet
  facet normal -1 0 0
    outer loop
      vertex 15 8.81678 -12.1353
      vertex 15 3.75 -7.5
      vertex 15 11.25 -7.5
    endloop
  endfacet
  facet normal -1 0 0
    outer loop
      vertex 15 0.933688 -14.9019
      vertex 15 3.75 -7.5
      vertex 15 3.11868 -14.6722
    endloop
  endfacet
  facet normal -1 0 0
    outer loop
      vertex 15 3.11868 -14.6722
      vertex 15 3.75 -7.5
      vertex 15 6.10105 -13.7032
    endloop
  endfacet
  facet normal -1 0 0
    outer loop
      vertex 15 12.9904 7.5
      vertex 15 11.25 7.5
      vertex 15 11.699 9.27743
    endloop
  endfacet
  facet normal -1 0 0
    outer loop
      vertex 15 11.25 7.5
      vertex 15 11.1472 10.037
      vertex 15 11.699 9.27743
    endloop
  endfacet
  facet normal -1 0 0
    outer loop
      vertex 15 7.6113 11.5848
      vertex 15 11.1472 10.037
      vertex 15 11.25 7.5
    endloop
  endfacet
  facet normal -1 0 0
    outer loop
      vertex 15 11.1472 10.037
      vertex 15 8.87061 11.9947
      vertex 15 8.87364 12.0841
    endloop
  endfacet
  facet normal -1 0 0
    outer loop
      vertex 15 11.1472 10.037
      vertex 15 8.67531 11.9311
      vertex 15 8.87061 11.9947
    endloop
  endfacet
  facet normal -1 0 0
    outer loop
      vertex 15 11.1472 10.037
      vertex 15 8.50234 11.8748
      vertex 15 8.67531 11.9311
    endloop
  endfacet
  facet normal -1 0 0
    outer loop
      vertex 15 11.1472 10.037
      vertex 15 7.6113 11.5848
      vertex 15 8.50234 11.8748
    endloop
  endfacet
  facet normal -1 0 0
    outer loop
      vertex 15 3.75 7.5
      vertex 15 7.6113 11.5848
      vertex 15 11.25 7.5
    endloop
  endfacet
  facet normal -1 0 0
    outer loop
      vertex 15 -0.933688 -14.9019
      vertex 15 3.75 -7.5
      vertex 15 0.933688 -14.9019
    endloop
  endfacet
  facet normal -1 0 0
    outer loop
      vertex 15 -0.933688 -14.9019
      vertex 15 0.933688 -14.9019
      vertex 15 -1.22749e-15 -15
    endloop
  endfacet
  facet normal -1 0 0
    outer loop
      vertex 15 3.75 7.5
      vertex 15 -0.1761 9.05012
      vertex 15 7.6113 11.5848
    endloop
  endfacet
  facet normal -1 0 0
    outer loop
      vertex 15 -3.11868 -14.6722
      vertex 15 3.75 -7.5
      vertex 15 -0.933688 -14.9019
    endloop
  endfacet
  facet normal -1 0 0
    outer loop
      vertex 15 -6.10105 -13.7032
      vertex 15 3.75 -7.5
      vertex 15 -3.11868 -14.6722
    endloop
  endfacet
  facet normal -1 0 0
    outer loop
      vertex 15 -8.81678 -12.1353
      vertex 15 3.75 -7.5
      vertex 15 -6.10105 -13.7032
    endloop
  endfacet
  facet normal -1 0 -0
    outer loop
      vertex 15 -0.1761 9.05012
      vertex 15 3.75 -7.5
      vertex 15 -8.98584 6.18271
    endloop
  endfacet
  facet normal -1 0 0
    outer loop
      vertex 15 -11.1472 -10.037
      vertex 15 3.75 -7.5
      vertex 15 -8.81678 -12.1353
    endloop
  endfacet
  facet normal -1 0 0
    outer loop
      vertex 15 3.75 -7.5
      vertex 15 -0.1761 9.05012
      vertex 15 3.75 7.5
    endloop
  endfacet
  facet normal -1 0 0
    outer loop
      vertex 15 -12.4385 -8.25953
      vertex 15 3.75 -7.5
      vertex 15 -11.1472 -10.037
    endloop
  endfacet
  facet normal -1 0 0
    outer loop
      vertex 15 -13.3722 -6.64234
      vertex 15 3.75 -7.5
      vertex 15 -12.4385 -8.25953
    endloop
  endfacet
  facet normal -1 0 0
    outer loop
      vertex 15 3.75 -7.5
      vertex 15 -13.3722 -6.64234
      vertex 15 -8.98584 6.18271
    endloop
  endfacet
  facet normal -1 0 0
    outer loop
      vertex 15 -13.3722 -6.64234
      vertex 15 -12.4385 -8.25953
      vertex 15 -12.9904 -7.5
    endloop
  endfacet
  facet normal -1 0 0
    outer loop
      vertex 15 -14.2658 -4.63525
      vertex 15 -8.98584 6.18271
      vertex 15 -13.3722 -6.64234
    endloop
  endfacet
  facet normal -1 0 0
    outer loop
      vertex 15 -14.9178 -1.56793
      vertex 15 -8.98584 6.18271
      vertex 15 -14.2658 -4.63525
    endloop
  endfacet
  facet normal -1 0 0
    outer loop
      vertex 15 -14.9178 1.56793
      vertex 15 -10.6168 5.65185
      vertex 15 -14.9178 -1.56793
    endloop
  endfacet
  facet normal -1 0 0
    outer loop
      vertex 15 -10.6168 5.65185
      vertex 15 -14.9178 1.56793
      vertex 15 -13.8076 4.61333
    endloop
  endfacet
  facet normal -1 0 0
    outer loop
      vertex 15 -8.98584 6.18271
      vertex 15 -14.9178 -1.56793
      vertex 15 -10.6168 5.65185
    endloop
  endfacet
  facet normal -1 0 0
    outer loop
      vertex 15 -13.8076 4.61333
      vertex 15 -14.9178 1.56793
      vertex 15 -14.0395 4.53784
    endloop
  endfacet
  facet normal -1 0 0
    outer loop
      vertex 15 -14.0395 4.53784
      vertex 15 -14.9178 1.56793
      vertex 15 -14.2313 4.47541
    endloop
  endfacet
  facet normal -1 -0 0
    outer loop
      vertex 15 -14.2313 4.47541
      vertex 15 -14.9178 1.56793
      vertex 15 -14.2852 4.54436
    endloop
  endfacet
  facet normal 0 1 0
    outer loop
      vertex 15 11.25 7.5
      vertex -4.30612e-16 11.25 2.1066
      vertex -9.06941e-16 11.25 7.5
    endloop
  endfacet
  facet normal 0 1 0
    outer loop
      vertex 15 11.25 7.5
      vertex 8.4099 11.25 -6.3033
      vertex -4.30612e-16 11.25 2.1066
    endloop
  endfacet
  facet normal 0 1 -0
    outer loop
      vertex 15 11.25 -7.5
      vertex 8.4099 11.25 -6.3033
      vertex 15 11.25 7.5
    endloop
  endfacet
  facet normal 0 1 0
    outer loop
      vertex 8.4099 11.25 -6.3033
      vertex 15 11.25 -7.5
      vertex 7.2132 11.25 -7.5
    endloop
  endfacet
  facet normal 0 0 -1
    outer loop
      vertex 7.2132 3.75 -7.5
      vertex 15 11.25 -7.5
      vertex 15 3.75 -7.5
    endloop
  endfacet
  facet normal -0 0 -1
    outer loop
      vertex 15 11.25 -7.5
      vertex 7.2132 3.75 -7.5
      vertex 7.2132 11.25 -7.5
    endloop
  endfacet
  facet normal 0 -1 0
    outer loop
      vertex -2.6757e-16 3.75 2.1066
      vertex 15 3.75 7.5
      vertex -7.43899e-16 3.75 7.5
    endloop
  endfacet
  facet normal 0 -1 0
    outer loop
      vertex 8.4099 3.75 -6.3033
      vertex 15 3.75 7.5
      vertex -2.6757e-16 3.75 2.1066
    endloop
  endfacet
  facet normal 0 -1 0
    outer loop
      vertex 8.4099 3.75 -6.3033
      vertex 15 3.75 -7.5
      vertex 15 3.75 7.5
    endloop
  endfacet
  facet normal 0 -1 0
    outer loop
      vertex 15 3.75 -7.5
      vertex 8.4099 3.75 -6.3033
      vertex 7.2132 3.75 -7.5
    endloop
  endfacet
  facet normal -0.707107 0 -0.707107
    outer loop
      vertex 8.4099 3.75 -6.3033
      vertex -4.30612e-16 11.25 2.1066
      vertex 8.4099 11.25 -6.3033
    endloop
  endfacet
  facet normal -0.707107 -1.53718e-17 -0.707107
    outer loop
      vertex -4.30612e-16 11.25 2.1066
      vertex 8.4099 3.75 -6.3033
      vertex -2.6757e-16 3.75 2.1066
    endloop
  endfacet
  facet normal -0.707107 0 0.707107
    outer loop
      vertex 7.2132 3.75 -7.5
      vertex 8.4099 11.25 -6.3033
      vertex 7.2132 11.25 -7.5
    endloop
  endfacet
  facet normal -0.707107 0 0.707107
    outer loop
      vertex 8.4099 11.25 -6.3033
      vertex 7.2132 3.75 -7.5
      vertex 8.4099 3.75 -6.3033
    endloop
  endfacet
  facet normal 0 0.104528 -0.994522
    outer loop
      vertex 15 0.933688 -14.9019
      vertex 15 3.11868 -14.6722
      vertex 61.8034 3.11868 -14.6722
    endloop
  endfacet
  facet normal 2.02646e-08 0.104529 -0.994522
    outer loop
      vertex 15 0.933688 -14.9019
      vertex 61.8034 -2.24495e-15 -15
      vertex 15 -1.22749e-15 -15
    endloop
  endfacet
  facet normal 6.92663e-09 0.104528 -0.994522
    outer loop
      vertex 61.8034 -2.24495e-15 -15
      vertex 15 0.933688 -14.9019
      vertex 61.8034 3.11868 -14.6722
    endloop
  endfacet
  facet normal 3.8071e-18 0.104529 0.994522
    outer loop
      vertex 61.8034 3.11868 14.6722
      vertex 24.6053 3.66509e-16 15
      vertex 61.8034 -4.42139e-16 15
    endloop
  endfacet
  facet normal -8.87039e-09 0.104529 0.994522
    outer loop
      vertex 61.8034 3.11868 14.6722
      vertex 23.6827 1.58819 14.8331
      vertex 24.6053 3.66509e-16 15
    endloop
  endfacet
  facet normal 6.7635e-09 0.104528 0.994522
    outer loop
      vertex 61.8034 3.11868 14.6722
      vertex 23.0122 2.37827 14.75
      vertex 23.6827 1.58819 14.8331
    endloop
  endfacet
  facet normal 0 0.104529 0.994522
    outer loop
      vertex 23.0122 2.37827 14.75
      vertex 61.8034 3.11868 14.6722
      vertex 22.3838 3.11868 14.6722
    endloop
  endfacet
  facet normal -3.1266e-06 -0.978148 0.207912
    outer loop
      vertex 15 -14.9178 1.56793
      vertex 15.1204 -14.2658 4.63525
      vertex 15 -14.2852 4.54436
    endloop
  endfacet
  facet normal 0 -0.978148 0.207912
    outer loop
      vertex 61.8034 -14.9178 1.56793
      vertex 15.1204 -14.2658 4.63525
      vertex 15 -14.9178 1.56793
    endloop
  endfacet
  facet normal 0 -0.978148 0.207912
    outer loop
      vertex 15.1204 -14.2658 4.63525
      vertex 61.8034 -14.9178 1.56793
      vertex 61.8034 -14.2658 4.63525
    endloop
  endfacet
  facet normal 0 -1 0
    outer loop
      vertex 15 -14.9178 -1.56793
      vertex 61.8034 -14.9178 1.56793
      vertex 15 -14.9178 1.56793
    endloop
  endfacet
  facet normal 0 -1 -0
    outer loop
      vertex 61.8034 -14.9178 1.56793
      vertex 15 -14.9178 -1.56793
      vertex 61.8034 -14.9178 -1.56793
    endloop
  endfacet
  facet normal 0 -0.669131 0.743145
    outer loop
      vertex 24.6135 -8.81678 12.1353
      vertex 61.8034 -11.1472 10.037
      vertex 61.8034 -8.81678 12.1353
    endloop
  endfacet
  facet normal -2.28397e-08 -0.669131 0.743145
    outer loop
      vertex 23.6827 -10.0148 11.0566
      vertex 61.8034 -11.1472 10.037
      vertex 24.6135 -8.81678 12.1353
    endloop
  endfacet
  facet normal 0 -0.66913 0.743145
    outer loop
      vertex 61.8034 -11.1472 10.037
      vertex 23.6827 -10.0148 11.0566
      vertex 22.397 -11.1472 10.037
    endloop
  endfacet
  facet normal -5.98841e-09 0.809017 0.587785
    outer loop
      vertex 15 12.9904 7.5
      vertex 15 11.699 9.27743
      vertex 61.8034 12.9904 7.5
    endloop
  endfacet
  facet normal 0 0.978148 0.207912
    outer loop
      vertex 61.8034 14.9178 1.56793
      vertex 15 14.2658 4.63525
      vertex 61.8034 14.2658 4.63525
    endloop
  endfacet
  facet normal 0 0.978148 0.207912
    outer loop
      vertex 15 14.2658 4.63525
      vertex 61.8034 14.9178 1.56793
      vertex 15 14.9178 1.56793
    endloop
  endfacet
  facet normal -1.73968e-09 -0.309017 0.951057
    outer loop
      vertex 61.8034 -3.11868 14.6722
      vertex 25.9333 -4.61707 14.1854
      vertex 61.8034 -6.10105 13.7032
    endloop
  endfacet
  facet normal 0 -0.309017 0.951056
    outer loop
      vertex 25.9333 -4.61707 14.1854
      vertex 61.8034 -3.11868 14.6722
      vertex 25.7417 -3.11868 14.6722
    endloop
  endfacet
  facet normal -6.94103e-09 -0.309017 0.951056
    outer loop
      vertex 25.7972 -5.68665 13.8378
      vertex 61.8034 -6.10105 13.7032
      vertex 25.9333 -4.61707 14.1854
    endloop
  endfacet
  facet normal 0 -0.309017 0.951057
    outer loop
      vertex 61.8034 -6.10105 13.7032
      vertex 25.7972 -5.68665 13.8378
      vertex 25.7444 -6.10105 13.7032
    endloop
  endfacet
  facet normal 0 -0.669131 -0.743145
    outer loop
      vertex 15 -11.1472 -10.037
      vertex 61.8034 -8.81678 -12.1353
      vertex 61.8034 -11.1472 -10.037
    endloop
  endfacet
  facet normal -0 -0.669131 -0.743145
    outer loop
      vertex 61.8034 -8.81678 -12.1353
      vertex 15 -11.1472 -10.037
      vertex 15 -8.81678 -12.1353
    endloop
  endfacet
  facet normal 0 0.978148 -0.207912
    outer loop
      vertex 61.8034 14.2658 -4.63525
      vertex 15 14.9178 -1.56793
      vertex 61.8034 14.9178 -1.56793
    endloop
  endfacet
  facet normal 0 0.978148 -0.207912
    outer loop
      vertex 15 14.9178 -1.56793
      vertex 61.8034 14.2658 -4.63525
      vertex 15 14.2658 -4.63525
    endloop
  endfacet
  facet normal 0 1 -0
    outer loop
      vertex 61.8034 14.9178 -1.56793
      vertex 15 14.9178 1.56793
      vertex 61.8034 14.9178 1.56793
    endloop
  endfacet
  facet normal 0 1 0
    outer loop
      vertex 15 14.9178 1.56793
      vertex 61.8034 14.9178 -1.56793
      vertex 15 14.9178 -1.56793
    endloop
  endfacet
  facet normal 0 0.5 0.866025
    outer loop
      vertex 61.8034 8.81678 12.1353
      vertex 19.171 6.10105 13.7032
      vertex 61.8034 6.10105 13.7032
    endloop
  endfacet
  facet normal -1.5263e-08 0.5 0.866025
    outer loop
      vertex 61.8034 8.81678 12.1353
      vertex 17.3136 7.53143 12.8774
      vertex 19.171 6.10105 13.7032
    endloop
  endfacet
  facet normal 4.07259e-08 0.499999 0.866026
    outer loop
      vertex 61.8034 8.81678 12.1353
      vertex 17.041 7.68966 12.786
      vertex 17.3136 7.53143 12.8774
    endloop
  endfacet
  facet normal 0 0.5 0.866025
    outer loop
      vertex 17.041 7.68966 12.786
      vertex 61.8034 8.81678 12.1353
      vertex 15.099 8.81678 12.1353
    endloop
  endfacet
  facet normal 0 0.669131 0.743145
    outer loop
      vertex 61.8034 11.1472 10.037
      vertex 15.099 8.81678 12.1353
      vertex 61.8034 8.81678 12.1353
    endloop
  endfacet
  facet normal -0 0.669131 0.743145
    outer loop
      vertex 15 11.1472 10.037
      vertex 15.099 8.81678 12.1353
      vertex 61.8034 11.1472 10.037
    endloop
  endfacet
  facet normal 1.41673e-06 0.669131 0.743145
    outer loop
      vertex 15.099 8.81678 12.1353
      vertex 15 11.1472 10.037
      vertex 15 8.87364 12.0841
    endloop
  endfacet
  facet normal 0 0.309017 0.951057
    outer loop
      vertex 61.8034 6.10105 13.7032
      vertex 22.3838 3.11868 14.6722
      vertex 61.8034 3.11868 14.6722
    endloop
  endfacet
  facet normal 1.30945e-08 0.309017 0.951057
    outer loop
      vertex 61.8034 6.10105 13.7032
      vertex 20.9602 4.65945 14.1716
      vertex 22.3838 3.11868 14.6722
    endloop
  endfacet
  facet normal 0 0.309017 0.951056
    outer loop
      vertex 20.9602 4.65945 14.1716
      vertex 61.8034 6.10105 13.7032
      vertex 19.171 6.10105 13.7032
    endloop
  endfacet
  facet normal 0 0.809017 0.587785
    outer loop
      vertex 61.8034 11.1472 10.037
      vertex 15 11.699 9.27743
      vertex 15 11.1472 10.037
    endloop
  endfacet
  facet normal -1.00686e-08 0.809017 0.587785
    outer loop
      vertex 15 11.699 9.27743
      vertex 61.8034 11.1472 10.037
      vertex 61.8034 12.9904 7.5
    endloop
  endfacet
  facet normal 3.73283e-09 -0.809017 0.587785
    outer loop
      vertex 61.8034 -12.9904 7.5
      vertex 22.397 -11.1472 10.037
      vertex 21.6091 -11.6743 9.31146
    endloop
  endfacet
  facet normal 2.95e-08 -0.809017 0.587786
    outer loop
      vertex 61.8034 -12.9904 7.5
      vertex 21.6091 -11.6743 9.31146
      vertex 20.9603 -12.1083 8.71407
    endloop
  endfacet
  facet normal 0 -0.809017 0.587785
    outer loop
      vertex 61.8034 -12.9904 7.5
      vertex 20.9603 -12.1083 8.71407
      vertex 19.1886 -12.9904 7.5
    endloop
  endfacet
  facet normal 0 -0.809017 0.587785
    outer loop
      vertex 22.397 -11.1472 10.037
      vertex 61.8034 -12.9904 7.5
      vertex 61.8034 -11.1472 10.037
    endloop
  endfacet
  facet normal -1.17041e-08 -0.913545 0.406737
    outer loop
      vertex 61.8034 -14.2658 4.63525
      vertex 19.1886 -12.9904 7.5
      vertex 17.3137 -13.6683 5.97738
    endloop
  endfacet
  facet normal 0 -0.913545 0.406737
    outer loop
      vertex 61.8034 -14.2658 4.63525
      vertex 17.3137 -13.6683 5.97738
      vertex 15.1204 -14.2658 4.63525
    endloop
  endfacet
  facet normal 0 -0.913545 0.406737
    outer loop
      vertex 19.1886 -12.9904 7.5
      vertex 61.8034 -14.2658 4.63525
      vertex 61.8034 -12.9904 7.5
    endloop
  endfacet
  facet normal 0 -0.5 0.866025
    outer loop
      vertex 25.7444 -6.10105 13.7032
      vertex 61.8034 -8.81678 12.1353
      vertex 61.8034 -6.10105 13.7032
    endloop
  endfacet
  facet normal -1.52953e-08 -0.5 0.866025
    outer loop
      vertex 25.3645 -7.4806 12.9067
      vertex 61.8034 -8.81678 12.1353
      vertex 25.7444 -6.10105 13.7032
    endloop
  endfacet
  facet normal 0 -0.5 0.866026
    outer loop
      vertex 61.8034 -8.81678 12.1353
      vertex 25.3645 -7.4806 12.9067
      vertex 24.6135 -8.81678 12.1353
    endloop
  endfacet
  facet normal 0 -0.104529 0.994522
    outer loop
      vertex 61.8034 -4.42139e-16 15
      vertex 25.7417 -3.11868 14.6722
      vertex 61.8034 -3.11868 14.6722
    endloop
  endfacet
  facet normal 1.85061e-08 -0.104529 0.994522
    outer loop
      vertex 61.8034 -4.42139e-16 15
      vertex 25.3645 -1.5495 14.8371
      vertex 25.7417 -3.11868 14.6722
    endloop
  endfacet
  facet normal -1.91563e-18 -0.104528 0.994522
    outer loop
      vertex 25.3645 -1.5495 14.8371
      vertex 61.8034 -4.42139e-16 15
      vertex 24.6053 3.66509e-16 15
    endloop
  endfacet
  facet normal -0 -0.809017 -0.587785
    outer loop
      vertex 61.8034 -11.1472 -10.037
      vertex 15 -12.4385 -8.25953
      vertex 15 -11.1472 -10.037
    endloop
  endfacet
  facet normal 0 -0.309017 -0.951057
    outer loop
      vertex 15 -6.10105 -13.7032
      vertex 61.8034 -3.11868 -14.6722
      vertex 61.8034 -6.10105 -13.7032
    endloop
  endfacet
  facet normal -0 -0.309017 -0.951057
    outer loop
      vertex 61.8034 -3.11868 -14.6722
      vertex 15 -6.10105 -13.7032
      vertex 15 -3.11868 -14.6722
    endloop
  endfacet
  facet normal 0 0.669131 -0.743145
    outer loop
      vertex 15 8.81678 -12.1353
      vertex 61.8034 11.1472 -10.037
      vertex 61.8034 8.81678 -12.1353
    endloop
  endfacet
  facet normal 0 0.669131 -0.743145
    outer loop
      vertex 61.8034 11.1472 -10.037
      vertex 15 8.81678 -12.1353
      vertex 15 11.1472 -10.037
    endloop
  endfacet
  facet normal 0 0.309017 -0.951057
    outer loop
      vertex 15 3.11868 -14.6722
      vertex 61.8034 6.10105 -13.7032
      vertex 61.8034 3.11868 -14.6722
    endloop
  endfacet
  facet normal 0 0.309017 -0.951057
    outer loop
      vertex 61.8034 6.10105 -13.7032
      vertex 15 3.11868 -14.6722
      vertex 15 6.10105 -13.7032
    endloop
  endfacet
  facet normal 5.9884e-09 0.809017 -0.587785
    outer loop
      vertex 61.8034 12.9904 -7.5
      vertex 15 12.4385 -8.25953
      vertex 15 12.9904 -7.5
    endloop
  endfacet
  facet normal 1.84598e-08 0.809017 -0.587785
    outer loop
      vertex 15 12.4385 -8.25953
      vertex 61.8034 12.9904 -7.5
      vertex 61.8034 11.1472 -10.037
    endloop
  endfacet
  facet normal 0 0.913545 -0.406737
    outer loop
      vertex 15 13.3722 -6.64234
      vertex 15 14.2658 -4.63525
      vertex 61.8034 14.2658 -4.63525
    endloop
  endfacet
  facet normal 3.73778e-10 0.913545 0.406737
    outer loop
      vertex 61.8034 14.2658 4.63525
      vertex 15 13.884 5.49292
      vertex 61.8034 12.9904 7.5
    endloop
  endfacet
  facet normal 0 0.913545 0.406737
    outer loop
      vertex 15 13.884 5.49292
      vertex 61.8034 14.2658 4.63525
      vertex 15 14.2658 4.63525
    endloop
  endfacet
  facet normal -4.14387e-09 0.913545 0.406737
    outer loop
      vertex 15 13.884 5.49292
      vertex 15 12.9904 7.5
      vertex 61.8034 12.9904 7.5
    endloop
  endfacet
  facet normal 0 -0.978148 -0.207912
    outer loop
      vertex 15 -14.2658 -4.63525
      vertex 61.8034 -14.9178 -1.56793
      vertex 15 -14.9178 -1.56793
    endloop
  endfacet
  facet normal 0 -0.978148 -0.207912
    outer loop
      vertex 61.8034 -14.9178 -1.56793
      vertex 15 -14.2658 -4.63525
      vertex 61.8034 -14.2658 -4.63525
    endloop
  endfacet
  facet normal 1 0 0
    outer loop
      vertex 61.8034 14.2658 4.63525
      vertex 61.8034 14.9178 -1.56793
      vertex 61.8034 14.9178 1.56793
    endloop
  endfacet
  facet normal 1 0 0
    outer loop
      vertex 61.8034 14.2658 4.63525
      vertex 61.8034 14.2658 -4.63525
      vertex 61.8034 14.9178 -1.56793
    endloop
  endfacet
  facet normal 1 0 0
    outer loop
      vertex 61.8034 12.9904 7.5
      vertex 61.8034 14.2658 -4.63525
      vertex 61.8034 14.2658 4.63525
    endloop
  endfacet
  facet normal 1 0 0
    outer loop
      vertex 61.8034 12.9904 7.5
      vertex 61.8034 12.9904 -7.5
      vertex 61.8034 14.2658 -4.63525
    endloop
  endfacet
  facet normal 1 0 0
    outer loop
      vertex 61.8034 11.1472 10.037
      vertex 61.8034 12.9904 -7.5
      vertex 61.8034 12.9904 7.5
    endloop
  endfacet
  facet normal 1 0 0
    outer loop
      vertex 61.8034 11.1472 10.037
      vertex 61.8034 11.1472 -10.037
      vertex 61.8034 12.9904 -7.5
    endloop
  endfacet
  facet normal 1 0 0
    outer loop
      vertex 61.8034 8.81678 12.1353
      vertex 61.8034 11.1472 -10.037
      vertex 61.8034 11.1472 10.037
    endloop
  endfacet
  facet normal 1 0 0
    outer loop
      vertex 61.8034 8.81678 12.1353
      vertex 61.8034 8.81678 -12.1353
      vertex 61.8034 11.1472 -10.037
    endloop
  endfacet
  facet normal 1 0 0
    outer loop
      vertex 61.8034 6.10105 13.7032
      vertex 61.8034 8.81678 -12.1353
      vertex 61.8034 8.81678 12.1353
    endloop
  endfacet
  facet normal 1 0 0
    outer loop
      vertex 61.8034 6.10105 13.7032
      vertex 61.8034 6.10105 -13.7032
      vertex 61.8034 8.81678 -12.1353
    endloop
  endfacet
  facet normal 1 0 0
    outer loop
      vertex 61.8034 3.11868 14.6722
      vertex 61.8034 6.10105 -13.7032
      vertex 61.8034 6.10105 13.7032
    endloop
  endfacet
  facet normal 1 0 0
    outer loop
      vertex 61.8034 3.11868 14.6722
      vertex 61.8034 3.11868 -14.6722
      vertex 61.8034 6.10105 -13.7032
    endloop
  endfacet
  facet normal 1 0 0
    outer loop
      vertex 61.8034 -4.42139e-16 15
      vertex 61.8034 3.11868 -14.6722
      vertex 61.8034 3.11868 14.6722
    endloop
  endfacet
  facet normal 1 0 0
    outer loop
      vertex 61.8034 -4.42139e-16 15
      vertex 61.8034 -2.24495e-15 -15
      vertex 61.8034 3.11868 -14.6722
    endloop
  endfacet
  facet normal 1 -0 0
    outer loop
      vertex 61.8034 -3.11868 14.6722
      vertex 61.8034 -2.24495e-15 -15
      vertex 61.8034 -4.42139e-16 15
    endloop
  endfacet
  facet normal 1 0 0
    outer loop
      vertex 61.8034 -3.11868 14.6722
      vertex 61.8034 -3.11868 -14.6722
      vertex 61.8034 -2.24495e-15 -15
    endloop
  endfacet
  facet normal 1 -0 0
    outer loop
      vertex 61.8034 -6.10105 13.7032
      vertex 61.8034 -3.11868 -14.6722
      vertex 61.8034 -3.11868 14.6722
    endloop
  endfacet
  facet normal 1 0 0
    outer loop
      vertex 61.8034 -6.10105 13.7032
      vertex 61.8034 -6.10105 -13.7032
      vertex 61.8034 -3.11868 -14.6722
    endloop
  endfacet
  facet normal 1 -0 0
    outer loop
      vertex 61.8034 -8.81678 12.1353
      vertex 61.8034 -6.10105 -13.7032
      vertex 61.8034 -6.10105 13.7032
    endloop
  endfacet
  facet normal 1 0 0
    outer loop
      vertex 61.8034 -8.81678 12.1353
      vertex 61.8034 -8.81678 -12.1353
      vertex 61.8034 -6.10105 -13.7032
    endloop
  endfacet
  facet normal 1 -0 0
    outer loop
      vertex 61.8034 -11.1472 10.037
      vertex 61.8034 -8.81678 -12.1353
      vertex 61.8034 -8.81678 12.1353
    endloop
  endfacet
  facet normal 1 0 0
    outer loop
      vertex 61.8034 -11.1472 10.037
      vertex 61.8034 -11.1472 -10.037
      vertex 61.8034 -8.81678 -12.1353
    endloop
  endfacet
  facet normal 1 -0 0
    outer loop
      vertex 61.8034 -12.9904 7.5
      vertex 61.8034 -11.1472 -10.037
      vertex 61.8034 -11.1472 10.037
    endloop
  endfacet
  facet normal 1 0 0
    outer loop
      vertex 61.8034 -12.9904 7.5
      vertex 61.8034 -12.9904 -7.5
      vertex 61.8034 -11.1472 -10.037
    endloop
  endfacet
  facet normal 1 -0 0
    outer loop
      vertex 61.8034 -14.2658 4.63525
      vertex 61.8034 -12.9904 -7.5
      vertex 61.8034 -12.9904 7.5
    endloop
  endfacet
  facet normal 1 0 0
    outer loop
      vertex 61.8034 -14.2658 4.63525
      vertex 61.8034 -14.2658 -4.63525
      vertex 61.8034 -12.9904 -7.5
    endloop
  endfacet
  facet normal 1 -0 0
    outer loop
      vertex 61.8034 -14.9178 1.56793
      vertex 61.8034 -14.2658 -4.63525
      vertex 61.8034 -14.2658 4.63525
    endloop
  endfacet
  facet normal 1 0 0
    outer loop
      vertex 61.8034 -14.2658 -4.63525
      vertex 61.8034 -14.9178 1.56793
      vertex 61.8034 -14.9178 -1.56793
    endloop
  endfacet
  facet normal 5.9884e-09 -0.809017 -0.587785
    outer loop
      vertex 15 -12.4385 -8.25953
      vertex 61.8034 -12.9904 -7.5
      vertex 15 -12.9904 -7.5
    endloop
  endfacet
  facet normal 1.84598e-08 -0.809017 -0.587785
    outer loop
      vertex 61.8034 -12.9904 -7.5
      vertex 15 -12.4385 -8.25953
      vertex 61.8034 -11.1472 -10.037
    endloop
  endfacet
  facet normal 0 -0.5 -0.866025
    outer loop
      vertex 15 -8.81678 -12.1353
      vertex 61.8034 -6.10105 -13.7032
      vertex 61.8034 -8.81678 -12.1353
    endloop
  endfacet
  facet normal -0 -0.5 -0.866025
    outer loop
      vertex 61.8034 -6.10105 -13.7032
      vertex 15 -8.81678 -12.1353
      vertex 15 -6.10105 -13.7032
    endloop
  endfacet
  facet normal 0 -0.104528 -0.994522
    outer loop
      vertex 15 -3.11868 -14.6722
      vertex 15 -0.933688 -14.9019
      vertex 61.8034 -3.11868 -14.6722
    endloop
  endfacet
  facet normal 6.92663e-09 -0.104528 -0.994522
    outer loop
      vertex 15 -0.933688 -14.9019
      vertex 61.8034 -2.24495e-15 -15
      vertex 61.8034 -3.11868 -14.6722
    endloop
  endfacet
  facet normal 2.02646e-08 -0.104529 -0.994522
    outer loop
      vertex 61.8034 -2.24495e-15 -15
      vertex 15 -0.933688 -14.9019
      vertex 15 -1.22749e-15 -15
    endloop
  endfacet
  facet normal 0 0.5 -0.866025
    outer loop
      vertex 15 6.10105 -13.7032
      vertex 61.8034 8.81678 -12.1353
      vertex 61.8034 6.10105 -13.7032
    endloop
  endfacet
  facet normal 0 0.5 -0.866025
    outer loop
      vertex 61.8034 8.81678 -12.1353
      vertex 15 6.10105 -13.7032
      vertex 15 8.81678 -12.1353
    endloop
  endfacet
  facet normal 0 0.809017 -0.587785
    outer loop
      vertex 15 11.1472 -10.037
      vertex 15 12.4385 -8.25953
      vertex 61.8034 11.1472 -10.037
    endloop
  endfacet
  facet normal 5.43273e-09 -0.913545 -0.406737
    outer loop
      vertex 15 -13.3722 -6.64234
      vertex 61.8034 -12.9904 -7.5
      vertex 61.8034 -14.2658 -4.63525
    endloop
  endfacet
  facet normal 4.14387e-09 -0.913545 -0.406737
    outer loop
      vertex 61.8034 -12.9904 -7.5
      vertex 15 -13.3722 -6.64234
      vertex 15 -12.9904 -7.5
    endloop
  endfacet
  facet normal -0 -0.913545 -0.406737
    outer loop
      vertex 61.8034 -14.2658 -4.63525
      vertex 15 -14.2658 -4.63525
      vertex 15 -13.3722 -6.64234
    endloop
  endfacet
  facet normal 5.43273e-09 0.913545 -0.406737
    outer loop
      vertex 61.8034 12.9904 -7.5
      vertex 15 13.3722 -6.64234
      vertex 61.8034 14.2658 -4.63525
    endloop
  endfacet
  facet normal 4.14387e-09 0.913545 -0.406737
    outer loop
      vertex 15 13.3722 -6.64234
      vertex 61.8034 12.9904 -7.5
      vertex 15 12.9904 -7.5
    endloop
  endfacet
  facet normal -0.861281 -0.253298 0.440494
    outer loop
      vertex 20.4904 -1.69927 5.2208
      vertex 25.3645 -1.5495 14.8371
      vertex 20.2065 1.21555 6.34188
    endloop
  endfacet
  facet normal -0.861281 -0.253299 0.440494
    outer loop
      vertex 20.4904 -1.69927 5.2208
      vertex 25.7417 -3.11868 14.6722
      vertex 25.3645 -1.5495 14.8371
    endloop
  endfacet
  facet normal -0.861281 -0.253298 0.440494
    outer loop
      vertex 25.7417 -3.11868 14.6722
      vertex 20.4904 -1.69927 5.2208
      vertex 25.9333 -4.61707 14.1854
    endloop
  endfacet
  facet normal -0.861281 -0.0545057 0.505197
    outer loop
      vertex 20.4904 -1.69927 5.2208
      vertex 25.7972 -5.68665 13.8378
      vertex 25.9333 -4.61707 14.1854
    endloop
  endfacet
  facet normal -0.861281 -0.0545062 0.505197
    outer loop
      vertex 20.2065 -4.71554 4.41142
      vertex 25.7972 -5.68665 13.8378
      vertex 20.4904 -1.69927 5.2208
    endloop
  endfacet
  facet normal -0.861281 -0.0545063 0.505197
    outer loop
      vertex 20.2065 -4.71554 4.41142
      vertex 25.7444 -6.10105 13.7032
      vertex 25.7972 -5.68665 13.8378
    endloop
  endfacet
  facet normal -0.861281 -0.0545059 0.505197
    outer loop
      vertex 25.7444 -6.10105 13.7032
      vertex 20.2065 -4.71554 4.41142
      vertex 25.3645 -7.4806 12.9067
    endloop
  endfacet
  facet normal -0.509036 -0.860254 0.029071
    outer loop
      vertex 16.1923 8.13254 11.0305
      vertex 17.3136 7.53143 12.8774
      vertex 17.041 7.68966 12.786
    endloop
  endfacet
  facet normal 0.499999 -0.268035 0.823503
    outer loop
      vertex 15 7.6113 11.5848
      vertex 16.1923 8.13254 11.0305
      vertex 15 8.50234 11.8748
    endloop
  endfacet
  facet normal 0.499999 -0.268036 0.823503
    outer loop
      vertex 16.1923 8.13254 11.0305
      vertex 15 7.6113 11.5848
      vertex 18.0094 6.24128 9.31163
    endloop
  endfacet
  facet normal 0.500001 -0.268035 0.823503
    outer loop
      vertex 20.2065 -4.71554 4.41142
      vertex 20.4904 -1.69927 5.2208
      vertex 20.2065 1.21555 6.34188
    endloop
  endfacet
  facet normal 0.5 -0.268035 0.823503
    outer loop
      vertex 15 -13.8076 4.61333
      vertex 19.3673 -7.70144 3.9491
      vertex 15 -10.6168 5.65185
    endloop
  endfacet
  facet normal 0.499998 -0.268036 0.823504
    outer loop
      vertex 20.2065 1.21555 6.34188
      vertex 19.3673 3.90153 7.72565
      vertex 18.0094 6.24128 9.31163
    endloop
  endfacet
  facet normal -0.75 -0.609467 0.257001
    outer loop
      vertex 19.3673 3.90153 7.72565
      vertex 20.9602 4.65945 14.1716
      vertex 18.0094 6.24128 9.31163
    endloop
  endfacet
  facet normal -0.75 -0.609468 0.257001
    outer loop
      vertex 19.3673 3.90153 7.72565
      vertex 22.3838 3.11868 14.6722
      vertex 20.9602 4.65945 14.1716
    endloop
  endfacet
  facet normal -0.75 -0.609467 0.257002
    outer loop
      vertex 22.3838 3.11868 14.6722
      vertex 19.3673 3.90153 7.72565
      vertex 23.0122 2.37827 14.75
    endloop
  endfacet
  facet normal 0.5 -0.268035 0.823503
    outer loop
      vertex 15 -8.98584 6.18271
      vertex 19.3673 -7.70144 3.9491
      vertex 15 -0.1761 9.05012
    endloop
  endfacet
  facet normal 0.499998 -0.268038 0.823503
    outer loop
      vertex 15 8.50234 11.8748
      vertex 16.1923 8.13254 11.0305
      vertex 15 8.67531 11.9311
    endloop
  endfacet
  facet normal 0.5 -0.268035 0.823503
    outer loop
      vertex 15 -0.1761 9.05012
      vertex 18.0094 6.24128 9.31163
      vertex 15 7.6113 11.5848
    endloop
  endfacet
  facet normal 0.5 -0.268035 0.823503
    outer loop
      vertex 18.0094 6.24128 9.31163
      vertex 15 -0.1761 9.05012
      vertex 19.3673 -7.70144 3.9491
    endloop
  endfacet
  facet normal 0.5 -0.268035 0.823503
    outer loop
      vertex 19.3673 -7.70144 3.9491
      vertex 20.2065 1.21555 6.34188
      vertex 18.0094 6.24128 9.31163
    endloop
  endfacet
  facet normal -0.643583 -0.751277 0.146232
    outer loop
      vertex 18.0094 6.24128 9.31163
      vertex 19.171 6.10105 13.7032
      vertex 17.3136 7.53143 12.8774
    endloop
  endfacet
  facet normal -0.643583 -0.751277 0.146232
    outer loop
      vertex 18.0094 6.24128 9.31163
      vertex 17.3136 7.53143 12.8774
      vertex 16.1923 8.13254 11.0305
    endloop
  endfacet
  facet normal -0.643582 -0.751278 0.146232
    outer loop
      vertex 19.171 6.10105 13.7032
      vertex 18.0094 6.24128 9.31163
      vertex 20.9602 4.65945 14.1716
    endloop
  endfacet
  facet normal 0.5 -0.268034 0.823503
    outer loop
      vertex 15 8.67531 11.9311
      vertex 16.1923 8.13254 11.0305
      vertex 15 8.87061 11.9947
    endloop
  endfacet
  facet normal -0.75 -0.609467 0.257002
    outer loop
      vertex 19.3673 3.90153 7.72565
      vertex 23.6827 1.58819 14.8331
      vertex 23.0122 2.37827 14.75
    endloop
  endfacet
  facet normal -0.823639 -0.44102 0.356539
    outer loop
      vertex 20.2065 1.21555 6.34188
      vertex 23.6827 1.58819 14.8331
      vertex 19.3673 3.90153 7.72565
    endloop
  endfacet
  facet normal -0.823639 -0.441021 0.356539
    outer loop
      vertex 20.2065 1.21555 6.34188
      vertex 24.6053 3.66509e-16 15
      vertex 23.6827 1.58819 14.8331
    endloop
  endfacet
  facet normal -0.823639 -0.44102 0.356539
    outer loop
      vertex 24.6053 3.66509e-16 15
      vertex 20.2065 1.21555 6.34188
      vertex 25.3645 -1.5495 14.8371
    endloop
  endfacet
  facet normal 0.5 -0.268035 0.823503
    outer loop
      vertex 19.3673 -7.70144 3.9491
      vertex 20.2065 -4.71554 4.41142
      vertex 20.2065 1.21555 6.34188
    endloop
  endfacet
  facet normal -0.509035 -0.860255 0.0290691
    outer loop
      vertex 15 8.87061 11.9947
      vertex 15.099 8.81678 12.1353
      vertex 15 8.87364 12.0841
    endloop
  endfacet
  facet normal -0.509037 -0.860254 0.0290709
    outer loop
      vertex 15.099 8.81678 12.1353
      vertex 15 8.87061 11.9947
      vertex 16.1923 8.13254 11.0305
    endloop
  endfacet
  facet normal -0.509037 -0.860254 0.0290711
    outer loop
      vertex 15.099 8.81678 12.1353
      vertex 16.1923 8.13254 11.0305
      vertex 17.041 7.68966 12.786
    endloop
  endfacet
  facet normal 0.5 -0.268035 0.823503
    outer loop
      vertex 15 -10.6168 5.65185
      vertex 19.3673 -7.70144 3.9491
      vertex 15 -8.98584 6.18271
    endloop
  endfacet
  facet normal -0.509037 0.678334 0.529853
    outer loop
      vertex 16.1923 -13.0671 4.13043
      vertex 15.1204 -14.2658 4.63525
      vertex 17.3137 -13.6683 5.97738
    endloop
  endfacet
  facet normal -0.509036 0.678334 0.529854
    outer loop
      vertex 15 -14.2313 4.47541
      vertex 15.1204 -14.2658 4.63525
      vertex 16.1923 -13.0671 4.13043
    endloop
  endfacet
  facet normal -0.509036 0.678334 0.529854
    outer loop
      vertex 15.1204 -14.2658 4.63525
      vertex 15 -14.2313 4.47541
      vertex 15 -14.2852 4.54436
    endloop
  endfacet
  facet normal -0.823639 0.146668 0.54782
    outer loop
      vertex 23.6827 -10.0148 11.0566
      vertex 20.2065 -4.71554 4.41142
      vertex 19.3673 -7.70144 3.9491
    endloop
  endfacet
  facet normal -0.823639 0.146668 0.54782
    outer loop
      vertex 20.2065 -4.71554 4.41142
      vertex 24.6135 -8.81678 12.1353
      vertex 25.3645 -7.4806 12.9067
    endloop
  endfacet
  facet normal -0.823639 0.146668 0.54782
    outer loop
      vertex 20.2065 -4.71554 4.41142
      vertex 23.6827 -10.0148 11.0566
      vertex 24.6135 -8.81678 12.1353
    endloop
  endfacet
  facet normal 0.499998 -0.268033 0.823505
    outer loop
      vertex 15 -14.0395 4.53784
      vertex 16.1923 -13.0671 4.13043
      vertex 18.0094 -10.5265 3.85405
    endloop
  endfacet
  facet normal 0.499998 -0.268032 0.823505
    outer loop
      vertex 16.1923 -13.0671 4.13043
      vertex 15 -14.0395 4.53784
      vertex 15 -14.2313 4.47541
    endloop
  endfacet
  facet normal 0.5 -0.268034 0.823503
    outer loop
      vertex 15 -13.8076 4.61333
      vertex 18.0094 -10.5265 3.85405
      vertex 19.3673 -7.70144 3.9491
    endloop
  endfacet
  facet normal 0.500001 -0.268036 0.823502
    outer loop
      vertex 18.0094 -10.5265 3.85405
      vertex 15 -13.8076 4.61333
      vertex 15 -14.0395 4.53784
    endloop
  endfacet
  facet normal -0.75 0.341432 0.566501
    outer loop
      vertex 21.6091 -11.6743 9.31146
      vertex 19.3673 -7.70144 3.9491
      vertex 18.0094 -10.5265 3.85405
    endloop
  endfacet
  facet normal -0.75 0.341433 0.566502
    outer loop
      vertex 19.3673 -7.70144 3.9491
      vertex 22.397 -11.1472 10.037
      vertex 23.6827 -10.0148 11.0566
    endloop
  endfacet
  facet normal -0.75 0.341433 0.566502
    outer loop
      vertex 19.3673 -7.70144 3.9491
      vertex 21.6091 -11.6743 9.31146
      vertex 22.397 -11.1472 10.037
    endloop
  endfacet
  facet normal -0.643582 0.521274 0.560424
    outer loop
      vertex 18.0094 -10.5265 3.85405
      vertex 19.1886 -12.9904 7.5
      vertex 20.9603 -12.1083 8.71407
    endloop
  endfacet
  facet normal -0.643583 0.521274 0.560424
    outer loop
      vertex 17.3137 -13.6683 5.97738
      vertex 18.0094 -10.5265 3.85405
      vertex 16.1923 -13.0671 4.13043
    endloop
  endfacet
  facet normal -0.643582 0.521274 0.560424
    outer loop
      vertex 18.0094 -10.5265 3.85405
      vertex 17.3137 -13.6683 5.97738
      vertex 19.1886 -12.9904 7.5
    endloop
  endfacet
  facet normal -0.750001 0.341431 0.566502
    outer loop
      vertex 18.0094 -10.5265 3.85405
      vertex 20.9603 -12.1083 8.71407
      vertex 21.6091 -11.6743 9.31146
    endloop
  endfacet
endsolid OpenSCAD_Model
