solid OpenSCAD_Model
  facet normal 0 0.104529 -0.994522
    outer loop
      vertex 30.9017 2.07912 -9.78148
      vertex 10 1.01664 -9.89315
      vertex 10 2.07912 -9.78148
    endloop
  endfacet
  facet normal 4.53767e-08 0.104529 -0.994522
    outer loop
      vertex 10 1.01664 -9.89315
      vertex 30.9017 -1.27271e-15 -10
      vertex 10 -8.18325e-16 -10
    endloop
  endfacet
  facet normal 3.41827e-08 0.104528 -0.994522
    outer loop
      vertex 30.9017 -1.27271e-15 -10
      vertex 10 1.01664 -9.89315
      vertex 30.9017 2.07912 -9.78148
    endloop
  endfacet
  facet normal -0 0.104529 0.994522
    outer loop
      vertex 10 2.07912 9.78148
      vertex 30.9017 -7.08354e-17 10
      vertex 30.9017 2.07912 9.78148
    endloop
  endfacet
  facet normal 2.27235e-18 0.104529 0.994522
    outer loop
      vertex 30.9017 -7.08354e-17 10
      vertex 10 2.07912 9.78148
      vertex 10 3.83546e-16 10
    endloop
  endfacet
  facet normal 0 -0.978148 0.207911
    outer loop
      vertex 10 -9.94522 1.04528
      vertex 30.9017 -9.51056 3.09017
      vertex 10 -9.51056 3.09017
    endloop
  endfacet
  facet normal 0 -0.978148 0.207911
    outer loop
      vertex 30.9017 -9.51056 3.09017
      vertex 10 -9.94522 1.04528
      vertex 30.9017 -9.94522 1.04528
    endloop
  endfacet
  facet normal 0 1 -0
    outer loop
      vertex 30.9017 9.94522 -1.04528
      vertex 10 9.94522 1.04528
      vertex 30.9017 9.94522 1.04528
    endloop
  endfacet
  facet normal 0 1 0
    outer loop
      vertex 10 9.94522 1.04528
      vertex 30.9017 9.94522 -1.04528
      vertex 10 9.94522 -1.04528
    endloop
  endfacet
  facet normal 0 -0.5 0.866026
    outer loop
      vertex 10 -4.06737 9.13545
      vertex 30.9017 -5.87785 8.09017
      vertex 30.9017 -4.06737 9.13545
    endloop
  endfacet
  facet normal 0 -0.5 0.866026
    outer loop
      vertex 30.9017 -5.87785 8.09017
      vertex 10 -4.06737 9.13545
      vertex 10 -5.87785 8.09017
    endloop
  endfacet
  facet normal -0 0.669131 0.743145
    outer loop
      vertex 10 7.43145 6.69131
      vertex 30.9017 5.87785 8.09017
      vertex 30.9017 7.43145 6.69131
    endloop
  endfacet
  facet normal 0 0.669131 0.743145
    outer loop
      vertex 30.9017 5.87785 8.09017
      vertex 10 7.43145 6.69131
      vertex 10 5.87785 8.09017
    endloop
  endfacet
  facet normal -0 0.5 0.866026
    outer loop
      vertex 10 5.87785 8.09017
      vertex 30.9017 4.06737 9.13545
      vertex 30.9017 5.87785 8.09017
    endloop
  endfacet
  facet normal 0 0.5 0.866026
    outer loop
      vertex 30.9017 4.06737 9.13545
      vertex 10 5.87785 8.09017
      vertex 10 4.06737 9.13545
    endloop
  endfacet
  facet normal 0 -0.309017 0.951057
    outer loop
      vertex 10 -2.07912 9.78148
      vertex 30.9017 -4.06737 9.13545
      vertex 30.9017 -2.07912 9.78148
    endloop
  endfacet
  facet normal 0 -0.309017 0.951057
    outer loop
      vertex 30.9017 -4.06737 9.13545
      vertex 10 -2.07912 9.78148
      vertex 10 -4.06737 9.13545
    endloop
  endfacet
  facet normal 0 -1 0
    outer loop
      vertex 10 -9.94522 -1.04528
      vertex 30.9017 -9.94522 1.04528
      vertex 10 -9.94522 1.04528
    endloop
  endfacet
  facet normal 0 -1 -0
    outer loop
      vertex 30.9017 -9.94522 1.04528
      vertex 10 -9.94522 -1.04528
      vertex 30.9017 -9.94522 -1.04528
    endloop
  endfacet
  facet normal 0 0.309017 -0.951057
    outer loop
      vertex 10 2.07912 -9.78148
      vertex 30.9017 4.06737 -9.13545
      vertex 30.9017 2.07912 -9.78148
    endloop
  endfacet
  facet normal 0 0.309017 -0.951057
    outer loop
      vertex 30.9017 4.06737 -9.13545
      vertex 10 2.07912 -9.78148
      vertex 10 4.06737 -9.13545
    endloop
  endfacet
  facet normal 0 0.978148 -0.207911
    outer loop
      vertex 30.9017 9.51056 -3.09017
      vertex 10 9.94522 -1.04528
      vertex 30.9017 9.94522 -1.04528
    endloop
  endfacet
  facet normal 0 0.978148 -0.207911
    outer loop
      vertex 10 9.94522 -1.04528
      vertex 30.9017 9.51056 -3.09017
      vertex 10 9.51056 -3.09017
    endloop
  endfacet
  facet normal -0 0.309017 0.951057
    outer loop
      vertex 10 4.06737 9.13545
      vertex 30.9017 2.07912 9.78148
      vertex 30.9017 4.06737 9.13545
    endloop
  endfacet
  facet normal 0 0.309017 0.951057
    outer loop
      vertex 30.9017 2.07912 9.78148
      vertex 10 4.06737 9.13545
      vertex 10 2.07912 9.78148
    endloop
  endfacet
  facet normal 8.50707e-10 0.913545 0.406737
    outer loop
      vertex 30.9017 9.51056 3.09017
      vertex 10 9.09478 4.02403
      vertex 30.9017 8.66025 5
    endloop
  endfacet
  facet normal 0 0.913545 0.406737
    outer loop
      vertex 10 9.09478 4.02403
      vertex 30.9017 9.51056 3.09017
      vertex 10 9.51056 3.09017
    endloop
  endfacet
  facet normal 0 -0.809017 0.587786
    outer loop
      vertex 10 -7.5 6.59695
      vertex -4.29404e-16 -7.43145 6.69131
      vertex -4.19581e-16 -7.5 6.59695
    endloop
  endfacet
  facet normal 0 -0.809017 0.587786
    outer loop
      vertex -4.29404e-16 -7.43145 6.69131
      vertex 10 -7.5 6.59695
      vertex 30.9017 -7.43145 6.69131
    endloop
  endfacet
  facet normal 1.47102e-09 -0.809017 0.587785
    outer loop
      vertex 10 -8.66025 5
      vertex 30.9017 -7.43145 6.69131
      vertex 10 -7.5 6.59695
    endloop
  endfacet
  facet normal 0 -0.809017 0.587785
    outer loop
      vertex 30.9017 -7.43145 6.69131
      vertex 10 -8.66025 5
      vertex 30.9017 -8.66025 5
    endloop
  endfacet
  facet normal 0 -0.669131 0.743144
    outer loop
      vertex 10 -6.5333 7.5
      vertex 30.9017 -5.87785 8.09017
      vertex 10 -5.87785 8.09017
    endloop
  endfacet
  facet normal -6.66832e-09 -0.669131 0.743145
    outer loop
      vertex 30.9017 -5.87785 8.09017
      vertex 10 -6.5333 7.5
      vertex 30.9017 -7.43145 6.69131
    endloop
  endfacet
  facet normal 0 -0.669131 0.743145
    outer loop
      vertex 10 -6.5333 7.5
      vertex -4.29404e-16 -7.43145 6.69131
      vertex 30.9017 -7.43145 6.69131
    endloop
  endfacet
  facet normal 0 -0.669131 0.743145
    outer loop
      vertex -4.29404e-16 -7.43145 6.69131
      vertex 10 -6.5333 7.5
      vertex -5.20351e-16 -6.5333 7.5
    endloop
  endfacet
  facet normal 0 -0.913545 0.406737
    outer loop
      vertex 10 -9.51056 3.09017
      vertex 30.9017 -8.66025 5
      vertex 10 -8.66025 5
    endloop
  endfacet
  facet normal 0 -0.913545 0.406737
    outer loop
      vertex 30.9017 -8.66025 5
      vertex 10 -9.51056 3.09017
      vertex 30.9017 -9.51056 3.09017
    endloop
  endfacet
  facet normal -2.27235e-18 -0.104529 0.994522
    outer loop
      vertex 10 3.83546e-16 10
      vertex 30.9017 -2.07912 9.78148
      vertex 30.9017 -7.08354e-17 10
    endloop
  endfacet
  facet normal 0 -0.104529 0.994522
    outer loop
      vertex 30.9017 -2.07912 9.78148
      vertex 10 3.83546e-16 10
      vertex 10 -2.07912 9.78148
    endloop
  endfacet
  facet normal -6.66832e-09 -0.669131 -0.743145
    outer loop
      vertex 30.9017 -7.43145 -6.69131
      vertex 10 -6.5333 -7.5
      vertex 30.9017 -5.87785 -8.09017
    endloop
  endfacet
  facet normal 0 -0.669131 -0.743145
    outer loop
      vertex 7.52508e-16 -7.43145 -6.69131
      vertex 10 -6.5333 -7.5
      vertex 30.9017 -7.43145 -6.69131
    endloop
  endfacet
  facet normal -0 -0.669131 -0.743145
    outer loop
      vertex 10 -6.5333 -7.5
      vertex 7.52508e-16 -7.43145 -6.69131
      vertex 8.04405e-16 -6.5333 -7.5
    endloop
  endfacet
  facet normal -0 -0.669131 -0.743144
    outer loop
      vertex 30.9017 -5.87785 -8.09017
      vertex 10 -6.5333 -7.5
      vertex 10 -5.87785 -8.09017
    endloop
  endfacet
  facet normal 0 0.669131 -0.743145
    outer loop
      vertex 10 5.87785 -8.09017
      vertex 30.9017 7.43145 -6.69131
      vertex 30.9017 5.87785 -8.09017
    endloop
  endfacet
  facet normal 0 0.669131 -0.743145
    outer loop
      vertex 30.9017 7.43145 -6.69131
      vertex 10 5.87785 -8.09017
      vertex 10 7.43145 -6.69131
    endloop
  endfacet
  facet normal 0 0.809017 -0.587785
    outer loop
      vertex 30.9017 7.43145 -6.69131
      vertex 10 7.43145 -6.69131
      vertex 10 8.0594 -5.82701
    endloop
  endfacet
  facet normal 1.34093e-08 0.809017 -0.587785
    outer loop
      vertex 30.9017 8.66025 -5
      vertex 10 8.0594 -5.82701
      vertex 10 8.66025 -5
    endloop
  endfacet
  facet normal 2.02973e-08 0.809017 -0.587785
    outer loop
      vertex 10 8.0594 -5.82701
      vertex 30.9017 8.66025 -5
      vertex 30.9017 7.43145 -6.69131
    endloop
  endfacet
  facet normal 0 0.913545 -0.406737
    outer loop
      vertex 30.9017 9.51056 -3.09017
      vertex 10 9.07604 -4.06614
      vertex 10 9.51056 -3.09017
    endloop
  endfacet
  facet normal -9.27902e-09 0.913545 0.406737
    outer loop
      vertex 10 9.09478 4.02403
      vertex 10 8.66025 5
      vertex 30.9017 8.66025 5
    endloop
  endfacet
  facet normal 0 0.978148 0.207911
    outer loop
      vertex 30.9017 9.94522 1.04528
      vertex 10 9.51056 3.09017
      vertex 30.9017 9.51056 3.09017
    endloop
  endfacet
  facet normal 0 0.978148 0.207911
    outer loop
      vertex 10 9.51056 3.09017
      vertex 30.9017 9.94522 1.04528
      vertex 10 9.94522 1.04528
    endloop
  endfacet
  facet normal -1.34093e-08 0.809017 0.587785
    outer loop
      vertex 10 8.66025 5
      vertex 10 8.03231 5.8643
      vertex 30.9017 8.66025 5
    endloop
  endfacet
  facet normal 0 -0.978148 -0.207911
    outer loop
      vertex 10 -9.51056 -3.09017
      vertex 30.9017 -9.94522 -1.04528
      vertex 10 -9.94522 -1.04528
    endloop
  endfacet
  facet normal 0 -0.978148 -0.207911
    outer loop
      vertex 30.9017 -9.94522 -1.04528
      vertex 10 -9.51056 -3.09017
      vertex 30.9017 -9.51056 -3.09017
    endloop
  endfacet
  facet normal 1 0 0
    outer loop
      vertex 30.9017 9.51056 3.09017
      vertex 30.9017 9.94522 -1.04528
      vertex 30.9017 9.94522 1.04528
    endloop
  endfacet
  facet normal 1 0 0
    outer loop
      vertex 30.9017 9.51056 3.09017
      vertex 30.9017 9.51056 -3.09017
      vertex 30.9017 9.94522 -1.04528
    endloop
  endfacet
  facet normal 1 0 0
    outer loop
      vertex 30.9017 8.66025 5
      vertex 30.9017 9.51056 -3.09017
      vertex 30.9017 9.51056 3.09017
    endloop
  endfacet
  facet normal 1 0 0
    outer loop
      vertex 30.9017 8.66025 5
      vertex 30.9017 8.66025 -5
      vertex 30.9017 9.51056 -3.09017
    endloop
  endfacet
  facet normal 1 0 0
    outer loop
      vertex 30.9017 7.43145 6.69131
      vertex 30.9017 8.66025 -5
      vertex 30.9017 8.66025 5
    endloop
  endfacet
  facet normal 1 0 0
    outer loop
      vertex 30.9017 7.43145 6.69131
      vertex 30.9017 7.43145 -6.69131
      vertex 30.9017 8.66025 -5
    endloop
  endfacet
  facet normal 1 0 0
    outer loop
      vertex 30.9017 5.87785 8.09017
      vertex 30.9017 7.43145 -6.69131
      vertex 30.9017 7.43145 6.69131
    endloop
  endfacet
  facet normal 1 0 0
    outer loop
      vertex 30.9017 5.87785 8.09017
      vertex 30.9017 5.87785 -8.09017
      vertex 30.9017 7.43145 -6.69131
    endloop
  endfacet
  facet normal 1 0 0
    outer loop
      vertex 30.9017 4.06737 9.13545
      vertex 30.9017 5.87785 -8.09017
      vertex 30.9017 5.87785 8.09017
    endloop
  endfacet
  facet normal 1 0 0
    outer loop
      vertex 30.9017 4.06737 9.13545
      vertex 30.9017 4.06737 -9.13545
      vertex 30.9017 5.87785 -8.09017
    endloop
  endfacet
  facet normal 1 0 0
    outer loop
      vertex 30.9017 2.07912 9.78148
      vertex 30.9017 4.06737 -9.13545
      vertex 30.9017 4.06737 9.13545
    endloop
  endfacet
  facet normal 1 0 0
    outer loop
      vertex 30.9017 2.07912 9.78148
      vertex 30.9017 2.07912 -9.78148
      vertex 30.9017 4.06737 -9.13545
    endloop
  endfacet
  facet normal 1 0 0
    outer loop
      vertex 30.9017 -7.08354e-17 10
      vertex 30.9017 2.07912 -9.78148
      vertex 30.9017 2.07912 9.78148
    endloop
  endfacet
  facet normal 1 0 0
    outer loop
      vertex 30.9017 -7.08354e-17 10
      vertex 30.9017 -1.27271e-15 -10
      vertex 30.9017 2.07912 -9.78148
    endloop
  endfacet
  facet normal 1 -0 0
    outer loop
      vertex 30.9017 -2.07912 9.78148
      vertex 30.9017 -1.27271e-15 -10
      vertex 30.9017 -7.08354e-17 10
    endloop
  endfacet
  facet normal 1 0 0
    outer loop
      vertex 30.9017 -2.07912 9.78148
      vertex 30.9017 -2.07912 -9.78148
      vertex 30.9017 -1.27271e-15 -10
    endloop
  endfacet
  facet normal 1 -0 0
    outer loop
      vertex 30.9017 -4.06737 9.13545
      vertex 30.9017 -2.07912 -9.78148
      vertex 30.9017 -2.07912 9.78148
    endloop
  endfacet
  facet normal 1 0 0
    outer loop
      vertex 30.9017 -4.06737 9.13545
      vertex 30.9017 -4.06737 -9.13545
      vertex 30.9017 -2.07912 -9.78148
    endloop
  endfacet
  facet normal 1 -0 0
    outer loop
      vertex 30.9017 -5.87785 8.09017
      vertex 30.9017 -4.06737 -9.13545
      vertex 30.9017 -4.06737 9.13545
    endloop
  endfacet
  facet normal 1 0 0
    outer loop
      vertex 30.9017 -5.87785 8.09017
      vertex 30.9017 -5.87785 -8.09017
      vertex 30.9017 -4.06737 -9.13545
    endloop
  endfacet
  facet normal 1 -0 0
    outer loop
      vertex 30.9017 -7.43145 6.69131
      vertex 30.9017 -5.87785 -8.09017
      vertex 30.9017 -5.87785 8.09017
    endloop
  endfacet
  facet normal 1 0 0
    outer loop
      vertex 30.9017 -7.43145 6.69131
      vertex 30.9017 -7.43145 -6.69131
      vertex 30.9017 -5.87785 -8.09017
    endloop
  endfacet
  facet normal 1 -0 0
    outer loop
      vertex 30.9017 -8.66025 5
      vertex 30.9017 -7.43145 -6.69131
      vertex 30.9017 -7.43145 6.69131
    endloop
  endfacet
  facet normal 1 0 0
    outer loop
      vertex 30.9017 -8.66025 5
      vertex 30.9017 -8.66025 -5
      vertex 30.9017 -7.43145 -6.69131
    endloop
  endfacet
  facet normal 1 -0 0
    outer loop
      vertex 30.9017 -9.51056 3.09017
      vertex 30.9017 -8.66025 -5
      vertex 30.9017 -8.66025 5
    endloop
  endfacet
  facet normal 1 0 0
    outer loop
      vertex 30.9017 -9.51056 3.09017
      vertex 30.9017 -9.51056 -3.09017
      vertex 30.9017 -8.66025 -5
    endloop
  endfacet
  facet normal 1 -0 0
    outer loop
      vertex 30.9017 -9.94522 1.04528
      vertex 30.9017 -9.51056 -3.09017
      vertex 30.9017 -9.51056 3.09017
    endloop
  endfacet
  facet normal 1 0 0
    outer loop
      vertex 30.9017 -9.51056 -3.09017
      vertex 30.9017 -9.94522 1.04528
      vertex 30.9017 -9.94522 -1.04528
    endloop
  endfacet
  facet normal 1.34093e-08 -0.809017 -0.587785
    outer loop
      vertex 10 -8.0594 -5.82701
      vertex 30.9017 -8.66025 -5
      vertex 10 -8.66025 -5
    endloop
  endfacet
  facet normal 2.02973e-08 -0.809017 -0.587785
    outer loop
      vertex 30.9017 -8.66025 -5
      vertex 10 -8.0594 -5.82701
      vertex 30.9017 -7.43145 -6.69131
    endloop
  endfacet
  facet normal 0 -0.309017 -0.951057
    outer loop
      vertex 10 -4.06737 -9.13545
      vertex 30.9017 -2.07912 -9.78148
      vertex 30.9017 -4.06737 -9.13545
    endloop
  endfacet
  facet normal -0 -0.309017 -0.951057
    outer loop
      vertex 30.9017 -2.07912 -9.78148
      vertex 10 -4.06737 -9.13545
      vertex 10 -2.07912 -9.78148
    endloop
  endfacet
  facet normal 8.63287e-09 -0.913545 -0.406737
    outer loop
      vertex 10 -9.07604 -4.06614
      vertex 30.9017 -8.66025 -5
      vertex 30.9017 -9.51056 -3.09017
    endloop
  endfacet
  facet normal 9.27902e-09 -0.913545 -0.406737
    outer loop
      vertex 30.9017 -8.66025 -5
      vertex 10 -9.07604 -4.06614
      vertex 10 -8.66025 -5
    endloop
  endfacet
  facet normal -0 -0.913545 -0.406737
    outer loop
      vertex 30.9017 -9.51056 -3.09017
      vertex 10 -9.51056 -3.09017
      vertex 10 -9.07604 -4.06614
    endloop
  endfacet
  facet normal 0 0.5 -0.866026
    outer loop
      vertex 10 4.06737 -9.13545
      vertex 30.9017 5.87785 -8.09017
      vertex 30.9017 4.06737 -9.13545
    endloop
  endfacet
  facet normal 0 0.5 -0.866026
    outer loop
      vertex 30.9017 5.87785 -8.09017
      vertex 10 4.06737 -9.13545
      vertex 10 5.87785 -8.09017
    endloop
  endfacet
  facet normal 8.63287e-09 0.913545 -0.406737
    outer loop
      vertex 30.9017 8.66025 -5
      vertex 10 9.07604 -4.06614
      vertex 30.9017 9.51056 -3.09017
    endloop
  endfacet
  facet normal 9.27902e-09 0.913545 -0.406737
    outer loop
      vertex 10 9.07604 -4.06614
      vertex 30.9017 8.66025 -5
      vertex 10 8.66025 -5
    endloop
  endfacet
  facet normal 0 0.809017 0.587785
    outer loop
      vertex 30.9017 7.43145 6.69131
      vertex 10 8.03231 5.8643
      vertex 10 7.43145 6.69131
    endloop
  endfacet
  facet normal -6.5924e-09 0.809017 0.587785
    outer loop
      vertex 10 8.03231 5.8643
      vertex 30.9017 7.43145 6.69131
      vertex 30.9017 8.66025 5
    endloop
  endfacet
  facet normal 0 -0.5 -0.866026
    outer loop
      vertex 10 -5.87785 -8.09017
      vertex 30.9017 -4.06737 -9.13545
      vertex 30.9017 -5.87785 -8.09017
    endloop
  endfacet
  facet normal -0 -0.5 -0.866026
    outer loop
      vertex 30.9017 -4.06737 -9.13545
      vertex 10 -5.87785 -8.09017
      vertex 10 -4.06737 -9.13545
    endloop
  endfacet
  facet normal 7.51292e-10 -0.809017 -0.587785
    outer loop
      vertex 10 -7.5 -6.59695
      vertex 30.9017 -7.43145 -6.69131
      vertex 10 -8.0594 -5.82701
    endloop
  endfacet
  facet normal -0 -0.809017 -0.587786
    outer loop
      vertex 30.9017 -7.43145 -6.69131
      vertex 10 -7.5 -6.59695
      vertex 7.52508e-16 -7.43145 -6.69131
    endloop
  endfacet
  facet normal 0 -0.809017 -0.587786
    outer loop
      vertex 7.45665e-16 -7.5 -6.59695
      vertex 7.52508e-16 -7.43145 -6.69131
      vertex 10 -7.5 -6.59695
    endloop
  endfacet
  facet normal -0 -0.104529 -0.994522
    outer loop
      vertex 30.9017 -2.07912 -9.78148
      vertex 10 -2.07912 -9.78148
      vertex 10 -1.01664 -9.89315
    endloop
  endfacet
  facet normal 3.41827e-08 -0.104528 -0.994522
    outer loop
      vertex 10 -1.01664 -9.89315
      vertex 30.9017 -1.27271e-15 -10
      vertex 30.9017 -2.07912 -9.78148
    endloop
  endfacet
  facet normal 4.53767e-08 -0.104529 -0.994522
    outer loop
      vertex 30.9017 -1.27271e-15 -10
      vertex 10 -1.01664 -9.89315
      vertex 10 -8.18325e-16 -10
    endloop
  endfacet
  facet normal -1 0 0
    outer loop
      vertex 10 9.07604 -4.06614
      vertex 10 9.94522 -1.04528
      vertex 10 9.51056 -3.09017
    endloop
  endfacet
  facet normal -1 -0 0
    outer loop
      vertex 10 9.94522 -1.04528
      vertex 10 -2.5 -7.5
      vertex 10 9.94522 1.04528
    endloop
  endfacet
  facet normal -1 0 0
    outer loop
      vertex 10 -2.5 7.5
      vertex 10 9.94522 1.04528
      vertex 10 -2.5 -7.5
    endloop
  endfacet
  facet normal -1 0 0
    outer loop
      vertex 10 9.94522 -1.04528
      vertex 10 9.07604 -4.06614
      vertex 10 -2.5 -7.5
    endloop
  endfacet
  facet normal -1 0 0
    outer loop
      vertex 10 8.0594 -5.82701
      vertex 10 9.07604 -4.06614
      vertex 10 8.66025 -5
    endloop
  endfacet
  facet normal -1 -0 -0
    outer loop
      vertex 10 9.09478 4.02403
      vertex 10 9.94522 1.04528
      vertex 10 -2.5 7.5
    endloop
  endfacet
  facet normal -1 0 0
    outer loop
      vertex 10 9.07604 -4.06614
      vertex 10 8.0594 -5.82701
      vertex 10 -2.5 -7.5
    endloop
  endfacet
  facet normal -1 0 0
    outer loop
      vertex 10 9.94522 1.04528
      vertex 10 9.09478 4.02403
      vertex 10 9.51056 3.09017
    endloop
  endfacet
  facet normal -1 0 0
    outer loop
      vertex 10 -2.5 -7.5
      vertex 10 8.0594 -5.82701
      vertex 10 7.43145 -6.69131
    endloop
  endfacet
  facet normal -1 -0 -0
    outer loop
      vertex 10 8.03231 5.8643
      vertex 10 9.09478 4.02403
      vertex 10 -2.5 7.5
    endloop
  endfacet
  facet normal -1 0 0
    outer loop
      vertex 10 -2.5 -7.5
      vertex 10 7.43145 -6.69131
      vertex 10 5.87785 -8.09017
    endloop
  endfacet
  facet normal -1 0 0
    outer loop
      vertex 10 9.09478 4.02403
      vertex 10 8.03231 5.8643
      vertex 10 8.66025 5
    endloop
  endfacet
  facet normal -1 0 0
    outer loop
      vertex 10 -2.5 -7.5
      vertex 10 5.87785 -8.09017
      vertex 10 4.06737 -9.13545
    endloop
  endfacet
  facet normal -1 0 0
    outer loop
      vertex 10 8.03231 5.8643
      vertex 10 -2.5 7.5
      vertex 10 7.43145 6.69131
    endloop
  endfacet
  facet normal -1 0 0
    outer loop
      vertex 10 -2.5 -7.5
      vertex 10 4.06737 -9.13545
      vertex 10 2.07912 -9.78148
    endloop
  endfacet
  facet normal -1 0 0
    outer loop
      vertex 10 7.43145 6.69131
      vertex 10 -2.5 7.5
      vertex 10 5.87785 8.09017
    endloop
  endfacet
  facet normal -1 0 0
    outer loop
      vertex 10 -2.5 -7.5
      vertex 10 2.07912 -9.78148
      vertex 10 1.01664 -9.89315
    endloop
  endfacet
  facet normal -1 -0 0
    outer loop
      vertex 10 5.87785 8.09017
      vertex 10 -2.5 7.5
      vertex 10 4.06737 9.13545
    endloop
  endfacet
  facet normal -1 0 0
    outer loop
      vertex 10 -2.5 -7.5
      vertex 10 1.01664 -9.89315
      vertex 10 -8.18325e-16 -10
    endloop
  endfacet
  facet normal -1 0 0
    outer loop
      vertex 10 -2.5 -7.5
      vertex 10 -8.18325e-16 -10
      vertex 10 -1.01664 -9.89315
    endloop
  endfacet
  facet normal -1 0 0
    outer loop
      vertex 10 -2.5 -7.5
      vertex 10 -1.01664 -9.89315
      vertex 10 -2.07912 -9.78148
    endloop
  endfacet
  facet normal -1 -0 0
    outer loop
      vertex 10 4.06737 9.13545
      vertex 10 -2.5 7.5
      vertex 10 2.07912 9.78148
    endloop
  endfacet
  facet normal -1 -0 0
    outer loop
      vertex 10 2.07912 9.78148
      vertex 10 -2.5 7.5
      vertex 10 3.83546e-16 10
    endloop
  endfacet
  facet normal -1 0 0
    outer loop
      vertex 10 -4.06737 -9.13545
      vertex 10 -2.5 -7.5
      vertex 10 -2.07912 -9.78148
    endloop
  endfacet
  facet normal -1 0 0
    outer loop
      vertex 10 -5.87785 -8.09017
      vertex 10 -2.5 -7.5
      vertex 10 -4.06737 -9.13545
    endloop
  endfacet
  facet normal -1 -0 0
    outer loop
      vertex 10 -2.5 -7.5
      vertex 10 -5.87785 -8.09017
      vertex 10 -6.5333 -7.5
    endloop
  endfacet
  facet normal -1 0 0
    outer loop
      vertex 10 3.83546e-16 10
      vertex 10 -2.5 7.5
      vertex 10 -2.07912 9.78148
    endloop
  endfacet
  facet normal -1 0 0
    outer loop
      vertex 10 -2.5 7.5
      vertex 10 -4.06737 9.13545
      vertex 10 -2.07912 9.78148
    endloop
  endfacet
  facet normal -1 0 0
    outer loop
      vertex 10 -2.5 7.5
      vertex 10 -5.87785 8.09017
      vertex 10 -4.06737 9.13545
    endloop
  endfacet
  facet normal -1 0 -0
    outer loop
      vertex 10 -5.87785 8.09017
      vertex 10 -2.5 7.5
      vertex 10 -6.5333 7.5
    endloop
  endfacet
  facet normal -1 0 0
    outer loop
      vertex 10 -8.0594 -5.82701
      vertex 10 -7.5 6.59695
      vertex 10 -7.5 -6.59695
    endloop
  endfacet
  facet normal -1 0 0
    outer loop
      vertex 10 -9.07604 -4.06614
      vertex 10 -8.0594 -5.82701
      vertex 10 -8.66025 -5
    endloop
  endfacet
  facet normal -1 0 0
    outer loop
      vertex 10 -8.0594 -5.82701
      vertex 10 -9.07604 -4.06614
      vertex 10 -7.5 6.59695
    endloop
  endfacet
  facet normal -1 0 0
    outer loop
      vertex 10 -7.5 6.59695
      vertex 10 -9.07604 -4.06614
      vertex 10 -8.66025 5
    endloop
  endfacet
  facet normal -1 0 0
    outer loop
      vertex 10 -9.94522 -1.04528
      vertex 10 -9.07604 -4.06614
      vertex 10 -9.51056 -3.09017
    endloop
  endfacet
  facet normal -1 0 0
    outer loop
      vertex 10 -9.07604 -4.06614
      vertex 10 -9.51056 3.09017
      vertex 10 -8.66025 5
    endloop
  endfacet
  facet normal -1 0 0
    outer loop
      vertex 10 -9.94522 1.04528
      vertex 10 -9.07604 -4.06614
      vertex 10 -9.94522 -1.04528
    endloop
  endfacet
  facet normal -1 0 0
    outer loop
      vertex 10 -9.07604 -4.06614
      vertex 10 -9.94522 1.04528
      vertex 10 -9.51056 3.09017
    endloop
  endfacet
  facet normal -1 -2.1739e-17 -8.83171e-17
    outer loop
      vertex 7.45665e-16 -7.5 -6.59695
      vertex 7.16725e-16 -2.5 -7.5
      vertex 8.04405e-16 -6.5333 -7.5
    endloop
  endfacet
  facet normal -1 -2.1739e-17 -8.8317e-17
    outer loop
      vertex 7.16725e-16 -2.5 -7.5
      vertex 7.45665e-16 -7.5 -6.59695
      vertex -6.0803e-16 -2.5 7.5
    endloop
  endfacet
  facet normal -1 -2.17396e-17 -8.83177e-17
    outer loop
      vertex 7.45665e-16 -7.5 -6.59695
      vertex 8.04405e-16 -6.5333 -7.5
      vertex 7.52508e-16 -7.43145 -6.69131
    endloop
  endfacet
  facet normal -1 -2.1739e-17 -8.8317e-17
    outer loop
      vertex -4.19581e-16 -7.5 6.59695
      vertex -6.0803e-16 -2.5 7.5
      vertex 7.45665e-16 -7.5 -6.59695
    endloop
  endfacet
  facet normal -1 -2.1739e-17 -8.83171e-17
    outer loop
      vertex -6.0803e-16 -2.5 7.5
      vertex -4.19581e-16 -7.5 6.59695
      vertex -5.20351e-16 -6.5333 7.5
    endloop
  endfacet
  facet normal -1 -2.17384e-17 -8.83176e-17
    outer loop
      vertex -5.20351e-16 -6.5333 7.5
      vertex -4.19581e-16 -7.5 6.59695
      vertex -4.29404e-16 -7.43145 6.69131
    endloop
  endfacet
  facet normal 0 0 1
    outer loop
      vertex 10 -2.5 7.5
      vertex -5.20351e-16 -6.5333 7.5
      vertex 10 -6.5333 7.5
    endloop
  endfacet
  facet normal 0 -0 1
    outer loop
      vertex -5.20351e-16 -6.5333 7.5
      vertex 10 -2.5 7.5
      vertex -6.0803e-16 -2.5 7.5
    endloop
  endfacet
  facet normal 0 0 -1
    outer loop
      vertex 8.04405e-16 -6.5333 -7.5
      vertex 10 -2.5 -7.5
      vertex 10 -6.5333 -7.5
    endloop
  endfacet
  facet normal -0 0 -1
    outer loop
      vertex 10 -2.5 -7.5
      vertex 8.04405e-16 -6.5333 -7.5
      vertex 7.16725e-16 -2.5 -7.5
    endloop
  endfacet
  facet normal 0 -1 0
    outer loop
      vertex 7.45665e-16 -7.5 -6.59695
      vertex 10 -7.5 6.59695
      vertex -4.19581e-16 -7.5 6.59695
    endloop
  endfacet
  facet normal 0 -1 -0
    outer loop
      vertex 10 -7.5 6.59695
      vertex 7.45665e-16 -7.5 -6.59695
      vertex 10 -7.5 -6.59695
    endloop
  endfacet
  facet normal 0 1 -0
    outer loop
      vertex 10 -2.5 -7.5
      vertex -6.0803e-16 -2.5 7.5
      vertex 10 -2.5 7.5
    endloop
  endfacet
  facet normal 0 1 0
    outer loop
      vertex -6.0803e-16 -2.5 7.5
      vertex 10 -2.5 -7.5
      vertex 7.16725e-16 -2.5 -7.5
    endloop
  endfacet
endsolid OpenSCAD_Model
