solid OpenSCAD_Model
  facet normal -0.994522 0.104529 0
    outer loop
      vertex -9.89315 1.01664 -10
      vertex -9.78148 2.07912 -10
      vertex -9.78148 2.07912 -30.9017
    endloop
  endfacet
  facet normal -0.994522 0.104528 -3.41827e-08
    outer loop
      vertex -10 -1.27271e-15 -30.9017
      vertex -9.89315 1.01664 -10
      vertex -9.78148 2.07912 -30.9017
    endloop
  endfacet
  facet normal -0.994522 0.104529 -4.53767e-08
    outer loop
      vertex -9.89315 1.01664 -10
      vertex -10 -1.27271e-15 -30.9017
      vertex -10 -8.18325e-16 -10
    endloop
  endfacet
  facet normal 0.994522 0.104529 0
    outer loop
      vertex 10 3.83546e-16 -10
      vertex 9.78148 2.07912 -30.9017
      vertex 9.78148 2.07912 -10
    endloop
  endfacet
  facet normal 0.994522 0.104529 -2.54076e-18
    outer loop
      vertex 9.78148 2.07912 -30.9017
      vertex 10 3.83546e-16 -10
      vertex 10 -7.08354e-17 -30.9017
    endloop
  endfacet
  facet normal 0.207911 -0.978148 0
    outer loop
      vertex 1.04528 -9.94522 -30.9017
      vertex 3.09017 -9.51056 -10
      vertex 1.04528 -9.94522 -10
    endloop
  endfacet
  facet normal 0.207911 -0.978148 0
    outer loop
      vertex 3.09017 -9.51056 -10
      vertex 1.04528 -9.94522 -30.9017
      vertex 3.09017 -9.51056 -30.9017
    endloop
  endfacet
  facet normal 0 1 -0
    outer loop
      vertex 1.04528 9.94522 -30.9017
      vertex -1.04528 9.94522 -10
      vertex 1.04528 9.94522 -10
    endloop
  endfacet
  facet normal 0 1 0
    outer loop
      vertex -1.04528 9.94522 -10
      vertex 1.04528 9.94522 -30.9017
      vertex -1.04528 9.94522 -30.9017
    endloop
  endfacet
  facet normal 0.866026 -0.5 0
    outer loop
      vertex 8.09017 -5.87785 -10
      vertex 9.13545 -4.06737 -30.9017
      vertex 9.13545 -4.06737 -10
    endloop
  endfacet
  facet normal 0.866026 -0.5 0
    outer loop
      vertex 9.13545 -4.06737 -30.9017
      vertex 8.09017 -5.87785 -10
      vertex 8.09017 -5.87785 -30.9017
    endloop
  endfacet
  facet normal 0.743145 0.669131 0
    outer loop
      vertex 8.09017 5.87785 -10
      vertex 6.69131 7.43145 -30.9017
      vertex 6.69131 7.43145 -10
    endloop
  endfacet
  facet normal 0.743145 0.669131 0
    outer loop
      vertex 6.69131 7.43145 -30.9017
      vertex 8.09017 5.87785 -10
      vertex 8.09017 5.87785 -30.9017
    endloop
  endfacet
  facet normal 0.866026 0.5 0
    outer loop
      vertex 9.13545 4.06737 -10
      vertex 8.09017 5.87785 -30.9017
      vertex 8.09017 5.87785 -10
    endloop
  endfacet
  facet normal 0.866026 0.5 0
    outer loop
      vertex 8.09017 5.87785 -30.9017
      vertex 9.13545 4.06737 -10
      vertex 9.13545 4.06737 -30.9017
    endloop
  endfacet
  facet normal 0.951057 -0.309017 0
    outer loop
      vertex 9.13545 -4.06737 -10
      vertex 9.78148 -2.07912 -30.9017
      vertex 9.78148 -2.07912 -10
    endloop
  endfacet
  facet normal 0.951057 -0.309017 0
    outer loop
      vertex 9.78148 -2.07912 -30.9017
      vertex 9.13545 -4.06737 -10
      vertex 9.13545 -4.06737 -30.9017
    endloop
  endfacet
  facet normal 0 -1 0
    outer loop
      vertex -1.04528 -9.94522 -30.9017
      vertex 1.04528 -9.94522 -10
      vertex -1.04528 -9.94522 -10
    endloop
  endfacet
  facet normal 0 -1 -0
    outer loop
      vertex 1.04528 -9.94522 -10
      vertex -1.04528 -9.94522 -30.9017
      vertex 1.04528 -9.94522 -30.9017
    endloop
  endfacet
  facet normal -0.951057 0.309017 0
    outer loop
      vertex -9.78148 2.07912 -30.9017
      vertex -9.13545 4.06737 -10
      vertex -9.13545 4.06737 -30.9017
    endloop
  endfacet
  facet normal -0.951057 0.309017 0
    outer loop
      vertex -9.13545 4.06737 -10
      vertex -9.78148 2.07912 -30.9017
      vertex -9.78148 2.07912 -10
    endloop
  endfacet
  facet normal -0.207911 0.978148 0
    outer loop
      vertex -1.04528 9.94522 -30.9017
      vertex -3.09017 9.51056 -10
      vertex -1.04528 9.94522 -10
    endloop
  endfacet
  facet normal -0.207911 0.978148 0
    outer loop
      vertex -3.09017 9.51056 -10
      vertex -1.04528 9.94522 -30.9017
      vertex -3.09017 9.51056 -30.9017
    endloop
  endfacet
  facet normal 0.951057 0.309017 0
    outer loop
      vertex 9.78148 2.07912 -10
      vertex 9.13545 4.06737 -30.9017
      vertex 9.13545 4.06737 -10
    endloop
  endfacet
  facet normal 0.951057 0.309017 0
    outer loop
      vertex 9.13545 4.06737 -30.9017
      vertex 9.78148 2.07912 -10
      vertex 9.78148 2.07912 -30.9017
    endloop
  endfacet
  facet normal 0.406737 0.913545 -8.50707e-10
    outer loop
      vertex 3.09017 9.51056 -30.9017
      vertex 4.02403 9.09478 -10
      vertex 5 8.66025 -30.9017
    endloop
  endfacet
  facet normal 0.406737 0.913545 0
    outer loop
      vertex 4.02403 9.09478 -10
      vertex 3.09017 9.51056 -30.9017
      vertex 3.09017 9.51056 -10
    endloop
  endfacet
  facet normal 0.587785 -0.809017 0
    outer loop
      vertex 5 -8.66025 -30.9017
      vertex 6.69131 -7.43145 -10
      vertex 5 -8.66025 -10
    endloop
  endfacet
  facet normal 0.587785 -0.809017 0
    outer loop
      vertex 6.69131 -7.43145 -10
      vertex 5 -8.66025 -30.9017
      vertex 6.69131 -7.43145 -30.9017
    endloop
  endfacet
  facet normal 0.743145 -0.669131 0
    outer loop
      vertex 6.69131 -7.43145 -10
      vertex 8.09017 -5.87785 -30.9017
      vertex 8.09017 -5.87785 -10
    endloop
  endfacet
  facet normal 0.743145 -0.669131 0
    outer loop
      vertex 8.09017 -5.87785 -30.9017
      vertex 6.69131 -7.43145 -10
      vertex 6.69131 -7.43145 -30.9017
    endloop
  endfacet
  facet normal 0.406737 -0.913545 0
    outer loop
      vertex 3.09017 -9.51056 -30.9017
      vertex 5 -8.66025 -10
      vertex 3.09017 -9.51056 -10
    endloop
  endfacet
  facet normal 0.406737 -0.913545 0
    outer loop
      vertex 5 -8.66025 -10
      vertex 3.09017 -9.51056 -30.9017
      vertex 5 -8.66025 -30.9017
    endloop
  endfacet
  facet normal 0.994522 -0.104529 2.54076e-18
    outer loop
      vertex 9.78148 -2.07912 -10
      vertex 10 -7.08354e-17 -30.9017
      vertex 10 3.83546e-16 -10
    endloop
  endfacet
  facet normal 0.994522 -0.104529 0
    outer loop
      vertex 10 -7.08354e-17 -30.9017
      vertex 9.78148 -2.07912 -10
      vertex 9.78148 -2.07912 -30.9017
    endloop
  endfacet
  facet normal -0.743145 -0.669131 0
    outer loop
      vertex -6.69131 -7.43145 -30.9017
      vertex -8.09017 -5.87785 -10
      vertex -8.09017 -5.87785 -30.9017
    endloop
  endfacet
  facet normal -0.743145 -0.669131 0
    outer loop
      vertex -8.09017 -5.87785 -10
      vertex -6.69131 -7.43145 -30.9017
      vertex -6.69131 -7.43145 -10
    endloop
  endfacet
  facet normal -0.743145 0.669131 0
    outer loop
      vertex -8.09017 5.87785 -30.9017
      vertex -6.69131 7.43145 -10
      vertex -6.69131 7.43145 -30.9017
    endloop
  endfacet
  facet normal -0.743145 0.669131 0
    outer loop
      vertex -6.69131 7.43145 -10
      vertex -8.09017 5.87785 -30.9017
      vertex -8.09017 5.87785 -10
    endloop
  endfacet
  facet normal -0.587785 0.809017 0
    outer loop
      vertex -6.69131 7.43145 -10
      vertex -5.82701 8.0594 -10
      vertex -6.69131 7.43145 -30.9017
    endloop
  endfacet
  facet normal -0.587785 0.809017 -1.34093e-08
    outer loop
      vertex -5 8.66025 -30.9017
      vertex -5.82701 8.0594 -10
      vertex -5 8.66025 -10
    endloop
  endfacet
  facet normal -0.587785 0.809017 -2.02973e-08
    outer loop
      vertex -5.82701 8.0594 -10
      vertex -5 8.66025 -30.9017
      vertex -6.69131 7.43145 -30.9017
    endloop
  endfacet
  facet normal -0.406737 0.913545 0
    outer loop
      vertex -4.06614 9.07604 -10
      vertex -3.09017 9.51056 -10
      vertex -3.09017 9.51056 -30.9017
    endloop
  endfacet
  facet normal 0.406737 0.913545 9.27902e-09
    outer loop
      vertex 4.02403 9.09478 -10
      vertex 5 8.66025 -10
      vertex 5 8.66025 -30.9017
    endloop
  endfacet
  facet normal 0.207911 0.978148 -0
    outer loop
      vertex 3.09017 9.51056 -30.9017
      vertex 1.04528 9.94522 -10
      vertex 3.09017 9.51056 -10
    endloop
  endfacet
  facet normal 0.207911 0.978148 0
    outer loop
      vertex 1.04528 9.94522 -10
      vertex 3.09017 9.51056 -30.9017
      vertex 1.04528 9.94522 -30.9017
    endloop
  endfacet
  facet normal 0.587785 0.809017 1.34093e-08
    outer loop
      vertex 5 8.66025 -10
      vertex 5.8643 8.03231 -10
      vertex 5 8.66025 -30.9017
    endloop
  endfacet
  facet normal -0.207911 -0.978148 0
    outer loop
      vertex -3.09017 -9.51056 -30.9017
      vertex -1.04528 -9.94522 -10
      vertex -3.09017 -9.51056 -10
    endloop
  endfacet
  facet normal -0.207911 -0.978148 -0
    outer loop
      vertex -1.04528 -9.94522 -10
      vertex -3.09017 -9.51056 -30.9017
      vertex -1.04528 -9.94522 -30.9017
    endloop
  endfacet
  facet normal 0 0 -1
    outer loop
      vertex 9.78148 -2.07912 -30.9017
      vertex 9.78148 2.07912 -30.9017
      vertex 10 -7.08354e-17 -30.9017
    endloop
  endfacet
  facet normal 0 0 -1
    outer loop
      vertex 9.13545 -4.06737 -30.9017
      vertex 9.78148 2.07912 -30.9017
      vertex 9.78148 -2.07912 -30.9017
    endloop
  endfacet
  facet normal 0 0 -1
    outer loop
      vertex 9.13545 -4.06737 -30.9017
      vertex 9.13545 4.06737 -30.9017
      vertex 9.78148 2.07912 -30.9017
    endloop
  endfacet
  facet normal 0 0 -1
    outer loop
      vertex 8.09017 -5.87785 -30.9017
      vertex 9.13545 4.06737 -30.9017
      vertex 9.13545 -4.06737 -30.9017
    endloop
  endfacet
  facet normal 0 0 -1
    outer loop
      vertex 8.09017 -5.87785 -30.9017
      vertex 8.09017 5.87785 -30.9017
      vertex 9.13545 4.06737 -30.9017
    endloop
  endfacet
  facet normal 0 0 -1
    outer loop
      vertex 6.69131 -7.43145 -30.9017
      vertex 8.09017 5.87785 -30.9017
      vertex 8.09017 -5.87785 -30.9017
    endloop
  endfacet
  facet normal 0 0 -1
    outer loop
      vertex 6.69131 -7.43145 -30.9017
      vertex 6.69131 7.43145 -30.9017
      vertex 8.09017 5.87785 -30.9017
    endloop
  endfacet
  facet normal 0 0 -1
    outer loop
      vertex 5 -8.66025 -30.9017
      vertex 6.69131 7.43145 -30.9017
      vertex 6.69131 -7.43145 -30.9017
    endloop
  endfacet
  facet normal 0 0 -1
    outer loop
      vertex 5 -8.66025 -30.9017
      vertex 5 8.66025 -30.9017
      vertex 6.69131 7.43145 -30.9017
    endloop
  endfacet
  facet normal 0 0 -1
    outer loop
      vertex 3.09017 -9.51056 -30.9017
      vertex 5 8.66025 -30.9017
      vertex 5 -8.66025 -30.9017
    endloop
  endfacet
  facet normal 0 0 -1
    outer loop
      vertex 3.09017 -9.51056 -30.9017
      vertex 3.09017 9.51056 -30.9017
      vertex 5 8.66025 -30.9017
    endloop
  endfacet
  facet normal 0 0 -1
    outer loop
      vertex 1.04528 -9.94522 -30.9017
      vertex 3.09017 9.51056 -30.9017
      vertex 3.09017 -9.51056 -30.9017
    endloop
  endfacet
  facet normal 0 0 -1
    outer loop
      vertex 1.04528 -9.94522 -30.9017
      vertex 1.04528 9.94522 -30.9017
      vertex 3.09017 9.51056 -30.9017
    endloop
  endfacet
  facet normal 0 0 -1
    outer loop
      vertex -1.04528 -9.94522 -30.9017
      vertex 1.04528 9.94522 -30.9017
      vertex 1.04528 -9.94522 -30.9017
    endloop
  endfacet
  facet normal 0 0 -1
    outer loop
      vertex -1.04528 -9.94522 -30.9017
      vertex -1.04528 9.94522 -30.9017
      vertex 1.04528 9.94522 -30.9017
    endloop
  endfacet
  facet normal 0 0 -1
    outer loop
      vertex -3.09017 -9.51056 -30.9017
      vertex -1.04528 9.94522 -30.9017
      vertex -1.04528 -9.94522 -30.9017
    endloop
  endfacet
  facet normal 0 0 -1
    outer loop
      vertex -3.09017 -9.51056 -30.9017
      vertex -3.09017 9.51056 -30.9017
      vertex -1.04528 9.94522 -30.9017
    endloop
  endfacet
  facet normal 0 0 -1
    outer loop
      vertex -5 -8.66025 -30.9017
      vertex -3.09017 9.51056 -30.9017
      vertex -3.09017 -9.51056 -30.9017
    endloop
  endfacet
  facet normal 0 0 -1
    outer loop
      vertex -5 -8.66025 -30.9017
      vertex -5 8.66025 -30.9017
      vertex -3.09017 9.51056 -30.9017
    endloop
  endfacet
  facet normal 0 0 -1
    outer loop
      vertex -6.69131 -7.43145 -30.9017
      vertex -5 8.66025 -30.9017
      vertex -5 -8.66025 -30.9017
    endloop
  endfacet
  facet normal 0 0 -1
    outer loop
      vertex -6.69131 -7.43145 -30.9017
      vertex -6.69131 7.43145 -30.9017
      vertex -5 8.66025 -30.9017
    endloop
  endfacet
  facet normal 0 0 -1
    outer loop
      vertex -8.09017 -5.87785 -30.9017
      vertex -6.69131 7.43145 -30.9017
      vertex -6.69131 -7.43145 -30.9017
    endloop
  endfacet
  facet normal 0 0 -1
    outer loop
      vertex -8.09017 -5.87785 -30.9017
      vertex -8.09017 5.87785 -30.9017
      vertex -6.69131 7.43145 -30.9017
    endloop
  endfacet
  facet normal 0 0 -1
    outer loop
      vertex -9.13545 -4.06737 -30.9017
      vertex -8.09017 5.87785 -30.9017
      vertex -8.09017 -5.87785 -30.9017
    endloop
  endfacet
  facet normal 0 0 -1
    outer loop
      vertex -9.13545 -4.06737 -30.9017
      vertex -9.13545 4.06737 -30.9017
      vertex -8.09017 5.87785 -30.9017
    endloop
  endfacet
  facet normal 0 0 -1
    outer loop
      vertex -9.78148 -2.07912 -30.9017
      vertex -9.13545 4.06737 -30.9017
      vertex -9.13545 -4.06737 -30.9017
    endloop
  endfacet
  facet normal 0 0 -1
    outer loop
      vertex -9.78148 -2.07912 -30.9017
      vertex -9.78148 2.07912 -30.9017
      vertex -9.13545 4.06737 -30.9017
    endloop
  endfacet
  facet normal 0 -0 -1
    outer loop
      vertex -9.78148 2.07912 -30.9017
      vertex -9.78148 -2.07912 -30.9017
      vertex -10 -1.27271e-15 -30.9017
    endloop
  endfacet
  facet normal -0.587785 -0.809017 -2.02973e-08
    outer loop
      vertex -5 -8.66025 -30.9017
      vertex -5.82701 -8.0594 -10
      vertex -6.69131 -7.43145 -30.9017
    endloop
  endfacet
  facet normal -0.587785 -0.809017 -1.34093e-08
    outer loop
      vertex -5.82701 -8.0594 -10
      vertex -5 -8.66025 -30.9017
      vertex -5 -8.66025 -10
    endloop
  endfacet
  facet normal -0.951057 -0.309017 0
    outer loop
      vertex -9.13545 -4.06737 -30.9017
      vertex -9.78148 -2.07912 -10
      vertex -9.78148 -2.07912 -30.9017
    endloop
  endfacet
  facet normal -0.951057 -0.309017 0
    outer loop
      vertex -9.78148 -2.07912 -10
      vertex -9.13545 -4.06737 -30.9017
      vertex -9.13545 -4.06737 -10
    endloop
  endfacet
  facet normal -0.406737 -0.913545 -9.27902e-09
    outer loop
      vertex -5 -8.66025 -30.9017
      vertex -4.06614 -9.07604 -10
      vertex -5 -8.66025 -10
    endloop
  endfacet
  facet normal -0.406737 -0.913545 -8.63287e-09
    outer loop
      vertex -4.06614 -9.07604 -10
      vertex -5 -8.66025 -30.9017
      vertex -3.09017 -9.51056 -30.9017
    endloop
  endfacet
  facet normal -0.406737 -0.913545 0
    outer loop
      vertex -3.09017 -9.51056 -30.9017
      vertex -3.09017 -9.51056 -10
      vertex -4.06614 -9.07604 -10
    endloop
  endfacet
  facet normal -0.866026 0.5 0
    outer loop
      vertex -9.13545 4.06737 -30.9017
      vertex -8.09017 5.87785 -10
      vertex -8.09017 5.87785 -30.9017
    endloop
  endfacet
  facet normal -0.866026 0.5 0
    outer loop
      vertex -8.09017 5.87785 -10
      vertex -9.13545 4.06737 -30.9017
      vertex -9.13545 4.06737 -10
    endloop
  endfacet
  facet normal -0.406737 0.913545 -8.63287e-09
    outer loop
      vertex -5 8.66025 -30.9017
      vertex -4.06614 9.07604 -10
      vertex -3.09017 9.51056 -30.9017
    endloop
  endfacet
  facet normal -0.406737 0.913545 -9.27902e-09
    outer loop
      vertex -4.06614 9.07604 -10
      vertex -5 8.66025 -30.9017
      vertex -5 8.66025 -10
    endloop
  endfacet
  facet normal 0.587785 0.809017 -0
    outer loop
      vertex 6.69131 7.43145 -30.9017
      vertex 5.8643 8.03231 -10
      vertex 6.69131 7.43145 -10
    endloop
  endfacet
  facet normal 0.587785 0.809017 6.5924e-09
    outer loop
      vertex 5.8643 8.03231 -10
      vertex 6.69131 7.43145 -30.9017
      vertex 5 8.66025 -30.9017
    endloop
  endfacet
  facet normal -0.866026 -0.5 0
    outer loop
      vertex -8.09017 -5.87785 -30.9017
      vertex -9.13545 -4.06737 -10
      vertex -9.13545 -4.06737 -30.9017
    endloop
  endfacet
  facet normal -0.866026 -0.5 0
    outer loop
      vertex -9.13545 -4.06737 -10
      vertex -8.09017 -5.87785 -30.9017
      vertex -8.09017 -5.87785 -10
    endloop
  endfacet
  facet normal -0.587785 -0.809017 0
    outer loop
      vertex -6.69131 -7.43145 -30.9017
      vertex -5.82701 -8.0594 -10
      vertex -6.69131 -7.43145 -10
    endloop
  endfacet
  facet normal -0.994522 -0.104529 -0
    outer loop
      vertex -9.78148 -2.07912 -10
      vertex -9.89315 -1.01664 -10
      vertex -9.78148 -2.07912 -30.9017
    endloop
  endfacet
  facet normal -0.994522 -0.104529 -4.53767e-08
    outer loop
      vertex -10 -1.27271e-15 -30.9017
      vertex -9.89315 -1.01664 -10
      vertex -10 -8.18325e-16 -10
    endloop
  endfacet
  facet normal -0.994522 -0.104528 -3.41827e-08
    outer loop
      vertex -9.89315 -1.01664 -10
      vertex -10 -1.27271e-15 -30.9017
      vertex -9.78148 -2.07912 -30.9017
    endloop
  endfacet
  facet normal 0 0 1
    outer loop
      vertex 7.5 -0.833334 -10
      vertex 10 3.83546e-16 -10
      vertex 9.78148 2.07912 -10
    endloop
  endfacet
  facet normal 0 0 1
    outer loop
      vertex 7.5 -0.833334 -10
      vertex 9.78148 2.07912 -10
      vertex 9.13545 4.06737 -10
    endloop
  endfacet
  facet normal 0 0 1
    outer loop
      vertex 10 3.83546e-16 -10
      vertex 7.5 -0.833334 -10
      vertex 9.78148 -2.07912 -10
    endloop
  endfacet
  facet normal 0 0 1
    outer loop
      vertex 7.5 -0.833334 -10
      vertex 9.13545 4.06737 -10
      vertex 8.09017 5.87785 -10
    endloop
  endfacet
  facet normal 0 0 1
    outer loop
      vertex 7.5 -2.53491 -10
      vertex 9.78148 -2.07912 -10
      vertex 7.5 -0.833334 -10
    endloop
  endfacet
  facet normal 0 0 1
    outer loop
      vertex 9.78148 -2.07912 -10
      vertex 7.5 -2.53491 -10
      vertex 9.13545 -4.06737 -10
    endloop
  endfacet
  facet normal 0 0 1
    outer loop
      vertex 6.69131 7.43145 -10
      vertex 7.5 -0.833334 -10
      vertex 8.09017 5.87785 -10
    endloop
  endfacet
  facet normal 0 0 1
    outer loop
      vertex 5.8643 8.03231 -10
      vertex 7.5 -0.833334 -10
      vertex 6.69131 7.43145 -10
    endloop
  endfacet
  facet normal 0 0 1
    outer loop
      vertex 4.02403 9.09478 -10
      vertex 5.8643 8.03231 -10
      vertex 5 8.66025 -10
    endloop
  endfacet
  facet normal 0 0 1
    outer loop
      vertex 5.8643 8.03231 -10
      vertex 4.02403 9.09478 -10
      vertex 7.5 -0.833334 -10
    endloop
  endfacet
  facet normal 0 0 1
    outer loop
      vertex 3.09017 9.51056 -10
      vertex 7.5 -0.833334 -10
      vertex 4.02403 9.09478 -10
    endloop
  endfacet
  facet normal 0 0 1
    outer loop
      vertex 1.04528 9.94522 -10
      vertex 7.5 -0.833334 -10
      vertex 3.09017 9.51056 -10
    endloop
  endfacet
  facet normal -0 0 1
    outer loop
      vertex -1.04528 9.94522 -10
      vertex 7.5 -0.833334 -10
      vertex 1.04528 9.94522 -10
    endloop
  endfacet
  facet normal 0 0 1
    outer loop
      vertex -7.5 -0.833334 -10
      vertex -1.04528 9.94522 -10
      vertex -3.09017 9.51056 -10
    endloop
  endfacet
  facet normal 0 0 1
    outer loop
      vertex -7.5 -0.833334 -10
      vertex -3.09017 9.51056 -10
      vertex -4.06614 9.07604 -10
    endloop
  endfacet
  facet normal 0 0 1
    outer loop
      vertex -5.82701 8.0594 -10
      vertex -4.06614 9.07604 -10
      vertex -5 8.66025 -10
    endloop
  endfacet
  facet normal 0 0 1
    outer loop
      vertex -4.06614 9.07604 -10
      vertex -5.82701 8.0594 -10
      vertex -7.5 -0.833334 -10
    endloop
  endfacet
  facet normal 0 0 1
    outer loop
      vertex -7.5 -0.833334 -10
      vertex -5.82701 8.0594 -10
      vertex -6.69131 7.43145 -10
    endloop
  endfacet
  facet normal 0 0 1
    outer loop
      vertex -1.04528 9.94522 -10
      vertex -7.5 -0.833334 -10
      vertex 7.5 -0.833334 -10
    endloop
  endfacet
  facet normal -0 0 1
    outer loop
      vertex -9.13545 4.06737 -10
      vertex -7.5 -0.833334 -10
      vertex -8.09017 5.87785 -10
    endloop
  endfacet
  facet normal -0 0 1
    outer loop
      vertex -8.09017 5.87785 -10
      vertex -7.5 -0.833334 -10
      vertex -6.69131 7.43145 -10
    endloop
  endfacet
  facet normal 0 0 1
    outer loop
      vertex 9.13545 -4.06737 -10
      vertex 7.5 -2.53491 -10
      vertex 8.09017 -5.87785 -10
    endloop
  endfacet
  facet normal -0 0 1
    outer loop
      vertex 5.60387 -4.16667 -10
      vertex 8.09017 -5.87785 -10
      vertex 7.5 -2.53491 -10
    endloop
  endfacet
  facet normal 0 0 1
    outer loop
      vertex 8.09017 -5.87785 -10
      vertex 5.60387 -4.16667 -10
      vertex 6.69131 -7.43145 -10
    endloop
  endfacet
  facet normal 0 0 1
    outer loop
      vertex 5.60387 -4.16667 -10
      vertex 5 -8.66025 -10
      vertex 6.69131 -7.43145 -10
    endloop
  endfacet
  facet normal 0 0 1
    outer loop
      vertex 5.60387 -4.16667 -10
      vertex 3.09017 -9.51056 -10
      vertex 5 -8.66025 -10
    endloop
  endfacet
  facet normal 0 0 1
    outer loop
      vertex 5.60387 -4.16667 -10
      vertex 1.04528 -9.94522 -10
      vertex 3.09017 -9.51056 -10
    endloop
  endfacet
  facet normal 0 0 1
    outer loop
      vertex 5.60387 -4.16667 -10
      vertex -1.04528 -9.94522 -10
      vertex 1.04528 -9.94522 -10
    endloop
  endfacet
  facet normal 0 0 1
    outer loop
      vertex 5.60387 -4.16667 -10
      vertex -3.09017 -9.51056 -10
      vertex -1.04528 -9.94522 -10
    endloop
  endfacet
  facet normal 0 0 1
    outer loop
      vertex 5.60387 -4.16667 -10
      vertex -4.06614 -9.07604 -10
      vertex -3.09017 -9.51056 -10
    endloop
  endfacet
  facet normal -0 0 1
    outer loop
      vertex -7.5 -4.16667 -10
      vertex -4.06614 -9.07604 -10
      vertex 5.60387 -4.16667 -10
    endloop
  endfacet
  facet normal 0 0 1
    outer loop
      vertex -4.06614 -9.07604 -10
      vertex -7.5 -4.16667 -10
      vertex -5 -8.66025 -10
    endloop
  endfacet
  facet normal 0 0 1
    outer loop
      vertex -5 -8.66025 -10
      vertex -7.5 -4.16667 -10
      vertex -5.82701 -8.0594 -10
    endloop
  endfacet
  facet normal 0 0 1
    outer loop
      vertex -5.82701 -8.0594 -10
      vertex -7.5 -4.16667 -10
      vertex -6.69131 -7.43145 -10
    endloop
  endfacet
  facet normal 0 0 1
    outer loop
      vertex -7.5 -4.16667 -10
      vertex -8.09017 -5.87785 -10
      vertex -6.69131 -7.43145 -10
    endloop
  endfacet
  facet normal -0 0 1
    outer loop
      vertex -9.78148 2.07912 -10
      vertex -7.5 -0.833334 -10
      vertex -9.13545 4.06737 -10
    endloop
  endfacet
  facet normal -0 0 1
    outer loop
      vertex -9.89315 1.01664 -10
      vertex -7.5 -0.833334 -10
      vertex -9.78148 2.07912 -10
    endloop
  endfacet
  facet normal 0 -0 1
    outer loop
      vertex -9.78148 -2.07912 -10
      vertex -7.5 -0.833334 -10
      vertex -9.89315 -1.01664 -10
    endloop
  endfacet
  facet normal -0 0 1
    outer loop
      vertex -10 -8.18325e-16 -10
      vertex -7.5 -0.833334 -10
      vertex -9.89315 1.01664 -10
    endloop
  endfacet
  facet normal 0 0 1
    outer loop
      vertex -7.5 -0.833334 -10
      vertex -9.78148 -2.07912 -10
      vertex -7.5 -4.16667 -10
    endloop
  endfacet
  facet normal 0 0 1
    outer loop
      vertex -7.5 -4.16667 -10
      vertex -9.13545 -4.06737 -10
      vertex -8.09017 -5.87785 -10
    endloop
  endfacet
  facet normal 0 0 1
    outer loop
      vertex -7.5 -4.16667 -10
      vertex -9.78148 -2.07912 -10
      vertex -9.13545 -4.06737 -10
    endloop
  endfacet
  facet normal 0 0 1
    outer loop
      vertex -7.5 -0.833334 -10
      vertex -10 -8.18325e-16 -10
      vertex -9.89315 -1.01664 -10
    endloop
  endfacet
  facet normal 1 0 0
    outer loop
      vertex 7.5 -0.833334 -10
      vertex 7.5 -0.833334 -6.09531
      vertex 7.5 -2.53491 -10
    endloop
  endfacet
  facet normal 5.93079e-08 -1 3.00326e-08
    outer loop
      vertex -7.5 -4.16667 -2.34387e-07
      vertex 1.67866 -4.16667 -2.24857
      vertex 0.540022 -4.16667 -1.86424e-07
    endloop
  endfacet
  facet normal 4.02692e-08 -1 -4.76837e-08
    outer loop
      vertex -7.5 -4.16667 -10
      vertex 1.67866 -4.16667 -2.24857
      vertex -7.5 -4.16667 -2.34387e-07
    endloop
  endfacet
  facet normal 3.6389e-08 -1 -4.30892e-08
    outer loop
      vertex 1.67866 -4.16667 -2.24857
      vertex -7.5 -4.16667 -10
      vertex 5.60387 -4.16667 -10
    endloop
  endfacet
  facet normal -1.22519e-08 1 -6.20419e-09
    outer loop
      vertex 7.5 -0.833334 -6.09531
      vertex 3.23628 -0.833334 -7.28255
      vertex 7.05028 -0.833334 -5.20721
    endloop
  endfacet
  facet normal -2.67311e-08 1 4.57947e-08
    outer loop
      vertex 3.23628 -0.833334 -7.28255
      vertex 7.5 -0.833334 -6.09531
      vertex 7.5 -0.833334 -10
    endloop
  endfacet
  facet normal -3.78057e-08 1 4.09617e-08
    outer loop
      vertex 2.07863 -0.833334 -5.06517
      vertex 4.41343 -0.833334 -9.70575e-08
      vertex 5.91991 -0.833334 -2.97498
    endloop
  endfacet
  facet normal -2.50157e-08 1 3.50661e-08
    outer loop
      vertex 4.41343 -0.833334 -9.70575e-08
      vertex 2.07863 -0.833334 -5.06517
      vertex -7.5 -0.833334 -1.68128e-07
    endloop
  endfacet
  facet normal -2.18266e-08 1 4.2366e-08
    outer loop
      vertex -7.5 -0.833334 -10
      vertex 2.07863 -0.833334 -5.06517
      vertex 3.23628 -0.833334 -7.28255
    endloop
  endfacet
  facet normal -2.14955e-08 1 4.17233e-08
    outer loop
      vertex 2.07863 -0.833334 -5.06517
      vertex -7.5 -0.833334 -10
      vertex -7.5 -0.833334 -1.68128e-07
    endloop
  endfacet
  facet normal -2.38419e-08 1 5.03279e-08
    outer loop
      vertex -7.5 -0.833334 -10
      vertex 3.23628 -0.833334 -7.28255
      vertex 7.5 -0.833334 -10
    endloop
  endfacet
  facet normal -5.96556e-09 -1.98779e-08 1
    outer loop
      vertex -7.5 -0.833334 -1.68128e-07
      vertex 1.9421 -2.96009 -1.54076e-07
      vertex 4.41343 -0.833334 -9.70575e-08
    endloop
  endfacet
  facet normal -5.96556e-09 -1.98779e-08 1
    outer loop
      vertex 1.9421 -2.96009 -1.54076e-07
      vertex -7.5 -0.833334 -1.68128e-07
      vertex 0.540022 -4.16667 -1.86424e-07
    endloop
  endfacet
  facet normal -5.96555e-09 -1.98778e-08 1
    outer loop
      vertex 0.540022 -4.16667 -1.86424e-07
      vertex -7.5 -0.833334 -1.68128e-07
      vertex -7.5 -4.16667 -2.34387e-07
    endloop
  endfacet
  facet normal -1 0 0
    outer loop
      vertex -7.5 -4.16667 -10
      vertex -7.5 -0.833334 -1.68128e-07
      vertex -7.5 -0.833334 -10
    endloop
  endfacet
  facet normal -1 0 0
    outer loop
      vertex -7.5 -0.833334 -1.68128e-07
      vertex -7.5 -4.16667 -10
      vertex -7.5 -4.16667 -2.34387e-07
    endloop
  endfacet
  facet normal 0.619374 -0.719726 0.313641
    outer loop
      vertex 0.540022 -4.16667 -1.86424e-07
      vertex 1.67866 -4.16667 -2.24857
      vertex 1.9421 -2.96009 -1.54076e-07
    endloop
  endfacet
  facet normal 0.619374 -0.719726 0.313641
    outer loop
      vertex 1.67866 -4.16667 -2.24857
      vertex 4.41343 -0.833334 -9.70575e-08
      vertex 1.9421 -2.96009 -1.54076e-07
    endloop
  endfacet
  facet normal 0.619374 -0.719726 0.313641
    outer loop
      vertex 1.67866 -4.16667 -2.24857
      vertex 5.91991 -0.833334 -2.97498
      vertex 4.41343 -0.833334 -9.70575e-08
    endloop
  endfacet
  facet normal 0.619374 -0.719726 0.313641
    outer loop
      vertex 1.67866 -4.16667 -2.24857
      vertex 3.05903 -4.01881 -4.63519
      vertex 5.91991 -0.833334 -2.97498
    endloop
  endfacet
  facet normal 0.619374 -0.719726 0.313641
    outer loop
      vertex 5.60387 -4.16667 -10
      vertex 3.05903 -4.01881 -4.63519
      vertex 1.67866 -4.16667 -2.24857
    endloop
  endfacet
  facet normal 0.619374 -0.719726 0.313641
    outer loop
      vertex 3.05903 -4.01881 -4.63519
      vertex 5.60387 -4.16667 -10
      vertex 4.25345 -3.94749 -6.83025
    endloop
  endfacet
  facet normal 0.619374 -0.719726 0.313641
    outer loop
      vertex 4.25345 -3.94749 -6.83025
      vertex 7.5 -0.833334 -6.09531
      vertex 7.05028 -0.833334 -5.20721
    endloop
  endfacet
  facet normal 0.619374 -0.719726 0.313641
    outer loop
      vertex 5.60387 -4.16667 -10
      vertex 7.5 -0.833334 -6.09531
      vertex 4.25345 -3.94749 -6.83025
    endloop
  endfacet
  facet normal 0.619374 -0.719726 0.313641
    outer loop
      vertex 7.5 -0.833334 -6.09531
      vertex 5.60387 -4.16667 -10
      vertex 7.5 -2.53491 -10
    endloop
  endfacet
  facet normal 0.759511 -0.515666 0.396525
    outer loop
      vertex 1.11639 -2.69986 -5.64941
      vertex 3.23628 -0.833334 -7.28255
      vertex 2.07863 -0.833334 -5.06517
    endloop
  endfacet
  facet normal 0.759511 -0.515666 0.396525
    outer loop
      vertex 3.23628 -0.833334 -7.28255
      vertex 1.11639 -2.69986 -5.64941
      vertex 2.3108 -2.62854 -7.84447
    endloop
  endfacet
  facet normal 0.477767 0.0285275 -0.878023
    outer loop
      vertex 3.05903 -4.01881 -4.63519
      vertex 2.07863 -0.833334 -5.06517
      vertex 5.91991 -0.833334 -2.97498
    endloop
  endfacet
  facet normal 0.477767 0.0285274 -0.878023
    outer loop
      vertex 2.07863 -0.833334 -5.06517
      vertex 3.05903 -4.01881 -4.63519
      vertex 1.11639 -2.69986 -5.64941
    endloop
  endfacet
  facet normal -0.477767 -0.0285275 0.878023
    outer loop
      vertex 3.23628 -0.833334 -7.28255
      vertex 4.25345 -3.94749 -6.83025
      vertex 7.05028 -0.833334 -5.20721
    endloop
  endfacet
  facet normal -0.477767 -0.0285276 0.878023
    outer loop
      vertex 4.25345 -3.94749 -6.83025
      vertex 3.23628 -0.833334 -7.28255
      vertex 2.3108 -2.62854 -7.84447
    endloop
  endfacet
  facet normal 0.441455 0.856315 0.268035
    outer loop
      vertex 2.3108 -2.62854 -7.84447
      vertex 3.05903 -4.01881 -4.63519
      vertex 4.25345 -3.94749 -6.83025
    endloop
  endfacet
  facet normal 0.441455 0.856315 0.268035
    outer loop
      vertex 3.05903 -4.01881 -4.63519
      vertex 2.3108 -2.62854 -7.84447
      vertex 1.11639 -2.69986 -5.64941
    endloop
  endfacet
endsolid OpenSCAD_Model
