solid OpenSCAD_Model
  facet normal -0.994522 0.104529 0
    outer loop
      vertex -9.89315 1.01664 -10
      vertex -9.78148 2.07912 -10
      vertex -9.78148 2.07912 -30.9017
    endloop
  endfacet
  facet normal -0.994522 0.104528 -3.41827e-08
    outer loop
      vertex -10 -1.27271e-15 -30.9017
      vertex -9.89315 1.01664 -10
      vertex -9.78148 2.07912 -30.9017
    endloop
  endfacet
  facet normal -0.994522 0.104529 -4.53767e-08
    outer loop
      vertex -9.89315 1.01664 -10
      vertex -10 -1.27271e-15 -30.9017
      vertex -10 -8.18325e-16 -10
    endloop
  endfacet
  facet normal 0.994522 0.104529 0
    outer loop
      vertex 10 3.83546e-16 -10
      vertex 9.78148 2.07912 -30.9017
      vertex 9.78148 2.07912 -10
    endloop
  endfacet
  facet normal 0.994522 0.104529 -2.54076e-18
    outer loop
      vertex 9.78148 2.07912 -30.9017
      vertex 10 3.83546e-16 -10
      vertex 10 -7.08354e-17 -30.9017
    endloop
  endfacet
  facet normal 0.207911 -0.978148 0
    outer loop
      vertex 1.04528 -9.94522 -30.9017
      vertex 3.09017 -9.51056 -14.943
      vertex 1.04528 -9.94522 -13.898
    endloop
  endfacet
  facet normal 0.207911 -0.978148 0
    outer loop
      vertex 3.09017 -9.51056 -14.943
      vertex 1.04528 -9.94522 -30.9017
      vertex 3.09017 -9.51056 -30.9017
    endloop
  endfacet
  facet normal 0.207911 -0.978148 0
    outer loop
      vertex 1.04528 -9.94522 -12.9471
      vertex 2.96764 -9.53661 -10
      vertex 1.04528 -9.94522 -10
    endloop
  endfacet
  facet normal 0 1 -0
    outer loop
      vertex 1.04528 9.94522 -30.9017
      vertex -1.04528 9.94522 -10
      vertex 1.04528 9.94522 -10
    endloop
  endfacet
  facet normal 0 1 0
    outer loop
      vertex -1.04528 9.94522 -10
      vertex 1.04528 9.94522 -30.9017
      vertex -1.04528 9.94522 -30.9017
    endloop
  endfacet
  facet normal 0.866026 -0.5 0
    outer loop
      vertex 8.09017 -5.87785 -30.9017
      vertex 9.13545 -4.06737 -17.2892
      vertex 8.09017 -5.87785 -17.0388
    endloop
  endfacet
  facet normal 0.866026 -0.5 0
    outer loop
      vertex 9.13545 -4.06737 -17.2892
      vertex 8.09017 -5.87785 -30.9017
      vertex 9.13545 -4.06737 -30.9017
    endloop
  endfacet
  facet normal 0.743145 0.669131 0
    outer loop
      vertex 8.09017 5.87785 -10
      vertex 6.69131 7.43145 -30.9017
      vertex 6.69131 7.43145 -10
    endloop
  endfacet
  facet normal 0.743145 0.669131 0
    outer loop
      vertex 6.69131 7.43145 -30.9017
      vertex 8.09017 5.87785 -10
      vertex 8.09017 5.87785 -30.9017
    endloop
  endfacet
  facet normal 0.866026 0.5 0
    outer loop
      vertex 9.13545 4.06737 -10
      vertex 8.09017 5.87785 -30.9017
      vertex 8.09017 5.87785 -10
    endloop
  endfacet
  facet normal 0.866026 0.5 0
    outer loop
      vertex 8.09017 5.87785 -30.9017
      vertex 9.13545 4.06737 -10
      vertex 9.13545 4.06737 -30.9017
    endloop
  endfacet
  facet normal 0.951056 -0.309017 1.01079e-08
    outer loop
      vertex 9.4569 -3.07805 -17.2889
      vertex 9.78148 -2.07912 -10
      vertex 9.4569 -3.07805 -10
    endloop
  endfacet
  facet normal 0.951057 -0.309017 0
    outer loop
      vertex 9.78148 -2.07912 -10
      vertex 9.4569 -3.07805 -17.2889
      vertex 9.78148 -2.07912 -30.9017
    endloop
  endfacet
  facet normal 0.951057 -0.309017 0
    outer loop
      vertex 9.13545 -4.06737 -30.9017
      vertex 9.4569 -3.07805 -17.2889
      vertex 9.13545 -4.06737 -17.2892
    endloop
  endfacet
  facet normal 0.951057 -0.309017 1.45135e-08
    outer loop
      vertex 9.4569 -3.07805 -17.2889
      vertex 9.13545 -4.06737 -30.9017
      vertex 9.78148 -2.07912 -30.9017
    endloop
  endfacet
  facet normal 0 -1 0
    outer loop
      vertex -1.04528 -9.94522 -10
      vertex 1.04528 -9.94522 -12.9471
      vertex 1.04528 -9.94522 -10
    endloop
  endfacet
  facet normal 0 -1 0
    outer loop
      vertex -1.04528 -9.94522 -10
      vertex 0.612273 -9.94522 -13.6603
      vertex 1.04528 -9.94522 -12.9471
    endloop
  endfacet
  facet normal 0 -1 0
    outer loop
      vertex -1.04528 -9.94522 -30.9017
      vertex 0.612273 -9.94522 -13.6603
      vertex -1.04528 -9.94522 -10
    endloop
  endfacet
  facet normal 0 -1 0
    outer loop
      vertex -1.04528 -9.94522 -30.9017
      vertex 1.04528 -9.94522 -13.898
      vertex 0.612273 -9.94522 -13.6603
    endloop
  endfacet
  facet normal 0 -1 -0
    outer loop
      vertex 1.04528 -9.94522 -13.898
      vertex -1.04528 -9.94522 -30.9017
      vertex 1.04528 -9.94522 -30.9017
    endloop
  endfacet
  facet normal -0.951057 0.309017 0
    outer loop
      vertex -9.78148 2.07912 -30.9017
      vertex -9.13545 4.06737 -10
      vertex -9.13545 4.06737 -30.9017
    endloop
  endfacet
  facet normal -0.951057 0.309017 0
    outer loop
      vertex -9.13545 4.06737 -10
      vertex -9.78148 2.07912 -30.9017
      vertex -9.78148 2.07912 -10
    endloop
  endfacet
  facet normal -0.207911 0.978148 0
    outer loop
      vertex -1.04528 9.94522 -30.9017
      vertex -3.09017 9.51056 -10
      vertex -1.04528 9.94522 -10
    endloop
  endfacet
  facet normal -0.207911 0.978148 0
    outer loop
      vertex -3.09017 9.51056 -10
      vertex -1.04528 9.94522 -30.9017
      vertex -3.09017 9.51056 -30.9017
    endloop
  endfacet
  facet normal 0.951057 0.309017 0
    outer loop
      vertex 9.78148 2.07912 -10
      vertex 9.13545 4.06737 -30.9017
      vertex 9.13545 4.06737 -10
    endloop
  endfacet
  facet normal 0.951057 0.309017 0
    outer loop
      vertex 9.13545 4.06737 -30.9017
      vertex 9.78148 2.07912 -10
      vertex 9.78148 2.07912 -30.9017
    endloop
  endfacet
  facet normal 0.406737 0.913545 -8.50707e-10
    outer loop
      vertex 3.09017 9.51056 -30.9017
      vertex 4.02403 9.09478 -10
      vertex 5 8.66025 -30.9017
    endloop
  endfacet
  facet normal 0.406737 0.913545 0
    outer loop
      vertex 4.02403 9.09478 -10
      vertex 3.09017 9.51056 -30.9017
      vertex 3.09017 9.51056 -10
    endloop
  endfacet
  facet normal 0.587785 -0.809017 0
    outer loop
      vertex 5 -8.66025 -30.9017
      vertex 6.69131 -7.43145 -16.5485
      vertex 5 -8.66025 -15.8395
    endloop
  endfacet
  facet normal 0.587785 -0.809017 0
    outer loop
      vertex 6.69131 -7.43145 -16.5485
      vertex 5 -8.66025 -30.9017
      vertex 6.69131 -7.43145 -30.9017
    endloop
  endfacet
  facet normal 0.743145 -0.669131 0
    outer loop
      vertex 6.69131 -7.43145 -30.9017
      vertex 8.09017 -5.87785 -17.0388
      vertex 6.69131 -7.43145 -16.5485
    endloop
  endfacet
  facet normal 0.743145 -0.669131 0
    outer loop
      vertex 8.09017 -5.87785 -17.0388
      vertex 6.69131 -7.43145 -30.9017
      vertex 8.09017 -5.87785 -30.9017
    endloop
  endfacet
  facet normal 0.406737 -0.913545 0
    outer loop
      vertex 3.09017 -9.51056 -30.9017
      vertex 4.2226 -9.00637 -15.4746
      vertex 3.09017 -9.51056 -14.943
    endloop
  endfacet
  facet normal 0.406737 -0.913545 1.28183e-09
    outer loop
      vertex 4.2226 -9.00637 -15.4746
      vertex 3.09017 -9.51056 -30.9017
      vertex 5 -8.66025 -15.8395
    endloop
  endfacet
  facet normal 0.406737 -0.913545 0
    outer loop
      vertex 5 -8.66025 -15.8395
      vertex 3.09017 -9.51056 -30.9017
      vertex 5 -8.66025 -30.9017
    endloop
  endfacet
  facet normal 0.994522 -0.104529 2.54076e-18
    outer loop
      vertex 9.78148 -2.07912 -10
      vertex 10 -7.08354e-17 -30.9017
      vertex 10 3.83546e-16 -10
    endloop
  endfacet
  facet normal 0.994522 -0.104529 0
    outer loop
      vertex 10 -7.08354e-17 -30.9017
      vertex 9.78148 -2.07912 -10
      vertex 9.78148 -2.07912 -30.9017
    endloop
  endfacet
  facet normal -0.743145 -0.669131 0
    outer loop
      vertex -6.69131 -7.43145 -30.9017
      vertex -8.09017 -5.87785 -10
      vertex -8.09017 -5.87785 -30.9017
    endloop
  endfacet
  facet normal -0.743145 -0.669131 0
    outer loop
      vertex -8.09017 -5.87785 -10
      vertex -6.69131 -7.43145 -30.9017
      vertex -6.69131 -7.43145 -10
    endloop
  endfacet
  facet normal -0.743145 0.669131 0
    outer loop
      vertex -8.09017 5.87785 -30.9017
      vertex -6.69131 7.43145 -10
      vertex -6.69131 7.43145 -30.9017
    endloop
  endfacet
  facet normal -0.743145 0.669131 0
    outer loop
      vertex -6.69131 7.43145 -10
      vertex -8.09017 5.87785 -30.9017
      vertex -8.09017 5.87785 -10
    endloop
  endfacet
  facet normal -0.587785 0.809017 0
    outer loop
      vertex -6.69131 7.43145 -10
      vertex -5.82701 8.0594 -10
      vertex -6.69131 7.43145 -30.9017
    endloop
  endfacet
  facet normal -0.587785 0.809017 -1.34093e-08
    outer loop
      vertex -5 8.66025 -30.9017
      vertex -5.82701 8.0594 -10
      vertex -5 8.66025 -10
    endloop
  endfacet
  facet normal -0.587785 0.809017 -2.02973e-08
    outer loop
      vertex -5.82701 8.0594 -10
      vertex -5 8.66025 -30.9017
      vertex -6.69131 7.43145 -30.9017
    endloop
  endfacet
  facet normal -0.406737 0.913545 0
    outer loop
      vertex -4.06614 9.07604 -10
      vertex -3.09017 9.51056 -10
      vertex -3.09017 9.51056 -30.9017
    endloop
  endfacet
  facet normal 0.406737 0.913545 9.27902e-09
    outer loop
      vertex 4.02403 9.09478 -10
      vertex 5 8.66025 -10
      vertex 5 8.66025 -30.9017
    endloop
  endfacet
  facet normal 0.207911 0.978148 -0
    outer loop
      vertex 3.09017 9.51056 -30.9017
      vertex 1.04528 9.94522 -10
      vertex 3.09017 9.51056 -10
    endloop
  endfacet
  facet normal 0.207911 0.978148 0
    outer loop
      vertex 1.04528 9.94522 -10
      vertex 3.09017 9.51056 -30.9017
      vertex 1.04528 9.94522 -30.9017
    endloop
  endfacet
  facet normal 0.587785 0.809017 1.34093e-08
    outer loop
      vertex 5 8.66025 -10
      vertex 5.8643 8.03231 -10
      vertex 5 8.66025 -30.9017
    endloop
  endfacet
  facet normal -0.207911 -0.978148 0
    outer loop
      vertex -3.09017 -9.51056 -30.9017
      vertex -1.04528 -9.94522 -10
      vertex -3.09017 -9.51056 -10
    endloop
  endfacet
  facet normal -0.207911 -0.978148 -0
    outer loop
      vertex -1.04528 -9.94522 -10
      vertex -3.09017 -9.51056 -30.9017
      vertex -1.04528 -9.94522 -30.9017
    endloop
  endfacet
  facet normal 0 0 -1
    outer loop
      vertex 9.78148 -2.07912 -30.9017
      vertex 9.78148 2.07912 -30.9017
      vertex 10 -7.08354e-17 -30.9017
    endloop
  endfacet
  facet normal 0 0 -1
    outer loop
      vertex 9.13545 -4.06737 -30.9017
      vertex 9.78148 2.07912 -30.9017
      vertex 9.78148 -2.07912 -30.9017
    endloop
  endfacet
  facet normal 0 0 -1
    outer loop
      vertex 9.13545 -4.06737 -30.9017
      vertex 9.13545 4.06737 -30.9017
      vertex 9.78148 2.07912 -30.9017
    endloop
  endfacet
  facet normal 0 0 -1
    outer loop
      vertex 8.09017 -5.87785 -30.9017
      vertex 9.13545 4.06737 -30.9017
      vertex 9.13545 -4.06737 -30.9017
    endloop
  endfacet
  facet normal 0 0 -1
    outer loop
      vertex 8.09017 -5.87785 -30.9017
      vertex 8.09017 5.87785 -30.9017
      vertex 9.13545 4.06737 -30.9017
    endloop
  endfacet
  facet normal 0 0 -1
    outer loop
      vertex 6.69131 -7.43145 -30.9017
      vertex 8.09017 5.87785 -30.9017
      vertex 8.09017 -5.87785 -30.9017
    endloop
  endfacet
  facet normal 0 0 -1
    outer loop
      vertex 6.69131 -7.43145 -30.9017
      vertex 6.69131 7.43145 -30.9017
      vertex 8.09017 5.87785 -30.9017
    endloop
  endfacet
  facet normal 0 0 -1
    outer loop
      vertex 5 -8.66025 -30.9017
      vertex 6.69131 7.43145 -30.9017
      vertex 6.69131 -7.43145 -30.9017
    endloop
  endfacet
  facet normal 0 0 -1
    outer loop
      vertex 5 -8.66025 -30.9017
      vertex 5 8.66025 -30.9017
      vertex 6.69131 7.43145 -30.9017
    endloop
  endfacet
  facet normal 0 0 -1
    outer loop
      vertex 3.09017 -9.51056 -30.9017
      vertex 5 8.66025 -30.9017
      vertex 5 -8.66025 -30.9017
    endloop
  endfacet
  facet normal 0 0 -1
    outer loop
      vertex 3.09017 -9.51056 -30.9017
      vertex 3.09017 9.51056 -30.9017
      vertex 5 8.66025 -30.9017
    endloop
  endfacet
  facet normal 0 0 -1
    outer loop
      vertex 1.04528 -9.94522 -30.9017
      vertex 3.09017 9.51056 -30.9017
      vertex 3.09017 -9.51056 -30.9017
    endloop
  endfacet
  facet normal 0 0 -1
    outer loop
      vertex 1.04528 -9.94522 -30.9017
      vertex 1.04528 9.94522 -30.9017
      vertex 3.09017 9.51056 -30.9017
    endloop
  endfacet
  facet normal 0 0 -1
    outer loop
      vertex -1.04528 -9.94522 -30.9017
      vertex 1.04528 9.94522 -30.9017
      vertex 1.04528 -9.94522 -30.9017
    endloop
  endfacet
  facet normal 0 0 -1
    outer loop
      vertex -1.04528 -9.94522 -30.9017
      vertex -1.04528 9.94522 -30.9017
      vertex 1.04528 9.94522 -30.9017
    endloop
  endfacet
  facet normal 0 0 -1
    outer loop
      vertex -3.09017 -9.51056 -30.9017
      vertex -1.04528 9.94522 -30.9017
      vertex -1.04528 -9.94522 -30.9017
    endloop
  endfacet
  facet normal 0 0 -1
    outer loop
      vertex -3.09017 -9.51056 -30.9017
      vertex -3.09017 9.51056 -30.9017
      vertex -1.04528 9.94522 -30.9017
    endloop
  endfacet
  facet normal 0 0 -1
    outer loop
      vertex -5 -8.66025 -30.9017
      vertex -3.09017 9.51056 -30.9017
      vertex -3.09017 -9.51056 -30.9017
    endloop
  endfacet
  facet normal 0 0 -1
    outer loop
      vertex -5 -8.66025 -30.9017
      vertex -5 8.66025 -30.9017
      vertex -3.09017 9.51056 -30.9017
    endloop
  endfacet
  facet normal 0 0 -1
    outer loop
      vertex -6.69131 -7.43145 -30.9017
      vertex -5 8.66025 -30.9017
      vertex -5 -8.66025 -30.9017
    endloop
  endfacet
  facet normal 0 0 -1
    outer loop
      vertex -6.69131 -7.43145 -30.9017
      vertex -6.69131 7.43145 -30.9017
      vertex -5 8.66025 -30.9017
    endloop
  endfacet
  facet normal 0 0 -1
    outer loop
      vertex -8.09017 -5.87785 -30.9017
      vertex -6.69131 7.43145 -30.9017
      vertex -6.69131 -7.43145 -30.9017
    endloop
  endfacet
  facet normal 0 0 -1
    outer loop
      vertex -8.09017 -5.87785 -30.9017
      vertex -8.09017 5.87785 -30.9017
      vertex -6.69131 7.43145 -30.9017
    endloop
  endfacet
  facet normal 0 0 -1
    outer loop
      vertex -9.13545 -4.06737 -30.9017
      vertex -8.09017 5.87785 -30.9017
      vertex -8.09017 -5.87785 -30.9017
    endloop
  endfacet
  facet normal 0 0 -1
    outer loop
      vertex -9.13545 -4.06737 -30.9017
      vertex -9.13545 4.06737 -30.9017
      vertex -8.09017 5.87785 -30.9017
    endloop
  endfacet
  facet normal 0 0 -1
    outer loop
      vertex -9.78148 -2.07912 -30.9017
      vertex -9.13545 4.06737 -30.9017
      vertex -9.13545 -4.06737 -30.9017
    endloop
  endfacet
  facet normal 0 0 -1
    outer loop
      vertex -9.78148 -2.07912 -30.9017
      vertex -9.78148 2.07912 -30.9017
      vertex -9.13545 4.06737 -30.9017
    endloop
  endfacet
  facet normal 0 -0 -1
    outer loop
      vertex -9.78148 2.07912 -30.9017
      vertex -9.78148 -2.07912 -30.9017
      vertex -10 -1.27271e-15 -30.9017
    endloop
  endfacet
  facet normal -0.587785 -0.809017 -2.02973e-08
    outer loop
      vertex -5 -8.66025 -30.9017
      vertex -5.82701 -8.0594 -10
      vertex -6.69131 -7.43145 -30.9017
    endloop
  endfacet
  facet normal -0.587785 -0.809017 -1.34093e-08
    outer loop
      vertex -5.82701 -8.0594 -10
      vertex -5 -8.66025 -30.9017
      vertex -5 -8.66025 -10
    endloop
  endfacet
  facet normal -0.951057 -0.309017 0
    outer loop
      vertex -9.13545 -4.06737 -30.9017
      vertex -9.78148 -2.07912 -10
      vertex -9.78148 -2.07912 -30.9017
    endloop
  endfacet
  facet normal -0.951057 -0.309017 0
    outer loop
      vertex -9.78148 -2.07912 -10
      vertex -9.13545 -4.06737 -30.9017
      vertex -9.13545 -4.06737 -10
    endloop
  endfacet
  facet normal -0.406737 -0.913545 -9.27902e-09
    outer loop
      vertex -5 -8.66025 -30.9017
      vertex -4.06614 -9.07604 -10
      vertex -5 -8.66025 -10
    endloop
  endfacet
  facet normal -0.406737 -0.913545 -8.63287e-09
    outer loop
      vertex -4.06614 -9.07604 -10
      vertex -5 -8.66025 -30.9017
      vertex -3.09017 -9.51056 -30.9017
    endloop
  endfacet
  facet normal -0.406737 -0.913545 0
    outer loop
      vertex -3.09017 -9.51056 -30.9017
      vertex -3.09017 -9.51056 -10
      vertex -4.06614 -9.07604 -10
    endloop
  endfacet
  facet normal -0.866026 0.5 0
    outer loop
      vertex -9.13545 4.06737 -30.9017
      vertex -8.09017 5.87785 -10
      vertex -8.09017 5.87785 -30.9017
    endloop
  endfacet
  facet normal -0.866026 0.5 0
    outer loop
      vertex -8.09017 5.87785 -10
      vertex -9.13545 4.06737 -30.9017
      vertex -9.13545 4.06737 -10
    endloop
  endfacet
  facet normal -0.406737 0.913545 -8.63287e-09
    outer loop
      vertex -5 8.66025 -30.9017
      vertex -4.06614 9.07604 -10
      vertex -3.09017 9.51056 -30.9017
    endloop
  endfacet
  facet normal -0.406737 0.913545 -9.27902e-09
    outer loop
      vertex -4.06614 9.07604 -10
      vertex -5 8.66025 -30.9017
      vertex -5 8.66025 -10
    endloop
  endfacet
  facet normal 0.587785 0.809017 -0
    outer loop
      vertex 6.69131 7.43145 -30.9017
      vertex 5.8643 8.03231 -10
      vertex 6.69131 7.43145 -10
    endloop
  endfacet
  facet normal 0.587785 0.809017 6.5924e-09
    outer loop
      vertex 5.8643 8.03231 -10
      vertex 6.69131 7.43145 -30.9017
      vertex 5 8.66025 -30.9017
    endloop
  endfacet
  facet normal -0.866026 -0.5 0
    outer loop
      vertex -8.09017 -5.87785 -30.9017
      vertex -9.13545 -4.06737 -10
      vertex -9.13545 -4.06737 -30.9017
    endloop
  endfacet
  facet normal -0.866026 -0.5 0
    outer loop
      vertex -9.13545 -4.06737 -10
      vertex -8.09017 -5.87785 -30.9017
      vertex -8.09017 -5.87785 -10
    endloop
  endfacet
  facet normal -0.587785 -0.809017 0
    outer loop
      vertex -6.69131 -7.43145 -30.9017
      vertex -5.82701 -8.0594 -10
      vertex -6.69131 -7.43145 -10
    endloop
  endfacet
  facet normal -0.994522 -0.104529 -0
    outer loop
      vertex -9.78148 -2.07912 -10
      vertex -9.89315 -1.01664 -10
      vertex -9.78148 -2.07912 -30.9017
    endloop
  endfacet
  facet normal -0.994522 -0.104529 -4.53767e-08
    outer loop
      vertex -10 -1.27271e-15 -30.9017
      vertex -9.89315 -1.01664 -10
      vertex -10 -8.18325e-16 -10
    endloop
  endfacet
  facet normal -0.994522 -0.104528 -3.41827e-08
    outer loop
      vertex -9.89315 -1.01664 -10
      vertex -10 -1.27271e-15 -30.9017
      vertex -9.78148 -2.07912 -30.9017
    endloop
  endfacet
  facet normal 0 0 1
    outer loop
      vertex 6.69131 7.43145 -10
      vertex 7.5 -0.833334 -10
      vertex 8.09017 5.87785 -10
    endloop
  endfacet
  facet normal 0 0 1
    outer loop
      vertex 5.8643 8.03231 -10
      vertex 7.5 -0.833334 -10
      vertex 6.69131 7.43145 -10
    endloop
  endfacet
  facet normal 0 0 1
    outer loop
      vertex 4.02403 9.09478 -10
      vertex 5.8643 8.03231 -10
      vertex 5 8.66025 -10
    endloop
  endfacet
  facet normal 0 0 1
    outer loop
      vertex 5.8643 8.03231 -10
      vertex 4.02403 9.09478 -10
      vertex 7.5 -0.833334 -10
    endloop
  endfacet
  facet normal 0 0 1
    outer loop
      vertex 3.09017 9.51056 -10
      vertex 7.5 -0.833334 -10
      vertex 4.02403 9.09478 -10
    endloop
  endfacet
  facet normal 0 0 1
    outer loop
      vertex 1.04528 9.94522 -10
      vertex 7.5 -0.833334 -10
      vertex 3.09017 9.51056 -10
    endloop
  endfacet
  facet normal -0 0 1
    outer loop
      vertex -1.04528 9.94522 -10
      vertex 7.5 -0.833334 -10
      vertex 1.04528 9.94522 -10
    endloop
  endfacet
  facet normal 0 0 1
    outer loop
      vertex -7.5 -0.833334 -10
      vertex -1.04528 9.94522 -10
      vertex -3.09017 9.51056 -10
    endloop
  endfacet
  facet normal 0 0 1
    outer loop
      vertex -7.5 -0.833334 -10
      vertex -3.09017 9.51056 -10
      vertex -4.06614 9.07604 -10
    endloop
  endfacet
  facet normal 0 0 1
    outer loop
      vertex -5.82701 8.0594 -10
      vertex -4.06614 9.07604 -10
      vertex -5 8.66025 -10
    endloop
  endfacet
  facet normal 0 0 1
    outer loop
      vertex -4.06614 9.07604 -10
      vertex -5.82701 8.0594 -10
      vertex -7.5 -0.833334 -10
    endloop
  endfacet
  facet normal 0 0 1
    outer loop
      vertex -7.5 -0.833334 -10
      vertex -5.82701 8.0594 -10
      vertex -6.69131 7.43145 -10
    endloop
  endfacet
  facet normal 0 0 1
    outer loop
      vertex -1.04528 9.94522 -10
      vertex -7.5 -0.833334 -10
      vertex 7.5 -0.833334 -10
    endloop
  endfacet
  facet normal -0 0 1
    outer loop
      vertex -9.13545 4.06737 -10
      vertex -7.5 -0.833334 -10
      vertex -8.09017 5.87785 -10
    endloop
  endfacet
  facet normal -0 0 1
    outer loop
      vertex -8.09017 5.87785 -10
      vertex -7.5 -0.833334 -10
      vertex -6.69131 7.43145 -10
    endloop
  endfacet
  facet normal 0 0 1
    outer loop
      vertex 7.5 -0.833334 -10
      vertex 10 3.83546e-16 -10
      vertex 9.78148 2.07912 -10
    endloop
  endfacet
  facet normal 0 0 1
    outer loop
      vertex 10 3.83546e-16 -10
      vertex 7.5 -0.833334 -10
      vertex 9.78148 -2.07912 -10
    endloop
  endfacet
  facet normal 0 0 1
    outer loop
      vertex 7.5 -0.833334 -10
      vertex 9.78148 2.07912 -10
      vertex 9.13545 4.06737 -10
    endloop
  endfacet
  facet normal 0 -0 1
    outer loop
      vertex 8.75204 -2.84863 -10
      vertex 9.78148 -2.07912 -10
      vertex 7.5 -0.833334 -10
    endloop
  endfacet
  facet normal 0 0 1
    outer loop
      vertex 7.5 -0.833334 -10
      vertex 9.13545 4.06737 -10
      vertex 8.09017 5.87785 -10
    endloop
  endfacet
  facet normal 0 0 1
    outer loop
      vertex 9.78148 -2.07912 -10
      vertex 8.75204 -2.84863 -10
      vertex 9.4569 -3.07805 -10
    endloop
  endfacet
  facet normal 0 0 1
    outer loop
      vertex 8.75204 -2.84863 -10
      vertex 7.5 -0.833334 -10
      vertex 7.5 -2.44111 -10
    endloop
  endfacet
  facet normal 0 0 1
    outer loop
      vertex 4.71545 -4.16667 -10
      vertex 1.04528 -9.94522 -10
      vertex 2.96764 -9.53661 -10
    endloop
  endfacet
  facet normal 0 0 1
    outer loop
      vertex 4.71545 -4.16667 -10
      vertex -1.04528 -9.94522 -10
      vertex 1.04528 -9.94522 -10
    endloop
  endfacet
  facet normal 0 0 1
    outer loop
      vertex 4.71545 -4.16667 -10
      vertex -3.09017 -9.51056 -10
      vertex -1.04528 -9.94522 -10
    endloop
  endfacet
  facet normal 0 0 1
    outer loop
      vertex 4.71545 -4.16667 -10
      vertex -4.06614 -9.07604 -10
      vertex -3.09017 -9.51056 -10
    endloop
  endfacet
  facet normal -0 0 1
    outer loop
      vertex -7.5 -4.16667 -10
      vertex -4.06614 -9.07604 -10
      vertex 4.71545 -4.16667 -10
    endloop
  endfacet
  facet normal 0 0 1
    outer loop
      vertex -4.06614 -9.07604 -10
      vertex -7.5 -4.16667 -10
      vertex -5 -8.66025 -10
    endloop
  endfacet
  facet normal 0 0 1
    outer loop
      vertex -5 -8.66025 -10
      vertex -7.5 -4.16667 -10
      vertex -5.82701 -8.0594 -10
    endloop
  endfacet
  facet normal 0 0 1
    outer loop
      vertex -5.82701 -8.0594 -10
      vertex -7.5 -4.16667 -10
      vertex -6.69131 -7.43145 -10
    endloop
  endfacet
  facet normal 0 0 1
    outer loop
      vertex -7.5 -4.16667 -10
      vertex -8.09017 -5.87785 -10
      vertex -6.69131 -7.43145 -10
    endloop
  endfacet
  facet normal -0 0 1
    outer loop
      vertex -9.78148 2.07912 -10
      vertex -7.5 -0.833334 -10
      vertex -9.13545 4.06737 -10
    endloop
  endfacet
  facet normal -0 0 1
    outer loop
      vertex -9.89315 1.01664 -10
      vertex -7.5 -0.833334 -10
      vertex -9.78148 2.07912 -10
    endloop
  endfacet
  facet normal 0 -0 1
    outer loop
      vertex -9.78148 -2.07912 -10
      vertex -7.5 -0.833334 -10
      vertex -9.89315 -1.01664 -10
    endloop
  endfacet
  facet normal -0 0 1
    outer loop
      vertex -10 -8.18325e-16 -10
      vertex -7.5 -0.833334 -10
      vertex -9.89315 1.01664 -10
    endloop
  endfacet
  facet normal 0 0 1
    outer loop
      vertex -7.5 -0.833334 -10
      vertex -9.78148 -2.07912 -10
      vertex -7.5 -4.16667 -10
    endloop
  endfacet
  facet normal 0 0 1
    outer loop
      vertex -7.5 -4.16667 -10
      vertex -9.13545 -4.06737 -10
      vertex -8.09017 -5.87785 -10
    endloop
  endfacet
  facet normal 0 0 1
    outer loop
      vertex -7.5 -4.16667 -10
      vertex -9.78148 -2.07912 -10
      vertex -9.13545 -4.06737 -10
    endloop
  endfacet
  facet normal 0 0 1
    outer loop
      vertex -7.5 -0.833334 -10
      vertex -10 -8.18325e-16 -10
      vertex -9.89315 -1.01664 -10
    endloop
  endfacet
  facet normal 1 -0 0
    outer loop
      vertex 7.5 -2.44111 -9.78475
      vertex 7.5 -0.833334 -10
      vertex 7.5 -0.833334 -6.09531
    endloop
  endfacet
  facet normal 1 0 0
    outer loop
      vertex 7.5 -0.833334 -10
      vertex 7.5 -2.44111 -9.78475
      vertex 7.5 -2.44111 -10
    endloop
  endfacet
  facet normal 5.93079e-08 -1 3.00326e-08
    outer loop
      vertex -7.5 -4.16667 -2.34387e-07
      vertex 1.67866 -4.16667 -2.24857
      vertex 0.540022 -4.16667 -1.86424e-07
    endloop
  endfacet
  facet normal 4.02692e-08 -1 -4.76837e-08
    outer loop
      vertex -7.5 -4.16667 -10
      vertex 1.67866 -4.16667 -2.24857
      vertex -7.5 -4.16667 -2.34387e-07
    endloop
  endfacet
  facet normal 3.90356e-08 -1 -4.6223e-08
    outer loop
      vertex 4.71545 -4.16667 -10
      vertex 1.67866 -4.16667 -2.24857
      vertex -7.5 -4.16667 -10
    endloop
  endfacet
  facet normal 6.15817e-08 -1 -3.73901e-08
    outer loop
      vertex 1.67866 -4.16667 -2.24857
      vertex 4.71545 -4.16667 -10
      vertex 5.19986 -4.16667 -9.20217
    endloop
  endfacet
  facet normal -1.22519e-08 1 -6.20419e-09
    outer loop
      vertex 7.5 -0.833334 -6.09531
      vertex 3.23628 -0.833334 -7.28255
      vertex 7.05028 -0.833334 -5.20721
    endloop
  endfacet
  facet normal -2.67311e-08 1 4.57947e-08
    outer loop
      vertex 3.23628 -0.833334 -7.28255
      vertex 7.5 -0.833334 -6.09531
      vertex 7.5 -0.833334 -10
    endloop
  endfacet
  facet normal -2.89286e-08 1 4.37943e-08
    outer loop
      vertex 4.41343 -0.833334 -9.70575e-08
      vertex -0.314082 -0.833334 -1.76177
      vertex 0.292618 -0.833334 -1.2164e-07
    endloop
  endfacet
  facet normal -2.58129e-08 1 3.54336e-08
    outer loop
      vertex 4.41343 -0.833334 -9.70575e-08
      vertex 2.07863 -0.833334 -5.06517
      vertex -0.314082 -0.833334 -1.76177
    endloop
  endfacet
  facet normal -3.78057e-08 1 4.09617e-08
    outer loop
      vertex 2.07863 -0.833334 -5.06517
      vertex 4.41343 -0.833334 -9.70575e-08
      vertex 5.91991 -0.833334 -2.97498
    endloop
  endfacet
  facet normal -2.01989e-08 1 3.94999e-08
    outer loop
      vertex -0.314082 -0.833334 -1.76177
      vertex 2.07863 -0.833334 -5.06517
      vertex -4.48338 -0.833334 -2.38483
    endloop
  endfacet
  facet normal -2.18266e-08 1 4.2366e-08
    outer loop
      vertex -7.5 -0.833334 -10
      vertex 2.07863 -0.833334 -5.06517
      vertex 3.23628 -0.833334 -7.28255
    endloop
  endfacet
  facet normal -2.02657e-08 1 3.93363e-08
    outer loop
      vertex 2.07863 -0.833334 -5.06517
      vertex -7.5 -0.833334 -10
      vertex -4.48338 -0.833334 -2.38483
    endloop
  endfacet
  facet normal -2.38419e-08 1 5.03279e-08
    outer loop
      vertex -7.5 -0.833334 -10
      vertex 3.23628 -0.833334 -7.28255
      vertex 7.5 -0.833334 -10
    endloop
  endfacet
  facet normal -1.75956e-08 1 3.82786e-08
    outer loop
      vertex -4.48338 -0.833334 -2.38483
      vertex -7.5 -0.833334 -10
      vertex -7.5 -0.833334 -0.657235
    endloop
  endfacet
  facet normal -5.96556e-09 -1.98779e-08 1
    outer loop
      vertex 4.41343 -0.833334 -9.70575e-08
      vertex 0.694872 -1.97889 -1.42012e-07
      vertex 1.9421 -2.96009 -1.54076e-07
    endloop
  endfacet
  facet normal -5.96556e-09 -1.98778e-08 1
    outer loop
      vertex 0.694872 -1.97889 -1.42012e-07
      vertex 4.41343 -0.833334 -9.70575e-08
      vertex 0.292618 -0.833334 -1.2164e-07
    endloop
  endfacet
  facet normal -5.96556e-09 -1.98779e-08 1
    outer loop
      vertex 0.694872 -1.97889 -1.42012e-07
      vertex 0.540022 -4.16667 -1.86424e-07
      vertex 1.9421 -2.96009 -1.54076e-07
    endloop
  endfacet
  facet normal -5.96556e-09 -1.98779e-08 1
    outer loop
      vertex -7.5 -2.84972 -2.08209e-07
      vertex 0.540022 -4.16667 -1.86424e-07
      vertex 0.694872 -1.97889 -1.42012e-07
    endloop
  endfacet
  facet normal -5.96555e-09 -1.98778e-08 1
    outer loop
      vertex 0.540022 -4.16667 -1.86424e-07
      vertex -7.5 -2.84972 -2.08209e-07
      vertex -7.5 -4.16667 -2.34387e-07
    endloop
  endfacet
  facet normal -1 0 0
    outer loop
      vertex -7.5 -0.833334 -10
      vertex -7.5 -1.8926 -1.346
      vertex -7.5 -0.833334 -0.657235
    endloop
  endfacet
  facet normal -1 0 0
    outer loop
      vertex -7.5 -4.16667 -10
      vertex -7.5 -1.8926 -1.346
      vertex -7.5 -0.833334 -10
    endloop
  endfacet
  facet normal -1 0 0
    outer loop
      vertex -7.5 -4.16667 -2.34387e-07
      vertex -7.5 -1.8926 -1.346
      vertex -7.5 -4.16667 -10
    endloop
  endfacet
  facet normal -1 0 0
    outer loop
      vertex -7.5 -1.8926 -1.346
      vertex -7.5 -4.16667 -2.34387e-07
      vertex -7.5 -2.84972 -2.08209e-07
    endloop
  endfacet
  facet normal 0.619374 -0.719726 0.313641
    outer loop
      vertex 0.540022 -4.16667 -1.86424e-07
      vertex 1.67866 -4.16667 -2.24857
      vertex 1.9421 -2.96009 -1.54076e-07
    endloop
  endfacet
  facet normal 0.619374 -0.719726 0.313641
    outer loop
      vertex 1.67866 -4.16667 -2.24857
      vertex 4.41343 -0.833334 -9.70575e-08
      vertex 1.9421 -2.96009 -1.54076e-07
    endloop
  endfacet
  facet normal 0.619374 -0.719726 0.313641
    outer loop
      vertex 1.67866 -4.16667 -2.24857
      vertex 5.91991 -0.833334 -2.97498
      vertex 4.41343 -0.833334 -9.70575e-08
    endloop
  endfacet
  facet normal 0.619374 -0.719726 0.313641
    outer loop
      vertex 1.67866 -4.16667 -2.24857
      vertex 3.05903 -4.01881 -4.63519
      vertex 5.91991 -0.833334 -2.97498
    endloop
  endfacet
  facet normal 0.619374 -0.719726 0.313641
    outer loop
      vertex 5.19986 -4.16667 -9.20217
      vertex 3.05903 -4.01881 -4.63519
      vertex 1.67866 -4.16667 -2.24857
    endloop
  endfacet
  facet normal 0.619374 -0.719726 0.313641
    outer loop
      vertex 4.25345 -3.94749 -6.83025
      vertex 5.19986 -4.16667 -9.20217
      vertex 6.74152 -2.19424 -7.72041
    endloop
  endfacet
  facet normal 0.619374 -0.719726 0.313641
    outer loop
      vertex 3.05903 -4.01881 -4.63519
      vertex 5.19986 -4.16667 -9.20217
      vertex 4.25345 -3.94749 -6.83025
    endloop
  endfacet
  facet normal 0.619374 -0.719726 0.313641
    outer loop
      vertex 6.74152 -2.19424 -7.72041
      vertex 7.05028 -0.833334 -5.20721
      vertex 4.25345 -3.94749 -6.83025
    endloop
  endfacet
  facet normal 0.619374 -0.719726 0.313641
    outer loop
      vertex 7.05028 -0.833334 -5.20721
      vertex 6.74152 -2.19424 -7.72041
      vertex 7.5 -0.833334 -6.09531
    endloop
  endfacet
  facet normal 0.619374 -0.719726 0.313641
    outer loop
      vertex 7.5 -0.833334 -6.09531
      vertex 6.74152 -2.19424 -7.72041
      vertex 7.5 -2.44111 -9.78475
    endloop
  endfacet
  facet normal 0.759511 -0.515666 0.396525
    outer loop
      vertex 1.11639 -2.69986 -5.64941
      vertex 3.23628 -0.833334 -7.28255
      vertex 2.07863 -0.833334 -5.06517
    endloop
  endfacet
  facet normal 0.759511 -0.515666 0.396525
    outer loop
      vertex 3.23628 -0.833334 -7.28255
      vertex 1.11639 -2.69986 -5.64941
      vertex 2.3108 -2.62854 -7.84447
    endloop
  endfacet
  facet normal 0.477767 0.0285275 -0.878023
    outer loop
      vertex 3.05903 -4.01881 -4.63519
      vertex 2.07863 -0.833334 -5.06517
      vertex 5.91991 -0.833334 -2.97498
    endloop
  endfacet
  facet normal 0.477767 0.0285274 -0.878023
    outer loop
      vertex 2.07863 -0.833334 -5.06517
      vertex 3.05903 -4.01881 -4.63519
      vertex 1.11639 -2.69986 -5.64941
    endloop
  endfacet
  facet normal -0.477767 -0.0285275 0.878023
    outer loop
      vertex 3.23628 -0.833334 -7.28255
      vertex 4.25345 -3.94749 -6.83025
      vertex 7.05028 -0.833334 -5.20721
    endloop
  endfacet
  facet normal -0.477767 -0.0285276 0.878023
    outer loop
      vertex 4.25345 -3.94749 -6.83025
      vertex 3.23628 -0.833334 -7.28255
      vertex 2.3108 -2.62854 -7.84447
    endloop
  endfacet
  facet normal 0.441455 0.856315 0.268035
    outer loop
      vertex 2.3108 -2.62854 -7.84447
      vertex 3.05903 -4.01881 -4.63519
      vertex 4.25345 -3.94749 -6.83025
    endloop
  endfacet
  facet normal 0.441455 0.856315 0.268035
    outer loop
      vertex 3.05903 -4.01881 -4.63519
      vertex 2.3108 -2.62854 -7.84447
      vertex 1.11639 -2.69986 -5.64941
    endloop
  endfacet
  facet normal -0.3095 -0.950899 0
    outer loop
      vertex 6.74152 -2.19424 -7.72041
      vertex 7.5 -2.44111 -10
      vertex 7.5 -2.44111 -9.78475
    endloop
  endfacet
  facet normal -0.3095 -0.950899 9.59327e-08
    outer loop
      vertex 7.5 -2.44111 -10
      vertex 3.48053 -1.13285 -13.6603
      vertex 8.75204 -2.84863 -10
    endloop
  endfacet
  facet normal -0.3095 -0.950899 1.1901e-08
    outer loop
      vertex 3.48053 -1.13285 -13.6603
      vertex 7.5 -2.44111 -10
      vertex 6.74152 -2.19424 -7.72041
    endloop
  endfacet
  facet normal 0.823503 -0.268035 -0.5
    outer loop
      vertex 4.71545 -4.16667 -10
      vertex 6.74152 -2.19424 -7.72041
      vertex 5.19986 -4.16667 -9.20217
    endloop
  endfacet
  facet normal 0.823503 -0.268035 -0.5
    outer loop
      vertex 6.74152 -2.19424 -7.72041
      vertex 4.71545 -4.16667 -10
      vertex 3.48053 -1.13285 -13.6603
    endloop
  endfacet
  facet normal 0.823503 -0.268035 -0.5
    outer loop
      vertex 1.04528 -9.94522 -12.9471
      vertex 4.71545 -4.16667 -10
      vertex 2.96764 -9.53661 -10
    endloop
  endfacet
  facet normal 0.823503 -0.268035 -0.5
    outer loop
      vertex 0.612273 -9.94522 -13.6603
      vertex 4.71545 -4.16667 -10
      vertex 1.04528 -9.94522 -12.9471
    endloop
  endfacet
  facet normal 0.823503 -0.268035 -0.5
    outer loop
      vertex 4.71545 -4.16667 -10
      vertex 0.612273 -9.94522 -13.6603
      vertex 3.48053 -1.13285 -13.6603
    endloop
  endfacet
  facet normal 0.47545 -0.15475 0.866026
    outer loop
      vertex 3.48053 -1.13285 -13.6603
      vertex 3.09017 -9.51056 -14.943
      vertex 4.2226 -9.00637 -15.4746
    endloop
  endfacet
  facet normal 0.47545 -0.15475 0.866025
    outer loop
      vertex 3.48053 -1.13285 -13.6603
      vertex 1.04528 -9.94522 -13.898
      vertex 3.09017 -9.51056 -14.943
    endloop
  endfacet
  facet normal 0.47545 -0.15475 0.866025
    outer loop
      vertex 1.04528 -9.94522 -13.898
      vertex 3.48053 -1.13285 -13.6603
      vertex 0.612273 -9.94522 -13.6603
    endloop
  endfacet
  facet normal 0.47545 -0.15475 0.866025
    outer loop
      vertex 3.48053 -1.13285 -13.6603
      vertex 9.13545 -4.06737 -17.2892
      vertex 9.4569 -3.07805 -17.2889
    endloop
  endfacet
  facet normal 0.47545 -0.154749 0.866025
    outer loop
      vertex 9.13545 -4.06737 -17.2892
      vertex 3.48053 -1.13285 -13.6603
      vertex 8.09017 -5.87785 -17.0388
    endloop
  endfacet
  facet normal 0.47545 -0.15475 0.866025
    outer loop
      vertex 8.09017 -5.87785 -17.0388
      vertex 3.48053 -1.13285 -13.6603
      vertex 6.69131 -7.43145 -16.5485
    endloop
  endfacet
  facet normal 0.475449 -0.15475 0.866026
    outer loop
      vertex 6.69131 -7.43145 -16.5485
      vertex 3.48053 -1.13285 -13.6603
      vertex 5 -8.66025 -15.8395
    endloop
  endfacet
  facet normal 0.47545 -0.15475 0.866025
    outer loop
      vertex 5 -8.66025 -15.8395
      vertex 3.48053 -1.13285 -13.6603
      vertex 4.2226 -9.00637 -15.4746
    endloop
  endfacet
  facet normal -0.3095 -0.950899 4.7017e-08
    outer loop
      vertex 9.4569 -3.07805 -17.2889
      vertex 8.75204 -2.84863 -10
      vertex 3.48053 -1.13285 -13.6603
    endloop
  endfacet
  facet normal -0.3095 -0.950899 3.11038e-08
    outer loop
      vertex 8.75204 -2.84863 -10
      vertex 9.4569 -3.07805 -17.2889
      vertex 9.4569 -3.07805 -10
    endloop
  endfacet
  facet normal -0.897343 -0.315094 0.309017
    outer loop
      vertex -0.314082 -0.833334 -1.76177
      vertex 0.694872 -1.97889 -1.42012e-07
      vertex 0.292618 -0.833334 -1.2164e-07
    endloop
  endfacet
  facet normal 0.432818 -0.49142 0.755761
    outer loop
      vertex -7.5 -0.833334 -0.657235
      vertex -7.5 -1.8926 -1.346
      vertex -4.48338 -0.833334 -2.38483
    endloop
  endfacet
  facet normal -0.0862789 0.811925 0.57735
    outer loop
      vertex -4.48338 -0.833334 -2.38483
      vertex -7.5 -2.84972 -2.08209e-07
      vertex 0.694872 -1.97889 -1.42012e-07
    endloop
  endfacet
  facet normal -0.0862789 0.811925 0.57735
    outer loop
      vertex -4.48338 -0.833334 -2.38483
      vertex 0.694872 -1.97889 -1.42012e-07
      vertex -0.314082 -0.833334 -1.76177
    endloop
  endfacet
  facet normal -0.0862789 0.811925 0.57735
    outer loop
      vertex -7.5 -2.84972 -2.08209e-07
      vertex -4.48338 -0.833334 -2.38483
      vertex -7.5 -1.8926 -1.346
    endloop
  endfacet
endsolid OpenSCAD_Model
