solid OpenSCAD_Model
  facet normal -0.994522 0.104529 0
    outer loop
      vertex -9.78148 27.0791 -5
      vertex -9.78148 27.0791 -27.3267
      vertex -9.91218 25.8355 -5
    endloop
  endfacet
  facet normal -0.994522 0.104528 -7.98895e-09
    outer loop
      vertex -10 25 -27.3267
      vertex -9.91218 25.8355 -5
      vertex -9.78148 27.0791 -27.3267
    endloop
  endfacet
  facet normal -0.994522 0.104529 -4.24806e-08
    outer loop
      vertex -9.91218 25.8355 -5
      vertex -10 25 -27.3267
      vertex -10 25 -5
    endloop
  endfacet
  facet normal 0.406737 -0.913545 0
    outer loop
      vertex 3.09017 15.4894 -27.3267
      vertex 3.31357 15.5889 -9.748
      vertex 3.09017 15.4894 -9.42128
    endloop
  endfacet
  facet normal 0.406737 -0.913545 8.86415e-09
    outer loop
      vertex 3.09017 15.4894 -27.3267
      vertex 5 16.3397 -11.5315
      vertex 3.31357 15.5889 -9.748
    endloop
  endfacet
  facet normal 0.406737 -0.913545 0
    outer loop
      vertex 5 16.3397 -11.5315
      vertex 3.09017 15.4894 -27.3267
      vertex 5 16.3397 -27.3267
    endloop
  endfacet
  facet normal 0 1 -0
    outer loop
      vertex 1.04528 34.9452 -27.3267
      vertex -1.04528 34.9452 -5
      vertex 1.04528 34.9452 -5
    endloop
  endfacet
  facet normal 0 1 0
    outer loop
      vertex -1.04528 34.9452 -5
      vertex 1.04528 34.9452 -27.3267
      vertex -1.04528 34.9452 -27.3267
    endloop
  endfacet
  facet normal -0.951057 0.309017 0
    outer loop
      vertex -9.78148 27.0791 -27.3267
      vertex -9.13545 29.0674 -5
      vertex -9.13545 29.0674 -27.3267
    endloop
  endfacet
  facet normal -0.951057 0.309017 0
    outer loop
      vertex -9.13545 29.0674 -5
      vertex -9.78148 27.0791 -27.3267
      vertex -9.78148 27.0791 -5
    endloop
  endfacet
  facet normal -0.587785 0.809017 -1.25535e-08
    outer loop
      vertex -5 33.6603 -27.3267
      vertex -5.67966 33.1665 -5
      vertex -5 33.6603 -5
    endloop
  endfacet
  facet normal -0.587785 0.809017 -7.31845e-09
    outer loop
      vertex -5.67966 33.1665 -5
      vertex -5 33.6603 -27.3267
      vertex -6.69131 32.4314 -27.3267
    endloop
  endfacet
  facet normal 0.406736 0.913546 8.68679e-09
    outer loop
      vertex 5 33.6603 -5
      vertex 5 33.6603 -27.3267
      vertex 3.85765 34.1689 -5
    endloop
  endfacet
  facet normal 0.951057 -0.309017 0
    outer loop
      vertex 9.13545 20.9326 -10.5658
      vertex 9.78148 22.9209 -27.3267
      vertex 9.78148 22.9209 -10.5029
    endloop
  endfacet
  facet normal 0.951057 -0.309017 0
    outer loop
      vertex 9.78148 22.9209 -27.3267
      vertex 9.13545 20.9326 -10.5658
      vertex 9.13545 20.9326 -27.3267
    endloop
  endfacet
  facet normal 0.587784 -0.809018 0
    outer loop
      vertex 5 16.3397 -27.3267
      vertex 5.20451 16.4883 -11.7906
      vertex 5 16.3397 -11.5315
    endloop
  endfacet
  facet normal 0.587785 -0.809017 -2.07245e-08
    outer loop
      vertex 5 16.3397 -27.3267
      vertex 6.69131 17.5686 -13.1318
      vertex 5.20451 16.4883 -11.7906
    endloop
  endfacet
  facet normal 0.587785 -0.809017 0
    outer loop
      vertex 6.69131 17.5686 -13.1318
      vertex 5 16.3397 -27.3267
      vertex 6.69131 17.5686 -27.3267
    endloop
  endfacet
  facet normal 0.866026 -0.5 0
    outer loop
      vertex 8.09017 19.1221 -27.3267
      vertex 9.13545 20.9326 -10.5658
      vertex 8.09017 19.1221 -10.4597
    endloop
  endfacet
  facet normal 0.866026 -0.5 0
    outer loop
      vertex 9.13545 20.9326 -10.5658
      vertex 8.09017 19.1221 -27.3267
      vertex 9.13545 20.9326 -27.3267
    endloop
  endfacet
  facet normal -0.587785 -0.809017 -7.31845e-09
    outer loop
      vertex -5 16.3397 -27.3267
      vertex -5.67966 16.8336 -5
      vertex -6.69131 17.5686 -27.3267
    endloop
  endfacet
  facet normal -0.587785 -0.809017 -1.25535e-08
    outer loop
      vertex -5.67966 16.8336 -5
      vertex -5 16.3397 -27.3267
      vertex -5 16.3397 -5
    endloop
  endfacet
  facet normal -0.207911 -0.978148 0
    outer loop
      vertex -3.09017 15.4894 -27.3267
      vertex -1.04528 15.0548 -5
      vertex -3.09017 15.4894 -5
    endloop
  endfacet
  facet normal -0.207911 -0.978148 -0
    outer loop
      vertex -1.04528 15.0548 -5
      vertex -3.09017 15.4894 -27.3267
      vertex -1.04528 15.0548 -27.3267
    endloop
  endfacet
  facet normal 0 -1 0
    outer loop
      vertex -1.04528 15.0548 -5
      vertex -0.412606 15.0548 -5.02477
      vertex -0.402246 15.0548 -5
    endloop
  endfacet
  facet normal 0 -1 0
    outer loop
      vertex -1.04528 15.0548 -5
      vertex 0.428294 15.0548 -6.09879
      vertex -0.412606 15.0548 -5.02477
    endloop
  endfacet
  facet normal 0 -1 0
    outer loop
      vertex -1.04528 15.0548 -5
      vertex 1.04528 15.0548 -6.88684
      vertex 0.428294 15.0548 -6.09879
    endloop
  endfacet
  facet normal 0 -1 0
    outer loop
      vertex -1.04528 15.0548 -27.3267
      vertex 1.04528 15.0548 -6.88684
      vertex -1.04528 15.0548 -5
    endloop
  endfacet
  facet normal 0 -1 -0
    outer loop
      vertex 1.04528 15.0548 -6.88684
      vertex -1.04528 15.0548 -27.3267
      vertex 1.04528 15.0548 -27.3267
    endloop
  endfacet
  facet normal 0.994522 0.104529 0
    outer loop
      vertex 9.97061 25.2796 -13.3157
      vertex 9.78148 27.0791 -27.3267
      vertex 9.78148 27.0791 -11.9977
    endloop
  endfacet
  facet normal 0.994522 0.104528 -1.57316e-07
    outer loop
      vertex 10 25 -13.4536
      vertex 9.78148 27.0791 -27.3267
      vertex 9.97061 25.2796 -13.3157
    endloop
  endfacet
  facet normal 0.994522 0.104529 0
    outer loop
      vertex 9.78148 27.0791 -27.3267
      vertex 10 25 -13.4536
      vertex 10 25 -27.3267
    endloop
  endfacet
  facet normal 0.866026 0.499999 0
    outer loop
      vertex 8.47768 30.2067 -8.52073
      vertex 8.09017 30.8779 -27.3267
      vertex 8.09017 30.8779 -7.58625
    endloop
  endfacet
  facet normal 0.866025 0.5 5.88116e-08
    outer loop
      vertex 8.98558 29.327 -9.74552
      vertex 8.09017 30.8779 -27.3267
      vertex 8.47768 30.2067 -8.52073
    endloop
  endfacet
  facet normal 0.866026 0.499999 -2.43749e-08
    outer loop
      vertex 9.13545 29.0674 -10.0137
      vertex 8.09017 30.8779 -27.3267
      vertex 8.98558 29.327 -9.74552
    endloop
  endfacet
  facet normal 0.866026 0.5 0
    outer loop
      vertex 8.09017 30.8779 -27.3267
      vertex 9.13545 29.0674 -10.0137
      vertex 9.13545 29.0674 -27.3267
    endloop
  endfacet
  facet normal 0.587787 0.809016 1.25535e-08
    outer loop
      vertex 6.01164 32.9253 -5
      vertex 5 33.6603 -27.3267
      vertex 5 33.6603 -5
    endloop
  endfacet
  facet normal 0.207911 -0.978148 0
    outer loop
      vertex 1.04528 15.0548 -27.3267
      vertex 1.27233 15.103 -7.2771
      vertex 1.04528 15.0548 -6.88684
    endloop
  endfacet
  facet normal 0.207912 -0.978148 -8.15523e-09
    outer loop
      vertex 1.04528 15.0548 -27.3267
      vertex 2.32658 15.3271 -8.52062
      vertex 1.27233 15.103 -7.2771
    endloop
  endfacet
  facet normal 0.207911 -0.978148 -2.80987e-09
    outer loop
      vertex 1.04528 15.0548 -27.3267
      vertex 3.09017 15.4894 -9.42128
      vertex 2.32658 15.3271 -8.52062
    endloop
  endfacet
  facet normal 0.207911 -0.978148 0
    outer loop
      vertex 3.09017 15.4894 -9.42128
      vertex 1.04528 15.0548 -27.3267
      vertex 3.09017 15.4894 -27.3267
    endloop
  endfacet
  facet normal 0.743141 -0.669135 0
    outer loop
      vertex 7.97758 18.9971 -14.0776
      vertex 8.09017 19.1221 -10.4597
      vertex 7.97758 18.9971 -10.4379
    endloop
  endfacet
  facet normal 0.743141 -0.669135 0
    outer loop
      vertex 8.09017 19.1221 -10.4597
      vertex 7.97758 18.9971 -14.0776
      vertex 8.09017 19.1221 -27.3267
    endloop
  endfacet
  facet normal 0.743145 -0.669131 -1.43217e-08
    outer loop
      vertex 6.69131 17.5686 -27.3267
      vertex 7.97758 18.9971 -14.0776
      vertex 6.8647 17.7611 -13.3165
    endloop
  endfacet
  facet normal 0.743144 -0.669131 0
    outer loop
      vertex 6.69131 17.5686 -27.3267
      vertex 6.8647 17.7611 -13.3165
      vertex 6.69131 17.5686 -13.1318
    endloop
  endfacet
  facet normal 0.743144 -0.669131 7.28451e-08
    outer loop
      vertex 7.97758 18.9971 -14.0776
      vertex 6.69131 17.5686 -27.3267
      vertex 8.09017 19.1221 -27.3267
    endloop
  endfacet
  facet normal 0.994522 -0.104529 0
    outer loop
      vertex 9.8561 23.6309 -10.4247
      vertex 9.78148 22.9209 -10.5029
      vertex 9.8561 23.6309 -14.0643
    endloop
  endfacet
  facet normal 0.994522 -0.104529 0
    outer loop
      vertex 9.8561 23.6309 -14.0643
      vertex 10 25 -27.3267
      vertex 10 25 -13.4536
    endloop
  endfacet
  facet normal 0.994522 -0.104529 0
    outer loop
      vertex 9.78148 22.9209 -27.3267
      vertex 9.8561 23.6309 -14.0643
      vertex 9.78148 22.9209 -10.5029
    endloop
  endfacet
  facet normal 0.994522 -0.104529 -2.8875e-08
    outer loop
      vertex 9.8561 23.6309 -14.0643
      vertex 9.78148 22.9209 -27.3267
      vertex 10 25 -27.3267
    endloop
  endfacet
  facet normal -0.406738 0.913545 0
    outer loop
      vertex -3.09017 34.5106 -5
      vertex -3.09017 34.5106 -27.3267
      vertex -4.23252 34.002 -5
    endloop
  endfacet
  facet normal -0.20791 0.978148 0
    outer loop
      vertex -1.04528 34.9452 -27.3267
      vertex -3.09017 34.5106 -5
      vertex -1.04528 34.9452 -5
    endloop
  endfacet
  facet normal -0.20791 0.978148 0
    outer loop
      vertex -3.09017 34.5106 -5
      vertex -1.04528 34.9452 -27.3267
      vertex -3.09017 34.5106 -27.3267
    endloop
  endfacet
  facet normal -0.866026 0.5 0
    outer loop
      vertex -9.13545 29.0674 -27.3267
      vertex -8.09017 30.8779 -5
      vertex -8.09017 30.8779 -27.3267
    endloop
  endfacet
  facet normal -0.866026 0.5 0
    outer loop
      vertex -8.09017 30.8779 -5
      vertex -9.13545 29.0674 -27.3267
      vertex -9.13545 29.0674 -5
    endloop
  endfacet
  facet normal 0.951056 0.309017 0
    outer loop
      vertex 9.69225 27.3537 -11.7892
      vertex 9.13545 29.0674 -27.3267
      vertex 9.13545 29.0674 -10.0137
    endloop
  endfacet
  facet normal 0.951057 0.309015 -2.06864e-07
    outer loop
      vertex 9.78148 27.0791 -11.9977
      vertex 9.13545 29.0674 -27.3267
      vertex 9.69225 27.3537 -11.7892
    endloop
  endfacet
  facet normal 0.951057 0.309017 0
    outer loop
      vertex 9.13545 29.0674 -27.3267
      vertex 9.78148 27.0791 -11.9977
      vertex 9.78148 27.0791 -27.3267
    endloop
  endfacet
  facet normal 0.406737 0.913545 4.91665e-08
    outer loop
      vertex 3.09017 34.5106 -27.3267
      vertex 3.85765 34.1689 -5
      vertex 5 33.6603 -27.3267
    endloop
  endfacet
  facet normal 0.406738 0.913545 0
    outer loop
      vertex 3.85765 34.1689 -5
      vertex 3.09017 34.5106 -27.3267
      vertex 3.09017 34.5106 -5
    endloop
  endfacet
  facet normal 0.743151 0.669123 7.76615e-06
    outer loop
      vertex 7.30771 31.7469 -6.09251
      vertex 6.69131 32.4314 -5
      vertex 6.78069 32.3322 -5
    endloop
  endfacet
  facet normal 0.743145 0.66913 0
    outer loop
      vertex 6.69131 32.4314 -5
      vertex 7.30771 31.7469 -6.09251
      vertex 6.69131 32.4314 -27.3267
    endloop
  endfacet
  facet normal 0.743145 0.669131 3.35016e-08
    outer loop
      vertex 7.87662 31.115 -7.27187
      vertex 6.69131 32.4314 -27.3267
      vertex 7.30771 31.7469 -6.09251
    endloop
  endfacet
  facet normal 0.743144 0.669132 1.68377e-07
    outer loop
      vertex 8.09017 30.8779 -7.58625
      vertex 6.69131 32.4314 -27.3267
      vertex 7.87662 31.115 -7.27187
    endloop
  endfacet
  facet normal 0.743145 0.669131 0
    outer loop
      vertex 6.69131 32.4314 -27.3267
      vertex 8.09017 30.8779 -7.58625
      vertex 8.09017 30.8779 -27.3267
    endloop
  endfacet
  facet normal 0 0 -1
    outer loop
      vertex 9.78148 22.9209 -27.3267
      vertex 9.78148 27.0791 -27.3267
      vertex 10 25 -27.3267
    endloop
  endfacet
  facet normal 0 0 -1
    outer loop
      vertex 9.13545 20.9326 -27.3267
      vertex 9.78148 27.0791 -27.3267
      vertex 9.78148 22.9209 -27.3267
    endloop
  endfacet
  facet normal 0 0 -1
    outer loop
      vertex 9.13545 20.9326 -27.3267
      vertex 9.13545 29.0674 -27.3267
      vertex 9.78148 27.0791 -27.3267
    endloop
  endfacet
  facet normal 0 0 -1
    outer loop
      vertex 8.09017 19.1221 -27.3267
      vertex 9.13545 29.0674 -27.3267
      vertex 9.13545 20.9326 -27.3267
    endloop
  endfacet
  facet normal 0 0 -1
    outer loop
      vertex 8.09017 19.1221 -27.3267
      vertex 8.09017 30.8779 -27.3267
      vertex 9.13545 29.0674 -27.3267
    endloop
  endfacet
  facet normal 0 0 -1
    outer loop
      vertex 6.69131 17.5686 -27.3267
      vertex 8.09017 30.8779 -27.3267
      vertex 8.09017 19.1221 -27.3267
    endloop
  endfacet
  facet normal 0 0 -1
    outer loop
      vertex 6.69131 17.5686 -27.3267
      vertex 6.69131 32.4314 -27.3267
      vertex 8.09017 30.8779 -27.3267
    endloop
  endfacet
  facet normal 0 0 -1
    outer loop
      vertex 5 16.3397 -27.3267
      vertex 6.69131 32.4314 -27.3267
      vertex 6.69131 17.5686 -27.3267
    endloop
  endfacet
  facet normal 0 0 -1
    outer loop
      vertex 5 16.3397 -27.3267
      vertex 5 33.6603 -27.3267
      vertex 6.69131 32.4314 -27.3267
    endloop
  endfacet
  facet normal 0 0 -1
    outer loop
      vertex 3.09017 15.4894 -27.3267
      vertex 5 33.6603 -27.3267
      vertex 5 16.3397 -27.3267
    endloop
  endfacet
  facet normal 0 0 -1
    outer loop
      vertex 3.09017 15.4894 -27.3267
      vertex 3.09017 34.5106 -27.3267
      vertex 5 33.6603 -27.3267
    endloop
  endfacet
  facet normal 0 0 -1
    outer loop
      vertex 1.04528 15.0548 -27.3267
      vertex 3.09017 34.5106 -27.3267
      vertex 3.09017 15.4894 -27.3267
    endloop
  endfacet
  facet normal 0 0 -1
    outer loop
      vertex 1.04528 15.0548 -27.3267
      vertex 1.04528 34.9452 -27.3267
      vertex 3.09017 34.5106 -27.3267
    endloop
  endfacet
  facet normal 0 0 -1
    outer loop
      vertex -1.04528 15.0548 -27.3267
      vertex 1.04528 34.9452 -27.3267
      vertex 1.04528 15.0548 -27.3267
    endloop
  endfacet
  facet normal 0 0 -1
    outer loop
      vertex -1.04528 15.0548 -27.3267
      vertex -1.04528 34.9452 -27.3267
      vertex 1.04528 34.9452 -27.3267
    endloop
  endfacet
  facet normal 0 0 -1
    outer loop
      vertex -3.09017 15.4894 -27.3267
      vertex -1.04528 34.9452 -27.3267
      vertex -1.04528 15.0548 -27.3267
    endloop
  endfacet
  facet normal 0 0 -1
    outer loop
      vertex -3.09017 15.4894 -27.3267
      vertex -3.09017 34.5106 -27.3267
      vertex -1.04528 34.9452 -27.3267
    endloop
  endfacet
  facet normal 0 0 -1
    outer loop
      vertex -5 16.3397 -27.3267
      vertex -3.09017 34.5106 -27.3267
      vertex -3.09017 15.4894 -27.3267
    endloop
  endfacet
  facet normal 0 0 -1
    outer loop
      vertex -5 16.3397 -27.3267
      vertex -5 33.6603 -27.3267
      vertex -3.09017 34.5106 -27.3267
    endloop
  endfacet
  facet normal 0 0 -1
    outer loop
      vertex -6.69131 17.5686 -27.3267
      vertex -5 33.6603 -27.3267
      vertex -5 16.3397 -27.3267
    endloop
  endfacet
  facet normal 0 0 -1
    outer loop
      vertex -6.69131 17.5686 -27.3267
      vertex -6.69131 32.4314 -27.3267
      vertex -5 33.6603 -27.3267
    endloop
  endfacet
  facet normal 0 0 -1
    outer loop
      vertex -8.09017 19.1221 -27.3267
      vertex -6.69131 32.4314 -27.3267
      vertex -6.69131 17.5686 -27.3267
    endloop
  endfacet
  facet normal 0 0 -1
    outer loop
      vertex -8.09017 19.1221 -27.3267
      vertex -8.09017 30.8779 -27.3267
      vertex -6.69131 32.4314 -27.3267
    endloop
  endfacet
  facet normal 0 0 -1
    outer loop
      vertex -9.13545 20.9326 -27.3267
      vertex -8.09017 30.8779 -27.3267
      vertex -8.09017 19.1221 -27.3267
    endloop
  endfacet
  facet normal 0 0 -1
    outer loop
      vertex -9.13545 20.9326 -27.3267
      vertex -9.13545 29.0674 -27.3267
      vertex -8.09017 30.8779 -27.3267
    endloop
  endfacet
  facet normal 0 0 -1
    outer loop
      vertex -9.78148 22.9209 -27.3267
      vertex -9.13545 29.0674 -27.3267
      vertex -9.13545 20.9326 -27.3267
    endloop
  endfacet
  facet normal 0 0 -1
    outer loop
      vertex -9.78148 22.9209 -27.3267
      vertex -9.78148 27.0791 -27.3267
      vertex -9.13545 29.0674 -27.3267
    endloop
  endfacet
  facet normal 0 -0 -1
    outer loop
      vertex -9.78148 27.0791 -27.3267
      vertex -9.78148 22.9209 -27.3267
      vertex -10 25 -27.3267
    endloop
  endfacet
  facet normal -0.406737 -0.913546 0
    outer loop
      vertex -4.23252 15.998 -5
      vertex -3.09017 15.4894 -27.3267
      vertex -3.09017 15.4894 -5
    endloop
  endfacet
  facet normal -0.406737 -0.913545 -8.68681e-09
    outer loop
      vertex -5 16.3397 -27.3267
      vertex -4.23252 15.998 -5
      vertex -5 16.3397 -5
    endloop
  endfacet
  facet normal -0.406737 -0.913545 -2.05366e-08
    outer loop
      vertex -4.23252 15.998 -5
      vertex -5 16.3397 -27.3267
      vertex -3.09017 15.4894 -27.3267
    endloop
  endfacet
  facet normal -0.587785 -0.809017 -0
    outer loop
      vertex -6.69131 17.5686 -5
      vertex -6.69131 17.5686 -27.3267
      vertex -5.67966 16.8336 -5
    endloop
  endfacet
  facet normal -0.866026 -0.5 0
    outer loop
      vertex -8.09017 19.1221 -27.3267
      vertex -9.13545 20.9326 -5
      vertex -9.13545 20.9326 -27.3267
    endloop
  endfacet
  facet normal -0.866026 -0.5 0
    outer loop
      vertex -9.13545 20.9326 -5
      vertex -8.09017 19.1221 -27.3267
      vertex -8.09017 19.1221 -5
    endloop
  endfacet
  facet normal -0.587785 0.809017 0
    outer loop
      vertex -5.67966 33.1665 -5
      vertex -6.69131 32.4314 -27.3267
      vertex -6.69131 32.4314 -5
    endloop
  endfacet
  facet normal -0.743145 0.669131 0
    outer loop
      vertex -8.09017 30.8779 -27.3267
      vertex -6.69131 32.4314 -5
      vertex -6.69131 32.4314 -27.3267
    endloop
  endfacet
  facet normal -0.743145 0.669131 0
    outer loop
      vertex -6.69131 32.4314 -5
      vertex -8.09017 30.8779 -27.3267
      vertex -8.09017 30.8779 -5
    endloop
  endfacet
  facet normal -0.406737 0.913545 9.65286e-08
    outer loop
      vertex -5 33.6603 -27.3267
      vertex -4.23252 34.002 -5
      vertex -3.09017 34.5106 -27.3267
    endloop
  endfacet
  facet normal -0.406734 0.913546 -8.68675e-09
    outer loop
      vertex -4.23252 34.002 -5
      vertex -5 33.6603 -27.3267
      vertex -5 33.6603 -5
    endloop
  endfacet
  facet normal 0.20791 0.978148 -0
    outer loop
      vertex 3.09017 34.5106 -27.3267
      vertex 1.04528 34.9452 -5
      vertex 3.09017 34.5106 -5
    endloop
  endfacet
  facet normal 0.20791 0.978148 0
    outer loop
      vertex 1.04528 34.9452 -5
      vertex 3.09017 34.5106 -27.3267
      vertex 1.04528 34.9452 -27.3267
    endloop
  endfacet
  facet normal 0.587783 0.809019 -0
    outer loop
      vertex 6.69131 32.4314 -27.3267
      vertex 6.01164 32.9253 -5
      vertex 6.69131 32.4314 -5
    endloop
  endfacet
  facet normal 0.587785 0.809017 1.30528e-07
    outer loop
      vertex 6.01164 32.9253 -5
      vertex 6.69131 32.4314 -27.3267
      vertex 5 33.6603 -27.3267
    endloop
  endfacet
  facet normal -0.743144 -0.669131 0
    outer loop
      vertex -6.69131 17.5686 -27.3267
      vertex -8.09017 19.1221 -5
      vertex -8.09017 19.1221 -27.3267
    endloop
  endfacet
  facet normal -0.743144 -0.669131 0
    outer loop
      vertex -8.09017 19.1221 -5
      vertex -6.69131 17.5686 -27.3267
      vertex -6.69131 17.5686 -5
    endloop
  endfacet
  facet normal -0.951057 -0.309017 0
    outer loop
      vertex -9.13545 20.9326 -27.3267
      vertex -9.78148 22.9209 -5
      vertex -9.78148 22.9209 -27.3267
    endloop
  endfacet
  facet normal -0.951057 -0.309017 0
    outer loop
      vertex -9.78148 22.9209 -5
      vertex -9.13545 20.9326 -27.3267
      vertex -9.13545 20.9326 -5
    endloop
  endfacet
  facet normal -0.994522 -0.104529 0
    outer loop
      vertex -9.91218 24.1645 -5
      vertex -9.78148 22.9209 -27.3267
      vertex -9.78148 22.9209 -5
    endloop
  endfacet
  facet normal -0.994522 -0.104529 -4.24806e-08
    outer loop
      vertex -10 25 -27.3267
      vertex -9.91218 24.1645 -5
      vertex -10 25 -5
    endloop
  endfacet
  facet normal -0.994522 -0.104528 -7.98895e-09
    outer loop
      vertex -9.91218 24.1645 -5
      vertex -10 25 -27.3267
      vertex -9.78148 22.9209 -27.3267
    endloop
  endfacet
  facet normal -0 0 1
    outer loop
      vertex -1.04528 34.9452 -5
      vertex -0.639131 30.5535 -5
      vertex 1.04528 34.9452 -5
    endloop
  endfacet
  facet normal -0 0 1
    outer loop
      vertex -3.09017 34.5106 -5
      vertex -0.639131 30.5535 -5
      vertex -1.04528 34.9452 -5
    endloop
  endfacet
  facet normal -0 0 1
    outer loop
      vertex -4.23252 34.002 -5
      vertex -0.639131 30.5535 -5
      vertex -3.09017 34.5106 -5
    endloop
  endfacet
  facet normal 0 0 1
    outer loop
      vertex -5.33759 32.2636 -5
      vertex -4.23252 34.002 -5
      vertex -5 33.6603 -5
    endloop
  endfacet
  facet normal 0 0 1
    outer loop
      vertex -4.23252 34.002 -5
      vertex -5.33759 32.2636 -5
      vertex -0.639131 30.5535 -5
    endloop
  endfacet
  facet normal -0 0 1
    outer loop
      vertex -5.67966 33.1665 -5
      vertex -5.33759 32.2636 -5
      vertex -5 33.6603 -5
    endloop
  endfacet
  facet normal -0 0 1
    outer loop
      vertex -6.69131 32.4314 -5
      vertex -5.33759 32.2636 -5
      vertex -5.67966 33.1665 -5
    endloop
  endfacet
  facet normal 0 0 1
    outer loop
      vertex -8.09017 30.8779 -5
      vertex -5.33759 32.2636 -5
      vertex -6.69131 32.4314 -5
    endloop
  endfacet
  facet normal 0 0 1
    outer loop
      vertex -9.13545 29.0674 -5
      vertex -5.33759 32.2636 -5
      vertex -8.09017 30.8779 -5
    endloop
  endfacet
  facet normal 0 0 1
    outer loop
      vertex -5.33759 32.2636 -5
      vertex -9.13545 29.0674 -5
      vertex -8.7578 22.8667 -5
    endloop
  endfacet
  facet normal 0 0 1
    outer loop
      vertex -0.639131 30.5535 -5
      vertex 3.85765 34.1689 -5
      vertex 3.09017 34.5106 -5
    endloop
  endfacet
  facet normal 0 0 1
    outer loop
      vertex -0.639131 30.5535 -5
      vertex 3.09017 34.5106 -5
      vertex 1.04528 34.9452 -5
    endloop
  endfacet
  facet normal 0 0 1
    outer loop
      vertex 3.85765 34.1689 -5
      vertex -0.639131 30.5535 -5
      vertex 3.29627 26.3426 -5
    endloop
  endfacet
  facet normal 0 0 1
    outer loop
      vertex 3.29627 26.3426 -5
      vertex -0.639131 30.5535 -5
      vertex -1.45667 28.3073 -5
    endloop
  endfacet
  facet normal 0 0 1
    outer loop
      vertex 6.69131 32.4314 -5
      vertex 6.74343 32.341 -5
      vertex 6.78069 32.3322 -5
    endloop
  endfacet
  facet normal 0 0 1
    outer loop
      vertex 6.01164 32.9253 -5
      vertex 6.74343 32.341 -5
      vertex 6.69131 32.4314 -5
    endloop
  endfacet
  facet normal 0 0 1
    outer loop
      vertex 3.29627 26.3426 -5
      vertex 6.01164 32.9253 -5
      vertex 5 33.6603 -5
    endloop
  endfacet
  facet normal 0 0 1
    outer loop
      vertex 3.29627 26.3426 -5
      vertex 5 33.6603 -5
      vertex 3.85765 34.1689 -5
    endloop
  endfacet
  facet normal 0 0 1
    outer loop
      vertex 6.01164 32.9253 -5
      vertex 3.29627 26.3426 -5
      vertex 6.74343 32.341 -5
    endloop
  endfacet
  facet normal 0 0 1
    outer loop
      vertex 1.38617 21.7218 -5
      vertex 6.74343 32.341 -5
      vertex 3.29627 26.3426 -5
    endloop
  endfacet
  facet normal -0 0 1
    outer loop
      vertex 1.38617 21.7218 -5
      vertex -0.402246 15.0548 -5
      vertex 6.74343 32.341 -5
    endloop
  endfacet
  facet normal 0 0 1
    outer loop
      vertex 1.38617 21.7218 -5
      vertex -1.04528 15.0548 -5
      vertex -0.402246 15.0548 -5
    endloop
  endfacet
  facet normal -0 0 1
    outer loop
      vertex -4.05933 21.1566 -5
      vertex -1.04528 15.0548 -5
      vertex 1.38617 21.7218 -5
    endloop
  endfacet
  facet normal 0 0 1
    outer loop
      vertex -4.05933 21.1566 -5
      vertex 1.38617 21.7218 -5
      vertex -3.16835 23.6045 -5
    endloop
  endfacet
  facet normal 0 0 1
    outer loop
      vertex -1.04528 15.0548 -5
      vertex -4.05933 21.1566 -5
      vertex -3.09017 15.4894 -5
    endloop
  endfacet
  facet normal 0 0 1
    outer loop
      vertex -4.05933 21.1566 -5
      vertex -4.23252 15.998 -5
      vertex -3.09017 15.4894 -5
    endloop
  endfacet
  facet normal 0 0 1
    outer loop
      vertex -4.05933 21.1566 -5
      vertex -5 16.3397 -5
      vertex -4.23252 15.998 -5
    endloop
  endfacet
  facet normal 0 0 1
    outer loop
      vertex -4.05933 21.1566 -5
      vertex -5.67966 16.8336 -5
      vertex -5 16.3397 -5
    endloop
  endfacet
  facet normal 0 0 1
    outer loop
      vertex -4.05933 21.1566 -5
      vertex -6.69131 17.5686 -5
      vertex -5.67966 16.8336 -5
    endloop
  endfacet
  facet normal 0 0 1
    outer loop
      vertex -4.05933 21.1566 -5
      vertex -8.09017 19.1221 -5
      vertex -6.69131 17.5686 -5
    endloop
  endfacet
  facet normal 0 0 1
    outer loop
      vertex -9.13545 20.9326 -5
      vertex -4.05933 21.1566 -5
      vertex -8.7578 22.8667 -5
    endloop
  endfacet
  facet normal 0 0 1
    outer loop
      vertex -4.05933 21.1566 -5
      vertex -9.13545 20.9326 -5
      vertex -8.09017 19.1221 -5
    endloop
  endfacet
  facet normal -0 0 1
    outer loop
      vertex -9.78148 27.0791 -5
      vertex -8.7578 22.8667 -5
      vertex -9.13545 29.0674 -5
    endloop
  endfacet
  facet normal 0 0 1
    outer loop
      vertex -8.7578 22.8667 -5
      vertex -9.78148 27.0791 -5
      vertex -9.91218 25.8355 -5
    endloop
  endfacet
  facet normal -0 0 1
    outer loop
      vertex -10 25 -5
      vertex -8.7578 22.8667 -5
      vertex -9.91218 25.8355 -5
    endloop
  endfacet
  facet normal -0 -0 1
    outer loop
      vertex -9.78148 22.9209 -5
      vertex -8.7578 22.8667 -5
      vertex -9.91218 24.1645 -5
    endloop
  endfacet
  facet normal 0 0 1
    outer loop
      vertex -8.7578 22.8667 -5
      vertex -9.78148 22.9209 -5
      vertex -9.13545 20.9326 -5
    endloop
  endfacet
  facet normal 0 0 1
    outer loop
      vertex -8.7578 22.8667 -5
      vertex -10 25 -5
      vertex -9.91218 24.1645 -5
    endloop
  endfacet
  facet normal -0.34202 -0.939693 0
    outer loop
      vertex -8.7578 22.8667 -5
      vertex -4.05933 21.1566 0.833333
      vertex -8.7578 22.8667 0.833333
    endloop
  endfacet
  facet normal -0.34202 -0.939693 -0
    outer loop
      vertex -4.05933 21.1566 0.833333
      vertex -8.7578 22.8667 -5
      vertex -4.05933 21.1566 -5
    endloop
  endfacet
  facet normal 0.939693 -0.34202 0
    outer loop
      vertex -0.639131 30.5535 0.833333
      vertex -1.45667 28.3073 -3.01155
      vertex -0.639131 30.5535 -5
    endloop
  endfacet
  facet normal 0.939693 -0.34202 -7.06185e-09
    outer loop
      vertex -0.639131 30.5535 0.833333
      vertex -3.16835 23.6045 -3.09456
      vertex -1.45667 28.3073 -3.01155
    endloop
  endfacet
  facet normal 0.939693 -0.34202 6.30232e-09
    outer loop
      vertex -4.05933 21.1566 0.833333
      vertex -3.16835 23.6045 -3.09456
      vertex -0.639131 30.5535 0.833333
    endloop
  endfacet
  facet normal 0.939693 -0.34202 0
    outer loop
      vertex -4.05933 21.1566 -5
      vertex -3.16835 23.6045 -3.09456
      vertex -4.05933 21.1566 0.833333
    endloop
  endfacet
  facet normal 0.939693 -0.34202 0
    outer loop
      vertex -3.16835 23.6045 -3.09456
      vertex -4.05933 21.1566 -5
      vertex -3.16835 23.6045 -5
    endloop
  endfacet
  facet normal 0.939693 -0.34202 0
    outer loop
      vertex -0.639131 30.5535 -5
      vertex -1.45667 28.3073 -3.01155
      vertex -1.45667 28.3073 -5
    endloop
  endfacet
  facet normal 0 0 1
    outer loop
      vertex -5.33759 32.2636 0.833333
      vertex -4.05933 21.1566 0.833333
      vertex -0.639131 30.5535 0.833333
    endloop
  endfacet
  facet normal 0 0 1
    outer loop
      vertex -4.05933 21.1566 0.833333
      vertex -5.33759 32.2636 0.833333
      vertex -8.7578 22.8667 0.833333
    endloop
  endfacet
  facet normal 0.34202 0.939693 -0
    outer loop
      vertex -0.639131 30.5535 -5
      vertex -5.33759 32.2636 0.833333
      vertex -0.639131 30.5535 0.833333
    endloop
  endfacet
  facet normal 0.34202 0.939693 0
    outer loop
      vertex -5.33759 32.2636 0.833333
      vertex -0.639131 30.5535 -5
      vertex -5.33759 32.2636 -5
    endloop
  endfacet
  facet normal -0.939693 0.34202 0
    outer loop
      vertex -6.0817 30.2192 -1.07662
      vertex -5.33759 32.2636 -5
      vertex -6.0817 30.2192 -3.75696
    endloop
  endfacet
  facet normal -0.939693 0.34202 5.22425e-08
    outer loop
      vertex -5.33759 32.2636 -5
      vertex -7.79338 25.5164 -3.83998
      vertex -6.0817 30.2192 -3.75696
    endloop
  endfacet
  facet normal -0.939693 0.34202 0
    outer loop
      vertex -7.79338 25.5164 -3.83998
      vertex -8.7578 22.8667 -5
      vertex -7.79338 25.5164 -1.15963
    endloop
  endfacet
  facet normal -0.939693 0.34202 -2.53641e-08
    outer loop
      vertex -8.7578 22.8667 -5
      vertex -7.79338 25.5164 -3.83998
      vertex -5.33759 32.2636 -5
    endloop
  endfacet
  facet normal -0.939693 0.34202 0
    outer loop
      vertex -5.33759 32.2636 -5
      vertex -6.0817 30.2192 -1.07662
      vertex -5.33759 32.2636 0.833333
    endloop
  endfacet
  facet normal -0.939693 0.34202 -3.56615e-08
    outer loop
      vertex -7.79338 25.5164 -1.15963
      vertex -5.33759 32.2636 0.833333
      vertex -6.0817 30.2192 -1.07662
    endloop
  endfacet
  facet normal -0.939693 0.34202 1.47634e-08
    outer loop
      vertex -7.79338 25.5164 -1.15963
      vertex -8.7578 22.8667 0.833333
      vertex -5.33759 32.2636 0.833333
    endloop
  endfacet
  facet normal -0.939693 0.34202 0
    outer loop
      vertex -8.7578 22.8667 0.833333
      vertex -7.79338 25.5164 -1.15963
      vertex -8.7578 22.8667 -5
    endloop
  endfacet
  facet normal 0.861971 -0.356316 -0.360616
    outer loop
      vertex 4.01517 26.0454 -5.30076
      vertex 6.33825 32.1207 -5.75081
      vertex 6.74343 32.341 -5
    endloop
  endfacet
  facet normal 0.861971 -0.356316 -0.360616
    outer loop
      vertex 6.33825 32.1207 -5.75081
      vertex 4.01517 26.0454 -5.30076
      vertex 5.95193 31.9106 -6.46665
    endloop
  endfacet
  facet normal 0.861971 -0.356316 -0.360616
    outer loop
      vertex 5.95193 31.9106 -6.46665
      vertex 4.01517 26.0454 -5.30076
      vertex 5.53678 31.5479 -7.10058
    endloop
  endfacet
  facet normal 0.861971 -0.356316 -0.360616
    outer loop
      vertex 3.18201 26.3898 -7.63254
      vertex 5.53678 31.5479 -7.10058
      vertex 4.01517 26.0454 -5.30076
    endloop
  endfacet
  facet normal 0.861971 -0.356317 -0.360616
    outer loop
      vertex 4.91885 31.008 -8.04416
      vertex 3.18201 26.3898 -7.63254
      vertex 3.85915 29.765 -9.3489
    endloop
  endfacet
  facet normal 0.861971 -0.356317 -0.360616
    outer loop
      vertex 3.85915 29.765 -9.3489
      vertex 3.18201 26.3898 -7.63254
      vertex 2.81915 28.2358 -10.3238
    endloop
  endfacet
  facet normal 0.861972 -0.356316 -0.360616
    outer loop
      vertex 2.81915 28.2358 -10.3238
      vertex 3.18201 26.3898 -7.63254
      vertex 2.05067 26.8575 -10.7989
    endloop
  endfacet
  facet normal 0.861972 -0.356317 -0.360615
    outer loop
      vertex 5.53678 31.5479 -7.10058
      vertex 3.18201 26.3898 -7.63254
      vertex 4.91885 31.008 -8.04416
    endloop
  endfacet
  facet normal 0.861971 -0.356317 -0.360616
    outer loop
      vertex 6.74343 32.341 -5
      vertex 2.10506 21.4246 -5.30076
      vertex 4.01517 26.0454 -5.30076
    endloop
  endfacet
  facet normal 0.861971 -0.356317 -0.360616
    outer loop
      vertex 1.2719 21.7691 -7.63254
      vertex -0.631771 18.9009 -9.3489
      vertex -0.288484 20.7181 -10.3238
    endloop
  endfacet
  facet normal 0.861971 -0.356316 -0.360616
    outer loop
      vertex 1.2719 21.7691 -7.63254
      vertex -0.759086 17.2724 -8.04416
      vertex -0.631771 18.9009 -9.3489
    endloop
  endfacet
  facet normal 0.861971 -0.356316 -0.360616
    outer loop
      vertex 2.10506 21.4246 -5.30076
      vertex -0.702727 16.4538 -7.10058
      vertex -0.759086 17.2724 -8.04416
    endloop
  endfacet
  facet normal 0.861972 -0.356317 -0.360615
    outer loop
      vertex 2.10506 21.4246 -5.30076
      vertex -0.664863 15.9038 -6.46665
      vertex -0.702727 16.4538 -7.10058
    endloop
  endfacet
  facet normal 0.861971 -0.356316 -0.360616
    outer loop
      vertex 2.10506 21.4246 -5.30076
      vertex -0.539628 15.4823 -5.75081
      vertex -0.664863 15.9038 -6.46665
    endloop
  endfacet
  facet normal 0.861971 -0.356316 -0.360617
    outer loop
      vertex -0.402246 15.0548 -5
      vertex 2.10506 21.4246 -5.30076
      vertex 6.74343 32.341 -5
    endloop
  endfacet
  facet normal 0.861972 -0.356316 -0.360616
    outer loop
      vertex -0.402246 15.0548 -5
      vertex -0.539628 15.4823 -5.75081
      vertex 2.10506 21.4246 -5.30076
    endloop
  endfacet
  facet normal 0.861973 -0.356314 -0.360614
    outer loop
      vertex -0.539628 15.4823 -5.75081
      vertex -0.402246 15.0548 -5
      vertex -0.412606 15.0548 -5.02477
    endloop
  endfacet
  facet normal 0.861971 -0.356317 -0.360616
    outer loop
      vertex 1.2719 21.7691 -7.63254
      vertex -0.288484 20.7181 -10.3238
      vertex 0.140562 22.2367 -10.7989
    endloop
  endfacet
  facet normal 0.861972 -0.356317 -0.360616
    outer loop
      vertex -0.759086 17.2724 -8.04416
      vertex 1.2719 21.7691 -7.63254
      vertex 2.10506 21.4246 -5.30076
    endloop
  endfacet
  facet normal 0.333264 -0.137763 0.932714
    outer loop
      vertex 3.18201 26.3898 -7.63254
      vertex 5.58176 19.9875 -9.43562
      vertex 7.49186 24.6082 -9.43562
    endloop
  endfacet
  facet normal 0.333264 -0.137763 0.932714
    outer loop
      vertex 3.18201 26.3898 -7.63254
      vertex 1.2719 21.7691 -7.63254
      vertex 5.58176 19.9875 -9.43562
    endloop
  endfacet
  facet normal 0.333264 -0.137763 0.932714
    outer loop
      vertex -7.79338 25.5164 -3.83998
      vertex 3.18201 26.3898 -7.63254
      vertex -6.0817 30.2192 -3.75696
    endloop
  endfacet
  facet normal 0.333264 -0.137763 0.932714
    outer loop
      vertex 3.18201 26.3898 -7.63254
      vertex -7.79338 25.5164 -3.83998
      vertex 1.2719 21.7691 -7.63254
    endloop
  endfacet
  facet normal 0.333265 -0.137763 0.932714
    outer loop
      vertex 7.49186 24.6082 -9.43562
      vertex 9.78148 22.9209 -10.5029
      vertex 9.8561 23.6309 -10.4247
    endloop
  endfacet
  facet normal 0.333264 -0.137763 0.932714
    outer loop
      vertex 9.78148 22.9209 -10.5029
      vertex 7.49186 24.6082 -9.43562
      vertex 9.13545 20.9326 -10.5658
    endloop
  endfacet
  facet normal 0.333264 -0.137763 0.932714
    outer loop
      vertex 5.58176 19.9875 -9.43562
      vertex 9.13545 20.9326 -10.5658
      vertex 7.49186 24.6082 -9.43562
    endloop
  endfacet
  facet normal 0.333265 -0.137763 0.932714
    outer loop
      vertex 9.13545 20.9326 -10.5658
      vertex 5.58176 19.9875 -9.43562
      vertex 8.09017 19.1221 -10.4597
    endloop
  endfacet
  facet normal 0.333265 -0.137762 0.932714
    outer loop
      vertex 8.09017 19.1221 -10.4597
      vertex 5.58176 19.9875 -9.43562
      vertex 7.97758 18.9971 -10.4379
    endloop
  endfacet
  facet normal -0.382021 -0.924154 -8.72651e-08
    outer loop
      vertex 0.140562 22.2367 -10.7989
      vertex 5.58176 19.9875 -9.43562
      vertex 1.2719 21.7691 -7.63254
    endloop
  endfacet
  facet normal -0.382021 -0.924154 -4.39686e-08
    outer loop
      vertex 7.97758 18.9971 -14.0776
      vertex 5.58176 19.9875 -9.43562
      vertex 0.140562 22.2367 -10.7989
    endloop
  endfacet
  facet normal -0.382021 -0.924154 0
    outer loop
      vertex 5.58176 19.9875 -9.43562
      vertex 7.97758 18.9971 -14.0776
      vertex 7.97758 18.9971 -10.4379
    endloop
  endfacet
  facet normal 0.382021 0.924154 -0
    outer loop
      vertex 9.8561 23.6309 -14.0643
      vertex 7.49186 24.6082 -9.43562
      vertex 9.8561 23.6309 -10.4247
    endloop
  endfacet
  facet normal 0.382021 0.924154 -5.25891e-07
    outer loop
      vertex 7.49186 24.6082 -9.43562
      vertex 2.05067 26.8575 -10.7989
      vertex 3.18201 26.3898 -7.63254
    endloop
  endfacet
  facet normal 0.382021 0.924154 1.451e-07
    outer loop
      vertex 7.49186 24.6082 -9.43562
      vertex 9.8561 23.6309 -14.0643
      vertex 2.05067 26.8575 -10.7989
    endloop
  endfacet
  facet normal 0.198916 -0.416599 0.887061
    outer loop
      vertex 9.97061 25.2796 -13.3157
      vertex 9.8561 23.6309 -14.0643
      vertex 10 25 -13.4536
    endloop
  endfacet
  facet normal 0.198903 -0.416599 0.887064
    outer loop
      vertex 2.05067 26.8575 -10.7989
      vertex 9.97061 25.2796 -13.3157
      vertex 2.81915 28.2358 -10.3238
    endloop
  endfacet
  facet normal 0.198902 -0.4166 0.887064
    outer loop
      vertex 9.97061 25.2796 -13.3157
      vertex 2.05067 26.8575 -10.7989
      vertex 9.8561 23.6309 -14.0643
    endloop
  endfacet
  facet normal -0.113174 -0.828631 0.548235
    outer loop
      vertex 5.53678 31.5479 -7.10058
      vertex 7.87662 31.115 -7.27187
      vertex 5.95193 31.9106 -6.46665
    endloop
  endfacet
  facet normal -0.113174 -0.828632 0.548234
    outer loop
      vertex 5.53678 31.5479 -7.10058
      vertex 8.09017 30.8779 -7.58625
      vertex 7.87662 31.115 -7.27187
    endloop
  endfacet
  facet normal -0.113173 -0.82863 0.548237
    outer loop
      vertex 8.09017 30.8779 -7.58625
      vertex 5.53678 31.5479 -7.10058
      vertex 8.47768 30.2067 -8.52073
    endloop
  endfacet
  facet normal 0.504949 0.666682 0.548235
    outer loop
      vertex 1.27233 15.103 -7.2771
      vertex -0.702727 16.4538 -7.10058
      vertex -0.664863 15.9038 -6.46665
    endloop
  endfacet
  facet normal 0.504949 0.666681 0.548236
    outer loop
      vertex -0.702727 16.4538 -7.10058
      vertex 1.27233 15.103 -7.2771
      vertex 2.32658 15.3271 -8.52062
    endloop
  endfacet
  facet normal -0.213406 -0.900305 0.379352
    outer loop
      vertex 6.33825 32.1207 -5.75081
      vertex 6.78069 32.3322 -5
      vertex 6.74343 32.341 -5
    endloop
  endfacet
  facet normal -0.213442 -0.90029 0.379369
    outer loop
      vertex 6.78069 32.3322 -5
      vertex 6.33825 32.1207 -5.75081
      vertex 7.30771 31.7469 -6.09251
    endloop
  endfacet
  facet normal 0.0976053 -0.581382 0.807755
    outer loop
      vertex 2.81915 28.2358 -10.3238
      vertex 9.78148 27.0791 -11.9977
      vertex 9.69225 27.3537 -11.7892
    endloop
  endfacet
  facet normal 0.097605 -0.581383 0.807754
    outer loop
      vertex 2.81915 28.2358 -10.3238
      vertex 9.69225 27.3537 -11.7892
      vertex 3.85915 29.765 -9.3489
    endloop
  endfacet
  facet normal 0.0976052 -0.581382 0.807755
    outer loop
      vertex 9.78148 27.0791 -11.9977
      vertex 2.81915 28.2358 -10.3238
      vertex 9.97061 25.2796 -13.3157
    endloop
  endfacet
  facet normal 0.484544 0.788223 0.379369
    outer loop
      vertex -0.539628 15.4823 -5.75081
      vertex -0.412606 15.0548 -5.02477
      vertex 0.428294 15.0548 -6.09879
    endloop
  endfacet
  facet normal 0.484544 0.788223 0.37937
    outer loop
      vertex 0.428294 15.0548 -6.09879
      vertex -0.664863 15.9038 -6.46665
      vertex -0.539628 15.4823 -5.75081
    endloop
  endfacet
  facet normal 0.484544 0.788223 0.379369
    outer loop
      vertex 1.04528 15.0548 -6.88684
      vertex -0.664863 15.9038 -6.46665
      vertex 0.428294 15.0548 -6.09879
    endloop
  endfacet
  facet normal 0.484544 0.788223 0.379369
    outer loop
      vertex -0.664863 15.9038 -6.46665
      vertex 1.04528 15.0548 -6.88684
      vertex 1.27233 15.103 -7.2771
    endloop
  endfacet
  facet normal 0.504949 0.666681 0.548236
    outer loop
      vertex 2.32658 15.3271 -8.52062
      vertex -0.759086 17.2724 -8.04416
      vertex -0.702727 16.4538 -7.10058
    endloop
  endfacet
  facet normal 0.504949 0.666681 0.548236
    outer loop
      vertex 3.09017 15.4894 -9.42128
      vertex -0.759086 17.2724 -8.04416
      vertex 2.32658 15.3271 -8.52062
    endloop
  endfacet
  facet normal 0.504949 0.666681 0.548236
    outer loop
      vertex -0.759086 17.2724 -8.04416
      vertex 3.09017 15.4894 -9.42128
      vertex 3.31357 15.5889 -9.748
    endloop
  endfacet
  facet normal 0.479626 0.342771 0.807754
    outer loop
      vertex -0.288484 20.7181 -10.3238
      vertex 6.69131 17.5686 -13.1318
      vertex 6.8647 17.7611 -13.3165
    endloop
  endfacet
  facet normal 0.479626 0.34277 0.807755
    outer loop
      vertex 6.69131 17.5686 -13.1318
      vertex -0.288484 20.7181 -10.3238
      vertex 5.20451 16.4883 -11.7906
    endloop
  endfacet
  facet normal 0.479626 0.34277 0.807754
    outer loop
      vertex 5.20451 16.4883 -11.7906
      vertex -0.288484 20.7181 -10.3238
      vertex -0.631771 18.9009 -9.3489
    endloop
  endfacet
  facet normal -0.113173 -0.82863 0.548237
    outer loop
      vertex 4.91885 31.008 -8.04416
      vertex 8.47768 30.2067 -8.52073
      vertex 5.53678 31.5479 -7.10058
    endloop
  endfacet
  facet normal -0.113174 -0.828631 0.548235
    outer loop
      vertex 8.47768 30.2067 -8.52073
      vertex 4.91885 31.008 -8.04416
      vertex 8.98558 29.327 -9.74552
    endloop
  endfacet
  facet normal -0.0079582 -0.720757 0.693142
    outer loop
      vertex 3.85915 29.765 -9.3489
      vertex 8.98558 29.327 -9.74552
      vertex 4.91885 31.008 -8.04416
    endloop
  endfacet
  facet normal -0.00795815 -0.720757 0.693142
    outer loop
      vertex 3.85915 29.765 -9.3489
      vertex 9.13545 29.0674 -10.0137
      vertex 8.98558 29.327 -9.74552
    endloop
  endfacet
  facet normal -0.00795826 -0.720757 0.693142
    outer loop
      vertex 9.13545 29.0674 -10.0137
      vertex 3.85915 29.765 -9.3489
      vertex 9.69225 27.3537 -11.7892
    endloop
  endfacet
  facet normal -0.213442 -0.90029 0.379369
    outer loop
      vertex 5.95193 31.9106 -6.46665
      vertex 7.30771 31.7469 -6.09251
      vertex 6.33825 32.1207 -5.75081
    endloop
  endfacet
  facet normal -0.213443 -0.900289 0.37937
    outer loop
      vertex 7.30771 31.7469 -6.09251
      vertex 5.95193 31.9106 -6.46665
      vertex 7.87662 31.115 -7.27187
    endloop
  endfacet
  facet normal 0.503286 0.516003 0.693141
    outer loop
      vertex -0.631771 18.9009 -9.3489
      vertex 5 16.3397 -11.5315
      vertex 5.20451 16.4883 -11.7906
    endloop
  endfacet
  facet normal 0.503286 0.516002 0.693142
    outer loop
      vertex 5 16.3397 -11.5315
      vertex -0.631771 18.9009 -9.3489
      vertex 3.31357 15.5889 -9.748
    endloop
  endfacet
  facet normal 0.503286 0.516002 0.693142
    outer loop
      vertex 3.31357 15.5889 -9.748
      vertex -0.631771 18.9009 -9.3489
      vertex -0.759086 17.2724 -8.04416
    endloop
  endfacet
  facet normal 0.435004 0.154558 0.887064
    outer loop
      vertex 0.140562 22.2367 -10.7989
      vertex 6.8647 17.7611 -13.3165
      vertex 7.97758 18.9971 -14.0776
    endloop
  endfacet
  facet normal 0.435004 0.154559 0.887064
    outer loop
      vertex 6.8647 17.7611 -13.3165
      vertex 0.140562 22.2367 -10.7989
      vertex -0.288484 20.7181 -10.3238
    endloop
  endfacet
  facet normal -0.333264 0.137763 -0.932714
    outer loop
      vertex 2.10506 21.4246 -5.30076
      vertex 3.29627 26.3426 -5
      vertex 4.01517 26.0454 -5.30076
    endloop
  endfacet
  facet normal -0.333265 0.137763 -0.932714
    outer loop
      vertex 3.29627 26.3426 -5
      vertex 2.10506 21.4246 -5.30076
      vertex 1.38617 21.7218 -5
    endloop
  endfacet
  facet normal -0.333264 0.137763 -0.932714
    outer loop
      vertex -7.79338 25.5164 -1.15963
      vertex -1.45667 28.3073 -3.01155
      vertex -3.16835 23.6045 -3.09456
    endloop
  endfacet
  facet normal -0.333264 0.137763 -0.932714
    outer loop
      vertex -1.45667 28.3073 -3.01155
      vertex -7.79338 25.5164 -1.15963
      vertex -6.0817 30.2192 -1.07662
    endloop
  endfacet
  facet normal 0.382021 0.924154 -3.18319e-07
    outer loop
      vertex 1.2719 21.7691 -7.63254
      vertex 1.38617 21.7218 -5
      vertex 2.10506 21.4246 -5.30076
    endloop
  endfacet
  facet normal 0.382021 0.924154 0
    outer loop
      vertex -3.16835 23.6045 -3.09456
      vertex -7.79338 25.5164 -3.83998
      vertex -7.79338 25.5164 -1.15963
    endloop
  endfacet
  facet normal 0.382021 0.924154 -0
    outer loop
      vertex -3.16835 23.6045 -5
      vertex -7.79338 25.5164 -3.83998
      vertex -3.16835 23.6045 -3.09456
    endloop
  endfacet
  facet normal 0.382021 0.924154 -4.1786e-07
    outer loop
      vertex -3.16835 23.6045 -5
      vertex 1.2719 21.7691 -7.63254
      vertex -7.79338 25.5164 -3.83998
    endloop
  endfacet
  facet normal 0.382021 0.924154 -3.18498e-07
    outer loop
      vertex 1.38617 21.7218 -5
      vertex 1.2719 21.7691 -7.63254
      vertex -3.16835 23.6045 -5
    endloop
  endfacet
  facet normal -0.382021 -0.924154 0
    outer loop
      vertex -6.0817 30.2192 -3.75696
      vertex -1.45667 28.3073 -3.01155
      vertex -6.0817 30.2192 -1.07662
    endloop
  endfacet
  facet normal -0.382021 -0.924154 0
    outer loop
      vertex -6.0817 30.2192 -3.75696
      vertex -1.45667 28.3073 -5
      vertex -1.45667 28.3073 -3.01155
    endloop
  endfacet
  facet normal -0.382021 -0.924154 -3.63103e-07
    outer loop
      vertex 3.18201 26.3898 -7.63254
      vertex 3.29627 26.3426 -5
      vertex -1.45667 28.3073 -5
    endloop
  endfacet
  facet normal -0.382021 -0.924154 -3.61705e-07
    outer loop
      vertex 3.29627 26.3426 -5
      vertex 3.18201 26.3898 -7.63254
      vertex 4.01517 26.0454 -5.30076
    endloop
  endfacet
  facet normal -0.382021 -0.924154 -5.02767e-07
    outer loop
      vertex 3.18201 26.3898 -7.63254
      vertex -1.45667 28.3073 -5
      vertex -6.0817 30.2192 -3.75696
    endloop
  endfacet
endsolid OpenSCAD_Model
