solid OpenSCAD_Model
  facet normal -0.994522 0.104529 0
    outer loop
      vertex -9.78148 2.07912 -15
      vertex -9.78148 2.07912 -27.3267
      vertex -9.85364 1.39251 -15
    endloop
  endfacet
  facet normal -0.994522 0.104528 -5.75144e-08
    outer loop
      vertex -10 2.06788e-15 -27.3267
      vertex -9.85364 1.39251 -15
      vertex -9.78148 2.07912 -27.3267
    endloop
  endfacet
  facet normal -0.994522 0.104528 6.4325e-18
    outer loop
      vertex -9.85364 1.39251 -15
      vertex -10 2.06788e-15 -27.3267
      vertex -10 1.31281e-15 -15
    endloop
  endfacet
  facet normal 0.994522 0.104529 0
    outer loop
      vertex 9.78148 2.07912 -15
      vertex 10 1.27993e-15 -27.3267
      vertex 9.78148 2.07912 -27.3267
    endloop
  endfacet
  facet normal 0.994522 0.104529 6.40296e-18
    outer loop
      vertex 10 1.27993e-15 -27.3267
      vertex 9.78148 2.07912 -15
      vertex 10 5.24853e-16 -15
    endloop
  endfacet
  facet normal 0.207911 -0.978148 0
    outer loop
      vertex 1.04528 -9.94522 -27.3267
      vertex 3.09017 -9.51056 -3.33333
      vertex 1.04528 -9.94522 -3.33333
    endloop
  endfacet
  facet normal 0.207911 -0.978148 0
    outer loop
      vertex 3.09017 -9.51056 -3.33333
      vertex 1.04528 -9.94522 -27.3267
      vertex 3.09017 -9.51056 -27.3267
    endloop
  endfacet
  facet normal 0 1 -0
    outer loop
      vertex 1.04528 9.94522 -27.3267
      vertex -1.04528 9.94522 -3.33333
      vertex 1.04528 9.94522 -3.33333
    endloop
  endfacet
  facet normal 0 1 0
    outer loop
      vertex -1.04528 9.94522 -3.33333
      vertex 1.04528 9.94522 -27.3267
      vertex -1.04528 9.94522 -27.3267
    endloop
  endfacet
  facet normal 0.866026 -0.5 0
    outer loop
      vertex 8.09017 -5.87785 -3.33333
      vertex 9.13545 -4.06737 -27.3267
      vertex 9.13545 -4.06737 -3.33333
    endloop
  endfacet
  facet normal 0.866026 -0.5 0
    outer loop
      vertex 9.13545 -4.06737 -27.3267
      vertex 8.09017 -5.87785 -3.33333
      vertex 8.09017 -5.87785 -27.3267
    endloop
  endfacet
  facet normal 0.743145 0.669131 0
    outer loop
      vertex 8.09017 5.87785 -3.33333
      vertex 6.69131 7.43145 -27.3267
      vertex 6.69131 7.43145 -3.33333
    endloop
  endfacet
  facet normal 0.743145 0.669131 0
    outer loop
      vertex 6.69131 7.43145 -27.3267
      vertex 8.09017 5.87785 -3.33333
      vertex 8.09017 5.87785 -27.3267
    endloop
  endfacet
  facet normal 0.866026 0.5 0
    outer loop
      vertex 9.13545 4.06737 -3.33333
      vertex 8.09017 5.87785 -27.3267
      vertex 8.09017 5.87785 -3.33333
    endloop
  endfacet
  facet normal 0.866026 0.5 0
    outer loop
      vertex 8.09017 5.87785 -27.3267
      vertex 9.13545 4.06737 -3.33333
      vertex 9.13545 4.06737 -27.3267
    endloop
  endfacet
  facet normal 0.951057 -0.309017 0
    outer loop
      vertex 9.64472 -2.5 -3.33333
      vertex 9.13545 -4.06737 -3.33333
      vertex 9.64472 -2.5 -15
    endloop
  endfacet
  facet normal 0.951057 -0.309017 0
    outer loop
      vertex 9.64472 -2.5 -15
      vertex 9.78148 -2.07912 -27.3267
      vertex 9.78148 -2.07912 -15
    endloop
  endfacet
  facet normal 0.951057 -0.309017 0
    outer loop
      vertex 9.13545 -4.06737 -27.3267
      vertex 9.64472 -2.5 -15
      vertex 9.13545 -4.06737 -3.33333
    endloop
  endfacet
  facet normal 0.951057 -0.309017 -6.60603e-09
    outer loop
      vertex 9.64472 -2.5 -15
      vertex 9.13545 -4.06737 -27.3267
      vertex 9.78148 -2.07912 -27.3267
    endloop
  endfacet
  facet normal 0 -1 0
    outer loop
      vertex -1.04528 -9.94522 -27.3267
      vertex 1.04528 -9.94522 -3.33333
      vertex -1.04528 -9.94522 -3.33333
    endloop
  endfacet
  facet normal 0 -1 -0
    outer loop
      vertex 1.04528 -9.94522 -3.33333
      vertex -1.04528 -9.94522 -27.3267
      vertex 1.04528 -9.94522 -27.3267
    endloop
  endfacet
  facet normal -0.951057 0.309017 0
    outer loop
      vertex -9.13545 4.06737 -27.3267
      vertex -9.64472 2.5 -15
      vertex -9.13545 4.06737 -3.33333
    endloop
  endfacet
  facet normal -0.951057 0.309017 -6.60603e-09
    outer loop
      vertex -9.78148 2.07912 -27.3267
      vertex -9.64472 2.5 -15
      vertex -9.13545 4.06737 -27.3267
    endloop
  endfacet
  facet normal -0.951057 0.309017 0
    outer loop
      vertex -9.64472 2.5 -15
      vertex -9.78148 2.07912 -27.3267
      vertex -9.78148 2.07912 -15
    endloop
  endfacet
  facet normal -0.951057 0.309017 0
    outer loop
      vertex -9.13545 4.06737 -3.33333
      vertex -9.64472 2.5 -15
      vertex -9.64472 2.5 -3.33333
    endloop
  endfacet
  facet normal -0.207911 0.978148 0
    outer loop
      vertex -1.04528 9.94522 -27.3267
      vertex -3.09017 9.51056 -3.33333
      vertex -1.04528 9.94522 -3.33333
    endloop
  endfacet
  facet normal -0.207911 0.978148 0
    outer loop
      vertex -3.09017 9.51056 -3.33333
      vertex -1.04528 9.94522 -27.3267
      vertex -3.09017 9.51056 -27.3267
    endloop
  endfacet
  facet normal 0.951057 0.309017 -0
    outer loop
      vertex 9.64472 2.5 -15
      vertex 9.13545 4.06737 -3.33333
      vertex 9.64472 2.5 -3.33333
    endloop
  endfacet
  facet normal 0.951057 0.309017 0
    outer loop
      vertex 9.13545 4.06737 -3.33333
      vertex 9.64472 2.5 -15
      vertex 9.13545 4.06737 -27.3267
    endloop
  endfacet
  facet normal 0.951057 0.309017 -0
    outer loop
      vertex 9.78148 2.07912 -27.3267
      vertex 9.64472 2.5 -15
      vertex 9.78148 2.07912 -15
    endloop
  endfacet
  facet normal 0.951057 0.309017 -6.60603e-09
    outer loop
      vertex 9.64472 2.5 -15
      vertex 9.78148 2.07912 -27.3267
      vertex 9.13545 4.06737 -27.3267
    endloop
  endfacet
  facet normal 0.406737 0.913545 -9.98539e-09
    outer loop
      vertex 3.09017 9.51056 -27.3267
      vertex 3.77237 9.20683 -3.33333
      vertex 5 8.66025 -27.3267
    endloop
  endfacet
  facet normal 0.406736 0.913546 0
    outer loop
      vertex 3.77237 9.20683 -3.33333
      vertex 3.09017 9.51056 -27.3267
      vertex 3.09017 9.51056 -3.33333
    endloop
  endfacet
  facet normal 0.587785 -0.809017 0
    outer loop
      vertex 5 -8.66025 -27.3267
      vertex 6.69131 -7.43145 -3.33333
      vertex 5 -8.66025 -3.33333
    endloop
  endfacet
  facet normal 0.587785 -0.809017 0
    outer loop
      vertex 6.69131 -7.43145 -3.33333
      vertex 5 -8.66025 -27.3267
      vertex 6.69131 -7.43145 -27.3267
    endloop
  endfacet
  facet normal 0.743145 -0.669131 0
    outer loop
      vertex 7.04198 -7.04198 -3.33333
      vertex 8.09017 -5.87785 -27.3267
      vertex 8.09017 -5.87785 -3.33333
    endloop
  endfacet
  facet normal 0.743144 -0.669131 0
    outer loop
      vertex 6.69131 -7.43145 -27.3267
      vertex 7.04198 -7.04198 -3.33333
      vertex 6.69131 -7.43145 -3.33333
    endloop
  endfacet
  facet normal 0.743145 -0.669131 -3.6164e-09
    outer loop
      vertex 7.04198 -7.04198 -3.33333
      vertex 6.69131 -7.43145 -27.3267
      vertex 8.09017 -5.87785 -27.3267
    endloop
  endfacet
  facet normal 0.406737 -0.913545 0
    outer loop
      vertex 3.09017 -9.51056 -27.3267
      vertex 5 -8.66025 -3.33333
      vertex 3.09017 -9.51056 -3.33333
    endloop
  endfacet
  facet normal 0.406737 -0.913545 0
    outer loop
      vertex 5 -8.66025 -3.33333
      vertex 3.09017 -9.51056 -27.3267
      vertex 5 -8.66025 -27.3267
    endloop
  endfacet
  facet normal 0.994522 -0.104529 -6.46237e-18
    outer loop
      vertex 9.78148 -2.07912 -15
      vertex 10 1.27993e-15 -27.3267
      vertex 10 5.24853e-16 -15
    endloop
  endfacet
  facet normal 0.994522 -0.104529 0
    outer loop
      vertex 10 1.27993e-15 -27.3267
      vertex 9.78148 -2.07912 -15
      vertex 9.78148 -2.07912 -27.3267
    endloop
  endfacet
  facet normal -0.743145 -0.669131 0
    outer loop
      vertex -6.69131 -7.43145 -27.3267
      vertex -8.09017 -5.87785 -3.33333
      vertex -8.09017 -5.87785 -27.3267
    endloop
  endfacet
  facet normal -0.743145 -0.669131 0
    outer loop
      vertex -8.09017 -5.87785 -3.33333
      vertex -6.69131 -7.43145 -27.3267
      vertex -6.69131 -7.43145 -3.33333
    endloop
  endfacet
  facet normal -0.743145 0.669131 0
    outer loop
      vertex -6.69131 7.43145 -27.3267
      vertex -7.04198 7.04198 -3.33333
      vertex -6.69131 7.43145 -3.33333
    endloop
  endfacet
  facet normal -0.743145 0.669131 8.2108e-09
    outer loop
      vertex -8.09017 5.87785 -27.3267
      vertex -7.04198 7.04198 -3.33333
      vertex -6.69131 7.43145 -27.3267
    endloop
  endfacet
  facet normal -0.743144 0.669131 0
    outer loop
      vertex -7.04198 7.04198 -3.33333
      vertex -8.09017 5.87785 -27.3267
      vertex -8.09017 5.87785 -3.33333
    endloop
  endfacet
  facet normal -0.587786 0.809017 0
    outer loop
      vertex -5.60415 8.22132 -3.33333
      vertex -6.69131 7.43145 -27.3267
      vertex -6.69131 7.43145 -3.33333
    endloop
  endfacet
  facet normal -0.587785 0.809017 -1.16815e-08
    outer loop
      vertex -5 8.66025 -27.3267
      vertex -5.60415 8.22132 -3.33333
      vertex -5 8.66025 -3.33333
    endloop
  endfacet
  facet normal -0.587785 0.809017 -2.78119e-08
    outer loop
      vertex -5.60415 8.22132 -3.33333
      vertex -5 8.66025 -27.3267
      vertex -6.69131 7.43145 -27.3267
    endloop
  endfacet
  facet normal -0.406737 0.913545 0
    outer loop
      vertex -3.09017 9.51056 -3.33333
      vertex -3.09017 9.51056 -27.3267
      vertex -4.3178 8.96399 -3.33333
    endloop
  endfacet
  facet normal 0.406737 0.913545 8.08339e-09
    outer loop
      vertex 5 8.66025 -3.33333
      vertex 5 8.66025 -27.3267
      vertex 3.77237 9.20683 -3.33333
    endloop
  endfacet
  facet normal 0.207911 0.978148 -0
    outer loop
      vertex 3.09017 9.51056 -27.3267
      vertex 1.04528 9.94522 -3.33333
      vertex 3.09017 9.51056 -3.33333
    endloop
  endfacet
  facet normal 0.207911 0.978148 0
    outer loop
      vertex 1.04528 9.94522 -3.33333
      vertex 3.09017 9.51056 -27.3267
      vertex 1.04528 9.94522 -27.3267
    endloop
  endfacet
  facet normal 0.587785 0.809017 1.16815e-08
    outer loop
      vertex 6.08716 7.87039 -3.33333
      vertex 5 8.66025 -27.3267
      vertex 5 8.66025 -3.33333
    endloop
  endfacet
  facet normal -0.207911 -0.978148 0
    outer loop
      vertex -3.09017 -9.51056 -27.3267
      vertex -1.04528 -9.94522 -3.33333
      vertex -3.09017 -9.51056 -3.33333
    endloop
  endfacet
  facet normal -0.207911 -0.978148 -0
    outer loop
      vertex -1.04528 -9.94522 -3.33333
      vertex -3.09017 -9.51056 -27.3267
      vertex -1.04528 -9.94522 -27.3267
    endloop
  endfacet
  facet normal 0 0 -1
    outer loop
      vertex 9.78148 -2.07912 -27.3267
      vertex 9.78148 2.07912 -27.3267
      vertex 10 1.27993e-15 -27.3267
    endloop
  endfacet
  facet normal 0 0 -1
    outer loop
      vertex 9.13545 -4.06737 -27.3267
      vertex 9.78148 2.07912 -27.3267
      vertex 9.78148 -2.07912 -27.3267
    endloop
  endfacet
  facet normal 0 0 -1
    outer loop
      vertex 9.13545 -4.06737 -27.3267
      vertex 9.13545 4.06737 -27.3267
      vertex 9.78148 2.07912 -27.3267
    endloop
  endfacet
  facet normal 0 0 -1
    outer loop
      vertex 8.09017 -5.87785 -27.3267
      vertex 9.13545 4.06737 -27.3267
      vertex 9.13545 -4.06737 -27.3267
    endloop
  endfacet
  facet normal 0 0 -1
    outer loop
      vertex 8.09017 -5.87785 -27.3267
      vertex 8.09017 5.87785 -27.3267
      vertex 9.13545 4.06737 -27.3267
    endloop
  endfacet
  facet normal 0 0 -1
    outer loop
      vertex 6.69131 -7.43145 -27.3267
      vertex 8.09017 5.87785 -27.3267
      vertex 8.09017 -5.87785 -27.3267
    endloop
  endfacet
  facet normal 0 0 -1
    outer loop
      vertex 6.69131 -7.43145 -27.3267
      vertex 6.69131 7.43145 -27.3267
      vertex 8.09017 5.87785 -27.3267
    endloop
  endfacet
  facet normal 0 0 -1
    outer loop
      vertex 5 -8.66025 -27.3267
      vertex 6.69131 7.43145 -27.3267
      vertex 6.69131 -7.43145 -27.3267
    endloop
  endfacet
  facet normal 0 0 -1
    outer loop
      vertex 5 -8.66025 -27.3267
      vertex 5 8.66025 -27.3267
      vertex 6.69131 7.43145 -27.3267
    endloop
  endfacet
  facet normal 0 0 -1
    outer loop
      vertex 3.09017 -9.51056 -27.3267
      vertex 5 8.66025 -27.3267
      vertex 5 -8.66025 -27.3267
    endloop
  endfacet
  facet normal 0 0 -1
    outer loop
      vertex 3.09017 -9.51056 -27.3267
      vertex 3.09017 9.51056 -27.3267
      vertex 5 8.66025 -27.3267
    endloop
  endfacet
  facet normal 0 0 -1
    outer loop
      vertex 1.04528 -9.94522 -27.3267
      vertex 3.09017 9.51056 -27.3267
      vertex 3.09017 -9.51056 -27.3267
    endloop
  endfacet
  facet normal 0 0 -1
    outer loop
      vertex 1.04528 -9.94522 -27.3267
      vertex 1.04528 9.94522 -27.3267
      vertex 3.09017 9.51056 -27.3267
    endloop
  endfacet
  facet normal 0 0 -1
    outer loop
      vertex -1.04528 -9.94522 -27.3267
      vertex 1.04528 9.94522 -27.3267
      vertex 1.04528 -9.94522 -27.3267
    endloop
  endfacet
  facet normal 0 0 -1
    outer loop
      vertex -1.04528 -9.94522 -27.3267
      vertex -1.04528 9.94522 -27.3267
      vertex 1.04528 9.94522 -27.3267
    endloop
  endfacet
  facet normal 0 0 -1
    outer loop
      vertex -3.09017 -9.51056 -27.3267
      vertex -1.04528 9.94522 -27.3267
      vertex -1.04528 -9.94522 -27.3267
    endloop
  endfacet
  facet normal 0 0 -1
    outer loop
      vertex -3.09017 -9.51056 -27.3267
      vertex -3.09017 9.51056 -27.3267
      vertex -1.04528 9.94522 -27.3267
    endloop
  endfacet
  facet normal 0 0 -1
    outer loop
      vertex -5 -8.66025 -27.3267
      vertex -3.09017 9.51056 -27.3267
      vertex -3.09017 -9.51056 -27.3267
    endloop
  endfacet
  facet normal 0 0 -1
    outer loop
      vertex -5 -8.66025 -27.3267
      vertex -5 8.66025 -27.3267
      vertex -3.09017 9.51056 -27.3267
    endloop
  endfacet
  facet normal 0 0 -1
    outer loop
      vertex -6.69131 -7.43145 -27.3267
      vertex -5 8.66025 -27.3267
      vertex -5 -8.66025 -27.3267
    endloop
  endfacet
  facet normal 0 0 -1
    outer loop
      vertex -6.69131 -7.43145 -27.3267
      vertex -6.69131 7.43145 -27.3267
      vertex -5 8.66025 -27.3267
    endloop
  endfacet
  facet normal 0 0 -1
    outer loop
      vertex -8.09017 -5.87785 -27.3267
      vertex -6.69131 7.43145 -27.3267
      vertex -6.69131 -7.43145 -27.3267
    endloop
  endfacet
  facet normal 0 0 -1
    outer loop
      vertex -8.09017 -5.87785 -27.3267
      vertex -8.09017 5.87785 -27.3267
      vertex -6.69131 7.43145 -27.3267
    endloop
  endfacet
  facet normal 0 0 -1
    outer loop
      vertex -9.13545 -4.06737 -27.3267
      vertex -8.09017 5.87785 -27.3267
      vertex -8.09017 -5.87785 -27.3267
    endloop
  endfacet
  facet normal 0 0 -1
    outer loop
      vertex -9.13545 -4.06737 -27.3267
      vertex -9.13545 4.06737 -27.3267
      vertex -8.09017 5.87785 -27.3267
    endloop
  endfacet
  facet normal 0 0 -1
    outer loop
      vertex -9.78148 -2.07912 -27.3267
      vertex -9.13545 4.06737 -27.3267
      vertex -9.13545 -4.06737 -27.3267
    endloop
  endfacet
  facet normal 0 0 -1
    outer loop
      vertex -9.78148 -2.07912 -27.3267
      vertex -9.78148 2.07912 -27.3267
      vertex -9.13545 4.06737 -27.3267
    endloop
  endfacet
  facet normal 0 -0 -1
    outer loop
      vertex -9.78148 2.07912 -27.3267
      vertex -9.78148 -2.07912 -27.3267
      vertex -10 2.06788e-15 -27.3267
    endloop
  endfacet
  facet normal -0.587785 -0.809017 -2.78119e-08
    outer loop
      vertex -5 -8.66025 -27.3267
      vertex -5.60415 -8.22132 -3.33333
      vertex -6.69131 -7.43145 -27.3267
    endloop
  endfacet
  facet normal -0.587785 -0.809017 -1.16815e-08
    outer loop
      vertex -5.60415 -8.22132 -3.33333
      vertex -5 -8.66025 -27.3267
      vertex -5 -8.66025 -3.33333
    endloop
  endfacet
  facet normal -0.951057 -0.309017 0
    outer loop
      vertex -9.78148 -2.07912 -27.3267
      vertex -9.64472 -2.5 -15
      vertex -9.78148 -2.07912 -15
    endloop
  endfacet
  facet normal -0.951057 -0.309017 -6.60603e-09
    outer loop
      vertex -9.13545 -4.06737 -27.3267
      vertex -9.64472 -2.5 -15
      vertex -9.78148 -2.07912 -27.3267
    endloop
  endfacet
  facet normal -0.951057 -0.309017 -0
    outer loop
      vertex -9.13545 -4.06737 -3.33333
      vertex -9.64472 -2.5 -15
      vertex -9.13545 -4.06737 -27.3267
    endloop
  endfacet
  facet normal -0.951057 -0.309017 0
    outer loop
      vertex -9.64472 -2.5 -15
      vertex -9.13545 -4.06737 -3.33333
      vertex -9.64472 -2.5 -3.33333
    endloop
  endfacet
  facet normal -0.406737 -0.913545 -8.08338e-09
    outer loop
      vertex -5 -8.66025 -27.3267
      vertex -4.3178 -8.96399 -3.33333
      vertex -5 -8.66025 -3.33333
    endloop
  endfacet
  facet normal -0.406737 -0.913545 -4.06501e-10
    outer loop
      vertex -4.3178 -8.96399 -3.33333
      vertex -5 -8.66025 -27.3267
      vertex -3.09017 -9.51056 -27.3267
    endloop
  endfacet
  facet normal -0.406737 -0.913545 0
    outer loop
      vertex -4.3178 -8.96399 -3.33333
      vertex -3.09017 -9.51056 -27.3267
      vertex -3.09017 -9.51056 -3.33333
    endloop
  endfacet
  facet normal -0.866026 0.5 0
    outer loop
      vertex -9.13545 4.06737 -27.3267
      vertex -8.09017 5.87785 -3.33333
      vertex -8.09017 5.87785 -27.3267
    endloop
  endfacet
  facet normal -0.866026 0.5 0
    outer loop
      vertex -8.09017 5.87785 -3.33333
      vertex -9.13545 4.06737 -27.3267
      vertex -9.13545 4.06737 -3.33333
    endloop
  endfacet
  facet normal -0.406737 0.913545 -4.06501e-10
    outer loop
      vertex -5 8.66025 -27.3267
      vertex -4.3178 8.96399 -3.33333
      vertex -3.09017 9.51056 -27.3267
    endloop
  endfacet
  facet normal -0.406737 0.913545 -8.08338e-09
    outer loop
      vertex -4.3178 8.96399 -3.33333
      vertex -5 8.66025 -27.3267
      vertex -5 8.66025 -3.33333
    endloop
  endfacet
  facet normal 0.587785 0.809017 -0
    outer loop
      vertex 6.69131 7.43145 -27.3267
      vertex 6.08716 7.87039 -3.33333
      vertex 6.69131 7.43145 -3.33333
    endloop
  endfacet
  facet normal 0.587785 0.809017 -3.28387e-09
    outer loop
      vertex 6.08716 7.87039 -3.33333
      vertex 6.69131 7.43145 -27.3267
      vertex 5 8.66025 -27.3267
    endloop
  endfacet
  facet normal -0.866026 -0.5 0
    outer loop
      vertex -8.09017 -5.87785 -27.3267
      vertex -9.13545 -4.06737 -3.33333
      vertex -9.13545 -4.06737 -27.3267
    endloop
  endfacet
  facet normal -0.866026 -0.5 0
    outer loop
      vertex -9.13545 -4.06737 -3.33333
      vertex -8.09017 -5.87785 -27.3267
      vertex -8.09017 -5.87785 -3.33333
    endloop
  endfacet
  facet normal -0.587786 -0.809017 -0
    outer loop
      vertex -6.69131 -7.43145 -3.33333
      vertex -6.69131 -7.43145 -27.3267
      vertex -5.60415 -8.22132 -3.33333
    endloop
  endfacet
  facet normal -0.994522 -0.104529 0
    outer loop
      vertex -9.85364 -1.39251 -15
      vertex -9.78148 -2.07912 -27.3267
      vertex -9.78148 -2.07912 -15
    endloop
  endfacet
  facet normal -0.994522 -0.104528 -6.4029e-18
    outer loop
      vertex -10 2.06788e-15 -27.3267
      vertex -9.85364 -1.39251 -15
      vertex -10 1.31281e-15 -15
    endloop
  endfacet
  facet normal -0.994522 -0.104528 -5.75144e-08
    outer loop
      vertex -9.85364 -1.39251 -15
      vertex -10 2.06788e-15 -27.3267
      vertex -9.78148 -2.07912 -27.3267
    endloop
  endfacet
  facet normal 0 0 1
    outer loop
      vertex -6.25 2.5 -15
      vertex -9.64472 2.5 -15
      vertex -6.25 2.08333 -15
    endloop
  endfacet
  facet normal 0 0 1
    outer loop
      vertex 6.25 -1.25 -15
      vertex 10 5.24853e-16 -15
      vertex 9.78148 2.07912 -15
    endloop
  endfacet
  facet normal 0 0 1
    outer loop
      vertex 6.25 -1.25 -15
      vertex 9.78148 2.07912 -15
      vertex 9.64472 2.5 -15
    endloop
  endfacet
  facet normal 0 0 1
    outer loop
      vertex 10 5.24853e-16 -15
      vertex 6.25 -1.25 -15
      vertex 9.78148 -2.07912 -15
    endloop
  endfacet
  facet normal 0 0 1
    outer loop
      vertex 9.78148 -2.07912 -15
      vertex 6.25 -1.25 -15
      vertex 9.64472 -2.5 -15
    endloop
  endfacet
  facet normal 0 0 1
    outer loop
      vertex 9.64472 2.5 -15
      vertex 3.75 -1.25 -15
      vertex 6.25 -1.25 -15
    endloop
  endfacet
  facet normal -0 0 1
    outer loop
      vertex -3.75 2.5 -15
      vertex 3.75 -1.25 -15
      vertex 9.64472 2.5 -15
    endloop
  endfacet
  facet normal -0 0 1
    outer loop
      vertex -3.75 2.08333 -15
      vertex 3.75 -1.25 -15
      vertex -3.75 2.5 -15
    endloop
  endfacet
  facet normal 0 0 1
    outer loop
      vertex 3.75 -1.25 -15
      vertex -3.75 2.08333 -15
      vertex 3.75 -2.5 -15
    endloop
  endfacet
  facet normal 0 0 1
    outer loop
      vertex -9.64472 -2.5 -15
      vertex -3.75 2.08333 -15
      vertex -6.25 2.08333 -15
    endloop
  endfacet
  facet normal 0 0 1
    outer loop
      vertex -9.78148 2.07912 -15
      vertex -6.25 2.08333 -15
      vertex -9.64472 2.5 -15
    endloop
  endfacet
  facet normal 0 0 1
    outer loop
      vertex -10 1.31281e-15 -15
      vertex -6.25 2.08333 -15
      vertex -9.85364 1.39251 -15
    endloop
  endfacet
  facet normal 0 0 1
    outer loop
      vertex -6.25 2.08333 -15
      vertex -9.78148 2.07912 -15
      vertex -9.85364 1.39251 -15
    endloop
  endfacet
  facet normal 0 -0 1
    outer loop
      vertex -9.64472 -2.5 -15
      vertex -6.25 2.08333 -15
      vertex -9.85364 -1.39251 -15
    endloop
  endfacet
  facet normal 0 0 1
    outer loop
      vertex -3.75 2.08333 -15
      vertex -9.64472 -2.5 -15
      vertex 3.75 -2.5 -15
    endloop
  endfacet
  facet normal 0 0 1
    outer loop
      vertex -9.64472 -2.5 -15
      vertex -9.85364 -1.39251 -15
      vertex -9.78148 -2.07912 -15
    endloop
  endfacet
  facet normal 0 0 1
    outer loop
      vertex -6.25 2.08333 -15
      vertex -10 1.31281e-15 -15
      vertex -9.85364 -1.39251 -15
    endloop
  endfacet
  facet normal 0 0 1
    outer loop
      vertex 9.64472 -2.5 -15
      vertex 6.25 -1.25 -15
      vertex 6.25 -2.5 -15
    endloop
  endfacet
  facet normal 0 1 -0
    outer loop
      vertex 9.64472 -2.5 -15
      vertex 6.25 -2.5 -3.33333
      vertex 9.64472 -2.5 -3.33333
    endloop
  endfacet
  facet normal 0 1 0
    outer loop
      vertex 6.25 -2.5 -3.33333
      vertex 9.64472 -2.5 -15
      vertex 6.25 -2.5 -15
    endloop
  endfacet
  facet normal 0 1 -0
    outer loop
      vertex 3.75 -2.5 -15
      vertex 2.5 -2.5 -3.33333
      vertex 3.75 -2.5 -3.33333
    endloop
  endfacet
  facet normal 0 1 0
    outer loop
      vertex -9.64472 -2.5 -15
      vertex 2.5 -2.5 -3.33333
      vertex 3.75 -2.5 -15
    endloop
  endfacet
  facet normal 0 1 0
    outer loop
      vertex 2.5 -2.5 -3.33333
      vertex -9.64472 -2.5 -15
      vertex -9.64472 -2.5 -3.33333
    endloop
  endfacet
  facet normal 0 -1 0
    outer loop
      vertex -3.75 2.5 -3.33333
      vertex -3.75 2.5 -15
      vertex -2.5 2.5 -3.33333
    endloop
  endfacet
  facet normal 0 -1 0
    outer loop
      vertex 9.64472 2.5 -15
      vertex -2.5 2.5 -3.33333
      vertex -3.75 2.5 -15
    endloop
  endfacet
  facet normal 0 -1 0
    outer loop
      vertex -2.5 2.5 -3.33333
      vertex 9.64472 2.5 -15
      vertex 9.64472 2.5 -3.33333
    endloop
  endfacet
  facet normal 0 -1 0
    outer loop
      vertex -9.64472 2.5 -15
      vertex -6.25 2.5 -3.33333
      vertex -9.64472 2.5 -3.33333
    endloop
  endfacet
  facet normal 0 -1 -0
    outer loop
      vertex -6.25 2.5 -3.33333
      vertex -9.64472 2.5 -15
      vertex -6.25 2.5 -15
    endloop
  endfacet
  facet normal 0 0 1
    outer loop
      vertex -7.04198 7.04198 -3.33333
      vertex -6.25 4.58333 -3.33333
      vertex -4.58333 4.58333 -3.33333
    endloop
  endfacet
  facet normal -0 0 1
    outer loop
      vertex -8.09017 5.87785 -3.33333
      vertex -6.25 4.58333 -3.33333
      vertex -7.04198 7.04198 -3.33333
    endloop
  endfacet
  facet normal 0 0 1
    outer loop
      vertex -9.13545 4.06737 -3.33333
      vertex -6.25 4.58333 -3.33333
      vertex -8.09017 5.87785 -3.33333
    endloop
  endfacet
  facet normal 0 0 1
    outer loop
      vertex -6.25 4.58333 -3.33333
      vertex -9.13545 4.06737 -3.33333
      vertex -6.25 2.5 -3.33333
    endloop
  endfacet
  facet normal 0 0 1
    outer loop
      vertex -6.25 2.5 -3.33333
      vertex -9.13545 4.06737 -3.33333
      vertex -9.64472 2.5 -3.33333
    endloop
  endfacet
  facet normal 0 0 1
    outer loop
      vertex 2.5 -2.5 -3.33333
      vertex 6.69131 -7.43145 -3.33333
      vertex 7.04198 -7.04198 -3.33333
    endloop
  endfacet
  facet normal 8.71514e-08 7.40711e-08 1
    outer loop
      vertex 6.69131 -7.43145 -3.33333
      vertex 2.5 -2.5 -3.33333
      vertex 5 -8.66025 -3.33333
    endloop
  endfacet
  facet normal -1.45945e-08 3.27799e-08 1
    outer loop
      vertex 5 -8.66025 -3.33333
      vertex 2.5 -2.5 -3.33333
      vertex 3.09017 -9.51056 -3.33333
    endloop
  endfacet
  facet normal -7.10164e-09 3.34106e-08 1
    outer loop
      vertex 2.5 -2.5 -3.33333
      vertex 1.04528 -9.94522 -3.33333
      vertex 3.09017 -9.51056 -3.33333
    endloop
  endfacet
  facet normal 2.14475e-08 2.78324e-08 1
    outer loop
      vertex -3.75 -6.25 -3.33333
      vertex 1.04528 -9.94522 -3.33333
      vertex 2.5 -2.5 -3.33333
    endloop
  endfacet
  facet normal 0 0 1
    outer loop
      vertex 1.04528 -9.94522 -3.33333
      vertex -3.75 -6.25 -3.33333
      vertex -1.04528 -9.94522 -3.33333
    endloop
  endfacet
  facet normal -1.90735e-08 9.53674e-08 1
    outer loop
      vertex -3.75 -6.25 -3.33333
      vertex 2.5 -2.5 -3.33333
      vertex -3.75 -3.75 -3.33333
    endloop
  endfacet
  facet normal -0 0 1
    outer loop
      vertex -9.64472 -2.5 -3.33333
      vertex -3.75 -3.75 -3.33333
      vertex 2.5 -2.5 -3.33333
    endloop
  endfacet
  facet normal 1.92867e-08 9.53674e-08 1
    outer loop
      vertex -8.09017 -5.87785 -3.33333
      vertex -6.25 -6.25 -3.33333
      vertex -6.25 -3.75 -3.33333
    endloop
  endfacet
  facet normal 0 0 1
    outer loop
      vertex -6.25 -6.25 -3.33333
      vertex -8.09017 -5.87785 -3.33333
      vertex -6.69131 -7.43145 -3.33333
    endloop
  endfacet
  facet normal 7.7694e-08 4.48566e-08 1
    outer loop
      vertex -6.25 -3.75 -3.33333
      vertex -9.13545 -4.06737 -3.33333
      vertex -8.09017 -5.87785 -3.33333
    endloop
  endfacet
  facet normal 0 0 1
    outer loop
      vertex -3.75 -3.75 -3.33333
      vertex -9.64472 -2.5 -3.33333
      vertex -6.25 -3.75 -3.33333
    endloop
  endfacet
  facet normal 6.36233e-08 1.72787e-07 1
    outer loop
      vertex -6.25 -3.75 -3.33333
      vertex -9.64472 -2.5 -3.33333
      vertex -9.13545 -4.06737 -3.33333
    endloop
  endfacet
  facet normal 0 0 1
    outer loop
      vertex -1.04528 -9.94522 -3.33333
      vertex -3.75 -6.25 -3.33333
      vertex -3.09017 -9.51056 -3.33333
    endloop
  endfacet
  facet normal 0 0 1
    outer loop
      vertex -3.75 -6.25 -3.33333
      vertex -4.3178 -8.96399 -3.33333
      vertex -3.09017 -9.51056 -3.33333
    endloop
  endfacet
  facet normal 0 0 1
    outer loop
      vertex -3.75 -6.25 -3.33333
      vertex -5 -8.66025 -3.33333
      vertex -4.3178 -8.96399 -3.33333
    endloop
  endfacet
  facet normal 0 0 1
    outer loop
      vertex -3.75 -6.25 -3.33333
      vertex -5.60415 -8.22132 -3.33333
      vertex -5 -8.66025 -3.33333
    endloop
  endfacet
  facet normal -0 0 1
    outer loop
      vertex -6.25 -6.25 -3.33333
      vertex -5.60415 -8.22132 -3.33333
      vertex -3.75 -6.25 -3.33333
    endloop
  endfacet
  facet normal 0 0 1
    outer loop
      vertex -5.60415 -8.22132 -3.33333
      vertex -6.25 -6.25 -3.33333
      vertex -6.69131 -7.43145 -3.33333
    endloop
  endfacet
  facet normal 0 0 1
    outer loop
      vertex -3.75 2.5 -3.33333
      vertex -2.5 2.5 -3.33333
      vertex -3.75 3.75 -3.33333
    endloop
  endfacet
  facet normal -0 0 1
    outer loop
      vertex -4.3178 8.96399 -3.33333
      vertex -3.75 4.58333 -3.33333
      vertex -3.09017 9.51056 -3.33333
    endloop
  endfacet
  facet normal -0 0 1
    outer loop
      vertex -5 8.66025 -3.33333
      vertex -3.75 4.58333 -3.33333
      vertex -4.3178 8.96399 -3.33333
    endloop
  endfacet
  facet normal -0 0 1
    outer loop
      vertex -5.60415 8.22132 -3.33333
      vertex -3.75 4.58333 -3.33333
      vertex -5 8.66025 -3.33333
    endloop
  endfacet
  facet normal 0 0 1
    outer loop
      vertex -3.75 4.58333 -3.33333
      vertex -5.60415 8.22132 -3.33333
      vertex -4.58333 4.58333 -3.33333
    endloop
  endfacet
  facet normal -0 0 1
    outer loop
      vertex -6.69131 7.43145 -3.33333
      vertex -4.58333 4.58333 -3.33333
      vertex -5.60415 8.22132 -3.33333
    endloop
  endfacet
  facet normal 0 0 1
    outer loop
      vertex -4.58333 4.58333 -3.33333
      vertex -6.69131 7.43145 -3.33333
      vertex -7.04198 7.04198 -3.33333
    endloop
  endfacet
  facet normal -1.90121e-08 -1.09766e-08 1
    outer loop
      vertex -2.5 2.5 -3.33333
      vertex 9.13545 4.06737 -3.33333
      vertex 8.09017 5.87785 -3.33333
    endloop
  endfacet
  facet normal -1.74901e-08 -1.57482e-08 1
    outer loop
      vertex -2.5 2.5 -3.33333
      vertex 8.09017 5.87785 -3.33333
      vertex 6.69131 7.43145 -3.33333
    endloop
  endfacet
  facet normal -1.49209e-08 -2.05368e-08 1
    outer loop
      vertex -2.5 2.5 -3.33333
      vertex 6.69131 7.43145 -3.33333
      vertex 6.08716 7.87039 -3.33333
    endloop
  endfacet
  facet normal -1.49209e-08 -2.05368e-08 1
    outer loop
      vertex -2.5 2.5 -3.33333
      vertex 6.08716 7.87039 -3.33333
      vertex 5 8.66025 -3.33333
    endloop
  endfacet
  facet normal -1.37117e-07 1.28235e-07 1
    outer loop
      vertex -2.5 2.5 -3.33333
      vertex 5 8.66025 -3.33333
      vertex 3.77237 9.20683 -3.33333
    endloop
  endfacet
  facet normal 0 0 1
    outer loop
      vertex -2.5 2.5 -3.33333
      vertex 3.77237 9.20683 -3.33333
      vertex 3.09017 9.51056 -3.33333
    endloop
  endfacet
  facet normal 0 0 1
    outer loop
      vertex -2.5 2.5 -3.33333
      vertex 3.09017 9.51056 -3.33333
      vertex 1.04528 9.94522 -3.33333
    endloop
  endfacet
  facet normal 0 0 1
    outer loop
      vertex -3.75 4.58333 -3.33333
      vertex 1.04528 9.94522 -3.33333
      vertex -1.04528 9.94522 -3.33333
    endloop
  endfacet
  facet normal -1.96315e-08 -6.37864e-09 1
    outer loop
      vertex 9.13545 4.06737 -3.33333
      vertex -2.5 2.5 -3.33333
      vertex 9.64472 2.5 -3.33333
    endloop
  endfacet
  facet normal 0 0 1
    outer loop
      vertex -3.75 4.58333 -3.33333
      vertex -1.04528 9.94522 -3.33333
      vertex -3.09017 9.51056 -3.33333
    endloop
  endfacet
  facet normal 0 0 1
    outer loop
      vertex 1.04528 9.94522 -3.33333
      vertex -3.75 4.58333 -3.33333
      vertex -2.5 2.5 -3.33333
    endloop
  endfacet
  facet normal 0 0 1
    outer loop
      vertex -2.5 2.5 -3.33333
      vertex -3.75 4.58333 -3.33333
      vertex -3.75 3.75 -3.33333
    endloop
  endfacet
  facet normal 0 0 1
    outer loop
      vertex 3.75 -2.5 -3.33333
      vertex 2.5 -2.5 -3.33333
      vertex 3.75 -3.75 -3.33333
    endloop
  endfacet
  facet normal -7.02321e-08 2.28198e-08 1
    outer loop
      vertex 6.25 -2.5 -3.33333
      vertex 9.13545 -4.06737 -3.33333
      vertex 9.64472 -2.5 -3.33333
    endloop
  endfacet
  facet normal -9.13133e-08 -7.89679e-08 1
    outer loop
      vertex 9.13545 -4.06737 -3.33333
      vertex 6.25 -3.75 -3.33333
      vertex 8.09017 -5.87785 -3.33333
    endloop
  endfacet
  facet normal -8.26277e-08 0 1
    outer loop
      vertex 9.13545 -4.06737 -3.33333
      vertex 6.25 -2.5 -3.33333
      vertex 6.25 -3.75 -3.33333
    endloop
  endfacet
  facet normal 0 0 1
    outer loop
      vertex 8.09017 -5.87785 -3.33333
      vertex 6.25 -3.75 -3.33333
      vertex 7.04198 -7.04198 -3.33333
    endloop
  endfacet
  facet normal -0 0 1
    outer loop
      vertex 3.75 -3.75 -3.33333
      vertex 7.04198 -7.04198 -3.33333
      vertex 6.25 -3.75 -3.33333
    endloop
  endfacet
  facet normal 0 0 1
    outer loop
      vertex 7.04198 -7.04198 -3.33333
      vertex 3.75 -3.75 -3.33333
      vertex 2.5 -2.5 -3.33333
    endloop
  endfacet
  facet normal -0 0 1
    outer loop
      vertex -6.25 -3.75 3.33333
      vertex -3.75 -6.25 3.33333
      vertex -3.75 -3.75 3.33333
    endloop
  endfacet
  facet normal 0 0 1
    outer loop
      vertex -3.75 -6.25 3.33333
      vertex -6.25 -3.75 3.33333
      vertex -6.25 -6.25 3.33333
    endloop
  endfacet
  facet normal 1 -0 0
    outer loop
      vertex -3.75 -6.25 3.33333
      vertex -3.75 -3.75 -3.33333
      vertex -3.75 -3.75 3.33333
    endloop
  endfacet
  facet normal 1 0 0
    outer loop
      vertex -3.75 -3.75 -3.33333
      vertex -3.75 -6.25 3.33333
      vertex -3.75 -6.25 -3.33333
    endloop
  endfacet
  facet normal 0 1 -0
    outer loop
      vertex -3.75 -3.75 -3.33333
      vertex -6.25 -3.75 3.33333
      vertex -3.75 -3.75 3.33333
    endloop
  endfacet
  facet normal 0 1 0
    outer loop
      vertex -6.25 -3.75 3.33333
      vertex -3.75 -3.75 -3.33333
      vertex -6.25 -3.75 -3.33333
    endloop
  endfacet
  facet normal -1 0 0
    outer loop
      vertex -6.25 -6.25 -3.33333
      vertex -6.25 -3.75 3.33333
      vertex -6.25 -3.75 -3.33333
    endloop
  endfacet
  facet normal -1 -0 0
    outer loop
      vertex -6.25 -3.75 3.33333
      vertex -6.25 -6.25 -3.33333
      vertex -6.25 -6.25 3.33333
    endloop
  endfacet
  facet normal 0 -1 0
    outer loop
      vertex -6.25 -6.25 -3.33333
      vertex -3.75 -6.25 3.33333
      vertex -6.25 -6.25 3.33333
    endloop
  endfacet
  facet normal 0 -1 -0
    outer loop
      vertex -3.75 -6.25 3.33333
      vertex -6.25 -6.25 -3.33333
      vertex -3.75 -6.25 -3.33333
    endloop
  endfacet
  facet normal -0 0 1
    outer loop
      vertex 3.75 -1.25 3.33333
      vertex 6.25 -3.75 3.33333
      vertex 6.25 -1.25 3.33333
    endloop
  endfacet
  facet normal 0 0 1
    outer loop
      vertex 6.25 -3.75 3.33333
      vertex 3.75 -1.25 3.33333
      vertex 3.75 -3.75 3.33333
    endloop
  endfacet
  facet normal 1 0 0
    outer loop
      vertex 6.25 -1.25 3.33333
      vertex 6.25 -2.5 -3.33333
      vertex 6.25 -1.25 -15
    endloop
  endfacet
  facet normal 1 -0 0
    outer loop
      vertex 6.25 -3.75 3.33333
      vertex 6.25 -2.5 -3.33333
      vertex 6.25 -1.25 3.33333
    endloop
  endfacet
  facet normal 1 0 0
    outer loop
      vertex 6.25 -2.5 -3.33333
      vertex 6.25 -3.75 3.33333
      vertex 6.25 -3.75 -3.33333
    endloop
  endfacet
  facet normal 1 0 0
    outer loop
      vertex 6.25 -1.25 -15
      vertex 6.25 -2.5 -3.33333
      vertex 6.25 -2.5 -15
    endloop
  endfacet
  facet normal 0 1 -0
    outer loop
      vertex 6.25 -1.25 -15
      vertex 3.75 -1.25 3.33333
      vertex 6.25 -1.25 3.33333
    endloop
  endfacet
  facet normal 0 1 0
    outer loop
      vertex 3.75 -1.25 3.33333
      vertex 6.25 -1.25 -15
      vertex 3.75 -1.25 -15
    endloop
  endfacet
  facet normal -1 0 0
    outer loop
      vertex 3.75 -2.5 -3.33333
      vertex 3.75 -1.25 -15
      vertex 3.75 -2.5 -15
    endloop
  endfacet
  facet normal -1 0 0
    outer loop
      vertex 3.75 -1.25 -15
      vertex 3.75 -2.5 -3.33333
      vertex 3.75 -1.25 3.33333
    endloop
  endfacet
  facet normal -1 0 0
    outer loop
      vertex 3.75 -3.75 3.33333
      vertex 3.75 -2.5 -3.33333
      vertex 3.75 -3.75 -3.33333
    endloop
  endfacet
  facet normal -1 0 0
    outer loop
      vertex 3.75 -2.5 -3.33333
      vertex 3.75 -3.75 3.33333
      vertex 3.75 -1.25 3.33333
    endloop
  endfacet
  facet normal 0 -1 0
    outer loop
      vertex 3.75 -3.75 -3.33333
      vertex 6.25 -3.75 3.33333
      vertex 3.75 -3.75 3.33333
    endloop
  endfacet
  facet normal 0 -1 -0
    outer loop
      vertex 6.25 -3.75 3.33333
      vertex 3.75 -3.75 -3.33333
      vertex 6.25 -3.75 -3.33333
    endloop
  endfacet
  facet normal -0 0 1
    outer loop
      vertex -6.25 4.58333 3.33333
      vertex -3.75 2.08333 3.33333
      vertex -3.75 4.58333 3.33333
    endloop
  endfacet
  facet normal 0 0 1
    outer loop
      vertex -3.75 2.08333 3.33333
      vertex -6.25 4.58333 3.33333
      vertex -6.25 2.08333 3.33333
    endloop
  endfacet
  facet normal 1 0 0
    outer loop
      vertex -3.75 4.58333 3.33333
      vertex -3.75 3.75 -3.33333
      vertex -3.75 4.58333 -3.33333
    endloop
  endfacet
  facet normal 1 -0 0
    outer loop
      vertex -3.75 2.08333 3.33333
      vertex -3.75 3.75 -3.33333
      vertex -3.75 4.58333 3.33333
    endloop
  endfacet
  facet normal 1 0 0
    outer loop
      vertex -3.75 3.75 -3.33333
      vertex -3.75 2.08333 3.33333
      vertex -3.75 2.5 -3.33333
    endloop
  endfacet
  facet normal 1 0 0
    outer loop
      vertex -3.75 2.08333 -15
      vertex -3.75 2.5 -3.33333
      vertex -3.75 2.08333 3.33333
    endloop
  endfacet
  facet normal 1 0 0
    outer loop
      vertex -3.75 2.5 -3.33333
      vertex -3.75 2.08333 -15
      vertex -3.75 2.5 -15
    endloop
  endfacet
  facet normal 0 1 0
    outer loop
      vertex -4.58333 4.58333 -3.33333
      vertex -3.75 4.58333 3.33333
      vertex -3.75 4.58333 -3.33333
    endloop
  endfacet
  facet normal 0 1 0
    outer loop
      vertex -3.75 4.58333 3.33333
      vertex -4.58333 4.58333 -3.33333
      vertex -6.25 4.58333 3.33333
    endloop
  endfacet
  facet normal 0 1 0
    outer loop
      vertex -6.25 4.58333 3.33333
      vertex -4.58333 4.58333 -3.33333
      vertex -6.25 4.58333 -3.33333
    endloop
  endfacet
  facet normal -1 0 0
    outer loop
      vertex -6.25 2.5 -3.33333
      vertex -6.25 4.58333 3.33333
      vertex -6.25 4.58333 -3.33333
    endloop
  endfacet
  facet normal -1 0 0
    outer loop
      vertex -6.25 2.5 -3.33333
      vertex -6.25 2.08333 3.33333
      vertex -6.25 4.58333 3.33333
    endloop
  endfacet
  facet normal -1 0 0
    outer loop
      vertex -6.25 2.08333 3.33333
      vertex -6.25 2.5 -3.33333
      vertex -6.25 2.08333 -15
    endloop
  endfacet
  facet normal -1 0 0
    outer loop
      vertex -6.25 2.5 -15
      vertex -6.25 2.08333 -15
      vertex -6.25 2.5 -3.33333
    endloop
  endfacet
  facet normal 0 -1 0
    outer loop
      vertex -6.25 2.08333 -15
      vertex -3.75 2.08333 3.33333
      vertex -6.25 2.08333 3.33333
    endloop
  endfacet
  facet normal 0 -1 -0
    outer loop
      vertex -3.75 2.08333 3.33333
      vertex -6.25 2.08333 -15
      vertex -3.75 2.08333 -15
    endloop
  endfacet
endsolid OpenSCAD_Model
