solid OpenSCAD_Model
  facet normal -1.77685e-16 6.12554e-17 1
    outer loop
      vertex 5.41667 3.33333 7.58277e-16
      vertex 7.91667 -3.33333 1.61086e-15
      vertex 7.91667 3.33333 1.20249e-15
    endloop
  endfacet
  facet normal -1.77685e-16 6.12554e-17 1
    outer loop
      vertex 7.91667 -3.33333 1.61086e-15
      vertex 5.41667 3.33333 7.58277e-16
      vertex 5.41667 -3.33333 1.16665e-15
    endloop
  endfacet
  facet normal 1 0 0
    outer loop
      vertex 7.91667 -3.33333 -2.55776
      vertex 7.91667 3.33333 1.20249e-15
      vertex 7.91667 -3.33333 1.61086e-15
    endloop
  endfacet
  facet normal 1 0 0
    outer loop
      vertex 7.91667 3.33333 1.20249e-15
      vertex 7.91667 -3.33333 -2.55776
      vertex 7.91667 3.33333 -4.34409
    endloop
  endfacet
  facet normal 0 1 -0
    outer loop
      vertex 7.91667 3.33333 -4.34409
      vertex 5.41667 3.33333 7.58277e-16
      vertex 7.91667 3.33333 1.20249e-15
    endloop
  endfacet
  facet normal 0 1 0
    outer loop
      vertex 5.41667 3.33333 7.58277e-16
      vertex 7.91667 3.33333 -4.34409
      vertex 5.41667 3.33333 -4.34409
    endloop
  endfacet
  facet normal -1 0 0
    outer loop
      vertex 5.41667 -3.33333 -2.55776
      vertex 5.41667 3.33333 7.58277e-16
      vertex 5.41667 3.33333 -4.34409
    endloop
  endfacet
  facet normal -1 -0 0
    outer loop
      vertex 5.41667 3.33333 7.58277e-16
      vertex 5.41667 -3.33333 -2.55776
      vertex 5.41667 -3.33333 1.16665e-15
    endloop
  endfacet
  facet normal 0 -1 0
    outer loop
      vertex 5.41667 -3.33333 1.16665e-15
      vertex 7.91667 -3.33333 -2.55776
      vertex 7.91667 -3.33333 1.61086e-15
    endloop
  endfacet
  facet normal -0 -1 0
    outer loop
      vertex 7.91667 -3.33333 -2.55776
      vertex 5.41667 -3.33333 1.16665e-15
      vertex 5.41667 -3.33333 -2.55776
    endloop
  endfacet
  facet normal -1.77685e-16 6.12554e-17 1
    outer loop
      vertex -7.91667 3.33333 -1.61086e-15
      vertex -5.41667 -3.33333 -7.58277e-16
      vertex -5.41667 3.33333 -1.16665e-15
    endloop
  endfacet
  facet normal -1.77685e-16 6.12554e-17 1
    outer loop
      vertex -5.41667 -3.33333 -7.58277e-16
      vertex -7.91667 3.33333 -1.61086e-15
      vertex -7.91667 -3.33333 -1.20249e-15
    endloop
  endfacet
  facet normal 1 0 0
    outer loop
      vertex -5.41667 -3.33333 -2.55776
      vertex -5.41667 3.33333 -1.16665e-15
      vertex -5.41667 -3.33333 -7.58277e-16
    endloop
  endfacet
  facet normal 1 0 0
    outer loop
      vertex -5.41667 3.33333 -1.16665e-15
      vertex -5.41667 -3.33333 -2.55776
      vertex -5.41667 3.33333 -4.34409
    endloop
  endfacet
  facet normal -1 0 0
    outer loop
      vertex -7.91667 -3.33333 -2.55776
      vertex -7.91667 3.33333 -1.61086e-15
      vertex -7.91667 3.33333 -4.34409
    endloop
  endfacet
  facet normal -1 -0 0
    outer loop
      vertex -7.91667 3.33333 -1.61086e-15
      vertex -7.91667 -3.33333 -2.55776
      vertex -7.91667 -3.33333 -1.20249e-15
    endloop
  endfacet
  facet normal 0 -1 0
    outer loop
      vertex -7.91667 -3.33333 -2.55776
      vertex -5.41667 -3.33333 -7.58277e-16
      vertex -7.91667 -3.33333 -1.20249e-15
    endloop
  endfacet
  facet normal 0 -1 -0
    outer loop
      vertex -5.41667 -3.33333 -7.58277e-16
      vertex -7.91667 -3.33333 -2.55776
      vertex -5.41667 -3.33333 -2.55776
    endloop
  endfacet
  facet normal 0 1 -0
    outer loop
      vertex -5.41667 3.33333 -4.34409
      vertex -7.91667 3.33333 -1.61086e-15
      vertex -5.41667 3.33333 -1.16665e-15
    endloop
  endfacet
  facet normal 0 1 0
    outer loop
      vertex -7.91667 3.33333 -1.61086e-15
      vertex -5.41667 3.33333 -4.34409
      vertex -7.91667 3.33333 -4.34409
    endloop
  endfacet
  facet normal -0.994522 0.104529 0
    outer loop
      vertex -9.78148 2.07912 -4.00802
      vertex -9.78148 2.07912 -27.3267
      vertex -9.92006 0.760576 -3.65472
    endloop
  endfacet
  facet normal -0.994522 0.104528 -3.54868e-08
    outer loop
      vertex -10 2.06788e-15 -27.3267
      vertex -9.92006 0.760576 -3.65472
      vertex -9.78148 2.07912 -27.3267
    endloop
  endfacet
  facet normal -0.994522 0.104529 -3.97244e-08
    outer loop
      vertex -9.92006 0.760576 -3.65472
      vertex -10 2.06788e-15 -27.3267
      vertex -10 6.05366e-16 -3.45092
    endloop
  endfacet
  facet normal 0.994522 0.104529 0
    outer loop
      vertex 9.78148 2.07912 -4.00802
      vertex 10 1.27993e-15 -27.3267
      vertex 9.78148 2.07912 -27.3267
    endloop
  endfacet
  facet normal 0.994522 0.104529 6.40296e-18
    outer loop
      vertex 10 1.27993e-15 -27.3267
      vertex 9.78148 2.07912 -4.00802
      vertex 10 -1.82591e-16 -3.45092
    endloop
  endfacet
  facet normal 0.207911 -0.978148 0
    outer loop
      vertex 1.04528 -9.94522 -27.3267
      vertex 3.09017 -9.51056 -0.902573
      vertex 1.04528 -9.94522 -0.786108
    endloop
  endfacet
  facet normal 0.207911 -0.978148 0
    outer loop
      vertex 3.09017 -9.51056 -0.902573
      vertex 1.04528 -9.94522 -27.3267
      vertex 3.09017 -9.51056 -27.3267
    endloop
  endfacet
  facet normal 0 1 -0
    outer loop
      vertex 1.04528 9.94522 -27.3267
      vertex -1.04528 9.94522 -6.11573
      vertex 1.04528 9.94522 -6.11573
    endloop
  endfacet
  facet normal 0 1 0
    outer loop
      vertex -1.04528 9.94522 -6.11573
      vertex 1.04528 9.94522 -27.3267
      vertex -1.04528 9.94522 -27.3267
    endloop
  endfacet
  facet normal 0.866026 -0.5 0
    outer loop
      vertex 8.09017 -5.87785 -27.3267
      vertex 9.13545 -4.06737 -2.36107
      vertex 8.09017 -5.87785 -1.87596
    endloop
  endfacet
  facet normal 0.866026 -0.5 0
    outer loop
      vertex 9.13545 -4.06737 -2.36107
      vertex 8.09017 -5.87785 -27.3267
      vertex 9.13545 -4.06737 -27.3267
    endloop
  endfacet
  facet normal 0.743145 0.669131 -0
    outer loop
      vertex 8.09017 5.87785 -27.3267
      vertex 6.69131 7.43145 -5.44217
      vertex 8.09017 5.87785 -5.02589
    endloop
  endfacet
  facet normal 0.743145 0.669131 0
    outer loop
      vertex 6.69131 7.43145 -5.44217
      vertex 8.09017 5.87785 -27.3267
      vertex 6.69131 7.43145 -27.3267
    endloop
  endfacet
  facet normal 0.866026 0.5 -0
    outer loop
      vertex 9.13545 4.06737 -27.3267
      vertex 8.09017 5.87785 -5.02589
      vertex 9.13545 4.06737 -4.54077
    endloop
  endfacet
  facet normal 0.866026 0.5 0
    outer loop
      vertex 8.09017 5.87785 -5.02589
      vertex 9.13545 4.06737 -27.3267
      vertex 8.09017 5.87785 -27.3267
    endloop
  endfacet
  facet normal 0.951057 -0.309017 0
    outer loop
      vertex 9.13545 -4.06737 -27.3267
      vertex 9.78148 -2.07912 -2.89382
      vertex 9.13545 -4.06737 -2.36107
    endloop
  endfacet
  facet normal 0.951057 -0.309017 0
    outer loop
      vertex 9.78148 -2.07912 -2.89382
      vertex 9.13545 -4.06737 -27.3267
      vertex 9.78148 -2.07912 -27.3267
    endloop
  endfacet
  facet normal 0 -1 0
    outer loop
      vertex -1.04528 -9.94522 -27.3267
      vertex 1.04528 -9.94522 -0.786108
      vertex -1.04528 -9.94522 -0.786108
    endloop
  endfacet
  facet normal 0 -1 -0
    outer loop
      vertex 1.04528 -9.94522 -0.786108
      vertex -1.04528 -9.94522 -27.3267
      vertex 1.04528 -9.94522 -27.3267
    endloop
  endfacet
  facet normal -0.951057 0.309017 0
    outer loop
      vertex -9.78148 2.07912 -27.3267
      vertex -9.13545 4.06737 -4.54077
      vertex -9.13545 4.06737 -27.3267
    endloop
  endfacet
  facet normal -0.951057 0.309017 0
    outer loop
      vertex -9.13545 4.06737 -4.54077
      vertex -9.78148 2.07912 -27.3267
      vertex -9.78148 2.07912 -4.00802
    endloop
  endfacet
  facet normal -0.207911 0.978148 0
    outer loop
      vertex -3.09017 9.51056 -27.3267
      vertex -1.04528 9.94522 -6.11573
      vertex -1.04528 9.94522 -27.3267
    endloop
  endfacet
  facet normal -0.207911 0.978148 0
    outer loop
      vertex -1.04528 9.94522 -6.11573
      vertex -3.09017 9.51056 -27.3267
      vertex -3.09017 9.51056 -5.99927
    endloop
  endfacet
  facet normal 0.951057 0.309017 -0
    outer loop
      vertex 9.78148 2.07912 -27.3267
      vertex 9.13545 4.06737 -4.54077
      vertex 9.78148 2.07912 -4.00802
    endloop
  endfacet
  facet normal 0.951057 0.309017 0
    outer loop
      vertex 9.13545 4.06737 -4.54077
      vertex 9.78148 2.07912 -27.3267
      vertex 9.13545 4.06737 -27.3267
    endloop
  endfacet
  facet normal 0.406736 0.913546 -4.56799e-08
    outer loop
      vertex 5 8.66025 -27.3267
      vertex 3.09017 9.51056 -5.99927
      vertex 3.90381 9.14831 -5.9022
    endloop
  endfacet
  facet normal 0.406737 0.913545 0
    outer loop
      vertex 3.09017 9.51056 -5.99927
      vertex 5 8.66025 -27.3267
      vertex 3.09017 9.51056 -27.3267
    endloop
  endfacet
  facet normal 0.587785 -0.809017 0
    outer loop
      vertex 5 -8.66025 -27.3267
      vertex 6.69131 -7.43145 -1.45967
      vertex 5 -8.66025 -1.13041
    endloop
  endfacet
  facet normal 0.587785 -0.809017 0
    outer loop
      vertex 6.69131 -7.43145 -1.45967
      vertex 5 -8.66025 -27.3267
      vertex 6.69131 -7.43145 -27.3267
    endloop
  endfacet
  facet normal 0.743145 -0.669131 4.98988e-09
    outer loop
      vertex 6.69131 -7.43145 -27.3267
      vertex 8.09017 -5.87785 -1.87596
      vertex 6.74207 -7.37507 -1.47478
    endloop
  endfacet
  facet normal 0.743146 -0.66913 0
    outer loop
      vertex 6.69131 -7.43145 -27.3267
      vertex 6.74207 -7.37507 -1.47478
      vertex 6.69131 -7.43145 -1.45967
    endloop
  endfacet
  facet normal 0.743145 -0.669131 0
    outer loop
      vertex 8.09017 -5.87785 -1.87596
      vertex 6.69131 -7.43145 -27.3267
      vertex 8.09017 -5.87785 -27.3267
    endloop
  endfacet
  facet normal 0.406737 -0.913545 0
    outer loop
      vertex 3.09017 -9.51056 -27.3267
      vertex 5 -8.66025 -1.13041
      vertex 3.09017 -9.51056 -0.902573
    endloop
  endfacet
  facet normal 0.406737 -0.913545 0
    outer loop
      vertex 5 -8.66025 -1.13041
      vertex 3.09017 -9.51056 -27.3267
      vertex 5 -8.66025 -27.3267
    endloop
  endfacet
  facet normal 0.994522 -0.104529 0
    outer loop
      vertex 9.78148 -2.07912 -27.3267
      vertex 10 -1.82591e-16 -3.45092
      vertex 9.78148 -2.07912 -2.89382
    endloop
  endfacet
  facet normal 0.994522 -0.104529 -6.40296e-18
    outer loop
      vertex 10 -1.82591e-16 -3.45092
      vertex 9.78148 -2.07912 -27.3267
      vertex 10 1.27993e-15 -27.3267
    endloop
  endfacet
  facet normal -0.743145 -0.669131 0
    outer loop
      vertex -6.69131 -7.43145 -27.3267
      vertex -8.09017 -5.87785 -1.87596
      vertex -8.09017 -5.87785 -27.3267
    endloop
  endfacet
  facet normal -0.743145 -0.669131 0
    outer loop
      vertex -8.09017 -5.87785 -1.87596
      vertex -6.69131 -7.43145 -27.3267
      vertex -6.69131 -7.43145 -1.45967
    endloop
  endfacet
  facet normal -0.743145 0.669131 0
    outer loop
      vertex -8.09017 5.87785 -27.3267
      vertex -6.69131 7.43145 -5.44217
      vertex -6.69131 7.43145 -27.3267
    endloop
  endfacet
  facet normal -0.743144 0.669131 -1.24753e-08
    outer loop
      vertex -6.69131 7.43145 -5.44217
      vertex -8.09017 5.87785 -27.3267
      vertex -7.573 6.45223 -5.17979
    endloop
  endfacet
  facet normal -0.743145 0.669131 0
    outer loop
      vertex -7.573 6.45223 -5.17979
      vertex -8.09017 5.87785 -27.3267
      vertex -8.09017 5.87785 -5.02589
    endloop
  endfacet
  facet normal -0.587785 0.809017 0
    outer loop
      vertex -5.70837 8.14559 -5.63353
      vertex -6.69131 7.43145 -27.3267
      vertex -6.69131 7.43145 -5.44217
    endloop
  endfacet
  facet normal -0.587785 0.809017 -1.30028e-08
    outer loop
      vertex -6.69131 7.43145 -27.3267
      vertex -5 8.66025 -5.77143
      vertex -5 8.66025 -27.3267
    endloop
  endfacet
  facet normal -0.587785 0.809017 6.2453e-09
    outer loop
      vertex -5 8.66025 -5.77143
      vertex -6.69131 7.43145 -27.3267
      vertex -5.70837 8.14559 -5.63353
    endloop
  endfacet
  facet normal -0.406737 0.913545 0
    outer loop
      vertex -3.09017 9.51056 -5.99927
      vertex -3.09017 9.51056 -27.3267
      vertex -4.18809 9.02174 -5.86829
    endloop
  endfacet
  facet normal 0.406737 0.913545 8.9977e-09
    outer loop
      vertex 5 8.66025 -5.77143
      vertex 5 8.66025 -27.3267
      vertex 3.90381 9.14831 -5.9022
    endloop
  endfacet
  facet normal 0.207911 0.978148 -0
    outer loop
      vertex 3.09017 9.51056 -27.3267
      vertex 1.04528 9.94522 -6.11573
      vertex 3.09017 9.51056 -5.99927
    endloop
  endfacet
  facet normal 0.207911 0.978148 0
    outer loop
      vertex 1.04528 9.94522 -6.11573
      vertex 3.09017 9.51056 -27.3267
      vertex 1.04528 9.94522 -27.3267
    endloop
  endfacet
  facet normal 0.587785 0.809017 1.30028e-08
    outer loop
      vertex 5.98538 7.94433 -5.5796
      vertex 5 8.66025 -27.3267
      vertex 5 8.66025 -5.77143
    endloop
  endfacet
  facet normal -0.207911 -0.978148 0
    outer loop
      vertex -1.04528 -9.94522 -27.3267
      vertex -3.09017 -9.51056 -0.902573
      vertex -3.09017 -9.51056 -27.3267
    endloop
  endfacet
  facet normal -0.207911 -0.978148 0
    outer loop
      vertex -3.09017 -9.51056 -0.902573
      vertex -1.04528 -9.94522 -27.3267
      vertex -1.04528 -9.94522 -0.786108
    endloop
  endfacet
  facet normal 0 0 -1
    outer loop
      vertex 9.78148 -2.07912 -27.3267
      vertex 9.78148 2.07912 -27.3267
      vertex 10 1.27993e-15 -27.3267
    endloop
  endfacet
  facet normal 0 0 -1
    outer loop
      vertex 9.13545 -4.06737 -27.3267
      vertex 9.78148 2.07912 -27.3267
      vertex 9.78148 -2.07912 -27.3267
    endloop
  endfacet
  facet normal 0 0 -1
    outer loop
      vertex 9.13545 -4.06737 -27.3267
      vertex 9.13545 4.06737 -27.3267
      vertex 9.78148 2.07912 -27.3267
    endloop
  endfacet
  facet normal 0 0 -1
    outer loop
      vertex 8.09017 -5.87785 -27.3267
      vertex 9.13545 4.06737 -27.3267
      vertex 9.13545 -4.06737 -27.3267
    endloop
  endfacet
  facet normal 0 0 -1
    outer loop
      vertex 8.09017 -5.87785 -27.3267
      vertex 8.09017 5.87785 -27.3267
      vertex 9.13545 4.06737 -27.3267
    endloop
  endfacet
  facet normal 0 0 -1
    outer loop
      vertex 6.69131 -7.43145 -27.3267
      vertex 8.09017 5.87785 -27.3267
      vertex 8.09017 -5.87785 -27.3267
    endloop
  endfacet
  facet normal 0 0 -1
    outer loop
      vertex 6.69131 -7.43145 -27.3267
      vertex 6.69131 7.43145 -27.3267
      vertex 8.09017 5.87785 -27.3267
    endloop
  endfacet
  facet normal 0 0 -1
    outer loop
      vertex 5 -8.66025 -27.3267
      vertex 6.69131 7.43145 -27.3267
      vertex 6.69131 -7.43145 -27.3267
    endloop
  endfacet
  facet normal 0 0 -1
    outer loop
      vertex 5 -8.66025 -27.3267
      vertex 5 8.66025 -27.3267
      vertex 6.69131 7.43145 -27.3267
    endloop
  endfacet
  facet normal 0 0 -1
    outer loop
      vertex 3.09017 -9.51056 -27.3267
      vertex 5 8.66025 -27.3267
      vertex 5 -8.66025 -27.3267
    endloop
  endfacet
  facet normal 0 0 -1
    outer loop
      vertex 3.09017 -9.51056 -27.3267
      vertex 3.09017 9.51056 -27.3267
      vertex 5 8.66025 -27.3267
    endloop
  endfacet
  facet normal 0 0 -1
    outer loop
      vertex 1.04528 -9.94522 -27.3267
      vertex 3.09017 9.51056 -27.3267
      vertex 3.09017 -9.51056 -27.3267
    endloop
  endfacet
  facet normal 0 0 -1
    outer loop
      vertex 1.04528 -9.94522 -27.3267
      vertex 1.04528 9.94522 -27.3267
      vertex 3.09017 9.51056 -27.3267
    endloop
  endfacet
  facet normal 0 0 -1
    outer loop
      vertex -1.04528 -9.94522 -27.3267
      vertex 1.04528 9.94522 -27.3267
      vertex 1.04528 -9.94522 -27.3267
    endloop
  endfacet
  facet normal 0 0 -1
    outer loop
      vertex -1.04528 -9.94522 -27.3267
      vertex -1.04528 9.94522 -27.3267
      vertex 1.04528 9.94522 -27.3267
    endloop
  endfacet
  facet normal 0 0 -1
    outer loop
      vertex -3.09017 -9.51056 -27.3267
      vertex -1.04528 9.94522 -27.3267
      vertex -1.04528 -9.94522 -27.3267
    endloop
  endfacet
  facet normal 0 0 -1
    outer loop
      vertex -3.09017 -9.51056 -27.3267
      vertex -3.09017 9.51056 -27.3267
      vertex -1.04528 9.94522 -27.3267
    endloop
  endfacet
  facet normal 0 0 -1
    outer loop
      vertex -5 -8.66025 -27.3267
      vertex -3.09017 9.51056 -27.3267
      vertex -3.09017 -9.51056 -27.3267
    endloop
  endfacet
  facet normal 0 0 -1
    outer loop
      vertex -5 -8.66025 -27.3267
      vertex -5 8.66025 -27.3267
      vertex -3.09017 9.51056 -27.3267
    endloop
  endfacet
  facet normal 0 0 -1
    outer loop
      vertex -6.69131 -7.43145 -27.3267
      vertex -5 8.66025 -27.3267
      vertex -5 -8.66025 -27.3267
    endloop
  endfacet
  facet normal 0 0 -1
    outer loop
      vertex -6.69131 -7.43145 -27.3267
      vertex -6.69131 7.43145 -27.3267
      vertex -5 8.66025 -27.3267
    endloop
  endfacet
  facet normal 0 0 -1
    outer loop
      vertex -8.09017 -5.87785 -27.3267
      vertex -6.69131 7.43145 -27.3267
      vertex -6.69131 -7.43145 -27.3267
    endloop
  endfacet
  facet normal 0 0 -1
    outer loop
      vertex -8.09017 -5.87785 -27.3267
      vertex -8.09017 5.87785 -27.3267
      vertex -6.69131 7.43145 -27.3267
    endloop
  endfacet
  facet normal 0 0 -1
    outer loop
      vertex -9.13545 -4.06737 -27.3267
      vertex -8.09017 5.87785 -27.3267
      vertex -8.09017 -5.87785 -27.3267
    endloop
  endfacet
  facet normal 0 0 -1
    outer loop
      vertex -9.13545 -4.06737 -27.3267
      vertex -9.13545 4.06737 -27.3267
      vertex -8.09017 5.87785 -27.3267
    endloop
  endfacet
  facet normal 0 0 -1
    outer loop
      vertex -9.78148 -2.07912 -27.3267
      vertex -9.13545 4.06737 -27.3267
      vertex -9.13545 -4.06737 -27.3267
    endloop
  endfacet
  facet normal 0 0 -1
    outer loop
      vertex -9.78148 -2.07912 -27.3267
      vertex -9.78148 2.07912 -27.3267
      vertex -9.13545 4.06737 -27.3267
    endloop
  endfacet
  facet normal 0 -0 -1
    outer loop
      vertex -9.78148 2.07912 -27.3267
      vertex -9.78148 -2.07912 -27.3267
      vertex -10 2.06788e-15 -27.3267
    endloop
  endfacet
  facet normal -0.587785 -0.809017 -2.30609e-08
    outer loop
      vertex -5 -8.66025 -27.3267
      vertex -5.50882 -8.29058 -1.22947
      vertex -6.69131 -7.43145 -27.3267
    endloop
  endfacet
  facet normal -0.587785 -0.809017 -1.06992e-08
    outer loop
      vertex -5.50882 -8.29058 -1.22947
      vertex -5 -8.66025 -27.3267
      vertex -5 -8.66025 -1.13041
    endloop
  endfacet
  facet normal -0.951057 -0.309017 0
    outer loop
      vertex -9.13545 -4.06737 -27.3267
      vertex -9.78148 -2.07912 -2.89382
      vertex -9.78148 -2.07912 -27.3267
    endloop
  endfacet
  facet normal -0.951057 -0.309017 0
    outer loop
      vertex -9.78148 -2.07912 -2.89382
      vertex -9.13545 -4.06737 -27.3267
      vertex -9.13545 -4.06737 -2.36107
    endloop
  endfacet
  facet normal -0.406737 -0.913545 -7.40363e-09
    outer loop
      vertex -3.09017 -9.51056 -27.3267
      vertex -5 -8.66025 -1.13041
      vertex -5 -8.66025 -27.3267
    endloop
  endfacet
  facet normal -0.406736 -0.913546 3.98473e-08
    outer loop
      vertex -5 -8.66025 -1.13041
      vertex -3.09017 -9.51056 -27.3267
      vertex -4.43396 -8.91227 -1.06289
    endloop
  endfacet
  facet normal -0.406737 -0.913545 0
    outer loop
      vertex -4.43396 -8.91227 -1.06289
      vertex -3.09017 -9.51056 -27.3267
      vertex -3.09017 -9.51056 -0.902573
    endloop
  endfacet
  facet normal -0.866026 0.5 0
    outer loop
      vertex -9.13545 4.06737 -27.3267
      vertex -8.09017 5.87785 -5.02589
      vertex -8.09017 5.87785 -27.3267
    endloop
  endfacet
  facet normal -0.866026 0.5 0
    outer loop
      vertex -8.09017 5.87785 -5.02589
      vertex -9.13545 4.06737 -27.3267
      vertex -9.13545 4.06737 -4.54077
    endloop
  endfacet
  facet normal -0.406737 0.913545 8.3247e-10
    outer loop
      vertex -5 8.66025 -27.3267
      vertex -4.18809 9.02174 -5.86829
      vertex -3.09017 9.51056 -27.3267
    endloop
  endfacet
  facet normal -0.406737 0.913545 -8.99769e-09
    outer loop
      vertex -4.18809 9.02174 -5.86829
      vertex -5 8.66025 -27.3267
      vertex -5 8.66025 -5.77143
    endloop
  endfacet
  facet normal 0.587786 0.809017 -0
    outer loop
      vertex 6.69131 7.43145 -27.3267
      vertex 5.98538 7.94433 -5.5796
      vertex 6.69131 7.43145 -5.44217
    endloop
  endfacet
  facet normal 0.587785 0.809017 -6.66636e-09
    outer loop
      vertex 5.98538 7.94433 -5.5796
      vertex 6.69131 7.43145 -27.3267
      vertex 5 8.66025 -27.3267
    endloop
  endfacet
  facet normal -0.866026 -0.5 0
    outer loop
      vertex -8.09017 -5.87785 -27.3267
      vertex -9.13545 -4.06737 -2.36107
      vertex -9.13545 -4.06737 -27.3267
    endloop
  endfacet
  facet normal -0.866026 -0.5 0
    outer loop
      vertex -9.13545 -4.06737 -2.36107
      vertex -8.09017 -5.87785 -27.3267
      vertex -8.09017 -5.87785 -1.87596
    endloop
  endfacet
  facet normal -0.587785 -0.809017 -0
    outer loop
      vertex -6.69131 -7.43145 -1.45967
      vertex -6.69131 -7.43145 -27.3267
      vertex -5.50882 -8.29058 -1.22947
    endloop
  endfacet
  facet normal -0.994522 -0.104529 0
    outer loop
      vertex -9.92241 -0.738207 -3.25312
      vertex -9.78148 -2.07912 -27.3267
      vertex -9.78148 -2.07912 -2.89382
    endloop
  endfacet
  facet normal -0.994522 -0.104528 -3.97244e-08
    outer loop
      vertex -9.78148 -2.07912 -27.3267
      vertex -10 6.05366e-16 -3.45092
      vertex -10 2.06788e-15 -27.3267
    endloop
  endfacet
  facet normal -0.994522 -0.104529 7.04405e-09
    outer loop
      vertex -10 6.05366e-16 -3.45092
      vertex -9.78148 -2.07912 -27.3267
      vertex -9.92241 -0.738207 -3.25312
    endloop
  endfacet
  facet normal -4.08592e-07 0.25882 0.965926
    outer loop
      vertex 6.74207 -7.37507 -1.47478
      vertex 5 -8.66025 -1.13041
      vertex 6.69131 -7.43145 -1.45967
    endloop
  endfacet
  facet normal 1.5636e-08 0.258819 0.965926
    outer loop
      vertex -5.41667 -3.33333 -2.55776
      vertex 5 -8.66025 -1.13041
      vertex 6.74207 -7.37507 -1.47478
    endloop
  endfacet
  facet normal -5.95398e-09 0.258819 0.965926
    outer loop
      vertex 5 -8.66025 -1.13041
      vertex -5.41667 -3.33333 -2.55776
      vertex 3.09017 -9.51056 -0.902573
    endloop
  endfacet
  facet normal 1.62838e-08 0.258819 0.965926
    outer loop
      vertex 3.09017 -9.51056 -0.902573
      vertex -5.41667 -3.33333 -2.55776
      vertex 1.04528 -9.94522 -0.786108
    endloop
  endfacet
  facet normal 0 0.258819 0.965926
    outer loop
      vertex 1.04528 -9.94522 -0.786108
      vertex -5.41667 -3.33333 -2.55776
      vertex -1.04528 -9.94522 -0.786108
    endloop
  endfacet
  facet normal 9.87629e-09 0.258819 0.965926
    outer loop
      vertex -1.04528 -9.94522 -0.786108
      vertex -5.41667 -3.33333 -2.55776
      vertex -3.09017 -9.51056 -0.902573
    endloop
  endfacet
  facet normal 1.18463e-07 0.258819 0.965926
    outer loop
      vertex -3.09017 -9.51056 -0.902573
      vertex -5.41667 -3.33333 -2.55776
      vertex -4.43396 -8.91227 -1.06289
    endloop
  endfacet
  facet normal 1.34141e-08 0.258819 0.965926
    outer loop
      vertex -5.41667 -3.33333 -2.55776
      vertex 6.74207 -7.37507 -1.47478
      vertex -5.41667 3.33333 -4.34409
    endloop
  endfacet
  facet normal 1.9102e-07 0.258819 0.965926
    outer loop
      vertex -7.573 6.45223 -5.17979
      vertex -5.41667 3.33333 -4.34409
      vertex 6.74207 -7.37507 -1.47478
    endloop
  endfacet
  facet normal 3.53992e-07 0.258819 0.965926
    outer loop
      vertex -8.09017 5.87785 -5.02589
      vertex -5.41667 3.33333 -4.34409
      vertex -7.573 6.45223 -5.17979
    endloop
  endfacet
  facet normal 5.49281e-09 0.258819 0.965926
    outer loop
      vertex -9.13545 4.06737 -4.54077
      vertex -7.91667 3.33333 -4.34409
      vertex -8.09017 5.87785 -5.02589
    endloop
  endfacet
  facet normal 0 0.258819 0.965926
    outer loop
      vertex -5.41667 3.33333 -4.34409
      vertex -8.09017 5.87785 -5.02589
      vertex -7.91667 3.33333 -4.34409
    endloop
  endfacet
  facet normal -1.72088e-07 0.258819 0.965926
    outer loop
      vertex -5.50882 -8.29058 -1.22947
      vertex -4.43396 -8.91227 -1.06289
      vertex -5.41667 -3.33333 -2.55776
    endloop
  endfacet
  facet normal -6.94235e-07 0.258818 0.965926
    outer loop
      vertex -4.43396 -8.91227 -1.06289
      vertex -5.50882 -8.29058 -1.22947
      vertex -5 -8.66025 -1.13041
    endloop
  endfacet
  facet normal 6.50312e-08 0.258819 0.965926
    outer loop
      vertex -5.41667 -3.33333 -2.55776
      vertex -6.69131 -7.43145 -1.45967
      vertex -5.50882 -8.29058 -1.22947
    endloop
  endfacet
  facet normal 0 0.258819 0.965926
    outer loop
      vertex -8.09017 -5.87785 -1.87596
      vertex -5.41667 -3.33333 -2.55776
      vertex -7.91667 -3.33333 -2.55776
    endloop
  endfacet
  facet normal -4.85113e-09 0.258819 0.965926
    outer loop
      vertex -5.41667 -3.33333 -2.55776
      vertex -8.09017 -5.87785 -1.87596
      vertex -6.69131 -7.43145 -1.45967
    endloop
  endfacet
  facet normal 2.55935e-08 0.258819 0.965926
    outer loop
      vertex -9.78148 2.07912 -4.00802
      vertex -7.91667 3.33333 -4.34409
      vertex -9.13545 4.06737 -4.54077
    endloop
  endfacet
  facet normal 2.0554e-08 0.258819 0.965926
    outer loop
      vertex -9.92006 0.760576 -3.65472
      vertex -7.91667 3.33333 -4.34409
      vertex -9.78148 2.07912 -4.00802
    endloop
  endfacet
  facet normal -4.02669e-08 0.258819 0.965926
    outer loop
      vertex -9.92241 -0.738207 -3.25312
      vertex -7.91667 -3.33333 -2.55776
      vertex -9.92006 0.760576 -3.65472
    endloop
  endfacet
  facet normal -4.52919e-10 0.258819 0.965926
    outer loop
      vertex -7.91667 3.33333 -4.34409
      vertex -9.92006 0.760576 -3.65472
      vertex -7.91667 -3.33333 -2.55776
    endloop
  endfacet
  facet normal -3.59117e-09 0.258819 0.965926
    outer loop
      vertex -9.78148 -2.07912 -2.89382
      vertex -7.91667 -3.33333 -2.55776
      vertex -9.92241 -0.738207 -3.25312
    endloop
  endfacet
  facet normal -3.39143e-08 0.258819 0.965926
    outer loop
      vertex -7.91667 -3.33333 -2.55776
      vertex -9.13545 -4.06737 -2.36107
      vertex -8.09017 -5.87785 -1.87596
    endloop
  endfacet
  facet normal -2.55935e-08 0.258819 0.965926
    outer loop
      vertex -7.91667 -3.33333 -2.55776
      vertex -9.78148 -2.07912 -2.89382
      vertex -9.13545 -4.06737 -2.36107
    endloop
  endfacet
  facet normal 2.00312e-07 0.258819 0.965926
    outer loop
      vertex -9.92241 -0.738207 -3.25312
      vertex -9.92006 0.760576 -3.65472
      vertex -10 6.05366e-16 -3.45092
    endloop
  endfacet
  facet normal -1.64793e-08 0.258819 0.965926
    outer loop
      vertex 7.91667 3.33333 -4.34409
      vertex 10 -1.82591e-16 -3.45092
      vertex 9.78148 2.07912 -4.00802
    endloop
  endfacet
  facet normal -2.55935e-08 0.258819 0.965926
    outer loop
      vertex 7.91667 3.33333 -4.34409
      vertex 9.78148 2.07912 -4.00802
      vertex 9.13545 4.06737 -4.54077
    endloop
  endfacet
  facet normal 0 0.258819 0.965926
    outer loop
      vertex 7.91667 -3.33333 -2.55776
      vertex 10 -1.82591e-16 -3.45092
      vertex 7.91667 3.33333 -4.34409
    endloop
  endfacet
  facet normal -5.49281e-09 0.258819 0.965926
    outer loop
      vertex 7.91667 3.33333 -4.34409
      vertex 9.13545 4.06737 -4.54077
      vertex 8.09017 5.87785 -5.02589
    endloop
  endfacet
  facet normal 1.64793e-08 0.258819 0.965926
    outer loop
      vertex 10 -1.82591e-16 -3.45092
      vertex 7.91667 -3.33333 -2.55776
      vertex 9.78148 -2.07912 -2.89382
    endloop
  endfacet
  facet normal 2.55935e-08 0.258819 0.965926
    outer loop
      vertex 9.78148 -2.07912 -2.89382
      vertex 7.91667 -3.33333 -2.55776
      vertex 9.13545 -4.06737 -2.36107
    endloop
  endfacet
  facet normal 9.9424e-09 0.258819 0.965926
    outer loop
      vertex 5.41667 3.33333 -4.34409
      vertex 8.09017 5.87785 -5.02589
      vertex 6.69131 7.43145 -5.44217
    endloop
  endfacet
  facet normal -9.54045e-08 0.258819 0.965926
    outer loop
      vertex 5.41667 3.33333 -4.34409
      vertex 6.69131 7.43145 -5.44217
      vertex 5.98538 7.94433 -5.5796
    endloop
  endfacet
  facet normal 0 0.258819 0.965926
    outer loop
      vertex 8.09017 5.87785 -5.02589
      vertex 5.41667 3.33333 -4.34409
      vertex 7.91667 3.33333 -4.34409
    endloop
  endfacet
  facet normal -3.21806e-08 0.258819 0.965926
    outer loop
      vertex 3.90381 9.14831 -5.9022
      vertex 5.41667 3.33333 -4.34409
      vertex 5 8.66025 -5.77143
    endloop
  endfacet
  facet normal -7.63976e-09 0.258819 0.965926
    outer loop
      vertex 5 8.66025 -5.77143
      vertex 5.41667 3.33333 -4.34409
      vertex 5.98538 7.94433 -5.5796
    endloop
  endfacet
  facet normal 5.49281e-09 0.258819 0.965926
    outer loop
      vertex 9.13545 -4.06737 -2.36107
      vertex 7.91667 -3.33333 -2.55776
      vertex 8.09017 -5.87785 -1.87596
    endloop
  endfacet
  facet normal -9.21179e-08 0.258819 0.965926
    outer loop
      vertex 5.41667 -3.33333 -2.55776
      vertex 8.09017 -5.87785 -1.87596
      vertex 7.91667 -3.33333 -2.55776
    endloop
  endfacet
  facet normal -2.2525e-08 0.258819 0.965926
    outer loop
      vertex 8.09017 -5.87785 -1.87596
      vertex 5.41667 -3.33333 -2.55776
      vertex 6.74207 -7.37507 -1.47478
    endloop
  endfacet
  facet normal -2.65828e-07 0.258819 0.965926
    outer loop
      vertex 3.09017 9.51056 -5.99927
      vertex 5.41667 3.33333 -4.34409
      vertex 3.90381 9.14831 -5.9022
    endloop
  endfacet
  facet normal -4.91802e-08 0.258819 0.965926
    outer loop
      vertex 5.41667 3.33333 -4.34409
      vertex 3.09017 9.51056 -5.99927
      vertex 1.04528 9.94522 -6.11573
    endloop
  endfacet
  facet normal -0 0.258819 0.965926
    outer loop
      vertex -1.04528 9.94522 -6.11573
      vertex 5.41667 3.33333 -4.34409
      vertex 1.04528 9.94522 -6.11573
    endloop
  endfacet
  facet normal 3.49985e-08 0.258819 0.965926
    outer loop
      vertex -3.09017 9.51056 -5.99927
      vertex 5.41667 3.33333 -4.34409
      vertex -1.04528 9.94522 -6.11573
    endloop
  endfacet
  facet normal 5.72108e-10 0.258819 0.965926
    outer loop
      vertex -5.70837 8.14559 -5.63353
      vertex 5.41667 3.33333 -4.34409
      vertex -4.18809 9.02174 -5.86829
    endloop
  endfacet
  facet normal -1.11249e-08 0.258819 0.965926
    outer loop
      vertex 5.41667 3.33333 -4.34409
      vertex -3.09017 9.51056 -5.99927
      vertex -4.18809 9.02174 -5.86829
    endloop
  endfacet
  facet normal -4.05722e-08 0.258819 0.965926
    outer loop
      vertex -7.573 6.45223 -5.17979
      vertex 5.41667 3.33333 -4.34409
      vertex -5.70837 8.14559 -5.63353
    endloop
  endfacet
  facet normal 1.15802e-06 0.258817 0.965926
    outer loop
      vertex -5.70837 8.14559 -5.63353
      vertex -4.18809 9.02174 -5.86829
      vertex -5 8.66025 -5.77143
    endloop
  endfacet
  facet normal -2.50041e-08 0.258819 0.965926
    outer loop
      vertex 5.41667 3.33333 -4.34409
      vertex -7.573 6.45223 -5.17979
      vertex 5.41667 -3.33333 -2.55776
    endloop
  endfacet
  facet normal -6.02394e-07 0.25882 0.965926
    outer loop
      vertex -7.573 6.45223 -5.17979
      vertex -5.70837 8.14559 -5.63353
      vertex -6.69131 7.43145 -5.44217
    endloop
  endfacet
  facet normal 1.79874e-08 0.258819 0.965926
    outer loop
      vertex 5.41667 -3.33333 -2.55776
      vertex -7.573 6.45223 -5.17979
      vertex 6.74207 -7.37507 -1.47478
    endloop
  endfacet
endsolid OpenSCAD_Model
