solid OpenSCAD_Model
  facet normal 0.784309 -0.255278 -0.565413
    outer loop
      vertex 9.93641 -0.605028 -12.4729
      vertex 7.14911 -0.140428 -16.549
      vertex 7.35289 0.235858 -16.4362
    endloop
  endfacet
  facet normal 0.784309 -0.255278 -0.565413
    outer loop
      vertex 9.93641 -0.605028 -12.4729
      vertex 6.8978 -0.780689 -16.6086
      vertex 7.14911 -0.140428 -16.549
    endloop
  endfacet
  facet normal 0.784309 -0.255278 -0.565413
    outer loop
      vertex 8.01744 -3.92408 -13.6362
      vertex 9.93641 -0.605028 -12.4729
      vertex 9.78148 -2.07912 -12.0223
    endloop
  endfacet
  facet normal 0.784309 -0.255278 -0.565413
    outer loop
      vertex 9.93641 -0.605028 -12.4729
      vertex 6.38813 -2.07922 -16.7293
      vertex 6.8978 -0.780689 -16.6086
    endloop
  endfacet
  facet normal 0.784309 -0.255278 -0.565413
    outer loop
      vertex 9.93641 -0.605028 -12.4729
      vertex 8.01744 -3.92408 -13.6362
      vertex 6.38813 -2.07922 -16.7293
    endloop
  endfacet
  facet normal 0.784309 -0.255278 -0.565413
    outer loop
      vertex 6.38813 -2.07922 -16.7293
      vertex 8.01744 -3.92408 -13.6362
      vertex 6.03583 -3.42897 -16.6086
    endloop
  endfacet
  facet normal 0.784309 -0.255278 -0.565413
    outer loop
      vertex 9.13545 -4.06737 -12.0207
      vertex 8.01744 -3.92408 -13.6362
      vertex 9.78148 -2.07912 -12.0223
    endloop
  endfacet
  facet normal 0.784309 -0.255279 -0.565413
    outer loop
      vertex 8.01744 -3.92408 -13.6362
      vertex 9.13545 -4.06737 -12.0207
      vertex 9.02824 -4.25307 -12.0856
    endloop
  endfacet
  facet normal 0.784309 -0.255278 -0.565413
    outer loop
      vertex 8.01744 -3.92408 -13.6362
      vertex 5.86213 -4.09449 -16.549
      vertex 6.03583 -3.42897 -16.6086
    endloop
  endfacet
  facet normal 0.784309 -0.255278 -0.565413
    outer loop
      vertex 8.01744 -3.92408 -13.6362
      vertex 5.80539 -4.51864 -16.4362
      vertex 5.86213 -4.09449 -16.549
    endloop
  endfacet
  facet normal 0.784309 -0.255278 -0.565413
    outer loop
      vertex 5.80539 -4.51864 -16.4362
      vertex 8.01744 -3.92408 -13.6362
      vertex 7.63057 -5.1127 -13.6362
    endloop
  endfacet
  facet normal -0.3095 -0.950899 -1.04397e-08
    outer loop
      vertex -3.34488 -1.54039 -9.83975
      vertex 7.63057 -5.1127 -13.6362
      vertex -1.51971 -2.13445 -7.03976
    endloop
  endfacet
  facet normal -0.3095 -0.950899 4.48789e-08
    outer loop
      vertex 7.63057 -5.1127 -13.6362
      vertex -3.34488 -1.54039 -9.83975
      vertex 5.80539 -4.51864 -16.4362
    endloop
  endfacet
  facet normal -0.3095 -0.950899 -1.02941e-08
    outer loop
      vertex -0.175578 -2.57194 -4.97774
      vertex 8.38934 -5.35967 -6.60573
      vertex 1.84061 -3.22818 -1.88471
    endloop
  endfacet
  facet normal -0.3095 -0.950899 -0
    outer loop
      vertex 8.38934 -5.35967 -6.60573
      vertex -0.175578 -2.57194 -4.97774
      vertex 8.38934 -5.35967 -11.1522
    endloop
  endfacet
  facet normal 0.3095 0.950899 -3.90418e-09
    outer loop
      vertex 9.93641 -0.605028 -12.1623
      vertex -1.79738 3.2141 -9.83975
      vertex 0.923881 2.32838 -5.66508
    endloop
  endfacet
  facet normal 0.3095 0.950899 0
    outer loop
      vertex 7.35289 0.235858 -16.4362
      vertex 9.93641 -0.605028 -12.1623
      vertex 9.93641 -0.605028 -12.4729
    endloop
  endfacet
  facet normal 0.3095 0.950899 -1.1239e-08
    outer loop
      vertex 9.93641 -0.605028 -12.1623
      vertex 7.35289 0.235858 -16.4362
      vertex -1.79738 3.2141 -9.83975
    endloop
  endfacet
  facet normal 0.3095 0.950899 2.63746e-08
    outer loop
      vertex 9.93641 -0.605028 -6.60542
      vertex 2.44383 1.83367 -3.33333
      vertex 3.38811 1.52632 -1.88471
    endloop
  endfacet
  facet normal 0.3095 0.950899 -1.45536e-07
    outer loop
      vertex 2.44383 1.83367 -3.33333
      vertex 9.93641 -0.605028 -6.60542
      vertex 2.26801 1.89089 -3.60306
    endloop
  endfacet
  facet normal 0.3095 0.950899 0
    outer loop
      vertex 2.26801 1.89089 -3.60306
      vertex 9.93641 -0.605028 -6.60542
      vertex 9.93641 -0.605028 -9.13126
    endloop
  endfacet
  facet normal -0.994522 0.104529 0
    outer loop
      vertex -9.78148 2.07912 -10
      vertex -9.78148 2.07912 -30.9017
      vertex -9.89315 1.01664 -10
    endloop
  endfacet
  facet normal -0.994522 0.104528 -3.35866e-08
    outer loop
      vertex -10 1.04917e-15 -30.9017
      vertex -9.89315 1.01664 -10
      vertex -9.78148 2.07912 -30.9017
    endloop
  endfacet
  facet normal -0.994522 0.104529 -4.53767e-08
    outer loop
      vertex -9.89315 1.01664 -10
      vertex -10 1.04917e-15 -30.9017
      vertex -10 5.71634e-16 -10
    endloop
  endfacet
  facet normal 0.994522 0.104529 0
    outer loop
      vertex 9.88872 1.05879 -17.2972
      vertex 9.78148 2.07912 -30.9017
      vertex 9.78148 2.07912 -16.3549
    endloop
  endfacet
  facet normal 0.994522 0.104529 1.53061e-08
    outer loop
      vertex 10 6.75605e-17 -17.9774
      vertex 9.78148 2.07912 -30.9017
      vertex 9.88872 1.05879 -17.2972
    endloop
  endfacet
  facet normal 0.994522 0.104529 4.10902e-18
    outer loop
      vertex 9.78148 2.07912 -30.9017
      vertex 10 6.75605e-17 -17.9774
      vertex 10 3.6284e-16 -30.9017
    endloop
  endfacet
  facet normal 0.207908 -0.978148 0
    outer loop
      vertex 1.04528 -9.94522 -30.9017
      vertex 1.17413 -9.91783 -7.8227
      vertex 1.04528 -9.94522 -7.56503
    endloop
  endfacet
  facet normal 0.207912 -0.978148 -2.39529e-08
    outer loop
      vertex 1.04528 -9.94522 -30.9017
      vertex 1.97006 -9.74865 -9.41452
      vertex 1.17413 -9.91783 -7.8227
    endloop
  endfacet
  facet normal 0.207911 -0.978148 1.58246e-08
    outer loop
      vertex 1.04528 -9.94522 -30.9017
      vertex 3.09017 -9.51056 -11.0505
      vertex 1.97006 -9.74865 -9.41452
    endloop
  endfacet
  facet normal 0.207911 -0.978148 0
    outer loop
      vertex 3.09017 -9.51056 -11.0505
      vertex 1.04528 -9.94522 -30.9017
      vertex 3.09017 -9.51056 -30.9017
    endloop
  endfacet
  facet normal 0 1 -0
    outer loop
      vertex 1.04528 9.94522 -30.9017
      vertex 0.426638 9.94522 -9.79375
      vertex 1.04528 9.94522 -8.9356
    endloop
  endfacet
  facet normal 0 1 0
    outer loop
      vertex 0.426638 9.94522 -9.79375
      vertex 1.04528 9.94522 -30.9017
      vertex 0.277951 9.94522 -10
    endloop
  endfacet
  facet normal 0 1 0
    outer loop
      vertex -1.04528 9.94522 -30.9017
      vertex 0.277951 9.94522 -10
      vertex 1.04528 9.94522 -30.9017
    endloop
  endfacet
  facet normal 0 1 0
    outer loop
      vertex 0.277951 9.94522 -10
      vertex -1.04528 9.94522 -30.9017
      vertex -1.04528 9.94522 -10
    endloop
  endfacet
  facet normal 0.866026 -0.5 -2.6164e-08
    outer loop
      vertex 8.09017 -5.87785 -30.9017
      vertex 9.13545 -4.06737 -18.8094
      vertex 8.85133 -4.55949 -18.6577
    endloop
  endfacet
  facet normal 0.866025 -0.5 5.94323e-08
    outer loop
      vertex 8.09017 -5.87785 -30.9017
      vertex 8.85133 -4.55949 -18.6577
      vertex 8.60446 -4.98707 -18.526
    endloop
  endfacet
  facet normal 0.866026 -0.5 0
    outer loop
      vertex 8.09017 -5.87785 -30.9017
      vertex 8.60446 -4.98707 -18.526
      vertex 8.09017 -5.87785 -17.9834
    endloop
  endfacet
  facet normal 0.866026 -0.5 0
    outer loop
      vertex 9.13545 -4.06737 -18.8094
      vertex 8.09017 -5.87785 -30.9017
      vertex 9.13545 -4.06737 -30.9017
    endloop
  endfacet
  facet normal 0.866025 -0.500002 0
    outer loop
      vertex 9.13545 -4.06737 -6.8179
      vertex 9.02824 -4.25307 -11.3339
      vertex 9.13545 -4.06737 -12.0207
    endloop
  endfacet
  facet normal 0.866026 -0.5 0
    outer loop
      vertex 8.38934 -5.35967 -11.1522
      vertex 9.13545 -4.06737 -6.8179
      vertex 8.38934 -5.35967 -6.60573
    endloop
  endfacet
  facet normal 0.866026 -0.499999 -1.14499e-07
    outer loop
      vertex 9.13545 -4.06737 -6.8179
      vertex 8.38934 -5.35967 -11.1522
      vertex 9.02824 -4.25307 -11.3339
    endloop
  endfacet
  facet normal 0.866025 -0.500002 0
    outer loop
      vertex 9.13545 -4.06737 -12.0207
      vertex 9.02824 -4.25307 -11.3339
      vertex 9.02824 -4.25307 -12.0856
    endloop
  endfacet
  facet normal 0.743144 0.669132 0
    outer loop
      vertex 6.7852 7.32717 -7.82162
      vertex 6.69131 7.43145 -30.9017
      vertex 6.69131 7.43145 -7.54741
    endloop
  endfacet
  facet normal 0.743145 0.669131 -6.46059e-09
    outer loop
      vertex 7.33058 6.72147 -9.41439
      vertex 6.69131 7.43145 -30.9017
      vertex 6.7852 7.32717 -7.82162
    endloop
  endfacet
  facet normal 0.743145 0.669131 -6.0016e-09
    outer loop
      vertex 8.09017 5.87785 -11.0349
      vertex 6.69131 7.43145 -30.9017
      vertex 7.33058 6.72147 -9.41439
    endloop
  endfacet
  facet normal 0.743145 0.669131 0
    outer loop
      vertex 6.69131 7.43145 -30.9017
      vertex 8.09017 5.87785 -11.0349
      vertex 8.09017 5.87785 -30.9017
    endloop
  endfacet
  facet normal 0.866026 0.499998 0
    outer loop
      vertex 8.19286 5.69998 -11.3687
      vertex 8.09017 5.87785 -30.9017
      vertex 8.09017 5.87785 -11.0349
    endloop
  endfacet
  facet normal 0.866025 0.5 1.87545e-08
    outer loop
      vertex 8.5849 5.02095 -12.6434
      vertex 8.09017 5.87785 -30.9017
      vertex 8.19286 5.69998 -11.3687
    endloop
  endfacet
  facet normal 0.866026 0.5 1.09698e-08
    outer loop
      vertex 9.13545 4.06737 -14.0084
      vertex 8.09017 5.87785 -30.9017
      vertex 8.5849 5.02095 -12.6434
    endloop
  endfacet
  facet normal 0.866026 0.5 0
    outer loop
      vertex 8.09017 5.87785 -30.9017
      vertex 9.13545 4.06737 -14.0084
      vertex 9.13545 4.06737 -30.9017
    endloop
  endfacet
  facet normal 0.951056 -0.309017 0
    outer loop
      vertex 9.4569 -3.07805 -18.9416
      vertex 9.78148 -2.07912 -30.9017
      vertex 9.78148 -2.07912 -18.8074
    endloop
  endfacet
  facet normal 0.951057 -0.309016 0
    outer loop
      vertex 9.13545 -4.06737 -30.9017
      vertex 9.4569 -3.07805 -18.9416
      vertex 9.13545 -4.06737 -18.8094
    endloop
  endfacet
  facet normal 0.951057 -0.309017 3.69135e-08
    outer loop
      vertex 9.4569 -3.07805 -18.9416
      vertex 9.13545 -4.06737 -30.9017
      vertex 9.78148 -2.07912 -30.9017
    endloop
  endfacet
  facet normal 0.951057 -0.309017 0
    outer loop
      vertex 9.13545 -4.06737 -6.8179
      vertex 9.78148 -2.07912 -12.0223
      vertex 9.78148 -2.07912 -6.81717
    endloop
  endfacet
  facet normal 0.951057 -0.309017 0
    outer loop
      vertex 9.78148 -2.07912 -12.0223
      vertex 9.13545 -4.06737 -6.8179
      vertex 9.13545 -4.06737 -12.0207
    endloop
  endfacet
  facet normal 0 -1 0
    outer loop
      vertex -1.04528 -9.94522 -30.9017
      vertex -0.173387 -9.94522 -5.74354
      vertex -1.04528 -9.94522 -3.63598
    endloop
  endfacet
  facet normal 0 -1 0
    outer loop
      vertex -1.04528 -9.94522 -30.9017
      vertex 1.04528 -9.94522 -7.56503
      vertex -0.173387 -9.94522 -5.74354
    endloop
  endfacet
  facet normal 0 -1 -0
    outer loop
      vertex 1.04528 -9.94522 -7.56503
      vertex -1.04528 -9.94522 -30.9017
      vertex 1.04528 -9.94522 -30.9017
    endloop
  endfacet
  facet normal -0.951057 0.309017 0
    outer loop
      vertex -9.78148 2.07912 -30.9017
      vertex -9.13545 4.06737 -10
      vertex -9.13545 4.06737 -30.9017
    endloop
  endfacet
  facet normal -0.951057 0.309017 0
    outer loop
      vertex -9.13545 4.06737 -10
      vertex -9.78148 2.07912 -30.9017
      vertex -9.78148 2.07912 -10
    endloop
  endfacet
  facet normal -0.207911 0.978148 0
    outer loop
      vertex -1.04528 9.94522 -30.9017
      vertex -3.09017 9.51056 -10
      vertex -1.04528 9.94522 -10
    endloop
  endfacet
  facet normal -0.207911 0.978148 0
    outer loop
      vertex -3.09017 9.51056 -10
      vertex -1.04528 9.94522 -30.9017
      vertex -3.09017 9.51056 -30.9017
    endloop
  endfacet
  facet normal 0.951057 0.309017 0
    outer loop
      vertex 9.44772 3.1063 -15.308
      vertex 9.13545 4.06737 -30.9017
      vertex 9.13545 4.06737 -14.0084
    endloop
  endfacet
  facet normal 0.951057 0.309017 2.73378e-08
    outer loop
      vertex 9.78148 2.07912 -16.3549
      vertex 9.13545 4.06737 -30.9017
      vertex 9.44772 3.1063 -15.308
    endloop
  endfacet
  facet normal 0.951057 0.309017 0
    outer loop
      vertex 9.13545 4.06737 -30.9017
      vertex 9.78148 2.07912 -16.3549
      vertex 9.78148 2.07912 -30.9017
    endloop
  endfacet
  facet normal 0.406737 0.913545 3.13021e-08
    outer loop
      vertex 5 8.66025 -30.9017
      vertex 3.09017 9.51056 -5.90281
      vertex 3.78146 9.20278 -4.80493
    endloop
  endfacet
  facet normal 0.406737 0.913545 0
    outer loop
      vertex 3.09017 9.51056 -5.90281
      vertex 5 8.66025 -30.9017
      vertex 3.09017 9.51056 -30.9017
    endloop
  endfacet
  facet normal 0.587785 -0.809017 0
    outer loop
      vertex 5 -8.66025 -30.9017
      vertex 5.80938 -8.07221 -15.308
      vertex 5 -8.66025 -14.0213
    endloop
  endfacet
  facet normal 0.587785 -0.809017 -1.15466e-08
    outer loop
      vertex 5 -8.66025 -30.9017
      vertex 6.69131 -7.43145 -16.3645
      vertex 5.80938 -8.07221 -15.308
    endloop
  endfacet
  facet normal 0.587785 -0.809017 0
    outer loop
      vertex 6.69131 -7.43145 -16.3645
      vertex 5 -8.66025 -30.9017
      vertex 6.69131 -7.43145 -30.9017
    endloop
  endfacet
  facet normal 0.743145 -0.669131 6.43529e-09
    outer loop
      vertex 6.69131 -7.43145 -30.9017
      vertex 8.09017 -5.87785 -17.9834
      vertex 7.37104 -6.67653 -17.2972
    endloop
  endfacet
  facet normal 0.743145 -0.669131 0
    outer loop
      vertex 6.69131 -7.43145 -30.9017
      vertex 7.37104 -6.67653 -17.2972
      vertex 6.69131 -7.43145 -16.3645
    endloop
  endfacet
  facet normal 0.743145 -0.669131 0
    outer loop
      vertex 8.09017 -5.87785 -17.9834
      vertex 6.69131 -7.43145 -30.9017
      vertex 8.09017 -5.87785 -30.9017
    endloop
  endfacet
  facet normal 0.406737 -0.913545 0
    outer loop
      vertex 3.09017 -9.51056 -30.9017
      vertex 3.26951 -9.43072 -11.3698
      vertex 3.09017 -9.51056 -11.0505
    endloop
  endfacet
  facet normal 0.406737 -0.913545 4.99629e-10
    outer loop
      vertex 3.09017 -9.51056 -30.9017
      vertex 3.98492 -9.1122 -12.6434
      vertex 3.26951 -9.43072 -11.3698
    endloop
  endfacet
  facet normal 0.406737 -0.913546 2.17114e-08
    outer loop
      vertex 3.09017 -9.51056 -30.9017
      vertex 5 -8.66025 -14.0213
      vertex 3.98492 -9.1122 -12.6434
    endloop
  endfacet
  facet normal 0.406737 -0.913545 0
    outer loop
      vertex 5 -8.66025 -14.0213
      vertex 3.09017 -9.51056 -30.9017
      vertex 5 -8.66025 -30.9017
    endloop
  endfacet
  facet normal 0.994522 -0.104529 -3.10133e-18
    outer loop
      vertex 9.89143 -1.033 -18.526
      vertex 10 3.6284e-16 -30.9017
      vertex 10 6.75605e-17 -17.9774
    endloop
  endfacet
  facet normal 0.994522 -0.104527 1.60661e-07
    outer loop
      vertex 9.83981 -1.5241 -18.6581
      vertex 10 3.6284e-16 -30.9017
      vertex 9.89143 -1.033 -18.526
    endloop
  endfacet
  facet normal 0.994522 -0.104529 -8.87125e-08
    outer loop
      vertex 9.78148 -2.07912 -18.8074
      vertex 10 3.6284e-16 -30.9017
      vertex 9.83981 -1.5241 -18.6581
    endloop
  endfacet
  facet normal 0.994522 -0.104529 0
    outer loop
      vertex 10 3.6284e-16 -30.9017
      vertex 9.78148 -2.07912 -18.8074
      vertex 9.78148 -2.07912 -30.9017
    endloop
  endfacet
  facet normal 0.994522 -0.104529 0
    outer loop
      vertex 9.93641 -0.605028 -6.60542
      vertex 9.89188 -1.02872 -9.19212
      vertex 9.93641 -0.605028 -9.13126
    endloop
  endfacet
  facet normal 0.994522 -0.104529 0
    outer loop
      vertex 9.78148 -2.07912 -12.0223
      vertex 9.89188 -1.02872 -9.19212
      vertex 9.78148 -2.07912 -6.81717
    endloop
  endfacet
  facet normal 0.994522 -0.104529 -6.59734e-08
    outer loop
      vertex 9.78148 -2.07912 -6.81717
      vertex 9.89188 -1.02872 -9.19212
      vertex 9.93641 -0.605028 -6.60542
    endloop
  endfacet
  facet normal 0.994522 -0.104529 0
    outer loop
      vertex 9.89188 -1.02872 -12.2231
      vertex 9.93641 -0.605028 -12.4729
      vertex 9.93641 -0.605028 -12.1623
    endloop
  endfacet
  facet normal 0.994522 -0.104529 1.38593e-06
    outer loop
      vertex 9.89188 -1.02872 -12.2231
      vertex 9.78148 -2.07912 -12.0223
      vertex 9.93641 -0.605028 -12.4729
    endloop
  endfacet
  facet normal 0.994522 -0.104529 0
    outer loop
      vertex 9.89188 -1.02872 -9.19212
      vertex 9.78148 -2.07912 -12.0223
      vertex 9.89188 -1.02872 -12.2231
    endloop
  endfacet
  facet normal -0.743145 -0.669131 0
    outer loop
      vertex -6.69131 -7.43145 -30.9017
      vertex -8.09017 -5.87785 -10
      vertex -8.09017 -5.87785 -30.9017
    endloop
  endfacet
  facet normal -0.743145 -0.669131 0
    outer loop
      vertex -8.09017 -5.87785 -10
      vertex -6.69131 -7.43145 -30.9017
      vertex -6.69131 -7.43145 -10
    endloop
  endfacet
  facet normal -0.743145 0.669131 0
    outer loop
      vertex -8.09017 5.87785 -30.9017
      vertex -6.69131 7.43145 -10
      vertex -6.69131 7.43145 -30.9017
    endloop
  endfacet
  facet normal -0.743145 0.669131 0
    outer loop
      vertex -6.69131 7.43145 -10
      vertex -8.09017 5.87785 -30.9017
      vertex -8.09017 5.87785 -10
    endloop
  endfacet
  facet normal -0.587785 0.809017 0
    outer loop
      vertex -6.69131 7.43145 -10
      vertex -5.82701 8.0594 -10
      vertex -6.69131 7.43145 -30.9017
    endloop
  endfacet
  facet normal -0.587785 0.809017 -1.34093e-08
    outer loop
      vertex -5 8.66025 -30.9017
      vertex -5.82701 8.0594 -10
      vertex -5 8.66025 -10
    endloop
  endfacet
  facet normal -0.587785 0.809017 -2.02973e-08
    outer loop
      vertex -5.82701 8.0594 -10
      vertex -5 8.66025 -30.9017
      vertex -6.69131 7.43145 -30.9017
    endloop
  endfacet
  facet normal -0.406737 0.913546 0
    outer loop
      vertex -3.09017 9.51056 -10
      vertex -3.09017 9.51056 -30.9017
      vertex -4.06614 9.07604 -10
    endloop
  endfacet
  facet normal 0.406737 0.913546 1.14163e-07
    outer loop
      vertex 5 8.66025 -3.61711
      vertex 3.78146 9.20278 -4.80493
      vertex 4.74952 8.77177 -3.26749
    endloop
  endfacet
  facet normal 0.406737 0.913545 7.1083e-09
    outer loop
      vertex 3.78146 9.20278 -4.80493
      vertex 5 8.66025 -3.61711
      vertex 5 8.66025 -30.9017
    endloop
  endfacet
  facet normal 0.207911 0.978148 -0
    outer loop
      vertex 3.09017 9.51056 -30.9017
      vertex 1.04528 9.94522 -8.9356
      vertex 3.09017 9.51056 -5.90281
    endloop
  endfacet
  facet normal 0.207911 0.978148 0
    outer loop
      vertex 1.04528 9.94522 -8.9356
      vertex 3.09017 9.51056 -30.9017
      vertex 1.04528 9.94522 -30.9017
    endloop
  endfacet
  facet normal 0.587785 0.809017 1.02724e-08
    outer loop
      vertex 5.71313 8.14213 -5.74316
      vertex 5 8.66025 -30.9017
      vertex 5 8.66025 -3.61711
    endloop
  endfacet
  facet normal 0.587785 0.809017 6.53152e-09
    outer loop
      vertex 5 8.66025 -30.9017
      vertex 5.71313 8.14213 -5.74316
      vertex 6.01713 7.92126 -6.30389
    endloop
  endfacet
  facet normal -0.207912 -0.978148 2.05643e-07
    outer loop
      vertex -3.09017 -9.51056 -5.88798
      vertex -1.04528 -9.94522 -3.63598
      vertex -1.32488 -9.88579 -3.26986
    endloop
  endfacet
  facet normal -0.207911 -0.978148 0
    outer loop
      vertex -1.04528 -9.94522 -30.9017
      vertex -3.09017 -9.51056 -5.88798
      vertex -3.09017 -9.51056 -30.9017
    endloop
  endfacet
  facet normal -0.207911 -0.978148 0
    outer loop
      vertex -3.09017 -9.51056 -5.88798
      vertex -1.04528 -9.94522 -30.9017
      vertex -1.04528 -9.94522 -3.63598
    endloop
  endfacet
  facet normal 0 0 -1
    outer loop
      vertex 9.78148 -2.07912 -30.9017
      vertex 9.78148 2.07912 -30.9017
      vertex 10 3.6284e-16 -30.9017
    endloop
  endfacet
  facet normal 0 0 -1
    outer loop
      vertex 9.13545 -4.06737 -30.9017
      vertex 9.78148 2.07912 -30.9017
      vertex 9.78148 -2.07912 -30.9017
    endloop
  endfacet
  facet normal 0 0 -1
    outer loop
      vertex 9.13545 -4.06737 -30.9017
      vertex 9.13545 4.06737 -30.9017
      vertex 9.78148 2.07912 -30.9017
    endloop
  endfacet
  facet normal 0 0 -1
    outer loop
      vertex 8.09017 -5.87785 -30.9017
      vertex 9.13545 4.06737 -30.9017
      vertex 9.13545 -4.06737 -30.9017
    endloop
  endfacet
  facet normal 0 0 -1
    outer loop
      vertex 8.09017 -5.87785 -30.9017
      vertex 8.09017 5.87785 -30.9017
      vertex 9.13545 4.06737 -30.9017
    endloop
  endfacet
  facet normal 0 0 -1
    outer loop
      vertex 6.69131 -7.43145 -30.9017
      vertex 8.09017 5.87785 -30.9017
      vertex 8.09017 -5.87785 -30.9017
    endloop
  endfacet
  facet normal 0 0 -1
    outer loop
      vertex 6.69131 -7.43145 -30.9017
      vertex 6.69131 7.43145 -30.9017
      vertex 8.09017 5.87785 -30.9017
    endloop
  endfacet
  facet normal 0 0 -1
    outer loop
      vertex 5 -8.66025 -30.9017
      vertex 6.69131 7.43145 -30.9017
      vertex 6.69131 -7.43145 -30.9017
    endloop
  endfacet
  facet normal 0 0 -1
    outer loop
      vertex 5 -8.66025 -30.9017
      vertex 5 8.66025 -30.9017
      vertex 6.69131 7.43145 -30.9017
    endloop
  endfacet
  facet normal 0 0 -1
    outer loop
      vertex 3.09017 -9.51056 -30.9017
      vertex 5 8.66025 -30.9017
      vertex 5 -8.66025 -30.9017
    endloop
  endfacet
  facet normal 0 0 -1
    outer loop
      vertex 3.09017 -9.51056 -30.9017
      vertex 3.09017 9.51056 -30.9017
      vertex 5 8.66025 -30.9017
    endloop
  endfacet
  facet normal 0 0 -1
    outer loop
      vertex 1.04528 -9.94522 -30.9017
      vertex 3.09017 9.51056 -30.9017
      vertex 3.09017 -9.51056 -30.9017
    endloop
  endfacet
  facet normal 0 0 -1
    outer loop
      vertex 1.04528 -9.94522 -30.9017
      vertex 1.04528 9.94522 -30.9017
      vertex 3.09017 9.51056 -30.9017
    endloop
  endfacet
  facet normal 0 0 -1
    outer loop
      vertex -1.04528 -9.94522 -30.9017
      vertex 1.04528 9.94522 -30.9017
      vertex 1.04528 -9.94522 -30.9017
    endloop
  endfacet
  facet normal 0 0 -1
    outer loop
      vertex -1.04528 -9.94522 -30.9017
      vertex -1.04528 9.94522 -30.9017
      vertex 1.04528 9.94522 -30.9017
    endloop
  endfacet
  facet normal 0 0 -1
    outer loop
      vertex -3.09017 -9.51056 -30.9017
      vertex -1.04528 9.94522 -30.9017
      vertex -1.04528 -9.94522 -30.9017
    endloop
  endfacet
  facet normal 0 0 -1
    outer loop
      vertex -3.09017 -9.51056 -30.9017
      vertex -3.09017 9.51056 -30.9017
      vertex -1.04528 9.94522 -30.9017
    endloop
  endfacet
  facet normal 0 0 -1
    outer loop
      vertex -5 -8.66025 -30.9017
      vertex -3.09017 9.51056 -30.9017
      vertex -3.09017 -9.51056 -30.9017
    endloop
  endfacet
  facet normal 0 0 -1
    outer loop
      vertex -5 -8.66025 -30.9017
      vertex -5 8.66025 -30.9017
      vertex -3.09017 9.51056 -30.9017
    endloop
  endfacet
  facet normal 0 0 -1
    outer loop
      vertex -6.69131 -7.43145 -30.9017
      vertex -5 8.66025 -30.9017
      vertex -5 -8.66025 -30.9017
    endloop
  endfacet
  facet normal 0 0 -1
    outer loop
      vertex -6.69131 -7.43145 -30.9017
      vertex -6.69131 7.43145 -30.9017
      vertex -5 8.66025 -30.9017
    endloop
  endfacet
  facet normal 0 0 -1
    outer loop
      vertex -8.09017 -5.87785 -30.9017
      vertex -6.69131 7.43145 -30.9017
      vertex -6.69131 -7.43145 -30.9017
    endloop
  endfacet
  facet normal 0 0 -1
    outer loop
      vertex -8.09017 -5.87785 -30.9017
      vertex -8.09017 5.87785 -30.9017
      vertex -6.69131 7.43145 -30.9017
    endloop
  endfacet
  facet normal 0 0 -1
    outer loop
      vertex -9.13545 -4.06737 -30.9017
      vertex -8.09017 5.87785 -30.9017
      vertex -8.09017 -5.87785 -30.9017
    endloop
  endfacet
  facet normal 0 0 -1
    outer loop
      vertex -9.13545 -4.06737 -30.9017
      vertex -9.13545 4.06737 -30.9017
      vertex -8.09017 5.87785 -30.9017
    endloop
  endfacet
  facet normal 0 0 -1
    outer loop
      vertex -9.78148 -2.07912 -30.9017
      vertex -9.13545 4.06737 -30.9017
      vertex -9.13545 -4.06737 -30.9017
    endloop
  endfacet
  facet normal 0 0 -1
    outer loop
      vertex -9.78148 -2.07912 -30.9017
      vertex -9.78148 2.07912 -30.9017
      vertex -9.13545 4.06737 -30.9017
    endloop
  endfacet
  facet normal 0 -0 -1
    outer loop
      vertex -9.78148 2.07912 -30.9017
      vertex -9.78148 -2.07912 -30.9017
      vertex -10 1.04917e-15 -30.9017
    endloop
  endfacet
  facet normal -0.587785 -0.809017 -2.02973e-08
    outer loop
      vertex -5 -8.66025 -30.9017
      vertex -5.82701 -8.0594 -10
      vertex -6.69131 -7.43145 -30.9017
    endloop
  endfacet
  facet normal -0.587783 -0.809018 8.08301e-08
    outer loop
      vertex -5.82701 -8.0594 -10
      vertex -5 -8.66025 -30.9017
      vertex -5.62904 -8.20323 -10
    endloop
  endfacet
  facet normal -0.587786 -0.809017 -1.27511e-08
    outer loop
      vertex -5.62904 -8.20323 -10
      vertex -5 -8.66025 -30.9017
      vertex -5 -8.66025 -8.9211
    endloop
  endfacet
  facet normal -0.951057 -0.309017 0
    outer loop
      vertex -9.13545 -4.06737 -30.9017
      vertex -9.78148 -2.07912 -10
      vertex -9.78148 -2.07912 -30.9017
    endloop
  endfacet
  facet normal -0.951057 -0.309017 0
    outer loop
      vertex -9.78148 -2.07912 -10
      vertex -9.13545 -4.06737 -30.9017
      vertex -9.13545 -4.06737 -10
    endloop
  endfacet
  facet normal -0.406737 -0.913545 -8.82356e-09
    outer loop
      vertex -3.09017 -9.51056 -30.9017
      vertex -5 -8.66025 -8.9211
      vertex -5 -8.66025 -30.9017
    endloop
  endfacet
  facet normal -0.406737 -0.913545 -1.15842e-08
    outer loop
      vertex -5 -8.66025 -8.9211
      vertex -3.09017 -9.51056 -30.9017
      vertex -4.17751 -9.02645 -7.61485
    endloop
  endfacet
  facet normal -0.406737 -0.913545 0
    outer loop
      vertex -4.17751 -9.02645 -7.61485
      vertex -3.09017 -9.51056 -30.9017
      vertex -3.09017 -9.51056 -5.88798
    endloop
  endfacet
  facet normal -0.866026 0.5 0
    outer loop
      vertex -9.13545 4.06737 -30.9017
      vertex -8.09017 5.87785 -10
      vertex -8.09017 5.87785 -30.9017
    endloop
  endfacet
  facet normal -0.866026 0.5 0
    outer loop
      vertex -8.09017 5.87785 -10
      vertex -9.13545 4.06737 -30.9017
      vertex -9.13545 4.06737 -10
    endloop
  endfacet
  facet normal -0.406737 0.913545 -1.79119e-08
    outer loop
      vertex -5 8.66025 -30.9017
      vertex -4.06614 9.07604 -10
      vertex -3.09017 9.51056 -30.9017
    endloop
  endfacet
  facet normal -0.406737 0.913545 -9.27902e-09
    outer loop
      vertex -4.06614 9.07604 -10
      vertex -5 8.66025 -30.9017
      vertex -5 8.66025 -10
    endloop
  endfacet
  facet normal 0.587785 0.809017 0
    outer loop
      vertex 5 8.66025 -30.9017
      vertex 6.69131 7.43145 -7.54741
      vertex 6.69131 7.43145 -30.9017
    endloop
  endfacet
  facet normal 0.587785 0.809017 -4.84521e-09
    outer loop
      vertex 6.69131 7.43145 -7.54741
      vertex 5 8.66025 -30.9017
      vertex 6.01713 7.92126 -6.30389
    endloop
  endfacet
  facet normal -0.866026 -0.5 0
    outer loop
      vertex -8.09017 -5.87785 -30.9017
      vertex -9.13545 -4.06737 -10
      vertex -9.13545 -4.06737 -30.9017
    endloop
  endfacet
  facet normal -0.866026 -0.5 0
    outer loop
      vertex -9.13545 -4.06737 -10
      vertex -8.09017 -5.87785 -30.9017
      vertex -8.09017 -5.87785 -10
    endloop
  endfacet
  facet normal -0.587785 -0.809017 0
    outer loop
      vertex -6.69131 -7.43145 -30.9017
      vertex -5.82701 -8.0594 -10
      vertex -6.69131 -7.43145 -10
    endloop
  endfacet
  facet normal -0.994522 -0.104529 -0
    outer loop
      vertex -9.78148 -2.07912 -10
      vertex -9.89315 -1.01664 -10
      vertex -9.78148 -2.07912 -30.9017
    endloop
  endfacet
  facet normal -0.994522 -0.104529 -4.53767e-08
    outer loop
      vertex -10 1.04917e-15 -30.9017
      vertex -9.89315 -1.01664 -10
      vertex -10 5.71634e-16 -10
    endloop
  endfacet
  facet normal -0.994522 -0.104528 -3.35866e-08
    outer loop
      vertex -9.89315 -1.01664 -10
      vertex -10 1.04917e-15 -30.9017
      vertex -9.78148 -2.07912 -30.9017
    endloop
  endfacet
  facet normal -0 0 1
    outer loop
      vertex -1.04528 9.94522 -10
      vertex -1.06039 5.83333 -10
      vertex 0.277951 9.94522 -10
    endloop
  endfacet
  facet normal -0 0 1
    outer loop
      vertex -3.09017 9.51056 -10
      vertex -1.06039 5.83333 -10
      vertex -1.04528 9.94522 -10
    endloop
  endfacet
  facet normal -0 0 1
    outer loop
      vertex -4.06614 9.07604 -10
      vertex -1.06039 5.83333 -10
      vertex -3.09017 9.51056 -10
    endloop
  endfacet
  facet normal 0 0 1
    outer loop
      vertex -5 5.83333 -10
      vertex -4.06614 9.07604 -10
      vertex -5 8.66025 -10
    endloop
  endfacet
  facet normal 0 0 1
    outer loop
      vertex -4.06614 9.07604 -10
      vertex -5 5.83333 -10
      vertex -1.06039 5.83333 -10
    endloop
  endfacet
  facet normal -0 0 1
    outer loop
      vertex -5.82701 8.0594 -10
      vertex -5 5.83333 -10
      vertex -5 8.66025 -10
    endloop
  endfacet
  facet normal -0 0 1
    outer loop
      vertex -6.69131 7.43145 -10
      vertex -5 5.83333 -10
      vertex -5.82701 8.0594 -10
    endloop
  endfacet
  facet normal -0 0 1
    outer loop
      vertex -8.09017 5.87785 -10
      vertex -5 5.83333 -10
      vertex -6.69131 7.43145 -10
    endloop
  endfacet
  facet normal 0 0 1
    outer loop
      vertex -5 0.833333 -10
      vertex -5.82701 -8.0594 -10
      vertex -5.62904 -8.20323 -10
    endloop
  endfacet
  facet normal 0 0 1
    outer loop
      vertex -9.13545 4.06737 -10
      vertex -5 5.83333 -10
      vertex -8.09017 5.87785 -10
    endloop
  endfacet
  facet normal 0 0 1
    outer loop
      vertex -10 5.71634e-16 -10
      vertex -5 0.833333 -10
      vertex -9.89315 1.01664 -10
    endloop
  endfacet
  facet normal 0 0 1
    outer loop
      vertex -5 5.83333 -10
      vertex -9.13545 4.06737 -10
      vertex -5 0.833333 -10
    endloop
  endfacet
  facet normal 0 -0 1
    outer loop
      vertex -9.78148 -2.07912 -10
      vertex -5 0.833333 -10
      vertex -9.89315 -1.01664 -10
    endloop
  endfacet
  facet normal -0 0 1
    outer loop
      vertex -9.78148 2.07912 -10
      vertex -5 0.833333 -10
      vertex -9.13545 4.06737 -10
    endloop
  endfacet
  facet normal 0 -0 1
    outer loop
      vertex -6.69131 -7.43145 -10
      vertex -5 0.833333 -10
      vertex -8.09017 -5.87785 -10
    endloop
  endfacet
  facet normal 0 0 1
    outer loop
      vertex -5 0.833333 -10
      vertex -9.78148 2.07912 -10
      vertex -9.89315 1.01664 -10
    endloop
  endfacet
  facet normal 0 0 1
    outer loop
      vertex -5 0.833333 -10
      vertex -6.69131 -7.43145 -10
      vertex -5.82701 -8.0594 -10
    endloop
  endfacet
  facet normal 0 0 1
    outer loop
      vertex -5 0.833333 -10
      vertex -9.13545 -4.06737 -10
      vertex -8.09017 -5.87785 -10
    endloop
  endfacet
  facet normal 0 0 1
    outer loop
      vertex -5 0.833333 -10
      vertex -9.78148 -2.07912 -10
      vertex -9.13545 -4.06737 -10
    endloop
  endfacet
  facet normal 0 0 1
    outer loop
      vertex -5 0.833333 -10
      vertex -10 5.71634e-16 -10
      vertex -9.89315 -1.01664 -10
    endloop
  endfacet
  facet normal 0 0 1
    outer loop
      vertex -2.6878 0.833333 -10
      vertex -5 0.833333 -10
      vertex -5.62904 -8.20323 -10
    endloop
  endfacet
  facet normal 0 0 -1
    outer loop
      vertex 1.24947 -0.578247 -25.9017
      vertex -0.331512 0.0347443 -25.9017
      vertex 1.24947 0.0347443 -25.9017
    endloop
  endfacet
  facet normal 0 0 -1
    outer loop
      vertex -0.439514 -0.578247 -25.9017
      vertex -0.331512 0.0347443 -25.9017
      vertex 1.24947 -0.578247 -25.9017
    endloop
  endfacet
  facet normal 0 0 -1
    outer loop
      vertex -1.00641 -0.525024 -25.9017
      vertex -0.331512 0.0347443 -25.9017
      vertex -0.439514 -0.578247 -25.9017
    endloop
  endfacet
  facet normal 0 0 -1
    outer loop
      vertex -1.00641 -0.525024 -25.9017
      vertex -1.05763 0.162415 -25.9017
      vertex -0.331512 0.0347443 -25.9017
    endloop
  endfacet
  facet normal 0 0 -1
    outer loop
      vertex -1.4884 -0.365356 -25.9017
      vertex -1.05763 0.162415 -25.9017
      vertex -1.00641 -0.525024 -25.9017
    endloop
  endfacet
  facet normal 0 0 -1
    outer loop
      vertex -1.88551 -0.0992432 -25.9017
      vertex -1.05763 0.162415 -25.9017
      vertex -1.4884 -0.365356 -25.9017
    endloop
  endfacet
  facet normal -0 0 -1
    outer loop
      vertex -1.05763 0.162415 -25.9017
      vertex -1.88551 -0.0992432 -25.9017
      vertex -1.4933 0.54541 -25.9017
    endloop
  endfacet
  facet normal 0 0 -1
    outer loop
      vertex -2.18163 0.257629 -25.9017
      vertex -1.4933 0.54541 -25.9017
      vertex -1.88551 -0.0992432 -25.9017
    endloop
  endfacet
  facet normal 0 0 -1
    outer loop
      vertex 1.24947 -0.578247 -25.9017
      vertex 2.02446 -2.78125 -25.9017
      vertex 1.24947 -2.78125 -25.9017
    endloop
  endfacet
  facet normal 0 0 -1
    outer loop
      vertex 1.24947 0.0347443 -25.9017
      vertex 2.02446 -2.78125 -25.9017
      vertex 1.24947 -0.578247 -25.9017
    endloop
  endfacet
  facet normal 0 0 -1
    outer loop
      vertex 2.02446 -2.78125 -25.9017
      vertex 1.24947 0.0347443 -25.9017
      vertex 2.02446 2.91475 -25.9017
    endloop
  endfacet
  facet normal 0 0 -1
    outer loop
      vertex 1.24947 2.29274 -25.9017
      vertex 2.02446 2.91475 -25.9017
      vertex 1.24947 0.0347443 -25.9017
    endloop
  endfacet
  facet normal 0 0 -1
    outer loop
      vertex -0.392517 2.91475 -25.9017
      vertex 1.24947 2.29274 -25.9017
      vertex -0.298523 2.29274 -25.9017
    endloop
  endfacet
  facet normal 0 0 -1
    outer loop
      vertex 1.24947 2.29274 -25.9017
      vertex -0.392517 2.91475 -25.9017
      vertex 2.02446 2.91475 -25.9017
    endloop
  endfacet
  facet normal 0 0 -1
    outer loop
      vertex -0.298523 2.29274 -25.9017
      vertex -0.988083 2.86462 -25.9017
      vertex -0.392517 2.91475 -25.9017
    endloop
  endfacet
  facet normal 0 0 -1
    outer loop
      vertex -1.04297 2.16953 -25.9017
      vertex -0.988083 2.86462 -25.9017
      vertex -0.298523 2.29274 -25.9017
    endloop
  endfacet
  facet normal 0 0 -1
    outer loop
      vertex -1.04297 2.16953 -25.9017
      vertex -1.48674 2.71429 -25.9017
      vertex -0.988083 2.86462 -25.9017
    endloop
  endfacet
  facet normal 0 0 -1
    outer loop
      vertex -1.88852 2.46375 -25.9017
      vertex -1.04297 2.16953 -25.9017
      vertex -1.48962 1.79985 -25.9017
    endloop
  endfacet
  facet normal 0 0 -1
    outer loop
      vertex -2.35963 1.69841 -25.9017
      vertex -1.48962 1.79985 -25.9017
      vertex -1.63852 1.18375 -25.9017
    endloop
  endfacet
  facet normal 0 0 -1
    outer loop
      vertex -2.3593 0.688293 -25.9017
      vertex -1.4933 0.54541 -25.9017
      vertex -2.18163 0.257629 -25.9017
    endloop
  endfacet
  facet normal 0 -0 -1
    outer loop
      vertex -2.35963 1.69841 -25.9017
      vertex -1.63852 1.18375 -25.9017
      vertex -2.41852 1.19275 -25.9017
    endloop
  endfacet
  facet normal 0 0 -1
    outer loop
      vertex -1.4933 0.54541 -25.9017
      vertex -2.3593 0.688293 -25.9017
      vertex -1.63852 1.18375 -25.9017
    endloop
  endfacet
  facet normal -0 0 -1
    outer loop
      vertex -1.48962 1.79985 -25.9017
      vertex -2.35963 1.69841 -25.9017
      vertex -2.18297 2.12207 -25.9017
    endloop
  endfacet
  facet normal -0 0 -1
    outer loop
      vertex -1.63852 1.18375 -25.9017
      vertex -2.3593 0.688293 -25.9017
      vertex -2.41852 1.19275 -25.9017
    endloop
  endfacet
  facet normal 0 0 -1
    outer loop
      vertex -1.04297 2.16953 -25.9017
      vertex -1.88852 2.46375 -25.9017
      vertex -1.48674 2.71429 -25.9017
    endloop
  endfacet
  facet normal 0 0 -1
    outer loop
      vertex -1.48962 1.79985 -25.9017
      vertex -2.18297 2.12207 -25.9017
      vertex -1.88852 2.46375 -25.9017
    endloop
  endfacet
  facet normal -0 0 1
    outer loop
      vertex -0.331511 0.0347443 -30.9017
      vertex 1.24947 -0.578247 -30.9017
      vertex 1.24947 0.0347443 -30.9017
    endloop
  endfacet
  facet normal 0 0 1
    outer loop
      vertex -0.331511 0.0347443 -30.9017
      vertex -0.439513 -0.578247 -30.9017
      vertex 1.24947 -0.578247 -30.9017
    endloop
  endfacet
  facet normal 0 0 1
    outer loop
      vertex -0.331511 0.0347443 -30.9017
      vertex -1.00641 -0.525024 -30.9017
      vertex -0.439513 -0.578247 -30.9017
    endloop
  endfacet
  facet normal 0 0 1
    outer loop
      vertex -1.05763 0.162415 -30.9017
      vertex -1.00641 -0.525024 -30.9017
      vertex -0.331511 0.0347443 -30.9017
    endloop
  endfacet
  facet normal 0 0 1
    outer loop
      vertex -1.05763 0.162415 -30.9017
      vertex -1.4884 -0.365356 -30.9017
      vertex -1.00641 -0.525024 -30.9017
    endloop
  endfacet
  facet normal 0 0 1
    outer loop
      vertex -1.88551 -0.0992432 -30.9017
      vertex -1.05763 0.162415 -30.9017
      vertex -1.4933 0.54541 -30.9017
    endloop
  endfacet
  facet normal -0 0 1
    outer loop
      vertex -2.3593 0.688293 -30.9017
      vertex -1.4933 0.54541 -30.9017
      vertex -1.63852 1.18375 -30.9017
    endloop
  endfacet
  facet normal 0 0 1
    outer loop
      vertex -1.05763 0.162415 -30.9017
      vertex -1.88551 -0.0992432 -30.9017
      vertex -1.4884 -0.365356 -30.9017
    endloop
  endfacet
  facet normal 0 0 1
    outer loop
      vertex 1.24947 0.0347443 -30.9017
      vertex 2.02446 2.91475 -30.9017
      vertex 1.24947 2.29274 -30.9017
    endloop
  endfacet
  facet normal -0 0 1
    outer loop
      vertex -0.392516 2.91475 -30.9017
      vertex 1.24947 2.29274 -30.9017
      vertex 2.02446 2.91475 -30.9017
    endloop
  endfacet
  facet normal 0 0 1
    outer loop
      vertex 1.24947 2.29274 -30.9017
      vertex -0.392516 2.91475 -30.9017
      vertex -0.298522 2.29274 -30.9017
    endloop
  endfacet
  facet normal -0 0 1
    outer loop
      vertex -0.988082 2.86462 -30.9017
      vertex -0.298522 2.29274 -30.9017
      vertex -0.392516 2.91475 -30.9017
    endloop
  endfacet
  facet normal 0 0 1
    outer loop
      vertex -0.988082 2.86462 -30.9017
      vertex -1.04297 2.16953 -30.9017
      vertex -0.298522 2.29274 -30.9017
    endloop
  endfacet
  facet normal -0 0 1
    outer loop
      vertex -1.48674 2.71429 -30.9017
      vertex -1.04297 2.16953 -30.9017
      vertex -0.988082 2.86462 -30.9017
    endloop
  endfacet
  facet normal -0 0 1
    outer loop
      vertex -1.88852 2.46375 -30.9017
      vertex -1.04297 2.16953 -30.9017
      vertex -1.48674 2.71429 -30.9017
    endloop
  endfacet
  facet normal 0 0 1
    outer loop
      vertex -1.04297 2.16953 -30.9017
      vertex -1.88852 2.46375 -30.9017
      vertex -1.48962 1.79985 -30.9017
    endloop
  endfacet
  facet normal -0 0 1
    outer loop
      vertex -2.18297 2.12207 -30.9017
      vertex -1.48962 1.79985 -30.9017
      vertex -1.88852 2.46375 -30.9017
    endloop
  endfacet
  facet normal 0 0 1
    outer loop
      vertex -2.35963 1.69841 -30.9017
      vertex -1.48962 1.79985 -30.9017
      vertex -2.18297 2.12207 -30.9017
    endloop
  endfacet
  facet normal 0 -0 1
    outer loop
      vertex -2.3593 0.688293 -30.9017
      vertex -1.63852 1.18375 -30.9017
      vertex -2.41852 1.19275 -30.9017
    endloop
  endfacet
  facet normal 0 0 1
    outer loop
      vertex -1.48962 1.79985 -30.9017
      vertex -2.35963 1.69841 -30.9017
      vertex -1.63852 1.18375 -30.9017
    endloop
  endfacet
  facet normal 0 0 1
    outer loop
      vertex -1.4933 0.54541 -30.9017
      vertex -2.3593 0.688293 -30.9017
      vertex -2.18162 0.257629 -30.9017
    endloop
  endfacet
  facet normal 0 0 1
    outer loop
      vertex -1.63852 1.18375 -30.9017
      vertex -2.35963 1.69841 -30.9017
      vertex -2.41852 1.19275 -30.9017
    endloop
  endfacet
  facet normal 0 0 1
    outer loop
      vertex -1.4933 0.54541 -30.9017
      vertex -2.18162 0.257629 -30.9017
      vertex -1.88551 -0.0992432 -30.9017
    endloop
  endfacet
  facet normal 0 0 1
    outer loop
      vertex 2.02446 2.91475 -30.9017
      vertex 1.24947 0.0347443 -30.9017
      vertex 2.02446 -2.78125 -30.9017
    endloop
  endfacet
  facet normal -0 0 1
    outer loop
      vertex 1.24947 -0.578247 -30.9017
      vertex 2.02446 -2.78125 -30.9017
      vertex 1.24947 0.0347443 -30.9017
    endloop
  endfacet
  facet normal 0 0 1
    outer loop
      vertex 2.02446 -2.78125 -30.9017
      vertex 1.24947 -0.578247 -30.9017
      vertex 1.24947 -2.78125 -30.9017
    endloop
  endfacet
  facet normal 0 1 -0
    outer loop
      vertex 1.24947 -0.578247 -30.9017
      vertex -0.439514 -0.578247 -25.9017
      vertex 1.24947 -0.578247 -25.9017
    endloop
  endfacet
  facet normal 0 1 0
    outer loop
      vertex -0.439514 -0.578247 -25.9017
      vertex 1.24947 -0.578247 -30.9017
      vertex -0.439513 -0.578247 -30.9017
    endloop
  endfacet
  facet normal 0.0934735 0.995622 1.78287e-08
    outer loop
      vertex -0.439513 -0.578247 -30.9017
      vertex -1.00641 -0.525024 -25.9017
      vertex -0.439514 -0.578247 -25.9017
    endloop
  endfacet
  facet normal 0.0934735 0.995622 1.78287e-08
    outer loop
      vertex -1.00641 -0.525024 -25.9017
      vertex -0.439513 -0.578247 -30.9017
      vertex -1.00641 -0.525024 -30.9017
    endloop
  endfacet
  facet normal 0.31446 0.949271 5.99785e-08
    outer loop
      vertex -1.00641 -0.525024 -30.9017
      vertex -1.4884 -0.365356 -25.9017
      vertex -1.00641 -0.525024 -25.9017
    endloop
  endfacet
  facet normal 0.31446 0.949271 5.99785e-08
    outer loop
      vertex -1.4884 -0.365356 -25.9017
      vertex -1.00641 -0.525024 -30.9017
      vertex -1.4884 -0.365356 -30.9017
    endloop
  endfacet
  facet normal 0.556687 0.830722 1.0618e-07
    outer loop
      vertex -1.4884 -0.365356 -30.9017
      vertex -1.88551 -0.0992432 -25.9017
      vertex -1.4884 -0.365356 -25.9017
    endloop
  endfacet
  facet normal 0.556687 0.830722 1.0618e-07
    outer loop
      vertex -1.88551 -0.0992432 -25.9017
      vertex -1.4884 -0.365356 -30.9017
      vertex -1.88551 -0.0992432 -30.9017
    endloop
  endfacet
  facet normal 0.769579 0.638552 1.46786e-07
    outer loop
      vertex -1.88551 -0.0992432 -25.9017
      vertex -2.18162 0.257629 -30.9017
      vertex -2.18163 0.257629 -25.9017
    endloop
  endfacet
  facet normal 0.769579 0.638552 1.46786e-07
    outer loop
      vertex -2.18162 0.257629 -30.9017
      vertex -1.88551 -0.0992432 -25.9017
      vertex -1.88551 -0.0992432 -30.9017
    endloop
  endfacet
  facet normal 0.92442 0.381376 1.76319e-07
    outer loop
      vertex -2.18163 0.257629 -25.9017
      vertex -2.3593 0.688293 -30.9017
      vertex -2.3593 0.688293 -25.9017
    endloop
  endfacet
  facet normal 0.92442 0.381376 1.76319e-07
    outer loop
      vertex -2.3593 0.688293 -30.9017
      vertex -2.18163 0.257629 -25.9017
      vertex -2.18162 0.257629 -30.9017
    endloop
  endfacet
  facet normal 0.99318 0.116592 1.89434e-07
    outer loop
      vertex -2.3593 0.688293 -25.9017
      vertex -2.41852 1.19275 -30.9017
      vertex -2.41852 1.19275 -25.9017
    endloop
  endfacet
  facet normal 0.99318 0.116592 1.89434e-07
    outer loop
      vertex -2.41852 1.19275 -30.9017
      vertex -2.3593 0.688293 -25.9017
      vertex -2.3593 0.688293 -30.9017
    endloop
  endfacet
  facet normal 0.993288 -0.115667 1.89455e-07
    outer loop
      vertex -2.41852 1.19275 -25.9017
      vertex -2.35963 1.69841 -30.9017
      vertex -2.35963 1.69841 -25.9017
    endloop
  endfacet
  facet normal 0.993288 -0.115667 1.89455e-07
    outer loop
      vertex -2.35963 1.69841 -30.9017
      vertex -2.41852 1.19275 -25.9017
      vertex -2.41852 1.19275 -30.9017
    endloop
  endfacet
  facet normal 0.922968 -0.384877 1.76042e-07
    outer loop
      vertex -2.35963 1.69841 -25.9017
      vertex -2.18297 2.12207 -30.9017
      vertex -2.18297 2.12207 -25.9017
    endloop
  endfacet
  facet normal 0.922968 -0.384877 1.76042e-07
    outer loop
      vertex -2.18297 2.12207 -30.9017
      vertex -2.35963 1.69841 -25.9017
      vertex -2.35963 1.69841 -30.9017
    endloop
  endfacet
  facet normal 0.757518 -0.652814 1.44485e-07
    outer loop
      vertex -2.18297 2.12207 -25.9017
      vertex -1.88852 2.46375 -30.9017
      vertex -1.88852 2.46375 -25.9017
    endloop
  endfacet
  facet normal 0.757518 -0.652814 1.44485e-07
    outer loop
      vertex -1.88852 2.46375 -30.9017
      vertex -2.18297 2.12207 -25.9017
      vertex -2.18297 2.12207 -30.9017
    endloop
  endfacet
  facet normal 0.529144 -0.848532 1.00926e-07
    outer loop
      vertex -1.88852 2.46375 -30.9017
      vertex -1.48674 2.71429 -25.9017
      vertex -1.88852 2.46375 -25.9017
    endloop
  endfacet
  facet normal 0.529144 -0.848532 1.00926e-07
    outer loop
      vertex -1.48674 2.71429 -25.9017
      vertex -1.88852 2.46375 -30.9017
      vertex -1.48674 2.71429 -30.9017
    endloop
  endfacet
  facet normal 0.288638 -0.957438 5.50533e-08
    outer loop
      vertex -1.48674 2.71429 -30.9017
      vertex -0.988083 2.86462 -25.9017
      vertex -1.48674 2.71429 -25.9017
    endloop
  endfacet
  facet normal 0.288638 -0.957438 5.50533e-08
    outer loop
      vertex -0.988083 2.86462 -25.9017
      vertex -1.48674 2.71429 -30.9017
      vertex -0.988082 2.86462 -30.9017
    endloop
  endfacet
  facet normal 0.0838674 -0.996477 1.59964e-08
    outer loop
      vertex -0.988082 2.86462 -30.9017
      vertex -0.392517 2.91475 -25.9017
      vertex -0.988083 2.86462 -25.9017
    endloop
  endfacet
  facet normal 0.0838674 -0.996477 1.59964e-08
    outer loop
      vertex -0.392517 2.91475 -25.9017
      vertex -0.988082 2.86462 -30.9017
      vertex -0.392516 2.91475 -30.9017
    endloop
  endfacet
  facet normal 0 -1 0
    outer loop
      vertex -0.392516 2.91475 -30.9017
      vertex 2.02446 2.91475 -25.9017
      vertex -0.392517 2.91475 -25.9017
    endloop
  endfacet
  facet normal 0 -1 -0
    outer loop
      vertex 2.02446 2.91475 -25.9017
      vertex -0.392516 2.91475 -30.9017
      vertex 2.02446 2.91475 -30.9017
    endloop
  endfacet
  facet normal -1 0 0
    outer loop
      vertex 2.02446 -2.78125 -30.9017
      vertex 2.02446 2.91475 -25.9017
      vertex 2.02446 2.91475 -30.9017
    endloop
  endfacet
  facet normal -1 -0 0
    outer loop
      vertex 2.02446 2.91475 -25.9017
      vertex 2.02446 -2.78125 -30.9017
      vertex 2.02446 -2.78125 -25.9017
    endloop
  endfacet
  facet normal 0 1 -0
    outer loop
      vertex 2.02446 -2.78125 -30.9017
      vertex 1.24947 -2.78125 -25.9017
      vertex 2.02446 -2.78125 -25.9017
    endloop
  endfacet
  facet normal 0 1 0
    outer loop
      vertex 1.24947 -2.78125 -25.9017
      vertex 2.02446 -2.78125 -30.9017
      vertex 1.24947 -2.78125 -30.9017
    endloop
  endfacet
  facet normal 1 -0 0
    outer loop
      vertex 1.24947 -2.78125 -25.9017
      vertex 1.24947 -0.578247 -30.9017
      vertex 1.24947 -0.578247 -25.9017
    endloop
  endfacet
  facet normal 1 0 0
    outer loop
      vertex 1.24947 -0.578247 -30.9017
      vertex 1.24947 -2.78125 -25.9017
      vertex 1.24947 -2.78125 -30.9017
    endloop
  endfacet
  facet normal 1 -0 0
    outer loop
      vertex 1.24947 0.0347443 -25.9017
      vertex 1.24947 2.29274 -30.9017
      vertex 1.24947 2.29274 -25.9017
    endloop
  endfacet
  facet normal 1 0 0
    outer loop
      vertex 1.24947 2.29274 -30.9017
      vertex 1.24947 0.0347443 -25.9017
      vertex 1.24947 0.0347443 -30.9017
    endloop
  endfacet
  facet normal 0 1 -0
    outer loop
      vertex 1.24947 2.29274 -30.9017
      vertex -0.298523 2.29274 -25.9017
      vertex 1.24947 2.29274 -25.9017
    endloop
  endfacet
  facet normal 0 1 0
    outer loop
      vertex -0.298523 2.29274 -25.9017
      vertex 1.24947 2.29274 -30.9017
      vertex -0.298522 2.29274 -30.9017
    endloop
  endfacet
  facet normal -0.163291 0.986578 -3.11452e-08
    outer loop
      vertex -0.298522 2.29274 -30.9017
      vertex -1.04297 2.16953 -25.9017
      vertex -0.298523 2.29274 -25.9017
    endloop
  endfacet
  facet normal -0.163291 0.986578 -3.11452e-08
    outer loop
      vertex -1.04297 2.16953 -25.9017
      vertex -0.298522 2.29274 -30.9017
      vertex -1.04297 2.16953 -30.9017
    endloop
  endfacet
  facet normal -0.637597 0.77037 -1.21612e-07
    outer loop
      vertex -1.04297 2.16953 -30.9017
      vertex -1.48962 1.79985 -25.9017
      vertex -1.04297 2.16953 -25.9017
    endloop
  endfacet
  facet normal -0.637597 0.77037 -1.21612e-07
    outer loop
      vertex -1.48962 1.79985 -25.9017
      vertex -1.04297 2.16953 -30.9017
      vertex -1.48962 1.79985 -30.9017
    endloop
  endfacet
  facet normal -0.972017 0.23491 -1.85398e-07
    outer loop
      vertex -1.63852 1.18375 -30.9017
      vertex -1.48962 1.79985 -25.9017
      vertex -1.48962 1.79985 -30.9017
    endloop
  endfacet
  facet normal -0.972017 0.23491 -1.85398e-07
    outer loop
      vertex -1.48962 1.79985 -25.9017
      vertex -1.63852 1.18375 -30.9017
      vertex -1.63852 1.18375 -25.9017
    endloop
  endfacet
  facet normal -0.975086 -0.221827 -1.85983e-07
    outer loop
      vertex -1.4933 0.54541 -30.9017
      vertex -1.63852 1.18375 -25.9017
      vertex -1.63852 1.18375 -30.9017
    endloop
  endfacet
  facet normal -0.975086 -0.221827 -1.85983e-07
    outer loop
      vertex -1.63852 1.18375 -25.9017
      vertex -1.4933 0.54541 -30.9017
      vertex -1.4933 0.54541 -25.9017
    endloop
  endfacet
  facet normal -0.660246 -0.751049 -1.25932e-07
    outer loop
      vertex -1.4933 0.54541 -30.9017
      vertex -1.05763 0.162415 -25.9017
      vertex -1.4933 0.54541 -25.9017
    endloop
  endfacet
  facet normal -0.660246 -0.751049 -1.25932e-07
    outer loop
      vertex -1.05763 0.162415 -25.9017
      vertex -1.4933 0.54541 -30.9017
      vertex -1.05763 0.162415 -30.9017
    endloop
  endfacet
  facet normal -0.173169 -0.984892 -3.30294e-08
    outer loop
      vertex -1.05763 0.162415 -30.9017
      vertex -0.331512 0.0347443 -25.9017
      vertex -1.05763 0.162415 -25.9017
    endloop
  endfacet
  facet normal -0.173169 -0.984892 -3.30294e-08
    outer loop
      vertex -0.331512 0.0347443 -25.9017
      vertex -1.05763 0.162415 -30.9017
      vertex -0.331511 0.0347443 -30.9017
    endloop
  endfacet
  facet normal 0 -1 0
    outer loop
      vertex -0.331511 0.0347443 -30.9017
      vertex 1.24947 0.0347443 -25.9017
      vertex -0.331512 0.0347443 -25.9017
    endloop
  endfacet
  facet normal 0 -1 -0
    outer loop
      vertex 1.24947 0.0347443 -25.9017
      vertex -0.331511 0.0347443 -30.9017
      vertex 1.24947 0.0347443 -30.9017
    endloop
  endfacet
  facet normal 0.502354 -0.273434 0.820289
    outer loop
      vertex 6.8978 -0.780689 -16.6086
      vertex 9.89143 -1.033 -18.526
      vertex 7.14911 -0.140428 -16.549
    endloop
  endfacet
  facet normal 0.502354 -0.273435 0.820289
    outer loop
      vertex 9.89143 -1.033 -18.526
      vertex 6.8978 -0.780689 -16.6086
      vertex 9.83981 -1.5241 -18.6581
    endloop
  endfacet
  facet normal 0.502354 -0.273432 0.820289
    outer loop
      vertex 6.8978 -0.780689 -16.6086
      vertex 9.78148 -2.07912 -18.8074
      vertex 9.83981 -1.5241 -18.6581
    endloop
  endfacet
  facet normal 0.502354 -0.273433 0.820289
    outer loop
      vertex 6.38813 -2.07922 -16.7293
      vertex 9.78148 -2.07912 -18.8074
      vertex 6.8978 -0.780689 -16.6086
    endloop
  endfacet
  facet normal 0.502354 -0.273433 0.820289
    outer loop
      vertex 9.78148 -2.07912 -18.8074
      vertex 6.38813 -2.07922 -16.7293
      vertex 9.4569 -3.07805 -18.9416
    endloop
  endfacet
  facet normal 0.415696 -0.460275 0.784439
    outer loop
      vertex -1.03847 4.61539 -9.4197
      vertex 7.35289 0.235858 -16.4362
      vertex 9.88872 1.05879 -17.2972
    endloop
  endfacet
  facet normal 0.415696 -0.460275 0.784439
    outer loop
      vertex 7.35289 0.235858 -16.4362
      vertex -1.03847 4.61539 -9.4197
      vertex -1.79738 3.2141 -9.83975
    endloop
  endfacet
  facet normal 0.415696 -0.460275 0.784439
    outer loop
      vertex 7.35289 0.235858 -16.4362
      vertex 10 6.75605e-17 -17.9774
      vertex 9.88872 1.05879 -17.2972
    endloop
  endfacet
  facet normal 0.415696 -0.460274 0.784439
    outer loop
      vertex 10 6.75605e-17 -17.9774
      vertex 7.35289 0.235858 -16.4362
      vertex 9.89143 -1.033 -18.526
    endloop
  endfacet
  facet normal 0.415696 -0.460274 0.784439
    outer loop
      vertex 9.89143 -1.033 -18.526
      vertex 7.35289 0.235858 -16.4362
      vertex 7.14911 -0.140428 -16.549
    endloop
  endfacet
  facet normal -0.190953 -0.966504 0.171487
    outer loop
      vertex 3.89645 8.73343 -4.43351
      vertex 5 8.66025 -3.61711
      vertex 4.74952 8.77177 -3.26749
    endloop
  endfacet
  facet normal -0.190953 -0.966504 0.171487
    outer loop
      vertex 5 8.66025 -3.61711
      vertex 3.89645 8.73343 -4.43351
      vertex 5.71313 8.14213 -5.74316
    endloop
  endfacet
  facet normal 0.60665 0.506228 0.612951
    outer loop
      vertex 5.80938 -8.07221 -15.308
      vertex 3.98492 -9.1122 -12.6434
      vertex 5 -8.66025 -14.0213
    endloop
  endfacet
  facet normal 0.606649 0.506229 0.612951
    outer loop
      vertex -3.55452 -5.02443 -8.55755
      vertex 3.98492 -9.1122 -12.6434
      vertex 5.80938 -8.07221 -15.308
    endloop
  endfacet
  facet normal 0.606649 0.506229 0.612951
    outer loop
      vertex 3.98492 -9.1122 -12.6434
      vertex -3.55452 -5.02443 -8.55755
      vertex -3.28326 -6.74654 -7.40375
    endloop
  endfacet
  facet normal 0.192456 -0.766323 0.612951
    outer loop
      vertex 8.5849 5.02095 -12.6434
      vertex 1.00773 7.0776 -7.69299
      vertex 0.0838728 6.15406 -8.55755
    endloop
  endfacet
  facet normal 0.192457 -0.766323 0.612952
    outer loop
      vertex 1.00773 7.0776 -7.69299
      vertex 8.5849 5.02095 -12.6434
      vertex 1.31681 7.38658 -7.40375
    endloop
  endfacet
  facet normal 0.192456 -0.766323 0.612952
    outer loop
      vertex 0.0838728 6.15406 -8.55755
      vertex 9.13545 4.06737 -14.0084
      vertex 8.5849 5.02095 -12.6434
    endloop
  endfacet
  facet normal 0.192456 -0.766323 0.612951
    outer loop
      vertex 9.13545 4.06737 -14.0084
      vertex 0.0838728 6.15406 -8.55755
      vertex 9.44772 3.1063 -15.308
    endloop
  endfacet
  facet normal 0.0656324 -0.872154 0.48481
    outer loop
      vertex 1.31681 7.38658 -7.40375
      vertex 8.19286 5.69998 -11.3687
      vertex 2.14579 7.94742 -6.50705
    endloop
  endfacet
  facet normal 0.0656324 -0.872154 0.48481
    outer loop
      vertex 8.19286 5.69998 -11.3687
      vertex 1.31681 7.38658 -7.40375
      vertex 8.5849 5.02095 -12.6434
    endloop
  endfacet
  facet normal 0.0656326 -0.872153 0.48481
    outer loop
      vertex 2.14579 7.94742 -6.50705
      vertex 7.33058 6.72147 -9.41439
      vertex 2.60646 8.25908 -6.00875
    endloop
  endfacet
  facet normal 0.0656323 -0.872154 0.48481
    outer loop
      vertex 2.14579 7.94742 -6.50705
      vertex 8.09017 5.87785 -11.0349
      vertex 7.33058 6.72147 -9.41439
    endloop
  endfacet
  facet normal 0.0656331 -0.872153 0.48481
    outer loop
      vertex 8.09017 5.87785 -11.0349
      vertex 2.14579 7.94742 -6.50705
      vertex 8.19286 5.69998 -11.3687
    endloop
  endfacet
  facet normal -0.0640599 -0.939867 0.33548
    outer loop
      vertex 3.06725 8.42852 -5.44606
      vertex 5.71313 8.14213 -5.74316
      vertex 3.89645 8.73343 -4.43351
    endloop
  endfacet
  facet normal -0.0640599 -0.939867 0.33548
    outer loop
      vertex 3.06725 8.42852 -5.44606
      vertex 6.01713 7.92126 -6.30389
      vertex 5.71313 8.14213 -5.74316
    endloop
  endfacet
  facet normal -0.06406 -0.939867 0.33548
    outer loop
      vertex 3.06725 8.42852 -5.44606
      vertex 6.69131 7.43145 -7.54741
      vertex 6.01713 7.92126 -6.30389
    endloop
  endfacet
  facet normal -0.0640606 -0.939867 0.335479
    outer loop
      vertex 6.69131 7.43145 -7.54741
      vertex 3.06725 8.42852 -5.44606
      vertex 6.7852 7.32717 -7.82162
    endloop
  endfacet
  facet normal 0.414521 0.893736 0.171487
    outer loop
      vertex -1.04528 -9.94522 -3.63598
      vertex -1.99059 -9.35375 -4.43351
      vertex -1.32488 -9.88579 -3.26986
    endloop
  endfacet
  facet normal 0.414521 0.893736 0.171487
    outer loop
      vertex -1.99059 -9.35375 -4.43351
      vertex -1.04528 -9.94522 -3.63598
      vertex -0.173387 -9.94522 -5.74354
    endloop
  endfacet
  facet normal 0.566414 0.666434 0.48481
    outer loop
      vertex 1.97006 -9.74865 -9.41452
      vertex -2.94321 -7.68787 -6.50705
      vertex -2.75424 -8.21098 -6.00875
    endloop
  endfacet
  facet normal 0.566414 0.666434 0.48481
    outer loop
      vertex 3.09017 -9.51056 -11.0505
      vertex -2.94321 -7.68787 -6.50705
      vertex 1.97006 -9.74865 -9.41452
    endloop
  endfacet
  facet normal 0.566414 0.666434 0.48481
    outer loop
      vertex -2.94321 -7.68787 -6.50705
      vertex 3.09017 -9.51056 -11.0505
      vertex 3.26951 -9.43072 -11.3698
    endloop
  endfacet
  facet normal 0.606978 0.127413 0.784439
    outer loop
      vertex 5.80539 -4.51864 -16.4362
      vertex 8.09017 -5.87785 -17.9834
      vertex 8.60446 -4.98707 -18.526
    endloop
  endfacet
  facet normal 0.606978 0.127413 0.784439
    outer loop
      vertex 5.80539 -4.51864 -16.4362
      vertex 8.60446 -4.98707 -18.526
      vertex 5.86213 -4.09449 -16.549
    endloop
  endfacet
  facet normal 0.606978 0.127413 0.784439
    outer loop
      vertex 8.09017 -5.87785 -17.9834
      vertex 5.80539 -4.51864 -16.4362
      vertex 7.37104 -6.67653 -17.2972
    endloop
  endfacet
  facet normal 0.606977 0.127414 0.784439
    outer loop
      vertex -3.55617 -3.11992 -9.4197
      vertex 5.80539 -4.51864 -16.4362
      vertex -3.34488 -1.54039 -9.83975
    endloop
  endfacet
  facet normal 0.606977 0.127413 0.784439
    outer loop
      vertex 5.80539 -4.51864 -16.4362
      vertex -3.55617 -3.11992 -9.4197
      vertex 7.37104 -6.67653 -17.2972
    endloop
  endfacet
  facet normal 0.501425 0.797512 0.33548
    outer loop
      vertex 1.17413 -9.91783 -7.8227
      vertex -2.75424 -8.21098 -6.00875
      vertex -2.48146 -8.61919 -5.44606
    endloop
  endfacet
  facet normal 0.501425 0.797512 0.33548
    outer loop
      vertex -2.75424 -8.21098 -6.00875
      vertex 1.17413 -9.91783 -7.8227
      vertex 1.97006 -9.74865 -9.41452
    endloop
  endfacet
  facet normal 0.501425 0.797513 0.335479
    outer loop
      vertex -0.173387 -9.94522 -5.74354
      vertex -2.48146 -8.61919 -5.44606
      vertex -1.99059 -9.35375 -4.43351
    endloop
  endfacet
  facet normal 0.501425 0.797513 0.33548
    outer loop
      vertex 1.04528 -9.94522 -7.56503
      vertex -2.48146 -8.61919 -5.44606
      vertex -0.173387 -9.94522 -5.74354
    endloop
  endfacet
  facet normal 0.501424 0.797514 0.335478
    outer loop
      vertex -2.48146 -8.61919 -5.44606
      vertex 1.04528 -9.94522 -7.56503
      vertex 1.17413 -9.91783 -7.8227
    endloop
  endfacet
  facet normal 0.310869 -0.627 0.714305
    outer loop
      vertex 9.44772 3.1063 -15.308
      vertex 9.88872 1.05879 -17.2972
      vertex 9.78148 2.07912 -16.3549
    endloop
  endfacet
  facet normal 0.31087 -0.627 0.714305
    outer loop
      vertex -0.150075 5.83333 -8.73726
      vertex 9.44772 3.1063 -15.308
      vertex 0.0838728 6.15406 -8.55755
    endloop
  endfacet
  facet normal 0.31087 -0.627 0.714305
    outer loop
      vertex -1.03847 4.61539 -9.4197
      vertex 9.44772 3.1063 -15.308
      vertex -0.150075 5.83333 -8.73726
    endloop
  endfacet
  facet normal 0.31087 -0.627 0.714305
    outer loop
      vertex 9.44772 3.1063 -15.308
      vertex -1.03847 4.61539 -9.4197
      vertex 9.88872 1.05879 -17.2972
    endloop
  endfacet
  facet normal -0.0640602 -0.939867 0.335479
    outer loop
      vertex 2.60646 8.25908 -6.00875
      vertex 6.7852 7.32717 -7.82162
      vertex 3.06725 8.42852 -5.44606
    endloop
  endfacet
  facet normal -0.06406 -0.939867 0.33548
    outer loop
      vertex 6.7852 7.32717 -7.82162
      vertex 2.60646 8.25908 -6.00875
      vertex 7.33058 6.72147 -9.41439
    endloop
  endfacet
  facet normal 0.620368 0.323901 0.714305
    outer loop
      vertex 7.37104 -6.67653 -17.2972
      vertex 5.80938 -8.07221 -15.308
      vertex 6.69131 -7.43145 -16.3645
    endloop
  endfacet
  facet normal 0.62037 0.323899 0.714305
    outer loop
      vertex -3.55617 -3.11992 -9.4197
      vertex 5.80938 -8.07221 -15.308
      vertex 7.37104 -6.67653 -17.2972
    endloop
  endfacet
  facet normal 0.62037 0.323899 0.714305
    outer loop
      vertex 5.80938 -8.07221 -15.308
      vertex -3.55617 -3.11992 -9.4197
      vertex -3.55452 -5.02443 -8.55755
    endloop
  endfacet
  facet normal 0.566414 0.666434 0.48481
    outer loop
      vertex 3.26951 -9.43072 -11.3698
      vertex -3.28326 -6.74654 -7.40375
      vertex -2.94321 -7.68787 -6.50705
    endloop
  endfacet
  facet normal 0.566414 0.666434 0.48481
    outer loop
      vertex -3.28326 -6.74654 -7.40375
      vertex 3.26951 -9.43072 -11.3698
      vertex 3.98492 -9.1122 -12.6434
    endloop
  endfacet
  facet normal 0.567058 -0.0746401 0.820289
    outer loop
      vertex 6.03583 -3.42897 -16.6086
      vertex 8.60446 -4.98707 -18.526
      vertex 8.85133 -4.55949 -18.6577
    endloop
  endfacet
  facet normal 0.567058 -0.07464 0.820289
    outer loop
      vertex 8.60446 -4.98707 -18.526
      vertex 6.03583 -3.42897 -16.6086
      vertex 5.86213 -4.09449 -16.549
    endloop
  endfacet
  facet normal 0.567057 -0.0746407 0.820289
    outer loop
      vertex 6.38813 -2.07922 -16.7293
      vertex 9.13545 -4.06737 -18.8094
      vertex 9.4569 -3.07805 -18.9416
    endloop
  endfacet
  facet normal 0.567057 -0.0746409 0.820289
    outer loop
      vertex 9.13545 -4.06737 -18.8094
      vertex 6.38813 -2.07922 -16.7293
      vertex 6.03583 -3.42897 -16.6086
    endloop
  endfacet
  facet normal 0.567057 -0.0746428 0.82029
    outer loop
      vertex 9.13545 -4.06737 -18.8094
      vertex 6.03583 -3.42897 -16.6086
      vertex 8.85133 -4.55949 -18.6577
    endloop
  endfacet
  facet normal -0.784309 0.255278 0.565413
    outer loop
      vertex -1.13283 -0.94583 -7.03976
      vertex 2.11824 0.833333 -3.33333
      vertex -2.6878 0.833333 -10
    endloop
  endfacet
  facet normal -0.784309 0.255278 0.565413
    outer loop
      vertex 0.211298 -1.38332 -4.97774
      vertex 2.11824 0.833333 -3.33333
      vertex -1.13283 -0.94583 -7.03976
    endloop
  endfacet
  facet normal -0.784309 0.255278 0.565413
    outer loop
      vertex -2.6878 0.833333 -10
      vertex -3.34488 -1.54039 -9.83975
      vertex -1.13283 -0.94583 -7.03976
    endloop
  endfacet
  facet normal -0.784309 0.255278 0.565414
    outer loop
      vertex -5.62904 -8.20323 -10
      vertex -3.34488 -1.54039 -9.83975
      vertex -2.6878 0.833333 -10
    endloop
  endfacet
  facet normal -0.784309 0.255278 0.565413
    outer loop
      vertex -5.62904 -8.20323 -10
      vertex -3.55617 -3.11992 -9.4197
      vertex -3.34488 -1.54039 -9.83975
    endloop
  endfacet
  facet normal -0.784309 0.255278 0.565413
    outer loop
      vertex -5.62904 -8.20323 -10
      vertex -3.55452 -5.02443 -8.55755
      vertex -3.55617 -3.11992 -9.4197
    endloop
  endfacet
  facet normal -0.784309 0.255278 0.565413
    outer loop
      vertex -5.62904 -8.20323 -10
      vertex -3.28326 -6.74654 -7.40375
      vertex -3.55452 -5.02443 -8.55755
    endloop
  endfacet
  facet normal -0.784309 0.255278 0.565413
    outer loop
      vertex -5 -8.66025 -8.9211
      vertex -3.28326 -6.74654 -7.40375
      vertex -5.62904 -8.20323 -10
    endloop
  endfacet
  facet normal -0.784309 0.255278 0.565413
    outer loop
      vertex -4.17751 -9.02645 -7.61485
      vertex -3.28326 -6.74654 -7.40375
      vertex -5 -8.66025 -8.9211
    endloop
  endfacet
  facet normal -0.784309 0.255278 0.565413
    outer loop
      vertex -3.28326 -6.74654 -7.40375
      vertex -4.17751 -9.02645 -7.61485
      vertex -2.94321 -7.68787 -6.50705
    endloop
  endfacet
  facet normal -0.784309 0.255278 0.565413
    outer loop
      vertex -2.94321 -7.68787 -6.50705
      vertex -4.17751 -9.02645 -7.61485
      vertex -2.75424 -8.21098 -6.00875
    endloop
  endfacet
  facet normal -0.784309 0.255278 0.565413
    outer loop
      vertex -3.09017 -9.51056 -5.88798
      vertex -2.75424 -8.21098 -6.00875
      vertex -4.17751 -9.02645 -7.61485
    endloop
  endfacet
  facet normal -0.784309 0.255278 0.565413
    outer loop
      vertex -2.75424 -8.21098 -6.00875
      vertex -3.09017 -9.51056 -5.88798
      vertex -2.48146 -8.61919 -5.44606
    endloop
  endfacet
  facet normal -0.784309 0.255278 0.565413
    outer loop
      vertex -2.48146 -8.61919 -5.44606
      vertex -3.09017 -9.51056 -5.88798
      vertex -1.99059 -9.35375 -4.43351
    endloop
  endfacet
  facet normal -0.784309 0.255278 0.565413
    outer loop
      vertex -1.99059 -9.35375 -4.43351
      vertex -3.09017 -9.51056 -5.88798
      vertex -1.32488 -9.88579 -3.26986
    endloop
  endfacet
  facet normal -0.784309 0.255278 0.565413
    outer loop
      vertex 2.21366 1.1265 -3.33333
      vertex 2.11824 0.833333 -3.33333
      vertex 2.61436 -0.850927 -1.88471
    endloop
  endfacet
  facet normal -0.784309 0.255278 0.565413
    outer loop
      vertex 2.11824 0.833333 -3.33333
      vertex 0.211298 -1.38332 -4.97774
      vertex 2.61436 -0.850927 -1.88471
    endloop
  endfacet
  facet normal -0.784309 0.255278 0.565413
    outer loop
      vertex -0.175578 -2.57194 -4.97774
      vertex 2.61436 -0.850927 -1.88471
      vertex 0.211298 -1.38332 -4.97774
    endloop
  endfacet
  facet normal -0.784309 0.255278 0.565413
    outer loop
      vertex 2.61436 -0.850927 -1.88471
      vertex -0.175578 -2.57194 -4.97774
      vertex 1.84061 -3.22818 -1.88471
    endloop
  endfacet
  facet normal -0.784309 0.255278 0.565413
    outer loop
      vertex -1.13283 -0.94583 -7.03976
      vertex -3.34488 -1.54039 -9.83975
      vertex -1.51971 -2.13445 -7.03976
    endloop
  endfacet
  facet normal -0.784309 0.255278 0.565413
    outer loop
      vertex -1.06039 5.83333 -10
      vertex 0.426638 9.94522 -9.79375
      vertex 0.277951 9.94522 -10
    endloop
  endfacet
  facet normal -0.784309 0.255278 0.565413
    outer loop
      vertex 0.426638 9.94522 -9.79375
      vertex 0.0838728 6.15406 -8.55755
      vertex 1.00773 7.0776 -7.69299
    endloop
  endfacet
  facet normal -0.784309 0.255278 0.565413
    outer loop
      vertex 0.426638 9.94522 -9.79375
      vertex -1.06039 5.83333 -10
      vertex 0.0838728 6.15406 -8.55755
    endloop
  endfacet
  facet normal -0.784309 0.255278 0.565413
    outer loop
      vertex 0.0838728 6.15406 -8.55755
      vertex -1.06039 5.83333 -10
      vertex -0.150075 5.83333 -8.73726
    endloop
  endfacet
  facet normal 0.784309 -0.255279 -0.565413
    outer loop
      vertex 1.25987 5.83333 -6.78147
      vertex -1.03847 4.61539 -9.4197
      vertex -0.150075 5.83333 -8.73726
    endloop
  endfacet
  facet normal 0.784309 -0.255278 -0.565413
    outer loop
      vertex 1.56867 4.30942 -5.66508
      vertex -1.03847 4.61539 -9.4197
      vertex 1.25987 5.83333 -6.78147
    endloop
  endfacet
  facet normal 0.784309 -0.255278 -0.565413
    outer loop
      vertex 1.56867 4.30942 -5.66508
      vertex -1.79738 3.2141 -9.83975
      vertex -1.03847 4.61539 -9.4197
    endloop
  endfacet
  facet normal 0.784309 -0.255278 -0.565413
    outer loop
      vertex -1.79738 3.2141 -9.83975
      vertex 1.56867 4.30942 -5.66508
      vertex 0.923881 2.32838 -5.66508
    endloop
  endfacet
  facet normal -0.784309 0.255278 0.565413
    outer loop
      vertex 1.00773 7.0776 -7.69299
      vertex 1.04528 9.94522 -8.9356
      vertex 0.426638 9.94522 -9.79375
    endloop
  endfacet
  facet normal -0.784309 0.255278 0.565413
    outer loop
      vertex 1.04528 9.94522 -8.9356
      vertex 2.14579 7.94742 -6.50705
      vertex 3.09017 9.51056 -5.90281
    endloop
  endfacet
  facet normal -0.784309 0.255278 0.565413
    outer loop
      vertex 3.06725 8.42852 -5.44606
      vertex 3.09017 9.51056 -5.90281
      vertex 2.60646 8.25908 -6.00875
    endloop
  endfacet
  facet normal -0.784309 0.255279 0.565413
    outer loop
      vertex 3.78146 9.20278 -4.80493
      vertex 3.89645 8.73343 -4.43351
      vertex 4.74952 8.77177 -3.26749
    endloop
  endfacet
  facet normal -0.784309 0.255279 0.565413
    outer loop
      vertex 3.78146 9.20278 -4.80493
      vertex 3.06725 8.42852 -5.44606
      vertex 3.89645 8.73343 -4.43351
    endloop
  endfacet
  facet normal -0.784309 0.255278 0.565413
    outer loop
      vertex 3.09017 9.51056 -5.90281
      vertex 3.06725 8.42852 -5.44606
      vertex 3.78146 9.20278 -4.80493
    endloop
  endfacet
  facet normal -0.784309 0.255278 0.565413
    outer loop
      vertex 3.09017 9.51056 -5.90281
      vertex 2.14579 7.94742 -6.50705
      vertex 2.60646 8.25908 -6.00875
    endloop
  endfacet
  facet normal -0.784309 0.255278 0.565413
    outer loop
      vertex 1.04528 9.94522 -8.9356
      vertex 1.31681 7.38658 -7.40375
      vertex 2.14579 7.94742 -6.50705
    endloop
  endfacet
  facet normal -0.784309 0.255278 0.565413
    outer loop
      vertex 1.04528 9.94522 -8.9356
      vertex 1.00773 7.0776 -7.69299
      vertex 1.31681 7.38658 -7.40375
    endloop
  endfacet
  facet normal 0.784309 -0.255278 -0.565413
    outer loop
      vertex 3.74565 5.83333 -3.33333
      vertex 1.56867 4.30942 -5.66508
      vertex 1.25987 5.83333 -6.78147
    endloop
  endfacet
  facet normal 0.784309 -0.255278 -0.565413
    outer loop
      vertex 3.74565 5.83333 -3.33333
      vertex 2.9128 3.87193 -3.60306
      vertex 1.56867 4.30942 -5.66508
    endloop
  endfacet
  facet normal 0.784309 -0.255278 -0.565413
    outer loop
      vertex 2.44383 1.83367 -3.33333
      vertex 2.9128 3.87193 -3.60306
      vertex 3.74565 5.83333 -3.33333
    endloop
  endfacet
  facet normal 0.784309 -0.255278 -0.565413
    outer loop
      vertex 2.9128 3.87193 -3.60306
      vertex 2.44383 1.83367 -3.33333
      vertex 2.26801 1.89089 -3.60306
    endloop
  endfacet
  facet normal -0.784309 0.255278 0.565413
    outer loop
      vertex 2.21366 1.1265 -3.33333
      vertex 3.38811 1.52632 -1.88471
      vertex 2.44383 1.83367 -3.33333
    endloop
  endfacet
  facet normal -0.784309 0.255278 0.565413
    outer loop
      vertex 3.38811 1.52632 -1.88471
      vertex 2.21366 1.1265 -3.33333
      vertex 2.61436 -0.850927 -1.88471
    endloop
  endfacet
  facet normal -0.537651 0.174995 -0.824808
    outer loop
      vertex 8.38934 -5.35967 -11.1522
      vertex 0.211298 -1.38332 -4.97774
      vertex 9.02824 -4.25307 -11.3339
    endloop
  endfacet
  facet normal -0.537651 0.174995 -0.824808
    outer loop
      vertex 0.211298 -1.38332 -4.97774
      vertex 8.38934 -5.35967 -11.1522
      vertex -0.175578 -2.57194 -4.97774
    endloop
  endfacet
  facet normal -0.3095 -0.950899 -1.02624e-08
    outer loop
      vertex -1.13283 -0.94583 -7.03976
      vertex 9.02824 -4.25307 -11.3339
      vertex 0.211298 -1.38332 -4.97774
    endloop
  endfacet
  facet normal -0.3095 -0.950899 -3.7044e-08
    outer loop
      vertex 8.01744 -3.92408 -13.6362
      vertex 9.02824 -4.25307 -11.3339
      vertex -1.13283 -0.94583 -7.03976
    endloop
  endfacet
  facet normal -0.3095 -0.950899 -0
    outer loop
      vertex 9.02824 -4.25307 -11.3339
      vertex 8.01744 -3.92408 -13.6362
      vertex 9.02824 -4.25307 -12.0856
    endloop
  endfacet
  facet normal 0.537651 -0.174996 0.824808
    outer loop
      vertex -1.13283 -0.94583 -7.03976
      vertex 7.63057 -5.1127 -13.6362
      vertex 8.01744 -3.92408 -13.6362
    endloop
  endfacet
  facet normal 0.537651 -0.174995 0.824808
    outer loop
      vertex 7.63057 -5.1127 -13.6362
      vertex -1.13283 -0.94583 -7.03976
      vertex -1.51971 -2.13445 -7.03976
    endloop
  endfacet
  facet normal -0.537651 0.174995 -0.824808
    outer loop
      vertex 9.89188 -1.02872 -9.19212
      vertex 2.26801 1.89089 -3.60306
      vertex 9.93641 -0.605028 -9.13126
    endloop
  endfacet
  facet normal -0.537651 0.174995 -0.824808
    outer loop
      vertex 2.26801 1.89089 -3.60306
      vertex 9.89188 -1.02872 -9.19212
      vertex 1.7649 1.61647 -3.33333
    endloop
  endfacet
  facet normal -0.537651 0.174996 -0.824808
    outer loop
      vertex 2.26801 1.89089 -3.60306
      vertex 2.53865 3.99371 -3.33333
      vertex 2.9128 3.87193 -3.60306
    endloop
  endfacet
  facet normal -0.537651 0.174996 -0.824808
    outer loop
      vertex 2.53865 3.99371 -3.33333
      vertex 2.26801 1.89089 -3.60306
      vertex 1.7649 1.61647 -3.33333
    endloop
  endfacet
  facet normal -0.3095 -0.950899 -1.27643e-07
    outer loop
      vertex 1.56867 4.30942 -5.66508
      vertex 2.53865 3.99371 -3.33333
      vertex -1.66579 5.36218 -3.33333
    endloop
  endfacet
  facet normal -0.3095 -0.950899 -7.17225e-08
    outer loop
      vertex 2.53865 3.99371 -3.33333
      vertex 1.56867 4.30942 -5.66508
      vertex 2.9128 3.87193 -3.60306
    endloop
  endfacet
  facet normal 0.537651 -0.174997 0.824808
    outer loop
      vertex 0.923881 2.32838 -5.66508
      vertex 9.89188 -1.02872 -12.2231
      vertex 9.93641 -0.605028 -12.1623
    endloop
  endfacet
  facet normal 0.537651 -0.174996 0.824808
    outer loop
      vertex 0.923881 2.32838 -5.66508
      vertex -2.43954 2.98493 -3.33333
      vertex 9.89188 -1.02872 -12.2231
    endloop
  endfacet
  facet normal 0.537651 -0.174996 0.824808
    outer loop
      vertex -2.43954 2.98493 -3.33333
      vertex 0.923881 2.32838 -5.66508
      vertex -1.66579 5.36218 -3.33333
    endloop
  endfacet
  facet normal 0.537651 -0.174996 0.824808
    outer loop
      vertex 1.56867 4.30942 -5.66508
      vertex -1.66579 5.36218 -3.33333
      vertex 0.923881 2.32838 -5.66508
    endloop
  endfacet
  facet normal 0.3095 0.950899 -0
    outer loop
      vertex 9.89188 -1.02872 -12.2231
      vertex 1.7649 1.61647 -3.33333
      vertex 9.89188 -1.02872 -9.19212
    endloop
  endfacet
  facet normal 0.3095 0.950899 1.55329e-08
    outer loop
      vertex 1.7649 1.61647 -3.33333
      vertex 9.89188 -1.02872 -12.2231
      vertex -2.43954 2.98493 -3.33333
    endloop
  endfacet
  facet normal -2.57783e-08 -1 -8.9407e-09
    outer loop
      vertex -2.6878 0.833333 -10
      vertex -5 0.833333 -3.33333
      vertex -5 0.833333 -10
    endloop
  endfacet
  facet normal -2.51205e-08 -1 -8.71255e-09
    outer loop
      vertex -5 0.833333 -3.33333
      vertex -2.6878 0.833333 -10
      vertex 2.11824 0.833333 -3.33333
    endloop
  endfacet
  facet normal 0 0 1
    outer loop
      vertex 3.74565 5.83333 -3.33333
      vertex -1.66579 5.36218 -3.33333
      vertex 2.53865 3.99371 -3.33333
    endloop
  endfacet
  facet normal -6.83626e-08 2.22508e-08 1
    outer loop
      vertex -1.66579 5.36218 -3.33333
      vertex -5 5.83333 -3.33333
      vertex -2.43954 2.98493 -3.33333
    endloop
  endfacet
  facet normal -2.72614e-08 3.13114e-07 1
    outer loop
      vertex -5 5.83333 -3.33333
      vertex -1.66579 5.36218 -3.33333
      vertex 3.74565 5.83333 -3.33333
    endloop
  endfacet
  facet normal -1.80291e-07 1.18291e-07 1
    outer loop
      vertex 2.53865 3.99371 -3.33333
      vertex 2.44383 1.83367 -3.33333
      vertex 3.74565 5.83333 -3.33333
    endloop
  endfacet
  facet normal -3.58147e-08 1.11949e-07 1
    outer loop
      vertex 1.7649 1.61647 -3.33333
      vertex 2.44383 1.83367 -3.33333
      vertex 2.53865 3.99371 -3.33333
    endloop
  endfacet
  facet normal 0 0 1
    outer loop
      vertex 2.44383 1.83367 -3.33333
      vertex 1.7649 1.61647 -3.33333
      vertex 2.21366 1.1265 -3.33333
    endloop
  endfacet
  facet normal 0 0 1
    outer loop
      vertex 2.21366 1.1265 -3.33333
      vertex 1.7649 1.61647 -3.33333
      vertex 2.11824 0.833333 -3.33333
    endloop
  endfacet
  facet normal -6.64672e-08 -2.99891e-08 1
    outer loop
      vertex -2.43954 2.98493 -3.33333
      vertex 2.11824 0.833333 -3.33333
      vertex 1.7649 1.61647 -3.33333
    endloop
  endfacet
  facet normal 2.7836e-15 1.1081e-07 1
    outer loop
      vertex -2.43954 2.98493 -3.33333
      vertex -5 0.833333 -3.33333
      vertex 2.11824 0.833333 -3.33333
    endloop
  endfacet
  facet normal 1.29765e-08 9.53674e-08 1
    outer loop
      vertex -5 0.833333 -3.33333
      vertex -2.43954 2.98493 -3.33333
      vertex -5 5.83333 -3.33333
    endloop
  endfacet
  facet normal -1 9.53674e-08 6.82121e-15
    outer loop
      vertex -5 0.833333 -10
      vertex -5 5.83333 -3.33333
      vertex -5 5.83333 -10
    endloop
  endfacet
  facet normal -1 9.53674e-08 8.52651e-16
    outer loop
      vertex -5 5.83333 -3.33333
      vertex -5 0.833333 -10
      vertex -5 0.833333 -3.33333
    endloop
  endfacet
  facet normal 0 1 -0
    outer loop
      vertex 1.25987 5.83333 -6.78147
      vertex -5 5.83333 -3.33333
      vertex 3.74565 5.83333 -3.33333
    endloop
  endfacet
  facet normal 0 1 -0
    outer loop
      vertex -0.150075 5.83333 -8.73726
      vertex -5 5.83333 -3.33333
      vertex 1.25987 5.83333 -6.78147
    endloop
  endfacet
  facet normal 1.21037e-07 1 -8.72561e-08
    outer loop
      vertex -5 5.83333 -10
      vertex -0.150075 5.83333 -8.73726
      vertex -1.06039 5.83333 -10
    endloop
  endfacet
  facet normal 7.96959e-08 1 7.15256e-08
    outer loop
      vertex -0.150075 5.83333 -8.73726
      vertex -5 5.83333 -10
      vertex -5 5.83333 -3.33333
    endloop
  endfacet
  facet normal 0.537651 -0.174996 0.824808
    outer loop
      vertex 2.61436 -0.850927 -1.88471
      vertex 9.78148 -2.07912 -6.81717
      vertex 9.93641 -0.605028 -6.60542
    endloop
  endfacet
  facet normal 0.537651 -0.174996 0.824808
    outer loop
      vertex 9.78148 -2.07912 -6.81717
      vertex 2.61436 -0.850927 -1.88471
      vertex 9.13545 -4.06737 -6.8179
    endloop
  endfacet
  facet normal 0.537651 -0.174996 0.824808
    outer loop
      vertex 2.61436 -0.850927 -1.88471
      vertex 9.93641 -0.605028 -6.60542
      vertex 3.38811 1.52632 -1.88471
    endloop
  endfacet
  facet normal 0.537651 -0.174995 0.824808
    outer loop
      vertex 9.13545 -4.06737 -6.8179
      vertex 2.61436 -0.850927 -1.88471
      vertex 8.38934 -5.35967 -6.60573
    endloop
  endfacet
  facet normal 0.537651 -0.174995 0.824808
    outer loop
      vertex 8.38934 -5.35967 -6.60573
      vertex 2.61436 -0.850927 -1.88471
      vertex 1.84061 -3.22818 -1.88471
    endloop
  endfacet
endsolid OpenSCAD_Model
