solid OpenSCAD_Model
  facet normal 0.502353 -0.273435 0.820289
    outer loop
      vertex -1.47201 2.66559 -10.334
      vertex 9.83981 -1.5241 -18.6581
      vertex 9.89143 -1.033 -18.526
    endloop
  endfacet
  facet normal 0.502354 -0.273434 0.820289
    outer loop
      vertex 9.83981 -1.5241 -18.6581
      vertex -1.47201 2.66559 -10.334
      vertex -2.2317 1.52623 -10.2486
    endloop
  endfacet
  facet normal 0.502352 -0.273432 0.820291
    outer loop
      vertex 9.83981 -1.5241 -18.6581
      vertex 9.4569 -3.07805 -18.9416
      vertex 9.78148 -2.07912 -18.8074
    endloop
  endfacet
  facet normal 0.502354 -0.273433 0.820289
    outer loop
      vertex -2.2317 1.52623 -10.2486
      vertex 9.4569 -3.07805 -18.9416
      vertex 9.83981 -1.5241 -18.6581
    endloop
  endfacet
  facet normal 0.502354 -0.273432 0.82029
    outer loop
      vertex 9.4569 -3.07805 -18.9416
      vertex -2.2317 1.52623 -10.2486
      vertex -2.66992 0.86901 -10.1993
    endloop
  endfacet
  facet normal 0.415701 -0.460273 0.784437
    outer loop
      vertex 9.88872 1.05879 -17.2972
      vertex 9.89143 -1.033 -18.526
      vertex 10 6.75605e-17 -17.9774
    endloop
  endfacet
  facet normal 0.415696 -0.460275 0.784439
    outer loop
      vertex -0.0914691 4.30716 -10.1024
      vertex 9.89143 -1.033 -18.526
      vertex 9.88872 1.05879 -17.2972
    endloop
  endfacet
  facet normal 0.415696 -0.460274 0.784439
    outer loop
      vertex 9.89143 -1.033 -18.526
      vertex -0.0914691 4.30716 -10.1024
      vertex -1.47201 2.66559 -10.334
    endloop
  endfacet
  facet normal 0.606649 0.506229 0.612951
    outer loop
      vertex 0.318112 -7.91872 -10
      vertex 5 -8.66025 -14.0213
      vertex 5.80938 -8.07221 -15.308
    endloop
  endfacet
  facet normal 0.606649 0.50623 0.612951
    outer loop
      vertex 5 -8.66025 -14.0213
      vertex 0.318112 -7.91872 -10
      vertex 3.98492 -9.1122 -12.6434
    endloop
  endfacet
  facet normal 0.606649 0.506229 0.612951
    outer loop
      vertex 0.318112 -7.91872 -10
      vertex 5.80938 -8.07221 -15.308
      vertex -1.55363 -5.67568 -10
    endloop
  endfacet
  facet normal 0.192456 -0.766323 0.612951
    outer loop
      vertex 1.41136 5.72199 -9.51454
      vertex 8.5849 5.02095 -12.6434
      vertex 2.97079 6.84824 -8.59612
    endloop
  endfacet
  facet normal 0.192456 -0.766323 0.612952
    outer loop
      vertex 1.41136 5.72199 -9.51454
      vertex 9.13545 4.06737 -14.0084
      vertex 8.5849 5.02095 -12.6434
    endloop
  endfacet
  facet normal 0.192456 -0.766323 0.612951
    outer loop
      vertex 9.13545 4.06737 -14.0084
      vertex 1.41136 5.72199 -9.51454
      vertex 9.44772 3.1063 -15.308
    endloop
  endfacet
  facet normal 0.0656326 -0.872153 0.48481
    outer loop
      vertex 2.97079 6.84824 -8.59612
      vertex 5 6.88663 -8.80176
      vertex 3.87038 7.30646 -7.89358
    endloop
  endfacet
  facet normal 0.0656325 -0.872154 0.48481
    outer loop
      vertex 2.97079 6.84824 -8.59612
      vertex 5 6.22056 -10
      vertex 5 6.88663 -8.80176
    endloop
  endfacet
  facet normal 0.0656323 -0.872154 0.48481
    outer loop
      vertex 5 6.22056 -10
      vertex 8.19286 5.69998 -11.3687
      vertex 6.49039 6.33272 -10
    endloop
  endfacet
  facet normal 0.0656323 -0.872154 0.48481
    outer loop
      vertex 5 6.22056 -10
      vertex 8.5849 5.02095 -12.6434
      vertex 8.19286 5.69998 -11.3687
    endloop
  endfacet
  facet normal 0.0656341 -0.872152 0.484812
    outer loop
      vertex 8.5849 5.02095 -12.6434
      vertex 5 6.22056 -10
      vertex 2.97079 6.84824 -8.59612
    endloop
  endfacet
  facet normal 0.0656321 -0.872154 0.48481
    outer loop
      vertex 3.87038 7.30646 -7.89358
      vertex 5 7.48003 -7.73427
      vertex 4.51868 7.63669 -7.38728
    endloop
  endfacet
  facet normal 0.0656321 -0.872154 0.48481
    outer loop
      vertex 5 7.48003 -7.73427
      vertex 3.87038 7.30646 -7.89358
      vertex 5 6.88663 -8.80176
    endloop
  endfacet
  facet normal 0.0656324 -0.872154 0.48481
    outer loop
      vertex 6.49039 6.33272 -10
      vertex 8.09017 5.87785 -11.0349
      vertex 7.60508 6.4166 -10
    endloop
  endfacet
  facet normal 0.0656331 -0.872153 0.48481
    outer loop
      vertex 8.09017 5.87785 -11.0349
      vertex 6.49039 6.33272 -10
      vertex 8.19286 5.69998 -11.3687
    endloop
  endfacet
  facet normal 0.566414 0.666434 0.48481
    outer loop
      vertex 3.09017 -9.51056 -11.0505
      vertex 1.51948 -8.93978 -10
      vertex 2.37093 -9.66344 -10
    endloop
  endfacet
  facet normal 0.566414 0.666434 0.48481
    outer loop
      vertex 1.51948 -8.93978 -10
      vertex 3.09017 -9.51056 -11.0505
      vertex 3.26951 -9.43072 -11.3698
    endloop
  endfacet
  facet normal 0.606978 0.127413 0.784438
    outer loop
      vertex 8.60446 -4.98707 -18.526
      vertex 7.37104 -6.67653 -17.2972
      vertex 8.09017 -5.87785 -17.9834
    endloop
  endfacet
  facet normal 0.606977 0.127414 0.784439
    outer loop
      vertex 8.60446 -4.98707 -18.526
      vertex -2.75122 -3.38192 -10
      vertex 7.37104 -6.67653 -17.2972
    endloop
  endfacet
  facet normal 0.606977 0.127413 0.784439
    outer loop
      vertex -2.75122 -3.38192 -10
      vertex 8.60446 -4.98707 -18.526
      vertex -3.22232 -1.13767 -10
    endloop
  endfacet
  facet normal 0.310869 -0.627 0.714305
    outer loop
      vertex 1.41136 5.72199 -9.51454
      vertex 0.644463 5 -9.81453
      vertex 1.07064 5 -10
    endloop
  endfacet
  facet normal 0.310869 -0.627 0.714305
    outer loop
      vertex 9.44772 3.1063 -15.308
      vertex 9.88872 1.05879 -17.2972
      vertex 9.78148 2.07912 -16.3549
    endloop
  endfacet
  facet normal 0.310869 -0.627 0.714304
    outer loop
      vertex 1.07064 5 -10
      vertex 9.44772 3.1063 -15.308
      vertex 1.41136 5.72199 -9.51454
    endloop
  endfacet
  facet normal 0.31087 -0.627 0.714305
    outer loop
      vertex 9.44772 3.1063 -15.308
      vertex 1.07064 5 -10
      vertex 9.88872 1.05879 -17.2972
    endloop
  endfacet
  facet normal 0.31087 -0.627001 0.714304
    outer loop
      vertex -0.0914691 4.30716 -10.1024
      vertex 1.07064 5 -10
      vertex 0.170319 4.55362 -10
    endloop
  endfacet
  facet normal 0.31087 -0.627 0.714305
    outer loop
      vertex 1.07064 5 -10
      vertex -0.0914691 4.30716 -10.1024
      vertex 9.88872 1.05879 -17.2972
    endloop
  endfacet
  facet normal -0.0640597 -0.939867 0.33548
    outer loop
      vertex 4.51868 7.63669 -7.38728
      vertex 5 7.48003 -7.73427
      vertex 5 7.77308 -6.91326
    endloop
  endfacet
  facet normal 0.620368 0.323901 0.714305
    outer loop
      vertex 7.37104 -6.67653 -17.2972
      vertex 5.80938 -8.07221 -15.308
      vertex 6.69131 -7.43145 -16.3645
    endloop
  endfacet
  facet normal 0.62037 0.323899 0.714305
    outer loop
      vertex 7.37104 -6.67653 -17.2972
      vertex -1.55363 -5.67568 -10
      vertex 5.80938 -8.07221 -15.308
    endloop
  endfacet
  facet normal 0.62037 0.323899 0.714305
    outer loop
      vertex -1.55363 -5.67568 -10
      vertex 7.37104 -6.67653 -17.2972
      vertex -2.75122 -3.38192 -10
    endloop
  endfacet
  facet normal 0.566414 0.666434 0.48481
    outer loop
      vertex 3.26951 -9.43072 -11.3698
      vertex 0.318112 -7.91872 -10
      vertex 1.51948 -8.93978 -10
    endloop
  endfacet
  facet normal 0.566414 0.666434 0.48481
    outer loop
      vertex 0.318112 -7.91872 -10
      vertex 3.26951 -9.43072 -11.3698
      vertex 3.98492 -9.1122 -12.6434
    endloop
  endfacet
  facet normal 0.567057 -0.0746406 0.820289
    outer loop
      vertex -3.22232 -1.13767 -10
      vertex 8.85133 -4.55949 -18.6577
      vertex -3.01182 0.203967 -10.0234
    endloop
  endfacet
  facet normal 0.567049 -0.0746393 0.820295
    outer loop
      vertex -3.22232 -1.13767 -10
      vertex -3.01182 0.203967 -10.0234
      vertex -3.05739 0.115317 -10
    endloop
  endfacet
  facet normal 0.567058 -0.0746399 0.820289
    outer loop
      vertex 8.85133 -4.55949 -18.6577
      vertex -3.22232 -1.13767 -10
      vertex 8.60446 -4.98707 -18.526
    endloop
  endfacet
  facet normal 0.567051 -0.074638 0.820294
    outer loop
      vertex 9.4569 -3.07805 -18.9416
      vertex 8.85133 -4.55949 -18.6577
      vertex 9.13545 -4.06737 -18.8094
    endloop
  endfacet
  facet normal 0.567057 -0.0746414 0.82029
    outer loop
      vertex -2.66992 0.86901 -10.1993
      vertex 8.85133 -4.55949 -18.6577
      vertex 9.4569 -3.07805 -18.9416
    endloop
  endfacet
  facet normal 0.567057 -0.0746407 0.820289
    outer loop
      vertex 8.85133 -4.55949 -18.6577
      vertex -2.66992 0.86901 -10.1993
      vertex -3.01182 0.203967 -10.0234
    endloop
  endfacet
  facet normal -0.456669 -0.407201 0.790975
    outer loop
      vertex -8.59446 5.0044 -14.9591
      vertex -3.90576 3.095 -13.235
      vertex -4.3314 5.0044 -12.4978
    endloop
  endfacet
  facet normal -0.456669 -0.407201 0.790974
    outer loop
      vertex -9.13545 4.06737 -15.7538
      vertex -3.90576 3.095 -13.235
      vertex -8.59446 5.0044 -14.9591
    endloop
  endfacet
  facet normal -0.456669 -0.407201 0.790974
    outer loop
      vertex -3.90576 3.095 -13.235
      vertex -9.13545 4.06737 -15.7538
      vertex -9.4514 3.095 -16.4368
    endloop
  endfacet
  facet normal -0.249776 -0.86628 0.432633
    outer loop
      vertex -5.78055 8.09315 -10.1198
      vertex -5.72338 8.09315 -10.0868
      vertex -5.74547 8.11863 -10.0485
    endloop
  endfacet
  facet normal -0.334371 -0.743486 0.579159
    outer loop
      vertex -5.83539 8.05331 -10.2026
      vertex -5.72338 8.09315 -10.0868
      vertex -5.78055 8.09315 -10.1198
    endloop
  endfacet
  facet normal -0.334373 -0.743484 0.57916
    outer loop
      vertex -5.83539 8.05331 -10.2026
      vertex -4.94623 6.69508 -11.4329
      vertex -5.72338 8.09315 -10.0868
    endloop
  endfacet
  facet normal -0.334377 -0.743485 0.579157
    outer loop
      vertex -6.69131 7.43145 -11.4951
      vertex -4.94623 6.69508 -11.4329
      vertex -5.83539 8.05331 -10.2026
    endloop
  endfacet
  facet normal -0.334377 -0.743484 0.579157
    outer loop
      vertex -4.94623 6.69508 -11.4329
      vertex -6.69131 7.43145 -11.4951
      vertex -7.35434 6.69508 -12.8232
    endloop
  endfacet
  facet normal -0.5 -0.000508371 0.866025
    outer loop
      vertex -9.8896 1.05033 -17.1929
      vertex -3.68764 -2.40595e-07 -13.6128
      vertex -3.68791 1.05033 -13.6124
    endloop
  endfacet
  facet normal -0.5 -0.000507692 0.866025
    outer loop
      vertex -10 7.37439e-16 -17.2573
      vertex -3.68764 -2.40595e-07 -13.6128
      vertex -9.8896 1.05033 -17.1929
    endloop
  endfacet
  facet normal -0.5 0 0.866025
    outer loop
      vertex -3.68764 -2.40595e-07 -13.6128
      vertex -10 7.37439e-16 -17.2573
      vertex -10 -5.44573e-07 -17.2573
    endloop
  endfacet
  facet normal -0.404359 -0.588196 0.700371
    outer loop
      vertex -7.35434 6.69508 -12.8232
      vertex -4.3314 5.0044 -12.4978
      vertex -4.94623 6.69508 -11.4329
    endloop
  endfacet
  facet normal -0.404359 -0.588196 0.700371
    outer loop
      vertex -8.09017 5.87785 -13.9344
      vertex -4.3314 5.0044 -12.4978
      vertex -7.35434 6.69508 -12.8232
    endloop
  endfacet
  facet normal -0.404359 -0.588196 0.700371
    outer loop
      vertex -4.3314 5.0044 -12.4978
      vertex -8.09017 5.87785 -13.9344
      vertex -8.59446 5.0044 -14.9591
    endloop
  endfacet
  facet normal -0.489021 -0.208408 0.847009
    outer loop
      vertex -9.4514 3.095 -16.4368
      vertex -3.68791 1.05033 -13.6124
      vertex -3.90576 3.095 -13.235
    endloop
  endfacet
  facet normal -0.489021 -0.208408 0.847009
    outer loop
      vertex -9.78148 2.07912 -16.8773
      vertex -3.68791 1.05033 -13.6124
      vertex -9.4514 3.095 -16.4368
    endloop
  endfacet
  facet normal -0.489021 -0.208408 0.847009
    outer loop
      vertex -9.85525 1.37717 -17.0926
      vertex -3.68791 1.05033 -13.6124
      vertex -9.78148 2.07912 -16.8773
    endloop
  endfacet
  facet normal -0.489021 -0.208411 0.847009
    outer loop
      vertex -3.68791 1.05033 -13.6124
      vertex -9.85525 1.37717 -17.0926
      vertex -9.8896 1.05033 -17.1929
    endloop
  endfacet
  facet normal -0.866025 -9.71875e-08 -0.5
    outer loop
      vertex -3.68791 1.05033 -13.6124
      vertex -4.96542 1.52883 -11.3996
      vertex -3.90576 3.095 -13.235
    endloop
  endfacet
  facet normal -0.866025 -2.23209e-07 -0.5
    outer loop
      vertex -4.05827 -2.19511e-07 -12.9709
      vertex -4.96542 1.52883 -11.3996
      vertex -3.68791 1.05033 -13.6124
    endloop
  endfacet
  facet normal -0.866025 9.80065e-08 -0.5
    outer loop
      vertex -4.96542 1.52883 -11.3996
      vertex -4.05827 -2.19511e-07 -12.9709
      vertex -4.71662 -1.9657e-07 -11.8306
    endloop
  endfacet
  facet normal -0.866026 2.07989e-07 -0.499999
    outer loop
      vertex -4.05827 -2.19511e-07 -12.9709
      vertex -3.68791 1.05033 -13.6124
      vertex -3.68764 -2.40595e-07 -13.6128
    endloop
  endfacet
  facet normal -0.866026 -1.47779e-05 -0.499999
    outer loop
      vertex -5.72338 8.09315 -10.0868
      vertex -5.7735 8.09827 -10
      vertex -5.74547 8.11863 -10.0485
    endloop
  endfacet
  facet normal -0.866026 -4.38862e-07 -0.5
    outer loop
      vertex -4.94623 6.69508 -11.4329
      vertex -5.7735 8.09827 -10
      vertex -5.72338 8.09315 -10.0868
    endloop
  endfacet
  facet normal -0.866025 2.85204e-08 -0.5
    outer loop
      vertex -5.7735 1.0028 -10
      vertex -4.94623 6.69508 -11.4329
      vertex -4.3314 5.0044 -12.4978
    endloop
  endfacet
  facet normal -0.866025 2.24214e-08 -0.5
    outer loop
      vertex -4.96542 1.52883 -11.3996
      vertex -4.3314 5.0044 -12.4978
      vertex -3.90576 3.095 -13.235
    endloop
  endfacet
  facet normal -0.866025 5.2414e-08 -0.5
    outer loop
      vertex -5.7735 1.0028 -10
      vertex -4.3314 5.0044 -12.4978
      vertex -4.96542 1.52883 -11.3996
    endloop
  endfacet
  facet normal -0.866025 0 -0.5
    outer loop
      vertex -4.94623 6.69508 -11.4329
      vertex -5.7735 1.0028 -10
      vertex -5.7735 8.09827 -10
    endloop
  endfacet
  facet normal -0.47545 -0.3095 0.823503
    outer loop
      vertex -2.54118 1.52883 -10
      vertex -4.5302 -1.91186e-07 -11.7229
      vertex -2.29947 1.15751 -10
    endloop
  endfacet
  facet normal -0.47545 -0.3095 0.823503
    outer loop
      vertex -4.96542 1.52883 -11.3996
      vertex -4.5302 -1.91186e-07 -11.7229
      vertex -2.54118 1.52883 -10
    endloop
  endfacet
  facet normal -0.475451 -0.3095 0.823502
    outer loop
      vertex -4.5302 -1.91186e-07 -11.7229
      vertex -4.96542 1.52883 -11.3996
      vertex -4.71662 -1.9657e-07 -11.8306
    endloop
  endfacet
  facet normal 0.15475 -0.950899 -0.268035
    outer loop
      vertex -5.7735 1.0028 -10
      vertex -4.96542 1.52883 -11.3996
      vertex -2.54118 1.52883 -10
    endloop
  endfacet
  facet normal -0.67748 0.49269 0.546147
    outer loop
      vertex -2.29947 1.15751 -10
      vertex -4.5302 -1.91186e-07 -11.7229
      vertex -3.14126 -1.25655e-07 -10
    endloop
  endfacet
  facet normal -0.753201 0.547758 0.36421
    outer loop
      vertex -3.14126 -1.25655e-07 -10
      vertex -4.85225 -2.35273 -10
      vertex -2.29947 1.15751 -10
    endloop
  endfacet
  facet normal 0.784309 -0.255278 -0.565413
    outer loop
      vertex -2.62262 5 -7.48091e-16
      vertex -2.40876 8.33333 -1.20832
      vertex -1.53768 8.33333 -5.62029e-16
    endloop
  endfacet
  facet normal 0.784309 -0.255278 -0.565413
    outer loop
      vertex -2.40876 8.33333 -1.20832
      vertex -2.62262 5 -7.48091e-16
      vertex -3.4937 5 -1.20832
    endloop
  endfacet
  facet normal -0.537651 0.174995 -0.824808
    outer loop
      vertex 5 5 -3.71393
      vertex 1.32204 8.33333 -0.609234
      vertex 5 7.13623 -3.2607
    endloop
  endfacet
  facet normal -0.537651 0.174995 -0.824808
    outer loop
      vertex -0.69752 5 -2.82817e-16
      vertex 1.32204 8.33333 -0.609234
      vertex 5 5 -3.71393
    endloop
  endfacet
  facet normal -0.537651 0.174996 -0.824808
    outer loop
      vertex 1.32204 8.33333 -0.609234
      vertex -0.69752 5 -2.82817e-16
      vertex 0.387418 8.33333 -9.67556e-17
    endloop
  endfacet
  facet normal -0.3095 -0.950899 0
    outer loop
      vertex 1.32204 8.33333 -3.64024
      vertex 5 7.13623 -3.2607
      vertex 1.32204 8.33333 -0.609234
    endloop
  endfacet
  facet normal -0.3095 -0.950899 -0
    outer loop
      vertex 5 7.13623 -3.2607
      vertex 1.32204 8.33333 -3.64024
      vertex 5 7.13623 -6.29171
    endloop
  endfacet
  facet normal 0.537653 -0.174991 0.824808
    outer loop
      vertex 1.32204 8.33333 -3.64024
      vertex 5 7.09401 -6.30066
      vertex 5 7.13623 -6.29171
    endloop
  endfacet
  facet normal 0.537651 -0.174995 0.824808
    outer loop
      vertex 5 7.09401 -6.30066
      vertex 1.32204 8.33333 -3.64024
      vertex 3.76695 5 -5.94117
    endloop
  endfacet
  facet normal 0.537651 -0.174995 0.824808
    outer loop
      vertex -3.4937 5 -1.20832
      vertex 1.32204 8.33333 -3.64024
      vertex -2.40876 8.33333 -1.20832
    endloop
  endfacet
  facet normal 0.537651 -0.174995 0.824808
    outer loop
      vertex 1.32204 8.33333 -3.64024
      vertex -3.4937 5 -1.20832
      vertex 3.76695 5 -5.94117
    endloop
  endfacet
  facet normal -1.29499e-08 1 -2.7595e-08
    outer loop
      vertex -4.71662 -1.9657e-07 -11.8306
      vertex -3.14126 -1.25655e-07 -10
      vertex -4.5302 -1.91186e-07 -11.7229
    endloop
  endfacet
  facet normal -1.295e-08 1 -2.75949e-08
    outer loop
      vertex -3.14126 -1.25655e-07 -10
      vertex -4.71662 -1.9657e-07 -11.8306
      vertex -10 -2.14476e-07 -10
    endloop
  endfacet
  facet normal -1.295e-08 1 -2.75949e-08
    outer loop
      vertex -10 -2.14476e-07 -10
      vertex -4.71662 -1.9657e-07 -11.8306
      vertex -4.05827 -2.19511e-07 -12.9709
    endloop
  endfacet
  facet normal 0 0 1
    outer loop
      vertex -3.14126 -1.25655e-07 -10
      vertex -5.7735 -2.50265 -10
      vertex -4.85225 -2.35273 -10
    endloop
  endfacet
  facet normal 1.23827e-07 1.70432e-07 1
    outer loop
      vertex -5.7735 -2.50265 -10
      vertex -5.82701 -8.0594 -10
      vertex -5.7735 -8.09827 -10
    endloop
  endfacet
  facet normal 1.23826e-07 1.70432e-07 1
    outer loop
      vertex -5.7735 -2.50265 -10
      vertex -6.69131 -7.43145 -10
      vertex -5.82701 -8.0594 -10
    endloop
  endfacet
  facet normal 1.78067e-07 1.60332e-07 1
    outer loop
      vertex -5.7735 -2.50265 -10
      vertex -8.09017 -5.87785 -10
      vertex -6.69131 -7.43145 -10
    endloop
  endfacet
  facet normal -1.93235e-07 4.15186e-07 1
    outer loop
      vertex -5.7735 -2.50265 -10
      vertex -9.13545 -4.06737 -10
      vertex -8.09017 -5.87785 -10
    endloop
  endfacet
  facet normal -0 0 1
    outer loop
      vertex -10 -2.14476e-07 -10
      vertex -5.7735 -2.50265 -10
      vertex -3.14126 -1.25655e-07 -10
    endloop
  endfacet
  facet normal 0 0 1
    outer loop
      vertex -5.7735 -2.50265 -10
      vertex -9.78148 -2.07912 -10
      vertex -9.13545 -4.06737 -10
    endloop
  endfacet
  facet normal 0 0 1
    outer loop
      vertex -5.7735 -2.50265 -10
      vertex -9.89315 -1.01664 -10
      vertex -9.78148 -2.07912 -10
    endloop
  endfacet
  facet normal 0 0 1
    outer loop
      vertex -5.7735 -2.50265 -10
      vertex -10 -2.14476e-07 -10
      vertex -9.89315 -1.01664 -10
    endloop
  endfacet
  facet normal -2.18952e-08 1 -4.54851e-08
    outer loop
      vertex -10 -5.44573e-07 -17.2573
      vertex -4.05827 -2.19511e-07 -12.9709
      vertex -3.68764 -2.40595e-07 -13.6128
    endloop
  endfacet
  facet normal -2.18951e-08 1 -4.54851e-08
    outer loop
      vertex -4.05827 -2.19511e-07 -12.9709
      vertex -10 -5.44573e-07 -17.2573
      vertex -10 -2.14476e-07 -10
    endloop
  endfacet
  facet normal -0.67748 0.492691 0.546147
    outer loop
      vertex 5 5 -4.41161
      vertex 5 7.09401 -6.30066
      vertex 3.76695 5 -5.94117
    endloop
  endfacet
  facet normal -0.994522 0.104529 0
    outer loop
      vertex -9.78148 2.07912 -16.8773
      vertex -9.78148 2.07912 -30.9017
      vertex -9.85525 1.37717 -17.0926
    endloop
  endfacet
  facet normal -0.994522 0.104529 1.25273e-09
    outer loop
      vertex -9.78148 2.07912 -30.9017
      vertex -9.8896 1.05033 -17.1929
      vertex -9.85525 1.37717 -17.0926
    endloop
  endfacet
  facet normal -0.994522 0.104528 -1.13946e-08
    outer loop
      vertex -10 1.04917e-15 -30.9017
      vertex -9.8896 1.05033 -17.1929
      vertex -9.78148 2.07912 -30.9017
    endloop
  endfacet
  facet normal -0.994522 0.104528 3.85222e-18
    outer loop
      vertex -9.8896 1.05033 -17.1929
      vertex -10 1.04917e-15 -30.9017
      vertex -10 7.37439e-16 -17.2573
    endloop
  endfacet
  facet normal 0.994522 0.104529 0
    outer loop
      vertex 9.88872 1.05879 -17.2972
      vertex 9.78148 2.07912 -30.9017
      vertex 9.78148 2.07912 -16.3549
    endloop
  endfacet
  facet normal 0.994522 0.104529 1.53061e-08
    outer loop
      vertex 10 6.75605e-17 -17.9774
      vertex 9.78148 2.07912 -30.9017
      vertex 9.88872 1.05879 -17.2972
    endloop
  endfacet
  facet normal 0.994522 0.104529 4.10903e-18
    outer loop
      vertex 9.78148 2.07912 -30.9017
      vertex 10 6.75605e-17 -17.9774
      vertex 10 3.6284e-16 -30.9017
    endloop
  endfacet
  facet normal 0.207911 -0.978148 -6.36597e-07
    outer loop
      vertex 1.04528 -9.94522 -10
      vertex 3.09017 -9.51056 -11.0505
      vertex 2.37093 -9.66344 -10
    endloop
  endfacet
  facet normal 0.207911 -0.978148 0
    outer loop
      vertex 1.04528 -9.94522 -30.9017
      vertex 3.09017 -9.51056 -11.0505
      vertex 1.04528 -9.94522 -10
    endloop
  endfacet
  facet normal 0.207911 -0.978148 0
    outer loop
      vertex 3.09017 -9.51056 -11.0505
      vertex 1.04528 -9.94522 -30.9017
      vertex 3.09017 -9.51056 -30.9017
    endloop
  endfacet
  facet normal 0 1 -0
    outer loop
      vertex 1.04528 9.94522 -30.9017
      vertex -1.04528 9.94522 -10
      vertex 1.04528 9.94522 -10
    endloop
  endfacet
  facet normal 0 1 0
    outer loop
      vertex -1.04528 9.94522 -10
      vertex 1.04528 9.94522 -30.9017
      vertex -1.04528 9.94522 -30.9017
    endloop
  endfacet
  facet normal 0.866026 -0.5 -2.6164e-08
    outer loop
      vertex 8.09017 -5.87785 -30.9017
      vertex 9.13545 -4.06737 -18.8094
      vertex 8.85133 -4.55949 -18.6577
    endloop
  endfacet
  facet normal 0.866025 -0.5 5.94323e-08
    outer loop
      vertex 8.09017 -5.87785 -30.9017
      vertex 8.85133 -4.55949 -18.6577
      vertex 8.60446 -4.98707 -18.526
    endloop
  endfacet
  facet normal 0.866026 -0.5 0
    outer loop
      vertex 8.09017 -5.87785 -30.9017
      vertex 8.60446 -4.98707 -18.526
      vertex 8.09017 -5.87785 -17.9834
    endloop
  endfacet
  facet normal 0.866026 -0.5 0
    outer loop
      vertex 9.13545 -4.06737 -18.8094
      vertex 8.09017 -5.87785 -30.9017
      vertex 9.13545 -4.06737 -30.9017
    endloop
  endfacet
  facet normal 0.743145 0.669131 2.30438e-08
    outer loop
      vertex 8.09017 5.87785 -11.0349
      vertex 6.69131 7.43145 -10
      vertex 7.60508 6.4166 -10
    endloop
  endfacet
  facet normal 0.743145 0.669131 0
    outer loop
      vertex 6.69131 7.43145 -10
      vertex 8.09017 5.87785 -11.0349
      vertex 6.69131 7.43145 -30.9017
    endloop
  endfacet
  facet normal 0.743145 0.669131 0
    outer loop
      vertex 6.69131 7.43145 -30.9017
      vertex 8.09017 5.87785 -11.0349
      vertex 8.09017 5.87785 -30.9017
    endloop
  endfacet
  facet normal 0.866026 0.499998 0
    outer loop
      vertex 8.19286 5.69998 -11.3687
      vertex 8.09017 5.87785 -30.9017
      vertex 8.09017 5.87785 -11.0349
    endloop
  endfacet
  facet normal 0.866025 0.5 1.87545e-08
    outer loop
      vertex 8.5849 5.02095 -12.6434
      vertex 8.09017 5.87785 -30.9017
      vertex 8.19286 5.69998 -11.3687
    endloop
  endfacet
  facet normal 0.866026 0.5 1.09698e-08
    outer loop
      vertex 9.13545 4.06737 -14.0084
      vertex 8.09017 5.87785 -30.9017
      vertex 8.5849 5.02095 -12.6434
    endloop
  endfacet
  facet normal 0.866026 0.5 0
    outer loop
      vertex 8.09017 5.87785 -30.9017
      vertex 9.13545 4.06737 -14.0084
      vertex 9.13545 4.06737 -30.9017
    endloop
  endfacet
  facet normal 0.951056 -0.309017 0
    outer loop
      vertex 9.4569 -3.07805 -18.9416
      vertex 9.78148 -2.07912 -30.9017
      vertex 9.78148 -2.07912 -18.8074
    endloop
  endfacet
  facet normal 0.951057 -0.309016 0
    outer loop
      vertex 9.13545 -4.06737 -30.9017
      vertex 9.4569 -3.07805 -18.9416
      vertex 9.13545 -4.06737 -18.8094
    endloop
  endfacet
  facet normal 0.951057 -0.309017 3.69135e-08
    outer loop
      vertex 9.4569 -3.07805 -18.9416
      vertex 9.13545 -4.06737 -30.9017
      vertex 9.78148 -2.07912 -30.9017
    endloop
  endfacet
  facet normal 0 -1 0
    outer loop
      vertex -1.04528 -9.94522 -30.9017
      vertex 1.04528 -9.94522 -10
      vertex -1.04528 -9.94522 -10
    endloop
  endfacet
  facet normal 0 -1 -0
    outer loop
      vertex 1.04528 -9.94522 -10
      vertex -1.04528 -9.94522 -30.9017
      vertex 1.04528 -9.94522 -30.9017
    endloop
  endfacet
  facet normal -0.951057 0.309017 0
    outer loop
      vertex -9.13545 4.06737 -30.9017
      vertex -9.4514 3.095 -16.4368
      vertex -9.13545 4.06737 -15.7538
    endloop
  endfacet
  facet normal -0.951057 0.309017 0
    outer loop
      vertex -9.78148 2.07912 -16.8773
      vertex -9.13545 4.06737 -30.9017
      vertex -9.78148 2.07912 -30.9017
    endloop
  endfacet
  facet normal -0.951057 0.309017 -4.68096e-09
    outer loop
      vertex -9.13545 4.06737 -30.9017
      vertex -9.78148 2.07912 -16.8773
      vertex -9.4514 3.095 -16.4368
    endloop
  endfacet
  facet normal -0.207911 0.978148 0
    outer loop
      vertex -1.04528 9.94522 -30.9017
      vertex -3.09017 9.51056 -10
      vertex -1.04528 9.94522 -10
    endloop
  endfacet
  facet normal -0.207911 0.978148 0
    outer loop
      vertex -3.09017 9.51056 -10
      vertex -1.04528 9.94522 -30.9017
      vertex -3.09017 9.51056 -30.9017
    endloop
  endfacet
  facet normal 0.951057 0.309017 0
    outer loop
      vertex 9.44772 3.1063 -15.308
      vertex 9.13545 4.06737 -30.9017
      vertex 9.13545 4.06737 -14.0084
    endloop
  endfacet
  facet normal 0.951057 0.309017 2.73378e-08
    outer loop
      vertex 9.78148 2.07912 -16.3549
      vertex 9.13545 4.06737 -30.9017
      vertex 9.44772 3.1063 -15.308
    endloop
  endfacet
  facet normal 0.951057 0.309017 0
    outer loop
      vertex 9.13545 4.06737 -30.9017
      vertex 9.78148 2.07912 -16.3549
      vertex 9.78148 2.07912 -30.9017
    endloop
  endfacet
  facet normal 0.406737 0.913545 -8.50707e-10
    outer loop
      vertex 3.09017 9.51056 -30.9017
      vertex 4.02403 9.09478 -10
      vertex 5 8.66025 -30.9017
    endloop
  endfacet
  facet normal 0.406737 0.913545 0
    outer loop
      vertex 4.02403 9.09478 -10
      vertex 3.09017 9.51056 -30.9017
      vertex 3.09017 9.51056 -10
    endloop
  endfacet
  facet normal 0.587785 -0.809017 0
    outer loop
      vertex 5 -8.66025 -30.9017
      vertex 5.80938 -8.07221 -15.308
      vertex 5 -8.66025 -14.0213
    endloop
  endfacet
  facet normal 0.587785 -0.809017 -1.15466e-08
    outer loop
      vertex 5 -8.66025 -30.9017
      vertex 6.69131 -7.43145 -16.3645
      vertex 5.80938 -8.07221 -15.308
    endloop
  endfacet
  facet normal 0.587785 -0.809017 0
    outer loop
      vertex 6.69131 -7.43145 -16.3645
      vertex 5 -8.66025 -30.9017
      vertex 6.69131 -7.43145 -30.9017
    endloop
  endfacet
  facet normal 0.743145 -0.669131 6.4353e-09
    outer loop
      vertex 6.69131 -7.43145 -30.9017
      vertex 8.09017 -5.87785 -17.9834
      vertex 7.37104 -6.67653 -17.2972
    endloop
  endfacet
  facet normal 0.743145 -0.669131 0
    outer loop
      vertex 6.69131 -7.43145 -30.9017
      vertex 7.37104 -6.67653 -17.2972
      vertex 6.69131 -7.43145 -16.3645
    endloop
  endfacet
  facet normal 0.743145 -0.669131 0
    outer loop
      vertex 8.09017 -5.87785 -17.9834
      vertex 6.69131 -7.43145 -30.9017
      vertex 8.09017 -5.87785 -30.9017
    endloop
  endfacet
  facet normal 0.406737 -0.913545 0
    outer loop
      vertex 3.09017 -9.51056 -30.9017
      vertex 3.26951 -9.43072 -11.3698
      vertex 3.09017 -9.51056 -11.0505
    endloop
  endfacet
  facet normal 0.406737 -0.913545 4.99629e-10
    outer loop
      vertex 3.09017 -9.51056 -30.9017
      vertex 3.98492 -9.1122 -12.6434
      vertex 3.26951 -9.43072 -11.3698
    endloop
  endfacet
  facet normal 0.406737 -0.913546 2.17114e-08
    outer loop
      vertex 3.09017 -9.51056 -30.9017
      vertex 5 -8.66025 -14.0213
      vertex 3.98492 -9.1122 -12.6434
    endloop
  endfacet
  facet normal 0.406737 -0.913545 0
    outer loop
      vertex 5 -8.66025 -14.0213
      vertex 3.09017 -9.51056 -30.9017
      vertex 5 -8.66025 -30.9017
    endloop
  endfacet
  facet normal 0.994522 -0.104529 -3.10133e-18
    outer loop
      vertex 9.89143 -1.033 -18.526
      vertex 10 3.6284e-16 -30.9017
      vertex 10 6.75605e-17 -17.9774
    endloop
  endfacet
  facet normal 0.994522 -0.104527 1.60661e-07
    outer loop
      vertex 9.83981 -1.5241 -18.6581
      vertex 10 3.6284e-16 -30.9017
      vertex 9.89143 -1.033 -18.526
    endloop
  endfacet
  facet normal 0.994522 -0.104529 -8.87126e-08
    outer loop
      vertex 9.78148 -2.07912 -18.8074
      vertex 10 3.6284e-16 -30.9017
      vertex 9.83981 -1.5241 -18.6581
    endloop
  endfacet
  facet normal 0.994522 -0.104529 0
    outer loop
      vertex 10 3.6284e-16 -30.9017
      vertex 9.78148 -2.07912 -18.8074
      vertex 9.78148 -2.07912 -30.9017
    endloop
  endfacet
  facet normal -0.743145 -0.669131 0
    outer loop
      vertex -6.69131 -7.43145 -30.9017
      vertex -8.09017 -5.87785 -10
      vertex -8.09017 -5.87785 -30.9017
    endloop
  endfacet
  facet normal -0.743145 -0.669131 0
    outer loop
      vertex -8.09017 -5.87785 -10
      vertex -6.69131 -7.43145 -30.9017
      vertex -6.69131 -7.43145 -10
    endloop
  endfacet
  facet normal -0.743145 0.669131 0
    outer loop
      vertex -6.69131 7.43145 -30.9017
      vertex -7.35434 6.69508 -12.8232
      vertex -6.69131 7.43145 -11.4951
    endloop
  endfacet
  facet normal -0.743145 0.669131 0
    outer loop
      vertex -8.09017 5.87785 -13.9344
      vertex -6.69131 7.43145 -30.9017
      vertex -8.09017 5.87785 -30.9017
    endloop
  endfacet
  facet normal -0.743145 0.669131 3.07062e-09
    outer loop
      vertex -6.69131 7.43145 -30.9017
      vertex -8.09017 5.87785 -13.9344
      vertex -7.35434 6.69508 -12.8232
    endloop
  endfacet
  facet normal -0.587785 0.809017 0
    outer loop
      vertex -6.69131 7.43145 -11.4951
      vertex -5.83539 8.05331 -10.2026
      vertex -6.69131 7.43145 -30.9017
    endloop
  endfacet
  facet normal -0.587786 0.809017 9.95043e-06
    outer loop
      vertex -5 8.66025 -10
      vertex -5.74547 8.11863 -10.0485
      vertex -5.7735 8.09827 -10
    endloop
  endfacet
  facet normal -0.587785 0.809017 2.55231e-06
    outer loop
      vertex -5 8.66025 -10
      vertex -5.78055 8.09315 -10.1198
      vertex -5.74547 8.11863 -10.0485
    endloop
  endfacet
  facet normal -0.587784 0.809018 -7.78313e-06
    outer loop
      vertex -5 8.66025 -10
      vertex -5.83539 8.05331 -10.2026
      vertex -5.78055 8.09315 -10.1198
    endloop
  endfacet
  facet normal -0.587785 0.809017 -1.34093e-08
    outer loop
      vertex -5 8.66025 -30.9017
      vertex -5.83539 8.05331 -10.2026
      vertex -5 8.66025 -10
    endloop
  endfacet
  facet normal -0.587785 0.809017 1.82339e-09
    outer loop
      vertex -5.83539 8.05331 -10.2026
      vertex -5 8.66025 -30.9017
      vertex -6.69131 7.43145 -30.9017
    endloop
  endfacet
  facet normal -0.406737 0.913545 0
    outer loop
      vertex -3.09017 9.51056 -10
      vertex -3.09017 9.51056 -30.9017
      vertex -4.06614 9.07604 -10
    endloop
  endfacet
  facet normal 0.406737 0.913545 9.27902e-09
    outer loop
      vertex 5 8.66025 -10
      vertex 5 8.66025 -30.9017
      vertex 4.02403 9.09478 -10
    endloop
  endfacet
  facet normal 0.207911 0.978148 -0
    outer loop
      vertex 3.09017 9.51056 -30.9017
      vertex 1.04528 9.94522 -10
      vertex 3.09017 9.51056 -10
    endloop
  endfacet
  facet normal 0.207911 0.978148 0
    outer loop
      vertex 1.04528 9.94522 -10
      vertex 3.09017 9.51056 -30.9017
      vertex 1.04528 9.94522 -30.9017
    endloop
  endfacet
  facet normal 0.587785 0.809017 1.34093e-08
    outer loop
      vertex 5 8.66025 -10
      vertex 5.8643 8.03231 -10
      vertex 5 8.66025 -30.9017
    endloop
  endfacet
  facet normal -0.207911 -0.978148 0
    outer loop
      vertex -3.09017 -9.51056 -30.9017
      vertex -1.04528 -9.94522 -10
      vertex -3.09017 -9.51056 -10
    endloop
  endfacet
  facet normal -0.207911 -0.978148 -0
    outer loop
      vertex -1.04528 -9.94522 -10
      vertex -3.09017 -9.51056 -30.9017
      vertex -1.04528 -9.94522 -30.9017
    endloop
  endfacet
  facet normal 0 0 -1
    outer loop
      vertex 9.78148 -2.07912 -30.9017
      vertex 9.78148 2.07912 -30.9017
      vertex 10 3.6284e-16 -30.9017
    endloop
  endfacet
  facet normal 0 0 -1
    outer loop
      vertex 9.13545 -4.06737 -30.9017
      vertex 9.78148 2.07912 -30.9017
      vertex 9.78148 -2.07912 -30.9017
    endloop
  endfacet
  facet normal 0 0 -1
    outer loop
      vertex 9.13545 -4.06737 -30.9017
      vertex 9.13545 4.06737 -30.9017
      vertex 9.78148 2.07912 -30.9017
    endloop
  endfacet
  facet normal 0 0 -1
    outer loop
      vertex 8.09017 -5.87785 -30.9017
      vertex 9.13545 4.06737 -30.9017
      vertex 9.13545 -4.06737 -30.9017
    endloop
  endfacet
  facet normal 0 0 -1
    outer loop
      vertex 8.09017 -5.87785 -30.9017
      vertex 8.09017 5.87785 -30.9017
      vertex 9.13545 4.06737 -30.9017
    endloop
  endfacet
  facet normal 0 0 -1
    outer loop
      vertex 6.69131 -7.43145 -30.9017
      vertex 8.09017 5.87785 -30.9017
      vertex 8.09017 -5.87785 -30.9017
    endloop
  endfacet
  facet normal 0 0 -1
    outer loop
      vertex 6.69131 -7.43145 -30.9017
      vertex 6.69131 7.43145 -30.9017
      vertex 8.09017 5.87785 -30.9017
    endloop
  endfacet
  facet normal 0 0 -1
    outer loop
      vertex 5 -8.66025 -30.9017
      vertex 6.69131 7.43145 -30.9017
      vertex 6.69131 -7.43145 -30.9017
    endloop
  endfacet
  facet normal 0 0 -1
    outer loop
      vertex 5 -8.66025 -30.9017
      vertex 5 8.66025 -30.9017
      vertex 6.69131 7.43145 -30.9017
    endloop
  endfacet
  facet normal 0 0 -1
    outer loop
      vertex 3.09017 -9.51056 -30.9017
      vertex 5 8.66025 -30.9017
      vertex 5 -8.66025 -30.9017
    endloop
  endfacet
  facet normal 0 0 -1
    outer loop
      vertex 3.09017 -9.51056 -30.9017
      vertex 3.09017 9.51056 -30.9017
      vertex 5 8.66025 -30.9017
    endloop
  endfacet
  facet normal 0 0 -1
    outer loop
      vertex 1.04528 -9.94522 -30.9017
      vertex 3.09017 9.51056 -30.9017
      vertex 3.09017 -9.51056 -30.9017
    endloop
  endfacet
  facet normal 0 0 -1
    outer loop
      vertex 1.04528 -9.94522 -30.9017
      vertex 1.04528 9.94522 -30.9017
      vertex 3.09017 9.51056 -30.9017
    endloop
  endfacet
  facet normal 0 0 -1
    outer loop
      vertex -1.04528 -9.94522 -30.9017
      vertex 1.04528 9.94522 -30.9017
      vertex 1.04528 -9.94522 -30.9017
    endloop
  endfacet
  facet normal 0 0 -1
    outer loop
      vertex -1.04528 -9.94522 -30.9017
      vertex -1.04528 9.94522 -30.9017
      vertex 1.04528 9.94522 -30.9017
    endloop
  endfacet
  facet normal 0 0 -1
    outer loop
      vertex -3.09017 -9.51056 -30.9017
      vertex -1.04528 9.94522 -30.9017
      vertex -1.04528 -9.94522 -30.9017
    endloop
  endfacet
  facet normal 0 0 -1
    outer loop
      vertex -3.09017 -9.51056 -30.9017
      vertex -3.09017 9.51056 -30.9017
      vertex -1.04528 9.94522 -30.9017
    endloop
  endfacet
  facet normal 0 0 -1
    outer loop
      vertex -5 -8.66025 -30.9017
      vertex -3.09017 9.51056 -30.9017
      vertex -3.09017 -9.51056 -30.9017
    endloop
  endfacet
  facet normal 0 0 -1
    outer loop
      vertex -5 -8.66025 -30.9017
      vertex -5 8.66025 -30.9017
      vertex -3.09017 9.51056 -30.9017
    endloop
  endfacet
  facet normal 0 0 -1
    outer loop
      vertex -6.69131 -7.43145 -30.9017
      vertex -5 8.66025 -30.9017
      vertex -5 -8.66025 -30.9017
    endloop
  endfacet
  facet normal 0 0 -1
    outer loop
      vertex -6.69131 -7.43145 -30.9017
      vertex -6.69131 7.43145 -30.9017
      vertex -5 8.66025 -30.9017
    endloop
  endfacet
  facet normal 0 0 -1
    outer loop
      vertex -8.09017 -5.87785 -30.9017
      vertex -6.69131 7.43145 -30.9017
      vertex -6.69131 -7.43145 -30.9017
    endloop
  endfacet
  facet normal 0 0 -1
    outer loop
      vertex -8.09017 -5.87785 -30.9017
      vertex -8.09017 5.87785 -30.9017
      vertex -6.69131 7.43145 -30.9017
    endloop
  endfacet
  facet normal 0 0 -1
    outer loop
      vertex -9.13545 -4.06737 -30.9017
      vertex -8.09017 5.87785 -30.9017
      vertex -8.09017 -5.87785 -30.9017
    endloop
  endfacet
  facet normal 0 0 -1
    outer loop
      vertex -9.13545 -4.06737 -30.9017
      vertex -9.13545 4.06737 -30.9017
      vertex -8.09017 5.87785 -30.9017
    endloop
  endfacet
  facet normal 0 0 -1
    outer loop
      vertex -9.78148 -2.07912 -30.9017
      vertex -9.13545 4.06737 -30.9017
      vertex -9.13545 -4.06737 -30.9017
    endloop
  endfacet
  facet normal 0 0 -1
    outer loop
      vertex -9.78148 -2.07912 -30.9017
      vertex -9.78148 2.07912 -30.9017
      vertex -9.13545 4.06737 -30.9017
    endloop
  endfacet
  facet normal 0 -0 -1
    outer loop
      vertex -9.78148 2.07912 -30.9017
      vertex -9.78148 -2.07912 -30.9017
      vertex -10 1.04917e-15 -30.9017
    endloop
  endfacet
  facet normal -0.587778 -0.809022 4.07102e-07
    outer loop
      vertex -5 -8.66025 -30.9017
      vertex -5.7735 -8.09827 -10
      vertex -5.82701 -8.0594 -10
    endloop
  endfacet
  facet normal -0.587785 -0.809017 -2.02973e-08
    outer loop
      vertex -5 -8.66025 -30.9017
      vertex -5.82701 -8.0594 -10
      vertex -6.69131 -7.43145 -30.9017
    endloop
  endfacet
  facet normal -0.587786 -0.809017 -1.34093e-08
    outer loop
      vertex -5.7735 -8.09827 -10
      vertex -5 -8.66025 -30.9017
      vertex -5 -8.66025 -10
    endloop
  endfacet
  facet normal -0.951057 -0.309017 0
    outer loop
      vertex -9.13545 -4.06737 -30.9017
      vertex -9.78148 -2.07912 -10
      vertex -9.78148 -2.07912 -30.9017
    endloop
  endfacet
  facet normal -0.951057 -0.309017 0
    outer loop
      vertex -9.78148 -2.07912 -10
      vertex -9.13545 -4.06737 -30.9017
      vertex -9.13545 -4.06737 -10
    endloop
  endfacet
  facet normal -0.406737 -0.913545 -9.27902e-09
    outer loop
      vertex -5 -8.66025 -30.9017
      vertex -4.06614 -9.07604 -10
      vertex -5 -8.66025 -10
    endloop
  endfacet
  facet normal -0.406737 -0.913545 -8.63287e-09
    outer loop
      vertex -4.06614 -9.07604 -10
      vertex -5 -8.66025 -30.9017
      vertex -3.09017 -9.51056 -30.9017
    endloop
  endfacet
  facet normal -0.406737 -0.913545 0
    outer loop
      vertex -4.06614 -9.07604 -10
      vertex -3.09017 -9.51056 -30.9017
      vertex -3.09017 -9.51056 -10
    endloop
  endfacet
  facet normal -0.866025 0.5 0
    outer loop
      vertex -8.09017 5.87785 -30.9017
      vertex -8.59446 5.0044 -14.9591
      vertex -8.09017 5.87785 -13.9344
    endloop
  endfacet
  facet normal -0.866026 0.5 0
    outer loop
      vertex -9.13545 4.06737 -15.7538
      vertex -8.09017 5.87785 -30.9017
      vertex -9.13545 4.06737 -30.9017
    endloop
  endfacet
  facet normal -0.866026 0.5 -2.15274e-08
    outer loop
      vertex -8.09017 5.87785 -30.9017
      vertex -9.13545 4.06737 -15.7538
      vertex -8.59446 5.0044 -14.9591
    endloop
  endfacet
  facet normal -0.406737 0.913545 -8.63287e-09
    outer loop
      vertex -5 8.66025 -30.9017
      vertex -4.06614 9.07604 -10
      vertex -3.09017 9.51056 -30.9017
    endloop
  endfacet
  facet normal -0.406737 0.913545 -9.27902e-09
    outer loop
      vertex -4.06614 9.07604 -10
      vertex -5 8.66025 -30.9017
      vertex -5 8.66025 -10
    endloop
  endfacet
  facet normal 0.587785 0.809017 -0
    outer loop
      vertex 6.69131 7.43145 -30.9017
      vertex 5.8643 8.03231 -10
      vertex 6.69131 7.43145 -10
    endloop
  endfacet
  facet normal 0.587785 0.809017 6.5924e-09
    outer loop
      vertex 5.8643 8.03231 -10
      vertex 6.69131 7.43145 -30.9017
      vertex 5 8.66025 -30.9017
    endloop
  endfacet
  facet normal -0.866026 -0.5 0
    outer loop
      vertex -8.09017 -5.87785 -30.9017
      vertex -9.13545 -4.06737 -10
      vertex -9.13545 -4.06737 -30.9017
    endloop
  endfacet
  facet normal -0.866026 -0.5 0
    outer loop
      vertex -9.13545 -4.06737 -10
      vertex -8.09017 -5.87785 -30.9017
      vertex -8.09017 -5.87785 -10
    endloop
  endfacet
  facet normal -0.587785 -0.809017 0
    outer loop
      vertex -6.69131 -7.43145 -30.9017
      vertex -5.82701 -8.0594 -10
      vertex -6.69131 -7.43145 -10
    endloop
  endfacet
  facet normal -0.994522 -0.104529 -0
    outer loop
      vertex -9.78148 -2.07912 -10
      vertex -9.89315 -1.01664 -10
      vertex -9.78148 -2.07912 -30.9017
    endloop
  endfacet
  facet normal -1 0 0
    outer loop
      vertex -10 1.04917e-15 -30.9017
      vertex -10 -5.44573e-07 -17.2573
      vertex -10 7.37439e-16 -17.2573
    endloop
  endfacet
  facet normal -0.994522 -0.104528 -4.17191e-09
    outer loop
      vertex -9.78148 -2.07912 -30.9017
      vertex -10 -5.44573e-07 -17.2573
      vertex -10 1.04917e-15 -30.9017
    endloop
  endfacet
  facet normal -0.994522 -0.104528 -5.01002e-08
    outer loop
      vertex -10 -5.44573e-07 -17.2573
      vertex -9.78148 -2.07912 -30.9017
      vertex -9.89315 -1.01664 -10
    endloop
  endfacet
  facet normal -0.994522 -0.104528 4.75446e-09
    outer loop
      vertex -10 -2.14476e-07 -10
      vertex -10 -5.44573e-07 -17.2573
      vertex -9.89315 -1.01664 -10
    endloop
  endfacet
  facet normal 0 0 1
    outer loop
      vertex 5 8.66025 -10
      vertex 5 8.33333 -10
      vertex 5.8643 8.03231 -10
    endloop
  endfacet
  facet normal 0 0 1
    outer loop
      vertex 4.02403 9.09478 -10
      vertex 5 8.33333 -10
      vertex 5 8.66025 -10
    endloop
  endfacet
  facet normal 0 0 1
    outer loop
      vertex 3.09017 9.51056 -10
      vertex 5 8.33333 -10
      vertex 4.02403 9.09478 -10
    endloop
  endfacet
  facet normal 0 0 1
    outer loop
      vertex 1.04528 9.94522 -10
      vertex 5 8.33333 -10
      vertex 3.09017 9.51056 -10
    endloop
  endfacet
  facet normal -0 0 1
    outer loop
      vertex -1.04528 9.94522 -10
      vertex 5 8.33333 -10
      vertex 1.04528 9.94522 -10
    endloop
  endfacet
  facet normal 0 0 1
    outer loop
      vertex -5 8.33333 -10
      vertex -1.04528 9.94522 -10
      vertex -3.09017 9.51056 -10
    endloop
  endfacet
  facet normal 0 0 1
    outer loop
      vertex -5 8.33333 -10
      vertex -3.09017 9.51056 -10
      vertex -4.06614 9.07604 -10
    endloop
  endfacet
  facet normal 0 0 1
    outer loop
      vertex -5 8.33333 -10
      vertex -4.06614 9.07604 -10
      vertex -5 8.66025 -10
    endloop
  endfacet
  facet normal 0 0 1
    outer loop
      vertex -1.04528 9.94522 -10
      vertex -5 8.33333 -10
      vertex 5 8.33333 -10
    endloop
  endfacet
  facet normal 0 0 1
    outer loop
      vertex -5 8.33333 -10
      vertex -5.7735 8.09827 -10
      vertex -5 5 -10
    endloop
  endfacet
  facet normal 0 0 1
    outer loop
      vertex -5.7735 8.09827 -10
      vertex -5 8.33333 -10
      vertex -5 8.66025 -10
    endloop
  endfacet
  facet normal 0 0 1
    outer loop
      vertex 6.69131 7.43145 -10
      vertex 6.49039 6.33272 -10
      vertex 7.60508 6.4166 -10
    endloop
  endfacet
  facet normal 0 0 1
    outer loop
      vertex 5.8643 8.03231 -10
      vertex 6.49039 6.33272 -10
      vertex 6.69131 7.43145 -10
    endloop
  endfacet
  facet normal 0 0 1
    outer loop
      vertex 5 6.22056 -10
      vertex 5.8643 8.03231 -10
      vertex 5 8.33333 -10
    endloop
  endfacet
  facet normal 0 0 1
    outer loop
      vertex 5.8643 8.03231 -10
      vertex 5 6.22056 -10
      vertex 6.49039 6.33272 -10
    endloop
  endfacet
  facet normal 0 0 1
    outer loop
      vertex 0.170319 4.55362 -10
      vertex -2.54118 1.52883 -10
      vertex -2.29947 1.15751 -10
    endloop
  endfacet
  facet normal -0 0 1
    outer loop
      vertex -5 5 -10
      vertex 0.170319 4.55362 -10
      vertex 1.07064 5 -10
    endloop
  endfacet
  facet normal 0 0 1
    outer loop
      vertex -5 5 -10
      vertex -2.54118 1.52883 -10
      vertex 0.170319 4.55362 -10
    endloop
  endfacet
  facet normal 0 0 1
    outer loop
      vertex -5 5 -10
      vertex -5.7735 1.0028 -10
      vertex -2.54118 1.52883 -10
    endloop
  endfacet
  facet normal 0 0 1
    outer loop
      vertex -5.7735 1.0028 -10
      vertex -5 5 -10
      vertex -5.7735 8.09827 -10
    endloop
  endfacet
  facet normal -0 0 1
    outer loop
      vertex -2.29947 1.15751 -10
      vertex -3.05739 0.115317 -10
      vertex 0.170319 4.55362 -10
    endloop
  endfacet
  facet normal 0 0 1
    outer loop
      vertex -4.85225 -2.35273 -10
      vertex -3.05739 0.115317 -10
      vertex -2.29947 1.15751 -10
    endloop
  endfacet
  facet normal 0 0 1
    outer loop
      vertex -4.85225 -2.35273 -10
      vertex -3.22232 -1.13767 -10
      vertex -3.05739 0.115317 -10
    endloop
  endfacet
  facet normal -0 0 1
    outer loop
      vertex -5.7735 -2.50265 -10
      vertex -2.75122 -3.38192 -10
      vertex -4.85225 -2.35273 -10
    endloop
  endfacet
  facet normal 0 0 1
    outer loop
      vertex -2.75122 -3.38192 -10
      vertex -5 -8.66025 -10
      vertex -4.06614 -9.07604 -10
    endloop
  endfacet
  facet normal 0 0 1
    outer loop
      vertex -2.75122 -3.38192 -10
      vertex -5.7735 -2.50265 -10
      vertex -5.7735 -8.09827 -10
    endloop
  endfacet
  facet normal 0 0 1
    outer loop
      vertex -2.75122 -3.38192 -10
      vertex -5.7735 -8.09827 -10
      vertex -5 -8.66025 -10
    endloop
  endfacet
  facet normal 0 0 1
    outer loop
      vertex 1.51948 -8.93978 -10
      vertex 1.04528 -9.94522 -10
      vertex 2.37093 -9.66344 -10
    endloop
  endfacet
  facet normal 0 0 1
    outer loop
      vertex 0.318112 -7.91872 -10
      vertex 1.04528 -9.94522 -10
      vertex 1.51948 -8.93978 -10
    endloop
  endfacet
  facet normal 0 0 1
    outer loop
      vertex 0.318112 -7.91872 -10
      vertex -1.04528 -9.94522 -10
      vertex 1.04528 -9.94522 -10
    endloop
  endfacet
  facet normal 0 0 1
    outer loop
      vertex -3.09017 -9.51056 -10
      vertex 0.318112 -7.91872 -10
      vertex -1.55363 -5.67568 -10
    endloop
  endfacet
  facet normal 0 0 1
    outer loop
      vertex -4.06614 -9.07604 -10
      vertex -1.55363 -5.67568 -10
      vertex -2.75122 -3.38192 -10
    endloop
  endfacet
  facet normal 0 0 1
    outer loop
      vertex 0.318112 -7.91872 -10
      vertex -3.09017 -9.51056 -10
      vertex -1.04528 -9.94522 -10
    endloop
  endfacet
  facet normal -0 0 1
    outer loop
      vertex -4.85225 -2.35273 -10
      vertex -2.75122 -3.38192 -10
      vertex -3.22232 -1.13767 -10
    endloop
  endfacet
  facet normal 0 0 1
    outer loop
      vertex -1.55363 -5.67568 -10
      vertex -4.06614 -9.07604 -10
      vertex -3.09017 -9.51056 -10
    endloop
  endfacet
  facet normal -2.41689e-16 2.28468e-17 1
    outer loop
      vertex 0.387418 8.33333 -9.67556e-17
      vertex 5 5 1.09421e-15
      vertex 5 8.33333 1.01805e-15
    endloop
  endfacet
  facet normal -2.41689e-16 2.28468e-17 1
    outer loop
      vertex 5 5 1.09421e-15
      vertex 0.387418 8.33333 -9.67556e-17
      vertex -0.69752 5 -2.82817e-16
    endloop
  endfacet
  facet normal -2.41689e-16 2.28468e-17 1
    outer loop
      vertex -5 8.33333 -1.39883e-15
      vertex -2.62262 5 -7.48091e-16
      vertex -1.53768 8.33333 -5.62029e-16
    endloop
  endfacet
  facet normal -2.41689e-16 2.28468e-17 1
    outer loop
      vertex -2.62262 5 -7.48091e-16
      vertex -5 8.33333 -1.39883e-15
      vertex -5 5 -1.32268e-15
    endloop
  endfacet
  facet normal 1 0 0
    outer loop
      vertex 5 8.33333 1.01805e-15
      vertex 5 7.77308 -6.91326
      vertex 5 8.33333 -10
    endloop
  endfacet
  facet normal 1 0 0
    outer loop
      vertex 5 8.33333 1.01805e-15
      vertex 5 7.13623 -3.2607
      vertex 5 7.77308 -6.91326
    endloop
  endfacet
  facet normal 1 0 0
    outer loop
      vertex 5 5 1.09421e-15
      vertex 5 7.13623 -3.2607
      vertex 5 8.33333 1.01805e-15
    endloop
  endfacet
  facet normal 1 0 0
    outer loop
      vertex 5 7.13623 -3.2607
      vertex 5 5 1.09421e-15
      vertex 5 5 -3.71393
    endloop
  endfacet
  facet normal 1 -0 0
    outer loop
      vertex 5 7.48003 -7.73427
      vertex 5 8.33333 -10
      vertex 5 7.77308 -6.91326
    endloop
  endfacet
  facet normal 1 -0 0
    outer loop
      vertex 5 6.88663 -8.80176
      vertex 5 8.33333 -10
      vertex 5 7.48003 -7.73427
    endloop
  endfacet
  facet normal 1 0 0
    outer loop
      vertex 5 8.33333 -10
      vertex 5 6.88663 -8.80176
      vertex 5 6.22056 -10
    endloop
  endfacet
  facet normal 1 -0 0
    outer loop
      vertex 5 7.13623 -6.29171
      vertex 5 7.77308 -6.91326
      vertex 5 7.13623 -3.2607
    endloop
  endfacet
  facet normal 1 -0 0
    outer loop
      vertex 5 7.09401 -6.30066
      vertex 5 7.77308 -6.91326
      vertex 5 7.13623 -6.29171
    endloop
  endfacet
  facet normal 1 0 0
    outer loop
      vertex 5 7.09401 -6.30066
      vertex 5 5 -4.41161
      vertex 5 7.77308 -6.91326
    endloop
  endfacet
  facet normal -1 0 0
    outer loop
      vertex -5 5 -10
      vertex -5 8.33333 -1.39883e-15
      vertex -5 8.33333 -10
    endloop
  endfacet
  facet normal -1 -0 0
    outer loop
      vertex -5 8.33333 -1.39883e-15
      vertex -5 5 -10
      vertex -5 5 -1.32268e-15
    endloop
  endfacet
  facet normal 0 -1 0
    outer loop
      vertex -0.69752 5 -2.82817e-16
      vertex 5 5 -3.71393
      vertex 5 5 1.09421e-15
    endloop
  endfacet
  facet normal 0 -1 0
    outer loop
      vertex -5 5 -1.32268e-15
      vertex -3.4937 5 -1.20832
      vertex -2.62262 5 -7.48091e-16
    endloop
  endfacet
  facet normal 0 -1 0
    outer loop
      vertex -3.4937 5 -1.20832
      vertex 0.644463 5 -9.81453
      vertex 3.76695 5 -5.94117
    endloop
  endfacet
  facet normal 0 -1 0
    outer loop
      vertex -5 5 -10
      vertex -3.4937 5 -1.20832
      vertex -5 5 -1.32268e-15
    endloop
  endfacet
  facet normal 0 -1 -0
    outer loop
      vertex -3.4937 5 -1.20832
      vertex -5 5 -10
      vertex 0.644463 5 -9.81453
    endloop
  endfacet
  facet normal 0 -1 -0
    outer loop
      vertex 0.644463 5 -9.81453
      vertex -5 5 -10
      vertex 1.07064 5 -10
    endloop
  endfacet
  facet normal 0 -1 0
    outer loop
      vertex 5 5 -4.41161
      vertex 3.76695 5 -5.94117
      vertex 0.644463 5 -9.81453
    endloop
  endfacet
  facet normal 0 1 0
    outer loop
      vertex 5 8.33333 1.01805e-15
      vertex 1.32204 8.33333 -0.609234
      vertex 0.387418 8.33333 -9.67556e-17
    endloop
  endfacet
  facet normal 0 1 0
    outer loop
      vertex 5 8.33333 1.01805e-15
      vertex 1.32204 8.33333 -3.64024
      vertex 1.32204 8.33333 -0.609234
    endloop
  endfacet
  facet normal -0 1 0
    outer loop
      vertex 1.32204 8.33333 -3.64024
      vertex 5 8.33333 1.01805e-15
      vertex 5 8.33333 -10
    endloop
  endfacet
  facet normal 0 1 -0
    outer loop
      vertex -2.40876 8.33333 -1.20832
      vertex -5 8.33333 -1.39883e-15
      vertex -1.53768 8.33333 -5.62029e-16
    endloop
  endfacet
  facet normal 0 1 0
    outer loop
      vertex -5 8.33333 -10
      vertex -2.40876 8.33333 -1.20832
      vertex 1.32204 8.33333 -3.64024
    endloop
  endfacet
  facet normal 0 1 0
    outer loop
      vertex -5 8.33333 -10
      vertex 1.32204 8.33333 -3.64024
      vertex 5 8.33333 -10
    endloop
  endfacet
  facet normal 0 1 0
    outer loop
      vertex -2.40876 8.33333 -1.20832
      vertex -5 8.33333 -10
      vertex -5 8.33333 -1.39883e-15
    endloop
  endfacet
  facet normal 0.67748 -0.492693 -0.546145
    outer loop
      vertex 5 7.77308 -6.91326
      vertex 3.87038 7.30646 -7.89358
      vertex 4.51868 7.63669 -7.38728
    endloop
  endfacet
  facet normal 0.67748 -0.492691 -0.546147
    outer loop
      vertex 5 5 -4.41161
      vertex 3.87038 7.30646 -7.89358
      vertex 5 7.77308 -6.91326
    endloop
  endfacet
  facet normal 0.67748 -0.492691 -0.546147
    outer loop
      vertex 3.87038 7.30646 -7.89358
      vertex 5 5 -4.41161
      vertex 2.97079 6.84824 -8.59612
    endloop
  endfacet
  facet normal 0.67748 -0.492691 -0.546147
    outer loop
      vertex 2.97079 6.84824 -8.59612
      vertex 5 5 -4.41161
      vertex 1.41136 5.72199 -9.51454
    endloop
  endfacet
  facet normal 0.67748 -0.49269 -0.546147
    outer loop
      vertex 1.41136 5.72199 -9.51454
      vertex 5 5 -4.41161
      vertex 0.644463 5 -9.81453
    endloop
  endfacet
  facet normal 0.67748 -0.492691 -0.546146
    outer loop
      vertex 0.170319 4.55362 -10
      vertex -1.47201 2.66559 -10.334
      vertex -0.0914691 4.30716 -10.1024
    endloop
  endfacet
  facet normal 0.677479 -0.49269 -0.546149
    outer loop
      vertex 0.170319 4.55362 -10
      vertex -2.2317 1.52623 -10.2486
      vertex -1.47201 2.66559 -10.334
    endloop
  endfacet
  facet normal 0.677481 -0.492691 -0.546146
    outer loop
      vertex -3.01182 0.203967 -10.0234
      vertex -2.2317 1.52623 -10.2486
      vertex 0.170319 4.55362 -10
    endloop
  endfacet
  facet normal 0.677479 -0.492691 -0.546149
    outer loop
      vertex -2.2317 1.52623 -10.2486
      vertex -3.01182 0.203967 -10.0234
      vertex -2.66992 0.86901 -10.1993
    endloop
  endfacet
  facet normal 0.677479 -0.49269 -0.54615
    outer loop
      vertex -3.01182 0.203967 -10.0234
      vertex 0.170319 4.55362 -10
      vertex -3.05739 0.115317 -10
    endloop
  endfacet
endsolid OpenSCAD_Model
