solid OpenSCAD_Model
  facet normal 0 0 1
    outer loop
      vertex 6.25 50 -5
      vertex 9.78148 52.0791 -5
      vertex 9.13545 54.0674 -5
    endloop
  endfacet
  facet normal 0 0 1
    outer loop
      vertex 6.25 50 -5
      vertex 9.13545 54.0674 -5
      vertex 8.09017 55.8779 -5
    endloop
  endfacet
  facet normal 0 0 1
    outer loop
      vertex 3.75 50 -5
      vertex 8.09017 55.8779 -5
      vertex 6.69131 57.4314 -5
    endloop
  endfacet
  facet normal 0 0 1
    outer loop
      vertex 9.78148 52.0791 -5
      vertex 6.25 50 -5
      vertex 10 50 -5
    endloop
  endfacet
  facet normal 0 0 1
    outer loop
      vertex 3.75 50 -5
      vertex 6.69131 57.4314 -5
      vertex 6.01164 57.9253 -5
    endloop
  endfacet
  facet normal 0 0 1
    outer loop
      vertex 3.75 50 -5
      vertex 6.01164 57.9253 -5
      vertex 5 58.6603 -5
    endloop
  endfacet
  facet normal 0 0 1
    outer loop
      vertex 3.75 50 -5
      vertex 5 58.6603 -5
      vertex 3.85765 59.1689 -5
    endloop
  endfacet
  facet normal 0 0 1
    outer loop
      vertex 8.09017 55.8779 -5
      vertex 3.75 50 -5
      vertex 6.25 50 -5
    endloop
  endfacet
  facet normal -0 0 1
    outer loop
      vertex -3.75 52.5 -5
      vertex 3.75 50 -5
      vertex 3.09017 59.5106 -5
    endloop
  endfacet
  facet normal 0 0 1
    outer loop
      vertex 3.09017 59.5106 -5
      vertex 3.75 50 -5
      vertex 3.85765 59.1689 -5
    endloop
  endfacet
  facet normal -0 0 1
    outer loop
      vertex 6.25 45 -5
      vertex 8.09017 44.1221 -5
      vertex 8.597 45 -5
    endloop
  endfacet
  facet normal 0 0 1
    outer loop
      vertex 8.09017 44.1221 -5
      vertex 6.25 45 -5
      vertex 6.69131 42.5686 -5
    endloop
  endfacet
  facet normal -0 0 1
    outer loop
      vertex 3.75 45 -5
      vertex 6.69131 42.5686 -5
      vertex 6.25 45 -5
    endloop
  endfacet
  facet normal 0 0 1
    outer loop
      vertex 6.69131 42.5686 -5
      vertex 3.75 45 -5
      vertex 5 41.3397 -5
    endloop
  endfacet
  facet normal 0 0 1
    outer loop
      vertex 3.75 45 -5
      vertex 3.09017 40.4894 -5
      vertex 5 41.3397 -5
    endloop
  endfacet
  facet normal 0 0 1
    outer loop
      vertex -3.75 47.5 -5
      vertex 3.75 50 -5
      vertex -3.75 52.5 -5
    endloop
  endfacet
  facet normal 0 0 1
    outer loop
      vertex -3.75 52.5 -5
      vertex 3.09017 59.5106 -5
      vertex 1.04528 59.9452 -5
    endloop
  endfacet
  facet normal 0 0 1
    outer loop
      vertex 3.75 50 -5
      vertex -3.75 47.5 -5
      vertex 3.75 45 -5
    endloop
  endfacet
  facet normal 0 0 1
    outer loop
      vertex -3.75 52.5 -5
      vertex 1.04528 59.9452 -5
      vertex -1.04528 59.9452 -5
    endloop
  endfacet
  facet normal 0 -0 1
    outer loop
      vertex -1.04528 40.0548 -5
      vertex 3.75 45 -5
      vertex -3.75 47.5 -5
    endloop
  endfacet
  facet normal 0 0 1
    outer loop
      vertex -3.75 52.5 -5
      vertex -1.04528 59.9452 -5
      vertex -3.09017 59.5106 -5
    endloop
  endfacet
  facet normal 0 0 1
    outer loop
      vertex 3.75 45 -5
      vertex 1.04528 40.0548 -5
      vertex 3.09017 40.4894 -5
    endloop
  endfacet
  facet normal 0 0 1
    outer loop
      vertex 3.75 45 -5
      vertex -1.04528 40.0548 -5
      vertex 1.04528 40.0548 -5
    endloop
  endfacet
  facet normal -0 0 1
    outer loop
      vertex -4.23252 59.002 -5
      vertex -3.75 52.5 -5
      vertex -3.09017 59.5106 -5
    endloop
  endfacet
  facet normal -0 0 1
    outer loop
      vertex -5 58.6603 -5
      vertex -3.75 52.5 -5
      vertex -4.23252 59.002 -5
    endloop
  endfacet
  facet normal -0 0 1
    outer loop
      vertex -5.67966 58.1665 -5
      vertex -3.75 52.5 -5
      vertex -5 58.6603 -5
    endloop
  endfacet
  facet normal -0 0 1
    outer loop
      vertex -6.69131 57.4314 -5
      vertex -3.75 52.5 -5
      vertex -5.67966 58.1665 -5
    endloop
  endfacet
  facet normal 0 0 1
    outer loop
      vertex -3.75 52.5 -5
      vertex -6.69131 57.4314 -5
      vertex -6.25 52.5 -5
    endloop
  endfacet
  facet normal -0 0 1
    outer loop
      vertex -8.09017 55.8779 -5
      vertex -6.25 52.5 -5
      vertex -6.69131 57.4314 -5
    endloop
  endfacet
  facet normal -0 0 1
    outer loop
      vertex -9.13545 54.0674 -5
      vertex -6.25 52.5 -5
      vertex -8.09017 55.8779 -5
    endloop
  endfacet
  facet normal 0 0 1
    outer loop
      vertex -6.25 52.5 -5
      vertex -9.13545 54.0674 -5
      vertex -9.64472 52.5 -5
    endloop
  endfacet
  facet normal 0 0 1
    outer loop
      vertex -1.04528 40.0548 -5
      vertex -3.75 47.5 -5
      vertex -3.09017 40.4894 -5
    endloop
  endfacet
  facet normal 0 0 1
    outer loop
      vertex -3.75 47.5 -5
      vertex -4.23252 40.998 -5
      vertex -3.09017 40.4894 -5
    endloop
  endfacet
  facet normal 0 0 1
    outer loop
      vertex -3.75 47.5 -5
      vertex -5 41.3397 -5
      vertex -4.23252 40.998 -5
    endloop
  endfacet
  facet normal 0 0 1
    outer loop
      vertex -3.75 47.5 -5
      vertex -5.67966 41.8335 -5
      vertex -5 41.3397 -5
    endloop
  endfacet
  facet normal 0 0 1
    outer loop
      vertex -6.69131 42.5686 -5
      vertex -3.75 47.5 -5
      vertex -6.25 47.5 -5
    endloop
  endfacet
  facet normal 0 0 1
    outer loop
      vertex -3.75 47.5 -5
      vertex -6.69131 42.5686 -5
      vertex -5.67966 41.8335 -5
    endloop
  endfacet
  facet normal 0 0 1
    outer loop
      vertex -6.25 47.5 -5
      vertex -8.09017 44.1221 -5
      vertex -6.69131 42.5686 -5
    endloop
  endfacet
  facet normal 0 0 1
    outer loop
      vertex -6.25 47.5 -5
      vertex -9.13545 45.9326 -5
      vertex -8.09017 44.1221 -5
    endloop
  endfacet
  facet normal 0 -0 1
    outer loop
      vertex -9.13545 45.9326 -5
      vertex -6.25 47.5 -5
      vertex -9.64472 47.5 -5
    endloop
  endfacet
  facet normal -0 0 1
    outer loop
      vertex 6.25 50 -15
      vertex 9.78148 47.9209 -15
      vertex 10 50 -15
    endloop
  endfacet
  facet normal 0 0 1
    outer loop
      vertex 9.78148 47.9209 -15
      vertex 6.25 50 -15
      vertex 9.13545 45.9326 -15
    endloop
  endfacet
  facet normal 0 0 1
    outer loop
      vertex 6.25 45 -15
      vertex 9.13545 45.9326 -15
      vertex 6.25 50 -15
    endloop
  endfacet
  facet normal 0 0 1
    outer loop
      vertex 9.13545 45.9326 -15
      vertex 6.25 45 -15
      vertex 8.597 45 -15
    endloop
  endfacet
  facet normal 0 -1 0
    outer loop
      vertex 6.25 50 -15
      vertex 10 50 -5
      vertex 6.25 50 -5
    endloop
  endfacet
  facet normal 0 -1 -0
    outer loop
      vertex 10 50 -5
      vertex 6.25 50 -15
      vertex 10 50 -15
    endloop
  endfacet
  facet normal 1 0 0
    outer loop
      vertex 6.25 45 -5
      vertex 6.25 50 -5
      vertex 6.25 50 1.5771e-15
    endloop
  endfacet
  facet normal 1 0 0
    outer loop
      vertex 6.25 45 -5
      vertex 6.25 50 1.5771e-15
      vertex 6.25 45 1.42236e-15
    endloop
  endfacet
  facet normal 1 0 0
    outer loop
      vertex 6.25 50 -5
      vertex 6.25 45 -5
      vertex 6.25 50 -15
    endloop
  endfacet
  facet normal 1 0 0
    outer loop
      vertex 6.25 50 -15
      vertex 6.25 45 -5
      vertex 6.25 45 -15
    endloop
  endfacet
  facet normal 0 1 -0
    outer loop
      vertex 8.597 45 -15
      vertex 6.25 45 -5
      vertex 8.597 45 -5
    endloop
  endfacet
  facet normal 0 1 0
    outer loop
      vertex 6.25 45 -5
      vertex 8.597 45 -15
      vertex 6.25 45 -15
    endloop
  endfacet
  facet normal -1 0 0
    outer loop
      vertex -6.25 47.5 -5
      vertex -6.25 52.5 -5
      vertex -6.25 52.5 -10
    endloop
  endfacet
  facet normal -1 0 0
    outer loop
      vertex -6.25 47.5 -5
      vertex -6.25 52.5 -10
      vertex -6.25 47.5 -10
    endloop
  endfacet
  facet normal -1 0 0
    outer loop
      vertex -6.25 52.5 -5
      vertex -6.25 47.5 -5
      vertex -6.25 52.5 10
    endloop
  endfacet
  facet normal -1 -0 0
    outer loop
      vertex -6.25 52.5 10
      vertex -6.25 47.5 -5
      vertex -6.25 47.5 10
    endloop
  endfacet
  facet normal -1 0 0
    outer loop
      vertex -6.25 47.5 -15
      vertex -6.25 52.5 -10
      vertex -6.25 52.5 -15
    endloop
  endfacet
  facet normal -1 -0 0
    outer loop
      vertex -6.25 52.5 -10
      vertex -6.25 47.5 -15
      vertex -6.25 47.5 -10
    endloop
  endfacet
  facet normal 0 0 1
    outer loop
      vertex -9.78148 52.0791 -15
      vertex -6.25 52.5 -15
      vertex -9.64472 52.5 -15
    endloop
  endfacet
  facet normal 0 0 1
    outer loop
      vertex -10 50 -15
      vertex -6.25 52.5 -15
      vertex -9.85364 51.3925 -15
    endloop
  endfacet
  facet normal 0 0 1
    outer loop
      vertex -6.25 52.5 -15
      vertex -9.78148 52.0791 -15
      vertex -9.85364 51.3925 -15
    endloop
  endfacet
  facet normal 0 0 1
    outer loop
      vertex -6.25 52.5 -15
      vertex -10 50 -15
      vertex -6.25 47.5 -15
    endloop
  endfacet
  facet normal -0 -0 1
    outer loop
      vertex -9.78148 47.9209 -15
      vertex -6.25 47.5 -15
      vertex -9.85364 48.6075 -15
    endloop
  endfacet
  facet normal 0 0 1
    outer loop
      vertex -6.25 47.5 -15
      vertex -9.78148 47.9209 -15
      vertex -9.64472 47.5 -15
    endloop
  endfacet
  facet normal 0 0 1
    outer loop
      vertex -6.25 47.5 -15
      vertex -10 50 -15
      vertex -9.85364 48.6075 -15
    endloop
  endfacet
  facet normal 0 1 -0
    outer loop
      vertex -6.25 47.5 -10
      vertex -9.64472 47.5 -5
      vertex -6.25 47.5 -5
    endloop
  endfacet
  facet normal 0 1 0
    outer loop
      vertex -9.64472 47.5 -15
      vertex -6.25 47.5 -10
      vertex -6.25 47.5 -15
    endloop
  endfacet
  facet normal 0 1 0
    outer loop
      vertex -6.25 47.5 -10
      vertex -9.64472 47.5 -15
      vertex -9.64472 47.5 -5
    endloop
  endfacet
  facet normal 0 -1 0
    outer loop
      vertex -9.64472 52.5 -5
      vertex -6.25 52.5 -10
      vertex -6.25 52.5 -5
    endloop
  endfacet
  facet normal 0 -1 0
    outer loop
      vertex -9.64472 52.5 -15
      vertex -6.25 52.5 -10
      vertex -9.64472 52.5 -5
    endloop
  endfacet
  facet normal 0 -1 -0
    outer loop
      vertex -6.25 52.5 -10
      vertex -9.64472 52.5 -15
      vertex -6.25 52.5 -15
    endloop
  endfacet
  facet normal -0.994522 0.104529 0
    outer loop
      vertex -9.78148 52.0791 -15
      vertex -9.78148 52.0791 -27.3267
      vertex -9.85364 51.3925 -15
    endloop
  endfacet
  facet normal -0.994522 0.104528 -4.4373e-08
    outer loop
      vertex -10 50 -27.3267
      vertex -9.85364 51.3925 -15
      vertex -9.78148 52.0791 -27.3267
    endloop
  endfacet
  facet normal -0.994522 0.104528 0
    outer loop
      vertex -9.85364 51.3925 -15
      vertex -10 50 -27.3267
      vertex -10 50 -15
    endloop
  endfacet
  facet normal 0 1 -0
    outer loop
      vertex 1.04528 59.9452 -27.3267
      vertex -1.04528 59.9452 -5
      vertex 1.04528 59.9452 -5
    endloop
  endfacet
  facet normal 0 1 0
    outer loop
      vertex -1.04528 59.9452 -5
      vertex 1.04528 59.9452 -27.3267
      vertex -1.04528 59.9452 -27.3267
    endloop
  endfacet
  facet normal -0.951057 0.309017 0
    outer loop
      vertex -9.13545 54.0674 -27.3267
      vertex -9.64472 52.5 -15
      vertex -9.13545 54.0674 -5
    endloop
  endfacet
  facet normal -0.951057 0.309017 3.51576e-09
    outer loop
      vertex -9.78148 52.0791 -27.3267
      vertex -9.64472 52.5 -15
      vertex -9.13545 54.0674 -27.3267
    endloop
  endfacet
  facet normal -0.951057 0.309017 0
    outer loop
      vertex -9.64472 52.5 -15
      vertex -9.78148 52.0791 -27.3267
      vertex -9.78148 52.0791 -15
    endloop
  endfacet
  facet normal -0.951057 0.309017 0
    outer loop
      vertex -9.13545 54.0674 -5
      vertex -9.64472 52.5 -15
      vertex -9.64472 52.5 -5
    endloop
  endfacet
  facet normal -0.587785 0.809017 -1.25535e-08
    outer loop
      vertex -5 58.6603 -27.3267
      vertex -5.67966 58.1665 -5
      vertex -5 58.6603 -5
    endloop
  endfacet
  facet normal -0.587785 0.809017 -7.31845e-09
    outer loop
      vertex -5.67966 58.1665 -5
      vertex -5 58.6603 -27.3267
      vertex -6.69131 57.4314 -27.3267
    endloop
  endfacet
  facet normal 0.406736 0.913546 8.68679e-09
    outer loop
      vertex 5 58.6603 -5
      vertex 5 58.6603 -27.3267
      vertex 3.85765 59.1689 -5
    endloop
  endfacet
  facet normal 0.951057 -0.309017 0
    outer loop
      vertex 9.13545 45.9326 -15
      vertex 9.78148 47.9209 -27.3267
      vertex 9.78148 47.9209 -15
    endloop
  endfacet
  facet normal 0.951057 -0.309017 0
    outer loop
      vertex 9.78148 47.9209 -27.3267
      vertex 9.13545 45.9326 -15
      vertex 9.13545 45.9326 -27.3267
    endloop
  endfacet
  facet normal 0.587785 -0.809017 0
    outer loop
      vertex 5 41.3397 -27.3267
      vertex 6.69131 42.5686 -5
      vertex 5 41.3397 -5
    endloop
  endfacet
  facet normal 0.587785 -0.809017 0
    outer loop
      vertex 6.69131 42.5686 -5
      vertex 5 41.3397 -27.3267
      vertex 6.69131 42.5686 -27.3267
    endloop
  endfacet
  facet normal 0.866026 -0.5 0
    outer loop
      vertex 8.597 45 -5
      vertex 8.09017 44.1221 -5
      vertex 8.597 45 -15
    endloop
  endfacet
  facet normal 0.866025 -0.5 0
    outer loop
      vertex 8.597 45 -15
      vertex 9.13545 45.9326 -27.3267
      vertex 9.13545 45.9326 -15
    endloop
  endfacet
  facet normal 0.866026 -0.5 0
    outer loop
      vertex 8.09017 44.1221 -27.3267
      vertex 8.597 45 -15
      vertex 8.09017 44.1221 -5
    endloop
  endfacet
  facet normal 0.866025 -0.5 3.37482e-08
    outer loop
      vertex 8.597 45 -15
      vertex 8.09017 44.1221 -27.3267
      vertex 9.13545 45.9326 -27.3267
    endloop
  endfacet
  facet normal -0.587785 -0.809017 -7.31845e-09
    outer loop
      vertex -5 41.3397 -27.3267
      vertex -5.67966 41.8335 -5
      vertex -6.69131 42.5686 -27.3267
    endloop
  endfacet
  facet normal -0.587785 -0.809017 -1.25535e-08
    outer loop
      vertex -5.67966 41.8335 -5
      vertex -5 41.3397 -27.3267
      vertex -5 41.3397 -5
    endloop
  endfacet
  facet normal -0.20791 -0.978148 0
    outer loop
      vertex -3.09017 40.4894 -27.3267
      vertex -1.04528 40.0548 -5
      vertex -3.09017 40.4894 -5
    endloop
  endfacet
  facet normal -0.20791 -0.978148 -0
    outer loop
      vertex -1.04528 40.0548 -5
      vertex -3.09017 40.4894 -27.3267
      vertex -1.04528 40.0548 -27.3267
    endloop
  endfacet
  facet normal 0 -1 0
    outer loop
      vertex -1.04528 40.0548 -27.3267
      vertex 1.04528 40.0548 -5
      vertex -1.04528 40.0548 -5
    endloop
  endfacet
  facet normal 0 -1 -0
    outer loop
      vertex 1.04528 40.0548 -5
      vertex -1.04528 40.0548 -27.3267
      vertex 1.04528 40.0548 -27.3267
    endloop
  endfacet
  facet normal 0.994522 0.104529 -0
    outer loop
      vertex 10 50 -15
      vertex 9.78148 52.0791 -5
      vertex 10 50 -5
    endloop
  endfacet
  facet normal 0.994522 0.104529 0
    outer loop
      vertex 9.78148 52.0791 -5
      vertex 10 50 -15
      vertex 9.78148 52.0791 -27.3267
    endloop
  endfacet
  facet normal 0.994522 0.104529 0
    outer loop
      vertex 9.78148 52.0791 -27.3267
      vertex 10 50 -15
      vertex 10 50 -27.3267
    endloop
  endfacet
  facet normal 0.866025 0.5 0
    outer loop
      vertex 9.13545 54.0674 -5
      vertex 8.09017 55.8779 -27.3267
      vertex 8.09017 55.8779 -5
    endloop
  endfacet
  facet normal 0.866025 0.5 0
    outer loop
      vertex 8.09017 55.8779 -27.3267
      vertex 9.13545 54.0674 -5
      vertex 9.13545 54.0674 -27.3267
    endloop
  endfacet
  facet normal 0.587787 0.809016 1.25535e-08
    outer loop
      vertex 6.01164 57.9253 -5
      vertex 5 58.6603 -27.3267
      vertex 5 58.6603 -5
    endloop
  endfacet
  facet normal 0.20791 -0.978148 0
    outer loop
      vertex 1.04528 40.0548 -27.3267
      vertex 3.09017 40.4894 -5
      vertex 1.04528 40.0548 -5
    endloop
  endfacet
  facet normal 0.20791 -0.978148 0
    outer loop
      vertex 3.09017 40.4894 -5
      vertex 1.04528 40.0548 -27.3267
      vertex 3.09017 40.4894 -27.3267
    endloop
  endfacet
  facet normal 0.743145 -0.669131 0
    outer loop
      vertex 6.69131 42.5686 -5
      vertex 8.09017 44.1221 -27.3267
      vertex 8.09017 44.1221 -5
    endloop
  endfacet
  facet normal 0.743145 -0.669131 0
    outer loop
      vertex 8.09017 44.1221 -27.3267
      vertex 6.69131 42.5686 -5
      vertex 6.69131 42.5686 -27.3267
    endloop
  endfacet
  facet normal 0.994522 -0.104529 0
    outer loop
      vertex 9.78148 47.9209 -15
      vertex 10 50 -27.3267
      vertex 10 50 -15
    endloop
  endfacet
  facet normal 0.994522 -0.104529 0
    outer loop
      vertex 10 50 -27.3267
      vertex 9.78148 47.9209 -15
      vertex 9.78148 47.9209 -27.3267
    endloop
  endfacet
  facet normal -0.406738 0.913545 0
    outer loop
      vertex -3.09017 59.5106 -5
      vertex -3.09017 59.5106 -27.3267
      vertex -4.23252 59.002 -5
    endloop
  endfacet
  facet normal -0.20791 0.978148 0
    outer loop
      vertex -1.04528 59.9452 -27.3267
      vertex -3.09017 59.5106 -5
      vertex -1.04528 59.9452 -5
    endloop
  endfacet
  facet normal -0.20791 0.978148 0
    outer loop
      vertex -3.09017 59.5106 -5
      vertex -1.04528 59.9452 -27.3267
      vertex -3.09017 59.5106 -27.3267
    endloop
  endfacet
  facet normal -0.866025 0.5 0
    outer loop
      vertex -9.13545 54.0674 -27.3267
      vertex -8.09017 55.8779 -5
      vertex -8.09017 55.8779 -27.3267
    endloop
  endfacet
  facet normal -0.866025 0.5 0
    outer loop
      vertex -8.09017 55.8779 -5
      vertex -9.13545 54.0674 -27.3267
      vertex -9.13545 54.0674 -5
    endloop
  endfacet
  facet normal 0.951057 0.309017 0
    outer loop
      vertex 9.78148 52.0791 -5
      vertex 9.13545 54.0674 -27.3267
      vertex 9.13545 54.0674 -5
    endloop
  endfacet
  facet normal 0.951057 0.309017 0
    outer loop
      vertex 9.13545 54.0674 -27.3267
      vertex 9.78148 52.0791 -5
      vertex 9.78148 52.0791 -27.3267
    endloop
  endfacet
  facet normal 0.406737 0.913545 4.91665e-08
    outer loop
      vertex 3.09017 59.5106 -27.3267
      vertex 3.85765 59.1689 -5
      vertex 5 58.6603 -27.3267
    endloop
  endfacet
  facet normal 0.406738 0.913545 0
    outer loop
      vertex 3.85765 59.1689 -5
      vertex 3.09017 59.5106 -27.3267
      vertex 3.09017 59.5106 -5
    endloop
  endfacet
  facet normal 0.743145 0.669131 0
    outer loop
      vertex 8.09017 55.8779 -5
      vertex 6.69131 57.4314 -27.3267
      vertex 6.69131 57.4314 -5
    endloop
  endfacet
  facet normal 0.743145 0.669131 0
    outer loop
      vertex 6.69131 57.4314 -27.3267
      vertex 8.09017 55.8779 -5
      vertex 8.09017 55.8779 -27.3267
    endloop
  endfacet
  facet normal 0.406737 -0.913545 0
    outer loop
      vertex 3.09017 40.4894 -27.3267
      vertex 5 41.3397 -5
      vertex 3.09017 40.4894 -5
    endloop
  endfacet
  facet normal 0.406737 -0.913545 0
    outer loop
      vertex 5 41.3397 -5
      vertex 3.09017 40.4894 -27.3267
      vertex 5 41.3397 -27.3267
    endloop
  endfacet
  facet normal 0 0 -1
    outer loop
      vertex 9.78148 47.9209 -27.3267
      vertex 9.78148 52.0791 -27.3267
      vertex 10 50 -27.3267
    endloop
  endfacet
  facet normal 0 0 -1
    outer loop
      vertex 9.13545 45.9326 -27.3267
      vertex 9.78148 52.0791 -27.3267
      vertex 9.78148 47.9209 -27.3267
    endloop
  endfacet
  facet normal 0 0 -1
    outer loop
      vertex 9.13545 45.9326 -27.3267
      vertex 9.13545 54.0674 -27.3267
      vertex 9.78148 52.0791 -27.3267
    endloop
  endfacet
  facet normal 0 0 -1
    outer loop
      vertex 8.09017 44.1221 -27.3267
      vertex 9.13545 54.0674 -27.3267
      vertex 9.13545 45.9326 -27.3267
    endloop
  endfacet
  facet normal 0 0 -1
    outer loop
      vertex 8.09017 44.1221 -27.3267
      vertex 8.09017 55.8779 -27.3267
      vertex 9.13545 54.0674 -27.3267
    endloop
  endfacet
  facet normal 0 0 -1
    outer loop
      vertex 6.69131 42.5686 -27.3267
      vertex 8.09017 55.8779 -27.3267
      vertex 8.09017 44.1221 -27.3267
    endloop
  endfacet
  facet normal 0 0 -1
    outer loop
      vertex 6.69131 42.5686 -27.3267
      vertex 6.69131 57.4314 -27.3267
      vertex 8.09017 55.8779 -27.3267
    endloop
  endfacet
  facet normal 0 0 -1
    outer loop
      vertex 5 41.3397 -27.3267
      vertex 6.69131 57.4314 -27.3267
      vertex 6.69131 42.5686 -27.3267
    endloop
  endfacet
  facet normal 0 0 -1
    outer loop
      vertex 5 41.3397 -27.3267
      vertex 5 58.6603 -27.3267
      vertex 6.69131 57.4314 -27.3267
    endloop
  endfacet
  facet normal 0 0 -1
    outer loop
      vertex 3.09017 40.4894 -27.3267
      vertex 5 58.6603 -27.3267
      vertex 5 41.3397 -27.3267
    endloop
  endfacet
  facet normal 0 0 -1
    outer loop
      vertex 3.09017 40.4894 -27.3267
      vertex 3.09017 59.5106 -27.3267
      vertex 5 58.6603 -27.3267
    endloop
  endfacet
  facet normal 0 0 -1
    outer loop
      vertex 1.04528 40.0548 -27.3267
      vertex 3.09017 59.5106 -27.3267
      vertex 3.09017 40.4894 -27.3267
    endloop
  endfacet
  facet normal 0 0 -1
    outer loop
      vertex 1.04528 40.0548 -27.3267
      vertex 1.04528 59.9452 -27.3267
      vertex 3.09017 59.5106 -27.3267
    endloop
  endfacet
  facet normal 0 0 -1
    outer loop
      vertex -1.04528 40.0548 -27.3267
      vertex 1.04528 59.9452 -27.3267
      vertex 1.04528 40.0548 -27.3267
    endloop
  endfacet
  facet normal 0 0 -1
    outer loop
      vertex -1.04528 40.0548 -27.3267
      vertex -1.04528 59.9452 -27.3267
      vertex 1.04528 59.9452 -27.3267
    endloop
  endfacet
  facet normal 0 0 -1
    outer loop
      vertex -3.09017 40.4894 -27.3267
      vertex -1.04528 59.9452 -27.3267
      vertex -1.04528 40.0548 -27.3267
    endloop
  endfacet
  facet normal 0 0 -1
    outer loop
      vertex -3.09017 40.4894 -27.3267
      vertex -3.09017 59.5106 -27.3267
      vertex -1.04528 59.9452 -27.3267
    endloop
  endfacet
  facet normal 0 0 -1
    outer loop
      vertex -5 41.3397 -27.3267
      vertex -3.09017 59.5106 -27.3267
      vertex -3.09017 40.4894 -27.3267
    endloop
  endfacet
  facet normal 0 0 -1
    outer loop
      vertex -5 41.3397 -27.3267
      vertex -5 58.6603 -27.3267
      vertex -3.09017 59.5106 -27.3267
    endloop
  endfacet
  facet normal 0 0 -1
    outer loop
      vertex -6.69131 42.5686 -27.3267
      vertex -5 58.6603 -27.3267
      vertex -5 41.3397 -27.3267
    endloop
  endfacet
  facet normal 0 0 -1
    outer loop
      vertex -6.69131 42.5686 -27.3267
      vertex -6.69131 57.4314 -27.3267
      vertex -5 58.6603 -27.3267
    endloop
  endfacet
  facet normal 0 0 -1
    outer loop
      vertex -8.09017 44.1221 -27.3267
      vertex -6.69131 57.4314 -27.3267
      vertex -6.69131 42.5686 -27.3267
    endloop
  endfacet
  facet normal 0 0 -1
    outer loop
      vertex -8.09017 44.1221 -27.3267
      vertex -8.09017 55.8779 -27.3267
      vertex -6.69131 57.4314 -27.3267
    endloop
  endfacet
  facet normal 0 0 -1
    outer loop
      vertex -9.13545 45.9326 -27.3267
      vertex -8.09017 55.8779 -27.3267
      vertex -8.09017 44.1221 -27.3267
    endloop
  endfacet
  facet normal 0 0 -1
    outer loop
      vertex -9.13545 45.9326 -27.3267
      vertex -9.13545 54.0674 -27.3267
      vertex -8.09017 55.8779 -27.3267
    endloop
  endfacet
  facet normal 0 0 -1
    outer loop
      vertex -9.78148 47.9209 -27.3267
      vertex -9.13545 54.0674 -27.3267
      vertex -9.13545 45.9326 -27.3267
    endloop
  endfacet
  facet normal 0 0 -1
    outer loop
      vertex -9.78148 47.9209 -27.3267
      vertex -9.78148 52.0791 -27.3267
      vertex -9.13545 54.0674 -27.3267
    endloop
  endfacet
  facet normal 0 -0 -1
    outer loop
      vertex -9.78148 52.0791 -27.3267
      vertex -9.78148 47.9209 -27.3267
      vertex -10 50 -27.3267
    endloop
  endfacet
  facet normal -0.406738 -0.913545 0
    outer loop
      vertex -4.23252 40.998 -5
      vertex -3.09017 40.4894 -27.3267
      vertex -3.09017 40.4894 -5
    endloop
  endfacet
  facet normal -0.406734 -0.913546 -8.68675e-09
    outer loop
      vertex -5 41.3397 -27.3267
      vertex -4.23252 40.998 -5
      vertex -5 41.3397 -5
    endloop
  endfacet
  facet normal -0.406737 -0.913545 9.65286e-08
    outer loop
      vertex -4.23252 40.998 -5
      vertex -5 41.3397 -27.3267
      vertex -3.09017 40.4894 -27.3267
    endloop
  endfacet
  facet normal -0.587785 -0.809017 -0
    outer loop
      vertex -6.69131 42.5686 -5
      vertex -6.69131 42.5686 -27.3267
      vertex -5.67966 41.8335 -5
    endloop
  endfacet
  facet normal -0.866025 -0.5 0
    outer loop
      vertex -8.09017 44.1221 -27.3267
      vertex -9.13545 45.9326 -5
      vertex -9.13545 45.9326 -27.3267
    endloop
  endfacet
  facet normal -0.866025 -0.5 0
    outer loop
      vertex -9.13545 45.9326 -5
      vertex -8.09017 44.1221 -27.3267
      vertex -8.09017 44.1221 -5
    endloop
  endfacet
  facet normal -0.587785 0.809017 0
    outer loop
      vertex -5.67966 58.1665 -5
      vertex -6.69131 57.4314 -27.3267
      vertex -6.69131 57.4314 -5
    endloop
  endfacet
  facet normal -0.743145 0.669131 0
    outer loop
      vertex -8.09017 55.8779 -27.3267
      vertex -6.69131 57.4314 -5
      vertex -6.69131 57.4314 -27.3267
    endloop
  endfacet
  facet normal -0.743145 0.669131 0
    outer loop
      vertex -6.69131 57.4314 -5
      vertex -8.09017 55.8779 -27.3267
      vertex -8.09017 55.8779 -5
    endloop
  endfacet
  facet normal -0.406737 0.913545 9.65286e-08
    outer loop
      vertex -5 58.6603 -27.3267
      vertex -4.23252 59.002 -5
      vertex -3.09017 59.5106 -27.3267
    endloop
  endfacet
  facet normal -0.406734 0.913546 -8.68675e-09
    outer loop
      vertex -4.23252 59.002 -5
      vertex -5 58.6603 -27.3267
      vertex -5 58.6603 -5
    endloop
  endfacet
  facet normal 0.20791 0.978148 -0
    outer loop
      vertex 3.09017 59.5106 -27.3267
      vertex 1.04528 59.9452 -5
      vertex 3.09017 59.5106 -5
    endloop
  endfacet
  facet normal 0.20791 0.978148 0
    outer loop
      vertex 1.04528 59.9452 -5
      vertex 3.09017 59.5106 -27.3267
      vertex 1.04528 59.9452 -27.3267
    endloop
  endfacet
  facet normal 0.587783 0.809019 -0
    outer loop
      vertex 6.69131 57.4314 -27.3267
      vertex 6.01164 57.9253 -5
      vertex 6.69131 57.4314 -5
    endloop
  endfacet
  facet normal 0.587785 0.809017 1.30528e-07
    outer loop
      vertex 6.01164 57.9253 -5
      vertex 6.69131 57.4314 -27.3267
      vertex 5 58.6603 -27.3267
    endloop
  endfacet
  facet normal -0.743145 -0.669131 0
    outer loop
      vertex -6.69131 42.5686 -27.3267
      vertex -8.09017 44.1221 -5
      vertex -8.09017 44.1221 -27.3267
    endloop
  endfacet
  facet normal -0.743145 -0.669131 0
    outer loop
      vertex -8.09017 44.1221 -5
      vertex -6.69131 42.5686 -27.3267
      vertex -6.69131 42.5686 -5
    endloop
  endfacet
  facet normal -0.951057 -0.309017 0
    outer loop
      vertex -9.78148 47.9209 -27.3267
      vertex -9.64472 47.5 -15
      vertex -9.78148 47.9209 -15
    endloop
  endfacet
  facet normal -0.951057 -0.309017 3.51576e-09
    outer loop
      vertex -9.13545 45.9326 -27.3267
      vertex -9.64472 47.5 -15
      vertex -9.78148 47.9209 -27.3267
    endloop
  endfacet
  facet normal -0.951057 -0.309017 -0
    outer loop
      vertex -9.13545 45.9326 -5
      vertex -9.64472 47.5 -15
      vertex -9.13545 45.9326 -27.3267
    endloop
  endfacet
  facet normal -0.951057 -0.309017 0
    outer loop
      vertex -9.64472 47.5 -15
      vertex -9.13545 45.9326 -5
      vertex -9.64472 47.5 -5
    endloop
  endfacet
  facet normal -0.994522 -0.104528 0
    outer loop
      vertex -10 50 -27.3267
      vertex -9.85364 48.6075 -15
      vertex -10 50 -15
    endloop
  endfacet
  facet normal -0.994522 -0.104528 -4.4373e-08
    outer loop
      vertex -9.85364 48.6075 -15
      vertex -10 50 -27.3267
      vertex -9.78148 47.9209 -27.3267
    endloop
  endfacet
  facet normal -0.994522 -0.104529 0
    outer loop
      vertex -9.85364 48.6075 -15
      vertex -9.78148 47.9209 -27.3267
      vertex -9.78148 47.9209 -15
    endloop
  endfacet
  facet normal -0 0 1
    outer loop
      vertex -6.25 52.5 10
      vertex -3.75 47.5 10
      vertex -3.75 52.5 10
    endloop
  endfacet
  facet normal 0 0 1
    outer loop
      vertex -3.75 47.5 10
      vertex -6.25 52.5 10
      vertex -6.25 47.5 10
    endloop
  endfacet
  facet normal 1 -0 0
    outer loop
      vertex -3.75 47.5 10
      vertex -3.75 52.5 -5
      vertex -3.75 52.5 10
    endloop
  endfacet
  facet normal 1 0 0
    outer loop
      vertex -3.75 52.5 -5
      vertex -3.75 47.5 10
      vertex -3.75 47.5 -5
    endloop
  endfacet
  facet normal 0 -1 0
    outer loop
      vertex -6.25 47.5 -5
      vertex -3.75 47.5 10
      vertex -6.25 47.5 10
    endloop
  endfacet
  facet normal 0 -1 -0
    outer loop
      vertex -3.75 47.5 10
      vertex -6.25 47.5 -5
      vertex -3.75 47.5 -5
    endloop
  endfacet
  facet normal 0 1 -0
    outer loop
      vertex -3.75 52.5 -5
      vertex -6.25 52.5 10
      vertex -3.75 52.5 10
    endloop
  endfacet
  facet normal 0 1 0
    outer loop
      vertex -6.25 52.5 10
      vertex -3.75 52.5 -5
      vertex -6.25 52.5 -5
    endloop
  endfacet
  facet normal -2.52335e-16 -3.09473e-17 1
    outer loop
      vertex 3.75 50 9.46257e-16
      vertex 6.25 45 1.42236e-15
      vertex 6.25 50 1.5771e-15
    endloop
  endfacet
  facet normal -2.52335e-16 -3.09473e-17 1
    outer loop
      vertex 6.25 45 1.42236e-15
      vertex 3.75 50 9.46257e-16
      vertex 3.75 45 7.91521e-16
    endloop
  endfacet
  facet normal 0 1 -0
    outer loop
      vertex 6.25 50 -5
      vertex 3.75 50 9.46257e-16
      vertex 6.25 50 1.5771e-15
    endloop
  endfacet
  facet normal 0 1 0
    outer loop
      vertex 3.75 50 9.46257e-16
      vertex 6.25 50 -5
      vertex 3.75 50 -5
    endloop
  endfacet
  facet normal -1 0 0
    outer loop
      vertex 3.75 45 -5
      vertex 3.75 50 9.46257e-16
      vertex 3.75 50 -5
    endloop
  endfacet
  facet normal -1 0 0
    outer loop
      vertex 3.75 50 9.46257e-16
      vertex 3.75 45 -5
      vertex 3.75 45 7.91521e-16
    endloop
  endfacet
  facet normal 0 -1 0
    outer loop
      vertex 3.75 45 -5
      vertex 6.25 45 1.42236e-15
      vertex 3.75 45 7.91521e-16
    endloop
  endfacet
  facet normal 0 -1 -0
    outer loop
      vertex 6.25 45 1.42236e-15
      vertex 3.75 45 -5
      vertex 6.25 45 -5
    endloop
  endfacet
endsolid OpenSCAD_Model
