solid OpenSCAD_Model
  facet normal 0 0.19509 -0.980785
    outer loop
      vertex 30.9017 1.91342 -4.6194
      vertex 5 0.701713 -4.86042
      vertex 5 1.91342 -4.6194
    endloop
  endfacet
  facet normal 1.80558e-08 0.19509 -0.980785
    outer loop
      vertex 5 0.701713 -4.86042
      vertex 30.9017 1.0814e-15 -5
      vertex 5 1.45844e-17 -5
    endloop
  endfacet
  facet normal 1.55743e-08 0.19509 -0.980785
    outer loop
      vertex 30.9017 1.0814e-15 -5
      vertex 5 0.701713 -4.86042
      vertex 30.9017 1.91342 -4.6194
    endloop
  endfacet
  facet normal -0 0.195091 0.980785
    outer loop
      vertex 5 1.91342 4.6194
      vertex 30.9017 1.4641e-15 5
      vertex 30.9017 1.91342 4.6194
    endloop
  endfacet
  facet normal -8.03518e-18 0.195091 0.980785
    outer loop
      vertex 30.9017 1.4641e-15 5
      vertex 5 1.91342 4.6194
      vertex 5 3.97285e-16 5
    endloop
  endfacet
  facet normal 0 -0.980785 0.195091
    outer loop
      vertex 5 -5 -3.78935e-16
      vertex 30.9017 -4.6194 1.91342
      vertex 5 -4.6194 1.91342
    endloop
  endfacet
  facet normal 6.59125e-18 -0.980785 0.195091
    outer loop
      vertex 30.9017 -4.6194 1.91342
      vertex 5 -5 -3.78935e-16
      vertex 30.9017 -5 -1.35069e-15
    endloop
  endfacet
  facet normal 0 0.83147 -0.55557
    outer loop
      vertex 30.9017 3.53553 -3.53553
      vertex 5 4.6194 -1.91342
      vertex 30.9017 4.6194 -1.91342
    endloop
  endfacet
  facet normal 0 0.83147 -0.55557
    outer loop
      vertex 5 4.6194 -1.91342
      vertex 30.9017 3.53553 -3.53553
      vertex 5 3.53553 -3.53553
    endloop
  endfacet
  facet normal 0 0.55557 -0.83147
    outer loop
      vertex 5 1.91342 -4.6194
      vertex 30.9017 3.53553 -3.53553
      vertex 30.9017 1.91342 -4.6194
    endloop
  endfacet
  facet normal 0 0.55557 -0.83147
    outer loop
      vertex 30.9017 3.53553 -3.53553
      vertex 5 1.91342 -4.6194
      vertex 5 3.53553 -3.53553
    endloop
  endfacet
  facet normal -6.59125e-18 -0.980785 -0.195091
    outer loop
      vertex 5 -4.6194 -1.91342
      vertex 30.9017 -5 -1.35069e-15
      vertex 5 -5 -3.78935e-16
    endloop
  endfacet
  facet normal 0 -0.980785 -0.195091
    outer loop
      vertex 30.9017 -5 -1.35069e-15
      vertex 5 -4.6194 -1.91342
      vertex 30.9017 -4.6194 -1.91342
    endloop
  endfacet
  facet normal 0 0.980785 0.195091
    outer loop
      vertex 30.9017 4.6194 1.91342
      vertex 5 5 3.76547e-18
      vertex 5 4.6194 1.91342
    endloop
  endfacet
  facet normal 7.3192e-18 0.980785 0.195091
    outer loop
      vertex 5 5 3.76547e-18
      vertex 30.9017 4.6194 1.91342
      vertex 30.9017 5 -9.67987e-16
    endloop
  endfacet
  facet normal -0 0.55557 0.83147
    outer loop
      vertex 5 3.53553 3.53553
      vertex 30.9017 1.91342 4.6194
      vertex 30.9017 3.53553 3.53553
    endloop
  endfacet
  facet normal 0 0.55557 0.83147
    outer loop
      vertex 30.9017 1.91342 4.6194
      vertex 5 3.53553 3.53553
      vertex 5 1.91342 4.6194
    endloop
  endfacet
  facet normal 0 0.83147 0.55557
    outer loop
      vertex 30.9017 4.6194 1.91342
      vertex 5 3.53553 3.53553
      vertex 30.9017 3.53553 3.53553
    endloop
  endfacet
  facet normal 0 0.83147 0.55557
    outer loop
      vertex 5 3.53553 3.53553
      vertex 30.9017 4.6194 1.91342
      vertex 5 4.6194 1.91342
    endloop
  endfacet
  facet normal 8.03518e-18 -0.195091 0.980785
    outer loop
      vertex 5 3.97285e-16 5
      vertex 30.9017 -1.91342 4.6194
      vertex 30.9017 1.4641e-15 5
    endloop
  endfacet
  facet normal 0 -0.195091 0.980785
    outer loop
      vertex 30.9017 -1.91342 4.6194
      vertex 5 3.97285e-16 5
      vertex 5 -1.91342 4.6194
    endloop
  endfacet
  facet normal 0 -0.83147 0.55557
    outer loop
      vertex 5 -4.6194 1.91342
      vertex 30.9017 -3.53553 3.53553
      vertex 5 -3.53553 3.53553
    endloop
  endfacet
  facet normal 0 -0.83147 0.55557
    outer loop
      vertex 30.9017 -3.53553 3.53553
      vertex 5 -4.6194 1.91342
      vertex 30.9017 -4.6194 1.91342
    endloop
  endfacet
  facet normal 0 -0.55557 0.83147
    outer loop
      vertex 5 -1.91342 4.6194
      vertex 30.9017 -3.53553 3.53553
      vertex 30.9017 -1.91342 4.6194
    endloop
  endfacet
  facet normal 0 -0.55557 0.83147
    outer loop
      vertex 30.9017 -3.53553 3.53553
      vertex 5 -1.91342 4.6194
      vertex 5 -3.53553 3.53553
    endloop
  endfacet
  facet normal 0 -0.55557 -0.83147
    outer loop
      vertex 5 -3.53553 -3.53553
      vertex 30.9017 -1.91342 -4.6194
      vertex 30.9017 -3.53553 -3.53553
    endloop
  endfacet
  facet normal -0 -0.55557 -0.83147
    outer loop
      vertex 30.9017 -1.91342 -4.6194
      vertex 5 -3.53553 -3.53553
      vertex 5 -1.91342 -4.6194
    endloop
  endfacet
  facet normal 0 -0.83147 -0.55557
    outer loop
      vertex 5 -3.53553 -3.53553
      vertex 30.9017 -4.6194 -1.91342
      vertex 5 -4.6194 -1.91342
    endloop
  endfacet
  facet normal 0 -0.83147 -0.55557
    outer loop
      vertex 30.9017 -4.6194 -1.91342
      vertex 5 -3.53553 -3.53553
      vertex 30.9017 -3.53553 -3.53553
    endloop
  endfacet
  facet normal -6.59125e-18 0.980785 -0.195091
    outer loop
      vertex 30.9017 4.6194 -1.91342
      vertex 5 5 3.76547e-18
      vertex 30.9017 5 -9.67987e-16
    endloop
  endfacet
  facet normal 0 0.980785 -0.195091
    outer loop
      vertex 5 5 3.76547e-18
      vertex 30.9017 4.6194 -1.91342
      vertex 5 4.6194 -1.91342
    endloop
  endfacet
  facet normal 1 0 0
    outer loop
      vertex 30.9017 4.6194 1.91342
      vertex 30.9017 4.6194 -1.91342
      vertex 30.9017 5 -9.67987e-16
    endloop
  endfacet
  facet normal 1 0 0
    outer loop
      vertex 30.9017 3.53553 3.53553
      vertex 30.9017 4.6194 -1.91342
      vertex 30.9017 4.6194 1.91342
    endloop
  endfacet
  facet normal 1 0 0
    outer loop
      vertex 30.9017 3.53553 3.53553
      vertex 30.9017 3.53553 -3.53553
      vertex 30.9017 4.6194 -1.91342
    endloop
  endfacet
  facet normal 1 0 0
    outer loop
      vertex 30.9017 1.91342 4.6194
      vertex 30.9017 3.53553 -3.53553
      vertex 30.9017 3.53553 3.53553
    endloop
  endfacet
  facet normal 1 0 0
    outer loop
      vertex 30.9017 1.91342 4.6194
      vertex 30.9017 1.91342 -4.6194
      vertex 30.9017 3.53553 -3.53553
    endloop
  endfacet
  facet normal 1 0 0
    outer loop
      vertex 30.9017 1.4641e-15 5
      vertex 30.9017 1.91342 -4.6194
      vertex 30.9017 1.91342 4.6194
    endloop
  endfacet
  facet normal 1 0 0
    outer loop
      vertex 30.9017 1.4641e-15 5
      vertex 30.9017 1.0814e-15 -5
      vertex 30.9017 1.91342 -4.6194
    endloop
  endfacet
  facet normal 1 -0 0
    outer loop
      vertex 30.9017 -1.91342 4.6194
      vertex 30.9017 1.0814e-15 -5
      vertex 30.9017 1.4641e-15 5
    endloop
  endfacet
  facet normal 1 0 0
    outer loop
      vertex 30.9017 -1.91342 4.6194
      vertex 30.9017 -1.91342 -4.6194
      vertex 30.9017 1.0814e-15 -5
    endloop
  endfacet
  facet normal 1 -0 0
    outer loop
      vertex 30.9017 -3.53553 3.53553
      vertex 30.9017 -1.91342 -4.6194
      vertex 30.9017 -1.91342 4.6194
    endloop
  endfacet
  facet normal 1 0 0
    outer loop
      vertex 30.9017 -3.53553 3.53553
      vertex 30.9017 -3.53553 -3.53553
      vertex 30.9017 -1.91342 -4.6194
    endloop
  endfacet
  facet normal 1 -0 0
    outer loop
      vertex 30.9017 -4.6194 1.91342
      vertex 30.9017 -3.53553 -3.53553
      vertex 30.9017 -3.53553 3.53553
    endloop
  endfacet
  facet normal 1 0 0
    outer loop
      vertex 30.9017 -4.6194 1.91342
      vertex 30.9017 -4.6194 -1.91342
      vertex 30.9017 -3.53553 -3.53553
    endloop
  endfacet
  facet normal 1 0 -0
    outer loop
      vertex 30.9017 -4.6194 -1.91342
      vertex 30.9017 -4.6194 1.91342
      vertex 30.9017 -5 -1.35069e-15
    endloop
  endfacet
  facet normal 1.55743e-08 -0.19509 -0.980785
    outer loop
      vertex 5 -0.701713 -4.86042
      vertex 30.9017 1.0814e-15 -5
      vertex 30.9017 -1.91342 -4.6194
    endloop
  endfacet
  facet normal 1.80558e-08 -0.19509 -0.980785
    outer loop
      vertex 30.9017 1.0814e-15 -5
      vertex 5 -0.701713 -4.86042
      vertex 5 1.45844e-17 -5
    endloop
  endfacet
  facet normal -0 -0.19509 -0.980785
    outer loop
      vertex 30.9017 -1.91342 -4.6194
      vertex 5 -1.91342 -4.6194
      vertex 5 -0.701713 -4.86042
    endloop
  endfacet
  facet normal -1 0 0
    outer loop
      vertex 5 2.5 0.833333
      vertex 5 5 3.76547e-18
      vertex 5 4.6194 -1.91342
    endloop
  endfacet
  facet normal -1 0 0
    outer loop
      vertex 5 2.5 0.833333
      vertex 5 4.6194 -1.91342
      vertex 5 3.53553 -3.53553
    endloop
  endfacet
  facet normal -1 0 0
    outer loop
      vertex 5 5 3.76547e-18
      vertex 5 2.5 0.833333
      vertex 5 4.6194 1.91342
    endloop
  endfacet
  facet normal -1 -0 0
    outer loop
      vertex 5 4.6194 1.91342
      vertex 5 2.5 0.833333
      vertex 5 3.53553 3.53553
    endloop
  endfacet
  facet normal -1 0 0
    outer loop
      vertex 5 2.37826e-16 0.833333
      vertex 5 3.53553 -3.53553
      vertex 5 1.91342 -4.6194
    endloop
  endfacet
  facet normal -1 0 0
    outer loop
      vertex 5 2.37826e-16 0.833333
      vertex 5 1.91342 -4.6194
      vertex 5 0.701713 -4.86042
    endloop
  endfacet
  facet normal -1 0 0
    outer loop
      vertex 5 3.53553 -3.53553
      vertex 5 2.37826e-16 0.833333
      vertex 5 2.5 0.833333
    endloop
  endfacet
  facet normal -1 0 0
    outer loop
      vertex 5 -0.701713 -4.86042
      vertex 5 0.701713 -4.86042
      vertex 5 1.45844e-17 -5
    endloop
  endfacet
  facet normal -1 0 0
    outer loop
      vertex 5 2.5 4.16667
      vertex 5 3.53553 3.53553
      vertex 5 2.5 0.833333
    endloop
  endfacet
  facet normal -1 0 0
    outer loop
      vertex 5 2.5 4.16667
      vertex 5 1.91342 4.6194
      vertex 5 3.53553 3.53553
    endloop
  endfacet
  facet normal -1 0 0
    outer loop
      vertex 5 3.65393e-16 4.16667
      vertex 5 1.91342 4.6194
      vertex 5 2.5 4.16667
    endloop
  endfacet
  facet normal -1 -0 0
    outer loop
      vertex 5 1.91342 4.6194
      vertex 5 3.65393e-16 4.16667
      vertex 5 3.97285e-16 5
    endloop
  endfacet
  facet normal -1 0 0
    outer loop
      vertex 5 -1.91342 4.6194
      vertex 5 3.65393e-16 4.16667
      vertex 5 2.37826e-16 0.833333
    endloop
  endfacet
  facet normal -1 0 0
    outer loop
      vertex 5 0.701713 -4.86042
      vertex 5 -0.701713 -4.86042
      vertex 5 2.37826e-16 0.833333
    endloop
  endfacet
  facet normal -1 0 0
    outer loop
      vertex 5 -1.91342 -4.6194
      vertex 5 2.37826e-16 0.833333
      vertex 5 -0.701713 -4.86042
    endloop
  endfacet
  facet normal -1 0 0
    outer loop
      vertex 5 2.37826e-16 0.833333
      vertex 5 -1.91342 -4.6194
      vertex 5 -3.53553 -3.53553
    endloop
  endfacet
  facet normal -1 0 0
    outer loop
      vertex 5 3.65393e-16 4.16667
      vertex 5 -1.91342 4.6194
      vertex 5 3.97285e-16 5
    endloop
  endfacet
  facet normal -1 0 0
    outer loop
      vertex 5 2.37826e-16 0.833333
      vertex 5 -3.53553 -3.53553
      vertex 5 -4.6194 -1.91342
    endloop
  endfacet
  facet normal -1 0 0
    outer loop
      vertex 5 2.37826e-16 0.833333
      vertex 5 -3.53553 3.53553
      vertex 5 -1.91342 4.6194
    endloop
  endfacet
  facet normal -1 0 0
    outer loop
      vertex 5 -5 -3.78935e-16
      vertex 5 2.37826e-16 0.833333
      vertex 5 -4.6194 -1.91342
    endloop
  endfacet
  facet normal -1 0 0
    outer loop
      vertex 5 2.37826e-16 0.833333
      vertex 5 -4.6194 1.91342
      vertex 5 -3.53553 3.53553
    endloop
  endfacet
  facet normal -1 -0 0
    outer loop
      vertex 5 2.37826e-16 0.833333
      vertex 5 -5 -3.78935e-16
      vertex 5 -4.6194 1.91342
    endloop
  endfacet
  facet normal -1 0 0
    outer loop
      vertex -5 2.5 0.833333
      vertex -5 -4.64761e-17 4.16667
      vertex -5 2.5 4.16667
    endloop
  endfacet
  facet normal -1 0 -0
    outer loop
      vertex -5 -4.64761e-17 4.16667
      vertex -5 2.5 0.833333
      vertex -5 -1.74043e-16 0.833333
    endloop
  endfacet
  facet normal -0 0 1
    outer loop
      vertex -5 2.5 4.16667
      vertex 5 3.65393e-16 4.16667
      vertex 5 2.5 4.16667
    endloop
  endfacet
  facet normal 0 0 1
    outer loop
      vertex 5 3.65393e-16 4.16667
      vertex -5 2.5 4.16667
      vertex -5 -4.64761e-17 4.16667
    endloop
  endfacet
  facet normal 0 0 -1
    outer loop
      vertex -5 -1.74043e-16 0.833333
      vertex 5 2.5 0.833333
      vertex 5 2.37826e-16 0.833333
    endloop
  endfacet
  facet normal -0 0 -1
    outer loop
      vertex 5 2.5 0.833333
      vertex -5 -1.74043e-16 0.833333
      vertex -5 2.5 0.833333
    endloop
  endfacet
  facet normal 4.11869e-17 -1 3.827e-17
    outer loop
      vertex -5 -1.74043e-16 0.833333
      vertex 5 3.65393e-16 4.16667
      vertex -5 -4.64761e-17 4.16667
    endloop
  endfacet
  facet normal 4.11869e-17 -1 3.827e-17
    outer loop
      vertex 5 3.65393e-16 4.16667
      vertex -5 -1.74043e-16 0.833333
      vertex 5 2.37826e-16 0.833333
    endloop
  endfacet
  facet normal 0 1 -0
    outer loop
      vertex 5 2.5 0.833333
      vertex -5 2.5 4.16667
      vertex 5 2.5 4.16667
    endloop
  endfacet
  facet normal 0 1 0
    outer loop
      vertex -5 2.5 4.16667
      vertex 5 2.5 0.833333
      vertex -5 2.5 0.833333
    endloop
  endfacet
endsolid OpenSCAD_Model
