solid OpenSCAD_Model
  facet normal -0.994522 0.104529 0
    outer loop
      vertex -9.85525 1.37717 -17.0926
      vertex -9.78148 2.07912 -16.8773
      vertex -9.78148 2.07912 -30.9017
    endloop
  endfacet
  facet normal -0.994522 0.104529 3.83977e-08
    outer loop
      vertex -9.78148 2.07912 -30.9017
      vertex -9.8896 1.05034 -17.1929
      vertex -9.85525 1.37717 -17.0926
    endloop
  endfacet
  facet normal -0.994522 0.104529 -1.52143e-08
    outer loop
      vertex -9.78148 2.07912 -30.9017
      vertex -9.96929 0.292157 -17.2394
      vertex -9.8896 1.05034 -17.1929
    endloop
  endfacet
  facet normal -0.994522 0.104528 -3.70728e-08
    outer loop
      vertex -10 8.90046e-16 -30.9017
      vertex -9.96929 0.292157 -17.2394
      vertex -9.78148 2.07912 -30.9017
    endloop
  endfacet
  facet normal -0.994522 0.104527 4.32785e-18
    outer loop
      vertex -9.96929 0.292157 -17.2394
      vertex -10 8.90046e-16 -30.9017
      vertex -10 3.28073e-16 -17.2573
    endloop
  endfacet
  facet normal 0 1 -0
    outer loop
      vertex 1.04528 9.94522 -30.9017
      vertex -1.04528 9.94522 -10
      vertex 1.04528 9.94522 -10
    endloop
  endfacet
  facet normal 0 1 0
    outer loop
      vertex -1.04528 9.94522 -10
      vertex 1.04528 9.94522 -30.9017
      vertex -1.04528 9.94522 -30.9017
    endloop
  endfacet
  facet normal -0.951057 0.309017 0
    outer loop
      vertex -9.13545 4.06737 -30.9017
      vertex -9.45139 3.095 -16.4368
      vertex -9.13545 4.06737 -15.7538
    endloop
  endfacet
  facet normal -0.951057 0.309017 0
    outer loop
      vertex -9.78148 2.07912 -16.8773
      vertex -9.13545 4.06737 -30.9017
      vertex -9.78148 2.07912 -30.9017
    endloop
  endfacet
  facet normal -0.951056 0.309017 4.67601e-08
    outer loop
      vertex -9.13545 4.06737 -30.9017
      vertex -9.78148 2.07912 -16.8773
      vertex -9.45139 3.095 -16.4368
    endloop
  endfacet
  facet normal -0.587785 0.809017 -1.12976e-05
    outer loop
      vertex -5 8.66025 -10
      vertex -5.74548 8.11863 -10.0485
      vertex -5.7735 8.09827 -10
    endloop
  endfacet
  facet normal -0.587786 0.809017 9.00453e-06
    outer loop
      vertex -5 8.66025 -10
      vertex -5.78054 8.09315 -10.1198
      vertex -5.74548 8.11863 -10.0485
    endloop
  endfacet
  facet normal -0.587785 0.809017 -1.83003e-07
    outer loop
      vertex -5 8.66025 -10
      vertex -5.83539 8.05331 -10.2026
      vertex -5.78054 8.09315 -10.1198
    endloop
  endfacet
  facet normal -0.587785 0.809017 -1.34093e-08
    outer loop
      vertex -5 8.66025 -30.9017
      vertex -5.83539 8.05331 -10.2026
      vertex -5 8.66025 -10
    endloop
  endfacet
  facet normal -0.587785 0.809017 -2.19101e-08
    outer loop
      vertex -5.83539 8.05331 -10.2026
      vertex -5 8.66025 -30.9017
      vertex -6.69131 7.43145 -30.9017
    endloop
  endfacet
  facet normal 0.406737 0.913545 9.27901e-09
    outer loop
      vertex 5 8.66025 -30.9017
      vertex 4.02403 9.09478 -10
      vertex 5 8.66025 -10
    endloop
  endfacet
  facet normal 0.951057 -0.309017 0
    outer loop
      vertex 9.13545 -4.06737 -10
      vertex 9.78148 -2.07912 -30.9017
      vertex 9.78148 -2.07912 -10
    endloop
  endfacet
  facet normal 0.951057 -0.309017 0
    outer loop
      vertex 9.78148 -2.07912 -30.9017
      vertex 9.13545 -4.06737 -10
      vertex 9.13545 -4.06737 -30.9017
    endloop
  endfacet
  facet normal 0.587785 -0.809017 0
    outer loop
      vertex 5 -8.66025 -30.9017
      vertex 6.69131 -7.43145 -10
      vertex 5 -8.66025 -10
    endloop
  endfacet
  facet normal 0.587785 -0.809017 0
    outer loop
      vertex 6.69131 -7.43145 -10
      vertex 5 -8.66025 -30.9017
      vertex 6.69131 -7.43145 -30.9017
    endloop
  endfacet
  facet normal 0.866026 -0.5 0
    outer loop
      vertex 8.09017 -5.87785 -10
      vertex 9.13545 -4.06737 -30.9017
      vertex 9.13545 -4.06737 -10
    endloop
  endfacet
  facet normal 0.866026 -0.5 0
    outer loop
      vertex 9.13545 -4.06737 -30.9017
      vertex 8.09017 -5.87785 -10
      vertex 8.09017 -5.87785 -30.9017
    endloop
  endfacet
  facet normal -0.406737 -0.913545 -9.27902e-09
    outer loop
      vertex -5 -8.66025 -30.9017
      vertex -4.06614 -9.07604 -10
      vertex -5 -8.66025 -10
    endloop
  endfacet
  facet normal -0.406737 -0.913545 -1.79119e-08
    outer loop
      vertex -4.06614 -9.07604 -10
      vertex -5 -8.66025 -30.9017
      vertex -3.09017 -9.51056 -30.9017
    endloop
  endfacet
  facet normal -0.951057 -0.309017 0
    outer loop
      vertex -9.13545 -4.06737 -30.9017
      vertex -9.78148 -2.07912 -16.8774
      vertex -9.78148 -2.07912 -30.9017
    endloop
  endfacet
  facet normal -0.951056 -0.309017 4.76416e-08
    outer loop
      vertex -9.78148 -2.07912 -16.8774
      vertex -9.13545 -4.06737 -30.9017
      vertex -9.45453 -3.08534 -16.4422
    endloop
  endfacet
  facet normal -0.951057 -0.309017 0
    outer loop
      vertex -9.45453 -3.08534 -16.4422
      vertex -9.13545 -4.06737 -30.9017
      vertex -9.13545 -4.06737 -15.7538
    endloop
  endfacet
  facet normal -0.207911 -0.978148 0
    outer loop
      vertex -3.09017 -9.51056 -30.9017
      vertex -1.04528 -9.94522 -10
      vertex -3.09017 -9.51056 -10
    endloop
  endfacet
  facet normal -0.207911 -0.978148 -0
    outer loop
      vertex -1.04528 -9.94522 -10
      vertex -3.09017 -9.51056 -30.9017
      vertex -1.04528 -9.94522 -30.9017
    endloop
  endfacet
  facet normal 0 -1 0
    outer loop
      vertex -1.04528 -9.94522 -30.9017
      vertex 1.04528 -9.94522 -10
      vertex -1.04528 -9.94522 -10
    endloop
  endfacet
  facet normal 0 -1 -0
    outer loop
      vertex 1.04528 -9.94522 -10
      vertex -1.04528 -9.94522 -30.9017
      vertex 1.04528 -9.94522 -30.9017
    endloop
  endfacet
  facet normal 0.994522 0.104529 0
    outer loop
      vertex 9.78148 2.07912 -10
      vertex 10 1.65545e-15 -30.9017
      vertex 9.78148 2.07912 -30.9017
    endloop
  endfacet
  facet normal 0.994522 0.104529 4.30522e-18
    outer loop
      vertex 10 1.65545e-15 -30.9017
      vertex 9.78148 2.07912 -10
      vertex 10 7.9457e-16 -10
    endloop
  endfacet
  facet normal 0.866026 0.5 0
    outer loop
      vertex 9.13545 4.06737 -10
      vertex 8.09017 5.87785 -30.9017
      vertex 8.09017 5.87785 -10
    endloop
  endfacet
  facet normal 0.866026 0.5 0
    outer loop
      vertex 8.09017 5.87785 -30.9017
      vertex 9.13545 4.06737 -10
      vertex 9.13545 4.06737 -30.9017
    endloop
  endfacet
  facet normal 0.587785 0.809017 1.34093e-08
    outer loop
      vertex 5 8.66025 -30.9017
      vertex 5 8.66025 -10
      vertex 5.8643 8.03231 -10
    endloop
  endfacet
  facet normal 0.207911 -0.978148 0
    outer loop
      vertex 1.04528 -9.94522 -10
      vertex 3.09017 -9.51056 -30.9017
      vertex 3.09017 -9.51056 -10
    endloop
  endfacet
  facet normal 0.207911 -0.978148 0
    outer loop
      vertex 3.09017 -9.51056 -30.9017
      vertex 1.04528 -9.94522 -10
      vertex 1.04528 -9.94522 -30.9017
    endloop
  endfacet
  facet normal 0.743145 -0.669131 0
    outer loop
      vertex 6.69131 -7.43145 -10
      vertex 8.09017 -5.87785 -30.9017
      vertex 8.09017 -5.87785 -10
    endloop
  endfacet
  facet normal 0.743145 -0.669131 0
    outer loop
      vertex 8.09017 -5.87785 -30.9017
      vertex 6.69131 -7.43145 -10
      vertex 6.69131 -7.43145 -30.9017
    endloop
  endfacet
  facet normal 0.994522 -0.104529 -5.08152e-18
    outer loop
      vertex 9.78148 -2.07912 -10
      vertex 10 1.65545e-15 -30.9017
      vertex 10 7.9457e-16 -10
    endloop
  endfacet
  facet normal 0.994522 -0.104529 0
    outer loop
      vertex 10 1.65545e-15 -30.9017
      vertex 9.78148 -2.07912 -10
      vertex 9.78148 -2.07912 -30.9017
    endloop
  endfacet
  facet normal -0.406737 0.913546 0
    outer loop
      vertex -4.06614 9.07604 -10
      vertex -3.09017 9.51056 -10
      vertex -3.09017 9.51056 -30.9017
    endloop
  endfacet
  facet normal -0.207911 0.978148 0
    outer loop
      vertex -1.04528 9.94522 -30.9017
      vertex -3.09017 9.51056 -10
      vertex -1.04528 9.94522 -10
    endloop
  endfacet
  facet normal -0.207911 0.978148 0
    outer loop
      vertex -3.09017 9.51056 -10
      vertex -1.04528 9.94522 -30.9017
      vertex -3.09017 9.51056 -30.9017
    endloop
  endfacet
  facet normal -0.866026 0.5 0
    outer loop
      vertex -8.09017 5.87785 -30.9017
      vertex -8.59446 5.0044 -14.9591
      vertex -8.09017 5.87785 -13.9344
    endloop
  endfacet
  facet normal -0.866026 0.5 0
    outer loop
      vertex -9.13545 4.06737 -15.7538
      vertex -8.09017 5.87785 -30.9017
      vertex -9.13545 4.06737 -30.9017
    endloop
  endfacet
  facet normal -0.866026 0.5 -8.71261e-09
    outer loop
      vertex -8.09017 5.87785 -30.9017
      vertex -9.13545 4.06737 -15.7538
      vertex -8.59446 5.0044 -14.9591
    endloop
  endfacet
  facet normal 0.951057 0.309017 0
    outer loop
      vertex 9.78148 2.07912 -10
      vertex 9.13545 4.06737 -30.9017
      vertex 9.13545 4.06737 -10
    endloop
  endfacet
  facet normal 0.951057 0.309017 0
    outer loop
      vertex 9.13545 4.06737 -30.9017
      vertex 9.78148 2.07912 -10
      vertex 9.78148 2.07912 -30.9017
    endloop
  endfacet
  facet normal 0.406737 0.913545 8.42831e-09
    outer loop
      vertex 3.09017 9.51056 -30.9017
      vertex 4.02403 9.09478 -10
      vertex 5 8.66025 -30.9017
    endloop
  endfacet
  facet normal 0.406737 0.913545 0
    outer loop
      vertex 4.02403 9.09478 -10
      vertex 3.09017 9.51056 -30.9017
      vertex 3.09017 9.51056 -10
    endloop
  endfacet
  facet normal 0.743145 0.669131 0
    outer loop
      vertex 8.09017 5.87785 -10
      vertex 6.69131 7.43145 -30.9017
      vertex 6.69131 7.43145 -10
    endloop
  endfacet
  facet normal 0.743145 0.669131 0
    outer loop
      vertex 6.69131 7.43145 -30.9017
      vertex 8.09017 5.87785 -10
      vertex 8.09017 5.87785 -30.9017
    endloop
  endfacet
  facet normal 0.406737 -0.913545 0
    outer loop
      vertex 3.09017 -9.51056 -30.9017
      vertex 5 -8.66025 -10
      vertex 3.09017 -9.51056 -10
    endloop
  endfacet
  facet normal 0.406737 -0.913545 0
    outer loop
      vertex 5 -8.66025 -10
      vertex 3.09017 -9.51056 -30.9017
      vertex 5 -8.66025 -30.9017
    endloop
  endfacet
  facet normal 0 0 -1
    outer loop
      vertex 9.78148 -2.07912 -30.9017
      vertex 9.78148 2.07912 -30.9017
      vertex 10 1.65545e-15 -30.9017
    endloop
  endfacet
  facet normal 0 0 -1
    outer loop
      vertex 9.13545 -4.06737 -30.9017
      vertex 9.78148 2.07912 -30.9017
      vertex 9.78148 -2.07912 -30.9017
    endloop
  endfacet
  facet normal 0 0 -1
    outer loop
      vertex 9.13545 -4.06737 -30.9017
      vertex 9.13545 4.06737 -30.9017
      vertex 9.78148 2.07912 -30.9017
    endloop
  endfacet
  facet normal 0 0 -1
    outer loop
      vertex 8.09017 -5.87785 -30.9017
      vertex 9.13545 4.06737 -30.9017
      vertex 9.13545 -4.06737 -30.9017
    endloop
  endfacet
  facet normal 0 0 -1
    outer loop
      vertex 8.09017 -5.87785 -30.9017
      vertex 8.09017 5.87785 -30.9017
      vertex 9.13545 4.06737 -30.9017
    endloop
  endfacet
  facet normal 0 0 -1
    outer loop
      vertex 6.69131 -7.43145 -30.9017
      vertex 8.09017 5.87785 -30.9017
      vertex 8.09017 -5.87785 -30.9017
    endloop
  endfacet
  facet normal 0 0 -1
    outer loop
      vertex 6.69131 -7.43145 -30.9017
      vertex 6.69131 7.43145 -30.9017
      vertex 8.09017 5.87785 -30.9017
    endloop
  endfacet
  facet normal 0 0 -1
    outer loop
      vertex 5 -8.66025 -30.9017
      vertex 6.69131 7.43145 -30.9017
      vertex 6.69131 -7.43145 -30.9017
    endloop
  endfacet
  facet normal 1.04773e-06 -1.10121e-07 -1
    outer loop
      vertex 5 -8.66025 -30.9017
      vertex 5 8.66025 -30.9017
      vertex 6.69131 7.43145 -30.9017
    endloop
  endfacet
  facet normal 4.9029e-08 -1.10121e-07 -1
    outer loop
      vertex 3.09017 -9.51056 -30.9017
      vertex 5 8.66025 -30.9017
      vertex 5 -8.66025 -30.9017
    endloop
  endfacet
  facet normal -4.46454e-08 -1.00275e-07 -1
    outer loop
      vertex 3.09017 -9.51056 -30.9017
      vertex 3.09017 9.51056 -30.9017
      vertex 5 8.66025 -30.9017
    endloop
  endfacet
  facet normal 9.54055e-07 -1.00275e-07 -1
    outer loop
      vertex 1.04528 -9.94522 -30.9017
      vertex 3.09017 9.51056 -30.9017
      vertex 3.09017 -9.51056 -30.9017
    endloop
  endfacet
  facet normal 0 0 -1
    outer loop
      vertex 1.04528 -9.94522 -30.9017
      vertex 1.04528 9.94522 -30.9017
      vertex 3.09017 9.51056 -30.9017
    endloop
  endfacet
  facet normal 0 0 -1
    outer loop
      vertex -1.04528 -9.94522 -30.9017
      vertex 1.04528 9.94522 -30.9017
      vertex 1.04528 -9.94522 -30.9017
    endloop
  endfacet
  facet normal 0 0 -1
    outer loop
      vertex -1.04528 -9.94522 -30.9017
      vertex -1.04528 9.94522 -30.9017
      vertex 1.04528 9.94522 -30.9017
    endloop
  endfacet
  facet normal 0 0 -1
    outer loop
      vertex -3.09017 -9.51056 -30.9017
      vertex -1.04528 9.94522 -30.9017
      vertex -1.04528 -9.94522 -30.9017
    endloop
  endfacet
  facet normal 0 0 -1
    outer loop
      vertex -3.09017 -9.51056 -30.9017
      vertex -3.09017 9.51056 -30.9017
      vertex -1.04528 9.94522 -30.9017
    endloop
  endfacet
  facet normal 0 0 -1
    outer loop
      vertex -5 -8.66025 -30.9017
      vertex -3.09017 9.51056 -30.9017
      vertex -3.09017 -9.51056 -30.9017
    endloop
  endfacet
  facet normal 0 0 -1
    outer loop
      vertex -5 -8.66025 -30.9017
      vertex -5 8.66025 -30.9017
      vertex -3.09017 9.51056 -30.9017
    endloop
  endfacet
  facet normal 0 0 -1
    outer loop
      vertex -6.69131 -7.43145 -30.9017
      vertex -5 8.66025 -30.9017
      vertex -5 -8.66025 -30.9017
    endloop
  endfacet
  facet normal 0 0 -1
    outer loop
      vertex -6.69131 -7.43145 -30.9017
      vertex -6.69131 7.43145 -30.9017
      vertex -5 8.66025 -30.9017
    endloop
  endfacet
  facet normal 0 0 -1
    outer loop
      vertex -8.09017 -5.87785 -30.9017
      vertex -6.69131 7.43145 -30.9017
      vertex -6.69131 -7.43145 -30.9017
    endloop
  endfacet
  facet normal 0 0 -1
    outer loop
      vertex -8.09017 -5.87785 -30.9017
      vertex -8.09017 5.87785 -30.9017
      vertex -6.69131 7.43145 -30.9017
    endloop
  endfacet
  facet normal 0 0 -1
    outer loop
      vertex -9.13545 -4.06737 -30.9017
      vertex -8.09017 5.87785 -30.9017
      vertex -8.09017 -5.87785 -30.9017
    endloop
  endfacet
  facet normal 0 0 -1
    outer loop
      vertex -9.13545 -4.06737 -30.9017
      vertex -9.13545 4.06737 -30.9017
      vertex -8.09017 5.87785 -30.9017
    endloop
  endfacet
  facet normal 0 0 -1
    outer loop
      vertex -9.78148 -2.07912 -30.9017
      vertex -9.13545 4.06737 -30.9017
      vertex -9.13545 -4.06737 -30.9017
    endloop
  endfacet
  facet normal 0 0 -1
    outer loop
      vertex -9.78148 -2.07912 -30.9017
      vertex -9.78148 2.07912 -30.9017
      vertex -9.13545 4.06737 -30.9017
    endloop
  endfacet
  facet normal 0 -0 -1
    outer loop
      vertex -9.78148 2.07912 -30.9017
      vertex -9.78148 -2.07912 -30.9017
      vertex -10 8.90046e-16 -30.9017
    endloop
  endfacet
  facet normal -0.406737 -0.913546 -0
    outer loop
      vertex -3.09017 -9.51056 -10
      vertex -4.06614 -9.07604 -10
      vertex -3.09017 -9.51056 -30.9017
    endloop
  endfacet
  facet normal -0.587785 -0.809017 -6.13434e-06
    outer loop
      vertex -5.74609 -8.11819 -10.0475
      vertex -5 -8.66025 -10
      vertex -5.7735 -8.09827 -10
    endloop
  endfacet
  facet normal -0.587786 -0.809017 1.57012e-06
    outer loop
      vertex -5.78876 -8.08718 -10.134
      vertex -5 -8.66025 -10
      vertex -5.74609 -8.11819 -10.0475
    endloop
  endfacet
  facet normal -0.587786 -0.809017 2.07871e-06
    outer loop
      vertex -5.83546 -8.05325 -10.2045
      vertex -5 -8.66025 -10
      vertex -5.78876 -8.08718 -10.134
    endloop
  endfacet
  facet normal -0.587785 -0.809017 -2.77607e-09
    outer loop
      vertex -5 -8.66025 -30.9017
      vertex -5.83546 -8.05325 -10.2045
      vertex -6.69131 -7.43145 -30.9017
    endloop
  endfacet
  facet normal -0.587785 -0.809017 -1.34093e-08
    outer loop
      vertex -5.83546 -8.05325 -10.2045
      vertex -5 -8.66025 -30.9017
      vertex -5 -8.66025 -10
    endloop
  endfacet
  facet normal -0.587786 0.809017 0
    outer loop
      vertex -6.69131 7.43145 -11.4951
      vertex -5.83539 8.05331 -10.2026
      vertex -6.69131 7.43145 -30.9017
    endloop
  endfacet
  facet normal -0.743144 0.669131 0
    outer loop
      vertex -6.69131 7.43145 -30.9017
      vertex -7.35433 6.69508 -12.8232
      vertex -6.69131 7.43145 -11.4951
    endloop
  endfacet
  facet normal -0.743145 0.669131 0
    outer loop
      vertex -8.09017 5.87785 -13.9344
      vertex -6.69131 7.43145 -30.9017
      vertex -8.09017 5.87785 -30.9017
    endloop
  endfacet
  facet normal -0.743145 0.669131 -1.46545e-08
    outer loop
      vertex -6.69131 7.43145 -30.9017
      vertex -8.09017 5.87785 -13.9344
      vertex -7.35433 6.69508 -12.8232
    endloop
  endfacet
  facet normal -0.406737 0.913545 -1.79119e-08
    outer loop
      vertex -5 8.66025 -30.9017
      vertex -4.06614 9.07604 -10
      vertex -3.09017 9.51056 -30.9017
    endloop
  endfacet
  facet normal -0.406737 0.913545 -9.27902e-09
    outer loop
      vertex -4.06614 9.07604 -10
      vertex -5 8.66025 -30.9017
      vertex -5 8.66025 -10
    endloop
  endfacet
  facet normal 0.207911 0.978148 -0
    outer loop
      vertex 3.09017 9.51056 -30.9017
      vertex 1.04528 9.94522 -10
      vertex 3.09017 9.51056 -10
    endloop
  endfacet
  facet normal 0.207911 0.978148 0
    outer loop
      vertex 1.04528 9.94522 -10
      vertex 3.09017 9.51056 -30.9017
      vertex 1.04528 9.94522 -30.9017
    endloop
  endfacet
  facet normal 0.587785 0.809017 -0
    outer loop
      vertex 6.69131 7.43145 -30.9017
      vertex 5.8643 8.03231 -10
      vertex 6.69131 7.43145 -10
    endloop
  endfacet
  facet normal 0.587785 0.809017 6.5924e-09
    outer loop
      vertex 5.8643 8.03231 -10
      vertex 6.69131 7.43145 -30.9017
      vertex 5 8.66025 -30.9017
    endloop
  endfacet
  facet normal -0.743145 -0.669131 0
    outer loop
      vertex -6.69131 -7.43145 -30.9017
      vertex -8.09017 -5.87785 -13.9344
      vertex -8.09017 -5.87785 -30.9017
    endloop
  endfacet
  facet normal -0.743145 -0.669131 -2.59178e-08
    outer loop
      vertex -8.09017 -5.87785 -13.9344
      vertex -6.69131 -7.43145 -30.9017
      vertex -7.60378 -6.41805 -13.2009
    endloop
  endfacet
  facet normal -0.743144 -0.669132 5.9353e-08
    outer loop
      vertex -7.60378 -6.41805 -13.2009
      vertex -6.69131 -7.43145 -30.9017
      vertex -7.36113 -6.68753 -12.835
    endloop
  endfacet
  facet normal -0.743145 -0.669131 0
    outer loop
      vertex -7.36113 -6.68753 -12.835
      vertex -6.69131 -7.43145 -30.9017
      vertex -6.69131 -7.43145 -11.4952
    endloop
  endfacet
  facet normal -0.587785 -0.809017 0
    outer loop
      vertex -5.83546 -8.05325 -10.2045
      vertex -6.69131 -7.43145 -11.4952
      vertex -6.69131 -7.43145 -30.9017
    endloop
  endfacet
  facet normal -0.866026 -0.5 0
    outer loop
      vertex -8.09017 -5.87785 -30.9017
      vertex -9.13545 -4.06737 -15.7538
      vertex -9.13545 -4.06737 -30.9017
    endloop
  endfacet
  facet normal -0.866025 -0.5 2.41347e-08
    outer loop
      vertex -9.13545 -4.06737 -15.7538
      vertex -8.09017 -5.87785 -30.9017
      vertex -8.59954 -4.9956 -14.9679
    endloop
  endfacet
  facet normal -0.866026 -0.5 0
    outer loop
      vertex -8.59954 -4.9956 -14.9679
      vertex -8.09017 -5.87785 -30.9017
      vertex -8.09017 -5.87785 -13.9344
    endloop
  endfacet
  facet normal -0.994522 -0.104528 -4.30518e-18
    outer loop
      vertex -10 8.90046e-16 -30.9017
      vertex -9.89067 -1.04023 -17.1947
      vertex -10 3.28073e-16 -17.2573
    endloop
  endfacet
  facet normal -0.994522 -0.104528 -5.50482e-08
    outer loop
      vertex -9.78148 -2.07912 -30.9017
      vertex -9.89067 -1.04023 -17.1947
      vertex -10 8.90046e-16 -30.9017
    endloop
  endfacet
  facet normal -0.994522 -0.10453 2.53074e-08
    outer loop
      vertex -9.89067 -1.04023 -17.1947
      vertex -9.78148 -2.07912 -30.9017
      vertex -9.85526 -1.37713 -17.0918
    endloop
  endfacet
  facet normal -0.994522 -0.104529 -0
    outer loop
      vertex -9.78148 -2.07912 -16.8774
      vertex -9.85526 -1.37713 -17.0918
      vertex -9.78148 -2.07912 -30.9017
    endloop
  endfacet
  facet normal 0 0 1
    outer loop
      vertex -5 8.66025 -10
      vertex -5.7735 8.09827 -10
      vertex -5.7735 7.89589 -10
    endloop
  endfacet
  facet normal 0 0 1
    outer loop
      vertex 0.334936 5.58013 -10
      vertex 10 7.9457e-16 -10
      vertex 9.78148 2.07912 -10
    endloop
  endfacet
  facet normal 0 0 1
    outer loop
      vertex 0.334936 5.58013 -10
      vertex 9.78148 2.07912 -10
      vertex 9.13545 4.06737 -10
    endloop
  endfacet
  facet normal 0 0 1
    outer loop
      vertex 10 7.9457e-16 -10
      vertex 0.334936 5.58013 -10
      vertex 9.78148 -2.07912 -10
    endloop
  endfacet
  facet normal -0 0 1
    outer loop
      vertex 0.334936 5.58013 -10
      vertex 9.13545 4.06737 -10
      vertex 8.09017 5.87785 -10
    endloop
  endfacet
  facet normal 0 0 1
    outer loop
      vertex 9.78148 -2.07912 -10
      vertex 0.334936 5.58013 -10
      vertex 9.13545 -4.06737 -10
    endloop
  endfacet
  facet normal 0 0 1
    outer loop
      vertex 0.334936 5.58013 -10
      vertex 8.09017 5.87785 -10
      vertex 6.69131 7.43145 -10
    endloop
  endfacet
  facet normal 0 0 1
    outer loop
      vertex 9.13545 -4.06737 -10
      vertex 0.334936 5.58013 -10
      vertex 8.09017 -5.87785 -10
    endloop
  endfacet
  facet normal 0 0 1
    outer loop
      vertex 0.334936 5.58013 -10
      vertex 6.69131 7.43145 -10
      vertex 5.8643 8.03231 -10
    endloop
  endfacet
  facet normal -0 0 1
    outer loop
      vertex -4.66506 -3.08013 -10
      vertex 8.09017 -5.87785 -10
      vertex 0.334936 5.58013 -10
    endloop
  endfacet
  facet normal 0 0 1
    outer loop
      vertex 0.334936 5.58013 -10
      vertex 5.8643 8.03231 -10
      vertex 5 8.66025 -10
    endloop
  endfacet
  facet normal 0 0 1
    outer loop
      vertex 0.334936 5.58013 -10
      vertex 5 8.66025 -10
      vertex 4.02403 9.09478 -10
    endloop
  endfacet
  facet normal 0 0 1
    outer loop
      vertex 0.334936 5.58013 -10
      vertex 4.02403 9.09478 -10
      vertex 3.09017 9.51056 -10
    endloop
  endfacet
  facet normal 0 0 1
    outer loop
      vertex 8.09017 -5.87785 -10
      vertex -4.66506 -3.08013 -10
      vertex 6.69131 -7.43145 -10
    endloop
  endfacet
  facet normal 0 0 1
    outer loop
      vertex 0.334936 5.58013 -10
      vertex 3.09017 9.51056 -10
      vertex 1.04528 9.94522 -10
    endloop
  endfacet
  facet normal 0 0 1
    outer loop
      vertex 6.69131 -7.43145 -10
      vertex -4.66506 -3.08013 -10
      vertex 5 -8.66025 -10
    endloop
  endfacet
  facet normal 0 0 1
    outer loop
      vertex 5 -8.66025 -10
      vertex -4.66506 -3.08013 -10
      vertex 3.09017 -9.51056 -10
    endloop
  endfacet
  facet normal -0 0 1
    outer loop
      vertex -1.04528 9.94522 -10
      vertex 0.334936 5.58013 -10
      vertex 1.04528 9.94522 -10
    endloop
  endfacet
  facet normal 0 0 1
    outer loop
      vertex -3.99519 8.08013 -10
      vertex -1.04528 9.94522 -10
      vertex -3.09017 9.51056 -10
    endloop
  endfacet
  facet normal 0 0 1
    outer loop
      vertex -1.04528 9.94522 -10
      vertex -3.99519 8.08013 -10
      vertex 0.334936 5.58013 -10
    endloop
  endfacet
  facet normal -0 0 1
    outer loop
      vertex -4.06614 9.07604 -10
      vertex -3.99519 8.08013 -10
      vertex -3.09017 9.51056 -10
    endloop
  endfacet
  facet normal -0 0 1
    outer loop
      vertex -5 8.66025 -10
      vertex -3.99519 8.08013 -10
      vertex -4.06614 9.07604 -10
    endloop
  endfacet
  facet normal 0 0 1
    outer loop
      vertex -5.7735 7.64921 -10
      vertex -5 8.66025 -10
      vertex -5.7735 7.89589 -10
    endloop
  endfacet
  facet normal 0 0 1
    outer loop
      vertex -5 8.66025 -10
      vertex -5.7735 7.64921 -10
      vertex -3.99519 8.08013 -10
    endloop
  endfacet
  facet normal 0 0 1
    outer loop
      vertex -5.7735 7.23175 -10
      vertex -3.99519 8.08013 -10
      vertex -5.7735 7.64921 -10
    endloop
  endfacet
  facet normal 0 0 1
    outer loop
      vertex -5.7735 6.86813 -10
      vertex -3.99519 8.08013 -10
      vertex -5.7735 7.23175 -10
    endloop
  endfacet
  facet normal 0 0 1
    outer loop
      vertex -3.99519 8.08013 -10
      vertex -5.7735 6.86813 -10
      vertex -5.7735 5 -10
    endloop
  endfacet
  facet normal 0 0 1
    outer loop
      vertex 3.09017 -9.51056 -10
      vertex -4.66506 -3.08013 -10
      vertex 1.04528 -9.94522 -10
    endloop
  endfacet
  facet normal 0 0 1
    outer loop
      vertex 1.04528 -9.94522 -10
      vertex -4.66506 -3.08013 -10
      vertex -1.04528 -9.94522 -10
    endloop
  endfacet
  facet normal 0 0 1
    outer loop
      vertex -1.04528 -9.94522 -10
      vertex -4.66506 -3.08013 -10
      vertex -3.09017 -9.51056 -10
    endloop
  endfacet
  facet normal 0 0 1
    outer loop
      vertex -3.09017 -9.51056 -10
      vertex -4.66506 -3.08013 -10
      vertex -4.06614 -9.07604 -10
    endloop
  endfacet
  facet normal -0 0 1
    outer loop
      vertex -5.7735 -4.99707 -10
      vertex -4.06614 -9.07604 -10
      vertex -4.66506 -3.08013 -10
    endloop
  endfacet
  facet normal 0 0 1
    outer loop
      vertex -5.7735 -4.99707 -10
      vertex -4.66506 -3.08013 -10
      vertex -5.7735 -2.44017 -10
    endloop
  endfacet
  facet normal -0 0 1
    outer loop
      vertex -5.7735 -7.59979 -10
      vertex -4.06614 -9.07604 -10
      vertex -5.7735 -4.99707 -10
    endloop
  endfacet
  facet normal 0 0 1
    outer loop
      vertex -4.06614 -9.07604 -10
      vertex -5.7735 -7.59979 -10
      vertex -5 -8.66025 -10
    endloop
  endfacet
  facet normal -0 0 1
    outer loop
      vertex -5.7735 -7.89586 -10
      vertex -5 -8.66025 -10
      vertex -5.7735 -7.59979 -10
    endloop
  endfacet
  facet normal 0 0 1
    outer loop
      vertex -5 -8.66025 -10
      vertex -5.7735 -7.89586 -10
      vertex -5.7735 -8.09827 -10
    endloop
  endfacet
  facet normal 0.866025 -0.5 0
    outer loop
      vertex 0.334936 5.58013 -1.42892e-16
      vertex -1.29774 2.75225 -5.91526
      vertex 0.334936 5.58013 -10
    endloop
  endfacet
  facet normal 0.866025 -0.5 3.22719e-09
    outer loop
      vertex 0.334936 5.58013 -1.42892e-16
      vertex -2.44376 0.767282 -3.09808
      vertex -1.29774 2.75225 -5.91526
    endloop
  endfacet
  facet normal 0.866025 -0.5 -2.20731e-08
    outer loop
      vertex -3.48174 -1.03055 -8.61281e-16
      vertex -2.44376 0.767282 -3.09808
      vertex 0.334936 5.58013 -1.42892e-16
    endloop
  endfacet
  facet normal 0.866025 -0.5 -7.69672e-08
    outer loop
      vertex -3.59671 -1.22968 -0.383867
      vertex -2.44376 0.767282 -3.09808
      vertex -3.48174 -1.03055 -8.61281e-16
    endloop
  endfacet
  facet normal 0.866025 -0.5 -8.86276e-09
    outer loop
      vertex -3.59671 -1.22968 -0.383867
      vertex -3.83722 -1.64626 -3.95985
      vertex -2.44376 0.767282 -3.09808
    endloop
  endfacet
  facet normal 0.866025 -0.5 -1.38447e-08
    outer loop
      vertex -3.83722 -1.64626 -3.95985
      vertex -3.59671 -1.22968 -0.383867
      vertex -4.66506 -3.08013 -3.95104
    endloop
  endfacet
  facet normal 0.866025 -0.5 3.30079e-08
    outer loop
      vertex -2.6912 0.338703 -6.77703
      vertex 0.334936 5.58013 -10
      vertex -1.29774 2.75225 -5.91526
    endloop
  endfacet
  facet normal 0.866025 -0.5 9.10835e-08
    outer loop
      vertex -4.66506 -3.08013 -3.95104
      vertex -2.6912 0.338703 -6.77703
      vertex -3.83722 -1.64626 -3.95985
    endloop
  endfacet
  facet normal 0.866025 -0.5 -3.3227e-08
    outer loop
      vertex -2.6912 0.338703 -6.77703
      vertex -4.66506 -3.08013 -10
      vertex 0.334936 5.58013 -10
    endloop
  endfacet
  facet normal 0.866025 -0.5 0
    outer loop
      vertex -4.66506 -3.08013 -10
      vertex -2.6912 0.338703 -6.77703
      vertex -4.66506 -3.08013 -3.95104
    endloop
  endfacet
  facet normal -2.59562e-16 4.11869e-17 1
    outer loop
      vertex -5.40986 5.62984 -1.63607e-15
      vertex 0.334936 5.58013 -1.42892e-16
      vertex -3.99519 8.08013 -1.36979e-15
    endloop
  endfacet
  facet normal -2.59562e-16 4.11869e-17 1
    outer loop
      vertex 0.334936 5.58013 -1.42892e-16
      vertex -5.40986 5.62984 -1.63607e-15
      vertex -3.48174 -1.03055 -8.61281e-16
    endloop
  endfacet
  facet normal 0.5 0.866025 -0
    outer loop
      vertex 0.334936 5.58013 -10
      vertex -3.99519 8.08013 -1.36979e-15
      vertex 0.334936 5.58013 -1.42892e-16
    endloop
  endfacet
  facet normal 0.5 0.866025 0
    outer loop
      vertex -3.99519 8.08013 -1.36979e-15
      vertex 0.334936 5.58013 -10
      vertex -3.99519 8.08013 -10
    endloop
  endfacet
  facet normal -0.866025 0.5 0
    outer loop
      vertex -6.57275 3.61565 -8.61566
      vertex -3.99519 8.08013 -1.36979e-15
      vertex -3.99519 8.08013 -10
    endloop
  endfacet
  facet normal -0.866025 0.5 2.28547e-07
    outer loop
      vertex -6.57275 3.61565 -8.61566
      vertex -3.99519 8.08013 -10
      vertex -5.7735 5 -10
    endloop
  endfacet
  facet normal -0.866025 0.5 -3.16054e-08
    outer loop
      vertex -3.99519 8.08013 -1.36979e-15
      vertex -6.57275 3.61565 -8.61566
      vertex -5.40986 5.62984 -1.63607e-15
    endloop
  endfacet
  facet normal -0.866025 0.5 -2.07451e-08
    outer loop
      vertex -5.40986 5.62984 -1.63607e-15
      vertex -6.57275 3.61565 -8.61566
      vertex -7.50607 1.9991 -6.9991
    endloop
  endfacet
  facet normal -0.5 -0.866025 -1.10257e-08
    outer loop
      vertex -4.66506 -3.08013 -10
      vertex -6.88837 -1.7965 -8.06899
      vertex -5.7735 -2.44017 -10
    endloop
  endfacet
  facet normal -0.5 -0.866025 -4.0409e-09
    outer loop
      vertex -6.88837 -1.7965 -8.06899
      vertex -4.66506 -3.08013 -10
      vertex -5.73553 -2.46209 -5.93373
    endloop
  endfacet
  facet normal -0.5 -0.866025 0
    outer loop
      vertex -5.73553 -2.46209 -5.93373
      vertex -4.66506 -3.08013 -10
      vertex -4.66506 -3.08013 -3.95104
    endloop
  endfacet
  facet normal 0.470809 -0.524986 0.709034
    outer loop
      vertex -5.91591 1.41533 -3.83862
      vertex -2.6912 0.338703 -6.77703
      vertex -1.29774 2.75225 -5.91526
    endloop
  endfacet
  facet normal 0.470809 -0.524986 0.709034
    outer loop
      vertex -2.6912 0.338703 -6.77703
      vertex -5.91591 1.41533 -3.83862
      vertex -5.98383 -0.614484 -5.29644
    endloop
  endfacet
  facet normal -0.0271694 -0.811925 -0.583129
    outer loop
      vertex -5.91591 1.41533 -3.83862
      vertex -2.44376 0.767282 -3.09808
      vertex -4.73888 0.102864 -2.06604
    endloop
  endfacet
  facet normal -0.0271694 -0.811925 -0.583129
    outer loop
      vertex -2.44376 0.767282 -3.09808
      vertex -5.91591 1.41533 -3.83862
      vertex -1.29774 2.75225 -5.91526
    endloop
  endfacet
  facet normal -0.470809 0.524986 -0.709034
    outer loop
      vertex -3.83722 -1.64626 -3.95985
      vertex -4.73888 0.102864 -2.06604
      vertex -2.44376 0.767282 -3.09808
    endloop
  endfacet
  facet normal -0.470809 0.524986 -0.709034
    outer loop
      vertex -4.73888 0.102864 -2.06604
      vertex -3.83722 -1.64626 -3.95985
      vertex -4.80681 -1.92695 -3.52386
    endloop
  endfacet
  facet normal 0.0271695 0.811925 0.583129
    outer loop
      vertex -3.83722 -1.64626 -3.95985
      vertex -5.98383 -0.614484 -5.29644
      vertex -4.80681 -1.92695 -3.52386
    endloop
  endfacet
  facet normal 0.0271695 0.811925 0.583129
    outer loop
      vertex -5.98383 -0.614484 -5.29644
      vertex -3.83722 -1.64626 -3.95985
      vertex -2.6912 0.338703 -6.77703
    endloop
  endfacet
  facet normal -0.334382 -0.74348 0.57916
    outer loop
      vertex -5.83539 8.05331 -10.2026
      vertex -5.72338 8.09315 -10.0868
      vertex -5.78054 8.09315 -10.1198
    endloop
  endfacet
  facet normal -0.334376 -0.743485 0.579157
    outer loop
      vertex -5.83539 8.05331 -10.2026
      vertex -4.94623 6.69508 -11.4329
      vertex -5.72338 8.09315 -10.0868
    endloop
  endfacet
  facet normal -0.334376 -0.743485 0.579157
    outer loop
      vertex -6.69131 7.43145 -11.4951
      vertex -4.94623 6.69508 -11.4329
      vertex -5.83539 8.05331 -10.2026
    endloop
  endfacet
  facet normal -0.334376 -0.743485 0.579157
    outer loop
      vertex -4.94623 6.69508 -11.4329
      vertex -6.69131 7.43145 -11.4951
      vertex -7.35433 6.69508 -12.8232
    endloop
  endfacet
  facet normal -0.334755 0.742805 0.579811
    outer loop
      vertex -5.71927 -8.08718 -10.0939
      vertex -5.83546 -8.05325 -10.2045
      vertex -5.78876 -8.08718 -10.134
    endloop
  endfacet
  facet normal -0.334754 0.742805 0.579811
    outer loop
      vertex -4.94283 -6.68753 -11.4388
      vertex -5.83546 -8.05325 -10.2045
      vertex -5.71927 -8.08718 -10.0939
    endloop
  endfacet
  facet normal -0.334754 0.742805 0.579811
    outer loop
      vertex -4.94283 -6.68753 -11.4388
      vertex -6.69131 -7.43145 -11.4952
      vertex -5.83546 -8.05325 -10.2045
    endloop
  endfacet
  facet normal -0.334754 0.742805 0.579811
    outer loop
      vertex -6.69131 -7.43145 -11.4952
      vertex -4.94283 -6.68753 -11.4388
      vertex -7.36113 -6.68753 -12.835
    endloop
  endfacet
  facet normal -0.866026 0 -0.5
    outer loop
      vertex -4.94623 6.69508 -11.4329
      vertex -5.7735 7.23175 -10
      vertex -5.7735 7.64921 -10
    endloop
  endfacet
  facet normal -0.866026 0 -0.5
    outer loop
      vertex -4.94623 6.69508 -11.4329
      vertex -5.7735 6.86813 -10
      vertex -5.7735 7.23175 -10
    endloop
  endfacet
  facet normal -0.489021 -0.208408 0.847009
    outer loop
      vertex -9.45139 3.095 -16.4368
      vertex -3.68791 1.05034 -13.6124
      vertex -3.90576 3.095 -13.235
    endloop
  endfacet
  facet normal -0.489021 -0.208408 0.847009
    outer loop
      vertex -9.78148 2.07912 -16.8773
      vertex -3.68791 1.05034 -13.6124
      vertex -9.45139 3.095 -16.4368
    endloop
  endfacet
  facet normal -0.489021 -0.208408 0.847009
    outer loop
      vertex -9.85525 1.37717 -17.0926
      vertex -3.68791 1.05034 -13.6124
      vertex -9.78148 2.07912 -16.8773
    endloop
  endfacet
  facet normal -0.489021 -0.208408 0.847009
    outer loop
      vertex -3.68791 1.05034 -13.6124
      vertex -9.85525 1.37717 -17.0926
      vertex -9.8896 1.05034 -17.1929
    endloop
  endfacet
  facet normal -0.456669 -0.407201 0.790975
    outer loop
      vertex -8.59446 5.0044 -14.9591
      vertex -3.90576 3.095 -13.235
      vertex -4.3314 5.0044 -12.4978
    endloop
  endfacet
  facet normal -0.456669 -0.407201 0.790974
    outer loop
      vertex -9.13545 4.06737 -15.7538
      vertex -3.90576 3.095 -13.235
      vertex -8.59446 5.0044 -14.9591
    endloop
  endfacet
  facet normal -0.456669 -0.407201 0.790974
    outer loop
      vertex -3.90576 3.095 -13.235
      vertex -9.13545 4.06737 -15.7538
      vertex -9.45139 3.095 -16.4368
    endloop
  endfacet
  facet normal -0.456876 0.406273 0.791332
    outer loop
      vertex -3.90419 -3.08534 -13.2377
      vertex -8.59954 -4.9956 -14.9679
      vertex -4.32886 -4.9956 -12.5022
    endloop
  endfacet
  facet normal -0.456876 0.406272 0.791332
    outer loop
      vertex -3.90419 -3.08534 -13.2377
      vertex -9.13545 -4.06737 -15.7538
      vertex -8.59954 -4.9956 -14.9679
    endloop
  endfacet
  facet normal -0.456876 0.406273 0.791332
    outer loop
      vertex -9.13545 -4.06737 -15.7538
      vertex -3.90419 -3.08534 -13.2377
      vertex -9.45453 -3.08534 -16.4422
    endloop
  endfacet
  facet normal -0.866025 -5.83621e-08 -0.5
    outer loop
      vertex -3.90576 3.095 -13.235
      vertex -3.68791 1.05034 -13.6124
      vertex -4.94623 6.69508 -11.4329
    endloop
  endfacet
  facet normal -0.866025 -4.51197e-08 -0.5
    outer loop
      vertex -5.7735 -2.44017 -10
      vertex -7.00072 -1.10618 -7.8744
      vertex -3.68791 1.05034 -13.6124
    endloop
  endfacet
  facet normal -0.866025 4.94841e-08 -0.5
    outer loop
      vertex -7.00072 -1.10618 -7.8744
      vertex -5.7735 -2.44017 -10
      vertex -6.88837 -1.7965 -8.06899
    endloop
  endfacet
  facet normal -0.866025 -4.32923e-08 -0.5
    outer loop
      vertex -4.32886 -4.9956 -12.5022
      vertex -5.7735 -2.44017 -10
      vertex -3.68791 1.05034 -13.6124
    endloop
  endfacet
  facet normal -0.866025 -0 -0.5
    outer loop
      vertex -5.7735 -2.44017 -10
      vertex -4.32886 -4.9956 -12.5022
      vertex -5.7735 -4.99707 -10
    endloop
  endfacet
  facet normal -0.404359 -0.588196 0.700371
    outer loop
      vertex -7.35433 6.69508 -12.8232
      vertex -4.3314 5.0044 -12.4978
      vertex -4.94623 6.69508 -11.4329
    endloop
  endfacet
  facet normal -0.404359 -0.588196 0.700371
    outer loop
      vertex -8.09017 5.87785 -13.9344
      vertex -4.3314 5.0044 -12.4978
      vertex -7.35433 6.69508 -12.8232
    endloop
  endfacet
  facet normal -0.404359 -0.588196 0.700371
    outer loop
      vertex -4.3314 5.0044 -12.4978
      vertex -8.09017 5.87785 -13.9344
      vertex -8.59446 5.0044 -14.9591
    endloop
  endfacet
  facet normal -0.866025 6.37056e-08 -0.5
    outer loop
      vertex -4.3314 5.0044 -12.4978
      vertex -3.90576 3.095 -13.235
      vertex -4.94623 6.69508 -11.4329
    endloop
  endfacet
  facet normal -0.866026 0 -0.5
    outer loop
      vertex -4.94623 6.69508 -11.4329
      vertex -5.7735 7.64921 -10
      vertex -5.7735 7.89589 -10
    endloop
  endfacet
  facet normal -0.866025 -7.3841e-08 -0.500001
    outer loop
      vertex -5.72338 8.09315 -10.0868
      vertex -5.7735 8.09827 -10
      vertex -5.74548 8.11863 -10.0485
    endloop
  endfacet
  facet normal -0.866025 -2.04051e-06 -0.500001
    outer loop
      vertex -5.72338 8.09315 -10.0868
      vertex -5.7735 7.89589 -10
      vertex -5.7735 8.09827 -10
    endloop
  endfacet
  facet normal -0.866026 -1.10773e-06 -0.499999
    outer loop
      vertex -5.7735 7.89589 -10
      vertex -5.72338 8.09315 -10.0868
      vertex -4.94623 6.69508 -11.4329
    endloop
  endfacet
  facet normal -0.250222 0.86577 0.433395
    outer loop
      vertex -5.71927 -8.08718 -10.0939
      vertex -5.78876 -8.08718 -10.134
      vertex -5.74609 -8.11819 -10.0475
    endloop
  endfacet
  facet normal -0.866025 0 -0.5
    outer loop
      vertex -4.32886 -4.9956 -12.5022
      vertex -5.7735 -7.59979 -10
      vertex -5.7735 -4.99707 -10
    endloop
  endfacet
  facet normal -0.866026 0 -0.5
    outer loop
      vertex -4.94623 6.69508 -11.4329
      vertex -5.7735 5 -10
      vertex -5.7735 6.86813 -10
    endloop
  endfacet
  facet normal -0.866025 -1.39621e-07 -0.5
    outer loop
      vertex -5.7735 5 -10
      vertex -3.68791 1.05034 -13.6124
      vertex -6.57275 3.61565 -8.61566
    endloop
  endfacet
  facet normal -0.866025 -1.27555e-07 -0.5
    outer loop
      vertex -3.68791 1.05034 -13.6124
      vertex -5.7735 5 -10
      vertex -4.94623 6.69508 -11.4329
    endloop
  endfacet
  facet normal -0.866025 -7.53466e-09 -0.5
    outer loop
      vertex -7.00072 -1.10618 -7.8744
      vertex -6.57275 3.61565 -8.61566
      vertex -3.68791 1.05034 -13.6124
    endloop
  endfacet
  facet normal -0.866025 -2.22784e-08 -0.5
    outer loop
      vertex -6.57275 3.61565 -8.61566
      vertex -7.00072 -1.10618 -7.8744
      vertex -7.50607 1.9991 -6.9991
    endloop
  endfacet
  facet normal -0.404658 0.587374 0.700888
    outer loop
      vertex -4.32886 -4.9956 -12.5022
      vertex -7.60378 -6.41805 -13.2009
      vertex -4.94283 -6.68753 -11.4388
    endloop
  endfacet
  facet normal -0.404658 0.587374 0.700888
    outer loop
      vertex -4.32886 -4.9956 -12.5022
      vertex -8.09017 -5.87785 -13.9344
      vertex -7.60378 -6.41805 -13.2009
    endloop
  endfacet
  facet normal -0.404658 0.587374 0.700888
    outer loop
      vertex -8.09017 -5.87785 -13.9344
      vertex -4.32886 -4.9956 -12.5022
      vertex -8.59954 -4.9956 -14.9679
    endloop
  endfacet
  facet normal -0.489127 0.207415 0.847192
    outer loop
      vertex -3.68738 -1.04023 -13.6133
      vertex -9.45453 -3.08534 -16.4422
      vertex -3.90419 -3.08534 -13.2377
    endloop
  endfacet
  facet normal -0.489126 0.207414 0.847192
    outer loop
      vertex -3.68738 -1.04023 -13.6133
      vertex -9.78148 -2.07912 -16.8774
      vertex -9.45453 -3.08534 -16.4422
    endloop
  endfacet
  facet normal -0.489126 0.207415 0.847192
    outer loop
      vertex -3.68738 -1.04023 -13.6133
      vertex -9.85526 -1.37713 -17.0918
      vertex -9.78148 -2.07912 -16.8774
    endloop
  endfacet
  facet normal -0.489126 0.207416 0.847192
    outer loop
      vertex -9.85526 -1.37713 -17.0918
      vertex -3.68738 -1.04023 -13.6133
      vertex -9.89067 -1.04023 -17.1947
    endloop
  endfacet
  facet normal -0.866026 2.72629e-07 -0.499999
    outer loop
      vertex -3.90419 -3.08534 -13.2377
      vertex -4.32886 -4.9956 -12.5022
      vertex -3.68738 -1.04023 -13.6133
    endloop
  endfacet
  facet normal -0.404657 0.587375 0.700887
    outer loop
      vertex -7.36113 -6.68753 -12.835
      vertex -4.94283 -6.68753 -11.4388
      vertex -7.60378 -6.41805 -13.2009
    endloop
  endfacet
  facet normal -0.249777 -0.866285 0.432623
    outer loop
      vertex -5.78054 8.09315 -10.1198
      vertex -5.72338 8.09315 -10.0868
      vertex -5.74548 8.11863 -10.0485
    endloop
  endfacet
  facet normal -0.5 -0.000508924 0.866025
    outer loop
      vertex -9.8896 1.05034 -17.1929
      vertex -9.96929 0.292157 -17.2394
      vertex -3.68791 1.05034 -13.6124
    endloop
  endfacet
  facet normal -0.866026 7.27659e-07 -0.499999
    outer loop
      vertex -4.94283 -6.68753 -11.4388
      vertex -5.7735 -7.59979 -10
      vertex -4.32886 -4.9956 -12.5022
    endloop
  endfacet
  facet normal -0.866026 -0 -0.5
    outer loop
      vertex -5.7735 -7.59979 -10
      vertex -4.94283 -6.68753 -11.4388
      vertex -5.7735 -7.89586 -10
    endloop
  endfacet
  facet normal -0.866026 8.44015e-07 -0.499999
    outer loop
      vertex -5.71927 -8.08718 -10.0939
      vertex -5.7735 -7.89586 -10
      vertex -4.94283 -6.68753 -11.4388
    endloop
  endfacet
  facet normal -0.866025 2.04015e-06 -0.500001
    outer loop
      vertex -5.71927 -8.08718 -10.0939
      vertex -5.7735 -8.09827 -10
      vertex -5.7735 -7.89586 -10
    endloop
  endfacet
  facet normal -0.866025 -5.97539e-07 -0.500001
    outer loop
      vertex -5.7735 -8.09827 -10
      vertex -5.71927 -8.08718 -10.0939
      vertex -5.74609 -8.11819 -10.0475
    endloop
  endfacet
  facet normal -0.866026 5.62569e-08 -0.5
    outer loop
      vertex -3.68738 -1.04023 -13.6133
      vertex -4.32886 -4.9956 -12.5022
      vertex -3.68791 1.05034 -13.6124
    endloop
  endfacet
  facet normal -0.5 -0.000508281 0.866025
    outer loop
      vertex -9.96929 0.292157 -17.2394
      vertex -3.68738 -1.04023 -13.6133
      vertex -3.68791 1.05034 -13.6124
    endloop
  endfacet
  facet normal -0.5 -0.000508071 0.866025
    outer loop
      vertex -3.68738 -1.04023 -13.6133
      vertex -9.96929 0.292157 -17.2394
      vertex -9.89067 -1.04023 -17.1947
    endloop
  endfacet
  facet normal -0.50001 -0.00050883 0.86602
    outer loop
      vertex -9.89067 -1.04023 -17.1947
      vertex -9.96929 0.292157 -17.2394
      vertex -10 3.28073e-16 -17.2573
    endloop
  endfacet
  facet normal -0.881817 -0.255278 0.396525
    outer loop
      vertex -5.73553 -2.46209 -5.93373
      vertex -4.66506 -3.08013 -3.95104
      vertex -3.59671 -1.22968 -0.383867
    endloop
  endfacet
  facet normal -0.881817 -0.255278 0.396525
    outer loop
      vertex -7.50607 1.9991 -6.9991
      vertex -5.98383 -0.614484 -5.29644
      vertex -5.91591 1.41533 -3.83862
    endloop
  endfacet
  facet normal -0.881817 -0.255278 0.396525
    outer loop
      vertex -7.00072 -1.10618 -7.8744
      vertex -5.98383 -0.614484 -5.29644
      vertex -7.50607 1.9991 -6.9991
    endloop
  endfacet
  facet normal -0.881817 -0.255278 0.396525
    outer loop
      vertex -5.73553 -2.46209 -5.93373
      vertex -7.00072 -1.10618 -7.8744
      vertex -6.88837 -1.7965 -8.06899
    endloop
  endfacet
  facet normal -0.881817 -0.255278 0.396525
    outer loop
      vertex -7.00072 -1.10618 -7.8744
      vertex -5.73553 -2.46209 -5.93373
      vertex -5.98383 -0.614484 -5.29644
    endloop
  endfacet
  facet normal -0.881817 -0.255278 0.396525
    outer loop
      vertex -5.98383 -0.614484 -5.29644
      vertex -5.73553 -2.46209 -5.93373
      vertex -4.80681 -1.92695 -3.52386
    endloop
  endfacet
  facet normal -0.881817 -0.255278 0.396525
    outer loop
      vertex -5.91591 1.41533 -3.83862
      vertex -5.40986 5.62984 -1.63607e-15
      vertex -7.50607 1.9991 -6.9991
    endloop
  endfacet
  facet normal -0.881817 -0.255278 0.396525
    outer loop
      vertex -4.73888 0.102864 -2.06604
      vertex -5.40986 5.62984 -1.63607e-15
      vertex -5.91591 1.41533 -3.83862
    endloop
  endfacet
  facet normal -0.881817 -0.255278 0.396525
    outer loop
      vertex -4.73888 0.102864 -2.06604
      vertex -3.48174 -1.03055 -8.61281e-16
      vertex -5.40986 5.62984 -1.63607e-15
    endloop
  endfacet
  facet normal -0.881817 -0.255278 0.396525
    outer loop
      vertex -4.73888 0.102864 -2.06604
      vertex -3.59671 -1.22968 -0.383867
      vertex -3.48174 -1.03055 -8.61281e-16
    endloop
  endfacet
  facet normal -0.881817 -0.255278 0.396525
    outer loop
      vertex -4.80681 -1.92695 -3.52386
      vertex -3.59671 -1.22968 -0.383867
      vertex -4.73888 0.102864 -2.06604
    endloop
  endfacet
  facet normal -0.641445 -0.658593 0.39345
    outer loop
      vertex -3.59671 -1.22968 -0.383867
      vertex -4.80681 -1.92695 -3.52386
      vertex -5.73553 -2.46209 -5.93373
    endloop
  endfacet
endsolid OpenSCAD_Model
