solid OpenSCAD_Model
  facet normal -0.200869 -0.391497 0.897988
    outer loop
      vertex -4.3314 5.0044 -12.4978
      vertex -4.03936 3.69433 -13.0036
      vertex -3.90576 3.095 -13.235
    endloop
  endfacet
  facet normal -0.456669 -0.407202 0.790974
    outer loop
      vertex -9.18821 3.90501 -15.8679
      vertex -3.90576 3.095 -13.235
      vertex -4.03936 3.69433 -13.0036
    endloop
  endfacet
  facet normal -0.456669 -0.407202 0.790974
    outer loop
      vertex -3.90576 3.095 -13.235
      vertex -9.18821 3.90501 -15.8679
      vertex -9.45139 3.095 -16.4368
    endloop
  endfacet
  facet normal -0.249777 -0.866282 0.432629
    outer loop
      vertex -5.78054 8.09315 -10.1198
      vertex -5.72338 8.09315 -10.0868
      vertex -5.74547 8.11863 -10.0485
    endloop
  endfacet
  facet normal -0.866025 0 -0.5
    outer loop
      vertex -4.94283 -6.68753 -11.4388
      vertex -5.7735 -7.22827 -10
      vertex -5.7735 -7.04154 -10
    endloop
  endfacet
  facet normal -0.489127 0.207415 0.847192
    outer loop
      vertex -3.84619 -2.53823 -13.3382
      vertex -9.45453 -3.08534 -16.4422
      vertex -3.90419 -3.08534 -13.2377
    endloop
  endfacet
  facet normal -0.489127 0.207413 0.847192
    outer loop
      vertex -9.45453 -3.08534 -16.4422
      vertex -3.84619 -2.53823 -13.3382
      vertex -9.55224 -2.78463 -16.5723
    endloop
  endfacet
  facet normal -0.866025 2.67698e-06 -0.500001
    outer loop
      vertex -5.72338 8.09315 -10.0868
      vertex -5.7735 8.09827 -10
      vertex -5.74547 8.11863 -10.0485
    endloop
  endfacet
  facet normal -0.866025 1.06346e-06 -0.500001
    outer loop
      vertex -4.94623 6.69508 -11.4329
      vertex -5.7735 8.09827 -10
      vertex -5.72338 8.09315 -10.0868
    endloop
  endfacet
  facet normal -0.866025 3.65225e-08 -0.5
    outer loop
      vertex -5.7735 -0.749921 -10
      vertex -4.94623 6.69508 -11.4329
      vertex -4.3314 5.0044 -12.4978
    endloop
  endfacet
  facet normal -0.866025 3.77879e-08 -0.5
    outer loop
      vertex -5.7735 -0.749921 -10
      vertex -4.3314 5.0044 -12.4978
      vertex -3.90576 3.095 -13.235
    endloop
  endfacet
  facet normal -0.866025 -1.78265e-07 -0.5
    outer loop
      vertex -5.7735 -0.749921 -10
      vertex -3.90576 3.095 -13.235
      vertex -3.68791 1.05034 -13.6123
    endloop
  endfacet
  facet normal -0.866026 6.65788e-07 -0.5
    outer loop
      vertex -5.7735 -0.749921 -10
      vertex -3.68791 1.05034 -13.6123
      vertex -3.6878 0.607794 -13.6125
    endloop
  endfacet
  facet normal -0.866025 0 -0.5
    outer loop
      vertex -4.94623 6.69508 -11.4329
      vertex -5.7735 -0.749921 -10
      vertex -5.7735 8.09827 -10
    endloop
  endfacet
  facet normal -0.866025 7.80422e-08 -0.5
    outer loop
      vertex -4.36311 -5.08999 -12.4429
      vertex -4.94283 -6.68753 -11.4388
      vertex -5.12238 -5.58424 -11.1278
    endloop
  endfacet
  facet normal -0.866025 0 -0.5
    outer loop
      vertex -5.12238 -5.58424 -11.1278
      vertex -5.7735 -6.33528 -10
      vertex -5.7735 -6.0081 -10
    endloop
  endfacet
  facet normal -0.866025 5.15029e-08 -0.5
    outer loop
      vertex -5.7735 -6.33528 -10
      vertex -5.12238 -5.58424 -11.1278
      vertex -4.94283 -6.68753 -11.4388
    endloop
  endfacet
  facet normal -0.8 0 0.6
    outer loop
      vertex -3.68791 1.05034 -13.6124
      vertex -3.68791 1.05033 -13.6124
      vertex -3.68791 1.05034 -13.6123
    endloop
  endfacet
  facet normal -0.799439 -0.00046739 0.600747
    outer loop
      vertex -3.6878 0.607794 -13.6125
      vertex -3.68791 1.05034 -13.6123
      vertex -3.68791 1.05033 -13.6124
    endloop
  endfacet
  facet normal -0.353974 0.74262 0.568523
    outer loop
      vertex -4.94283 -6.68753 -11.4388
      vertex -4.94283 -6.68754 -11.4388
      vertex -5.66943 -7.99734 -10.1803
    endloop
  endfacet
  facet normal -0.866026 2.0597e-06 -0.499999
    outer loop
      vertex -5.66943 -7.99734 -10.1803
      vertex -5.7735 -7.89586 -10
      vertex -4.94283 -6.68753 -11.4388
    endloop
  endfacet
  facet normal -0.866026 6.17142e-07 -0.499998
    outer loop
      vertex -5.77041 -8.10052 -10.0054
      vertex -5.7735 -7.89586 -10
      vertex -5.66943 -7.99734 -10.1803
    endloop
  endfacet
  facet normal -0.866003 2.04008e-06 -0.500039
    outer loop
      vertex -5.7735 -7.89586 -10
      vertex -5.77041 -8.10052 -10.0054
      vertex -5.7735 -8.09827 -10
    endloop
  endfacet
  facet normal -0.0111557 -0.182612 0.983122
    outer loop
      vertex -3.90576 3.095 -13.235
      vertex -3.86792 2.73987 -13.3006
      vertex -3.68791 1.05034 -13.6123
    endloop
  endfacet
  facet normal -0.489021 -0.208407 0.847009
    outer loop
      vertex -9.45139 3.095 -16.4368
      vertex -3.86792 2.73987 -13.3006
      vertex -3.90576 3.095 -13.235
    endloop
  endfacet
  facet normal -0.489021 -0.208407 0.847009
    outer loop
      vertex -3.86792 2.73987 -13.3006
      vertex -9.45139 3.095 -16.4368
      vertex -9.6514 2.47945 -16.7037
    endloop
  endfacet
  facet normal -0.334377 -0.743484 0.579157
    outer loop
      vertex -6.69131 7.43145 -11.4951
      vertex -5.35835 7.43647 -10.7191
      vertex -5.83539 8.05331 -10.2026
    endloop
  endfacet
  facet normal -0.334377 -0.743484 0.579158
    outer loop
      vertex -5.35835 7.43647 -10.7191
      vertex -6.69131 7.43145 -11.4951
      vertex -6.70556 7.41561 -11.5237
    endloop
  endfacet
  facet normal -0.334373 -0.743487 0.579156
    outer loop
      vertex -5.83539 8.05331 -10.2026
      vertex -5.72338 8.09315 -10.0868
      vertex -5.78054 8.09315 -10.1198
    endloop
  endfacet
  facet normal -0.334376 -0.743484 0.579157
    outer loop
      vertex -5.35835 7.43647 -10.7191
      vertex -5.72338 8.09315 -10.0868
      vertex -5.83539 8.05331 -10.2026
    endloop
  endfacet
  facet normal -0.254618 -0.740433 0.622036
    outer loop
      vertex -5.35835 7.43647 -10.7191
      vertex -4.94623 6.69508 -11.4329
      vertex -5.72338 8.09315 -10.0868
    endloop
  endfacet
  facet normal -0.866025 0 -0.5
    outer loop
      vertex -4.94283 -6.68753 -11.4388
      vertex -5.7735 -7.04154 -10
      vertex -5.7735 -6.863 -10
    endloop
  endfacet
  facet normal -0.866025 0 -0.5
    outer loop
      vertex -4.94283 -6.68753 -11.4388
      vertex -5.7735 -6.68837 -10
      vertex -5.7735 -6.51377 -10
    endloop
  endfacet
  facet normal -0.866025 0 -0.5
    outer loop
      vertex -4.94283 -6.68753 -11.4388
      vertex -5.7735 -6.51377 -10
      vertex -5.7735 -6.33528 -10
    endloop
  endfacet
  facet normal -0.866025 0 -0.5
    outer loop
      vertex -4.94283 -6.68753 -11.4388
      vertex -5.7735 -6.863 -10
      vertex -5.7735 -6.68837 -10
    endloop
  endfacet
  facet normal -0.866025 0 -0.5
    outer loop
      vertex -4.94283 -6.68753 -11.4388
      vertex -5.7735 -7.42822 -10
      vertex -5.7735 -7.22827 -10
    endloop
  endfacet
  facet normal -0.866026 1.66497e-06 -0.499999
    outer loop
      vertex -4.94283 -6.68753 -11.4388
      vertex -5.7735 -7.89586 -10
      vertex -5.7735 -7.64783 -10
    endloop
  endfacet
  facet normal -0.866025 0 -0.5
    outer loop
      vertex -4.94283 -6.68753 -11.4388
      vertex -5.7735 -7.64783 -10
      vertex -5.7735 -7.42822 -10
    endloop
  endfacet
  facet normal -0.866025 1.2928e-07 -0.5
    outer loop
      vertex 2.25462 0.717753 -10.5718
      vertex 1.9245 -0.148861 -10
      vertex 1.39392 0.157469 -9.08101
    endloop
  endfacet
  facet normal -0.866025 1.15085e-07 -0.5
    outer loop
      vertex 3.02837 -4.03674 -11.912
      vertex 1.9245 -0.148861 -10
      vertex 2.25462 0.717753 -10.5718
    endloop
  endfacet
  facet normal -0.866025 -0 -0.5
    outer loop
      vertex 1.9245 -0.148861 -10
      vertex 3.02837 -4.03674 -11.912
      vertex 1.9245 -4.75532 -10
    endloop
  endfacet
  facet normal -0.47545 -0.3095 0.823503
    outer loop
      vertex 2.25462 0.717753 -10.5718
      vertex -2.74513 -4.03674 -15.2453
      vertex 3.02837 -4.03674 -11.912
    endloop
  endfacet
  facet normal -0.47545 -0.3095 0.823503
    outer loop
      vertex -2.74513 -4.03674 -15.2453
      vertex 2.25462 0.717753 -10.5718
      vertex -3.51888 0.717753 -13.9051
    endloop
  endfacet
  facet normal 0.866025 2.32175e-07 0.5
    outer loop
      vertex -3.68738 -1.04023 -13.6133
      vertex -3.51888 0.717753 -13.9051
      vertex -3.6878 0.607795 -13.6125
    endloop
  endfacet
  facet normal 0.866025 8.22455e-08 0.5
    outer loop
      vertex -2.74513 -4.03674 -15.2453
      vertex -3.84619 -2.53823 -13.3382
      vertex -3.90419 -3.08534 -13.2377
    endloop
  endfacet
  facet normal 0.866026 9.1851e-08 0.5
    outer loop
      vertex -3.68738 -1.04023 -13.6133
      vertex -2.74513 -4.03674 -15.2453
      vertex -3.51888 0.717753 -13.9051
    endloop
  endfacet
  facet normal 0.866025 2.67816e-08 0.5
    outer loop
      vertex -3.84619 -2.53823 -13.3382
      vertex -2.74513 -4.03674 -15.2453
      vertex -3.68738 -1.04023 -13.6133
    endloop
  endfacet
  facet normal 0.866025 6.59072e-10 0.5
    outer loop
      vertex -4.32886 -4.9956 -12.5022
      vertex -2.74513 -4.03674 -15.2453
      vertex -3.90419 -3.08534 -13.2377
    endloop
  endfacet
  facet normal 0.866025 2.5213e-06 0.500001
    outer loop
      vertex -2.74513 -4.03674 -15.2453
      vertex -4.32886 -4.9956 -12.5022
      vertex -4.36311 -5.08999 -12.4429
    endloop
  endfacet
  facet normal 0.15475 -0.950899 -0.268035
    outer loop
      vertex -3.6878 0.607794 -13.6125
      vertex 1.04391 0.359549 -10
      vertex -5.7735 -0.749921 -10
    endloop
  endfacet
  facet normal 0.15475 -0.950899 -0.268035
    outer loop
      vertex -3.51888 0.717753 -13.9051
      vertex 1.04391 0.359549 -10
      vertex -3.6878 0.607794 -13.6125
    endloop
  endfacet
  facet normal 0.17962 -0.950505 -0.253528
    outer loop
      vertex -3.51888 0.717753 -13.9051
      vertex -3.6878 0.607794 -13.6125
      vertex -3.6878 0.607795 -13.6125
    endloop
  endfacet
  facet normal 0.15475 -0.950899 -0.268035
    outer loop
      vertex 1.04391 0.359549 -10
      vertex -3.51888 0.717753 -13.9051
      vertex 2.25462 0.717753 -10.5718
    endloop
  endfacet
  facet normal 0.15475 -0.950899 -0.268035
    outer loop
      vertex 1.39392 0.157469 -9.08101
      vertex 1.04391 0.359549 -10
      vertex 2.25462 0.717753 -10.5718
    endloop
  endfacet
  facet normal -0.15475 0.950899 0.268035
    outer loop
      vertex 1.9245 -4.75532 -10
      vertex -5.12238 -5.58424 -11.1278
      vertex -5.7735 -6.0081 -10
    endloop
  endfacet
  facet normal -0.15475 0.950899 0.268035
    outer loop
      vertex -2.74513 -4.03674 -15.2453
      vertex 1.9245 -4.75532 -10
      vertex 3.02837 -4.03674 -11.912
    endloop
  endfacet
  facet normal -0.15475 0.950899 0.268035
    outer loop
      vertex 1.9245 -4.75532 -10
      vertex -4.36311 -5.08999 -12.4429
      vertex -5.12238 -5.58424 -11.1278
    endloop
  endfacet
  facet normal -0.15475 0.950899 0.268035
    outer loop
      vertex 1.9245 -4.75532 -10
      vertex -2.74513 -4.03674 -15.2453
      vertex -4.36311 -5.08999 -12.4429
    endloop
  endfacet
  facet normal -0.994522 0.104529 0
    outer loop
      vertex -9.85525 1.37717 -17.0926
      vertex -9.78148 2.07912 -16.8773
      vertex -9.78148 2.07912 -30.9017
    endloop
  endfacet
  facet normal -0.994522 0.104529 3.83977e-08
    outer loop
      vertex -9.78148 2.07912 -30.9017
      vertex -9.8896 1.05034 -17.1929
      vertex -9.85525 1.37717 -17.0926
    endloop
  endfacet
  facet normal -0.994522 0.104529 -1.52143e-08
    outer loop
      vertex -9.78148 2.07912 -30.9017
      vertex -9.96929 0.292157 -17.2394
      vertex -9.8896 1.05034 -17.1929
    endloop
  endfacet
  facet normal -0.994522 0.104528 -3.70728e-08
    outer loop
      vertex -10 8.90046e-16 -30.9017
      vertex -9.96929 0.292157 -17.2394
      vertex -9.78148 2.07912 -30.9017
    endloop
  endfacet
  facet normal -0.994522 0.104527 4.32785e-18
    outer loop
      vertex -9.96929 0.292157 -17.2394
      vertex -10 8.90046e-16 -30.9017
      vertex -10 3.28073e-16 -17.2573
    endloop
  endfacet
  facet normal 0.994522 0.104529 0
    outer loop
      vertex 9.78148 2.07912 -10
      vertex 10 1.65545e-15 -30.9017
      vertex 9.78148 2.07912 -30.9017
    endloop
  endfacet
  facet normal 0.994522 0.104529 4.30522e-18
    outer loop
      vertex 10 1.65545e-15 -30.9017
      vertex 9.78148 2.07912 -10
      vertex 10 7.9457e-16 -10
    endloop
  endfacet
  facet normal 0.207911 -0.978148 0
    outer loop
      vertex 1.04528 -9.94522 -10
      vertex 3.09017 -9.51056 -30.9017
      vertex 3.09017 -9.51056 -10
    endloop
  endfacet
  facet normal 0.207911 -0.978148 0
    outer loop
      vertex 3.09017 -9.51056 -30.9017
      vertex 1.04528 -9.94522 -10
      vertex 1.04528 -9.94522 -30.9017
    endloop
  endfacet
  facet normal 0 1 -0
    outer loop
      vertex 1.04528 9.94522 -30.9017
      vertex -1.04528 9.94522 -10
      vertex 1.04528 9.94522 -10
    endloop
  endfacet
  facet normal 0 1 0
    outer loop
      vertex -1.04528 9.94522 -10
      vertex 1.04528 9.94522 -30.9017
      vertex -1.04528 9.94522 -30.9017
    endloop
  endfacet
  facet normal 0.866026 -0.5 0
    outer loop
      vertex 8.09017 -5.87785 -10
      vertex 9.13545 -4.06737 -30.9017
      vertex 9.13545 -4.06737 -10
    endloop
  endfacet
  facet normal 0.866026 -0.5 0
    outer loop
      vertex 9.13545 -4.06737 -30.9017
      vertex 8.09017 -5.87785 -10
      vertex 8.09017 -5.87785 -30.9017
    endloop
  endfacet
  facet normal 0.743145 0.669131 0
    outer loop
      vertex 8.09017 5.87785 -10
      vertex 6.69131 7.43145 -30.9017
      vertex 6.69131 7.43145 -10
    endloop
  endfacet
  facet normal 0.743145 0.669131 0
    outer loop
      vertex 6.69131 7.43145 -30.9017
      vertex 8.09017 5.87785 -10
      vertex 8.09017 5.87785 -30.9017
    endloop
  endfacet
  facet normal 0.866026 0.5 0
    outer loop
      vertex 9.13545 4.06737 -10
      vertex 8.09017 5.87785 -30.9017
      vertex 8.09017 5.87785 -10
    endloop
  endfacet
  facet normal 0.866026 0.5 0
    outer loop
      vertex 8.09017 5.87785 -30.9017
      vertex 9.13545 4.06737 -10
      vertex 9.13545 4.06737 -30.9017
    endloop
  endfacet
  facet normal 0.951057 -0.309017 0
    outer loop
      vertex 9.13545 -4.06737 -10
      vertex 9.78148 -2.07912 -30.9017
      vertex 9.78148 -2.07912 -10
    endloop
  endfacet
  facet normal 0.951057 -0.309017 0
    outer loop
      vertex 9.78148 -2.07912 -30.9017
      vertex 9.13545 -4.06737 -10
      vertex 9.13545 -4.06737 -30.9017
    endloop
  endfacet
  facet normal 0 -1 0
    outer loop
      vertex -1.04528 -9.94522 -30.9017
      vertex 1.04528 -9.94522 -10
      vertex -1.04528 -9.94522 -10
    endloop
  endfacet
  facet normal 0 -1 -0
    outer loop
      vertex 1.04528 -9.94522 -10
      vertex -1.04528 -9.94522 -30.9017
      vertex 1.04528 -9.94522 -30.9017
    endloop
  endfacet
  facet normal -0.951057 0.309015 0
    outer loop
      vertex -9.13545 4.06737 -30.9017
      vertex -9.18821 3.90501 -15.8679
      vertex -9.13545 4.06737 -15.7538
    endloop
  endfacet
  facet normal -0.951057 0.309017 2.47975e-08
    outer loop
      vertex -9.13545 4.06737 -30.9017
      vertex -9.45139 3.095 -16.4368
      vertex -9.18821 3.90501 -15.8679
    endloop
  endfacet
  facet normal -0.951057 0.309017 1.67669e-09
    outer loop
      vertex -9.13545 4.06737 -30.9017
      vertex -9.6514 2.47945 -16.7037
      vertex -9.45139 3.095 -16.4368
    endloop
  endfacet
  facet normal -0.951057 0.309017 0
    outer loop
      vertex -9.78148 2.07912 -16.8773
      vertex -9.13545 4.06737 -30.9017
      vertex -9.78148 2.07912 -30.9017
    endloop
  endfacet
  facet normal -0.951056 0.309018 1.08223e-07
    outer loop
      vertex -9.13545 4.06737 -30.9017
      vertex -9.78148 2.07912 -16.8773
      vertex -9.6514 2.47945 -16.7037
    endloop
  endfacet
  facet normal -0.207911 0.978148 0
    outer loop
      vertex -1.04528 9.94522 -30.9017
      vertex -3.09017 9.51056 -10
      vertex -1.04528 9.94522 -10
    endloop
  endfacet
  facet normal -0.207911 0.978148 0
    outer loop
      vertex -3.09017 9.51056 -10
      vertex -1.04528 9.94522 -30.9017
      vertex -3.09017 9.51056 -30.9017
    endloop
  endfacet
  facet normal 0.951057 0.309017 0
    outer loop
      vertex 9.78148 2.07912 -10
      vertex 9.13545 4.06737 -30.9017
      vertex 9.13545 4.06737 -10
    endloop
  endfacet
  facet normal 0.951057 0.309017 0
    outer loop
      vertex 9.13545 4.06737 -30.9017
      vertex 9.78148 2.07912 -10
      vertex 9.78148 2.07912 -30.9017
    endloop
  endfacet
  facet normal 0.406737 0.913545 8.42831e-09
    outer loop
      vertex 3.09017 9.51056 -30.9017
      vertex 4.02403 9.09478 -10
      vertex 5 8.66025 -30.9017
    endloop
  endfacet
  facet normal 0.406737 0.913545 0
    outer loop
      vertex 4.02403 9.09478 -10
      vertex 3.09017 9.51056 -30.9017
      vertex 3.09017 9.51056 -10
    endloop
  endfacet
  facet normal 0.587785 -0.809017 0
    outer loop
      vertex 5 -8.66025 -30.9017
      vertex 6.69131 -7.43145 -10
      vertex 5 -8.66025 -10
    endloop
  endfacet
  facet normal 0.587785 -0.809017 0
    outer loop
      vertex 6.69131 -7.43145 -10
      vertex 5 -8.66025 -30.9017
      vertex 6.69131 -7.43145 -30.9017
    endloop
  endfacet
  facet normal 0.743145 -0.669131 0
    outer loop
      vertex 6.69131 -7.43145 -10
      vertex 8.09017 -5.87785 -30.9017
      vertex 8.09017 -5.87785 -10
    endloop
  endfacet
  facet normal 0.743145 -0.669131 0
    outer loop
      vertex 8.09017 -5.87785 -30.9017
      vertex 6.69131 -7.43145 -10
      vertex 6.69131 -7.43145 -30.9017
    endloop
  endfacet
  facet normal 0.406737 -0.913545 0
    outer loop
      vertex 3.09017 -9.51056 -30.9017
      vertex 5 -8.66025 -10
      vertex 3.09017 -9.51056 -10
    endloop
  endfacet
  facet normal 0.406737 -0.913545 0
    outer loop
      vertex 5 -8.66025 -10
      vertex 3.09017 -9.51056 -30.9017
      vertex 5 -8.66025 -30.9017
    endloop
  endfacet
  facet normal 0.994522 -0.104529 -5.08152e-18
    outer loop
      vertex 9.78148 -2.07912 -10
      vertex 10 1.65545e-15 -30.9017
      vertex 10 7.9457e-16 -10
    endloop
  endfacet
  facet normal 0.994522 -0.104529 0
    outer loop
      vertex 10 1.65545e-15 -30.9017
      vertex 9.78148 -2.07912 -10
      vertex 9.78148 -2.07912 -30.9017
    endloop
  endfacet
  facet normal -0.743145 -0.669131 0
    outer loop
      vertex -6.69131 -7.43145 -30.9017
      vertex -8.09017 -5.87785 -13.9344
      vertex -8.09017 -5.87785 -30.9017
    endloop
  endfacet
  facet normal -0.743145 -0.669131 -2.59178e-08
    outer loop
      vertex -8.09017 -5.87785 -13.9344
      vertex -6.69131 -7.43145 -30.9017
      vertex -7.60378 -6.41805 -13.2009
    endloop
  endfacet
  facet normal -0.743144 -0.669132 5.9353e-08
    outer loop
      vertex -7.60378 -6.41805 -13.2009
      vertex -6.69131 -7.43145 -30.9017
      vertex -7.36113 -6.68753 -12.835
    endloop
  endfacet
  facet normal -0.743145 -0.669131 0
    outer loop
      vertex -7.36113 -6.68753 -12.835
      vertex -6.69131 -7.43145 -30.9017
      vertex -6.69131 -7.43145 -11.4952
    endloop
  endfacet
  facet normal -0.743144 0.669132 0
    outer loop
      vertex -6.69131 7.43145 -30.9017
      vertex -6.70556 7.41561 -11.5237
      vertex -6.69131 7.43145 -11.4951
    endloop
  endfacet
  facet normal -0.743144 0.669131 -9.8233e-10
    outer loop
      vertex -6.69131 7.43145 -30.9017
      vertex -7.35433 6.69508 -12.8232
      vertex -6.70556 7.41561 -11.5237
    endloop
  endfacet
  facet normal -0.743145 0.669131 0
    outer loop
      vertex -8.09017 5.87785 -13.9344
      vertex -6.69131 7.43145 -30.9017
      vertex -8.09017 5.87785 -30.9017
    endloop
  endfacet
  facet normal -0.743145 0.669131 -1.46545e-08
    outer loop
      vertex -6.69131 7.43145 -30.9017
      vertex -8.09017 5.87785 -13.9344
      vertex -7.35433 6.69508 -12.8232
    endloop
  endfacet
  facet normal -0.587786 0.809017 0
    outer loop
      vertex -6.69131 7.43145 -11.4951
      vertex -5.83539 8.05331 -10.2026
      vertex -6.69131 7.43145 -30.9017
    endloop
  endfacet
  facet normal -0.587785 0.809017 -5.57599e-06
    outer loop
      vertex -5 8.66025 -10
      vertex -5.74547 8.11863 -10.0485
      vertex -5.7735 8.09827 -10
    endloop
  endfacet
  facet normal -0.587785 0.809017 1.73899e-06
    outer loop
      vertex -5 8.66025 -10
      vertex -5.78054 8.09315 -10.1198
      vertex -5.74547 8.11863 -10.0485
    endloop
  endfacet
  facet normal -0.587786 0.809016 7.61619e-06
    outer loop
      vertex -5 8.66025 -10
      vertex -5.83539 8.05331 -10.2026
      vertex -5.78054 8.09315 -10.1198
    endloop
  endfacet
  facet normal -0.587785 0.809017 -1.34093e-08
    outer loop
      vertex -5 8.66025 -30.9017
      vertex -5.83539 8.05331 -10.2026
      vertex -5 8.66025 -10
    endloop
  endfacet
  facet normal -0.587785 0.809017 -3.54507e-08
    outer loop
      vertex -5.83539 8.05331 -10.2026
      vertex -5 8.66025 -30.9017
      vertex -6.69131 7.43145 -30.9017
    endloop
  endfacet
  facet normal -0.406737 0.913546 0
    outer loop
      vertex -4.06614 9.07604 -10
      vertex -3.09017 9.51056 -10
      vertex -3.09017 9.51056 -30.9017
    endloop
  endfacet
  facet normal 0.406737 0.913545 9.27901e-09
    outer loop
      vertex 5 8.66025 -30.9017
      vertex 4.02403 9.09478 -10
      vertex 5 8.66025 -10
    endloop
  endfacet
  facet normal 0.207911 0.978148 -0
    outer loop
      vertex 3.09017 9.51056 -30.9017
      vertex 1.04528 9.94522 -10
      vertex 3.09017 9.51056 -10
    endloop
  endfacet
  facet normal 0.207911 0.978148 0
    outer loop
      vertex 1.04528 9.94522 -10
      vertex 3.09017 9.51056 -30.9017
      vertex 1.04528 9.94522 -30.9017
    endloop
  endfacet
  facet normal 0.587785 0.809017 1.34093e-08
    outer loop
      vertex 5 8.66025 -30.9017
      vertex 5 8.66025 -10
      vertex 5.8643 8.03231 -10
    endloop
  endfacet
  facet normal -0.207911 -0.978148 0
    outer loop
      vertex -3.09017 -9.51056 -30.9017
      vertex -1.04528 -9.94522 -10
      vertex -3.09017 -9.51056 -10
    endloop
  endfacet
  facet normal -0.207911 -0.978148 -0
    outer loop
      vertex -1.04528 -9.94522 -10
      vertex -3.09017 -9.51056 -30.9017
      vertex -1.04528 -9.94522 -30.9017
    endloop
  endfacet
  facet normal 0 0 -1
    outer loop
      vertex 9.78148 -2.07912 -30.9017
      vertex 9.78148 2.07912 -30.9017
      vertex 10 1.65545e-15 -30.9017
    endloop
  endfacet
  facet normal 0 0 -1
    outer loop
      vertex 9.13545 -4.06737 -30.9017
      vertex 9.78148 2.07912 -30.9017
      vertex 9.78148 -2.07912 -30.9017
    endloop
  endfacet
  facet normal 0 0 -1
    outer loop
      vertex 9.13545 -4.06737 -30.9017
      vertex 9.13545 4.06737 -30.9017
      vertex 9.78148 2.07912 -30.9017
    endloop
  endfacet
  facet normal 0 0 -1
    outer loop
      vertex 8.09017 -5.87785 -30.9017
      vertex 9.13545 4.06737 -30.9017
      vertex 9.13545 -4.06737 -30.9017
    endloop
  endfacet
  facet normal 0 0 -1
    outer loop
      vertex 8.09017 -5.87785 -30.9017
      vertex 8.09017 5.87785 -30.9017
      vertex 9.13545 4.06737 -30.9017
    endloop
  endfacet
  facet normal 0 0 -1
    outer loop
      vertex 6.69131 -7.43145 -30.9017
      vertex 8.09017 5.87785 -30.9017
      vertex 8.09017 -5.87785 -30.9017
    endloop
  endfacet
  facet normal 0 0 -1
    outer loop
      vertex 6.69131 -7.43145 -30.9017
      vertex 6.69131 7.43145 -30.9017
      vertex 8.09017 5.87785 -30.9017
    endloop
  endfacet
  facet normal 0 0 -1
    outer loop
      vertex 5 -8.66025 -30.9017
      vertex 6.69131 7.43145 -30.9017
      vertex 6.69131 -7.43145 -30.9017
    endloop
  endfacet
  facet normal 1.04773e-06 -1.10121e-07 -1
    outer loop
      vertex 5 -8.66025 -30.9017
      vertex 5 8.66025 -30.9017
      vertex 6.69131 7.43145 -30.9017
    endloop
  endfacet
  facet normal 4.9029e-08 -1.10121e-07 -1
    outer loop
      vertex 3.09017 -9.51056 -30.9017
      vertex 5 8.66025 -30.9017
      vertex 5 -8.66025 -30.9017
    endloop
  endfacet
  facet normal -4.46454e-08 -1.00275e-07 -1
    outer loop
      vertex 3.09017 -9.51056 -30.9017
      vertex 3.09017 9.51056 -30.9017
      vertex 5 8.66025 -30.9017
    endloop
  endfacet
  facet normal 9.54055e-07 -1.00275e-07 -1
    outer loop
      vertex 1.04528 -9.94522 -30.9017
      vertex 3.09017 9.51056 -30.9017
      vertex 3.09017 -9.51056 -30.9017
    endloop
  endfacet
  facet normal 0 0 -1
    outer loop
      vertex 1.04528 -9.94522 -30.9017
      vertex 1.04528 9.94522 -30.9017
      vertex 3.09017 9.51056 -30.9017
    endloop
  endfacet
  facet normal 0 0 -1
    outer loop
      vertex -1.04528 -9.94522 -30.9017
      vertex 1.04528 9.94522 -30.9017
      vertex 1.04528 -9.94522 -30.9017
    endloop
  endfacet
  facet normal 0 0 -1
    outer loop
      vertex -1.04528 -9.94522 -30.9017
      vertex -1.04528 9.94522 -30.9017
      vertex 1.04528 9.94522 -30.9017
    endloop
  endfacet
  facet normal 0 0 -1
    outer loop
      vertex -3.09017 -9.51056 -30.9017
      vertex -1.04528 9.94522 -30.9017
      vertex -1.04528 -9.94522 -30.9017
    endloop
  endfacet
  facet normal 0 0 -1
    outer loop
      vertex -3.09017 -9.51056 -30.9017
      vertex -3.09017 9.51056 -30.9017
      vertex -1.04528 9.94522 -30.9017
    endloop
  endfacet
  facet normal 0 0 -1
    outer loop
      vertex -5 -8.66025 -30.9017
      vertex -3.09017 9.51056 -30.9017
      vertex -3.09017 -9.51056 -30.9017
    endloop
  endfacet
  facet normal 0 0 -1
    outer loop
      vertex -5 -8.66025 -30.9017
      vertex -5 8.66025 -30.9017
      vertex -3.09017 9.51056 -30.9017
    endloop
  endfacet
  facet normal 0 0 -1
    outer loop
      vertex -6.69131 -7.43145 -30.9017
      vertex -5 8.66025 -30.9017
      vertex -5 -8.66025 -30.9017
    endloop
  endfacet
  facet normal 0 0 -1
    outer loop
      vertex -6.69131 -7.43145 -30.9017
      vertex -6.69131 7.43145 -30.9017
      vertex -5 8.66025 -30.9017
    endloop
  endfacet
  facet normal 0 0 -1
    outer loop
      vertex -8.09017 -5.87785 -30.9017
      vertex -6.69131 7.43145 -30.9017
      vertex -6.69131 -7.43145 -30.9017
    endloop
  endfacet
  facet normal 0 0 -1
    outer loop
      vertex -8.09017 -5.87785 -30.9017
      vertex -8.09017 5.87785 -30.9017
      vertex -6.69131 7.43145 -30.9017
    endloop
  endfacet
  facet normal 0 0 -1
    outer loop
      vertex -9.13545 -4.06737 -30.9017
      vertex -8.09017 5.87785 -30.9017
      vertex -8.09017 -5.87785 -30.9017
    endloop
  endfacet
  facet normal 0 0 -1
    outer loop
      vertex -9.13545 -4.06737 -30.9017
      vertex -9.13545 4.06737 -30.9017
      vertex -8.09017 5.87785 -30.9017
    endloop
  endfacet
  facet normal 0 0 -1
    outer loop
      vertex -9.78148 -2.07912 -30.9017
      vertex -9.13545 4.06737 -30.9017
      vertex -9.13545 -4.06737 -30.9017
    endloop
  endfacet
  facet normal 0 0 -1
    outer loop
      vertex -9.78148 -2.07912 -30.9017
      vertex -9.78148 2.07912 -30.9017
      vertex -9.13545 4.06737 -30.9017
    endloop
  endfacet
  facet normal 0 -0 -1
    outer loop
      vertex -9.78148 2.07912 -30.9017
      vertex -9.78148 -2.07912 -30.9017
      vertex -10 8.90046e-16 -30.9017
    endloop
  endfacet
  facet normal -0.587785 -0.809017 3.96946e-05
    outer loop
      vertex -5.77041 -8.10052 -10.0054
      vertex -5 -8.66025 -10
      vertex -5.7735 -8.09827 -10
    endloop
  endfacet
  facet normal -0.587785 -0.809017 -1.17515e-05
    outer loop
      vertex -5.74609 -8.11819 -10.0475
      vertex -5 -8.66025 -10
      vertex -5.77041 -8.10052 -10.0054
    endloop
  endfacet
  facet normal -0.587786 -0.809017 1.57012e-06
    outer loop
      vertex -5.78876 -8.08718 -10.134
      vertex -5 -8.66025 -10
      vertex -5.74609 -8.11819 -10.0475
    endloop
  endfacet
  facet normal -0.587786 -0.809017 2.07871e-06
    outer loop
      vertex -5.83546 -8.05325 -10.2045
      vertex -5 -8.66025 -10
      vertex -5.78876 -8.08718 -10.134
    endloop
  endfacet
  facet normal -0.587785 -0.809017 -2.77607e-09
    outer loop
      vertex -5 -8.66025 -30.9017
      vertex -5.83546 -8.05325 -10.2045
      vertex -6.69131 -7.43145 -30.9017
    endloop
  endfacet
  facet normal -0.587785 -0.809017 -1.34093e-08
    outer loop
      vertex -5.83546 -8.05325 -10.2045
      vertex -5 -8.66025 -30.9017
      vertex -5 -8.66025 -10
    endloop
  endfacet
  facet normal -0.951057 -0.309017 0
    outer loop
      vertex -9.13545 -4.06737 -30.9017
      vertex -9.78148 -2.07912 -16.8774
      vertex -9.78148 -2.07912 -30.9017
    endloop
  endfacet
  facet normal -0.951057 -0.309016 -7.08514e-08
    outer loop
      vertex -9.78148 -2.07912 -16.8774
      vertex -9.13545 -4.06737 -30.9017
      vertex -9.55224 -2.78463 -16.5723
    endloop
  endfacet
  facet normal -0.951056 -0.309019 1.84954e-07
    outer loop
      vertex -9.55224 -2.78463 -16.5723
      vertex -9.13545 -4.06737 -30.9017
      vertex -9.45453 -3.08534 -16.4422
    endloop
  endfacet
  facet normal -0.951057 -0.309017 0
    outer loop
      vertex -9.45453 -3.08534 -16.4422
      vertex -9.13545 -4.06737 -30.9017
      vertex -9.13545 -4.06737 -15.7538
    endloop
  endfacet
  facet normal -0.406737 -0.913545 -9.27902e-09
    outer loop
      vertex -5 -8.66025 -30.9017
      vertex -4.06614 -9.07604 -10
      vertex -5 -8.66025 -10
    endloop
  endfacet
  facet normal -0.406737 -0.913545 -1.79119e-08
    outer loop
      vertex -4.06614 -9.07604 -10
      vertex -5 -8.66025 -30.9017
      vertex -3.09017 -9.51056 -30.9017
    endloop
  endfacet
  facet normal -0.406737 -0.913546 -0
    outer loop
      vertex -3.09017 -9.51056 -10
      vertex -4.06614 -9.07604 -10
      vertex -3.09017 -9.51056 -30.9017
    endloop
  endfacet
  facet normal -0.866026 0.5 0
    outer loop
      vertex -8.09017 5.87785 -30.9017
      vertex -8.59446 5.0044 -14.9591
      vertex -8.09017 5.87785 -13.9344
    endloop
  endfacet
  facet normal -0.866026 0.5 0
    outer loop
      vertex -9.13545 4.06737 -15.7538
      vertex -8.09017 5.87785 -30.9017
      vertex -9.13545 4.06737 -30.9017
    endloop
  endfacet
  facet normal -0.866026 0.5 -8.71261e-09
    outer loop
      vertex -8.09017 5.87785 -30.9017
      vertex -9.13545 4.06737 -15.7538
      vertex -8.59446 5.0044 -14.9591
    endloop
  endfacet
  facet normal -0.406737 0.913545 -1.79119e-08
    outer loop
      vertex -5 8.66025 -30.9017
      vertex -4.06614 9.07604 -10
      vertex -3.09017 9.51056 -30.9017
    endloop
  endfacet
  facet normal -0.406737 0.913545 -9.27902e-09
    outer loop
      vertex -4.06614 9.07604 -10
      vertex -5 8.66025 -30.9017
      vertex -5 8.66025 -10
    endloop
  endfacet
  facet normal 0.587785 0.809017 -0
    outer loop
      vertex 6.69131 7.43145 -30.9017
      vertex 5.8643 8.03231 -10
      vertex 6.69131 7.43145 -10
    endloop
  endfacet
  facet normal 0.587785 0.809017 6.5924e-09
    outer loop
      vertex 5.8643 8.03231 -10
      vertex 6.69131 7.43145 -30.9017
      vertex 5 8.66025 -30.9017
    endloop
  endfacet
  facet normal -0.866026 -0.5 0
    outer loop
      vertex -8.09017 -5.87785 -30.9017
      vertex -9.13545 -4.06737 -15.7538
      vertex -9.13545 -4.06737 -30.9017
    endloop
  endfacet
  facet normal -0.866025 -0.5 2.41347e-08
    outer loop
      vertex -9.13545 -4.06737 -15.7538
      vertex -8.09017 -5.87785 -30.9017
      vertex -8.59954 -4.9956 -14.9679
    endloop
  endfacet
  facet normal -0.866026 -0.5 0
    outer loop
      vertex -8.59954 -4.9956 -14.9679
      vertex -8.09017 -5.87785 -30.9017
      vertex -8.09017 -5.87785 -13.9344
    endloop
  endfacet
  facet normal -0.587785 -0.809017 0
    outer loop
      vertex -5.83546 -8.05325 -10.2045
      vertex -6.69131 -7.43145 -11.4952
      vertex -6.69131 -7.43145 -30.9017
    endloop
  endfacet
  facet normal -0.994522 -0.104529 -0
    outer loop
      vertex -9.78148 -2.07912 -16.8774
      vertex -9.85526 -1.37713 -17.0918
      vertex -9.78148 -2.07912 -30.9017
    endloop
  endfacet
  facet normal -0.994522 -0.104528 -4.30518e-18
    outer loop
      vertex -10 8.90046e-16 -30.9017
      vertex -9.89067 -1.04023 -17.1947
      vertex -10 3.28073e-16 -17.2573
    endloop
  endfacet
  facet normal -0.994522 -0.104528 -5.50482e-08
    outer loop
      vertex -9.78148 -2.07912 -30.9017
      vertex -9.89067 -1.04023 -17.1947
      vertex -10 8.90046e-16 -30.9017
    endloop
  endfacet
  facet normal -0.994522 -0.10453 2.53074e-08
    outer loop
      vertex -9.89067 -1.04023 -17.1947
      vertex -9.78148 -2.07912 -30.9017
      vertex -9.85526 -1.37713 -17.0918
    endloop
  endfacet
  facet normal 0 0 1
    outer loop
      vertex 3.89215 -1.28488 -10
      vertex 1.9245 -0.148861 -10
      vertex 2.37237 -2.64782 -10
    endloop
  endfacet
  facet normal -0 0 1
    outer loop
      vertex 6.7612 0.284415 -10
      vertex 10 7.9457e-16 -10
      vertex 9.78148 2.07912 -10
    endloop
  endfacet
  facet normal -0 0 1
    outer loop
      vertex 7.24679 2.55181 -10
      vertex 9.78148 2.07912 -10
      vertex 9.13545 4.06737 -10
    endloop
  endfacet
  facet normal 0 0 1
    outer loop
      vertex 6.7612 0.284415 -10
      vertex 9.78148 2.07912 -10
      vertex 7.24679 2.55181 -10
    endloop
  endfacet
  facet normal 0 0 1
    outer loop
      vertex 7.24679 2.55181 -10
      vertex 9.13545 4.06737 -10
      vertex 8.09017 5.87785 -10
    endloop
  endfacet
  facet normal 0 0 1
    outer loop
      vertex 10 7.9457e-16 -10
      vertex 6.7612 0.284415 -10
      vertex 9.78148 -2.07912 -10
    endloop
  endfacet
  facet normal -0 0 1
    outer loop
      vertex 7.49137 -2.81912 -10
      vertex 9.13545 -4.06737 -10
      vertex 7.62497 -2.69931 -10
    endloop
  endfacet
  facet normal 0 -0 1
    outer loop
      vertex 7.62497 -2.69931 -10
      vertex 9.78148 -2.07912 -10
      vertex 6.7612 0.284415 -10
    endloop
  endfacet
  facet normal 0 0 1
    outer loop
      vertex 5.80091 3.60159 -10
      vertex 8.09017 5.87785 -10
      vertex 6.69131 7.43145 -10
    endloop
  endfacet
  facet normal 0 0 1
    outer loop
      vertex 8.09017 5.87785 -10
      vertex 5.80091 3.60159 -10
      vertex 7.24679 2.55181 -10
    endloop
  endfacet
  facet normal 0 0 1
    outer loop
      vertex 5.80091 3.60159 -10
      vertex 6.69131 7.43145 -10
      vertex 5.8643 8.03231 -10
    endloop
  endfacet
  facet normal 0 0 1
    outer loop
      vertex 7.24679 2.55181 -10
      vertex 5.80091 3.60159 -10
      vertex 5.87564 3.34345 -10
    endloop
  endfacet
  facet normal 0 0 1
    outer loop
      vertex 5.8643 8.03231 -10
      vertex 5.65507 3.4708 -10
      vertex 5.80091 3.60159 -10
    endloop
  endfacet
  facet normal 0 0 1
    outer loop
      vertex 5 8.66025 -10
      vertex 5.65507 3.4708 -10
      vertex 5.8643 8.03231 -10
    endloop
  endfacet
  facet normal 0 0 1
    outer loop
      vertex 4.02403 9.09478 -10
      vertex 5.65507 3.4708 -10
      vertex 5 8.66025 -10
    endloop
  endfacet
  facet normal 0 0 1
    outer loop
      vertex -1.41346 7.55181 -10
      vertex 4.02403 9.09478 -10
      vertex 3.09017 9.51056 -10
    endloop
  endfacet
  facet normal 0 0 1
    outer loop
      vertex -1.41346 7.55181 -10
      vertex 3.09017 9.51056 -10
      vertex 1.04528 9.94522 -10
    endloop
  endfacet
  facet normal 0 0 1
    outer loop
      vertex -1.41346 7.55181 -10
      vertex 1.04528 9.94522 -10
      vertex -1.04528 9.94522 -10
    endloop
  endfacet
  facet normal 0 0 1
    outer loop
      vertex 4.02403 9.09478 -10
      vertex -1.41346 7.55181 -10
      vertex 5.65507 3.4708 -10
    endloop
  endfacet
  facet normal -0 0 1
    outer loop
      vertex -3.09017 9.51056 -10
      vertex -1.41346 7.55181 -10
      vertex -1.04528 9.94522 -10
    endloop
  endfacet
  facet normal -0 0 1
    outer loop
      vertex -4.06614 9.07604 -10
      vertex -1.41346 7.55181 -10
      vertex -3.09017 9.51056 -10
    endloop
  endfacet
  facet normal -0 0 1
    outer loop
      vertex -5 8.66025 -10
      vertex -1.41346 7.55181 -10
      vertex -4.06614 9.07604 -10
    endloop
  endfacet
  facet normal 0 0 1
    outer loop
      vertex 9.13545 -4.06737 -10
      vertex 7.49137 -2.81912 -10
      vertex 8.09017 -5.87785 -10
    endloop
  endfacet
  facet normal 0 0 1
    outer loop
      vertex 7.49137 -2.81912 -10
      vertex 6.69131 -7.43145 -10
      vertex 8.09017 -5.87785 -10
    endloop
  endfacet
  facet normal -0 0 1
    outer loop
      vertex 1.9245 -4.75532 -10
      vertex 6.69131 -7.43145 -10
      vertex 7.49137 -2.81912 -10
    endloop
  endfacet
  facet normal 0 0 1
    outer loop
      vertex 6.69131 -7.43145 -10
      vertex 1.9245 -4.75532 -10
      vertex 5 -8.66025 -10
    endloop
  endfacet
  facet normal 0 0 1
    outer loop
      vertex 1.9245 -4.75532 -10
      vertex 7.49137 -2.81912 -10
      vertex 2.37237 -2.64782 -10
    endloop
  endfacet
  facet normal 0 0 1
    outer loop
      vertex 1.9245 -4.75532 -10
      vertex 2.37237 -2.64782 -10
      vertex 1.9245 -0.148861 -10
    endloop
  endfacet
  facet normal 0 0 1
    outer loop
      vertex 5 -8.66025 -10
      vertex 1.9245 -4.75532 -10
      vertex 3.09017 -9.51056 -10
    endloop
  endfacet
  facet normal 0 0 1
    outer loop
      vertex 1.9245 -4.75532 -10
      vertex 1.04528 -9.94522 -10
      vertex 3.09017 -9.51056 -10
    endloop
  endfacet
  facet normal 0 0 1
    outer loop
      vertex 1.9245 -4.75532 -10
      vertex -1.04528 -9.94522 -10
      vertex 1.04528 -9.94522 -10
    endloop
  endfacet
  facet normal 0 0 1
    outer loop
      vertex 1.9245 -4.75532 -10
      vertex -3.09017 -9.51056 -10
      vertex -1.04528 -9.94522 -10
    endloop
  endfacet
  facet normal -0 0 1
    outer loop
      vertex -5.7735 -6.0081 -10
      vertex -3.09017 -9.51056 -10
      vertex 1.9245 -4.75532 -10
    endloop
  endfacet
  facet normal 0 0 1
    outer loop
      vertex -3.09017 -9.51056 -10
      vertex -5.7735 -6.0081 -10
      vertex -4.06614 -9.07604 -10
    endloop
  endfacet
  facet normal 0 0 1
    outer loop
      vertex -4.06614 -9.07604 -10
      vertex -5.7735 -6.0081 -10
      vertex -5.7735 -6.33528 -10
    endloop
  endfacet
  facet normal -0 0 1
    outer loop
      vertex -5.7735 -6.51377 -10
      vertex -4.06614 -9.07604 -10
      vertex -5.7735 -6.33528 -10
    endloop
  endfacet
  facet normal -0 0 1
    outer loop
      vertex -5.7735 -6.68837 -10
      vertex -4.06614 -9.07604 -10
      vertex -5.7735 -6.51377 -10
    endloop
  endfacet
  facet normal -0 0 1
    outer loop
      vertex -5.7735 -6.863 -10
      vertex -4.06614 -9.07604 -10
      vertex -5.7735 -6.68837 -10
    endloop
  endfacet
  facet normal -0 0 1
    outer loop
      vertex -5.7735 -7.04154 -10
      vertex -4.06614 -9.07604 -10
      vertex -5.7735 -6.863 -10
    endloop
  endfacet
  facet normal 0 0 1
    outer loop
      vertex -4.06614 -9.07604 -10
      vertex -5.7735 -7.04154 -10
      vertex -5 -8.66025 -10
    endloop
  endfacet
  facet normal -0 0 1
    outer loop
      vertex -5.7735 -7.22827 -10
      vertex -5 -8.66025 -10
      vertex -5.7735 -7.04154 -10
    endloop
  endfacet
  facet normal -0 0 1
    outer loop
      vertex -5.7735 -7.42822 -10
      vertex -5 -8.66025 -10
      vertex -5.7735 -7.22827 -10
    endloop
  endfacet
  facet normal -0 0 1
    outer loop
      vertex -5.7735 -7.64783 -10
      vertex -5 -8.66025 -10
      vertex -5.7735 -7.42822 -10
    endloop
  endfacet
  facet normal -0 0 1
    outer loop
      vertex -5.7735 -7.89586 -10
      vertex -5 -8.66025 -10
      vertex -5.7735 -7.64783 -10
    endloop
  endfacet
  facet normal 0 0 1
    outer loop
      vertex -5 -8.66025 -10
      vertex -5.7735 -7.89586 -10
      vertex -5.7735 -8.09827 -10
    endloop
  endfacet
  facet normal 0 0 1
    outer loop
      vertex 9.78148 -2.07912 -10
      vertex 7.62497 -2.69931 -10
      vertex 9.13545 -4.06737 -10
    endloop
  endfacet
  facet normal 0 -0 1
    outer loop
      vertex 6.7612 0.284415 -10
      vertex 7.24679 2.55181 -10
      vertex 5.95332 0.311449 -10
    endloop
  endfacet
  facet normal -0 0 1
    outer loop
      vertex -5.7735 8.09827 -10
      vertex -1.41346 7.55181 -10
      vertex -5 8.66025 -10
    endloop
  endfacet
  facet normal 0 0 1
    outer loop
      vertex -1.41346 7.55181 -10
      vertex -5.7735 8.09827 -10
      vertex -3.91346 3.22169 -10
    endloop
  endfacet
  facet normal 0 0 1
    outer loop
      vertex -3.91346 3.22169 -10
      vertex -5.7735 -0.749921 -10
      vertex 1.04391 0.359549 -10
    endloop
  endfacet
  facet normal 0 0 1
    outer loop
      vertex -5.7735 -0.749921 -10
      vertex -3.91346 3.22169 -10
      vertex -5.7735 8.09827 -10
    endloop
  endfacet
  facet normal 0 0 -1
    outer loop
      vertex -0.312393 -0.450241 -25.9017
      vertex 1.47559 0.162735 -25.9017
      vertex 1.47559 -0.450241 -25.9017
    endloop
  endfacet
  facet normal 0 0 -1
    outer loop
      vertex -0.312393 -0.450241 -25.9017
      vertex -0.401398 0.162735 -25.9017
      vertex 1.47559 0.162735 -25.9017
    endloop
  endfacet
  facet normal 0 0 -1
    outer loop
      vertex -0.312393 -0.450241 -25.9017
      vertex -0.780396 0.194855 -25.9017
      vertex -0.401398 0.162735 -25.9017
    endloop
  endfacet
  facet normal 0 0 -1
    outer loop
      vertex -0.312393 -0.450241 -25.9017
      vertex -1.06841 -0.361237 -25.9017
      vertex -0.780396 0.194855 -25.9017
    endloop
  endfacet
  facet normal 0 0 -1
    outer loop
      vertex -1.8024 -2.78125 -25.9017
      vertex -1.06841 -0.361237 -25.9017
      vertex -0.312393 -0.450241 -25.9017
    endloop
  endfacet
  facet normal 0 0 -1
    outer loop
      vertex -1.06841 -0.361237 -25.9017
      vertex -1.8024 -2.78125 -25.9017
      vertex -2.6964 -2.78125 -25.9017
    endloop
  endfacet
  facet normal 0 0 -1
    outer loop
      vertex 1.47559 -0.450241 -25.9017
      vertex 2.25058 -2.78125 -25.9017
      vertex 1.47559 -2.78125 -25.9017
    endloop
  endfacet
  facet normal 0 0 -1
    outer loop
      vertex 1.47559 0.162735 -25.9017
      vertex 2.25058 -2.78125 -25.9017
      vertex 1.47559 -0.450241 -25.9017
    endloop
  endfacet
  facet normal 0 0 -1
    outer loop
      vertex 2.25058 -2.78125 -25.9017
      vertex 1.47559 0.162735 -25.9017
      vertex 2.25058 2.91475 -25.9017
    endloop
  endfacet
  facet normal 0 0 -1
    outer loop
      vertex 1.47559 2.29274 -25.9017
      vertex 2.25058 2.91475 -25.9017
      vertex 1.47559 0.162735 -25.9017
    endloop
  endfacet
  facet normal 0 0 -1
    outer loop
      vertex -0.446396 2.91475 -25.9017
      vertex 1.47559 2.29274 -25.9017
      vertex -0.3694 2.29274 -25.9017
    endloop
  endfacet
  facet normal 0 0 -1
    outer loop
      vertex 1.47559 2.29274 -25.9017
      vertex -0.446396 2.91475 -25.9017
      vertex 2.25058 2.91475 -25.9017
    endloop
  endfacet
  facet normal 0 0 -1
    outer loop
      vertex -0.762177 2.26341 -25.9017
      vertex -0.446396 2.91475 -25.9017
      vertex -0.3694 2.29274 -25.9017
    endloop
  endfacet
  facet normal 0 0 -1
    outer loop
      vertex -0.762177 2.26341 -25.9017
      vertex -1.04272 2.86641 -25.9017
      vertex -0.446396 2.91475 -25.9017
    endloop
  endfacet
  facet normal 0 0 -1
    outer loop
      vertex -1.08852 2.17542 -25.9017
      vertex -1.04272 2.86641 -25.9017
      vertex -0.762177 2.26341 -25.9017
    endloop
  endfacet
  facet normal 0 0 -1
    outer loop
      vertex -1.54106 2.72141 -25.9017
      vertex -1.08852 2.17542 -25.9017
      vertex -1.3484 2.02875 -25.9017
    endloop
  endfacet
  facet normal 0 0 -1
    outer loop
      vertex -1.94141 2.47974 -25.9017
      vertex -1.3484 2.02875 -25.9017
      vertex -1.53729 1.82608 -25.9017
    endloop
  endfacet
  facet normal 0 0 -1
    outer loop
      vertex -1.08852 2.17542 -25.9017
      vertex -1.54106 2.72141 -25.9017
      vertex -1.04272 2.86641 -25.9017
    endloop
  endfacet
  facet normal 0 0 -1
    outer loop
      vertex -2.23418 2.15186 -25.9017
      vertex -1.53729 1.82608 -25.9017
      vertex -1.65062 1.57007 -25.9017
    endloop
  endfacet
  facet normal 0 0 -1
    outer loop
      vertex -2.40984 1.74818 -25.9017
      vertex -1.65062 1.57007 -25.9017
      vertex -1.6884 1.26074 -25.9017
    endloop
  endfacet
  facet normal 0 0 -1
    outer loop
      vertex -1.3484 2.02875 -25.9017
      vertex -1.94141 2.47974 -25.9017
      vertex -1.54106 2.72141 -25.9017
    endloop
  endfacet
  facet normal -0 0 -1
    outer loop
      vertex -1.53906 0.670074 -25.9017
      vertex -2.30263 0.504303 -25.9017
      vertex -1.65106 0.939743 -25.9017
    endloop
  endfacet
  facet normal 0 0 -1
    outer loop
      vertex -2.42696 0.863968 -25.9017
      vertex -1.65106 0.939743 -25.9017
      vertex -2.30263 0.504303 -25.9017
    endloop
  endfacet
  facet normal 0 -0 -1
    outer loop
      vertex -2.40984 1.74818 -25.9017
      vertex -1.6884 1.26074 -25.9017
      vertex -2.4684 1.26874 -25.9017
    endloop
  endfacet
  facet normal -0 0 -1
    outer loop
      vertex -1.65106 0.939743 -25.9017
      vertex -2.42696 0.863968 -25.9017
      vertex -1.6884 1.26074 -25.9017
    endloop
  endfacet
  facet normal 0 0 -1
    outer loop
      vertex -1.65062 1.57007 -25.9017
      vertex -2.40984 1.74818 -25.9017
      vertex -2.23418 2.15186 -25.9017
    endloop
  endfacet
  facet normal -0 0 -1
    outer loop
      vertex -1.6884 1.26074 -25.9017
      vertex -2.42696 0.863968 -25.9017
      vertex -2.4684 1.26874 -25.9017
    endloop
  endfacet
  facet normal 0 0 -1
    outer loop
      vertex -1.53729 1.82608 -25.9017
      vertex -2.23418 2.15186 -25.9017
      vertex -1.94141 2.47974 -25.9017
    endloop
  endfacet
  facet normal 0 0 -1
    outer loop
      vertex -1.06841 -0.361237 -25.9017
      vertex -1.0974 0.291183 -25.9017
      vertex -0.780396 0.194855 -25.9017
    endloop
  endfacet
  facet normal 0 0 -1
    outer loop
      vertex -1.47362 -0.249359 -25.9017
      vertex -1.0974 0.291183 -25.9017
      vertex -1.06841 -0.361237 -25.9017
    endloop
  endfacet
  facet normal -0 0 -1
    outer loop
      vertex -1.0974 0.291183 -25.9017
      vertex -1.47362 -0.249359 -25.9017
      vertex -1.3524 0.451736 -25.9017
    endloop
  endfacet
  facet normal 0 0 -1
    outer loop
      vertex -1.81595 -0.0656891 -25.9017
      vertex -1.3524 0.451736 -25.9017
      vertex -1.47362 -0.249359 -25.9017
    endloop
  endfacet
  facet normal 0 0 -1
    outer loop
      vertex -2.0954 0.189743 -25.9017
      vertex -1.3524 0.451736 -25.9017
      vertex -1.81595 -0.0656891 -25.9017
    endloop
  endfacet
  facet normal 0 0 -1
    outer loop
      vertex -2.30263 0.504303 -25.9017
      vertex -1.53906 0.670074 -25.9017
      vertex -2.0954 0.189743 -25.9017
    endloop
  endfacet
  facet normal -0 0 -1
    outer loop
      vertex -1.3524 0.451736 -25.9017
      vertex -2.0954 0.189743 -25.9017
      vertex -1.53906 0.670074 -25.9017
    endloop
  endfacet
  facet normal 0 0 1
    outer loop
      vertex -1.0974 0.291183 -30.9017
      vertex -1.0684 -0.361237 -30.9017
      vertex -0.780395 0.194855 -30.9017
    endloop
  endfacet
  facet normal 0 0 1
    outer loop
      vertex -1.47362 -0.249359 -30.9017
      vertex -1.0974 0.291183 -30.9017
      vertex -1.3524 0.451736 -30.9017
    endloop
  endfacet
  facet normal 0 0 1
    outer loop
      vertex -1.0974 0.291183 -30.9017
      vertex -1.47362 -0.249359 -30.9017
      vertex -1.0684 -0.361237 -30.9017
    endloop
  endfacet
  facet normal 0 0 1
    outer loop
      vertex -2.0954 0.189743 -30.9017
      vertex -1.3524 0.451736 -30.9017
      vertex -1.53906 0.670074 -30.9017
    endloop
  endfacet
  facet normal 0 0 1
    outer loop
      vertex -2.30263 0.504303 -30.9017
      vertex -1.53906 0.670074 -30.9017
      vertex -1.65106 0.939743 -30.9017
    endloop
  endfacet
  facet normal 0 0 1
    outer loop
      vertex -1.3524 0.451736 -30.9017
      vertex -1.81595 -0.0656891 -30.9017
      vertex -1.47362 -0.249359 -30.9017
    endloop
  endfacet
  facet normal 0 0 1
    outer loop
      vertex -2.42696 0.863968 -30.9017
      vertex -1.65106 0.939743 -30.9017
      vertex -1.6884 1.26074 -30.9017
    endloop
  endfacet
  facet normal 0 0 1
    outer loop
      vertex 1.47559 0.162735 -30.9017
      vertex -0.312392 -0.450241 -30.9017
      vertex 1.47559 -0.450241 -30.9017
    endloop
  endfacet
  facet normal -0 0 1
    outer loop
      vertex -0.401397 0.162735 -30.9017
      vertex -0.312392 -0.450241 -30.9017
      vertex 1.47559 0.162735 -30.9017
    endloop
  endfacet
  facet normal 0 0 1
    outer loop
      vertex -0.780395 0.194855 -30.9017
      vertex -0.312392 -0.450241 -30.9017
      vertex -0.401397 0.162735 -30.9017
    endloop
  endfacet
  facet normal -0 0 1
    outer loop
      vertex -1.0684 -0.361237 -30.9017
      vertex -0.312392 -0.450241 -30.9017
      vertex -0.780395 0.194855 -30.9017
    endloop
  endfacet
  facet normal 0 0 1
    outer loop
      vertex -1.0684 -0.361237 -30.9017
      vertex -1.8024 -2.78125 -30.9017
      vertex -0.312392 -0.450241 -30.9017
    endloop
  endfacet
  facet normal 0 -0 1
    outer loop
      vertex -1.8024 -2.78125 -30.9017
      vertex -1.0684 -0.361237 -30.9017
      vertex -2.69639 -2.78125 -30.9017
    endloop
  endfacet
  facet normal 0 0 1
    outer loop
      vertex 1.47559 0.162735 -30.9017
      vertex 2.25058 2.91475 -30.9017
      vertex 1.47559 2.29274 -30.9017
    endloop
  endfacet
  facet normal -0 0 1
    outer loop
      vertex -0.446395 2.91475 -30.9017
      vertex 1.47559 2.29274 -30.9017
      vertex 2.25058 2.91475 -30.9017
    endloop
  endfacet
  facet normal 0 0 1
    outer loop
      vertex 1.47559 2.29274 -30.9017
      vertex -0.446395 2.91475 -30.9017
      vertex -0.369399 2.29274 -30.9017
    endloop
  endfacet
  facet normal 0 0 1
    outer loop
      vertex -0.446395 2.91475 -30.9017
      vertex -0.762176 2.26341 -30.9017
      vertex -0.369399 2.29274 -30.9017
    endloop
  endfacet
  facet normal -0 0 1
    outer loop
      vertex -1.04272 2.86641 -30.9017
      vertex -0.762176 2.26341 -30.9017
      vertex -0.446395 2.91475 -30.9017
    endloop
  endfacet
  facet normal 0 0 1
    outer loop
      vertex -1.04272 2.86641 -30.9017
      vertex -1.08852 2.17542 -30.9017
      vertex -0.762176 2.26341 -30.9017
    endloop
  endfacet
  facet normal -0 0 1
    outer loop
      vertex -1.54106 2.72141 -30.9017
      vertex -1.08852 2.17542 -30.9017
      vertex -1.04272 2.86641 -30.9017
    endloop
  endfacet
  facet normal 0 0 1
    outer loop
      vertex -1.08852 2.17542 -30.9017
      vertex -1.54106 2.72141 -30.9017
      vertex -1.3484 2.02875 -30.9017
    endloop
  endfacet
  facet normal -0 0 1
    outer loop
      vertex -1.94141 2.47974 -30.9017
      vertex -1.3484 2.02875 -30.9017
      vertex -1.54106 2.72141 -30.9017
    endloop
  endfacet
  facet normal 0 0 1
    outer loop
      vertex -1.3484 2.02875 -30.9017
      vertex -1.94141 2.47974 -30.9017
      vertex -1.53729 1.82608 -30.9017
    endloop
  endfacet
  facet normal -0 0 1
    outer loop
      vertex -2.23418 2.15186 -30.9017
      vertex -1.53729 1.82608 -30.9017
      vertex -1.94141 2.47974 -30.9017
    endloop
  endfacet
  facet normal 0 0 1
    outer loop
      vertex -1.53729 1.82608 -30.9017
      vertex -2.23418 2.15186 -30.9017
      vertex -1.65062 1.57007 -30.9017
    endloop
  endfacet
  facet normal -0 0 1
    outer loop
      vertex -2.40983 1.74818 -30.9017
      vertex -1.65062 1.57007 -30.9017
      vertex -2.23418 2.15186 -30.9017
    endloop
  endfacet
  facet normal 0 -0 1
    outer loop
      vertex -2.42696 0.863968 -30.9017
      vertex -1.6884 1.26074 -30.9017
      vertex -2.4684 1.26874 -30.9017
    endloop
  endfacet
  facet normal 0 0 1
    outer loop
      vertex -1.65062 1.57007 -30.9017
      vertex -2.40983 1.74818 -30.9017
      vertex -1.6884 1.26074 -30.9017
    endloop
  endfacet
  facet normal 0 0 1
    outer loop
      vertex -1.65106 0.939743 -30.9017
      vertex -2.42696 0.863968 -30.9017
      vertex -2.30263 0.504303 -30.9017
    endloop
  endfacet
  facet normal 0 0 1
    outer loop
      vertex -1.6884 1.26074 -30.9017
      vertex -2.40983 1.74818 -30.9017
      vertex -2.4684 1.26874 -30.9017
    endloop
  endfacet
  facet normal 0 0 1
    outer loop
      vertex -1.3524 0.451736 -30.9017
      vertex -2.0954 0.189743 -30.9017
      vertex -1.81595 -0.0656891 -30.9017
    endloop
  endfacet
  facet normal 0 0 1
    outer loop
      vertex -1.53906 0.670074 -30.9017
      vertex -2.30263 0.504303 -30.9017
      vertex -2.0954 0.189743 -30.9017
    endloop
  endfacet
  facet normal 0 0 1
    outer loop
      vertex 2.25058 2.91475 -30.9017
      vertex 1.47559 0.162735 -30.9017
      vertex 2.25058 -2.78125 -30.9017
    endloop
  endfacet
  facet normal -0 0 1
    outer loop
      vertex 1.47559 -0.450241 -30.9017
      vertex 2.25058 -2.78125 -30.9017
      vertex 1.47559 0.162735 -30.9017
    endloop
  endfacet
  facet normal 0 0 1
    outer loop
      vertex 2.25058 -2.78125 -30.9017
      vertex 1.47559 -0.450241 -30.9017
      vertex 1.47559 -2.78125 -30.9017
    endloop
  endfacet
  facet normal 0 1 -0
    outer loop
      vertex 1.47559 -0.450241 -30.9017
      vertex -0.312393 -0.450241 -25.9017
      vertex 1.47559 -0.450241 -25.9017
    endloop
  endfacet
  facet normal 0 1 0
    outer loop
      vertex -0.312393 -0.450241 -25.9017
      vertex 1.47559 -0.450241 -30.9017
      vertex -0.312392 -0.450241 -30.9017
    endloop
  endfacet
  facet normal -0.842573 0.538582 -1.60708e-07
    outer loop
      vertex -1.8024 -2.78125 -30.9017
      vertex -0.312393 -0.450241 -25.9017
      vertex -0.312392 -0.450241 -30.9017
    endloop
  endfacet
  facet normal -0.842573 0.538582 -1.60708e-07
    outer loop
      vertex -0.312393 -0.450241 -25.9017
      vertex -1.8024 -2.78125 -30.9017
      vertex -1.8024 -2.78125 -25.9017
    endloop
  endfacet
  facet normal 0 1 0
    outer loop
      vertex -1.8024 -2.78125 -30.9017
      vertex -2.6964 -2.78125 -25.9017
      vertex -1.8024 -2.78125 -25.9017
    endloop
  endfacet
  facet normal 0 1 0
    outer loop
      vertex -2.6964 -2.78125 -25.9017
      vertex -1.8024 -2.78125 -30.9017
      vertex -2.69639 -2.78125 -30.9017
    endloop
  endfacet
  facet normal 0.829725 -0.558172 1.58257e-07
    outer loop
      vertex -2.6964 -2.78125 -25.9017
      vertex -1.0684 -0.361237 -30.9017
      vertex -1.06841 -0.361237 -25.9017
    endloop
  endfacet
  facet normal 0.829725 -0.558172 1.58257e-07
    outer loop
      vertex -1.0684 -0.361237 -30.9017
      vertex -2.6964 -2.78125 -25.9017
      vertex -2.69639 -2.78125 -30.9017
    endloop
  endfacet
  facet normal 0.266138 0.963935 5.07619e-08
    outer loop
      vertex -1.0684 -0.361237 -30.9017
      vertex -1.47362 -0.249359 -25.9017
      vertex -1.06841 -0.361237 -25.9017
    endloop
  endfacet
  facet normal 0.266138 0.963935 5.07619e-08
    outer loop
      vertex -1.47362 -0.249359 -25.9017
      vertex -1.0684 -0.361237 -30.9017
      vertex -1.47362 -0.249359 -30.9017
    endloop
  endfacet
  facet normal 0.472778 0.881181 9.01753e-08
    outer loop
      vertex -1.47362 -0.249359 -30.9017
      vertex -1.81595 -0.0656891 -25.9017
      vertex -1.47362 -0.249359 -25.9017
    endloop
  endfacet
  facet normal 0.472778 0.881181 9.01753e-08
    outer loop
      vertex -1.81595 -0.0656891 -25.9017
      vertex -1.47362 -0.249359 -30.9017
      vertex -1.81595 -0.0656891 -30.9017
    endloop
  endfacet
  facet normal 0.674676 0.738114 1.28684e-07
    outer loop
      vertex -1.81595 -0.0656891 -30.9017
      vertex -2.0954 0.189743 -25.9017
      vertex -1.81595 -0.0656891 -25.9017
    endloop
  endfacet
  facet normal 0.674676 0.738114 1.28684e-07
    outer loop
      vertex -2.0954 0.189743 -25.9017
      vertex -1.81595 -0.0656891 -30.9017
      vertex -2.0954 0.189743 -30.9017
    endloop
  endfacet
  facet normal 0.835073 0.550139 1.59278e-07
    outer loop
      vertex -2.0954 0.189743 -25.9017
      vertex -2.30263 0.504303 -30.9017
      vertex -2.30263 0.504303 -25.9017
    endloop
  endfacet
  facet normal 0.835073 0.550139 1.59278e-07
    outer loop
      vertex -2.30263 0.504303 -30.9017
      vertex -2.0954 0.189743 -25.9017
      vertex -2.0954 0.189743 -30.9017
    endloop
  endfacet
  facet normal 0.945125 0.32671 1.80268e-07
    outer loop
      vertex -2.30263 0.504303 -25.9017
      vertex -2.42696 0.863968 -30.9017
      vertex -2.42696 0.863968 -25.9017
    endloop
  endfacet
  facet normal 0.945125 0.32671 1.80268e-07
    outer loop
      vertex -2.42696 0.863968 -30.9017
      vertex -2.30263 0.504303 -25.9017
      vertex -2.30263 0.504303 -30.9017
    endloop
  endfacet
  facet normal 0.994799 0.101854 1.89743e-07
    outer loop
      vertex -2.42696 0.863968 -25.9017
      vertex -2.4684 1.26874 -30.9017
      vertex -2.4684 1.26874 -25.9017
    endloop
  endfacet
  facet normal 0.994799 0.101854 1.89743e-07
    outer loop
      vertex -2.4684 1.26874 -30.9017
      vertex -2.42696 0.863968 -25.9017
      vertex -2.42696 0.863968 -30.9017
    endloop
  endfacet
  facet normal 0.992622 -0.121246 1.89328e-07
    outer loop
      vertex -2.4684 1.26874 -25.9017
      vertex -2.40983 1.74818 -30.9017
      vertex -2.40984 1.74818 -25.9017
    endloop
  endfacet
  facet normal 0.992622 -0.121246 1.89328e-07
    outer loop
      vertex -2.40983 1.74818 -30.9017
      vertex -2.4684 1.26874 -25.9017
      vertex -2.4684 1.26874 -30.9017
    endloop
  endfacet
  facet normal 0.916945 -0.399013 1.74893e-07
    outer loop
      vertex -2.40984 1.74818 -25.9017
      vertex -2.23418 2.15186 -30.9017
      vertex -2.23418 2.15186 -25.9017
    endloop
  endfacet
  facet normal 0.916945 -0.399013 1.74893e-07
    outer loop
      vertex -2.23418 2.15186 -30.9017
      vertex -2.40984 1.74818 -25.9017
      vertex -2.40983 1.74818 -30.9017
    endloop
  endfacet
  facet normal 0.745915 -0.666041 1.42272e-07
    outer loop
      vertex -2.23418 2.15186 -25.9017
      vertex -1.94141 2.47974 -30.9017
      vertex -1.94141 2.47974 -25.9017
    endloop
  endfacet
  facet normal 0.745915 -0.666041 1.42272e-07
    outer loop
      vertex -1.94141 2.47974 -30.9017
      vertex -2.23418 2.15186 -25.9017
      vertex -2.23418 2.15186 -30.9017
    endloop
  endfacet
  facet normal 0.516792 -0.856111 9.85703e-08
    outer loop
      vertex -1.94141 2.47974 -30.9017
      vertex -1.54106 2.72141 -25.9017
      vertex -1.94141 2.47974 -25.9017
    endloop
  endfacet
  facet normal 0.516792 -0.856111 9.85703e-08
    outer loop
      vertex -1.54106 2.72141 -25.9017
      vertex -1.94141 2.47974 -30.9017
      vertex -1.54106 2.72141 -30.9017
    endloop
  endfacet
  facet normal 0.279389 -0.960178 5.32893e-08
    outer loop
      vertex -1.54106 2.72141 -30.9017
      vertex -1.04272 2.86641 -25.9017
      vertex -1.54106 2.72141 -25.9017
    endloop
  endfacet
  facet normal 0.279389 -0.960178 5.32893e-08
    outer loop
      vertex -1.04272 2.86641 -25.9017
      vertex -1.54106 2.72141 -30.9017
      vertex -1.04272 2.86641 -30.9017
    endloop
  endfacet
  facet normal 0.0807974 -0.996731 1.54109e-08
    outer loop
      vertex -1.04272 2.86641 -30.9017
      vertex -0.446396 2.91475 -25.9017
      vertex -1.04272 2.86641 -25.9017
    endloop
  endfacet
  facet normal 0.0807974 -0.996731 1.54109e-08
    outer loop
      vertex -0.446396 2.91475 -25.9017
      vertex -1.04272 2.86641 -30.9017
      vertex -0.446395 2.91475 -30.9017
    endloop
  endfacet
  facet normal 0 -1 0
    outer loop
      vertex -0.446395 2.91475 -30.9017
      vertex 2.25058 2.91475 -25.9017
      vertex -0.446396 2.91475 -25.9017
    endloop
  endfacet
  facet normal 0 -1 -0
    outer loop
      vertex 2.25058 2.91475 -25.9017
      vertex -0.446395 2.91475 -30.9017
      vertex 2.25058 2.91475 -30.9017
    endloop
  endfacet
  facet normal -1 0 0
    outer loop
      vertex 2.25058 -2.78125 -30.9017
      vertex 2.25058 2.91475 -25.9017
      vertex 2.25058 2.91475 -30.9017
    endloop
  endfacet
  facet normal -1 -0 0
    outer loop
      vertex 2.25058 2.91475 -25.9017
      vertex 2.25058 -2.78125 -30.9017
      vertex 2.25058 -2.78125 -25.9017
    endloop
  endfacet
  facet normal 0 1 -0
    outer loop
      vertex 2.25058 -2.78125 -30.9017
      vertex 1.47559 -2.78125 -25.9017
      vertex 2.25058 -2.78125 -25.9017
    endloop
  endfacet
  facet normal 0 1 0
    outer loop
      vertex 1.47559 -2.78125 -25.9017
      vertex 2.25058 -2.78125 -30.9017
      vertex 1.47559 -2.78125 -30.9017
    endloop
  endfacet
  facet normal 1 -0 0
    outer loop
      vertex 1.47559 -2.78125 -25.9017
      vertex 1.47559 -0.450241 -30.9017
      vertex 1.47559 -0.450241 -25.9017
    endloop
  endfacet
  facet normal 1 0 0
    outer loop
      vertex 1.47559 -0.450241 -30.9017
      vertex 1.47559 -2.78125 -25.9017
      vertex 1.47559 -2.78125 -30.9017
    endloop
  endfacet
  facet normal 1 -0 0
    outer loop
      vertex 1.47559 0.162735 -25.9017
      vertex 1.47559 2.29274 -30.9017
      vertex 1.47559 2.29274 -25.9017
    endloop
  endfacet
  facet normal 1 0 0
    outer loop
      vertex 1.47559 2.29274 -30.9017
      vertex 1.47559 0.162735 -25.9017
      vertex 1.47559 0.162735 -30.9017
    endloop
  endfacet
  facet normal 0 1 -0
    outer loop
      vertex 1.47559 2.29274 -30.9017
      vertex -0.3694 2.29274 -25.9017
      vertex 1.47559 2.29274 -25.9017
    endloop
  endfacet
  facet normal 0 1 0
    outer loop
      vertex -0.3694 2.29274 -25.9017
      vertex 1.47559 2.29274 -30.9017
      vertex -0.369399 2.29274 -30.9017
    endloop
  endfacet
  facet normal -0.0744596 0.997224 -1.4202e-08
    outer loop
      vertex -0.369399 2.29274 -30.9017
      vertex -0.762177 2.26341 -25.9017
      vertex -0.3694 2.29274 -25.9017
    endloop
  endfacet
  facet normal -0.0744596 0.997224 -1.4202e-08
    outer loop
      vertex -0.762177 2.26341 -25.9017
      vertex -0.369399 2.29274 -30.9017
      vertex -0.762176 2.26341 -30.9017
    endloop
  endfacet
  facet normal -0.260351 0.965514 -4.9658e-08
    outer loop
      vertex -0.762176 2.26341 -30.9017
      vertex -1.08852 2.17542 -25.9017
      vertex -0.762177 2.26341 -25.9017
    endloop
  endfacet
  facet normal -0.260351 0.965514 -4.9658e-08
    outer loop
      vertex -1.08852 2.17542 -25.9017
      vertex -0.762176 2.26341 -30.9017
      vertex -1.08852 2.17542 -30.9017
    endloop
  endfacet
  facet normal -0.491484 0.870886 -9.37432e-08
    outer loop
      vertex -1.08852 2.17542 -30.9017
      vertex -1.3484 2.02875 -25.9017
      vertex -1.08852 2.17542 -25.9017
    endloop
  endfacet
  facet normal -0.491484 0.870886 -9.37432e-08
    outer loop
      vertex -1.3484 2.02875 -25.9017
      vertex -1.08852 2.17542 -30.9017
      vertex -1.3484 2.02875 -30.9017
    endloop
  endfacet
  facet normal -0.731537 0.681802 -1.3953e-07
    outer loop
      vertex -1.53729 1.82608 -30.9017
      vertex -1.3484 2.02875 -25.9017
      vertex -1.3484 2.02875 -30.9017
    endloop
  endfacet
  facet normal -0.731537 0.681802 -1.3953e-07
    outer loop
      vertex -1.3484 2.02875 -25.9017
      vertex -1.53729 1.82608 -30.9017
      vertex -1.53729 1.82608 -25.9017
    endloop
  endfacet
  facet normal -0.914415 0.404778 -1.74411e-07
    outer loop
      vertex -1.65062 1.57007 -30.9017
      vertex -1.53729 1.82608 -25.9017
      vertex -1.53729 1.82608 -30.9017
    endloop
  endfacet
  facet normal -0.914415 0.404778 -1.74411e-07
    outer loop
      vertex -1.53729 1.82608 -25.9017
      vertex -1.65062 1.57007 -30.9017
      vertex -1.65062 1.57007 -25.9017
    endloop
  endfacet
  facet normal -0.992623 0.121238 -1.89328e-07
    outer loop
      vertex -1.6884 1.26074 -30.9017
      vertex -1.65062 1.57007 -25.9017
      vertex -1.65062 1.57007 -30.9017
    endloop
  endfacet
  facet normal -0.992623 0.121238 -1.89328e-07
    outer loop
      vertex -1.65062 1.57007 -25.9017
      vertex -1.6884 1.26074 -30.9017
      vertex -1.6884 1.26074 -25.9017
    endloop
  endfacet
  facet normal -0.993303 -0.11554 -1.89457e-07
    outer loop
      vertex -1.65106 0.939743 -30.9017
      vertex -1.6884 1.26074 -25.9017
      vertex -1.6884 1.26074 -30.9017
    endloop
  endfacet
  facet normal -0.993303 -0.11554 -1.89457e-07
    outer loop
      vertex -1.6884 1.26074 -25.9017
      vertex -1.65106 0.939743 -30.9017
      vertex -1.65106 0.939743 -25.9017
    endloop
  endfacet
  facet normal -0.923517 -0.383558 -1.76147e-07
    outer loop
      vertex -1.53906 0.670074 -30.9017
      vertex -1.65106 0.939743 -25.9017
      vertex -1.65106 0.939743 -30.9017
    endloop
  endfacet
  facet normal -0.923517 -0.383558 -1.76147e-07
    outer loop
      vertex -1.65106 0.939743 -25.9017
      vertex -1.53906 0.670074 -30.9017
      vertex -1.53906 0.670074 -25.9017
    endloop
  endfacet
  facet normal -0.760092 -0.649815 -1.44976e-07
    outer loop
      vertex -1.3524 0.451736 -30.9017
      vertex -1.53906 0.670074 -25.9017
      vertex -1.53906 0.670074 -30.9017
    endloop
  endfacet
  facet normal -0.760092 -0.649815 -1.44976e-07
    outer loop
      vertex -1.53906 0.670074 -25.9017
      vertex -1.3524 0.451736 -30.9017
      vertex -1.3524 0.451736 -25.9017
    endloop
  endfacet
  facet normal -0.5328 -0.846241 -1.01624e-07
    outer loop
      vertex -1.3524 0.451736 -30.9017
      vertex -1.0974 0.291183 -25.9017
      vertex -1.3524 0.451736 -25.9017
    endloop
  endfacet
  facet normal -0.5328 -0.846241 -1.01624e-07
    outer loop
      vertex -1.0974 0.291183 -25.9017
      vertex -1.3524 0.451736 -30.9017
      vertex -1.0974 0.291183 -30.9017
    endloop
  endfacet
  facet normal -0.290747 -0.9568 -5.54557e-08
    outer loop
      vertex -1.0974 0.291183 -30.9017
      vertex -0.780396 0.194855 -25.9017
      vertex -1.0974 0.291183 -25.9017
    endloop
  endfacet
  facet normal -0.290747 -0.9568 -5.54557e-08
    outer loop
      vertex -0.780396 0.194855 -25.9017
      vertex -1.0974 0.291183 -30.9017
      vertex -0.780395 0.194855 -30.9017
    endloop
  endfacet
  facet normal -0.0844465 -0.996428 -1.61069e-08
    outer loop
      vertex -0.780395 0.194855 -30.9017
      vertex -0.401398 0.162735 -25.9017
      vertex -0.780396 0.194855 -25.9017
    endloop
  endfacet
  facet normal -0.0844465 -0.996428 -1.61069e-08
    outer loop
      vertex -0.401398 0.162735 -25.9017
      vertex -0.780395 0.194855 -30.9017
      vertex -0.401397 0.162735 -30.9017
    endloop
  endfacet
  facet normal 0 -1 0
    outer loop
      vertex -0.401397 0.162735 -30.9017
      vertex 1.47559 0.162735 -25.9017
      vertex -0.401398 0.162735 -25.9017
    endloop
  endfacet
  facet normal 0 -1 -0
    outer loop
      vertex 1.47559 0.162735 -25.9017
      vertex -0.401397 0.162735 -30.9017
      vertex 1.47559 0.162735 -30.9017
    endloop
  endfacet
  facet normal 0 0 1
    outer loop
      vertex -1.41346 7.55181 -3.33333
      vertex 4.74679 -1.77831 -3.33333
      vertex 7.24679 2.55181 -3.33333
    endloop
  endfacet
  facet normal 0 0 1
    outer loop
      vertex 4.74679 -1.77831 -3.33333
      vertex -1.41346 7.55181 -3.33333
      vertex -3.91346 3.22169 -3.33333
    endloop
  endfacet
  facet normal 0.866025 -0.5 0
    outer loop
      vertex 7.24679 2.55181 -3.33333
      vertex 6.97072 2.07365 -8.38217
      vertex 7.24679 2.55181 -10
    endloop
  endfacet
  facet normal 0.866025 -0.5 3.2869e-08
    outer loop
      vertex 4.86797 -1.56842 -7.33198
      vertex 6.97072 2.07365 -8.38217
      vertex 7.24679 2.55181 -3.33333
    endloop
  endfacet
  facet normal 0.866025 -0.5 -5.96604e-07
    outer loop
      vertex 6.97072 2.07365 -8.38217
      vertex 4.86797 -1.56842 -7.33198
      vertex 6.56096 1.36392 -8.63558
    endloop
  endfacet
  facet normal 0.866025 -0.5 -1.97012e-08
    outer loop
      vertex 6.56096 1.36392 -8.63558
      vertex 4.86797 -1.56842 -7.33198
      vertex 5.95332 0.311449 -10
    endloop
  endfacet
  facet normal 0.866025 -0.5 6.49668e-09
    outer loop
      vertex 4.74679 -1.77831 -3.33333
      vertex 4.86797 -1.56842 -7.33198
      vertex 7.24679 2.55181 -3.33333
    endloop
  endfacet
  facet normal 0.866025 -0.5 0
    outer loop
      vertex 4.86797 -1.56842 -7.33198
      vertex 4.74679 -1.77831 -3.33333
      vertex 4.74679 -1.77831 -7.40692
    endloop
  endfacet
  facet normal 0.866025 -0.5 -1.83372e-07
    outer loop
      vertex 6.75325 1.69698 -9.10829
      vertex 7.24679 2.55181 -10
      vertex 6.97072 2.07365 -8.38217
    endloop
  endfacet
  facet normal 0.866025 -0.5 5.21381e-08
    outer loop
      vertex 6.75325 1.69698 -9.10829
      vertex 5.95332 0.311449 -10
      vertex 7.24679 2.55181 -10
    endloop
  endfacet
  facet normal 0.866025 -0.5 6.67257e-08
    outer loop
      vertex 5.95332 0.311449 -10
      vertex 6.75325 1.69698 -9.10829
      vertex 6.56096 1.36392 -8.63558
    endloop
  endfacet
  facet normal -0.5 -0.866025 -7.63817e-09
    outer loop
      vertex 1.39392 0.157469 -9.08101
      vertex 1.72773 -0.0352571 -6.46224
      vertex -0.179424 1.06584 -7.9065
    endloop
  endfacet
  facet normal -0.5 -0.866025 2.66216e-08
    outer loop
      vertex 1.72773 -0.0352571 -6.46224
      vertex 2.63797 -0.560783 -8.63107
      vertex 4.54513 -1.66188 -7.1868
    endloop
  endfacet
  facet normal -0.5 -0.866025 -4.49187e-08
    outer loop
      vertex -3.91346 3.22169 -3.33333
      vertex -0.591203 1.30358 -3.93112
      vertex 4.74679 -1.77831 -3.33333
    endloop
  endfacet
  facet normal -0.5 -0.866025 1.41368e-09
    outer loop
      vertex -3.91346 3.22169 -3.33333
      vertex -2.49836 2.40468 -5.37538
      vertex -0.591203 1.30358 -3.93112
    endloop
  endfacet
  facet normal -0.5 -0.866025 1.61602e-09
    outer loop
      vertex 1.72773 -0.0352571 -6.46224
      vertex 1.39392 0.157469 -9.08101
      vertex 2.63797 -0.560783 -8.63107
    endloop
  endfacet
  facet normal -0.5 -0.866025 0
    outer loop
      vertex -3.91346 3.22169 -10
      vertex -2.49836 2.40468 -5.37538
      vertex -3.91346 3.22169 -3.33333
    endloop
  endfacet
  facet normal -0.5 -0.866025 4.81717e-09
    outer loop
      vertex -3.91346 3.22169 -10
      vertex -0.179424 1.06584 -7.9065
      vertex -2.49836 2.40468 -5.37538
    endloop
  endfacet
  facet normal -0.5 -0.866025 -1.40749e-08
    outer loop
      vertex 1.04391 0.359549 -10
      vertex -0.179424 1.06584 -7.9065
      vertex -3.91346 3.22169 -10
    endloop
  endfacet
  facet normal -0.5 -0.866025 2.64216e-09
    outer loop
      vertex -0.179424 1.06584 -7.9065
      vertex 1.04391 0.359549 -10
      vertex 1.39392 0.157469 -9.08101
    endloop
  endfacet
  facet normal -0.5 -0.866025 3.331e-09
    outer loop
      vertex 1.72773 -0.0352571 -6.46224
      vertex 4.74679 -1.77831 -3.33333
      vertex -0.591203 1.30358 -3.93112
    endloop
  endfacet
  facet normal -0.5 -0.866025 -3.22021e-09
    outer loop
      vertex 4.54513 -1.66188 -7.1868
      vertex 4.74679 -1.77831 -3.33333
      vertex 1.72773 -0.0352571 -6.46224
    endloop
  endfacet
  facet normal -0.5 -0.866025 -0
    outer loop
      vertex 4.74679 -1.77831 -3.33333
      vertex 4.54513 -1.66188 -7.1868
      vertex 4.74679 -1.77831 -7.40692
    endloop
  endfacet
  facet normal -0.5 -0.866025 -1.54212e-08
    outer loop
      vertex 1.9245 -0.148861 -10
      vertex 2.63797 -0.560783 -8.63107
      vertex 1.39392 0.157469 -9.08101
    endloop
  endfacet
  facet normal -0.5 -0.866025 -3.30092e-08
    outer loop
      vertex 2.63797 -0.560783 -8.63107
      vertex 1.9245 -0.148861 -10
      vertex 3.89215 -1.28488 -10
    endloop
  endfacet
  facet normal 0.5 0.866025 1.62548e-08
    outer loop
      vertex 7.24679 2.55181 -3.33333
      vertex 6.06919 3.23171 -6.92608
      vertex -1.41346 7.55181 -3.33333
    endloop
  endfacet
  facet normal 0.5 0.866025 -1.72309e-08
    outer loop
      vertex 7.24679 2.55181 -3.33333
      vertex 6.99165 2.69912 -7.93296
      vertex 6.06919 3.23171 -6.92608
    endloop
  endfacet
  facet normal 0.5 0.866025 -0
    outer loop
      vertex 7.24679 2.55181 -10
      vertex 6.99165 2.69912 -7.93296
      vertex 7.24679 2.55181 -3.33333
    endloop
  endfacet
  facet normal 0.5 0.866025 2.33856e-08
    outer loop
      vertex 6.99165 2.69912 -7.93296
      vertex 7.24679 2.55181 -10
      vertex 5.87564 3.34345 -10
    endloop
  endfacet
  facet normal 0.5 0.866025 -5.89683e-08
    outer loop
      vertex 4.16203 4.3328 -8.37035
      vertex -1.41346 7.55181 -3.33333
      vertex 6.06919 3.23171 -6.92608
    endloop
  endfacet
  facet normal 0.5 0.866025 7.68546e-08
    outer loop
      vertex -1.41346 7.55181 -10
      vertex 4.16203 4.3328 -8.37035
      vertex 5.65507 3.4708 -10
    endloop
  endfacet
  facet normal 0.5 0.866025 0
    outer loop
      vertex 4.16203 4.3328 -8.37035
      vertex -1.41346 7.55181 -10
      vertex -1.41346 7.55181 -3.33333
    endloop
  endfacet
  facet normal -0.866025 0.5 0
    outer loop
      vertex -3.91346 3.22169 -10
      vertex -1.41346 7.55181 -3.33333
      vertex -1.41346 7.55181 -10
    endloop
  endfacet
  facet normal -0.866025 0.5 0
    outer loop
      vertex -1.41346 7.55181 -3.33333
      vertex -3.91346 3.22169 -10
      vertex -3.91346 3.22169 -3.33333
    endloop
  endfacet
  facet normal -0.881817 -0.255278 0.396525
    outer loop
      vertex 5.77373 2.78923 -10.5834
      vertex 5.87564 3.34345 -10
      vertex 5.80091 3.60159 -10
    endloop
  endfacet
  facet normal -0.881817 -0.255278 0.396525
    outer loop
      vertex 6.75325 1.69698 -9.10829
      vertex 5.87564 3.34345 -10
      vertex 5.77373 2.78923 -10.5834
    endloop
  endfacet
  facet normal -0.881817 -0.255278 0.396525
    outer loop
      vertex 5.87564 3.34345 -10
      vertex 6.97072 2.07365 -8.38217
      vertex 6.99165 2.69912 -7.93296
    endloop
  endfacet
  facet normal -0.881817 -0.255278 0.396525
    outer loop
      vertex 5.87564 3.34345 -10
      vertex 6.75325 1.69698 -9.10829
      vertex 6.97072 2.07365 -8.38217
    endloop
  endfacet
  facet normal 0.470809 -0.524986 0.709033
    outer loop
      vertex 5.65507 3.4708 -10
      vertex 5.77373 2.78923 -10.5834
      vertex 5.80091 3.60159 -10
    endloop
  endfacet
  facet normal 0.470809 -0.524986 0.709034
    outer loop
      vertex 4.16203 4.3328 -8.37035
      vertex 5.77373 2.78923 -10.5834
      vertex 5.65507 3.4708 -10
    endloop
  endfacet
  facet normal 0.470809 -0.524986 0.709034
    outer loop
      vertex 4.16203 4.3328 -8.37035
      vertex -0.179424 1.06584 -7.9065
      vertex 5.77373 2.78923 -10.5834
    endloop
  endfacet
  facet normal 0.470809 -0.524986 0.709034
    outer loop
      vertex -0.179424 1.06584 -7.9065
      vertex 4.16203 4.3328 -8.37035
      vertex -2.49836 2.40468 -5.37538
    endloop
  endfacet
  facet normal -0.0271695 -0.811925 -0.583129
    outer loop
      vertex 4.16203 4.3328 -8.37035
      vertex -0.591203 1.30358 -3.93112
      vertex -2.49836 2.40468 -5.37538
    endloop
  endfacet
  facet normal -0.0271694 -0.811925 -0.583129
    outer loop
      vertex -0.591203 1.30358 -3.93112
      vertex 4.16203 4.3328 -8.37035
      vertex 6.06919 3.23171 -6.92608
    endloop
  endfacet
  facet normal -0.470809 0.524986 -0.709034
    outer loop
      vertex 6.06919 3.23171 -6.92608
      vertex 6.97072 2.07365 -8.38217
      vertex 6.56096 1.36392 -8.63558
    endloop
  endfacet
  facet normal -0.47081 0.524985 -0.709034
    outer loop
      vertex 6.97072 2.07365 -8.38217
      vertex 6.06919 3.23171 -6.92608
      vertex 6.99165 2.69912 -7.93296
    endloop
  endfacet
  facet normal -0.470809 0.524986 -0.709034
    outer loop
      vertex 1.72773 -0.0352571 -6.46224
      vertex 6.06919 3.23171 -6.92608
      vertex 6.56096 1.36392 -8.63558
    endloop
  endfacet
  facet normal -0.470809 0.524986 -0.709034
    outer loop
      vertex 6.06919 3.23171 -6.92608
      vertex 1.72773 -0.0352571 -6.46224
      vertex -0.591203 1.30358 -3.93112
    endloop
  endfacet
  facet normal 0.0271693 0.811925 0.583129
    outer loop
      vertex 5.77373 2.78923 -10.5834
      vertex 1.72773 -0.0352571 -6.46224
      vertex 6.56096 1.36392 -8.63558
    endloop
  endfacet
  facet normal 0.0271698 0.811925 0.583129
    outer loop
      vertex 5.77373 2.78923 -10.5834
      vertex 6.56096 1.36392 -8.63558
      vertex 6.75325 1.69698 -9.10829
    endloop
  endfacet
  facet normal 0.0271695 0.811925 0.583129
    outer loop
      vertex 1.72773 -0.0352571 -6.46224
      vertex 5.77373 2.78923 -10.5834
      vertex -0.179424 1.06584 -7.9065
    endloop
  endfacet
  facet normal -0.881817 -0.255278 0.396525
    outer loop
      vertex 6.4452 -1.46877 -11.8314
      vertex 6.7612 0.284415 -10
      vertex 6.51313 0.56104 -10.3736
    endloop
  endfacet
  facet normal -0.881817 -0.255278 0.396525
    outer loop
      vertex 6.4452 -1.46877 -11.8314
      vertex 7.62497 -2.69931 -10
      vertex 6.7612 0.284415 -10
    endloop
  endfacet
  facet normal -0.881817 -0.255276 0.396527
    outer loop
      vertex 7.62497 -2.69931 -10
      vertex 6.4452 -1.46877 -11.8314
      vertex 7.62222 -2.78124 -10.0588
    endloop
  endfacet
  facet normal 0.470809 -0.524986 0.709034
    outer loop
      vertex 6.51313 0.56104 -10.3736
      vertex 3.89215 -1.28488 -10
      vertex 6.4452 -1.46877 -11.8314
    endloop
  endfacet
  facet normal 0.470809 -0.524986 0.709034
    outer loop
      vertex 3.89215 -1.28488 -10
      vertex 6.51313 0.56104 -10.3736
      vertex 2.63797 -0.560783 -8.63107
    endloop
  endfacet
  facet normal 0.470809 -0.524986 0.709034
    outer loop
      vertex 6.4452 -1.46877 -11.8314
      vertex 3.89215 -1.28488 -10
      vertex 2.37237 -2.64782 -10
    endloop
  endfacet
  facet normal -0.0271697 -0.811926 -0.583128
    outer loop
      vertex 2.63797 -0.560783 -8.63107
      vertex 4.86797 -1.56842 -7.33198
      vertex 4.54513 -1.66188 -7.1868
    endloop
  endfacet
  facet normal -0.0271694 -0.811925 -0.583129
    outer loop
      vertex 2.63797 -0.560783 -8.63107
      vertex 5.95332 0.311449 -10
      vertex 4.86797 -1.56842 -7.33198
    endloop
  endfacet
  facet normal -0.0271694 -0.811925 -0.583129
    outer loop
      vertex 5.95332 0.311449 -10
      vertex 6.51313 0.56104 -10.3736
      vertex 6.7612 0.284415 -10
    endloop
  endfacet
  facet normal -0.0271688 -0.811926 -0.583128
    outer loop
      vertex 6.51313 0.56104 -10.3736
      vertex 5.95332 0.311449 -10
      vertex 2.63797 -0.560783 -8.63107
    endloop
  endfacet
  facet normal -0.47081 0.524987 -0.709032
    outer loop
      vertex 7.62222 -2.78124 -10.0588
      vertex 7.49137 -2.81912 -10
      vertex 7.62497 -2.69931 -10
    endloop
  endfacet
  facet normal -0.470809 0.524987 -0.709033
    outer loop
      vertex 4.86797 -1.56842 -7.33198
      vertex 4.74679 -1.77831 -7.40692
      vertex 4.54513 -1.66188 -7.1868
    endloop
  endfacet
  facet normal 0.0271699 0.811925 0.583129
    outer loop
      vertex 6.4452 -1.46877 -11.8314
      vertex 7.49137 -2.81912 -10
      vertex 7.62222 -2.78124 -10.0588
    endloop
  endfacet
  facet normal 0.0271694 0.811925 0.583129
    outer loop
      vertex 7.49137 -2.81912 -10
      vertex 6.4452 -1.46877 -11.8314
      vertex 2.37237 -2.64782 -10
    endloop
  endfacet
  facet normal -0.334376 -0.743485 0.579157
    outer loop
      vertex -6.70556 7.41561 -11.5237
      vertex -4.94623 6.69508 -11.4329
      vertex -5.35835 7.43647 -10.7191
    endloop
  endfacet
  facet normal -0.334376 -0.743485 0.579157
    outer loop
      vertex -4.94623 6.69508 -11.4329
      vertex -6.70556 7.41561 -11.5237
      vertex -7.35433 6.69508 -12.8232
    endloop
  endfacet
  facet normal -0.993764 -0.09515 -0.0581409
    outer loop
      vertex -3.68791 1.05034 -13.6124
      vertex -3.68791 1.05034 -13.6123
      vertex -3.86792 2.73987 -13.3006
    endloop
  endfacet
  facet normal -0.489126 0.207415 0.847192
    outer loop
      vertex -3.68738 -1.04023 -13.6133
      vertex -9.55224 -2.78463 -16.5723
      vertex -3.84619 -2.53823 -13.3382
    endloop
  endfacet
  facet normal -0.489127 0.207415 0.847192
    outer loop
      vertex -3.68738 -1.04023 -13.6133
      vertex -9.78148 -2.07912 -16.8774
      vertex -9.55224 -2.78463 -16.5723
    endloop
  endfacet
  facet normal -0.489126 0.207415 0.847192
    outer loop
      vertex -3.68738 -1.04023 -13.6133
      vertex -9.85526 -1.37713 -17.0918
      vertex -9.78148 -2.07912 -16.8774
    endloop
  endfacet
  facet normal -0.489126 0.207416 0.847192
    outer loop
      vertex -9.85526 -1.37713 -17.0918
      vertex -3.68738 -1.04023 -13.6133
      vertex -9.89067 -1.04023 -17.1947
    endloop
  endfacet
  facet normal -0.404359 -0.588196 0.700371
    outer loop
      vertex -7.35433 6.69508 -12.8232
      vertex -4.3314 5.0044 -12.4978
      vertex -4.94623 6.69508 -11.4329
    endloop
  endfacet
  facet normal -0.404359 -0.588196 0.700371
    outer loop
      vertex -8.09017 5.87785 -13.9344
      vertex -4.3314 5.0044 -12.4978
      vertex -7.35433 6.69508 -12.8232
    endloop
  endfacet
  facet normal -0.404359 -0.588196 0.700371
    outer loop
      vertex -4.3314 5.0044 -12.4978
      vertex -8.09017 5.87785 -13.9344
      vertex -8.59446 5.0044 -14.9591
    endloop
  endfacet
  facet normal -0.000219782 0.000439564 -1
    outer loop
      vertex -3.68791 1.05033 -13.6124
      vertex -3.6878 0.607795 -13.6125
      vertex -3.6878 0.607794 -13.6125
    endloop
  endfacet
  facet normal -0.00416627 0.000438555 -0.999991
    outer loop
      vertex -3.6878 0.607795 -13.6125
      vertex -3.68791 1.05033 -13.6124
      vertex -3.68791 1.05034 -13.6124
    endloop
  endfacet
  facet normal -0.489021 -0.208408 0.847009
    outer loop
      vertex -9.6514 2.47945 -16.7037
      vertex -3.68791 1.05034 -13.6124
      vertex -3.86792 2.73987 -13.3006
    endloop
  endfacet
  facet normal -0.489028 -0.208406 0.847006
    outer loop
      vertex -9.85525 1.37717 -17.0926
      vertex -9.6514 2.47945 -16.7037
      vertex -9.78148 2.07912 -16.8773
    endloop
  endfacet
  facet normal -0.489021 -0.208408 0.847009
    outer loop
      vertex -9.6514 2.47945 -16.7037
      vertex -9.85525 1.37717 -17.0926
      vertex -3.68791 1.05034 -13.6124
    endloop
  endfacet
  facet normal -0.489021 -0.208408 0.847009
    outer loop
      vertex -3.68791 1.05034 -13.6124
      vertex -9.85525 1.37717 -17.0926
      vertex -9.8896 1.05034 -17.1929
    endloop
  endfacet
  facet normal -0.456669 -0.407201 0.790975
    outer loop
      vertex -8.59446 5.0044 -14.9591
      vertex -4.03936 3.69433 -13.0036
      vertex -4.3314 5.0044 -12.4978
    endloop
  endfacet
  facet normal -0.456669 -0.407201 0.790974
    outer loop
      vertex -9.13545 4.06737 -15.7538
      vertex -4.03936 3.69433 -13.0036
      vertex -8.59446 5.0044 -14.9591
    endloop
  endfacet
  facet normal -0.456669 -0.407202 0.790974
    outer loop
      vertex -4.03936 3.69433 -13.0036
      vertex -9.13545 4.06737 -15.7538
      vertex -9.18821 3.90501 -15.8679
    endloop
  endfacet
  facet normal -0.456876 0.406273 0.791332
    outer loop
      vertex -3.90419 -3.08534 -13.2377
      vertex -8.59954 -4.9956 -14.9679
      vertex -4.32886 -4.9956 -12.5022
    endloop
  endfacet
  facet normal -0.456876 0.406272 0.791332
    outer loop
      vertex -3.90419 -3.08534 -13.2377
      vertex -9.13545 -4.06737 -15.7538
      vertex -8.59954 -4.9956 -14.9679
    endloop
  endfacet
  facet normal -0.456876 0.406273 0.791332
    outer loop
      vertex -9.13545 -4.06737 -15.7538
      vertex -3.90419 -3.08534 -13.2377
      vertex -9.45453 -3.08534 -16.4422
    endloop
  endfacet
  facet normal -0.5 -0.000507964 0.866025
    outer loop
      vertex -3.6878 0.607795 -13.6125
      vertex -9.89067 -1.04023 -17.1947
      vertex -3.68738 -1.04023 -13.6133
    endloop
  endfacet
  facet normal -0.5 -0.000509462 0.866025
    outer loop
      vertex -9.96929 0.292157 -17.2394
      vertex -3.6878 0.607795 -13.6125
      vertex -3.68791 1.05034 -13.6124
    endloop
  endfacet
  facet normal -0.5 -0.00050807 0.866025
    outer loop
      vertex -3.6878 0.607795 -13.6125
      vertex -9.96929 0.292157 -17.2394
      vertex -9.89067 -1.04023 -17.1947
    endloop
  endfacet
  facet normal -0.50001 -0.00050883 0.86602
    outer loop
      vertex -9.89067 -1.04023 -17.1947
      vertex -9.96929 0.292157 -17.2394
      vertex -10 3.28073e-16 -17.2573
    endloop
  endfacet
  facet normal -0.334755 0.742805 0.579811
    outer loop
      vertex -5.71927 -8.08718 -10.0939
      vertex -5.83546 -8.05325 -10.2045
      vertex -5.78876 -8.08718 -10.134
    endloop
  endfacet
  facet normal -0.334754 0.742805 0.579811
    outer loop
      vertex -4.94283 -6.68753 -11.4388
      vertex -5.83546 -8.05325 -10.2045
      vertex -5.71927 -8.08718 -10.0939
    endloop
  endfacet
  facet normal -0.334754 0.742805 0.579811
    outer loop
      vertex -4.94283 -6.68753 -11.4388
      vertex -6.69131 -7.43145 -11.4952
      vertex -5.83546 -8.05325 -10.2045
    endloop
  endfacet
  facet normal -0.334754 0.742805 0.579811
    outer loop
      vertex -6.69131 -7.43145 -11.4952
      vertex -4.94283 -6.68753 -11.4388
      vertex -7.36113 -6.68753 -12.835
    endloop
  endfacet
  facet normal -0.928288 0.281533 -0.24294
    outer loop
      vertex -4.94283 -6.68753 -11.4388
      vertex -5.66943 -7.99734 -10.1803
      vertex -4.94283 -6.68754 -11.4388
    endloop
  endfacet
  facet normal -0.6305 -0.326733 -0.70407
    outer loop
      vertex -5.71927 -8.08718 -10.0939
      vertex -5.66943 -7.99734 -10.1803
      vertex -4.94283 -6.68753 -11.4388
    endloop
  endfacet
  facet normal -0.866026 -1.1991e-06 -0.499999
    outer loop
      vertex -5.71927 -8.08718 -10.0939
      vertex -5.77041 -8.10052 -10.0054
      vertex -5.66943 -7.99734 -10.1803
    endloop
  endfacet
  facet normal -0.866026 5.17043e-06 -0.499998
    outer loop
      vertex -5.77041 -8.10052 -10.0054
      vertex -5.71927 -8.08718 -10.0939
      vertex -5.74609 -8.11819 -10.0475
    endloop
  endfacet
  facet normal -0.250222 0.86577 0.433395
    outer loop
      vertex -5.71927 -8.08718 -10.0939
      vertex -5.78876 -8.08718 -10.134
      vertex -5.74609 -8.11819 -10.0475
    endloop
  endfacet
  facet normal -0.404657 0.587375 0.700887
    outer loop
      vertex -7.36113 -6.68753 -12.835
      vertex -4.94283 -6.68753 -11.4388
      vertex -7.60378 -6.41805 -13.2009
    endloop
  endfacet
  facet normal -0.404658 0.587373 0.700888
    outer loop
      vertex -8.59954 -4.9956 -14.9679
      vertex -4.36311 -5.08999 -12.4429
      vertex -4.32886 -4.9956 -12.5022
    endloop
  endfacet
  facet normal -0.404658 0.587374 0.700888
    outer loop
      vertex -4.36311 -5.08999 -12.4429
      vertex -7.60378 -6.41805 -13.2009
      vertex -4.94283 -6.68753 -11.4388
    endloop
  endfacet
  facet normal -0.404658 0.587374 0.700888
    outer loop
      vertex -4.36311 -5.08999 -12.4429
      vertex -8.09017 -5.87785 -13.9344
      vertex -7.60378 -6.41805 -13.2009
    endloop
  endfacet
  facet normal -0.404658 0.587374 0.700888
    outer loop
      vertex -4.36311 -5.08999 -12.4429
      vertex -8.59954 -4.9956 -14.9679
      vertex -8.09017 -5.87785 -13.9344
    endloop
  endfacet
  facet normal -0.5 -0.000508924 0.866025
    outer loop
      vertex -9.8896 1.05034 -17.1929
      vertex -9.96929 0.292157 -17.2394
      vertex -3.68791 1.05034 -13.6124
    endloop
  endfacet
endsolid OpenSCAD_Model
