solid OpenSCAD_Model
  facet normal 0.470809 -0.524986 0.709034
    outer loop
      vertex -1.74728 7.74454 -4.27096
      vertex -6.08873 4.47758 -3.80711
      vertex 0.571656 6.40571 -6.80208
    endloop
  endfacet
  facet normal 0.470809 -0.524986 0.709034
    outer loop
      vertex -6.56474 6.34993 -2.1047
      vertex -6.08873 4.47758 -3.80711
      vertex -1.74728 7.74454 -4.27096
    endloop
  endfacet
  facet normal 0.470809 -0.524986 0.709034
    outer loop
      vertex -6.08873 4.47758 -3.80711
      vertex -6.56474 6.34993 -2.1047
      vertex -6.61719 4.78268 -3.2303
    endloop
  endfacet
  facet normal -0.470809 0.524986 -0.709034
    outer loop
      vertex -4.18158 3.37648 -2.36284
      vertex 0.159878 6.64345 -2.82669
      vertex 2.47881 5.30461 -5.35781
    endloop
  endfacet
  facet normal -0.470809 0.524986 -0.709034
    outer loop
      vertex -4.18158 3.37648 -2.36284
      vertex -5.38772 5.03747 -0.332114
      vertex 0.159878 6.64345 -2.82669
    endloop
  endfacet
  facet normal -0.470809 0.524986 -0.709034
    outer loop
      vertex -5.38772 5.03747 -0.332114
      vertex -4.18158 3.37648 -2.36284
      vertex -5.41939 4.09113 -1.01178
    endloop
  endfacet
  facet normal 0.0271695 0.811925 0.583129
    outer loop
      vertex 0.571656 6.40571 -6.80208
      vertex -4.18158 3.37648 -2.36284
      vertex 2.47881 5.30461 -5.35781
    endloop
  endfacet
  facet normal 0.0271695 0.811925 0.583129
    outer loop
      vertex -4.18158 3.37648 -2.36284
      vertex 0.571656 6.40571 -6.80208
      vertex -6.08873 4.47758 -3.80711
    endloop
  endfacet
  facet normal -0.0271694 -0.811925 -0.583129
    outer loop
      vertex -1.74728 7.74454 -4.27096
      vertex -5.38772 5.03747 -0.332114
      vertex -6.56474 6.34993 -2.1047
    endloop
  endfacet
  facet normal -0.0271694 -0.811925 -0.583129
    outer loop
      vertex -5.38772 5.03747 -0.332114
      vertex -1.74728 7.74454 -4.27096
      vertex 0.159878 6.64345 -2.82669
    endloop
  endfacet
  facet normal -0.994522 0.104529 0
    outer loop
      vertex -9.85525 1.37717 -17.0926
      vertex -9.78148 2.07912 -16.8773
      vertex -9.78148 2.07912 -30.9017
    endloop
  endfacet
  facet normal -0.994522 0.104529 3.83977e-08
    outer loop
      vertex -9.78148 2.07912 -30.9017
      vertex -9.8896 1.05034 -17.1929
      vertex -9.85525 1.37717 -17.0926
    endloop
  endfacet
  facet normal -0.994522 0.104529 -1.52143e-08
    outer loop
      vertex -9.78148 2.07912 -30.9017
      vertex -9.96929 0.292157 -17.2394
      vertex -9.8896 1.05034 -17.1929
    endloop
  endfacet
  facet normal -0.994522 0.104528 -3.70728e-08
    outer loop
      vertex -10 8.90046e-16 -30.9017
      vertex -9.96929 0.292157 -17.2394
      vertex -9.78148 2.07912 -30.9017
    endloop
  endfacet
  facet normal -0.994522 0.104527 4.32785e-18
    outer loop
      vertex -9.96929 0.292157 -17.2394
      vertex -10 8.90046e-16 -30.9017
      vertex -10 3.28073e-16 -17.2573
    endloop
  endfacet
  facet normal 0.994522 0.104529 0
    outer loop
      vertex 9.78148 2.07912 -10
      vertex 10 1.65545e-15 -30.9017
      vertex 9.78148 2.07912 -30.9017
    endloop
  endfacet
  facet normal 0.994522 0.104529 4.30522e-18
    outer loop
      vertex 10 1.65545e-15 -30.9017
      vertex 9.78148 2.07912 -10
      vertex 10 7.9457e-16 -10
    endloop
  endfacet
  facet normal 0.207911 -0.978148 0
    outer loop
      vertex 1.04528 -9.94522 -10
      vertex 3.09017 -9.51056 -30.9017
      vertex 3.09017 -9.51056 -10
    endloop
  endfacet
  facet normal 0.207911 -0.978148 0
    outer loop
      vertex 3.09017 -9.51056 -30.9017
      vertex 1.04528 -9.94522 -10
      vertex 1.04528 -9.94522 -30.9017
    endloop
  endfacet
  facet normal 0 1 -0
    outer loop
      vertex 1.04528 9.94522 -30.9017
      vertex -1.04528 9.94522 -10
      vertex 1.04528 9.94522 -10
    endloop
  endfacet
  facet normal 0 1 0
    outer loop
      vertex -1.04528 9.94522 -10
      vertex 1.04528 9.94522 -30.9017
      vertex -1.04528 9.94522 -30.9017
    endloop
  endfacet
  facet normal 0.866026 -0.5 0
    outer loop
      vertex 8.09017 -5.87785 -10
      vertex 9.13545 -4.06737 -30.9017
      vertex 9.13545 -4.06737 -10
    endloop
  endfacet
  facet normal 0.866026 -0.5 0
    outer loop
      vertex 9.13545 -4.06737 -30.9017
      vertex 8.09017 -5.87785 -10
      vertex 8.09017 -5.87785 -30.9017
    endloop
  endfacet
  facet normal 0.743145 0.669131 0
    outer loop
      vertex 8.09017 5.87785 -10
      vertex 6.69131 7.43145 -30.9017
      vertex 6.69131 7.43145 -10
    endloop
  endfacet
  facet normal 0.743145 0.669131 0
    outer loop
      vertex 6.69131 7.43145 -30.9017
      vertex 8.09017 5.87785 -10
      vertex 8.09017 5.87785 -30.9017
    endloop
  endfacet
  facet normal 0.866026 0.5 0
    outer loop
      vertex 9.13545 4.06737 -10
      vertex 8.09017 5.87785 -30.9017
      vertex 8.09017 5.87785 -10
    endloop
  endfacet
  facet normal 0.866026 0.5 0
    outer loop
      vertex 8.09017 5.87785 -30.9017
      vertex 9.13545 4.06737 -10
      vertex 9.13545 4.06737 -30.9017
    endloop
  endfacet
  facet normal 0.951057 -0.309017 0
    outer loop
      vertex 9.13545 -4.06737 -10
      vertex 9.78148 -2.07912 -30.9017
      vertex 9.78148 -2.07912 -10
    endloop
  endfacet
  facet normal 0.951057 -0.309017 0
    outer loop
      vertex 9.78148 -2.07912 -30.9017
      vertex 9.13545 -4.06737 -10
      vertex 9.13545 -4.06737 -30.9017
    endloop
  endfacet
  facet normal 0 -1 0
    outer loop
      vertex -1.04528 -9.94522 -30.9017
      vertex 1.04528 -9.94522 -10
      vertex -1.04528 -9.94522 -10
    endloop
  endfacet
  facet normal 0 -1 -0
    outer loop
      vertex 1.04528 -9.94522 -10
      vertex -1.04528 -9.94522 -30.9017
      vertex 1.04528 -9.94522 -30.9017
    endloop
  endfacet
  facet normal -0.951057 0.309017 0
    outer loop
      vertex -9.13545 4.06737 -30.9017
      vertex -9.45139 3.095 -16.4368
      vertex -9.13545 4.06737 -15.7538
    endloop
  endfacet
  facet normal -0.951057 0.309017 0
    outer loop
      vertex -9.78148 2.07912 -16.8773
      vertex -9.13545 4.06737 -30.9017
      vertex -9.78148 2.07912 -30.9017
    endloop
  endfacet
  facet normal -0.951056 0.309017 4.67601e-08
    outer loop
      vertex -9.13545 4.06737 -30.9017
      vertex -9.78148 2.07912 -16.8773
      vertex -9.45139 3.095 -16.4368
    endloop
  endfacet
  facet normal -0.207911 0.978148 0
    outer loop
      vertex -1.04528 9.94522 -30.9017
      vertex -3.09017 9.51056 -10
      vertex -1.04528 9.94522 -10
    endloop
  endfacet
  facet normal -0.207911 0.978148 0
    outer loop
      vertex -3.09017 9.51056 -10
      vertex -1.04528 9.94522 -30.9017
      vertex -3.09017 9.51056 -30.9017
    endloop
  endfacet
  facet normal 0.951057 0.309017 0
    outer loop
      vertex 9.78148 2.07912 -10
      vertex 9.13545 4.06737 -30.9017
      vertex 9.13545 4.06737 -10
    endloop
  endfacet
  facet normal 0.951057 0.309017 0
    outer loop
      vertex 9.13545 4.06737 -30.9017
      vertex 9.78148 2.07912 -10
      vertex 9.78148 2.07912 -30.9017
    endloop
  endfacet
  facet normal 0.406737 0.913545 8.42831e-09
    outer loop
      vertex 3.09017 9.51056 -30.9017
      vertex 4.02403 9.09478 -10
      vertex 5 8.66025 -30.9017
    endloop
  endfacet
  facet normal 0.406737 0.913545 0
    outer loop
      vertex 4.02403 9.09478 -10
      vertex 3.09017 9.51056 -30.9017
      vertex 3.09017 9.51056 -10
    endloop
  endfacet
  facet normal 0.587785 -0.809017 0
    outer loop
      vertex 5 -8.66025 -30.9017
      vertex 6.69131 -7.43145 -10
      vertex 5 -8.66025 -10
    endloop
  endfacet
  facet normal 0.587785 -0.809017 0
    outer loop
      vertex 6.69131 -7.43145 -10
      vertex 5 -8.66025 -30.9017
      vertex 6.69131 -7.43145 -30.9017
    endloop
  endfacet
  facet normal 0.743145 -0.669131 0
    outer loop
      vertex 6.69131 -7.43145 -10
      vertex 8.09017 -5.87785 -30.9017
      vertex 8.09017 -5.87785 -10
    endloop
  endfacet
  facet normal 0.743145 -0.669131 0
    outer loop
      vertex 8.09017 -5.87785 -30.9017
      vertex 6.69131 -7.43145 -10
      vertex 6.69131 -7.43145 -30.9017
    endloop
  endfacet
  facet normal 0.406737 -0.913545 0
    outer loop
      vertex 3.09017 -9.51056 -30.9017
      vertex 5 -8.66025 -10
      vertex 3.09017 -9.51056 -10
    endloop
  endfacet
  facet normal 0.406737 -0.913545 0
    outer loop
      vertex 5 -8.66025 -10
      vertex 3.09017 -9.51056 -30.9017
      vertex 5 -8.66025 -30.9017
    endloop
  endfacet
  facet normal 0.994522 -0.104529 -5.08152e-18
    outer loop
      vertex 9.78148 -2.07912 -10
      vertex 10 1.65545e-15 -30.9017
      vertex 10 7.9457e-16 -10
    endloop
  endfacet
  facet normal 0.994522 -0.104529 0
    outer loop
      vertex 10 1.65545e-15 -30.9017
      vertex 9.78148 -2.07912 -10
      vertex 9.78148 -2.07912 -30.9017
    endloop
  endfacet
  facet normal -0.743145 -0.669131 0
    outer loop
      vertex -6.69131 -7.43145 -30.9017
      vertex -8.09017 -5.87785 -13.9344
      vertex -8.09017 -5.87785 -30.9017
    endloop
  endfacet
  facet normal -0.743145 -0.669131 -2.59178e-08
    outer loop
      vertex -8.09017 -5.87785 -13.9344
      vertex -6.69131 -7.43145 -30.9017
      vertex -7.60378 -6.41805 -13.2009
    endloop
  endfacet
  facet normal -0.743144 -0.669132 5.9353e-08
    outer loop
      vertex -7.60378 -6.41805 -13.2009
      vertex -6.69131 -7.43145 -30.9017
      vertex -7.36113 -6.68753 -12.835
    endloop
  endfacet
  facet normal -0.743145 -0.669131 0
    outer loop
      vertex -7.36113 -6.68753 -12.835
      vertex -6.69131 -7.43145 -30.9017
      vertex -6.69131 -7.43145 -11.4952
    endloop
  endfacet
  facet normal -0.743144 0.669131 0
    outer loop
      vertex -6.69131 7.43145 -30.9017
      vertex -7.35433 6.69508 -12.8232
      vertex -6.69131 7.43145 -11.4951
    endloop
  endfacet
  facet normal -0.743145 0.669131 0
    outer loop
      vertex -8.09017 5.87785 -13.9344
      vertex -6.69131 7.43145 -30.9017
      vertex -8.09017 5.87785 -30.9017
    endloop
  endfacet
  facet normal -0.743145 0.669131 -1.46545e-08
    outer loop
      vertex -6.69131 7.43145 -30.9017
      vertex -8.09017 5.87785 -13.9344
      vertex -7.35433 6.69508 -12.8232
    endloop
  endfacet
  facet normal -0.743145 0.669131 0
    outer loop
      vertex -6.97266 7.11897 -7.923
      vertex -6.69131 7.43145 -1.68989
      vertex -6.69131 7.43145 -8.41032
    endloop
  endfacet
  facet normal -0.743145 0.669131 0
    outer loop
      vertex -8.09017 5.87785 -5.80096
      vertex -6.97266 7.11897 -7.923
      vertex -8.09017 5.87785 -5.98741
    endloop
  endfacet
  facet normal -0.743145 0.669131 -7.3205e-09
    outer loop
      vertex -6.97266 7.11897 -7.923
      vertex -8.09017 5.87785 -5.80096
      vertex -6.69131 7.43145 -1.68989
    endloop
  endfacet
  facet normal -0.587786 0.809017 0
    outer loop
      vertex -6.69131 7.43145 -11.4951
      vertex -5.83539 8.05331 -10.2026
      vertex -6.69131 7.43145 -30.9017
    endloop
  endfacet
  facet normal -0.587785 0.809017 -3.93104e-07
    outer loop
      vertex -5.4135 8.35982 -1.74945e-15
      vertex -6.69131 7.43145 -1.68989
      vertex -6.06347 7.8876 -1.89871e-15
    endloop
  endfacet
  facet normal -0.587785 0.809017 0
    outer loop
      vertex -5.4135 8.35982 -1.74945e-15
      vertex -6.69131 7.43145 -8.41032
      vertex -6.69131 7.43145 -1.68989
    endloop
  endfacet
  facet normal -0.587785 0.809017 -1.6132e-09
    outer loop
      vertex -5.4135 8.35982 -1.74945e-15
      vertex -6.40358 7.64049 -8.90867
      vertex -6.69131 7.43145 -8.41032
    endloop
  endfacet
  facet normal -0.587785 0.809017 5.41921e-08
    outer loop
      vertex -5.4135 8.35982 -1.74945e-15
      vertex -6.01238 7.92472 -9.58626
      vertex -6.40358 7.64049 -8.90867
    endloop
  endfacet
  facet normal -0.587786 0.809017 7.96548e-08
    outer loop
      vertex -5.4135 8.35982 -1.74945e-15
      vertex -5.86642 8.03076 -9.83907
      vertex -6.01238 7.92472 -9.58626
    endloop
  endfacet
  facet normal -0.58778 0.809021 -3.0317e-07
    outer loop
      vertex -5.86642 8.03076 -9.83907
      vertex -5.4135 8.35982 -1.74945e-15
      vertex -5.82343 8.06199 -9.91352
    endloop
  endfacet
  facet normal -0.587786 0.809016 6.4032e-08
    outer loop
      vertex -5 8.66025 -1.6545e-15
      vertex -5.82343 8.06199 -9.91352
      vertex -5.4135 8.35982 -1.74945e-15
    endloop
  endfacet
  facet normal -0.587784 0.809018 -1.96044e-07
    outer loop
      vertex -5 8.66025 -1.6545e-15
      vertex -5.74548 8.11863 -10.0485
      vertex -5.82343 8.06199 -9.91352
    endloop
  endfacet
  facet normal -0.587786 0.809017 -1.814e-08
    outer loop
      vertex -5 8.66025 -30.9017
      vertex -5.74548 8.11863 -10.0485
      vertex -5 8.66025 -1.6545e-15
    endloop
  endfacet
  facet normal -0.587775 0.809025 5.77779e-07
    outer loop
      vertex -5 8.66025 -30.9017
      vertex -5.78054 8.09315 -10.1198
      vertex -5.74548 8.11863 -10.0485
    endloop
  endfacet
  facet normal -0.587785 0.809017 -2.15864e-08
    outer loop
      vertex -5 8.66025 -30.9017
      vertex -5.83539 8.05331 -10.2026
      vertex -5.78054 8.09315 -10.1198
    endloop
  endfacet
  facet normal -0.587785 0.809017 -2.19101e-08
    outer loop
      vertex -5.83539 8.05331 -10.2026
      vertex -5 8.66025 -30.9017
      vertex -6.69131 7.43145 -30.9017
    endloop
  endfacet
  facet normal -0.406737 0.913545 0
    outer loop
      vertex -3.09017 9.51056 -10
      vertex -3.09017 9.51056 -30.9017
      vertex -4.059 9.07922 -10
    endloop
  endfacet
  facet normal -0.406736 0.913546 0
    outer loop
      vertex -4.059 9.07922 -10
      vertex -4.53307 8.86814 -1.54186e-15
      vertex -4.059 9.07922 -1.4275e-15
    endloop
  endfacet
  facet normal -0.406714 0.913555 1.2458e-06
    outer loop
      vertex -4.53307 8.86814 -1.54186e-15
      vertex -4.059 9.07922 -10
      vertex -3.09017 9.51056 -30.9017
    endloop
  endfacet
  facet normal 0.406737 0.913545 9.27901e-09
    outer loop
      vertex 5 8.66025 -30.9017
      vertex 4.02403 9.09478 -10
      vertex 5 8.66025 -10
    endloop
  endfacet
  facet normal 0.207911 0.978148 -0
    outer loop
      vertex 3.09017 9.51056 -30.9017
      vertex 1.04528 9.94522 -10
      vertex 3.09017 9.51056 -10
    endloop
  endfacet
  facet normal 0.207911 0.978148 0
    outer loop
      vertex 1.04528 9.94522 -10
      vertex 3.09017 9.51056 -30.9017
      vertex 1.04528 9.94522 -30.9017
    endloop
  endfacet
  facet normal 0.587785 0.809017 1.34093e-08
    outer loop
      vertex 5 8.66025 -30.9017
      vertex 5 8.66025 -10
      vertex 5.8643 8.03231 -10
    endloop
  endfacet
  facet normal -0.207911 -0.978148 0
    outer loop
      vertex -3.09017 -9.51056 -30.9017
      vertex -1.04528 -9.94522 -10
      vertex -3.09017 -9.51056 -10
    endloop
  endfacet
  facet normal -0.207911 -0.978148 -0
    outer loop
      vertex -1.04528 -9.94522 -10
      vertex -3.09017 -9.51056 -30.9017
      vertex -1.04528 -9.94522 -30.9017
    endloop
  endfacet
  facet normal 0 0 -1
    outer loop
      vertex 9.78148 -2.07912 -30.9017
      vertex 9.78148 2.07912 -30.9017
      vertex 10 1.65545e-15 -30.9017
    endloop
  endfacet
  facet normal 0 0 -1
    outer loop
      vertex 9.13545 -4.06737 -30.9017
      vertex 9.78148 2.07912 -30.9017
      vertex 9.78148 -2.07912 -30.9017
    endloop
  endfacet
  facet normal 0 0 -1
    outer loop
      vertex 9.13545 -4.06737 -30.9017
      vertex 9.13545 4.06737 -30.9017
      vertex 9.78148 2.07912 -30.9017
    endloop
  endfacet
  facet normal 0 0 -1
    outer loop
      vertex 8.09017 -5.87785 -30.9017
      vertex 9.13545 4.06737 -30.9017
      vertex 9.13545 -4.06737 -30.9017
    endloop
  endfacet
  facet normal 0 0 -1
    outer loop
      vertex 8.09017 -5.87785 -30.9017
      vertex 8.09017 5.87785 -30.9017
      vertex 9.13545 4.06737 -30.9017
    endloop
  endfacet
  facet normal 0 0 -1
    outer loop
      vertex 6.69131 -7.43145 -30.9017
      vertex 8.09017 5.87785 -30.9017
      vertex 8.09017 -5.87785 -30.9017
    endloop
  endfacet
  facet normal 0 0 -1
    outer loop
      vertex 6.69131 -7.43145 -30.9017
      vertex 6.69131 7.43145 -30.9017
      vertex 8.09017 5.87785 -30.9017
    endloop
  endfacet
  facet normal 0 0 -1
    outer loop
      vertex 5 -8.66025 -30.9017
      vertex 6.69131 7.43145 -30.9017
      vertex 6.69131 -7.43145 -30.9017
    endloop
  endfacet
  facet normal 1.04773e-06 -1.10121e-07 -1
    outer loop
      vertex 5 -8.66025 -30.9017
      vertex 5 8.66025 -30.9017
      vertex 6.69131 7.43145 -30.9017
    endloop
  endfacet
  facet normal 4.9029e-08 -1.10121e-07 -1
    outer loop
      vertex 3.09017 -9.51056 -30.9017
      vertex 5 8.66025 -30.9017
      vertex 5 -8.66025 -30.9017
    endloop
  endfacet
  facet normal -4.46454e-08 -1.00275e-07 -1
    outer loop
      vertex 3.09017 -9.51056 -30.9017
      vertex 3.09017 9.51056 -30.9017
      vertex 5 8.66025 -30.9017
    endloop
  endfacet
  facet normal 9.54055e-07 -1.00275e-07 -1
    outer loop
      vertex 1.04528 -9.94522 -30.9017
      vertex 3.09017 9.51056 -30.9017
      vertex 3.09017 -9.51056 -30.9017
    endloop
  endfacet
  facet normal 0 0 -1
    outer loop
      vertex 1.04528 -9.94522 -30.9017
      vertex 1.04528 9.94522 -30.9017
      vertex 3.09017 9.51056 -30.9017
    endloop
  endfacet
  facet normal 0 0 -1
    outer loop
      vertex -1.04528 -9.94522 -30.9017
      vertex 1.04528 9.94522 -30.9017
      vertex 1.04528 -9.94522 -30.9017
    endloop
  endfacet
  facet normal 0 0 -1
    outer loop
      vertex -1.04528 -9.94522 -30.9017
      vertex -1.04528 9.94522 -30.9017
      vertex 1.04528 9.94522 -30.9017
    endloop
  endfacet
  facet normal 0 0 -1
    outer loop
      vertex -3.09017 -9.51056 -30.9017
      vertex -1.04528 9.94522 -30.9017
      vertex -1.04528 -9.94522 -30.9017
    endloop
  endfacet
  facet normal 0 0 -1
    outer loop
      vertex -3.09017 -9.51056 -30.9017
      vertex -3.09017 9.51056 -30.9017
      vertex -1.04528 9.94522 -30.9017
    endloop
  endfacet
  facet normal 0 0 -1
    outer loop
      vertex -5 -8.66025 -30.9017
      vertex -3.09017 9.51056 -30.9017
      vertex -3.09017 -9.51056 -30.9017
    endloop
  endfacet
  facet normal 0 0 -1
    outer loop
      vertex -5 -8.66025 -30.9017
      vertex -5 8.66025 -30.9017
      vertex -3.09017 9.51056 -30.9017
    endloop
  endfacet
  facet normal 0 0 -1
    outer loop
      vertex -6.69131 -7.43145 -30.9017
      vertex -5 8.66025 -30.9017
      vertex -5 -8.66025 -30.9017
    endloop
  endfacet
  facet normal 0 0 -1
    outer loop
      vertex -6.69131 -7.43145 -30.9017
      vertex -6.69131 7.43145 -30.9017
      vertex -5 8.66025 -30.9017
    endloop
  endfacet
  facet normal 0 0 -1
    outer loop
      vertex -8.09017 -5.87785 -30.9017
      vertex -6.69131 7.43145 -30.9017
      vertex -6.69131 -7.43145 -30.9017
    endloop
  endfacet
  facet normal 0 0 -1
    outer loop
      vertex -8.09017 -5.87785 -30.9017
      vertex -8.09017 5.87785 -30.9017
      vertex -6.69131 7.43145 -30.9017
    endloop
  endfacet
  facet normal 0 0 -1
    outer loop
      vertex -9.13545 -4.06737 -30.9017
      vertex -8.09017 5.87785 -30.9017
      vertex -8.09017 -5.87785 -30.9017
    endloop
  endfacet
  facet normal 0 0 -1
    outer loop
      vertex -9.13545 -4.06737 -30.9017
      vertex -9.13545 4.06737 -30.9017
      vertex -8.09017 5.87785 -30.9017
    endloop
  endfacet
  facet normal 0 0 -1
    outer loop
      vertex -9.78148 -2.07912 -30.9017
      vertex -9.13545 4.06737 -30.9017
      vertex -9.13545 -4.06737 -30.9017
    endloop
  endfacet
  facet normal 0 0 -1
    outer loop
      vertex -9.78148 -2.07912 -30.9017
      vertex -9.78148 2.07912 -30.9017
      vertex -9.13545 4.06737 -30.9017
    endloop
  endfacet
  facet normal 0 -0 -1
    outer loop
      vertex -9.78148 2.07912 -30.9017
      vertex -9.78148 -2.07912 -30.9017
      vertex -10 8.90046e-16 -30.9017
    endloop
  endfacet
  facet normal -0.587785 -0.809017 -6.13434e-06
    outer loop
      vertex -5.74609 -8.11819 -10.0475
      vertex -5 -8.66025 -10
      vertex -5.7735 -8.09827 -10
    endloop
  endfacet
  facet normal -0.587786 -0.809017 1.57012e-06
    outer loop
      vertex -5.78876 -8.08718 -10.134
      vertex -5 -8.66025 -10
      vertex -5.74609 -8.11819 -10.0475
    endloop
  endfacet
  facet normal -0.587786 -0.809017 2.07871e-06
    outer loop
      vertex -5.83546 -8.05325 -10.2045
      vertex -5 -8.66025 -10
      vertex -5.78876 -8.08718 -10.134
    endloop
  endfacet
  facet normal -0.587785 -0.809017 -2.77607e-09
    outer loop
      vertex -5 -8.66025 -30.9017
      vertex -5.83546 -8.05325 -10.2045
      vertex -6.69131 -7.43145 -30.9017
    endloop
  endfacet
  facet normal -0.587785 -0.809017 -1.34093e-08
    outer loop
      vertex -5.83546 -8.05325 -10.2045
      vertex -5 -8.66025 -30.9017
      vertex -5 -8.66025 -10
    endloop
  endfacet
  facet normal -0.951057 -0.309017 0
    outer loop
      vertex -9.13545 -4.06737 -30.9017
      vertex -9.78148 -2.07912 -16.8774
      vertex -9.78148 -2.07912 -30.9017
    endloop
  endfacet
  facet normal -0.951056 -0.309017 4.76416e-08
    outer loop
      vertex -9.78148 -2.07912 -16.8774
      vertex -9.13545 -4.06737 -30.9017
      vertex -9.45453 -3.08534 -16.4422
    endloop
  endfacet
  facet normal -0.951057 -0.309017 0
    outer loop
      vertex -9.45453 -3.08534 -16.4422
      vertex -9.13545 -4.06737 -30.9017
      vertex -9.13545 -4.06737 -15.7538
    endloop
  endfacet
  facet normal -0.406737 -0.913545 -9.27902e-09
    outer loop
      vertex -5 -8.66025 -30.9017
      vertex -4.06614 -9.07604 -10
      vertex -5 -8.66025 -10
    endloop
  endfacet
  facet normal -0.406737 -0.913545 -1.79119e-08
    outer loop
      vertex -4.06614 -9.07604 -10
      vertex -5 -8.66025 -30.9017
      vertex -3.09017 -9.51056 -30.9017
    endloop
  endfacet
  facet normal -0.406737 -0.913546 -0
    outer loop
      vertex -3.09017 -9.51056 -10
      vertex -4.06614 -9.07604 -10
      vertex -3.09017 -9.51056 -30.9017
    endloop
  endfacet
  facet normal -0.866026 0.5 0
    outer loop
      vertex -8.09017 5.87785 -30.9017
      vertex -8.59446 5.0044 -14.9591
      vertex -8.09017 5.87785 -13.9344
    endloop
  endfacet
  facet normal -0.866026 0.5 0
    outer loop
      vertex -9.13545 4.06737 -15.7538
      vertex -8.09017 5.87785 -30.9017
      vertex -9.13545 4.06737 -30.9017
    endloop
  endfacet
  facet normal -0.866026 0.5 -8.71261e-09
    outer loop
      vertex -8.09017 5.87785 -30.9017
      vertex -9.13545 4.06737 -15.7538
      vertex -8.59446 5.0044 -14.9591
    endloop
  endfacet
  facet normal -0.866026 0.499998 0
    outer loop
      vertex -8.12694 5.81417 -5.92373
      vertex -8.09017 5.87785 -5.80096
      vertex -8.09017 5.87785 -5.98741
    endloop
  endfacet
  facet normal -0.406737 0.913545 -9.19587e-09
    outer loop
      vertex -5 8.66025 -30.9017
      vertex -4.53307 8.86814 -1.54186e-15
      vertex -3.09017 9.51056 -30.9017
    endloop
  endfacet
  facet normal -0.406737 0.913545 -1.25525e-08
    outer loop
      vertex -4.53307 8.86814 -1.54186e-15
      vertex -5 8.66025 -30.9017
      vertex -5 8.66025 -1.6545e-15
    endloop
  endfacet
  facet normal 0.587785 0.809017 -0
    outer loop
      vertex 6.69131 7.43145 -30.9017
      vertex 5.8643 8.03231 -10
      vertex 6.69131 7.43145 -10
    endloop
  endfacet
  facet normal 0.587785 0.809017 6.5924e-09
    outer loop
      vertex 5.8643 8.03231 -10
      vertex 6.69131 7.43145 -30.9017
      vertex 5 8.66025 -30.9017
    endloop
  endfacet
  facet normal -0.866026 -0.5 0
    outer loop
      vertex -8.09017 -5.87785 -30.9017
      vertex -9.13545 -4.06737 -15.7538
      vertex -9.13545 -4.06737 -30.9017
    endloop
  endfacet
  facet normal -0.866025 -0.5 2.41347e-08
    outer loop
      vertex -9.13545 -4.06737 -15.7538
      vertex -8.09017 -5.87785 -30.9017
      vertex -8.59954 -4.9956 -14.9679
    endloop
  endfacet
  facet normal -0.866026 -0.5 0
    outer loop
      vertex -8.59954 -4.9956 -14.9679
      vertex -8.09017 -5.87785 -30.9017
      vertex -8.09017 -5.87785 -13.9344
    endloop
  endfacet
  facet normal -0.587785 -0.809017 0
    outer loop
      vertex -5.83546 -8.05325 -10.2045
      vertex -6.69131 -7.43145 -11.4952
      vertex -6.69131 -7.43145 -30.9017
    endloop
  endfacet
  facet normal -0.994522 -0.104529 -0
    outer loop
      vertex -9.78148 -2.07912 -16.8774
      vertex -9.85526 -1.37713 -17.0918
      vertex -9.78148 -2.07912 -30.9017
    endloop
  endfacet
  facet normal -0.994522 -0.104528 -4.30518e-18
    outer loop
      vertex -10 8.90046e-16 -30.9017
      vertex -9.89067 -1.04023 -17.1947
      vertex -10 3.28073e-16 -17.2573
    endloop
  endfacet
  facet normal -0.994522 -0.104528 -5.50482e-08
    outer loop
      vertex -9.78148 -2.07912 -30.9017
      vertex -9.89067 -1.04023 -17.1947
      vertex -10 8.90046e-16 -30.9017
    endloop
  endfacet
  facet normal -0.994522 -0.10453 2.53074e-08
    outer loop
      vertex -9.89067 -1.04023 -17.1947
      vertex -9.78148 -2.07912 -30.9017
      vertex -9.85526 -1.37713 -17.0918
    endloop
  endfacet
  facet normal -0 0 1
    outer loop
      vertex 0.416666 0.721687 -10
      vertex 10 7.9457e-16 -10
      vertex 9.78148 2.07912 -10
    endloop
  endfacet
  facet normal 0 0 1
    outer loop
      vertex 2.91667 5.05181 -10
      vertex 9.78148 2.07912 -10
      vertex 9.13545 4.06737 -10
    endloop
  endfacet
  facet normal 0 0 1
    outer loop
      vertex 10 7.9457e-16 -10
      vertex 0.416666 0.721687 -10
      vertex 9.78148 -2.07912 -10
    endloop
  endfacet
  facet normal -0 0 1
    outer loop
      vertex 2.91667 5.05181 -10
      vertex 9.13545 4.06737 -10
      vertex 8.09017 5.87785 -10
    endloop
  endfacet
  facet normal 0 0 1
    outer loop
      vertex 9.78148 2.07912 -10
      vertex 2.91667 5.05181 -10
      vertex 0.416666 0.721687 -10
    endloop
  endfacet
  facet normal 0 0 1
    outer loop
      vertex 2.91667 5.05181 -10
      vertex 8.09017 5.87785 -10
      vertex 6.69131 7.43145 -10
    endloop
  endfacet
  facet normal 0 0 1
    outer loop
      vertex 9.78148 -2.07912 -10
      vertex 0.416666 0.721687 -10
      vertex 9.13545 -4.06737 -10
    endloop
  endfacet
  facet normal 0 0 1
    outer loop
      vertex 2.91667 5.05181 -10
      vertex 6.69131 7.43145 -10
      vertex 5.8643 8.03231 -10
    endloop
  endfacet
  facet normal 0 0 1
    outer loop
      vertex 9.13545 -4.06737 -10
      vertex 0.416666 0.721687 -10
      vertex 8.09017 -5.87785 -10
    endloop
  endfacet
  facet normal 0 0 1
    outer loop
      vertex 2.91667 5.05181 -10
      vertex 5.8643 8.03231 -10
      vertex 5 8.66025 -10
    endloop
  endfacet
  facet normal 0 0 1
    outer loop
      vertex 2.91667 5.05181 -10
      vertex 5 8.66025 -10
      vertex 4.02403 9.09478 -10
    endloop
  endfacet
  facet normal 0 0 1
    outer loop
      vertex 2.91667 5.05181 -10
      vertex 4.02403 9.09478 -10
      vertex 3.09017 9.51056 -10
    endloop
  endfacet
  facet normal 0 0 1
    outer loop
      vertex 8.09017 -5.87785 -10
      vertex 0.416666 0.721687 -10
      vertex 6.69131 -7.43145 -10
    endloop
  endfacet
  facet normal 0 0 1
    outer loop
      vertex 6.69131 -7.43145 -10
      vertex 0.416666 0.721687 -10
      vertex 5 -8.66025 -10
    endloop
  endfacet
  facet normal 0 0 1
    outer loop
      vertex 1.04528 9.94522 -10
      vertex 2.91667 5.05181 -10
      vertex 3.09017 9.51056 -10
    endloop
  endfacet
  facet normal -0 0 1
    outer loop
      vertex -1.04528 9.94522 -10
      vertex 2.91667 5.05181 -10
      vertex 1.04528 9.94522 -10
    endloop
  endfacet
  facet normal -0 0 1
    outer loop
      vertex -3.09017 9.51056 -10
      vertex 2.91667 5.05181 -10
      vertex -1.04528 9.94522 -10
    endloop
  endfacet
  facet normal 0 0 1
    outer loop
      vertex 2.91667 5.05181 -10
      vertex -3.09017 9.51056 -10
      vertex -4.059 9.07922 -10
    endloop
  endfacet
  facet normal 0 0 1
    outer loop
      vertex 5 -8.66025 -10
      vertex 0.416666 0.721687 -10
      vertex 3.09017 -9.51056 -10
    endloop
  endfacet
  facet normal 0 0 1
    outer loop
      vertex 3.09017 -9.51056 -10
      vertex 0.416666 0.721687 -10
      vertex 1.04528 -9.94522 -10
    endloop
  endfacet
  facet normal 0 0 1
    outer loop
      vertex 0.416666 0.721687 -10
      vertex -1.04528 -9.94522 -10
      vertex 1.04528 -9.94522 -10
    endloop
  endfacet
  facet normal -0 0 1
    outer loop
      vertex -5.7735 -4.99707 -10
      vertex -1.04528 -9.94522 -10
      vertex 0.416666 0.721687 -10
    endloop
  endfacet
  facet normal 0 0 1
    outer loop
      vertex -1.04528 -9.94522 -10
      vertex -5.7735 -4.99707 -10
      vertex -3.09017 -9.51056 -10
    endloop
  endfacet
  facet normal 0 0 1
    outer loop
      vertex -3.09017 -9.51056 -10
      vertex -5.7735 -4.99707 -10
      vertex -4.06614 -9.07604 -10
    endloop
  endfacet
  facet normal 0 0 1
    outer loop
      vertex -5.7735 -0.307306 -10
      vertex 0.416666 0.721687 -10
      vertex -5.7735 2.90493 -10
    endloop
  endfacet
  facet normal -0 -0 1
    outer loop
      vertex -5.7735 2.90493 -10
      vertex 0.416666 0.721687 -10
      vertex -5.7735 4.29558 -10
    endloop
  endfacet
  facet normal 0 0 1
    outer loop
      vertex -5.7735 -4.99707 -10
      vertex 0.416666 0.721687 -10
      vertex -5.7735 -0.307306 -10
    endloop
  endfacet
  facet normal -0 0 1
    outer loop
      vertex -5.7735 -7.59979 -10
      vertex -4.06614 -9.07604 -10
      vertex -5.7735 -4.99707 -10
    endloop
  endfacet
  facet normal 0 0 1
    outer loop
      vertex -4.06614 -9.07604 -10
      vertex -5.7735 -7.59979 -10
      vertex -5 -8.66025 -10
    endloop
  endfacet
  facet normal -0 0 1
    outer loop
      vertex -5.7735 -7.89586 -10
      vertex -5 -8.66025 -10
      vertex -5.7735 -7.59979 -10
    endloop
  endfacet
  facet normal 0 0 1
    outer loop
      vertex -5 -8.66025 -10
      vertex -5.7735 -7.89586 -10
      vertex -5.7735 -8.09827 -10
    endloop
  endfacet
  facet normal 0 0 -1
    outer loop
      vertex -0.312393 -0.450241 -25.9017
      vertex 1.47559 0.162735 -25.9017
      vertex 1.47559 -0.450241 -25.9017
    endloop
  endfacet
  facet normal 0 0 -1
    outer loop
      vertex -0.312393 -0.450241 -25.9017
      vertex -0.401398 0.162735 -25.9017
      vertex 1.47559 0.162735 -25.9017
    endloop
  endfacet
  facet normal 0 0 -1
    outer loop
      vertex -0.312393 -0.450241 -25.9017
      vertex -0.780396 0.194855 -25.9017
      vertex -0.401398 0.162735 -25.9017
    endloop
  endfacet
  facet normal 0 0 -1
    outer loop
      vertex -0.312393 -0.450241 -25.9017
      vertex -1.06841 -0.361237 -25.9017
      vertex -0.780396 0.194855 -25.9017
    endloop
  endfacet
  facet normal 0 0 -1
    outer loop
      vertex -1.8024 -2.78125 -25.9017
      vertex -1.06841 -0.361237 -25.9017
      vertex -0.312393 -0.450241 -25.9017
    endloop
  endfacet
  facet normal 0 0 -1
    outer loop
      vertex -1.06841 -0.361237 -25.9017
      vertex -1.8024 -2.78125 -25.9017
      vertex -2.6964 -2.78125 -25.9017
    endloop
  endfacet
  facet normal 0 0 -1
    outer loop
      vertex 1.47559 -0.450241 -25.9017
      vertex 2.25058 -2.78125 -25.9017
      vertex 1.47559 -2.78125 -25.9017
    endloop
  endfacet
  facet normal 0 0 -1
    outer loop
      vertex 1.47559 0.162735 -25.9017
      vertex 2.25058 -2.78125 -25.9017
      vertex 1.47559 -0.450241 -25.9017
    endloop
  endfacet
  facet normal 0 0 -1
    outer loop
      vertex 2.25058 -2.78125 -25.9017
      vertex 1.47559 0.162735 -25.9017
      vertex 2.25058 2.91475 -25.9017
    endloop
  endfacet
  facet normal 0 0 -1
    outer loop
      vertex 1.47559 2.29274 -25.9017
      vertex 2.25058 2.91475 -25.9017
      vertex 1.47559 0.162735 -25.9017
    endloop
  endfacet
  facet normal 0 0 -1
    outer loop
      vertex -0.446396 2.91475 -25.9017
      vertex 1.47559 2.29274 -25.9017
      vertex -0.3694 2.29274 -25.9017
    endloop
  endfacet
  facet normal 0 0 -1
    outer loop
      vertex 1.47559 2.29274 -25.9017
      vertex -0.446396 2.91475 -25.9017
      vertex 2.25058 2.91475 -25.9017
    endloop
  endfacet
  facet normal 0 0 -1
    outer loop
      vertex -0.762177 2.26341 -25.9017
      vertex -0.446396 2.91475 -25.9017
      vertex -0.3694 2.29274 -25.9017
    endloop
  endfacet
  facet normal 0 0 -1
    outer loop
      vertex -0.762177 2.26341 -25.9017
      vertex -1.04272 2.86641 -25.9017
      vertex -0.446396 2.91475 -25.9017
    endloop
  endfacet
  facet normal 0 0 -1
    outer loop
      vertex -1.08852 2.17542 -25.9017
      vertex -1.04272 2.86641 -25.9017
      vertex -0.762177 2.26341 -25.9017
    endloop
  endfacet
  facet normal 0 0 -1
    outer loop
      vertex -1.54106 2.72141 -25.9017
      vertex -1.08852 2.17542 -25.9017
      vertex -1.3484 2.02875 -25.9017
    endloop
  endfacet
  facet normal 0 0 -1
    outer loop
      vertex -1.94141 2.47974 -25.9017
      vertex -1.3484 2.02875 -25.9017
      vertex -1.53729 1.82608 -25.9017
    endloop
  endfacet
  facet normal 0 0 -1
    outer loop
      vertex -1.08852 2.17542 -25.9017
      vertex -1.54106 2.72141 -25.9017
      vertex -1.04272 2.86641 -25.9017
    endloop
  endfacet
  facet normal 0 0 -1
    outer loop
      vertex -2.23418 2.15186 -25.9017
      vertex -1.53729 1.82608 -25.9017
      vertex -1.65062 1.57007 -25.9017
    endloop
  endfacet
  facet normal 0 0 -1
    outer loop
      vertex -2.40984 1.74818 -25.9017
      vertex -1.65062 1.57007 -25.9017
      vertex -1.6884 1.26074 -25.9017
    endloop
  endfacet
  facet normal 0 0 -1
    outer loop
      vertex -1.3484 2.02875 -25.9017
      vertex -1.94141 2.47974 -25.9017
      vertex -1.54106 2.72141 -25.9017
    endloop
  endfacet
  facet normal -0 0 -1
    outer loop
      vertex -1.53906 0.670074 -25.9017
      vertex -2.30263 0.504303 -25.9017
      vertex -1.65106 0.939743 -25.9017
    endloop
  endfacet
  facet normal 0 0 -1
    outer loop
      vertex -2.42696 0.863968 -25.9017
      vertex -1.65106 0.939743 -25.9017
      vertex -2.30263 0.504303 -25.9017
    endloop
  endfacet
  facet normal 0 -0 -1
    outer loop
      vertex -2.40984 1.74818 -25.9017
      vertex -1.6884 1.26074 -25.9017
      vertex -2.4684 1.26874 -25.9017
    endloop
  endfacet
  facet normal -0 0 -1
    outer loop
      vertex -1.65106 0.939743 -25.9017
      vertex -2.42696 0.863968 -25.9017
      vertex -1.6884 1.26074 -25.9017
    endloop
  endfacet
  facet normal 0 0 -1
    outer loop
      vertex -1.65062 1.57007 -25.9017
      vertex -2.40984 1.74818 -25.9017
      vertex -2.23418 2.15186 -25.9017
    endloop
  endfacet
  facet normal -0 0 -1
    outer loop
      vertex -1.6884 1.26074 -25.9017
      vertex -2.42696 0.863968 -25.9017
      vertex -2.4684 1.26874 -25.9017
    endloop
  endfacet
  facet normal 0 0 -1
    outer loop
      vertex -1.53729 1.82608 -25.9017
      vertex -2.23418 2.15186 -25.9017
      vertex -1.94141 2.47974 -25.9017
    endloop
  endfacet
  facet normal 0 0 -1
    outer loop
      vertex -1.06841 -0.361237 -25.9017
      vertex -1.0974 0.291183 -25.9017
      vertex -0.780396 0.194855 -25.9017
    endloop
  endfacet
  facet normal 0 0 -1
    outer loop
      vertex -1.47362 -0.249359 -25.9017
      vertex -1.0974 0.291183 -25.9017
      vertex -1.06841 -0.361237 -25.9017
    endloop
  endfacet
  facet normal -0 0 -1
    outer loop
      vertex -1.0974 0.291183 -25.9017
      vertex -1.47362 -0.249359 -25.9017
      vertex -1.3524 0.451736 -25.9017
    endloop
  endfacet
  facet normal 0 0 -1
    outer loop
      vertex -1.81595 -0.0656891 -25.9017
      vertex -1.3524 0.451736 -25.9017
      vertex -1.47362 -0.249359 -25.9017
    endloop
  endfacet
  facet normal 0 0 -1
    outer loop
      vertex -2.0954 0.189743 -25.9017
      vertex -1.3524 0.451736 -25.9017
      vertex -1.81595 -0.0656891 -25.9017
    endloop
  endfacet
  facet normal 0 0 -1
    outer loop
      vertex -2.30263 0.504303 -25.9017
      vertex -1.53906 0.670074 -25.9017
      vertex -2.0954 0.189743 -25.9017
    endloop
  endfacet
  facet normal -0 0 -1
    outer loop
      vertex -1.3524 0.451736 -25.9017
      vertex -2.0954 0.189743 -25.9017
      vertex -1.53906 0.670074 -25.9017
    endloop
  endfacet
  facet normal 0 0 1
    outer loop
      vertex -1.0974 0.291183 -30.9017
      vertex -1.0684 -0.361237 -30.9017
      vertex -0.780395 0.194855 -30.9017
    endloop
  endfacet
  facet normal 0 0 1
    outer loop
      vertex -1.47362 -0.249359 -30.9017
      vertex -1.0974 0.291183 -30.9017
      vertex -1.3524 0.451736 -30.9017
    endloop
  endfacet
  facet normal 0 0 1
    outer loop
      vertex -1.0974 0.291183 -30.9017
      vertex -1.47362 -0.249359 -30.9017
      vertex -1.0684 -0.361237 -30.9017
    endloop
  endfacet
  facet normal 0 0 1
    outer loop
      vertex -2.0954 0.189743 -30.9017
      vertex -1.3524 0.451736 -30.9017
      vertex -1.53906 0.670074 -30.9017
    endloop
  endfacet
  facet normal 0 0 1
    outer loop
      vertex -2.30263 0.504303 -30.9017
      vertex -1.53906 0.670074 -30.9017
      vertex -1.65106 0.939743 -30.9017
    endloop
  endfacet
  facet normal 0 0 1
    outer loop
      vertex -1.3524 0.451736 -30.9017
      vertex -1.81595 -0.0656891 -30.9017
      vertex -1.47362 -0.249359 -30.9017
    endloop
  endfacet
  facet normal 0 0 1
    outer loop
      vertex -2.42696 0.863968 -30.9017
      vertex -1.65106 0.939743 -30.9017
      vertex -1.6884 1.26074 -30.9017
    endloop
  endfacet
  facet normal 0 0 1
    outer loop
      vertex 1.47559 0.162735 -30.9017
      vertex -0.312392 -0.450241 -30.9017
      vertex 1.47559 -0.450241 -30.9017
    endloop
  endfacet
  facet normal -0 0 1
    outer loop
      vertex -0.401397 0.162735 -30.9017
      vertex -0.312392 -0.450241 -30.9017
      vertex 1.47559 0.162735 -30.9017
    endloop
  endfacet
  facet normal 0 0 1
    outer loop
      vertex -0.780395 0.194855 -30.9017
      vertex -0.312392 -0.450241 -30.9017
      vertex -0.401397 0.162735 -30.9017
    endloop
  endfacet
  facet normal -0 0 1
    outer loop
      vertex -1.0684 -0.361237 -30.9017
      vertex -0.312392 -0.450241 -30.9017
      vertex -0.780395 0.194855 -30.9017
    endloop
  endfacet
  facet normal 0 0 1
    outer loop
      vertex -1.0684 -0.361237 -30.9017
      vertex -1.8024 -2.78125 -30.9017
      vertex -0.312392 -0.450241 -30.9017
    endloop
  endfacet
  facet normal 0 -0 1
    outer loop
      vertex -1.8024 -2.78125 -30.9017
      vertex -1.0684 -0.361237 -30.9017
      vertex -2.69639 -2.78125 -30.9017
    endloop
  endfacet
  facet normal 0 0 1
    outer loop
      vertex 1.47559 0.162735 -30.9017
      vertex 2.25058 2.91475 -30.9017
      vertex 1.47559 2.29274 -30.9017
    endloop
  endfacet
  facet normal -0 0 1
    outer loop
      vertex -0.446395 2.91475 -30.9017
      vertex 1.47559 2.29274 -30.9017
      vertex 2.25058 2.91475 -30.9017
    endloop
  endfacet
  facet normal 0 0 1
    outer loop
      vertex 1.47559 2.29274 -30.9017
      vertex -0.446395 2.91475 -30.9017
      vertex -0.369399 2.29274 -30.9017
    endloop
  endfacet
  facet normal 0 0 1
    outer loop
      vertex -0.446395 2.91475 -30.9017
      vertex -0.762176 2.26341 -30.9017
      vertex -0.369399 2.29274 -30.9017
    endloop
  endfacet
  facet normal -0 0 1
    outer loop
      vertex -1.04272 2.86641 -30.9017
      vertex -0.762176 2.26341 -30.9017
      vertex -0.446395 2.91475 -30.9017
    endloop
  endfacet
  facet normal 0 0 1
    outer loop
      vertex -1.04272 2.86641 -30.9017
      vertex -1.08852 2.17542 -30.9017
      vertex -0.762176 2.26341 -30.9017
    endloop
  endfacet
  facet normal -0 0 1
    outer loop
      vertex -1.54106 2.72141 -30.9017
      vertex -1.08852 2.17542 -30.9017
      vertex -1.04272 2.86641 -30.9017
    endloop
  endfacet
  facet normal 0 0 1
    outer loop
      vertex -1.08852 2.17542 -30.9017
      vertex -1.54106 2.72141 -30.9017
      vertex -1.3484 2.02875 -30.9017
    endloop
  endfacet
  facet normal -0 0 1
    outer loop
      vertex -1.94141 2.47974 -30.9017
      vertex -1.3484 2.02875 -30.9017
      vertex -1.54106 2.72141 -30.9017
    endloop
  endfacet
  facet normal 0 0 1
    outer loop
      vertex -1.3484 2.02875 -30.9017
      vertex -1.94141 2.47974 -30.9017
      vertex -1.53729 1.82608 -30.9017
    endloop
  endfacet
  facet normal -0 0 1
    outer loop
      vertex -2.23418 2.15186 -30.9017
      vertex -1.53729 1.82608 -30.9017
      vertex -1.94141 2.47974 -30.9017
    endloop
  endfacet
  facet normal 0 0 1
    outer loop
      vertex -1.53729 1.82608 -30.9017
      vertex -2.23418 2.15186 -30.9017
      vertex -1.65062 1.57007 -30.9017
    endloop
  endfacet
  facet normal -0 0 1
    outer loop
      vertex -2.40983 1.74818 -30.9017
      vertex -1.65062 1.57007 -30.9017
      vertex -2.23418 2.15186 -30.9017
    endloop
  endfacet
  facet normal 0 -0 1
    outer loop
      vertex -2.42696 0.863968 -30.9017
      vertex -1.6884 1.26074 -30.9017
      vertex -2.4684 1.26874 -30.9017
    endloop
  endfacet
  facet normal 0 0 1
    outer loop
      vertex -1.65062 1.57007 -30.9017
      vertex -2.40983 1.74818 -30.9017
      vertex -1.6884 1.26074 -30.9017
    endloop
  endfacet
  facet normal 0 0 1
    outer loop
      vertex -1.65106 0.939743 -30.9017
      vertex -2.42696 0.863968 -30.9017
      vertex -2.30263 0.504303 -30.9017
    endloop
  endfacet
  facet normal 0 0 1
    outer loop
      vertex -1.6884 1.26074 -30.9017
      vertex -2.40983 1.74818 -30.9017
      vertex -2.4684 1.26874 -30.9017
    endloop
  endfacet
  facet normal 0 0 1
    outer loop
      vertex -1.3524 0.451736 -30.9017
      vertex -2.0954 0.189743 -30.9017
      vertex -1.81595 -0.0656891 -30.9017
    endloop
  endfacet
  facet normal 0 0 1
    outer loop
      vertex -1.53906 0.670074 -30.9017
      vertex -2.30263 0.504303 -30.9017
      vertex -2.0954 0.189743 -30.9017
    endloop
  endfacet
  facet normal 0 0 1
    outer loop
      vertex 2.25058 2.91475 -30.9017
      vertex 1.47559 0.162735 -30.9017
      vertex 2.25058 -2.78125 -30.9017
    endloop
  endfacet
  facet normal -0 0 1
    outer loop
      vertex 1.47559 -0.450241 -30.9017
      vertex 2.25058 -2.78125 -30.9017
      vertex 1.47559 0.162735 -30.9017
    endloop
  endfacet
  facet normal 0 0 1
    outer loop
      vertex 2.25058 -2.78125 -30.9017
      vertex 1.47559 -0.450241 -30.9017
      vertex 1.47559 -2.78125 -30.9017
    endloop
  endfacet
  facet normal 0 1 -0
    outer loop
      vertex 1.47559 -0.450241 -30.9017
      vertex -0.312393 -0.450241 -25.9017
      vertex 1.47559 -0.450241 -25.9017
    endloop
  endfacet
  facet normal 0 1 0
    outer loop
      vertex -0.312393 -0.450241 -25.9017
      vertex 1.47559 -0.450241 -30.9017
      vertex -0.312392 -0.450241 -30.9017
    endloop
  endfacet
  facet normal -0.842573 0.538582 -1.60708e-07
    outer loop
      vertex -1.8024 -2.78125 -30.9017
      vertex -0.312393 -0.450241 -25.9017
      vertex -0.312392 -0.450241 -30.9017
    endloop
  endfacet
  facet normal -0.842573 0.538582 -1.60708e-07
    outer loop
      vertex -0.312393 -0.450241 -25.9017
      vertex -1.8024 -2.78125 -30.9017
      vertex -1.8024 -2.78125 -25.9017
    endloop
  endfacet
  facet normal 0 1 0
    outer loop
      vertex -1.8024 -2.78125 -30.9017
      vertex -2.6964 -2.78125 -25.9017
      vertex -1.8024 -2.78125 -25.9017
    endloop
  endfacet
  facet normal 0 1 0
    outer loop
      vertex -2.6964 -2.78125 -25.9017
      vertex -1.8024 -2.78125 -30.9017
      vertex -2.69639 -2.78125 -30.9017
    endloop
  endfacet
  facet normal 0.829725 -0.558172 1.58257e-07
    outer loop
      vertex -2.6964 -2.78125 -25.9017
      vertex -1.0684 -0.361237 -30.9017
      vertex -1.06841 -0.361237 -25.9017
    endloop
  endfacet
  facet normal 0.829725 -0.558172 1.58257e-07
    outer loop
      vertex -1.0684 -0.361237 -30.9017
      vertex -2.6964 -2.78125 -25.9017
      vertex -2.69639 -2.78125 -30.9017
    endloop
  endfacet
  facet normal 0.266138 0.963935 5.07619e-08
    outer loop
      vertex -1.0684 -0.361237 -30.9017
      vertex -1.47362 -0.249359 -25.9017
      vertex -1.06841 -0.361237 -25.9017
    endloop
  endfacet
  facet normal 0.266138 0.963935 5.07619e-08
    outer loop
      vertex -1.47362 -0.249359 -25.9017
      vertex -1.0684 -0.361237 -30.9017
      vertex -1.47362 -0.249359 -30.9017
    endloop
  endfacet
  facet normal 0.472778 0.881181 9.01753e-08
    outer loop
      vertex -1.47362 -0.249359 -30.9017
      vertex -1.81595 -0.0656891 -25.9017
      vertex -1.47362 -0.249359 -25.9017
    endloop
  endfacet
  facet normal 0.472778 0.881181 9.01753e-08
    outer loop
      vertex -1.81595 -0.0656891 -25.9017
      vertex -1.47362 -0.249359 -30.9017
      vertex -1.81595 -0.0656891 -30.9017
    endloop
  endfacet
  facet normal 0.674676 0.738114 1.28684e-07
    outer loop
      vertex -1.81595 -0.0656891 -30.9017
      vertex -2.0954 0.189743 -25.9017
      vertex -1.81595 -0.0656891 -25.9017
    endloop
  endfacet
  facet normal 0.674676 0.738114 1.28684e-07
    outer loop
      vertex -2.0954 0.189743 -25.9017
      vertex -1.81595 -0.0656891 -30.9017
      vertex -2.0954 0.189743 -30.9017
    endloop
  endfacet
  facet normal 0.835073 0.550139 1.59278e-07
    outer loop
      vertex -2.0954 0.189743 -25.9017
      vertex -2.30263 0.504303 -30.9017
      vertex -2.30263 0.504303 -25.9017
    endloop
  endfacet
  facet normal 0.835073 0.550139 1.59278e-07
    outer loop
      vertex -2.30263 0.504303 -30.9017
      vertex -2.0954 0.189743 -25.9017
      vertex -2.0954 0.189743 -30.9017
    endloop
  endfacet
  facet normal 0.945125 0.32671 1.80268e-07
    outer loop
      vertex -2.30263 0.504303 -25.9017
      vertex -2.42696 0.863968 -30.9017
      vertex -2.42696 0.863968 -25.9017
    endloop
  endfacet
  facet normal 0.945125 0.32671 1.80268e-07
    outer loop
      vertex -2.42696 0.863968 -30.9017
      vertex -2.30263 0.504303 -25.9017
      vertex -2.30263 0.504303 -30.9017
    endloop
  endfacet
  facet normal 0.994799 0.101854 1.89743e-07
    outer loop
      vertex -2.42696 0.863968 -25.9017
      vertex -2.4684 1.26874 -30.9017
      vertex -2.4684 1.26874 -25.9017
    endloop
  endfacet
  facet normal 0.994799 0.101854 1.89743e-07
    outer loop
      vertex -2.4684 1.26874 -30.9017
      vertex -2.42696 0.863968 -25.9017
      vertex -2.42696 0.863968 -30.9017
    endloop
  endfacet
  facet normal 0.992622 -0.121246 1.89328e-07
    outer loop
      vertex -2.4684 1.26874 -25.9017
      vertex -2.40983 1.74818 -30.9017
      vertex -2.40984 1.74818 -25.9017
    endloop
  endfacet
  facet normal 0.992622 -0.121246 1.89328e-07
    outer loop
      vertex -2.40983 1.74818 -30.9017
      vertex -2.4684 1.26874 -25.9017
      vertex -2.4684 1.26874 -30.9017
    endloop
  endfacet
  facet normal 0.916945 -0.399013 1.74893e-07
    outer loop
      vertex -2.40984 1.74818 -25.9017
      vertex -2.23418 2.15186 -30.9017
      vertex -2.23418 2.15186 -25.9017
    endloop
  endfacet
  facet normal 0.916945 -0.399013 1.74893e-07
    outer loop
      vertex -2.23418 2.15186 -30.9017
      vertex -2.40984 1.74818 -25.9017
      vertex -2.40983 1.74818 -30.9017
    endloop
  endfacet
  facet normal 0.745915 -0.666041 1.42272e-07
    outer loop
      vertex -2.23418 2.15186 -25.9017
      vertex -1.94141 2.47974 -30.9017
      vertex -1.94141 2.47974 -25.9017
    endloop
  endfacet
  facet normal 0.745915 -0.666041 1.42272e-07
    outer loop
      vertex -1.94141 2.47974 -30.9017
      vertex -2.23418 2.15186 -25.9017
      vertex -2.23418 2.15186 -30.9017
    endloop
  endfacet
  facet normal 0.516792 -0.856111 9.85703e-08
    outer loop
      vertex -1.94141 2.47974 -30.9017
      vertex -1.54106 2.72141 -25.9017
      vertex -1.94141 2.47974 -25.9017
    endloop
  endfacet
  facet normal 0.516792 -0.856111 9.85703e-08
    outer loop
      vertex -1.54106 2.72141 -25.9017
      vertex -1.94141 2.47974 -30.9017
      vertex -1.54106 2.72141 -30.9017
    endloop
  endfacet
  facet normal 0.279389 -0.960178 5.32893e-08
    outer loop
      vertex -1.54106 2.72141 -30.9017
      vertex -1.04272 2.86641 -25.9017
      vertex -1.54106 2.72141 -25.9017
    endloop
  endfacet
  facet normal 0.279389 -0.960178 5.32893e-08
    outer loop
      vertex -1.04272 2.86641 -25.9017
      vertex -1.54106 2.72141 -30.9017
      vertex -1.04272 2.86641 -30.9017
    endloop
  endfacet
  facet normal 0.0807974 -0.996731 1.54109e-08
    outer loop
      vertex -1.04272 2.86641 -30.9017
      vertex -0.446396 2.91475 -25.9017
      vertex -1.04272 2.86641 -25.9017
    endloop
  endfacet
  facet normal 0.0807974 -0.996731 1.54109e-08
    outer loop
      vertex -0.446396 2.91475 -25.9017
      vertex -1.04272 2.86641 -30.9017
      vertex -0.446395 2.91475 -30.9017
    endloop
  endfacet
  facet normal 0 -1 0
    outer loop
      vertex -0.446395 2.91475 -30.9017
      vertex 2.25058 2.91475 -25.9017
      vertex -0.446396 2.91475 -25.9017
    endloop
  endfacet
  facet normal 0 -1 -0
    outer loop
      vertex 2.25058 2.91475 -25.9017
      vertex -0.446395 2.91475 -30.9017
      vertex 2.25058 2.91475 -30.9017
    endloop
  endfacet
  facet normal -1 0 0
    outer loop
      vertex 2.25058 -2.78125 -30.9017
      vertex 2.25058 2.91475 -25.9017
      vertex 2.25058 2.91475 -30.9017
    endloop
  endfacet
  facet normal -1 -0 0
    outer loop
      vertex 2.25058 2.91475 -25.9017
      vertex 2.25058 -2.78125 -30.9017
      vertex 2.25058 -2.78125 -25.9017
    endloop
  endfacet
  facet normal 0 1 -0
    outer loop
      vertex 2.25058 -2.78125 -30.9017
      vertex 1.47559 -2.78125 -25.9017
      vertex 2.25058 -2.78125 -25.9017
    endloop
  endfacet
  facet normal 0 1 0
    outer loop
      vertex 1.47559 -2.78125 -25.9017
      vertex 2.25058 -2.78125 -30.9017
      vertex 1.47559 -2.78125 -30.9017
    endloop
  endfacet
  facet normal 1 -0 0
    outer loop
      vertex 1.47559 -2.78125 -25.9017
      vertex 1.47559 -0.450241 -30.9017
      vertex 1.47559 -0.450241 -25.9017
    endloop
  endfacet
  facet normal 1 0 0
    outer loop
      vertex 1.47559 -0.450241 -30.9017
      vertex 1.47559 -2.78125 -25.9017
      vertex 1.47559 -2.78125 -30.9017
    endloop
  endfacet
  facet normal 1 -0 0
    outer loop
      vertex 1.47559 0.162735 -25.9017
      vertex 1.47559 2.29274 -30.9017
      vertex 1.47559 2.29274 -25.9017
    endloop
  endfacet
  facet normal 1 0 0
    outer loop
      vertex 1.47559 2.29274 -30.9017
      vertex 1.47559 0.162735 -25.9017
      vertex 1.47559 0.162735 -30.9017
    endloop
  endfacet
  facet normal 0 1 -0
    outer loop
      vertex 1.47559 2.29274 -30.9017
      vertex -0.3694 2.29274 -25.9017
      vertex 1.47559 2.29274 -25.9017
    endloop
  endfacet
  facet normal 0 1 0
    outer loop
      vertex -0.3694 2.29274 -25.9017
      vertex 1.47559 2.29274 -30.9017
      vertex -0.369399 2.29274 -30.9017
    endloop
  endfacet
  facet normal -0.0744596 0.997224 -1.4202e-08
    outer loop
      vertex -0.369399 2.29274 -30.9017
      vertex -0.762177 2.26341 -25.9017
      vertex -0.3694 2.29274 -25.9017
    endloop
  endfacet
  facet normal -0.0744596 0.997224 -1.4202e-08
    outer loop
      vertex -0.762177 2.26341 -25.9017
      vertex -0.369399 2.29274 -30.9017
      vertex -0.762176 2.26341 -30.9017
    endloop
  endfacet
  facet normal -0.260351 0.965514 -4.9658e-08
    outer loop
      vertex -0.762176 2.26341 -30.9017
      vertex -1.08852 2.17542 -25.9017
      vertex -0.762177 2.26341 -25.9017
    endloop
  endfacet
  facet normal -0.260351 0.965514 -4.9658e-08
    outer loop
      vertex -1.08852 2.17542 -25.9017
      vertex -0.762176 2.26341 -30.9017
      vertex -1.08852 2.17542 -30.9017
    endloop
  endfacet
  facet normal -0.491484 0.870886 -9.37432e-08
    outer loop
      vertex -1.08852 2.17542 -30.9017
      vertex -1.3484 2.02875 -25.9017
      vertex -1.08852 2.17542 -25.9017
    endloop
  endfacet
  facet normal -0.491484 0.870886 -9.37432e-08
    outer loop
      vertex -1.3484 2.02875 -25.9017
      vertex -1.08852 2.17542 -30.9017
      vertex -1.3484 2.02875 -30.9017
    endloop
  endfacet
  facet normal -0.731537 0.681802 -1.3953e-07
    outer loop
      vertex -1.53729 1.82608 -30.9017
      vertex -1.3484 2.02875 -25.9017
      vertex -1.3484 2.02875 -30.9017
    endloop
  endfacet
  facet normal -0.731537 0.681802 -1.3953e-07
    outer loop
      vertex -1.3484 2.02875 -25.9017
      vertex -1.53729 1.82608 -30.9017
      vertex -1.53729 1.82608 -25.9017
    endloop
  endfacet
  facet normal -0.914415 0.404778 -1.74411e-07
    outer loop
      vertex -1.65062 1.57007 -30.9017
      vertex -1.53729 1.82608 -25.9017
      vertex -1.53729 1.82608 -30.9017
    endloop
  endfacet
  facet normal -0.914415 0.404778 -1.74411e-07
    outer loop
      vertex -1.53729 1.82608 -25.9017
      vertex -1.65062 1.57007 -30.9017
      vertex -1.65062 1.57007 -25.9017
    endloop
  endfacet
  facet normal -0.992623 0.121238 -1.89328e-07
    outer loop
      vertex -1.6884 1.26074 -30.9017
      vertex -1.65062 1.57007 -25.9017
      vertex -1.65062 1.57007 -30.9017
    endloop
  endfacet
  facet normal -0.992623 0.121238 -1.89328e-07
    outer loop
      vertex -1.65062 1.57007 -25.9017
      vertex -1.6884 1.26074 -30.9017
      vertex -1.6884 1.26074 -25.9017
    endloop
  endfacet
  facet normal -0.993303 -0.11554 -1.89457e-07
    outer loop
      vertex -1.65106 0.939743 -30.9017
      vertex -1.6884 1.26074 -25.9017
      vertex -1.6884 1.26074 -30.9017
    endloop
  endfacet
  facet normal -0.993303 -0.11554 -1.89457e-07
    outer loop
      vertex -1.6884 1.26074 -25.9017
      vertex -1.65106 0.939743 -30.9017
      vertex -1.65106 0.939743 -25.9017
    endloop
  endfacet
  facet normal -0.923517 -0.383558 -1.76147e-07
    outer loop
      vertex -1.53906 0.670074 -30.9017
      vertex -1.65106 0.939743 -25.9017
      vertex -1.65106 0.939743 -30.9017
    endloop
  endfacet
  facet normal -0.923517 -0.383558 -1.76147e-07
    outer loop
      vertex -1.65106 0.939743 -25.9017
      vertex -1.53906 0.670074 -30.9017
      vertex -1.53906 0.670074 -25.9017
    endloop
  endfacet
  facet normal -0.760092 -0.649815 -1.44976e-07
    outer loop
      vertex -1.3524 0.451736 -30.9017
      vertex -1.53906 0.670074 -25.9017
      vertex -1.53906 0.670074 -30.9017
    endloop
  endfacet
  facet normal -0.760092 -0.649815 -1.44976e-07
    outer loop
      vertex -1.53906 0.670074 -25.9017
      vertex -1.3524 0.451736 -30.9017
      vertex -1.3524 0.451736 -25.9017
    endloop
  endfacet
  facet normal -0.5328 -0.846241 -1.01624e-07
    outer loop
      vertex -1.3524 0.451736 -30.9017
      vertex -1.0974 0.291183 -25.9017
      vertex -1.3524 0.451736 -25.9017
    endloop
  endfacet
  facet normal -0.5328 -0.846241 -1.01624e-07
    outer loop
      vertex -1.0974 0.291183 -25.9017
      vertex -1.3524 0.451736 -30.9017
      vertex -1.0974 0.291183 -30.9017
    endloop
  endfacet
  facet normal -0.290747 -0.9568 -5.54557e-08
    outer loop
      vertex -1.0974 0.291183 -30.9017
      vertex -0.780396 0.194855 -25.9017
      vertex -1.0974 0.291183 -25.9017
    endloop
  endfacet
  facet normal -0.290747 -0.9568 -5.54557e-08
    outer loop
      vertex -0.780396 0.194855 -25.9017
      vertex -1.0974 0.291183 -30.9017
      vertex -0.780395 0.194855 -30.9017
    endloop
  endfacet
  facet normal -0.0844465 -0.996428 -1.61069e-08
    outer loop
      vertex -0.780395 0.194855 -30.9017
      vertex -0.401398 0.162735 -25.9017
      vertex -0.780396 0.194855 -25.9017
    endloop
  endfacet
  facet normal -0.0844465 -0.996428 -1.61069e-08
    outer loop
      vertex -0.401398 0.162735 -25.9017
      vertex -0.780395 0.194855 -30.9017
      vertex -0.401397 0.162735 -30.9017
    endloop
  endfacet
  facet normal 0 -1 0
    outer loop
      vertex -0.401397 0.162735 -30.9017
      vertex 1.47559 0.162735 -25.9017
      vertex -0.401398 0.162735 -25.9017
    endloop
  endfacet
  facet normal 0 -1 -0
    outer loop
      vertex 1.47559 0.162735 -25.9017
      vertex -0.401397 0.162735 -30.9017
      vertex 1.47559 0.162735 -30.9017
    endloop
  endfacet
  facet normal -2.59562e-16 4.11869e-17 1
    outer loop
      vertex -4.87312 3.77575 -1.42039e-15
      vertex 2.91667 5.05181 5.48986e-16
      vertex -4.059 9.07922 -1.4275e-15
    endloop
  endfacet
  facet normal -2.59562e-16 4.11869e-17 1
    outer loop
      vertex -4.87312 3.77575 -1.42039e-15
      vertex -4.059 9.07922 -1.4275e-15
      vertex -4.53307 8.86814 -1.54186e-15
    endloop
  endfacet
  facet normal -2.59562e-16 4.11869e-17 1
    outer loop
      vertex 2.91667 5.05181 5.48986e-16
      vertex -4.87312 3.77575 -1.42039e-15
      vertex 0.416666 0.721687 7.84264e-17
    endloop
  endfacet
  facet normal -2.59561e-16 4.11857e-17 1
    outer loop
      vertex -5.4135 8.35982 -1.74945e-15
      vertex -4.53307 8.86814 -1.54186e-15
      vertex -5 8.66025 -1.6545e-15
    endloop
  endfacet
  facet normal -2.59562e-16 4.11869e-17 1
    outer loop
      vertex -4.53307 8.86814 -1.54186e-15
      vertex -5.4135 8.35982 -1.74945e-15
      vertex -4.87312 3.77575 -1.42039e-15
    endloop
  endfacet
  facet normal -2.59562e-16 4.11869e-17 1
    outer loop
      vertex -4.87312 3.77575 -1.42039e-15
      vertex -5.4135 8.35982 -1.74945e-15
      vertex -6.06347 7.8876 -1.89871e-15
    endloop
  endfacet
  facet normal 0.866025 -0.5 0
    outer loop
      vertex 0.416666 0.721687 7.84264e-17
      vertex 2.91667 5.05181 -10
      vertex 2.91667 5.05181 5.48986e-16
    endloop
  endfacet
  facet normal 0.866025 -0.5 0
    outer loop
      vertex 2.91667 5.05181 -10
      vertex 0.416666 0.721687 7.84264e-17
      vertex 0.416666 0.721687 -10
    endloop
  endfacet
  facet normal -0.5 -0.866025 2.97074e-08
    outer loop
      vertex -6.61719 4.78268 -3.2303
      vertex -8.09823 5.63777 -5.97345
      vertex -6.08873 4.47758 -3.80711
    endloop
  endfacet
  facet normal -0.5 -0.866025 -6.59631e-08
    outer loop
      vertex -4.18158 3.37648 -2.36284
      vertex -4.87312 3.77575 -1.42039e-15
      vertex -5.41939 4.09113 -1.01178
    endloop
  endfacet
  facet normal -0.5 -0.866025 -1.93625e-08
    outer loop
      vertex -4.87312 3.77575 -1.42039e-15
      vertex -4.18158 3.37648 -2.36284
      vertex 0.416666 0.721687 7.84264e-17
    endloop
  endfacet
  facet normal -0.5 -0.866025 -6.14013e-08
    outer loop
      vertex 0.416666 0.721687 -10
      vertex -4.18158 3.37648 -2.36284
      vertex -6.08873 4.47758 -3.80711
    endloop
  endfacet
  facet normal -0.5 -0.866025 8.05919e-08
    outer loop
      vertex -5.7735 4.29558 -10
      vertex -6.08873 4.47758 -3.80711
      vertex -8.09823 5.63777 -5.97345
    endloop
  endfacet
  facet normal -0.5 -0.866025 8.08999e-08
    outer loop
      vertex -6.08873 4.47758 -3.80711
      vertex -5.7735 4.29558 -10
      vertex 0.416666 0.721687 -10
    endloop
  endfacet
  facet normal -0.5 -0.866025 0
    outer loop
      vertex -4.18158 3.37648 -2.36284
      vertex 0.416666 0.721687 -10
      vertex 0.416666 0.721687 7.84264e-17
    endloop
  endfacet
  facet normal 0.5 0.866025 5.35595e-08
    outer loop
      vertex 2.91667 5.05181 5.48986e-16
      vertex 0.159878 6.64345 -2.82669
      vertex -4.059 9.07922 -1.4275e-15
    endloop
  endfacet
  facet normal 0.5 0.866025 -1.85204e-08
    outer loop
      vertex 2.91667 5.05181 5.48986e-16
      vertex 2.47881 5.30461 -5.35781
      vertex 0.159878 6.64345 -2.82669
    endloop
  endfacet
  facet normal 0.5 0.866025 3.03572e-08
    outer loop
      vertex 2.47881 5.30461 -5.35781
      vertex 2.91667 5.05181 -10
      vertex 0.571656 6.40571 -6.80208
    endloop
  endfacet
  facet normal 0.5 0.866025 -0
    outer loop
      vertex 2.91667 5.05181 -10
      vertex 2.47881 5.30461 -5.35781
      vertex 2.91667 5.05181 5.48986e-16
    endloop
  endfacet
  facet normal 0.5 0.866025 8.04366e-09
    outer loop
      vertex -1.74728 7.74454 -4.27096
      vertex -4.059 9.07922 -1.4275e-15
      vertex 0.159878 6.64345 -2.82669
    endloop
  endfacet
  facet normal 0.5 0.866025 -9.36674e-08
    outer loop
      vertex -4.059 9.07922 -10
      vertex 0.571656 6.40571 -6.80208
      vertex 2.91667 5.05181 -10
    endloop
  endfacet
  facet normal 0.5 0.866025 0
    outer loop
      vertex -1.74728 7.74454 -4.27096
      vertex -4.059 9.07922 -10
      vertex -4.059 9.07922 -1.4275e-15
    endloop
  endfacet
  facet normal 0.5 0.866025 1.08128e-08
    outer loop
      vertex 0.571656 6.40571 -6.80208
      vertex -4.059 9.07922 -10
      vertex -1.74728 7.74454 -4.27096
    endloop
  endfacet
  facet normal -0.866025 -3.82508e-08 -0.5
    outer loop
      vertex -4.32886 -4.9956 -12.5022
      vertex -5.7735 -0.307306 -10
      vertex -3.68791 1.05034 -13.6124
    endloop
  endfacet
  facet normal -0.866025 -0 -0.5
    outer loop
      vertex -5.7735 -0.307306 -10
      vertex -4.32886 -4.9956 -12.5022
      vertex -5.7735 -4.99707 -10
    endloop
  endfacet
  facet normal -0.334382 -0.74348 0.57916
    outer loop
      vertex -5.83539 8.05331 -10.2026
      vertex -5.72338 8.09315 -10.0868
      vertex -5.78054 8.09315 -10.1198
    endloop
  endfacet
  facet normal -0.334376 -0.743485 0.579157
    outer loop
      vertex -5.83539 8.05331 -10.2026
      vertex -4.94623 6.69508 -11.4329
      vertex -5.72338 8.09315 -10.0868
    endloop
  endfacet
  facet normal -0.334376 -0.743485 0.579157
    outer loop
      vertex -6.69131 7.43145 -11.4951
      vertex -4.94623 6.69508 -11.4329
      vertex -5.83539 8.05331 -10.2026
    endloop
  endfacet
  facet normal -0.334376 -0.743485 0.579157
    outer loop
      vertex -4.94623 6.69508 -11.4329
      vertex -6.69131 7.43145 -11.4951
      vertex -7.35433 6.69508 -12.8232
    endloop
  endfacet
  facet normal -0.866025 0 -0.5
    outer loop
      vertex -4.32886 -4.9956 -12.5022
      vertex -5.7735 -7.59979 -10
      vertex -5.7735 -4.99707 -10
    endloop
  endfacet
  facet normal -0.866025 -7.67182e-08 -0.5
    outer loop
      vertex -5.7735 4.29558 -10
      vertex -6.97266 7.11897 -7.923
      vertex -4.94623 6.69508 -11.4329
    endloop
  endfacet
  facet normal -0.866025 -7.33862e-08 -0.5
    outer loop
      vertex -8.09823 5.63777 -5.97345
      vertex -6.97266 7.11897 -7.923
      vertex -5.7735 4.29558 -10
    endloop
  endfacet
  facet normal -0.866025 6.18159e-08 -0.5
    outer loop
      vertex -6.97266 7.11897 -7.923
      vertex -8.09823 5.63777 -5.97345
      vertex -8.09017 5.87785 -5.98741
    endloop
  endfacet
  facet normal -0.866025 -4.7475e-08 -0.500001
    outer loop
      vertex -8.09017 5.87785 -5.98741
      vertex -8.09823 5.63777 -5.97345
      vertex -8.12694 5.81417 -5.92373
    endloop
  endfacet
  facet normal -0.866025 -1.12851e-07 -0.5
    outer loop
      vertex -3.68791 1.05034 -13.6124
      vertex -5.7735 4.29558 -10
      vertex -4.94623 6.69508 -11.4329
    endloop
  endfacet
  facet normal -0.866025 -2.96949e-07 -0.5
    outer loop
      vertex -5.7735 4.29558 -10
      vertex -3.68791 1.05034 -13.6124
      vertex -5.7735 2.90493 -10
    endloop
  endfacet
  facet normal -0.866026 -6.83528e-07 -0.5
    outer loop
      vertex -6.01238 7.92472 -9.58626
      vertex -4.94623 6.69508 -11.4329
      vertex -6.40358 7.64049 -8.90867
    endloop
  endfacet
  facet normal -0.866025 -5.83621e-08 -0.5
    outer loop
      vertex -3.90576 3.095 -13.235
      vertex -3.68791 1.05034 -13.6124
      vertex -4.94623 6.69508 -11.4329
    endloop
  endfacet
  facet normal -0.866025 8.3393e-07 -0.5
    outer loop
      vertex -4.94623 6.69508 -11.4329
      vertex -6.69131 7.43145 -8.41032
      vertex -6.40358 7.64049 -8.90867
    endloop
  endfacet
  facet normal -0.866025 7.01995e-07 -0.5
    outer loop
      vertex -6.69131 7.43145 -8.41032
      vertex -4.94623 6.69508 -11.4329
      vertex -6.97266 7.11897 -7.923
    endloop
  endfacet
  facet normal -0.489127 0.207415 0.847192
    outer loop
      vertex -3.68738 -1.04023 -13.6133
      vertex -9.45453 -3.08534 -16.4422
      vertex -3.90419 -3.08534 -13.2377
    endloop
  endfacet
  facet normal -0.489126 0.207414 0.847192
    outer loop
      vertex -3.68738 -1.04023 -13.6133
      vertex -9.78148 -2.07912 -16.8774
      vertex -9.45453 -3.08534 -16.4422
    endloop
  endfacet
  facet normal -0.489126 0.207415 0.847192
    outer loop
      vertex -3.68738 -1.04023 -13.6133
      vertex -9.85526 -1.37713 -17.0918
      vertex -9.78148 -2.07912 -16.8774
    endloop
  endfacet
  facet normal -0.489126 0.207416 0.847192
    outer loop
      vertex -9.85526 -1.37713 -17.0918
      vertex -3.68738 -1.04023 -13.6133
      vertex -9.89067 -1.04023 -17.1947
    endloop
  endfacet
  facet normal -0.866025 0 -0.5
    outer loop
      vertex -3.68791 1.05034 -13.6124
      vertex -5.7735 -0.307306 -10
      vertex -5.7735 2.90493 -10
    endloop
  endfacet
  facet normal -0.866025 6.37056e-08 -0.5
    outer loop
      vertex -4.3314 5.0044 -12.4978
      vertex -3.90576 3.095 -13.235
      vertex -4.94623 6.69508 -11.4329
    endloop
  endfacet
  facet normal -0.404359 -0.588196 0.700371
    outer loop
      vertex -7.35433 6.69508 -12.8232
      vertex -4.3314 5.0044 -12.4978
      vertex -4.94623 6.69508 -11.4329
    endloop
  endfacet
  facet normal -0.404359 -0.588196 0.700371
    outer loop
      vertex -8.09017 5.87785 -13.9344
      vertex -4.3314 5.0044 -12.4978
      vertex -7.35433 6.69508 -12.8232
    endloop
  endfacet
  facet normal -0.404359 -0.588196 0.700371
    outer loop
      vertex -4.3314 5.0044 -12.4978
      vertex -8.09017 5.87785 -13.9344
      vertex -8.59446 5.0044 -14.9591
    endloop
  endfacet
  facet normal -0.866025 7.28853e-07 -0.5
    outer loop
      vertex -5.86642 8.03076 -9.83907
      vertex -4.94623 6.69508 -11.4329
      vertex -6.01238 7.92472 -9.58626
    endloop
  endfacet
  facet normal -0.866026 -2.69288e-06 -0.5
    outer loop
      vertex -5.72338 8.09315 -10.0868
      vertex -5.82343 8.06199 -9.91352
      vertex -5.74548 8.11863 -10.0485
    endloop
  endfacet
  facet normal -0.866026 -2.54711e-06 -0.499999
    outer loop
      vertex -5.72338 8.09315 -10.0868
      vertex -5.86642 8.03076 -9.83907
      vertex -5.82343 8.06199 -9.91352
    endloop
  endfacet
  facet normal -0.866026 -1.02802e-06 -0.499999
    outer loop
      vertex -5.86642 8.03076 -9.83907
      vertex -5.72338 8.09315 -10.0868
      vertex -4.94623 6.69508 -11.4329
    endloop
  endfacet
  facet normal -0.866026 5.62569e-08 -0.5
    outer loop
      vertex -3.68738 -1.04023 -13.6133
      vertex -4.32886 -4.9956 -12.5022
      vertex -3.68791 1.05034 -13.6124
    endloop
  endfacet
  facet normal -0.489021 -0.208408 0.847009
    outer loop
      vertex -9.45139 3.095 -16.4368
      vertex -3.68791 1.05034 -13.6124
      vertex -3.90576 3.095 -13.235
    endloop
  endfacet
  facet normal -0.489021 -0.208408 0.847009
    outer loop
      vertex -9.78148 2.07912 -16.8773
      vertex -3.68791 1.05034 -13.6124
      vertex -9.45139 3.095 -16.4368
    endloop
  endfacet
  facet normal -0.489021 -0.208408 0.847009
    outer loop
      vertex -9.85525 1.37717 -17.0926
      vertex -3.68791 1.05034 -13.6124
      vertex -9.78148 2.07912 -16.8773
    endloop
  endfacet
  facet normal -0.489021 -0.208408 0.847009
    outer loop
      vertex -3.68791 1.05034 -13.6124
      vertex -9.85525 1.37717 -17.0926
      vertex -9.8896 1.05034 -17.1929
    endloop
  endfacet
  facet normal -0.456669 -0.407201 0.790975
    outer loop
      vertex -8.59446 5.0044 -14.9591
      vertex -3.90576 3.095 -13.235
      vertex -4.3314 5.0044 -12.4978
    endloop
  endfacet
  facet normal -0.456669 -0.407201 0.790974
    outer loop
      vertex -9.13545 4.06737 -15.7538
      vertex -3.90576 3.095 -13.235
      vertex -8.59446 5.0044 -14.9591
    endloop
  endfacet
  facet normal -0.456669 -0.407201 0.790974
    outer loop
      vertex -3.90576 3.095 -13.235
      vertex -9.13545 4.06737 -15.7538
      vertex -9.45139 3.095 -16.4368
    endloop
  endfacet
  facet normal -0.866026 7.27659e-07 -0.499999
    outer loop
      vertex -4.94283 -6.68753 -11.4388
      vertex -5.7735 -7.59979 -10
      vertex -4.32886 -4.9956 -12.5022
    endloop
  endfacet
  facet normal -0.866026 -0 -0.5
    outer loop
      vertex -5.7735 -7.59979 -10
      vertex -4.94283 -6.68753 -11.4388
      vertex -5.7735 -7.89586 -10
    endloop
  endfacet
  facet normal -0.249777 -0.866285 0.432623
    outer loop
      vertex -5.78054 8.09315 -10.1198
      vertex -5.72338 8.09315 -10.0868
      vertex -5.74548 8.11863 -10.0485
    endloop
  endfacet
  facet normal -0.456876 0.406273 0.791332
    outer loop
      vertex -3.90419 -3.08534 -13.2377
      vertex -8.59954 -4.9956 -14.9679
      vertex -4.32886 -4.9956 -12.5022
    endloop
  endfacet
  facet normal -0.456876 0.406272 0.791332
    outer loop
      vertex -3.90419 -3.08534 -13.2377
      vertex -9.13545 -4.06737 -15.7538
      vertex -8.59954 -4.9956 -14.9679
    endloop
  endfacet
  facet normal -0.456876 0.406273 0.791332
    outer loop
      vertex -9.13545 -4.06737 -15.7538
      vertex -3.90419 -3.08534 -13.2377
      vertex -9.45453 -3.08534 -16.4422
    endloop
  endfacet
  facet normal -0.5 -0.000508281 0.866025
    outer loop
      vertex -9.96929 0.292157 -17.2394
      vertex -3.68738 -1.04023 -13.6133
      vertex -3.68791 1.05034 -13.6124
    endloop
  endfacet
  facet normal -0.5 -0.000508071 0.866025
    outer loop
      vertex -3.68738 -1.04023 -13.6133
      vertex -9.96929 0.292157 -17.2394
      vertex -9.89067 -1.04023 -17.1947
    endloop
  endfacet
  facet normal -0.50001 -0.00050883 0.86602
    outer loop
      vertex -9.89067 -1.04023 -17.1947
      vertex -9.96929 0.292157 -17.2394
      vertex -10 3.28073e-16 -17.2573
    endloop
  endfacet
  facet normal -0.334755 0.742805 0.579811
    outer loop
      vertex -5.71927 -8.08718 -10.0939
      vertex -5.83546 -8.05325 -10.2045
      vertex -5.78876 -8.08718 -10.134
    endloop
  endfacet
  facet normal -0.334754 0.742805 0.579811
    outer loop
      vertex -4.94283 -6.68753 -11.4388
      vertex -5.83546 -8.05325 -10.2045
      vertex -5.71927 -8.08718 -10.0939
    endloop
  endfacet
  facet normal -0.334754 0.742805 0.579811
    outer loop
      vertex -4.94283 -6.68753 -11.4388
      vertex -6.69131 -7.43145 -11.4952
      vertex -5.83546 -8.05325 -10.2045
    endloop
  endfacet
  facet normal -0.334754 0.742805 0.579811
    outer loop
      vertex -6.69131 -7.43145 -11.4952
      vertex -4.94283 -6.68753 -11.4388
      vertex -7.36113 -6.68753 -12.835
    endloop
  endfacet
  facet normal -0.866026 8.44015e-07 -0.499999
    outer loop
      vertex -5.71927 -8.08718 -10.0939
      vertex -5.7735 -7.89586 -10
      vertex -4.94283 -6.68753 -11.4388
    endloop
  endfacet
  facet normal -0.866025 2.04015e-06 -0.500001
    outer loop
      vertex -5.71927 -8.08718 -10.0939
      vertex -5.7735 -8.09827 -10
      vertex -5.7735 -7.89586 -10
    endloop
  endfacet
  facet normal -0.866025 -5.97539e-07 -0.500001
    outer loop
      vertex -5.7735 -8.09827 -10
      vertex -5.71927 -8.08718 -10.0939
      vertex -5.74609 -8.11819 -10.0475
    endloop
  endfacet
  facet normal -0.866026 2.72629e-07 -0.499999
    outer loop
      vertex -3.90419 -3.08534 -13.2377
      vertex -4.32886 -4.9956 -12.5022
      vertex -3.68738 -1.04023 -13.6133
    endloop
  endfacet
  facet normal -0.250222 0.86577 0.433395
    outer loop
      vertex -5.71927 -8.08718 -10.0939
      vertex -5.78876 -8.08718 -10.134
      vertex -5.74609 -8.11819 -10.0475
    endloop
  endfacet
  facet normal -0.404657 0.587375 0.700887
    outer loop
      vertex -7.36113 -6.68753 -12.835
      vertex -4.94283 -6.68753 -11.4388
      vertex -7.60378 -6.41805 -13.2009
    endloop
  endfacet
  facet normal -0.404658 0.587374 0.700888
    outer loop
      vertex -4.32886 -4.9956 -12.5022
      vertex -7.60378 -6.41805 -13.2009
      vertex -4.94283 -6.68753 -11.4388
    endloop
  endfacet
  facet normal -0.404658 0.587374 0.700888
    outer loop
      vertex -4.32886 -4.9956 -12.5022
      vertex -8.09017 -5.87785 -13.9344
      vertex -7.60378 -6.41805 -13.2009
    endloop
  endfacet
  facet normal -0.404658 0.587374 0.700888
    outer loop
      vertex -8.09017 -5.87785 -13.9344
      vertex -4.32886 -4.9956 -12.5022
      vertex -8.59954 -4.9956 -14.9679
    endloop
  endfacet
  facet normal -0.5 -0.000508924 0.866025
    outer loop
      vertex -9.8896 1.05034 -17.1929
      vertex -9.96929 0.292157 -17.2394
      vertex -3.68791 1.05034 -13.6124
    endloop
  endfacet
  facet normal -0.881817 -0.255278 0.396525
    outer loop
      vertex -8.09017 5.87785 -5.80096
      vertex -6.56474 6.34993 -2.1047
      vertex -6.69131 7.43145 -1.68989
    endloop
  endfacet
  facet normal -0.881817 -0.255278 0.396524
    outer loop
      vertex -8.09823 5.63777 -5.97345
      vertex -8.09017 5.87785 -5.80096
      vertex -8.12694 5.81417 -5.92373
    endloop
  endfacet
  facet normal -0.881817 -0.255278 0.396525
    outer loop
      vertex -8.09017 5.87785 -5.80096
      vertex -8.09823 5.63777 -5.97345
      vertex -6.61719 4.78268 -3.2303
    endloop
  endfacet
  facet normal -0.881817 -0.255278 0.396525
    outer loop
      vertex -8.09017 5.87785 -5.80096
      vertex -6.61719 4.78268 -3.2303
      vertex -6.56474 6.34993 -2.1047
    endloop
  endfacet
  facet normal -0.881817 -0.255278 0.396525
    outer loop
      vertex -5.38772 5.03747 -0.332114
      vertex -6.69131 7.43145 -1.68989
      vertex -6.56474 6.34993 -2.1047
    endloop
  endfacet
  facet normal -0.881817 -0.255278 0.396525
    outer loop
      vertex -6.69131 7.43145 -1.68989
      vertex -5.38772 5.03747 -0.332114
      vertex -6.06347 7.8876 -1.89871e-15
    endloop
  endfacet
  facet normal -0.881817 -0.255278 0.396525
    outer loop
      vertex -5.38772 5.03747 -0.332114
      vertex -4.87312 3.77575 -1.42039e-15
      vertex -6.06347 7.8876 -1.89871e-15
    endloop
  endfacet
  facet normal -0.881817 -0.255278 0.396525
    outer loop
      vertex -4.87312 3.77575 -1.42039e-15
      vertex -5.38772 5.03747 -0.332114
      vertex -5.41939 4.09113 -1.01178
    endloop
  endfacet
endsolid OpenSCAD_Model
