solid OpenSCAD_Model
  facet normal -0.994522 0.104528 0
    outer loop
      vertex -9.85409 1.38826 -17.3108
      vertex -9.78148 2.07912 -17.0092
      vertex -9.78148 2.07912 -30.9017
    endloop
  endfacet
  facet normal -0.994522 0.104529 0
    outer loop
      vertex -9.87261 1.21208 -10
      vertex -9.78148 2.07912 -10
      vertex -9.78148 2.07912 -13.0234
    endloop
  endfacet
  facet normal -0.994522 0.104528 4.30521e-18
    outer loop
      vertex -10 3.55235e-16 -17.9167
      vertex -9.78148 2.07912 -30.9017
      vertex -10 8.90045e-16 -30.9017
    endloop
  endfacet
  facet normal -0.994522 0.104528 4.4643e-09
    outer loop
      vertex -9.78148 2.07912 -30.9017
      vertex -10 3.55235e-16 -17.9167
      vertex -9.85409 1.38826 -17.3108
    endloop
  endfacet
  facet normal 0.994522 0.104529 0
    outer loop
      vertex 9.78148 2.07912 -10
      vertex 10 1.65545e-15 -30.9017
      vertex 9.78148 2.07912 -30.9017
    endloop
  endfacet
  facet normal 0.994522 0.104529 4.30522e-18
    outer loop
      vertex 10 1.65545e-15 -30.9017
      vertex 9.78148 2.07912 -10
      vertex 10 7.9457e-16 -10
    endloop
  endfacet
  facet normal 0.207911 -0.978148 0
    outer loop
      vertex 1.04528 -9.94522 -30.9017
      vertex 3.09017 -9.51056 -10
      vertex 1.04528 -9.94522 -10
    endloop
  endfacet
  facet normal 0.207911 -0.978148 0
    outer loop
      vertex 3.09017 -9.51056 -10
      vertex 1.04528 -9.94522 -30.9017
      vertex 3.09017 -9.51056 -30.9017
    endloop
  endfacet
  facet normal 0 1 -0
    outer loop
      vertex 1.04528 9.94522 -30.9017
      vertex -1.04528 9.94522 -10
      vertex 1.04528 9.94522 -10
    endloop
  endfacet
  facet normal 0 1 0
    outer loop
      vertex -1.04528 9.94522 -10
      vertex 1.04528 9.94522 -30.9017
      vertex -1.04528 9.94522 -30.9017
    endloop
  endfacet
  facet normal 0.866026 -0.5 0
    outer loop
      vertex 8.09017 -5.87785 -10
      vertex 9.13545 -4.06737 -30.9017
      vertex 9.13545 -4.06737 -10
    endloop
  endfacet
  facet normal 0.866026 -0.5 0
    outer loop
      vertex 9.13545 -4.06737 -30.9017
      vertex 8.09017 -5.87785 -10
      vertex 8.09017 -5.87785 -30.9017
    endloop
  endfacet
  facet normal 0.743145 0.669131 0
    outer loop
      vertex 8.09017 5.87785 -10
      vertex 6.69131 7.43145 -30.9017
      vertex 6.69131 7.43145 -10
    endloop
  endfacet
  facet normal 0.743145 0.669131 0
    outer loop
      vertex 6.69131 7.43145 -30.9017
      vertex 8.09017 5.87785 -10
      vertex 8.09017 5.87785 -30.9017
    endloop
  endfacet
  facet normal 0.866026 0.5 0
    outer loop
      vertex 9.13545 4.06737 -10
      vertex 8.09017 5.87785 -30.9017
      vertex 8.09017 5.87785 -10
    endloop
  endfacet
  facet normal 0.866026 0.5 0
    outer loop
      vertex 8.09017 5.87785 -30.9017
      vertex 9.13545 4.06737 -10
      vertex 9.13545 4.06737 -30.9017
    endloop
  endfacet
  facet normal 0.951057 -0.309017 0
    outer loop
      vertex 9.13545 -4.06737 -10
      vertex 9.78148 -2.07912 -30.9017
      vertex 9.78148 -2.07912 -10
    endloop
  endfacet
  facet normal 0.951057 -0.309017 0
    outer loop
      vertex 9.78148 -2.07912 -30.9017
      vertex 9.13545 -4.06737 -10
      vertex 9.13545 -4.06737 -30.9017
    endloop
  endfacet
  facet normal 0 -1 0
    outer loop
      vertex -1.04528 -9.94522 -30.9017
      vertex 1.04528 -9.94522 -10
      vertex -1.04528 -9.94522 -10
    endloop
  endfacet
  facet normal 0 -1 -0
    outer loop
      vertex 1.04528 -9.94522 -10
      vertex -1.04528 -9.94522 -30.9017
      vertex 1.04528 -9.94522 -30.9017
    endloop
  endfacet
  facet normal -0.951057 0.309017 0
    outer loop
      vertex -9.13545 4.06737 -30.9017
      vertex -9.45139 3.095 -16.4368
      vertex -9.13545 4.06737 -10
    endloop
  endfacet
  facet normal -0.951057 0.309017 0
    outer loop
      vertex -9.78148 2.07912 -17.0092
      vertex -9.13545 4.06737 -30.9017
      vertex -9.78148 2.07912 -30.9017
    endloop
  endfacet
  facet normal -0.951056 0.309017 4.6367e-08
    outer loop
      vertex -9.13545 4.06737 -30.9017
      vertex -9.78148 2.07912 -17.0092
      vertex -9.45139 3.095 -16.4368
    endloop
  endfacet
  facet normal -0.951057 0.309017 -7.17328e-08
    outer loop
      vertex -9.78148 2.07912 -13.0234
      vertex -9.13545 4.06737 -10
      vertex -9.45139 3.095 -16.4368
    endloop
  endfacet
  facet normal -0.951057 0.309017 0
    outer loop
      vertex -9.13545 4.06737 -10
      vertex -9.78148 2.07912 -13.0234
      vertex -9.78148 2.07912 -10
    endloop
  endfacet
  facet normal -0.207911 0.978148 0
    outer loop
      vertex -1.04528 9.94522 -30.9017
      vertex -3.09017 9.51056 -10
      vertex -1.04528 9.94522 -10
    endloop
  endfacet
  facet normal -0.207911 0.978148 0
    outer loop
      vertex -3.09017 9.51056 -10
      vertex -1.04528 9.94522 -30.9017
      vertex -3.09017 9.51056 -30.9017
    endloop
  endfacet
  facet normal 0.951057 0.309017 0
    outer loop
      vertex 9.78148 2.07912 -10
      vertex 9.13545 4.06737 -30.9017
      vertex 9.13545 4.06737 -10
    endloop
  endfacet
  facet normal 0.951057 0.309017 0
    outer loop
      vertex 9.13545 4.06737 -30.9017
      vertex 9.78148 2.07912 -10
      vertex 9.78148 2.07912 -30.9017
    endloop
  endfacet
  facet normal 0.406737 0.913545 -8.50707e-10
    outer loop
      vertex 3.09017 9.51056 -30.9017
      vertex 4.02403 9.09478 -10
      vertex 5 8.66025 -30.9017
    endloop
  endfacet
  facet normal 0.406737 0.913545 0
    outer loop
      vertex 4.02403 9.09478 -10
      vertex 3.09017 9.51056 -30.9017
      vertex 3.09017 9.51056 -10
    endloop
  endfacet
  facet normal 0.587785 -0.809017 0
    outer loop
      vertex 5 -8.66025 -30.9017
      vertex 6.69131 -7.43145 -10
      vertex 5 -8.66025 -10
    endloop
  endfacet
  facet normal 0.587785 -0.809017 0
    outer loop
      vertex 6.69131 -7.43145 -10
      vertex 5 -8.66025 -30.9017
      vertex 6.69131 -7.43145 -30.9017
    endloop
  endfacet
  facet normal 0.743145 -0.669131 0
    outer loop
      vertex 6.69131 -7.43145 -10
      vertex 8.09017 -5.87785 -30.9017
      vertex 8.09017 -5.87785 -10
    endloop
  endfacet
  facet normal 0.743145 -0.669131 0
    outer loop
      vertex 8.09017 -5.87785 -30.9017
      vertex 6.69131 -7.43145 -10
      vertex 6.69131 -7.43145 -30.9017
    endloop
  endfacet
  facet normal 0.406737 -0.913545 0
    outer loop
      vertex 3.09017 -9.51056 -30.9017
      vertex 5 -8.66025 -10
      vertex 3.09017 -9.51056 -10
    endloop
  endfacet
  facet normal 0.406737 -0.913545 0
    outer loop
      vertex 5 -8.66025 -10
      vertex 3.09017 -9.51056 -30.9017
      vertex 5 -8.66025 -30.9017
    endloop
  endfacet
  facet normal 0.994522 -0.104529 -5.08153e-18
    outer loop
      vertex 9.78148 -2.07912 -10
      vertex 10 1.65545e-15 -30.9017
      vertex 10 7.9457e-16 -10
    endloop
  endfacet
  facet normal 0.994522 -0.104529 0
    outer loop
      vertex 10 1.65545e-15 -30.9017
      vertex 9.78148 -2.07912 -10
      vertex 9.78148 -2.07912 -30.9017
    endloop
  endfacet
  facet normal -0.743145 -0.669131 0
    outer loop
      vertex -6.69131 -7.43145 -30.9017
      vertex -8.09017 -5.87785 -19.0232
      vertex -8.09017 -5.87785 -30.9017
    endloop
  endfacet
  facet normal -0.743145 -0.669131 0
    outer loop
      vertex -8.09017 -5.87785 -19.0232
      vertex -6.69131 -7.43145 -30.9017
      vertex -6.69131 -7.43145 -18.7995
    endloop
  endfacet
  facet normal -0.743145 0.669131 0
    outer loop
      vertex -8.09017 5.87785 -30.9017
      vertex -6.69131 7.43145 -10
      vertex -6.69131 7.43145 -30.9017
    endloop
  endfacet
  facet normal -0.743145 0.669131 0
    outer loop
      vertex -6.69131 7.43145 -10
      vertex -8.09017 5.87785 -30.9017
      vertex -8.09017 5.87785 -10
    endloop
  endfacet
  facet normal -0.587785 0.809017 0
    outer loop
      vertex -6.69131 7.43145 -10
      vertex -5.82701 8.0594 -10
      vertex -6.69131 7.43145 -30.9017
    endloop
  endfacet
  facet normal -0.587785 0.809017 -1.34093e-08
    outer loop
      vertex -5 8.66025 -30.9017
      vertex -5.82701 8.0594 -10
      vertex -5 8.66025 -10
    endloop
  endfacet
  facet normal -0.587785 0.809017 -2.02973e-08
    outer loop
      vertex -5.82701 8.0594 -10
      vertex -5 8.66025 -30.9017
      vertex -6.69131 7.43145 -30.9017
    endloop
  endfacet
  facet normal -0.406737 0.913545 0
    outer loop
      vertex -4.06614 9.07604 -10
      vertex -3.09017 9.51056 -10
      vertex -3.09017 9.51056 -30.9017
    endloop
  endfacet
  facet normal 0.406737 0.913545 9.27902e-09
    outer loop
      vertex 5 8.66025 -30.9017
      vertex 4.02403 9.09478 -10
      vertex 5 8.66025 -10
    endloop
  endfacet
  facet normal 0.207911 0.978148 -0
    outer loop
      vertex 3.09017 9.51056 -30.9017
      vertex 1.04528 9.94522 -10
      vertex 3.09017 9.51056 -10
    endloop
  endfacet
  facet normal 0.207911 0.978148 0
    outer loop
      vertex 1.04528 9.94522 -10
      vertex 3.09017 9.51056 -30.9017
      vertex 1.04528 9.94522 -30.9017
    endloop
  endfacet
  facet normal 0.587785 0.809017 1.34093e-08
    outer loop
      vertex 5 8.66025 -30.9017
      vertex 5 8.66025 -10
      vertex 5.8643 8.03231 -10
    endloop
  endfacet
  facet normal -0.207911 -0.978148 0
    outer loop
      vertex -3.09017 -9.51056 -14.6477
      vertex -1.04528 -9.94522 -10
      vertex -3.09017 -9.51056 -10
    endloop
  endfacet
  facet normal -0.207911 -0.978148 1.69024e-08
    outer loop
      vertex -1.81004 -9.78267 -16.8649
      vertex -1.04528 -9.94522 -10
      vertex -3.09017 -9.51056 -14.6477
    endloop
  endfacet
  facet normal -0.207911 -0.978148 0
    outer loop
      vertex -1.04528 -9.94522 -30.9017
      vertex -3.09017 -9.51056 -17.5017
      vertex -3.09017 -9.51056 -30.9017
    endloop
  endfacet
  facet normal -0.207911 -0.978148 -9.60119e-09
    outer loop
      vertex -3.09017 -9.51056 -17.5017
      vertex -1.04528 -9.94522 -30.9017
      vertex -1.81004 -9.78267 -16.8649
    endloop
  endfacet
  facet normal -0.207911 -0.978148 0
    outer loop
      vertex -1.81004 -9.78267 -16.8649
      vertex -1.04528 -9.94522 -30.9017
      vertex -1.04528 -9.94522 -10
    endloop
  endfacet
  facet normal 0 0 -1
    outer loop
      vertex 9.78148 -2.07912 -30.9017
      vertex 9.78148 2.07912 -30.9017
      vertex 10 1.65545e-15 -30.9017
    endloop
  endfacet
  facet normal 0 0 -1
    outer loop
      vertex 9.13545 -4.06737 -30.9017
      vertex 9.78148 2.07912 -30.9017
      vertex 9.78148 -2.07912 -30.9017
    endloop
  endfacet
  facet normal 0 0 -1
    outer loop
      vertex 9.13545 -4.06737 -30.9017
      vertex 9.13545 4.06737 -30.9017
      vertex 9.78148 2.07912 -30.9017
    endloop
  endfacet
  facet normal 0 0 -1
    outer loop
      vertex 8.09017 -5.87785 -30.9017
      vertex 9.13545 4.06737 -30.9017
      vertex 9.13545 -4.06737 -30.9017
    endloop
  endfacet
  facet normal 0 0 -1
    outer loop
      vertex 8.09017 -5.87785 -30.9017
      vertex 8.09017 5.87785 -30.9017
      vertex 9.13545 4.06737 -30.9017
    endloop
  endfacet
  facet normal 0 0 -1
    outer loop
      vertex 6.69131 -7.43145 -30.9017
      vertex 8.09017 5.87785 -30.9017
      vertex 8.09017 -5.87785 -30.9017
    endloop
  endfacet
  facet normal 0 0 -1
    outer loop
      vertex 6.69131 -7.43145 -30.9017
      vertex 6.69131 7.43145 -30.9017
      vertex 8.09017 5.87785 -30.9017
    endloop
  endfacet
  facet normal 0 0 -1
    outer loop
      vertex 5 -8.66025 -30.9017
      vertex 6.69131 7.43145 -30.9017
      vertex 6.69131 -7.43145 -30.9017
    endloop
  endfacet
  facet normal 0 0 -1
    outer loop
      vertex 5 -8.66025 -30.9017
      vertex 5 8.66025 -30.9017
      vertex 6.69131 7.43145 -30.9017
    endloop
  endfacet
  facet normal 0 0 -1
    outer loop
      vertex 3.09017 -9.51056 -30.9017
      vertex 5 8.66025 -30.9017
      vertex 5 -8.66025 -30.9017
    endloop
  endfacet
  facet normal 0 0 -1
    outer loop
      vertex 3.09017 -9.51056 -30.9017
      vertex 3.09017 9.51056 -30.9017
      vertex 5 8.66025 -30.9017
    endloop
  endfacet
  facet normal 0 0 -1
    outer loop
      vertex 1.04528 -9.94522 -30.9017
      vertex 3.09017 9.51056 -30.9017
      vertex 3.09017 -9.51056 -30.9017
    endloop
  endfacet
  facet normal 0 0 -1
    outer loop
      vertex 1.04528 -9.94522 -30.9017
      vertex 1.04528 9.94522 -30.9017
      vertex 3.09017 9.51056 -30.9017
    endloop
  endfacet
  facet normal 0 0 -1
    outer loop
      vertex -1.04528 -9.94522 -30.9017
      vertex 1.04528 9.94522 -30.9017
      vertex 1.04528 -9.94522 -30.9017
    endloop
  endfacet
  facet normal 0 0 -1
    outer loop
      vertex -1.04528 -9.94522 -30.9017
      vertex -1.04528 9.94522 -30.9017
      vertex 1.04528 9.94522 -30.9017
    endloop
  endfacet
  facet normal 0 0 -1
    outer loop
      vertex -3.09017 -9.51056 -30.9017
      vertex -1.04528 9.94522 -30.9017
      vertex -1.04528 -9.94522 -30.9017
    endloop
  endfacet
  facet normal 0 0 -1
    outer loop
      vertex -3.09017 -9.51056 -30.9017
      vertex -3.09017 9.51056 -30.9017
      vertex -1.04528 9.94522 -30.9017
    endloop
  endfacet
  facet normal 0 0 -1
    outer loop
      vertex -5 -8.66025 -30.9017
      vertex -3.09017 9.51056 -30.9017
      vertex -3.09017 -9.51056 -30.9017
    endloop
  endfacet
  facet normal 0 0 -1
    outer loop
      vertex -5 -8.66025 -30.9017
      vertex -5 8.66025 -30.9017
      vertex -3.09017 9.51056 -30.9017
    endloop
  endfacet
  facet normal 0 0 -1
    outer loop
      vertex -6.69131 -7.43145 -30.9017
      vertex -5 8.66025 -30.9017
      vertex -5 -8.66025 -30.9017
    endloop
  endfacet
  facet normal 0 0 -1
    outer loop
      vertex -6.69131 -7.43145 -30.9017
      vertex -6.69131 7.43145 -30.9017
      vertex -5 8.66025 -30.9017
    endloop
  endfacet
  facet normal 0 0 -1
    outer loop
      vertex -8.09017 -5.87785 -30.9017
      vertex -6.69131 7.43145 -30.9017
      vertex -6.69131 -7.43145 -30.9017
    endloop
  endfacet
  facet normal 0 0 -1
    outer loop
      vertex -8.09017 -5.87785 -30.9017
      vertex -8.09017 5.87785 -30.9017
      vertex -6.69131 7.43145 -30.9017
    endloop
  endfacet
  facet normal 0 0 -1
    outer loop
      vertex -9.13545 -4.06737 -30.9017
      vertex -8.09017 5.87785 -30.9017
      vertex -8.09017 -5.87785 -30.9017
    endloop
  endfacet
  facet normal 0 0 -1
    outer loop
      vertex -9.13545 -4.06737 -30.9017
      vertex -9.13545 4.06737 -30.9017
      vertex -8.09017 5.87785 -30.9017
    endloop
  endfacet
  facet normal 0 0 -1
    outer loop
      vertex -9.78148 -2.07912 -30.9017
      vertex -9.13545 4.06737 -30.9017
      vertex -9.13545 -4.06737 -30.9017
    endloop
  endfacet
  facet normal 0 0 -1
    outer loop
      vertex -9.78148 -2.07912 -30.9017
      vertex -9.78148 2.07912 -30.9017
      vertex -9.13545 4.06737 -30.9017
    endloop
  endfacet
  facet normal 0 -0 -1
    outer loop
      vertex -9.78148 2.07912 -30.9017
      vertex -9.78148 -2.07912 -30.9017
      vertex -10 8.90045e-16 -30.9017
    endloop
  endfacet
  facet normal -0.587785 -0.809017 -2.00298e-08
    outer loop
      vertex -5 -8.66025 -30.9017
      vertex -6.18449 -7.79967 -18.6452
      vertex -6.69131 -7.43145 -30.9017
    endloop
  endfacet
  facet normal -0.587785 -0.809017 -2.22145e-08
    outer loop
      vertex -6.18449 -7.79967 -18.6452
      vertex -5 -8.66025 -30.9017
      vertex -5 -8.66025 -18.2848
    endloop
  endfacet
  facet normal -0.587785 -0.809017 -0
    outer loop
      vertex -5 -8.66025 -10
      vertex -5.7735 -8.09827 -10
      vertex -5 -8.66025 -11.3397
    endloop
  endfacet
  facet normal -0.951057 -0.309017 -0
    outer loop
      vertex -9.13545 -4.06737 -18.9463
      vertex -9.78148 -2.07912 -30.9017
      vertex -9.13545 -4.06737 -30.9017
    endloop
  endfacet
  facet normal -0.951057 -0.309017 0
    outer loop
      vertex -9.78148 -2.07912 -30.9017
      vertex -9.13545 -4.06737 -18.9463
      vertex -9.78148 -2.07912 -18.572
    endloop
  endfacet
  facet normal -0.406737 -0.913545 -1.5372e-08
    outer loop
      vertex -3.09017 -9.51056 -30.9017
      vertex -5 -8.66025 -18.2848
      vertex -5 -8.66025 -30.9017
    endloop
  endfacet
  facet normal -0.406737 -0.913545 -2.973e-08
    outer loop
      vertex -5 -8.66025 -18.2848
      vertex -3.09017 -9.51056 -30.9017
      vertex -3.7041 -9.23722 -17.7535
    endloop
  endfacet
  facet normal -0.406737 -0.913545 0
    outer loop
      vertex -5 -8.66025 -11.3397
      vertex -4.06614 -9.07604 -10
      vertex -5 -8.66025 -10
    endloop
  endfacet
  facet normal -0.406737 -0.913545 -6.41054e-08
    outer loop
      vertex -4.06614 -9.07604 -10
      vertex -5 -8.66025 -11.3397
      vertex -3.9159 -9.14292 -13.2175
    endloop
  endfacet
  facet normal -0.406736 -0.913546 -0
    outer loop
      vertex -3.09017 -9.51056 -17.5017
      vertex -3.7041 -9.23722 -17.7535
      vertex -3.09017 -9.51056 -30.9017
    endloop
  endfacet
  facet normal -0.406737 -0.913545 -6.04421e-08
    outer loop
      vertex -3.9159 -9.14292 -13.2175
      vertex -3.09017 -9.51056 -10
      vertex -4.06614 -9.07604 -10
    endloop
  endfacet
  facet normal -0.406737 -0.913545 -0
    outer loop
      vertex -3.09017 -9.51056 -10
      vertex -3.9159 -9.14292 -13.2175
      vertex -3.09017 -9.51056 -14.6477
    endloop
  endfacet
  facet normal -0.866026 0.5 0
    outer loop
      vertex -9.13545 4.06737 -30.9017
      vertex -8.09017 5.87785 -10
      vertex -8.09017 5.87785 -30.9017
    endloop
  endfacet
  facet normal -0.866026 0.5 0
    outer loop
      vertex -8.09017 5.87785 -10
      vertex -9.13545 4.06737 -30.9017
      vertex -9.13545 4.06737 -10
    endloop
  endfacet
  facet normal -0.406737 0.913545 -8.63287e-09
    outer loop
      vertex -5 8.66025 -30.9017
      vertex -4.06614 9.07604 -10
      vertex -3.09017 9.51056 -30.9017
    endloop
  endfacet
  facet normal -0.406737 0.913545 -9.27902e-09
    outer loop
      vertex -4.06614 9.07604 -10
      vertex -5 8.66025 -30.9017
      vertex -5 8.66025 -10
    endloop
  endfacet
  facet normal 0.587785 0.809017 -0
    outer loop
      vertex 6.69131 7.43145 -30.9017
      vertex 5.8643 8.03231 -10
      vertex 6.69131 7.43145 -10
    endloop
  endfacet
  facet normal 0.587785 0.809017 6.5924e-09
    outer loop
      vertex 5.8643 8.03231 -10
      vertex 6.69131 7.43145 -30.9017
      vertex 5 8.66025 -30.9017
    endloop
  endfacet
  facet normal -0.866026 -0.5 -0
    outer loop
      vertex -8.09017 -5.87785 -19.0232
      vertex -9.13545 -4.06737 -30.9017
      vertex -8.09017 -5.87785 -30.9017
    endloop
  endfacet
  facet normal -0.866026 -0.5 0
    outer loop
      vertex -9.13545 -4.06737 -30.9017
      vertex -8.09017 -5.87785 -19.0232
      vertex -9.13545 -4.06737 -18.9463
    endloop
  endfacet
  facet normal -0.587785 -0.809017 0
    outer loop
      vertex -6.18449 -7.79967 -18.6452
      vertex -6.69131 -7.43145 -18.7995
      vertex -6.69131 -7.43145 -30.9017
    endloop
  endfacet
  facet normal -0.994522 -0.104529 -0
    outer loop
      vertex -9.78148 -2.07912 -18.572
      vertex -9.84842 -1.44217 -18.3713
      vertex -9.78148 -2.07912 -30.9017
    endloop
  endfacet
  facet normal -0.994522 -0.104528 -4.3052e-18
    outer loop
      vertex -10 8.90045e-16 -30.9017
      vertex -9.84842 -1.44217 -18.3713
      vertex -10 3.55235e-16 -17.9167
    endloop
  endfacet
  facet normal -0.994522 -0.104528 -5.92073e-09
    outer loop
      vertex -9.84842 -1.44217 -18.3713
      vertex -10 8.90045e-16 -30.9017
      vertex -9.78148 -2.07912 -30.9017
    endloop
  endfacet
  facet normal -0 0 1
    outer loop
      vertex -5.7735 1.87917 -10
      vertex 10 7.9457e-16 -10
      vertex 9.78148 2.07912 -10
    endloop
  endfacet
  facet normal 0 0 1
    outer loop
      vertex -5.7735 1.87917 -10
      vertex 9.78148 2.07912 -10
      vertex 9.13545 4.06737 -10
    endloop
  endfacet
  facet normal 0 0 1
    outer loop
      vertex 10 7.9457e-16 -10
      vertex -5.7735 1.87917 -10
      vertex 9.78148 -2.07912 -10
    endloop
  endfacet
  facet normal 0 0 1
    outer loop
      vertex -5.7735 1.87917 -10
      vertex 9.13545 4.06737 -10
      vertex 8.09017 5.87785 -10
    endloop
  endfacet
  facet normal 0 0 1
    outer loop
      vertex 9.78148 -2.07912 -10
      vertex -5.7735 1.87917 -10
      vertex 9.13545 -4.06737 -10
    endloop
  endfacet
  facet normal 0 0 1
    outer loop
      vertex -5.7735 1.87917 -10
      vertex 8.09017 5.87785 -10
      vertex 6.69131 7.43145 -10
    endloop
  endfacet
  facet normal 0 0 1
    outer loop
      vertex 9.13545 -4.06737 -10
      vertex -5.7735 1.87917 -10
      vertex 8.09017 -5.87785 -10
    endloop
  endfacet
  facet normal 0 0 1
    outer loop
      vertex -5.7735 1.87917 -10
      vertex 6.69131 7.43145 -10
      vertex 5.8643 8.03231 -10
    endloop
  endfacet
  facet normal -0 0 1
    outer loop
      vertex -5.7735 -4.24553 -10
      vertex 8.09017 -5.87785 -10
      vertex -5.7735 1.87917 -10
    endloop
  endfacet
  facet normal 0 0 1
    outer loop
      vertex 4.02403 9.09478 -10
      vertex 5.8643 8.03231 -10
      vertex 5 8.66025 -10
    endloop
  endfacet
  facet normal 0 0 1
    outer loop
      vertex 5.8643 8.03231 -10
      vertex 4.02403 9.09478 -10
      vertex -5.7735 1.87917 -10
    endloop
  endfacet
  facet normal 0 0 1
    outer loop
      vertex -5.7735 1.87917 -10
      vertex 4.02403 9.09478 -10
      vertex 3.09017 9.51056 -10
    endloop
  endfacet
  facet normal 0 0 1
    outer loop
      vertex 8.09017 -5.87785 -10
      vertex -5.7735 -4.24553 -10
      vertex 6.69131 -7.43145 -10
    endloop
  endfacet
  facet normal 0 0 1
    outer loop
      vertex -5.7735 1.87917 -10
      vertex 3.09017 9.51056 -10
      vertex 1.04528 9.94522 -10
    endloop
  endfacet
  facet normal 0 0 1
    outer loop
      vertex 6.69131 -7.43145 -10
      vertex -5.7735 -4.24553 -10
      vertex 5 -8.66025 -10
    endloop
  endfacet
  facet normal 0 0 1
    outer loop
      vertex -5.7735 1.87917 -10
      vertex 1.04528 9.94522 -10
      vertex -1.04528 9.94522 -10
    endloop
  endfacet
  facet normal 0 0 1
    outer loop
      vertex 5 -8.66025 -10
      vertex -5.7735 -4.24553 -10
      vertex 3.09017 -9.51056 -10
    endloop
  endfacet
  facet normal 0 0 1
    outer loop
      vertex -5.7735 1.87917 -10
      vertex -1.04528 9.94522 -10
      vertex -3.09017 9.51056 -10
    endloop
  endfacet
  facet normal 0 0 1
    outer loop
      vertex 3.09017 -9.51056 -10
      vertex -5.7735 -4.24553 -10
      vertex 1.04528 -9.94522 -10
    endloop
  endfacet
  facet normal 0 0 1
    outer loop
      vertex -5.7735 1.87917 -10
      vertex -3.09017 9.51056 -10
      vertex -4.06614 9.07604 -10
    endloop
  endfacet
  facet normal 0 0 1
    outer loop
      vertex 1.04528 -9.94522 -10
      vertex -5.7735 -4.24553 -10
      vertex -1.04528 -9.94522 -10
    endloop
  endfacet
  facet normal 0 0 1
    outer loop
      vertex -5.7735 1.87917 -10
      vertex -4.06614 9.07604 -10
      vertex -5 8.66025 -10
    endloop
  endfacet
  facet normal 0 0 1
    outer loop
      vertex -1.04528 -9.94522 -10
      vertex -5.7735 -4.24553 -10
      vertex -3.09017 -9.51056 -10
    endloop
  endfacet
  facet normal 0 0 1
    outer loop
      vertex -3.09017 -9.51056 -10
      vertex -5.7735 -4.24553 -10
      vertex -4.06614 -9.07604 -10
    endloop
  endfacet
  facet normal -0 0 1
    outer loop
      vertex -5.82701 8.0594 -10
      vertex -5.7735 1.87917 -10
      vertex -5 8.66025 -10
    endloop
  endfacet
  facet normal -0 0 1
    outer loop
      vertex -6.69131 7.43145 -10
      vertex -5.7735 1.87917 -10
      vertex -5.82701 8.0594 -10
    endloop
  endfacet
  facet normal -0 0 1
    outer loop
      vertex -8.09017 5.87785 -10
      vertex -5.7735 1.87917 -10
      vertex -6.69131 7.43145 -10
    endloop
  endfacet
  facet normal -0 0 1
    outer loop
      vertex -9.13545 4.06737 -10
      vertex -5.7735 1.87917 -10
      vertex -8.09017 5.87785 -10
    endloop
  endfacet
  facet normal -0 0 1
    outer loop
      vertex -9.78148 2.07912 -10
      vertex -5.7735 1.87917 -10
      vertex -9.13545 4.06737 -10
    endloop
  endfacet
  facet normal 0 0 1
    outer loop
      vertex -5.7735 1.87917 -10
      vertex -9.78148 2.07912 -10
      vertex -9.87261 1.21208 -10
    endloop
  endfacet
  facet normal 0 0 1
    outer loop
      vertex -4.06614 -9.07604 -10
      vertex -5.7735 -4.24553 -10
      vertex -5 -8.66025 -10
    endloop
  endfacet
  facet normal 0 0 1
    outer loop
      vertex -5 -8.66025 -10
      vertex -5.7735 -4.24553 -10
      vertex -5.7735 -8.09827 -10
    endloop
  endfacet
  facet normal 1 3.64635e-15 4.76837e-08
    outer loop
      vertex 7.5 0.833332 -10
      vertex 7.5 4.16667 2.54168e-07
      vertex 7.5 0.833333 5.09067e-07
    endloop
  endfacet
  facet normal -6.63567e-09 7.64696e-08 1
    outer loop
      vertex 7.5 4.16667 2.54168e-07
      vertex -5.90927 3.81317 1.92221e-07
      vertex 7.5 0.833333 5.09067e-07
    endloop
  endfacet
  facet normal -6.63567e-09 7.64696e-08 1
    outer loop
      vertex -5.90927 3.81317 1.92221e-07
      vertex 7.5 4.16667 2.54168e-07
      vertex -6.09726 4.16667 1.63941e-07
    endloop
  endfacet
  facet normal 1 2.86102e-07 -4.76837e-08
    outer loop
      vertex 7.5 4.16667 -10
      vertex 7.5 4.16667 2.54168e-07
      vertex 7.5 0.833332 -10
    endloop
  endfacet
  facet normal 6.35783e-08 2.86102e-07 -1
    outer loop
      vertex 7.5 0.833332 -10
      vertex -7.5 4.16667 -10
      vertex 7.5 4.16667 -10
    endloop
  endfacet
  facet normal 0 0 -1
    outer loop
      vertex -5.7735 1.87917 -10
      vertex 7.5 0.833332 -10
      vertex -5.7735 0.833332 -10
    endloop
  endfacet
  facet normal 0 0 -1
    outer loop
      vertex -7.5 1.72269 -10
      vertex -5.7735 1.87917 -10
      vertex -7.43907 1.60811 -10
    endloop
  endfacet
  facet normal 0 0 -1
    outer loop
      vertex -5.7735 1.87917 -10
      vertex -7.5 4.16667 -10
      vertex 7.5 0.833332 -10
    endloop
  endfacet
  facet normal 0 0 -1
    outer loop
      vertex -7.5 4.16667 -10
      vertex -5.7735 1.87917 -10
      vertex -7.5 1.72269 -10
    endloop
  endfacet
  facet normal 0 1 -0
    outer loop
      vertex -2.50594 4.16667 -2.89042
      vertex -6.09726 4.16667 1.63941e-07
      vertex 7.5 4.16667 2.54168e-07
    endloop
  endfacet
  facet normal 0 1 0
    outer loop
      vertex -6.09726 4.16667 1.63941e-07
      vertex -2.50594 4.16667 -2.89042
      vertex -6.21314 4.16667 -0.428784
    endloop
  endfacet
  facet normal -1.37744e-08 1 4.76837e-08
    outer loop
      vertex 7.5 4.16667 -10
      vertex -2.50594 4.16667 -2.89042
      vertex 7.5 4.16667 2.54168e-07
    endloop
  endfacet
  facet normal 5.84515e-08 1 1.49334e-07
    outer loop
      vertex -2.50594 4.16667 -2.89042
      vertex 7.5 4.16667 -10
      vertex -3.72688 4.16667 -5.60562
    endloop
  endfacet
  facet normal 2.87424e-08 1 2.61282e-07
    outer loop
      vertex -3.72688 4.16667 -5.60562
      vertex -7.5 4.16667 -5.19056
      vertex -7.02104 4.16667 -3.41825
    endloop
  endfacet
  facet normal 0 1 0
    outer loop
      vertex -7.5 4.16667 -10
      vertex -3.72688 4.16667 -5.60562
      vertex 7.5 4.16667 -10
    endloop
  endfacet
  facet normal 0 1 0
    outer loop
      vertex -3.72688 4.16667 -5.60562
      vertex -7.5 4.16667 -10
      vertex -7.5 4.16667 -5.19056
    endloop
  endfacet
  facet normal -1 0 0
    outer loop
      vertex -7.5 1.72269 -10
      vertex -7.5 3.19856 -7.09567
      vertex -7.5 4.16667 -10
    endloop
  endfacet
  facet normal 1.42178e-09 -1 3.05152e-08
    outer loop
      vertex -5.94702 0.833332 -6.5995
      vertex -6.62736 0.833332 -8.52108
      vertex -3.26502 0.833332 -6.72446
    endloop
  endfacet
  facet normal 1.66763e-08 -1 2.51143e-08
    outer loop
      vertex -6.62736 0.833332 -8.52108
      vertex -5.94702 0.833332 -6.5995
      vertex -6.08355 0.833332 -6.50884
    endloop
  endfacet
  facet normal -9.47674e-09 -1 1.94972e-08
    outer loop
      vertex -2.61749 0.833333 -5.28444
      vertex -4.32455 0.833333 4.30603e-07
      vertex -5.27566 0.833333 -3.51937
    endloop
  endfacet
  facet normal 1.00815e-08 -1 2.58153e-08
    outer loop
      vertex -4.32455 0.833333 4.30603e-07
      vertex -2.61749 0.833333 -5.28444
      vertex 7.5 0.833333 5.09067e-07
    endloop
  endfacet
  facet normal 1.10786e-08 -1 3.64096e-08
    outer loop
      vertex 7.5 0.833332 -10
      vertex -2.61749 0.833333 -5.28444
      vertex -3.26502 0.833332 -6.72446
    endloop
  endfacet
  facet normal 1.35477e-08 -1 7.82177e-09
    outer loop
      vertex -5.7735 0.833332 -10
      vertex -3.26502 0.833332 -6.72446
      vertex -6.62736 0.833332 -8.52108
    endloop
  endfacet
  facet normal 4.4905e-09 -1 1.4758e-08
    outer loop
      vertex 7.5 0.833332 -10
      vertex -3.26502 0.833332 -6.72446
      vertex -5.7735 0.833332 -10
    endloop
  endfacet
  facet normal 7.99903e-09 -1 2.98023e-08
    outer loop
      vertex -2.61749 0.833333 -5.28444
      vertex 7.5 0.833332 -10
      vertex 7.5 0.833333 5.09067e-07
    endloop
  endfacet
  facet normal -1 0 0
    outer loop
      vertex -7.5 3.19856 -7.09567
      vertex -7.5 4.16667 -5.19056
      vertex -7.5 4.16667 -10
    endloop
  endfacet
  facet normal -6.63567e-09 7.64696e-08 1
    outer loop
      vertex 7.5 0.833333 5.09067e-07
      vertex -5.90927 3.81317 1.92221e-07
      vertex -4.32455 0.833333 4.30603e-07
    endloop
  endfacet
  facet normal -0.858801 -0.456722 0.232089
    outer loop
      vertex -6.21314 4.16667 -0.428784
      vertex -5.90927 3.81317 1.92221e-07
      vertex -6.09726 4.16667 1.63941e-07
    endloop
  endfacet
  facet normal -0.858801 -0.456721 0.23209
    outer loop
      vertex -6.21314 4.16667 -0.428784
      vertex -4.32455 0.833333 4.30603e-07
      vertex -5.90927 3.81317 1.92221e-07
    endloop
  endfacet
  facet normal -0.858802 -0.456721 0.232089
    outer loop
      vertex -4.32455 0.833333 4.30603e-07
      vertex -6.21314 4.16667 -0.428784
      vertex -5.27566 0.833333 -3.51937
    endloop
  endfacet
  facet normal -0.858802 -0.456721 0.232089
    outer loop
      vertex -6.08355 0.833332 -6.50884
      vertex -7.5 4.16667 -5.19056
      vertex -7.5 3.19856 -7.09567
    endloop
  endfacet
  facet normal -0.858802 -0.456721 0.232089
    outer loop
      vertex -6.77099 1.22984 -8.2723
      vertex -7.5 3.19856 -7.09567
      vertex -7.5 1.72269 -10
    endloop
  endfacet
  facet normal -0.858802 -0.45672 0.23209
    outer loop
      vertex -6.77099 1.22984 -8.2723
      vertex -7.5 1.72269 -10
      vertex -7.43907 1.60811 -10
    endloop
  endfacet
  facet normal -0.858802 -0.456721 0.232089
    outer loop
      vertex -6.08355 0.833332 -6.50884
      vertex -7.5 3.19856 -7.09567
      vertex -6.77099 1.22984 -8.2723
    endloop
  endfacet
  facet normal -0.858802 -0.456722 0.232089
    outer loop
      vertex -7.5 4.16667 -5.19056
      vertex -6.08355 0.833332 -6.50884
      vertex -7.02104 4.16667 -3.41825
    endloop
  endfacet
  facet normal -0.858802 -0.456721 0.232089
    outer loop
      vertex -6.08355 0.833332 -6.50884
      vertex -6.77099 1.22984 -8.2723
      vertex -6.62736 0.833332 -8.52108
    endloop
  endfacet
  facet normal -0.881817 -0.255278 0.396525
    outer loop
      vertex -3.26502 0.833332 -6.72446
      vertex -3.72688 4.16667 -5.60562
      vertex -3.8178 1.44972 -7.55694
    endloop
  endfacet
  facet normal -0.881817 -0.255278 0.396525
    outer loop
      vertex -3.72688 4.16667 -5.60562
      vertex -2.61749 0.833333 -5.28444
      vertex -2.50594 4.16667 -2.89042
    endloop
  endfacet
  facet normal -0.881817 -0.255278 0.396525
    outer loop
      vertex -3.72688 4.16667 -5.60562
      vertex -3.26502 0.833332 -6.72446
      vertex -2.61749 0.833333 -5.28444
    endloop
  endfacet
  facet normal 0.470809 -0.524986 0.709034
    outer loop
      vertex -3.72688 4.16667 -5.60562
      vertex -5.94702 0.833332 -6.5995
      vertex -3.8178 1.44972 -7.55694
    endloop
  endfacet
  facet normal 0.470809 -0.524986 0.709034
    outer loop
      vertex -7.02104 4.16667 -3.41825
      vertex -5.94702 0.833332 -6.5995
      vertex -3.72688 4.16667 -5.60562
    endloop
  endfacet
  facet normal 0.470809 -0.524986 0.709034
    outer loop
      vertex -5.94702 0.833332 -6.5995
      vertex -7.02104 4.16667 -3.41825
      vertex -6.08355 0.833332 -6.50884
    endloop
  endfacet
  facet normal -0.470809 0.524986 -0.709034
    outer loop
      vertex -5.27566 0.833333 -3.51937
      vertex -2.50594 4.16667 -2.89042
      vertex -2.61749 0.833333 -5.28444
    endloop
  endfacet
  facet normal -0.470809 0.524986 -0.709034
    outer loop
      vertex -2.50594 4.16667 -2.89042
      vertex -5.27566 0.833333 -3.51937
      vertex -6.21314 4.16667 -0.428784
    endloop
  endfacet
  facet normal 0.0271695 0.811925 0.583129
    outer loop
      vertex -3.26502 0.833332 -6.72446
      vertex -3.8178 1.44972 -7.55694
      vertex -5.94702 0.833332 -6.5995
    endloop
  endfacet
  facet normal -0.866025 2.27593e-08 -0.5
    outer loop
      vertex -1.81004 -9.78267 -16.8649
      vertex -5.7735 -4.24553 -10
      vertex -3.90576 3.095 -13.235
    endloop
  endfacet
  facet normal -0.866025 -0 -0.5
    outer loop
      vertex -5.7735 -4.24553 -10
      vertex -5 -8.66025 -11.3397
      vertex -5.7735 -8.09827 -10
    endloop
  endfacet
  facet normal -0.866025 -1.24543e-07 -0.5
    outer loop
      vertex -5.7735 -4.24553 -10
      vertex -3.9159 -9.14292 -13.2175
      vertex -5 -8.66025 -11.3397
    endloop
  endfacet
  facet normal -0.866025 7.46459e-08 -0.5
    outer loop
      vertex -5.7735 -4.24553 -10
      vertex -3.09017 -9.51056 -14.6477
      vertex -3.9159 -9.14292 -13.2175
    endloop
  endfacet
  facet normal -0.866025 -1.72986e-07 -0.5
    outer loop
      vertex -5.7735 -4.24553 -10
      vertex -1.81004 -9.78267 -16.8649
      vertex -3.09017 -9.51056 -14.6477
    endloop
  endfacet
  facet normal -0.475449 -0.309495 0.823505
    outer loop
      vertex -1.81004 -9.78267 -16.8649
      vertex -3.7041 -9.23722 -17.7535
      vertex -3.09017 -9.51056 -17.5017
    endloop
  endfacet
  facet normal -0.47545 -0.3095 0.823503
    outer loop
      vertex -3.90576 3.095 -13.235
      vertex -3.7041 -9.23722 -17.7535
      vertex -1.81004 -9.78267 -16.8649
    endloop
  endfacet
  facet normal -0.47545 -0.3095 0.823503
    outer loop
      vertex -3.90576 3.095 -13.235
      vertex -5 -8.66025 -18.2848
      vertex -3.7041 -9.23722 -17.7535
    endloop
  endfacet
  facet normal -0.47545 -0.3095 0.823503
    outer loop
      vertex -3.90576 3.095 -13.235
      vertex -6.18449 -7.79967 -18.6452
      vertex -5 -8.66025 -18.2848
    endloop
  endfacet
  facet normal -0.475449 -0.309501 0.823504
    outer loop
      vertex -3.90576 3.095 -13.235
      vertex -6.69131 -7.43145 -18.7995
      vertex -6.18449 -7.79967 -18.6452
    endloop
  endfacet
  facet normal -0.47545 -0.3095 0.823503
    outer loop
      vertex -3.90576 3.095 -13.235
      vertex -8.09017 -5.87785 -19.0232
      vertex -6.69131 -7.43145 -18.7995
    endloop
  endfacet
  facet normal -0.47545 -0.3095 0.823503
    outer loop
      vertex -3.90576 3.095 -13.235
      vertex -9.13545 -4.06737 -18.9463
      vertex -8.09017 -5.87785 -19.0232
    endloop
  endfacet
  facet normal -0.47545 -0.309499 0.823503
    outer loop
      vertex -9.78148 2.07912 -17.0092
      vertex -3.90576 3.095 -13.235
      vertex -9.45139 3.095 -16.4368
    endloop
  endfacet
  facet normal -0.475449 -0.309502 0.823503
    outer loop
      vertex -3.90576 3.095 -13.235
      vertex -9.78148 2.07912 -17.0092
      vertex -9.85409 1.38826 -17.3108
    endloop
  endfacet
  facet normal -0.47545 -0.3095 0.823503
    outer loop
      vertex -10 3.55235e-16 -17.9167
      vertex -3.90576 3.095 -13.235
      vertex -9.85409 1.38826 -17.3108
    endloop
  endfacet
  facet normal -0.47545 -0.3095 0.823503
    outer loop
      vertex -3.90576 3.095 -13.235
      vertex -9.78148 -2.07912 -18.572
      vertex -9.13545 -4.06737 -18.9463
    endloop
  endfacet
  facet normal -0.47545 -0.3095 0.823503
    outer loop
      vertex -9.78148 -2.07912 -18.572
      vertex -3.90576 3.095 -13.235
      vertex -9.84842 -1.44217 -18.3713
    endloop
  endfacet
  facet normal -0.47545 -0.3095 0.823503
    outer loop
      vertex -3.90576 3.095 -13.235
      vertex -10 3.55235e-16 -17.9167
      vertex -9.84842 -1.44217 -18.3713
    endloop
  endfacet
  facet normal -0.866025 0 -0.5
    outer loop
      vertex -3.90576 3.095 -13.235
      vertex -5.7735 -4.24553 -10
      vertex -5.7735 1.87917 -10
    endloop
  endfacet
  facet normal -0.866025 0 -0.5
    outer loop
      vertex -6.62736 0.833332 -8.52108
      vertex -5.7735 1.87917 -10
      vertex -5.7735 0.833332 -10
    endloop
  endfacet
  facet normal -0.866026 1.13394e-06 -0.5
    outer loop
      vertex -5.7735 1.87917 -10
      vertex -6.62736 0.833332 -8.52108
      vertex -6.77099 1.22984 -8.2723
    endloop
  endfacet
  facet normal 0.15475 -0.950899 -0.268035
    outer loop
      vertex -9.78148 2.07912 -13.0234
      vertex -5.7735 1.87917 -10
      vertex -9.87261 1.21208 -10
    endloop
  endfacet
  facet normal 0.15475 -0.950899 -0.268035
    outer loop
      vertex -9.78148 2.07912 -13.0234
      vertex -3.90576 3.095 -13.235
      vertex -5.7735 1.87917 -10
    endloop
  endfacet
  facet normal 0.15475 -0.950899 -0.268035
    outer loop
      vertex -3.90576 3.095 -13.235
      vertex -9.78148 2.07912 -13.0234
      vertex -9.45139 3.095 -16.4368
    endloop
  endfacet
  facet normal 0.15475 -0.950899 -0.268035
    outer loop
      vertex -7.43907 1.60811 -10
      vertex -5.7735 1.87917 -10
      vertex -6.77099 1.22984 -8.2723
    endloop
  endfacet
endsolid OpenSCAD_Model
