solid OpenSCAD_Model
  facet normal -0.994522 0.104529 0
    outer loop
      vertex 15.2185 27.0791 -10.1112
      vertex 15.2185 27.0791 -27.3267
      vertex 15.1204 26.1454 -10.563
    endloop
  endfacet
  facet normal -0.994522 0.104528 0
    outer loop
      vertex 15 25 -11.1171
      vertex 15.2185 27.0791 -27.3267
      vertex 15 25 -27.3267
    endloop
  endfacet
  facet normal -0.994522 0.104528 -8.14726e-08
    outer loop
      vertex 15.2185 27.0791 -27.3267
      vertex 15 25 -11.1171
      vertex 15.1204 26.1454 -10.563
    endloop
  endfacet
  facet normal 0.406737 -0.913545 0
    outer loop
      vertex 28.0902 15.4894 -27.3267
      vertex 30 16.3397 -5
      vertex 28.0902 15.4894 -5
    endloop
  endfacet
  facet normal 0.406737 -0.913545 0
    outer loop
      vertex 30 16.3397 -5
      vertex 28.0902 15.4894 -27.3267
      vertex 30 16.3397 -27.3267
    endloop
  endfacet
  facet normal 0 1 -0
    outer loop
      vertex 26.0453 34.9452 -27.3267
      vertex 23.9547 34.9452 -5
      vertex 26.0453 34.9452 -5
    endloop
  endfacet
  facet normal 0 1 0
    outer loop
      vertex 23.9547 34.9452 -5
      vertex 26.0453 34.9452 -27.3267
      vertex 23.9547 34.9452 -27.3267
    endloop
  endfacet
  facet normal -0.951057 0.309016 0
    outer loop
      vertex 15.8645 29.0674 -27.3267
      vertex 15.7842 28.8202 -13.4713
      vertex 15.8645 29.0674 -13.2966
    endloop
  endfacet
  facet normal -0.951057 0.309017 9.65023e-09
    outer loop
      vertex 15.2185 27.0791 -27.3267
      vertex 15.7842 28.8202 -13.4713
      vertex 15.8645 29.0674 -27.3267
    endloop
  endfacet
  facet normal -0.951057 0.309017 0
    outer loop
      vertex 15.7842 28.8202 -13.4713
      vertex 15.2185 27.0791 -27.3267
      vertex 15.2185 27.0791 -10.1112
    endloop
  endfacet
  facet normal -0.951057 0.309017 -1.72296e-07
    outer loop
      vertex 15.7842 28.8202 -13.4713
      vertex 15.2185 27.0791 -10.1112
      vertex 15.3188 27.3876 -9.9357
    endloop
  endfacet
  facet normal -0.587778 0.809022 -5.57933e-08
    outer loop
      vertex 20 33.6603 -27.3267
      vertex 19.8106 33.5227 -7.61484
      vertex 20 33.6603 -7.23289
    endloop
  endfacet
  facet normal -0.587786 0.809017 -1.68359e-07
    outer loop
      vertex 20 33.6603 -27.3267
      vertex 19.1606 33.0504 -8.52502
      vertex 19.8106 33.5227 -7.61484
    endloop
  endfacet
  facet normal -0.587785 0.809017 -1.07487e-07
    outer loop
      vertex 19.1606 33.0504 -8.52502
      vertex 20 33.6603 -27.3267
      vertex 18.3087 32.4314 -27.3267
    endloop
  endfacet
  facet normal 0.406736 0.913546 -1.56087e-07
    outer loop
      vertex 30 33.6603 -5
      vertex 30 33.6603 -27.3267
      vertex 28.8576 34.1689 -5
    endloop
  endfacet
  facet normal 0.951056 -0.309018 0
    outer loop
      vertex 34.1355 20.9326 -5
      vertex 34.7815 22.9209 -27.3267
      vertex 34.7815 22.9209 -5
    endloop
  endfacet
  facet normal 0.951057 -0.309016 1.62496e-07
    outer loop
      vertex 34.7815 22.9209 -27.3267
      vertex 34.1355 20.9326 -5
      vertex 34.1355 20.9326 -27.3267
    endloop
  endfacet
  facet normal 0.587785 -0.809017 0
    outer loop
      vertex 30 16.3397 -27.3267
      vertex 31.6913 17.5686 -5
      vertex 30 16.3397 -5
    endloop
  endfacet
  facet normal 0.587785 -0.809017 0
    outer loop
      vertex 31.6913 17.5686 -5
      vertex 30 16.3397 -27.3267
      vertex 31.6913 17.5686 -27.3267
    endloop
  endfacet
  facet normal 0.866026 -0.499998 1.47968e-07
    outer loop
      vertex 33.0902 19.1221 -5
      vertex 34.1355 20.9326 -27.3267
      vertex 34.1355 20.9326 -5
    endloop
  endfacet
  facet normal 0.866026 -0.5 0
    outer loop
      vertex 34.1355 20.9326 -27.3267
      vertex 33.0902 19.1221 -5
      vertex 33.0902 19.1221 -27.3267
    endloop
  endfacet
  facet normal -0.587785 -0.809017 -1.83745e-08
    outer loop
      vertex 20 16.3397 -27.3267
      vertex 19.1606 16.9496 -8.52472
      vertex 18.3087 17.5686 -27.3267
    endloop
  endfacet
  facet normal -0.587785 -0.809017 -5.58343e-08
    outer loop
      vertex 19.1606 16.9496 -8.52472
      vertex 20 16.3397 -27.3267
      vertex 20 16.3397 -7.2474
    endloop
  endfacet
  facet normal -0.207911 -0.978148 0
    outer loop
      vertex 21.9098 15.4894 -27.3267
      vertex 23.9547 15.0548 -5
      vertex 21.9098 15.4894 -5
    endloop
  endfacet
  facet normal -0.207911 -0.978148 -0
    outer loop
      vertex 23.9547 15.0548 -5
      vertex 21.9098 15.4894 -27.3267
      vertex 23.9547 15.0548 -27.3267
    endloop
  endfacet
  facet normal 0 -1 0
    outer loop
      vertex 23.9547 15.0548 -27.3267
      vertex 26.0453 15.0548 -5
      vertex 23.9547 15.0548 -5
    endloop
  endfacet
  facet normal 0 -1 -0
    outer loop
      vertex 26.0453 15.0548 -5
      vertex 23.9547 15.0548 -27.3267
      vertex 26.0453 15.0548 -27.3267
    endloop
  endfacet
  facet normal 0.994522 0.104529 0
    outer loop
      vertex 35 25 -5
      vertex 34.7815 27.0791 -27.3267
      vertex 34.7815 27.0791 -5
    endloop
  endfacet
  facet normal 0.994522 0.104529 0
    outer loop
      vertex 34.7815 27.0791 -27.3267
      vertex 35 25 -5
      vertex 35 25 -27.3267
    endloop
  endfacet
  facet normal 0.866026 0.499998 -4.27145e-08
    outer loop
      vertex 34.1355 29.0674 -5
      vertex 33.0902 30.8779 -27.3267
      vertex 33.0902 30.8779 -5
    endloop
  endfacet
  facet normal 0.866025 0.5 1.47968e-07
    outer loop
      vertex 33.0902 30.8779 -27.3267
      vertex 34.1355 29.0674 -5
      vertex 34.1355 29.0674 -27.3267
    endloop
  endfacet
  facet normal 0.587788 0.809015 -1.38227e-07
    outer loop
      vertex 31.0116 32.9253 -5
      vertex 30 33.6603 -27.3267
      vertex 30 33.6603 -5
    endloop
  endfacet
  facet normal 0.207911 -0.978148 0
    outer loop
      vertex 26.0453 15.0548 -27.3267
      vertex 28.0902 15.4894 -5
      vertex 26.0453 15.0548 -5
    endloop
  endfacet
  facet normal 0.207911 -0.978148 0
    outer loop
      vertex 28.0902 15.4894 -5
      vertex 26.0453 15.0548 -27.3267
      vertex 28.0902 15.4894 -27.3267
    endloop
  endfacet
  facet normal 0.743144 -0.669132 0
    outer loop
      vertex 31.6913 17.5686 -5
      vertex 33.0902 19.1221 -27.3267
      vertex 33.0902 19.1221 -5
    endloop
  endfacet
  facet normal 0.743144 -0.669132 0
    outer loop
      vertex 33.0902 19.1221 -27.3267
      vertex 31.6913 17.5686 -5
      vertex 31.6913 17.5686 -27.3267
    endloop
  endfacet
  facet normal 0.994522 -0.104529 0
    outer loop
      vertex 34.7815 22.9209 -5
      vertex 35 25 -27.3267
      vertex 35 25 -5
    endloop
  endfacet
  facet normal 0.994522 -0.104529 0
    outer loop
      vertex 35 25 -27.3267
      vertex 34.7815 22.9209 -5
      vertex 34.7815 22.9209 -27.3267
    endloop
  endfacet
  facet normal -0.406733 0.913547 -2.25656e-05
    outer loop
      vertex 21.9098 34.5106 -5
      vertex 21.5861 34.3664 -5.03526
      vertex 21.5725 34.3604 -5
    endloop
  endfacet
  facet normal -0.406735 0.913546 -1.89324e-07
    outer loop
      vertex 21.9098 34.5106 -5
      vertex 20.8234 34.0268 -6.09208
      vertex 21.5861 34.3664 -5.03526
    endloop
  endfacet
  facet normal -0.406735 0.913546 0
    outer loop
      vertex 20.8234 34.0268 -6.09208
      vertex 21.9098 34.5106 -5
      vertex 21.9098 34.5106 -27.3267
    endloop
  endfacet
  facet normal -0.207912 0.978148 0
    outer loop
      vertex 23.9547 34.9452 -27.3267
      vertex 21.9098 34.5106 -5
      vertex 23.9547 34.9452 -5
    endloop
  endfacet
  facet normal -0.207912 0.978148 0
    outer loop
      vertex 21.9098 34.5106 -5
      vertex 23.9547 34.9452 -27.3267
      vertex 21.9098 34.5106 -27.3267
    endloop
  endfacet
  facet normal -0.866026 0.499999 0
    outer loop
      vertex 16.9098 30.8779 -27.3267
      vertex 16.783 30.6582 -12.0171
      vertex 16.9098 30.8779 -11.7672
    endloop
  endfacet
  facet normal -0.866025 0.5 0
    outer loop
      vertex 15.8645 29.0674 -13.2966
      vertex 16.9098 30.8779 -27.3267
      vertex 15.8645 29.0674 -27.3267
    endloop
  endfacet
  facet normal -0.866025 0.5 9.35095e-09
    outer loop
      vertex 16.9098 30.8779 -27.3267
      vertex 15.8645 29.0674 -13.2966
      vertex 16.783 30.6582 -12.0171
    endloop
  endfacet
  facet normal 0.951056 0.309018 1.62496e-07
    outer loop
      vertex 34.7815 27.0791 -5
      vertex 34.1355 29.0674 -27.3267
      vertex 34.1355 29.0674 -5
    endloop
  endfacet
  facet normal 0.951057 0.309016 0
    outer loop
      vertex 34.1355 29.0674 -27.3267
      vertex 34.7815 27.0791 -5
      vertex 34.7815 27.0791 -27.3267
    endloop
  endfacet
  facet normal 0.406737 0.913545 -8.95469e-08
    outer loop
      vertex 28.0902 34.5106 -27.3267
      vertex 28.8576 34.1689 -5
      vertex 30 33.6603 -27.3267
    endloop
  endfacet
  facet normal 0.406735 0.913546 0
    outer loop
      vertex 28.8576 34.1689 -5
      vertex 28.0902 34.5106 -27.3267
      vertex 28.0902 34.5106 -5
    endloop
  endfacet
  facet normal 0.743144 0.669131 -1.14327e-07
    outer loop
      vertex 33.0902 30.8779 -5
      vertex 31.6913 32.4314 -27.3267
      vertex 31.6913 32.4314 -5
    endloop
  endfacet
  facet normal 0.743144 0.669132 -5.71634e-08
    outer loop
      vertex 31.6913 32.4314 -27.3267
      vertex 33.0902 30.8779 -5
      vertex 33.0902 30.8779 -27.3267
    endloop
  endfacet
  facet normal 0 0 -1
    outer loop
      vertex 34.7815 22.9209 -27.3267
      vertex 34.7815 27.0791 -27.3267
      vertex 35 25 -27.3267
    endloop
  endfacet
  facet normal 0 0 -1
    outer loop
      vertex 34.1355 20.9326 -27.3267
      vertex 34.7815 27.0791 -27.3267
      vertex 34.7815 22.9209 -27.3267
    endloop
  endfacet
  facet normal 0 0 -1
    outer loop
      vertex 34.1355 20.9326 -27.3267
      vertex 34.1355 29.0674 -27.3267
      vertex 34.7815 27.0791 -27.3267
    endloop
  endfacet
  facet normal 0 0 -1
    outer loop
      vertex 33.0902 19.1221 -27.3267
      vertex 34.1355 29.0674 -27.3267
      vertex 34.1355 20.9326 -27.3267
    endloop
  endfacet
  facet normal 0 0 -1
    outer loop
      vertex 33.0902 19.1221 -27.3267
      vertex 33.0902 30.8779 -27.3267
      vertex 34.1355 29.0674 -27.3267
    endloop
  endfacet
  facet normal 0 0 -1
    outer loop
      vertex 31.6913 17.5686 -27.3267
      vertex 33.0902 30.8779 -27.3267
      vertex 33.0902 19.1221 -27.3267
    endloop
  endfacet
  facet normal 0 0 -1
    outer loop
      vertex 31.6913 17.5686 -27.3267
      vertex 31.6913 32.4314 -27.3267
      vertex 33.0902 30.8779 -27.3267
    endloop
  endfacet
  facet normal 0 0 -1
    outer loop
      vertex 30 16.3397 -27.3267
      vertex 31.6913 32.4314 -27.3267
      vertex 31.6913 17.5686 -27.3267
    endloop
  endfacet
  facet normal 0 0 -1
    outer loop
      vertex 30 16.3397 -27.3267
      vertex 30 33.6603 -27.3267
      vertex 31.6913 32.4314 -27.3267
    endloop
  endfacet
  facet normal 0 0 -1
    outer loop
      vertex 28.0902 15.4894 -27.3267
      vertex 30 33.6603 -27.3267
      vertex 30 16.3397 -27.3267
    endloop
  endfacet
  facet normal 0 0 -1
    outer loop
      vertex 28.0902 15.4894 -27.3267
      vertex 28.0902 34.5106 -27.3267
      vertex 30 33.6603 -27.3267
    endloop
  endfacet
  facet normal 0 0 -1
    outer loop
      vertex 26.0453 15.0548 -27.3267
      vertex 28.0902 34.5106 -27.3267
      vertex 28.0902 15.4894 -27.3267
    endloop
  endfacet
  facet normal 0 0 -1
    outer loop
      vertex 26.0453 15.0548 -27.3267
      vertex 26.0453 34.9452 -27.3267
      vertex 28.0902 34.5106 -27.3267
    endloop
  endfacet
  facet normal 0 0 -1
    outer loop
      vertex 23.9547 15.0548 -27.3267
      vertex 26.0453 34.9452 -27.3267
      vertex 26.0453 15.0548 -27.3267
    endloop
  endfacet
  facet normal 0 0 -1
    outer loop
      vertex 23.9547 15.0548 -27.3267
      vertex 23.9547 34.9452 -27.3267
      vertex 26.0453 34.9452 -27.3267
    endloop
  endfacet
  facet normal 0 0 -1
    outer loop
      vertex 21.9098 15.4894 -27.3267
      vertex 23.9547 34.9452 -27.3267
      vertex 23.9547 15.0548 -27.3267
    endloop
  endfacet
  facet normal 0 0 -1
    outer loop
      vertex 21.9098 15.4894 -27.3267
      vertex 21.9098 34.5106 -27.3267
      vertex 23.9547 34.9452 -27.3267
    endloop
  endfacet
  facet normal 0 0 -1
    outer loop
      vertex 20 16.3397 -27.3267
      vertex 21.9098 34.5106 -27.3267
      vertex 21.9098 15.4894 -27.3267
    endloop
  endfacet
  facet normal 0 0 -1
    outer loop
      vertex 20 16.3397 -27.3267
      vertex 20 33.6603 -27.3267
      vertex 21.9098 34.5106 -27.3267
    endloop
  endfacet
  facet normal 0 0 -1
    outer loop
      vertex 18.3087 17.5686 -27.3267
      vertex 20 33.6603 -27.3267
      vertex 20 16.3397 -27.3267
    endloop
  endfacet
  facet normal 0 0 -1
    outer loop
      vertex 18.3087 17.5686 -27.3267
      vertex 18.3087 32.4314 -27.3267
      vertex 20 33.6603 -27.3267
    endloop
  endfacet
  facet normal 0 0 -1
    outer loop
      vertex 16.9098 19.1221 -27.3267
      vertex 18.3087 32.4314 -27.3267
      vertex 18.3087 17.5686 -27.3267
    endloop
  endfacet
  facet normal 0 0 -1
    outer loop
      vertex 16.9098 19.1221 -27.3267
      vertex 16.9098 30.8779 -27.3267
      vertex 18.3087 32.4314 -27.3267
    endloop
  endfacet
  facet normal 0 0 -1
    outer loop
      vertex 15.8645 20.9326 -27.3267
      vertex 16.9098 30.8779 -27.3267
      vertex 16.9098 19.1221 -27.3267
    endloop
  endfacet
  facet normal 0 0 -1
    outer loop
      vertex 15.8645 20.9326 -27.3267
      vertex 15.8645 29.0674 -27.3267
      vertex 16.9098 30.8779 -27.3267
    endloop
  endfacet
  facet normal 0 0 -1
    outer loop
      vertex 15.2185 22.9209 -27.3267
      vertex 15.8645 29.0674 -27.3267
      vertex 15.8645 20.9326 -27.3267
    endloop
  endfacet
  facet normal 0 0 -1
    outer loop
      vertex 15.2185 22.9209 -27.3267
      vertex 15.2185 27.0791 -27.3267
      vertex 15.8645 29.0674 -27.3267
    endloop
  endfacet
  facet normal 0 -0 -1
    outer loop
      vertex 15.2185 27.0791 -27.3267
      vertex 15.2185 22.9209 -27.3267
      vertex 15 25 -27.3267
    endloop
  endfacet
  facet normal -0.406737 -0.913545 -3.34651e-07
    outer loop
      vertex 20.8244 15.9727 -6.11214
      vertex 21.9098 15.4894 -5
      vertex 21.5459 15.6515 -5
    endloop
  endfacet
  facet normal -0.406737 -0.913545 -0
    outer loop
      vertex 21.9098 15.4894 -5
      vertex 20.8244 15.9727 -6.11214
      vertex 21.9098 15.4894 -27.3267
    endloop
  endfacet
  facet normal -0.406737 -0.913545 -3.86364e-08
    outer loop
      vertex 21.9098 15.4894 -27.3267
      vertex 20 16.3397 -7.2474
      vertex 20 16.3397 -27.3267
    endloop
  endfacet
  facet normal -0.406735 -0.913546 1.52159e-07
    outer loop
      vertex 20 16.3397 -7.2474
      vertex 21.9098 15.4894 -27.3267
      vertex 20.295 16.2084 -6.92815
    endloop
  endfacet
  facet normal -0.406737 -0.913545 -2.29049e-08
    outer loop
      vertex 20.295 16.2084 -6.92815
      vertex 21.9098 15.4894 -27.3267
      vertex 20.8244 15.9727 -6.11214
    endloop
  endfacet
  facet normal -0.587785 -0.809017 -1.75655e-08
    outer loop
      vertex 18.5527 17.3913 -9.44987
      vertex 18.3087 17.5686 -27.3267
      vertex 19.1606 16.9496 -8.52472
    endloop
  endfacet
  facet normal -0.587786 -0.809017 0
    outer loop
      vertex 18.3087 17.5686 -27.3267
      vertex 18.5527 17.3913 -9.44987
      vertex 18.3087 17.5686 -9.72482
    endloop
  endfacet
  facet normal -0.866026 -0.5 0
    outer loop
      vertex 16.9098 19.1221 -27.3267
      vertex 15.8645 20.9326 -13.2986
      vertex 15.8645 20.9326 -27.3267
    endloop
  endfacet
  facet normal -0.866026 -0.499998 -2.08923e-07
    outer loop
      vertex 15.8645 20.9326 -13.2986
      vertex 16.9098 19.1221 -27.3267
      vertex 16.0055 20.6884 -13.1512
    endloop
  endfacet
  facet normal -0.866026 -0.5 0
    outer loop
      vertex 16.0055 20.6884 -13.1512
      vertex 16.9098 19.1221 -27.3267
      vertex 16.9098 19.1221 -11.7709
    endloop
  endfacet
  facet normal -0.587787 0.809016 0
    outer loop
      vertex 19.1606 33.0504 -8.52502
      vertex 18.3087 32.4314 -27.3267
      vertex 18.3087 32.4314 -9.71794
    endloop
  endfacet
  facet normal -0.743141 0.669135 0
    outer loop
      vertex 18.3087 32.4314 -27.3267
      vertex 18.1442 32.2488 -10.0363
      vertex 18.3087 32.4314 -9.71794
    endloop
  endfacet
  facet normal -0.743144 0.669131 0
    outer loop
      vertex 16.9098 30.8779 -11.7672
      vertex 18.3087 32.4314 -27.3267
      vertex 16.9098 30.8779 -27.3267
    endloop
  endfacet
  facet normal -0.743145 0.669131 -7.27506e-08
    outer loop
      vertex 18.3087 32.4314 -27.3267
      vertex 16.9098 30.8779 -11.7672
      vertex 18.1442 32.2488 -10.0363
    endloop
  endfacet
  facet normal -0.406739 0.913544 -2.54328e-07
    outer loop
      vertex 21.9098 34.5106 -27.3267
      vertex 20 33.6603 -7.23289
      vertex 20.8234 34.0268 -6.09208
    endloop
  endfacet
  facet normal -0.406737 0.913545 -3.86085e-08
    outer loop
      vertex 20 33.6603 -7.23289
      vertex 21.9098 34.5106 -27.3267
      vertex 20 33.6603 -27.3267
    endloop
  endfacet
  facet normal 0.207912 0.978148 -0
    outer loop
      vertex 28.0902 34.5106 -27.3267
      vertex 26.0453 34.9452 -5
      vertex 28.0902 34.5106 -5
    endloop
  endfacet
  facet normal 0.207912 0.978148 0
    outer loop
      vertex 26.0453 34.9452 -5
      vertex 28.0902 34.5106 -27.3267
      vertex 26.0453 34.9452 -27.3267
    endloop
  endfacet
  facet normal 0.587782 0.809019 -1.38228e-07
    outer loop
      vertex 31.6913 32.4314 -27.3267
      vertex 31.0116 32.9253 -5
      vertex 31.6913 32.4314 -5
    endloop
  endfacet
  facet normal 0.587785 0.809017 1.74079e-08
    outer loop
      vertex 31.0116 32.9253 -5
      vertex 31.6913 32.4314 -27.3267
      vertex 30 33.6603 -27.3267
    endloop
  endfacet
  facet normal -0.743144 -0.669131 0
    outer loop
      vertex 18.3087 17.5686 -27.3267
      vertex 16.9098 19.1221 -11.7709
      vertex 16.9098 19.1221 -27.3267
    endloop
  endfacet
  facet normal -0.743145 -0.669131 -1.05674e-07
    outer loop
      vertex 16.9098 19.1221 -11.7709
      vertex 18.3087 17.5686 -27.3267
      vertex 17.1038 18.9067 -11.5541
    endloop
  endfacet
  facet normal -0.743144 -0.669131 0
    outer loop
      vertex 17.1038 18.9067 -11.5541
      vertex 18.3087 17.5686 -27.3267
      vertex 18.3087 17.5686 -9.72482
    endloop
  endfacet
  facet normal -0.951057 -0.309017 0
    outer loop
      vertex 15.8645 20.9326 -27.3267
      vertex 15.2185 22.9209 -14.2424
      vertex 15.2185 22.9209 -27.3267
    endloop
  endfacet
  facet normal -0.951057 -0.309015 -2.36819e-07
    outer loop
      vertex 15.2185 22.9209 -14.2424
      vertex 15.8645 20.9326 -27.3267
      vertex 15.3038 22.6586 -14.1722
    endloop
  endfacet
  facet normal -0.951056 -0.309017 0
    outer loop
      vertex 15.3038 22.6586 -14.1722
      vertex 15.8645 20.9326 -27.3267
      vertex 15.8645 20.9326 -13.2986
    endloop
  endfacet
  facet normal -0.951057 -0.309016 -0
    outer loop
      vertex 15.2185 22.9209 -11.9541
      vertex 15.2185 22.9209 -12.4218
      vertex 15.2686 22.7669 -12.003
    endloop
  endfacet
  facet normal -0.994522 -0.104529 0
    outer loop
      vertex 15.1427 23.6423 -14.3741
      vertex 15.2185 22.9209 -27.3267
      vertex 15.2185 22.9209 -14.2424
    endloop
  endfacet
  facet normal -0.994522 -0.104529 1.29863e-07
    outer loop
      vertex 15.2185 22.9209 -12.4218
      vertex 15.1265 23.7968 -11.6015
      vertex 15.1424 23.6449 -14.329
    endloop
  endfacet
  facet normal -0.994522 -0.104529 0
    outer loop
      vertex 15.1265 23.7968 -11.6015
      vertex 15.2185 22.9209 -12.4218
      vertex 15.2185 22.9209 -11.9541
    endloop
  endfacet
  facet normal -0.994522 -0.104528 0
    outer loop
      vertex 15.1405 23.6635 -14.378
      vertex 15 25 -11.1171
      vertex 15 25 -27.3267
    endloop
  endfacet
  facet normal -0.994523 -0.104514 -5.86892e-06
    outer loop
      vertex 15.1424 23.6449 -14.329
      vertex 15 25 -11.1171
      vertex 15.1405 23.6635 -14.378
    endloop
  endfacet
  facet normal -0.994522 -0.104528 3.06089e-09
    outer loop
      vertex 15.2185 22.9209 -27.3267
      vertex 15.1405 23.6635 -14.378
      vertex 15 25 -27.3267
    endloop
  endfacet
  facet normal -0.994525 -0.1045 -1.62392e-06
    outer loop
      vertex 15.1405 23.6635 -14.378
      vertex 15.2185 22.9209 -27.3267
      vertex 15.1427 23.6423 -14.3741
    endloop
  endfacet
  facet normal -0.994522 -0.104528 1.01685e-07
    outer loop
      vertex 15 25 -11.1171
      vertex 15.1424 23.6449 -14.329
      vertex 15.1265 23.7968 -11.6015
    endloop
  endfacet
  facet normal 0 0 1
    outer loop
      vertex 22.1952 26.5097 -5
      vertex 21.5725 30.0416 -5
      vertex 21.6779 26.4326 -5
    endloop
  endfacet
  facet normal 0 0 1
    outer loop
      vertex 27.8961 22.9721 -5
      vertex 26.9332 21.8481 -5
      vertex 30.4167 21.25 -5
    endloop
  endfacet
  facet normal 0 0 1
    outer loop
      vertex 30.4167 21.25 -5
      vertex 26.9332 21.8481 -5
      vertex 28.0902 15.4894 -5
    endloop
  endfacet
  facet normal 0 0 1
    outer loop
      vertex 26.9332 21.8481 -5
      vertex 26.0453 15.0548 -5
      vertex 28.0902 15.4894 -5
    endloop
  endfacet
  facet normal -0 0 1
    outer loop
      vertex 22.9721 22.1039 -5
      vertex 26.9332 21.8481 -5
      vertex 26.0232 22.6419 -5
    endloop
  endfacet
  facet normal 0 -0 1
    outer loop
      vertex 23.9547 15.0548 -5
      vertex 26.9332 21.8481 -5
      vertex 22.9721 22.1039 -5
    endloop
  endfacet
  facet normal 0 0 1
    outer loop
      vertex 26.9332 21.8481 -5
      vertex 23.9547 15.0548 -5
      vertex 26.0453 15.0548 -5
    endloop
  endfacet
  facet normal 0 0 1
    outer loop
      vertex 21.6779 26.4326 -5
      vertex 22.9721 22.1039 -5
      vertex 22.3053 25.8852 -5
    endloop
  endfacet
  facet normal 0 -0 1
    outer loop
      vertex 21.9098 15.4894 -5
      vertex 22.9721 22.1039 -5
      vertex 21.5725 15.6554 -5
    endloop
  endfacet
  facet normal 0 0 1
    outer loop
      vertex 22.9721 22.1039 -5
      vertex 21.6779 26.4326 -5
      vertex 21.5725 15.6554 -5
    endloop
  endfacet
  facet normal 0 0 1
    outer loop
      vertex 21.5725 15.6554 -5
      vertex 21.6779 26.4326 -5
      vertex 21.5725 30.0416 -5
    endloop
  endfacet
  facet normal 0 0 1
    outer loop
      vertex 22.9721 22.1039 -5
      vertex 21.9098 15.4894 -5
      vertex 23.9547 15.0548 -5
    endloop
  endfacet
  facet normal 0 0 1
    outer loop
      vertex 21.9098 15.4894 -5
      vertex 21.5725 15.6554 -5
      vertex 21.5459 15.6515 -5
    endloop
  endfacet
  facet normal 0 0 1
    outer loop
      vertex 32.9167 23.75 -5
      vertex 35 25 -5
      vertex 34.7815 27.0791 -5
    endloop
  endfacet
  facet normal 0 0 1
    outer loop
      vertex 30.4167 23.75 -5
      vertex 34.7815 27.0791 -5
      vertex 34.1355 29.0674 -5
    endloop
  endfacet
  facet normal 0 0 1
    outer loop
      vertex 35 25 -5
      vertex 32.9167 23.75 -5
      vertex 34.7815 22.9209 -5
    endloop
  endfacet
  facet normal 0 0 1
    outer loop
      vertex 30.4167 23.75 -5
      vertex 34.1355 29.0674 -5
      vertex 33.0902 30.8779 -5
    endloop
  endfacet
  facet normal 0 0 1
    outer loop
      vertex 32.9167 21.25 -5
      vertex 34.7815 22.9209 -5
      vertex 32.9167 23.75 -5
    endloop
  endfacet
  facet normal 0 0 1
    outer loop
      vertex 34.7815 22.9209 -5
      vertex 32.9167 21.25 -5
      vertex 34.1355 20.9326 -5
    endloop
  endfacet
  facet normal 0 0 1
    outer loop
      vertex 30.4167 23.75 -5
      vertex 33.0902 30.8779 -5
      vertex 31.6913 32.4314 -5
    endloop
  endfacet
  facet normal -0 0 1
    outer loop
      vertex 26.1597 32.8202 -5
      vertex 31.6913 32.4314 -5
      vertex 31.0116 32.9253 -5
    endloop
  endfacet
  facet normal 0 0 1
    outer loop
      vertex 34.7815 27.0791 -5
      vertex 30.4167 23.75 -5
      vertex 32.9167 23.75 -5
    endloop
  endfacet
  facet normal 0 0 1
    outer loop
      vertex 31.6913 32.4314 -5
      vertex 26.1597 32.8202 -5
      vertex 30.4167 23.75 -5
    endloop
  endfacet
  facet normal 0 0 1
    outer loop
      vertex 26.1597 32.8202 -5
      vertex 31.0116 32.9253 -5
      vertex 30 33.6603 -5
    endloop
  endfacet
  facet normal 0 0 1
    outer loop
      vertex 34.1355 20.9326 -5
      vertex 32.9167 21.25 -5
      vertex 33.0902 19.1221 -5
    endloop
  endfacet
  facet normal -0 0 1
    outer loop
      vertex 30.4167 21.25 -5
      vertex 33.0902 19.1221 -5
      vertex 32.9167 21.25 -5
    endloop
  endfacet
  facet normal 0 0 1
    outer loop
      vertex 33.0902 19.1221 -5
      vertex 30.4167 21.25 -5
      vertex 31.6913 17.5686 -5
    endloop
  endfacet
  facet normal 0 0 1
    outer loop
      vertex 30.4167 21.25 -5
      vertex 30 16.3397 -5
      vertex 31.6913 17.5686 -5
    endloop
  endfacet
  facet normal 0 0 1
    outer loop
      vertex 30.4167 23.75 -5
      vertex 27.8961 22.9721 -5
      vertex 30.4167 21.25 -5
    endloop
  endfacet
  facet normal 0 0 1
    outer loop
      vertex 26.1597 32.8202 -5
      vertex 30 33.6603 -5
      vertex 28.8576 34.1689 -5
    endloop
  endfacet
  facet normal 0 0 1
    outer loop
      vertex 26.1597 32.8202 -5
      vertex 28.8576 34.1689 -5
      vertex 28.0902 34.5106 -5
    endloop
  endfacet
  facet normal 0 0 1
    outer loop
      vertex 26.9332 21.8481 -5
      vertex 27.8961 22.9721 -5
      vertex 26.9332 22.8023 -5
    endloop
  endfacet
  facet normal 0 0 1
    outer loop
      vertex 30.4167 21.25 -5
      vertex 28.0902 15.4894 -5
      vertex 30 16.3397 -5
    endloop
  endfacet
  facet normal 0 0 1
    outer loop
      vertex 30.4167 23.75 -5
      vertex 26.1597 32.8202 -5
      vertex 27.8961 22.9721 -5
    endloop
  endfacet
  facet normal 0 0 1
    outer loop
      vertex 26.0453 34.9452 -5
      vertex 26.1597 32.8202 -5
      vertex 28.0902 34.5106 -5
    endloop
  endfacet
  facet normal -0 0 1
    outer loop
      vertex 23.9547 34.9452 -5
      vertex 26.1597 32.8202 -5
      vertex 26.0453 34.9452 -5
    endloop
  endfacet
  facet normal 0 0 1
    outer loop
      vertex 21.5725 32.0113 -5
      vertex 23.9547 34.9452 -5
      vertex 21.9098 34.5106 -5
    endloop
  endfacet
  facet normal 0 0 1
    outer loop
      vertex 21.5725 32.0113 -5
      vertex 21.9098 34.5106 -5
      vertex 21.5725 34.3604 -5
    endloop
  endfacet
  facet normal 0 0 1
    outer loop
      vertex 23.9547 34.9452 -5
      vertex 21.5725 32.0113 -5
      vertex 26.1597 32.8202 -5
    endloop
  endfacet
  facet normal -1.89515e-16 -1.9563e-17 1
    outer loop
      vertex 26.1597 32.8202 3.72759e-16
      vertex 22.9721 22.1039 -4.40974e-16
      vertex 27.8961 22.9721 5.0919e-16
    endloop
  endfacet
  facet normal -1.89515e-16 -1.9563e-17 1
    outer loop
      vertex 22.9721 22.1039 -4.40974e-16
      vertex 26.1597 32.8202 3.72759e-16
      vertex 21.2356 31.9519 -5.77406e-16
    endloop
  endfacet
  facet normal 0.984808 0.173648 0
    outer loop
      vertex 27.8961 22.9721 5.0919e-16
      vertex 26.1597 32.8202 -5
      vertex 26.1597 32.8202 3.72759e-16
    endloop
  endfacet
  facet normal 0.984808 0.173648 0
    outer loop
      vertex 26.1597 32.8202 -5
      vertex 27.8961 22.9721 5.0919e-16
      vertex 27.8961 22.9721 -5
    endloop
  endfacet
  facet normal -0.173648 0.984808 0
    outer loop
      vertex 26.1597 32.8202 3.72759e-16
      vertex 21.2356 31.9519 -4.12879
      vertex 21.2356 31.9519 -5.77406e-16
    endloop
  endfacet
  facet normal -0.173648 0.984808 0
    outer loop
      vertex 26.1597 32.8202 -5
      vertex 21.2356 31.9519 -4.12879
      vertex 26.1597 32.8202 3.72759e-16
    endloop
  endfacet
  facet normal -0.173649 0.984808 -5.16235e-07
    outer loop
      vertex 21.2356 31.9519 -4.12879
      vertex 26.1597 32.8202 -5
      vertex 21.5725 32.0113 -5
    endloop
  endfacet
  facet normal -0.984808 -0.173648 0
    outer loop
      vertex 21.5725 30.0416 -5
      vertex 21.2356 31.9519 -5.77406e-16
      vertex 21.2356 31.9519 -4.12879
    endloop
  endfacet
  facet normal -0.984808 -0.173648 -8.11559e-07
    outer loop
      vertex 22.2088 26.4326 -4.79473
      vertex 21.5725 30.0416 -5
      vertex 22.1952 26.5097 -5
    endloop
  endfacet
  facet normal -0.984808 -0.173648 -1.32258e-08
    outer loop
      vertex 21.5725 30.0416 -5
      vertex 22.2088 26.4326 -4.79473
      vertex 21.2356 31.9519 -5.77406e-16
    endloop
  endfacet
  facet normal -0.984808 -0.173647 8.14498e-07
    outer loop
      vertex 22.9721 22.1039 -4.40974e-16
      vertex 22.2088 26.4326 -4.79473
      vertex 22.3053 25.8852 -5
    endloop
  endfacet
  facet normal -0.984808 -0.173648 -0
    outer loop
      vertex 22.9721 22.1039 -4.40974e-16
      vertex 22.3053 25.8852 -5
      vertex 22.9721 22.1039 -5
    endloop
  endfacet
  facet normal -0.984808 -0.173648 -1.81414e-07
    outer loop
      vertex 22.2088 26.4326 -4.79473
      vertex 22.9721 22.1039 -4.40974e-16
      vertex 21.2356 31.9519 -5.77406e-16
    endloop
  endfacet
  facet normal 0.173648 -0.984808 0
    outer loop
      vertex 26.0232 22.6419 -5
      vertex 22.9721 22.1039 -4.40974e-16
      vertex 22.9721 22.1039 -5
    endloop
  endfacet
  facet normal 0.173648 -0.984808 2.18387e-07
    outer loop
      vertex 22.9721 22.1039 -4.40974e-16
      vertex 26.0232 22.6419 -5
      vertex 26.7945 22.7779 -4.64151
    endloop
  endfacet
  facet normal 0.173648 -0.984808 8.94973e-08
    outer loop
      vertex 26.7945 22.7779 -4.64151
      vertex 27.8961 22.9721 5.0919e-16
      vertex 22.9721 22.1039 -4.40974e-16
    endloop
  endfacet
  facet normal 0.173648 -0.984808 -2.83204e-06
    outer loop
      vertex 27.8961 22.9721 -5
      vertex 26.7945 22.7779 -4.64151
      vertex 26.9332 22.8023 -5
    endloop
  endfacet
  facet normal 0.173648 -0.984808 0
    outer loop
      vertex 26.7945 22.7779 -4.64151
      vertex 27.8961 22.9721 -5
      vertex 27.8961 22.9721 5.0919e-16
    endloop
  endfacet
  facet normal -1.89515e-16 -1.9563e-17 1
    outer loop
      vertex 30.4167 23.75 1.00209e-15
      vertex 32.9167 21.25 1.42697e-15
      vertex 32.9167 23.75 1.47587e-15
    endloop
  endfacet
  facet normal -1.89515e-16 -1.9563e-17 1
    outer loop
      vertex 32.9167 21.25 1.42697e-15
      vertex 30.4167 23.75 1.00209e-15
      vertex 30.4167 21.25 9.53178e-16
    endloop
  endfacet
  facet normal 1 -0 0
    outer loop
      vertex 32.9167 21.25 1.42697e-15
      vertex 32.9167 23.75 -5
      vertex 32.9167 23.75 1.47587e-15
    endloop
  endfacet
  facet normal 1 0 0
    outer loop
      vertex 32.9167 23.75 -5
      vertex 32.9167 21.25 1.42697e-15
      vertex 32.9167 21.25 -5
    endloop
  endfacet
  facet normal -1 0 0
    outer loop
      vertex 30.4167 21.25 -5
      vertex 30.4167 23.75 1.00209e-15
      vertex 30.4167 23.75 -5
    endloop
  endfacet
  facet normal -1 0 0
    outer loop
      vertex 30.4167 23.75 1.00209e-15
      vertex 30.4167 21.25 -5
      vertex 30.4167 21.25 9.53178e-16
    endloop
  endfacet
  facet normal 0 -1 0
    outer loop
      vertex 30.4167 21.25 -5
      vertex 32.9167 21.25 1.42697e-15
      vertex 30.4167 21.25 9.53178e-16
    endloop
  endfacet
  facet normal 0 -1 -0
    outer loop
      vertex 32.9167 21.25 1.42697e-15
      vertex 30.4167 21.25 -5
      vertex 32.9167 21.25 -5
    endloop
  endfacet
  facet normal 0 1 -0
    outer loop
      vertex 32.9167 23.75 -5
      vertex 30.4167 23.75 1.00209e-15
      vertex 32.9167 23.75 1.47587e-15
    endloop
  endfacet
  facet normal 0 1 0
    outer loop
      vertex 30.4167 23.75 1.00209e-15
      vertex 32.9167 23.75 -5
      vertex 30.4167 23.75 -5
    endloop
  endfacet
  facet normal -0.932714 -5.56206e-07 -0.360616
    outer loop
      vertex 23.8423 22.6586 -10.871
      vertex 23.1081 22.7669 -8.97198
      vertex 23.8903 23.6635 -10.995
    endloop
  endfacet
  facet normal -0.932714 2.23548e-07 -0.360616
    outer loop
      vertex 23.5902 20.6884 -10.2187
      vertex 23.1081 22.7669 -8.97198
      vertex 23.8423 22.6586 -10.871
    endloop
  endfacet
  facet normal -0.932715 -2.27303e-07 -0.360616
    outer loop
      vertex 23.1081 22.7669 -8.97198
      vertex 23.5902 20.6884 -10.2187
      vertex 22.275 21.8118 -6.81706
    endloop
  endfacet
  facet normal -0.932714 3.38082e-07 -0.360616
    outer loop
      vertex 21.5725 32.0113 -5
      vertex 21.5861 34.3664 -5.03526
      vertex 22.2228 33.5227 -6.6822
    endloop
  endfacet
  facet normal -0.932714 9.53946e-07 -0.360616
    outer loop
      vertex 21.5725 32.0113 -5
      vertex 22.2228 33.5227 -6.6822
      vertex 22.8206 32.2488 -8.22831
    endloop
  endfacet
  facet normal -0.932707 0 -0.360636
    outer loop
      vertex 21.5861 34.3664 -5.03526
      vertex 21.5725 32.0113 -5
      vertex 21.5725 34.3604 -5
    endloop
  endfacet
  facet normal -0.932714 1.35528e-07 -0.360616
    outer loop
      vertex 21.5725 30.0416 -5
      vertex 22.8206 32.2488 -8.22831
      vertex 23.3098 30.6582 -9.49361
    endloop
  endfacet
  facet normal -0.932714 0 -0.360616
    outer loop
      vertex 22.8206 32.2488 -8.22831
      vertex 21.5725 30.0416 -5
      vertex 21.5725 32.0113 -5
    endloop
  endfacet
  facet normal -0.932714 -0 -0.360616
    outer loop
      vertex 21.5725 32.0113 -5
      vertex 21.5725 30.0416 -5
      vertex 21.2356 31.9519 -4.12879
    endloop
  endfacet
  facet normal -0.932714 -4.4927e-07 -0.360616
    outer loop
      vertex 22.4193 27.3876 -7.1904
      vertex 23.3098 30.6582 -9.49361
      vertex 23.6691 28.8202 -10.4228
    endloop
  endfacet
  facet normal -0.932714 -1.46818e-07 -0.360616
    outer loop
      vertex 23.3098 30.6582 -9.49361
      vertex 22.4193 27.3876 -7.1904
      vertex 21.5725 30.0416 -5
    endloop
  endfacet
  facet normal -0.932714 -2.68726e-07 -0.360616
    outer loop
      vertex 21.5862 26.4326 -5.03547
      vertex 21.5725 30.0416 -5
      vertex 22.4193 27.3876 -7.1904
    endloop
  endfacet
  facet normal -0.932715 -3.07106e-07 -0.360616
    outer loop
      vertex 23.1958 18.9067 -9.19873
      vertex 22.275 21.8118 -6.81706
      vertex 23.5902 20.6884 -10.2187
    endloop
  endfacet
  facet normal -0.932714 3.39003e-07 -0.360616
    outer loop
      vertex 22.6765 17.3913 -7.85549
      vertex 22.275 21.8118 -6.81706
      vertex 23.1958 18.9067 -9.19873
    endloop
  endfacet
  facet normal -0.932715 -1.05627e-08 -0.360615
    outer loop
      vertex 22.0549 16.2084 -6.24773
      vertex 22.275 21.8118 -6.81706
      vertex 22.6765 17.3913 -7.85549
    endloop
  endfacet
  facet normal -0.932714 -2.38133e-07 -0.360617
    outer loop
      vertex 21.5725 15.6554 -5
      vertex 22.275 21.8118 -6.81706
      vertex 22.0549 16.2084 -6.24773
    endloop
  endfacet
  facet normal -0.932705 0 -0.36064
    outer loop
      vertex 21.5862 26.4326 -5.03547
      vertex 21.5725 15.6554 -5
      vertex 21.5725 30.0416 -5
    endloop
  endfacet
  facet normal -0.932714 8.89807e-08 -0.360616
    outer loop
      vertex 22.275 21.8118 -6.81706
      vertex 21.5725 15.6554 -5
      vertex 21.5862 26.4326 -5.03547
    endloop
  endfacet
  facet normal -0.137763 0.924154 0.356317
    outer loop
      vertex 23.6691 28.8202 -10.4228
      vertex 15.3188 27.3876 -9.9357
      vertex 22.4193 27.3876 -7.1904
    endloop
  endfacet
  facet normal -0.137763 0.924154 0.356317
    outer loop
      vertex 15.3188 27.3876 -9.9357
      vertex 23.6691 28.8202 -10.4228
      vertex 15.7842 28.8202 -13.4713
    endloop
  endfacet
  facet normal -0.333264 -0.382021 0.861971
    outer loop
      vertex 27.0829 27.3876 -5.38732
      vertex 23.1081 22.7669 -8.97198
      vertex 27.7717 22.7669 -7.1689
    endloop
  endfacet
  facet normal -0.333264 -0.382021 0.861971
    outer loop
      vertex 22.4193 27.3876 -7.1904
      vertex 23.1081 22.7669 -8.97198
      vertex 27.0829 27.3876 -5.38732
    endloop
  endfacet
  facet normal -0.333265 -0.38202 0.861972
    outer loop
      vertex 15.1204 26.1454 -10.563
      vertex 22.4193 27.3876 -7.1904
      vertex 15.3188 27.3876 -9.9357
    endloop
  endfacet
  facet normal -0.333264 -0.382022 0.861971
    outer loop
      vertex 15 25 -11.1171
      vertex 22.4193 27.3876 -7.1904
      vertex 15.1204 26.1454 -10.563
    endloop
  endfacet
  facet normal -0.333256 -0.382023 0.861974
    outer loop
      vertex 15.1204 26.1454 -10.563
      vertex 15.3188 27.3876 -9.9357
      vertex 15.2185 27.0791 -10.1112
    endloop
  endfacet
  facet normal -0.333265 -0.38202 0.861972
    outer loop
      vertex 15.1265 23.7968 -11.6015
      vertex 22.4193 27.3876 -7.1904
      vertex 15 25 -11.1171
    endloop
  endfacet
  facet normal -0.333274 -0.382021 0.861968
    outer loop
      vertex 15.2686 22.7669 -12.003
      vertex 15.1265 23.7968 -11.6015
      vertex 15.2185 22.9209 -11.9541
    endloop
  endfacet
  facet normal -0.333264 -0.382021 0.861971
    outer loop
      vertex 23.1081 22.7669 -8.97198
      vertex 15.1265 23.7968 -11.6015
      vertex 15.2686 22.7669 -12.003
    endloop
  endfacet
  facet normal -0.333264 -0.382021 0.861971
    outer loop
      vertex 22.4193 27.3876 -7.1904
      vertex 15.1265 23.7968 -11.6015
      vertex 23.1081 22.7669 -8.97198
    endloop
  endfacet
  facet normal 0.137763 -0.924153 -0.356317
    outer loop
      vertex 15.2686 22.7669 -12.003
      vertex 23.8903 23.6635 -10.995
      vertex 23.1081 22.7669 -8.97198
    endloop
  endfacet
  facet normal 0.137763 -0.924153 -0.356318
    outer loop
      vertex 15.2185 22.9209 -12.4218
      vertex 23.8903 23.6635 -10.995
      vertex 15.2686 22.7669 -12.003
    endloop
  endfacet
  facet normal 0.137763 -0.924154 -0.356317
    outer loop
      vertex 15.1424 23.6449 -14.329
      vertex 23.8903 23.6635 -10.995
      vertex 15.2185 22.9209 -12.4218
    endloop
  endfacet
  facet normal 0.137771 -0.924145 -0.356337
    outer loop
      vertex 23.8903 23.6635 -10.995
      vertex 15.1424 23.6449 -14.329
      vertex 15.1405 23.6635 -14.378
    endloop
  endfacet
  facet normal -0.30734 0.523109 0.79492
    outer loop
      vertex 23.5902 20.6884 -10.2187
      vertex 17.1038 18.9067 -11.5541
      vertex 23.1958 18.9067 -9.19873
    endloop
  endfacet
  facet normal -0.30734 0.523109 0.794921
    outer loop
      vertex 23.5902 20.6884 -10.2187
      vertex 16.9098 19.1221 -11.7709
      vertex 17.1038 18.9067 -11.5541
    endloop
  endfacet
  facet normal -0.30734 0.523109 0.79492
    outer loop
      vertex 16.9098 19.1221 -11.7709
      vertex 23.5902 20.6884 -10.2187
      vertex 16.0055 20.6884 -13.1512
    endloop
  endfacet
  facet normal -0.357497 0.131236 0.924648
    outer loop
      vertex 23.8903 23.6635 -10.995
      vertex 15.3038 22.6586 -14.1722
      vertex 23.8423 22.6586 -10.871
    endloop
  endfacet
  facet normal -0.357497 0.131236 0.924647
    outer loop
      vertex 15.1427 23.6423 -14.3741
      vertex 15.3038 22.6586 -14.1722
      vertex 23.8903 23.6635 -10.995
    endloop
  endfacet
  facet normal -0.357509 0.131234 0.924643
    outer loop
      vertex 15.3038 22.6586 -14.1722
      vertex 15.1427 23.6423 -14.3741
      vertex 15.2185 22.9209 -14.2424
    endloop
  endfacet
  facet normal -0.357497 0.131241 0.924647
    outer loop
      vertex 15.1427 23.6423 -14.3741
      vertex 23.8903 23.6635 -10.995
      vertex 15.1405 23.6635 -14.378
    endloop
  endfacet
  facet normal -0.137793 0.924154 0.356305
    outer loop
      vertex 22.0549 16.2084 -6.24773
      vertex 21.5459 15.6515 -5
      vertex 21.5725 15.6554 -5
    endloop
  endfacet
  facet normal -0.137763 0.924153 0.356317
    outer loop
      vertex 21.5459 15.6515 -5
      vertex 22.0549 16.2084 -6.24773
      vertex 20.8244 15.9727 -6.11214
    endloop
  endfacet
  facet normal -0.137763 0.924153 0.356317
    outer loop
      vertex 20.8244 15.9727 -6.11214
      vertex 22.0549 16.2084 -6.24773
      vertex 20.295 16.2084 -6.92815
    endloop
  endfacet
  facet normal -0.317039 -0.476529 0.820004
    outer loop
      vertex 16.783 30.6582 -12.0171
      vertex 23.6691 28.8202 -10.4228
      vertex 23.3098 30.6582 -9.49361
    endloop
  endfacet
  facet normal -0.317039 -0.476529 0.820004
    outer loop
      vertex 15.8645 29.0674 -13.2966
      vertex 23.6691 28.8202 -10.4228
      vertex 16.783 30.6582 -12.0171
    endloop
  endfacet
  facet normal -0.317038 -0.476531 0.820003
    outer loop
      vertex 23.6691 28.8202 -10.4228
      vertex 15.8645 29.0674 -13.2966
      vertex 15.7842 28.8202 -13.4713
    endloop
  endfacet
  facet normal -0.219734 -0.792916 0.568332
    outer loop
      vertex 19.8106 33.5227 -7.61484
      vertex 22.8206 32.2488 -8.22831
      vertex 22.2228 33.5227 -6.6822
    endloop
  endfacet
  facet normal -0.219734 -0.792916 0.568332
    outer loop
      vertex 19.1606 33.0504 -8.52502
      vertex 22.8206 32.2488 -8.22831
      vertex 19.8106 33.5227 -7.61484
    endloop
  endfacet
  facet normal -0.219734 -0.792916 0.568332
    outer loop
      vertex 18.3087 32.4314 -9.71794
      vertex 22.8206 32.2488 -8.22831
      vertex 19.1606 33.0504 -8.52502
    endloop
  endfacet
  facet normal -0.219733 -0.792918 0.568329
    outer loop
      vertex 22.8206 32.2488 -8.22831
      vertex 18.3087 32.4314 -9.71794
      vertex 18.1442 32.2488 -10.0363
    endloop
  endfacet
  facet normal -0.204042 0.824532 0.527744
    outer loop
      vertex 22.6765 17.3913 -7.85549
      vertex 20.295 16.2084 -6.92815
      vertex 22.0549 16.2084 -6.24773
    endloop
  endfacet
  facet normal -0.204042 0.824533 0.527743
    outer loop
      vertex 20.295 16.2084 -6.92815
      vertex 22.6765 17.3913 -7.85549
      vertex 20 16.3397 -7.2474
    endloop
  endfacet
  facet normal -0.204042 0.824532 0.527744
    outer loop
      vertex 22.6765 17.3913 -7.85549
      vertex 19.1606 16.9496 -8.52472
      vertex 20 16.3397 -7.2474
    endloop
  endfacet
  facet normal -0.204042 0.824533 0.527743
    outer loop
      vertex 19.1606 16.9496 -8.52472
      vertex 22.6765 17.3913 -7.85549
      vertex 18.5527 17.3913 -9.44987
    endloop
  endfacet
  facet normal -0.339845 0.334483 0.878992
    outer loop
      vertex 23.8423 22.6586 -10.871
      vertex 16.0055 20.6884 -13.1512
      vertex 23.5902 20.6884 -10.2187
    endloop
  endfacet
  facet normal -0.339845 0.334482 0.878992
    outer loop
      vertex 23.8423 22.6586 -10.871
      vertex 15.8645 20.9326 -13.2986
      vertex 16.0055 20.6884 -13.1512
    endloop
  endfacet
  facet normal -0.339845 0.334483 0.878992
    outer loop
      vertex 15.8645 20.9326 -13.2986
      vertex 23.8423 22.6586 -10.871
      vertex 15.3038 22.6586 -14.1722
    endloop
  endfacet
  facet normal -0.274382 -0.648903 0.709675
    outer loop
      vertex 18.1442 32.2488 -10.0363
      vertex 23.3098 30.6582 -9.49361
      vertex 22.8206 32.2488 -8.22831
    endloop
  endfacet
  facet normal -0.274382 -0.648903 0.709676
    outer loop
      vertex 16.9098 30.8779 -11.7672
      vertex 23.3098 30.6582 -9.49361
      vertex 18.1442 32.2488 -10.0363
    endloop
  endfacet
  facet normal -0.274381 -0.648907 0.709672
    outer loop
      vertex 23.3098 30.6582 -9.49361
      vertex 16.9098 30.8779 -11.7672
      vertex 16.783 30.6582 -12.0171
    endloop
  endfacet
  facet normal -0.155483 -0.902277 0.402146
    outer loop
      vertex 20.8234 34.0268 -6.09208
      vertex 22.2228 33.5227 -6.6822
      vertex 21.5861 34.3664 -5.03526
    endloop
  endfacet
  facet normal -0.155481 -0.902276 0.402149
    outer loop
      vertex 20 33.6603 -7.23289
      vertex 22.2228 33.5227 -6.6822
      vertex 20.8234 34.0268 -6.09208
    endloop
  endfacet
  facet normal -0.155479 -0.902281 0.402138
    outer loop
      vertex 22.2228 33.5227 -6.6822
      vertex 20 33.6603 -7.23289
      vertex 19.8106 33.5227 -7.61484
    endloop
  endfacet
  facet normal -0.261404 0.688875 0.676106
    outer loop
      vertex 23.1958 18.9067 -9.19873
      vertex 18.5527 17.3913 -9.44987
      vertex 22.6765 17.3913 -7.85549
    endloop
  endfacet
  facet normal -0.261403 0.688873 0.676108
    outer loop
      vertex 23.1958 18.9067 -9.19873
      vertex 18.3087 17.5686 -9.72482
      vertex 18.5527 17.3913 -9.44987
    endloop
  endfacet
  facet normal -0.261403 0.688875 0.676106
    outer loop
      vertex 18.3087 17.5686 -9.72482
      vertex 23.1958 18.9067 -9.19873
      vertex 17.1038 18.9067 -11.5541
    endloop
  endfacet
  facet normal -0.932715 -5.321e-08 -0.360616
    outer loop
      vertex 27.0829 27.3876 -5.38732
      vertex 26.9332 22.8023 -5
      vertex 26.2497 26.4326 -3.23239
    endloop
  endfacet
  facet normal -0.932715 -4.88607e-08 -0.360616
    outer loop
      vertex 27.7717 22.7669 -7.1689
      vertex 26.9332 22.8023 -5
      vertex 27.0829 27.3876 -5.38732
    endloop
  endfacet
  facet normal -0.932715 0 -0.360616
    outer loop
      vertex 27.7717 22.7669 -7.1689
      vertex 26.9332 21.8481 -5
      vertex 26.9332 22.8023 -5
    endloop
  endfacet
  facet normal -0.932714 -2.69248e-06 -0.360617
    outer loop
      vertex 26.9332 21.8481 -5
      vertex 27.7717 22.7669 -7.1689
      vertex 26.9386 21.8118 -5.01398
    endloop
  endfacet
  facet normal -0.932714 1.88542e-07 -0.360616
    outer loop
      vertex 26.2497 26.4326 -3.23239
      vertex 26.9332 22.8023 -5
      vertex 26.7945 22.7779 -4.64151
    endloop
  endfacet
  facet normal 0.137763 -0.924154 -0.356316
    outer loop
      vertex 21.6779 26.4326 -5
      vertex 21.5862 26.4326 -5.03547
      vertex 22.1952 26.5097 -5
    endloop
  endfacet
  facet normal 0.137763 -0.924154 -0.356316
    outer loop
      vertex 22.1952 26.5097 -5
      vertex 26.2497 26.4326 -3.23239
      vertex 22.2088 26.4326 -4.79473
    endloop
  endfacet
  facet normal 0.137763 -0.924153 -0.356317
    outer loop
      vertex 22.1952 26.5097 -5
      vertex 27.0829 27.3876 -5.38732
      vertex 26.2497 26.4326 -3.23239
    endloop
  endfacet
  facet normal 0.137763 -0.924153 -0.356317
    outer loop
      vertex 22.4193 27.3876 -7.1904
      vertex 22.1952 26.5097 -5
      vertex 21.5862 26.4326 -5.03547
    endloop
  endfacet
  facet normal 0.137763 -0.924153 -0.356317
    outer loop
      vertex 22.1952 26.5097 -5
      vertex 22.4193 27.3876 -7.1904
      vertex 27.0829 27.3876 -5.38732
    endloop
  endfacet
  facet normal 0.333268 0.382025 -0.861968
    outer loop
      vertex 26.9386 21.8118 -5.01398
      vertex 26.0232 22.6419 -5
      vertex 26.9332 21.8481 -5
    endloop
  endfacet
  facet normal 0.333264 0.382021 -0.861971
    outer loop
      vertex 22.275 21.8118 -6.81706
      vertex 26.0232 22.6419 -5
      vertex 26.9386 21.8118 -5.01398
    endloop
  endfacet
  facet normal 0.333265 0.382021 -0.861971
    outer loop
      vertex 26.0232 22.6419 -5
      vertex 22.275 21.8118 -6.81706
      vertex 22.3053 25.8852 -5
    endloop
  endfacet
  facet normal 0.333265 0.382021 -0.861971
    outer loop
      vertex 21.5862 26.4326 -5.03547
      vertex 22.3053 25.8852 -5
      vertex 22.275 21.8118 -6.81706
    endloop
  endfacet
  facet normal 0.333265 0.382021 -0.861971
    outer loop
      vertex 22.3053 25.8852 -5
      vertex 21.5862 26.4326 -5.03547
      vertex 21.6779 26.4326 -5
    endloop
  endfacet
  facet normal 0.333265 0.382021 -0.861971
    outer loop
      vertex 26.0232 22.6419 -5
      vertex 26.2497 26.4326 -3.23239
      vertex 26.7945 22.7779 -4.64151
    endloop
  endfacet
  facet normal 0.333264 0.382021 -0.861971
    outer loop
      vertex 22.3053 25.8852 -5
      vertex 26.2497 26.4326 -3.23239
      vertex 26.0232 22.6419 -5
    endloop
  endfacet
  facet normal 0.333264 0.382021 -0.861972
    outer loop
      vertex 26.2497 26.4326 -3.23239
      vertex 22.3053 25.8852 -5
      vertex 22.2088 26.4326 -4.79473
    endloop
  endfacet
  facet normal -0.137763 0.924154 0.356316
    outer loop
      vertex 27.7717 22.7669 -7.1689
      vertex 22.275 21.8118 -6.81706
      vertex 26.9386 21.8118 -5.01398
    endloop
  endfacet
  facet normal -0.137763 0.924154 0.356316
    outer loop
      vertex 22.275 21.8118 -6.81706
      vertex 27.7717 22.7669 -7.1689
      vertex 23.1081 22.7669 -8.97198
    endloop
  endfacet
endsolid OpenSCAD_Model
