solid OpenSCAD_Model
  facet normal -0.994522 0.104529 0
    outer loop
      vertex -9.83224 1.59616 -18.656
      vertex -9.78148 2.07912 -18.4965
      vertex -9.78148 2.07912 -27.3267
    endloop
  endfacet
  facet normal -0.994522 0.104528 -4.23763e-08
    outer loop
      vertex -9.78148 2.07912 -27.3267
      vertex -9.8896 1.05034 -18.8364
      vertex -9.83224 1.59616 -18.656
    endloop
  endfacet
  facet normal -0.994522 0.104528 -2.42689e-08
    outer loop
      vertex -10 -5.54798e-16 -27.3267
      vertex -9.8896 1.05034 -18.8364
      vertex -9.78148 2.07912 -27.3267
    endloop
  endfacet
  facet normal -0.994522 0.104528 0
    outer loop
      vertex -9.8896 1.05034 -18.8364
      vertex -10 -5.54798e-16 -27.3267
      vertex -10 -4.06446e-16 -18.9127
    endloop
  endfacet
  facet normal 0.994522 0.104529 0
    outer loop
      vertex 9.97061 0.279587 -17.3192
      vertex 9.78148 2.07912 -27.3267
      vertex 9.78148 2.07912 -15.6146
    endloop
  endfacet
  facet normal 0.994522 0.104528 -2.04668e-07
    outer loop
      vertex 10 -2.35719e-16 -17.5084
      vertex 9.78148 2.07912 -27.3267
      vertex 9.97061 0.279587 -17.3192
    endloop
  endfacet
  facet normal 0.994522 0.104529 0
    outer loop
      vertex 9.78148 2.07912 -27.3267
      vertex 10 -2.35719e-16 -17.5084
      vertex 10 -4.08832e-16 -27.3267
    endloop
  endfacet
  facet normal 0.994522 0.104531 0
    outer loop
      vertex 9.78148 2.07912 6.35618
      vertex 9.80087 1.89462 -3.33079
      vertex 9.78148 2.07912 -5.65816
    endloop
  endfacet
  facet normal 0.994522 0.104529 -2.67951e-07
    outer loop
      vertex 10 1.13282e-16 2.28563
      vertex 9.78148 2.07912 6.35618
      vertex 9.82515 1.66361 6.10956
    endloop
  endfacet
  facet normal 0.994522 0.104529 -1.84302e-18
    outer loop
      vertex 10 1.13282e-16 2.28563
      vertex 9.82515 1.66361 6.10956
      vertex 10 1.63295e-16 5.12212
    endloop
  endfacet
  facet normal 0.994522 0.104529 4.53908e-08
    outer loop
      vertex 9.78148 2.07912 6.35618
      vertex 10 1.13282e-16 2.28563
      vertex 9.80087 1.89462 -3.33079
    endloop
  endfacet
  facet normal 0.994522 0.104529 -1.84302e-18
    outer loop
      vertex 10 -1.15655e-18 -4.20491
      vertex 9.80087 1.89462 -3.33079
      vertex 10 1.71595e-17 -3.16609
    endloop
  endfacet
  facet normal 0.994522 0.104529 -1.9255e-07
    outer loop
      vertex 9.80087 1.89462 -3.33079
      vertex 10 -1.15655e-18 -4.20491
      vertex 9.78148 2.07912 -5.65816
    endloop
  endfacet
  facet normal 0.207911 -0.978148 0
    outer loop
      vertex 1.04528 -9.94522 -1.98444
      vertex 3.09017 -9.51056 -8.22018
      vertex 3.09017 -9.51056 -1.47484
    endloop
  endfacet
  facet normal 0.207912 -0.978148 1.40313e-07
    outer loop
      vertex 1.04528 -9.94522 -1.98444
      vertex 2.4545 -9.64568 -9.00185
      vertex 3.09017 -9.51056 -8.22018
    endloop
  endfacet
  facet normal 0.207911 -0.978148 3.5031e-08
    outer loop
      vertex 1.04528 -9.94522 -1.98444
      vertex 1.76151 -9.79298 -9.854
      vertex 2.4545 -9.64568 -9.00185
    endloop
  endfacet
  facet normal 0.207905 -0.978149 -5.31696e-07
    outer loop
      vertex 1.04528 -9.94522 -1.98444
      vertex 1.72236 -9.8013 -9.90214
      vertex 1.76151 -9.79298 -9.854
    endloop
  endfacet
  facet normal 0.207893 -0.978152 -1.65418e-06
    outer loop
      vertex 1.04528 -9.94522 -1.98444
      vertex 1.70204 -9.80562 -9.92713
      vertex 1.72236 -9.8013 -9.90214
    endloop
  endfacet
  facet normal 0.207925 -0.978145 1.12143e-06
    outer loop
      vertex 1.04528 -9.94522 -1.98444
      vertex 1.65729 -9.81513 -9.98216
      vertex 1.70204 -9.80562 -9.92713
    endloop
  endfacet
  facet normal 0.207894 -0.978151 -1.36232e-06
    outer loop
      vertex 1.04528 -9.94522 -1.98444
      vertex 1.63141 -9.82063 -10.014
      vertex 1.65729 -9.81513 -9.98216
    endloop
  endfacet
  facet normal 0.207912 -0.978148 0
    outer loop
      vertex 1.04528 -9.94522 -27.3267
      vertex 1.63141 -9.82063 -10.014
      vertex 1.04528 -9.94522 -1.98444
    endloop
  endfacet
  facet normal 0.207911 -0.978148 1.45739e-08
    outer loop
      vertex 1.04528 -9.94522 -27.3267
      vertex 3.09017 -9.51056 -12.265
      vertex 1.63141 -9.82063 -10.014
    endloop
  endfacet
  facet normal 0.207911 -0.978148 0
    outer loop
      vertex 3.09017 -9.51056 -12.265
      vertex 1.04528 -9.94522 -27.3267
      vertex 3.09017 -9.51056 -27.3267
    endloop
  endfacet
  facet normal 0 1 0
    outer loop
      vertex 1.04528 9.94522 10
      vertex -1.04528 9.94522 9.82158
      vertex 0.437204 9.94522 10
    endloop
  endfacet
  facet normal 0 1 -0
    outer loop
      vertex 1.04528 9.94522 -27.3267
      vertex -1.04528 9.94522 9.82158
      vertex 1.04528 9.94522 10
    endloop
  endfacet
  facet normal 0 1 0
    outer loop
      vertex -1.04528 9.94522 9.82158
      vertex 1.04528 9.94522 -27.3267
      vertex -1.04528 9.94522 -27.3267
    endloop
  endfacet
  facet normal 0 0 1
    outer loop
      vertex 1.04528 9.94522 10
      vertex 3.46337 9.3444 10
      vertex 3.09017 9.51056 10
    endloop
  endfacet
  facet normal 0 0 1
    outer loop
      vertex 3.46337 9.3444 10
      vertex 1.04528 9.94522 10
      vertex 0.437204 9.94522 10
    endloop
  endfacet
  facet normal 0.866025 -0.5 3.33413e-08
    outer loop
      vertex 8.09017 -5.87785 -27.3267
      vertex 9.13545 -4.06737 -18.9424
      vertex 8.22247 -5.64871 -18.5474
    endloop
  endfacet
  facet normal 0.866026 -0.499999 0
    outer loop
      vertex 8.09017 -5.87785 -27.3267
      vertex 8.22247 -5.64871 -18.5474
      vertex 8.09017 -5.87785 -18.4203
    endloop
  endfacet
  facet normal 0.866026 -0.5 0
    outer loop
      vertex 9.13545 -4.06737 -18.9424
      vertex 8.09017 -5.87785 -27.3267
      vertex 9.13545 -4.06737 -27.3267
    endloop
  endfacet
  facet normal 0.866026 -0.5 8.80688e-08
    outer loop
      vertex 8.09017 -5.87785 1.3291
      vertex 9.13545 -4.06737 -2.58643
      vertex 8.5472 -5.08626 1.86397
    endloop
  endfacet
  facet normal 0.866026 -0.5 0
    outer loop
      vertex 8.09017 -5.87785 -3.50398
      vertex 9.13545 -4.06737 -2.58643
      vertex 8.09017 -5.87785 1.3291
    endloop
  endfacet
  facet normal 0.866026 -0.5 0
    outer loop
      vertex 9.13545 -4.06737 -2.58643
      vertex 8.09017 -5.87785 -3.50398
      vertex 9.13545 -4.06737 -3.10376
    endloop
  endfacet
  facet normal 0.743145 0.669131 0
    outer loop
      vertex 8.09017 5.87785 8.45543
      vertex 6.69131 7.43145 -27.3267
      vertex 6.69131 7.43145 9.22886
    endloop
  endfacet
  facet normal 0.743145 0.669131 0
    outer loop
      vertex 6.69131 7.43145 -27.3267
      vertex 8.09017 5.87785 8.45543
      vertex 8.09017 5.87785 -27.3267
    endloop
  endfacet
  facet normal 0.866027 0.499997 0
    outer loop
      vertex 8.09017 5.87785 8.45543
      vertex 8.12286 5.82124 -9.9796
      vertex 8.09017 5.87785 -27.3267
    endloop
  endfacet
  facet normal 0.866025 0.5 -1.0455e-08
    outer loop
      vertex 8.09017 5.87785 8.45543
      vertex 8.19893 5.68948 -9.80361
      vertex 8.12286 5.82124 -9.9796
    endloop
  endfacet
  facet normal 0.866025 0.500001 -2.26216e-08
    outer loop
      vertex 8.09017 5.87785 8.45543
      vertex 8.36638 5.39944 -9.41624
      vertex 8.19893 5.68948 -9.80361
    endloop
  endfacet
  facet normal 0.866026 0.5 -0
    outer loop
      vertex 9.13545 4.06737 -7.63709
      vertex 8.09017 5.87785 8.45543
      vertex 9.13545 4.06737 7.48371
    endloop
  endfacet
  facet normal 0.866026 0.5 1.91526e-08
    outer loop
      vertex 8.09017 5.87785 8.45543
      vertex 9.13545 4.06737 -7.63709
      vertex 8.36638 5.39944 -9.41624
    endloop
  endfacet
  facet normal 0.866026 0.5 1.02323e-08
    outer loop
      vertex 8.86987 4.52737 -12.3108
      vertex 8.09017 5.87785 -27.3267
      vertex 8.12286 5.82124 -9.9796
    endloop
  endfacet
  facet normal 0.866025 0.500001 1.97977e-07
    outer loop
      vertex 8.98558 4.32695 -12.6719
      vertex 8.09017 5.87785 -27.3267
      vertex 8.86987 4.52737 -12.3108
    endloop
  endfacet
  facet normal 0.866026 0.499999 -1.02036e-07
    outer loop
      vertex 9.13545 4.06737 -13.0342
      vertex 8.09017 5.87785 -27.3267
      vertex 8.98558 4.32695 -12.6719
    endloop
  endfacet
  facet normal 0.866026 0.5 0
    outer loop
      vertex 8.09017 5.87785 -27.3267
      vertex 9.13545 4.06737 -13.0342
      vertex 9.13545 4.06737 -27.3267
    endloop
  endfacet
  facet normal 0.951057 -0.309017 0
    outer loop
      vertex 9.50226 -2.93844 -18.7969
      vertex 9.78148 -2.07912 -27.3267
      vertex 9.78148 -2.07912 -18.6339
    endloop
  endfacet
  facet normal 0.951057 -0.309016 7.65023e-08
    outer loop
      vertex 9.21881 -3.81082 -18.9623
      vertex 9.78148 -2.07912 -27.3267
      vertex 9.50226 -2.93844 -18.7969
    endloop
  endfacet
  facet normal 0.951056 -0.309018 0
    outer loop
      vertex 9.13545 -4.06737 -27.3267
      vertex 9.21881 -3.81082 -18.9623
      vertex 9.13545 -4.06737 -18.9424
    endloop
  endfacet
  facet normal 0.951057 -0.309017 -5.1655e-08
    outer loop
      vertex 9.21881 -3.81082 -18.9623
      vertex 9.13545 -4.06737 -27.3267
      vertex 9.78148 -2.07912 -27.3267
    endloop
  endfacet
  facet normal 0.951056 -0.309019 0
    outer loop
      vertex 9.18052 -3.92865 -3.1203
      vertex 9.13545 -4.06737 -2.58643
      vertex 9.13545 -4.06737 -3.10376
    endloop
  endfacet
  facet normal 0.951056 -0.309017 0
    outer loop
      vertex 9.69648 -2.34071 -3.25602
      vertex 9.78148 -2.07912 -3.34085
      vertex 9.78148 -2.07912 -3.2187
    endloop
  endfacet
  facet normal 0.951057 -0.309017 1.59526e-06
    outer loop
      vertex 9.78148 -2.07912 -3.34085
      vertex 9.69648 -2.34071 -3.25602
      vertex 9.62994 -2.54549 -3.28524
    endloop
  endfacet
  facet normal 0 -1 0
    outer loop
      vertex 1.04528 -9.94522 -27.3267
      vertex -1.04528 -9.94522 -2.23605
      vertex -1.04528 -9.94522 -27.3267
    endloop
  endfacet
  facet normal 0 -1 0
    outer loop
      vertex -1.04528 -9.94522 -2.23605
      vertex 1.04528 -9.94522 -27.3267
      vertex 1.04528 -9.94522 -1.98444
    endloop
  endfacet
  facet normal -0.951056 0.309017 0
    outer loop
      vertex -9.13545 4.06737 -27.3267
      vertex -9.21943 3.80892 -17.4628
      vertex -9.13545 4.06737 -17.2656
    endloop
  endfacet
  facet normal -0.951057 0.309017 -1.20514e-08
    outer loop
      vertex -9.13545 4.06737 -27.3267
      vertex -9.4514 3.095 -18.0078
      vertex -9.21943 3.80892 -17.4628
    endloop
  endfacet
  facet normal -0.951057 0.309017 0
    outer loop
      vertex -9.78148 2.07912 -18.4965
      vertex -9.13545 4.06737 -27.3267
      vertex -9.78148 2.07912 -27.3267
    endloop
  endfacet
  facet normal -0.951057 0.309017 -2.1854e-08
    outer loop
      vertex -9.13545 4.06737 -27.3267
      vertex -9.78148 2.07912 -18.4965
      vertex -9.4514 3.095 -18.0078
    endloop
  endfacet
  facet normal -0.951057 0.309016 0
    outer loop
      vertex -9.24634 3.72609 -4.19789
      vertex -9.13545 4.06737 -4.20961
      vertex -9.13545 4.06737 -4.35965
    endloop
  endfacet
  facet normal -0.207911 0.978148 0
    outer loop
      vertex -1.04528 9.94522 -27.3267
      vertex -3.09017 9.51056 9.31197
      vertex -1.04528 9.94522 9.82158
    endloop
  endfacet
  facet normal -0.207911 0.978148 0
    outer loop
      vertex -3.09017 9.51056 9.31197
      vertex -1.04528 9.94522 -27.3267
      vertex -3.09017 9.51056 -27.3267
    endloop
  endfacet
  facet normal 0.951057 0.309017 0
    outer loop
      vertex 9.69225 2.35373 -15.3323
      vertex 9.13545 4.06737 -27.3267
      vertex 9.13545 4.06737 -13.0342
    endloop
  endfacet
  facet normal 0.951057 0.309017 -2.05512e-08
    outer loop
      vertex 9.78148 2.07912 -15.6146
      vertex 9.13545 4.06737 -27.3267
      vertex 9.69225 2.35373 -15.3323
    endloop
  endfacet
  facet normal 0.951057 0.309017 0
    outer loop
      vertex 9.13545 4.06737 -27.3267
      vertex 9.78148 2.07912 -15.6146
      vertex 9.78148 2.07912 -27.3267
    endloop
  endfacet
  facet normal 0.951057 0.309017 -0
    outer loop
      vertex 9.78148 2.07912 -5.65816
      vertex 9.13545 4.06737 7.48371
      vertex 9.78148 2.07912 6.35618
    endloop
  endfacet
  facet normal 0.951057 0.309017 0
    outer loop
      vertex 9.13545 4.06737 7.48371
      vertex 9.78148 2.07912 -5.65816
      vertex 9.13545 4.06737 -7.63709
    endloop
  endfacet
  facet normal 0.406737 0.913545 -0
    outer loop
      vertex 3.09017 9.51056 -27.3267
      vertex 3.09017 9.51056 10
      vertex 5 8.66025 -27.3267
    endloop
  endfacet
  facet normal 0.587784 -0.809018 0
    outer loop
      vertex 5 -8.66025 -27.3267
      vertex 5.20451 -8.51167 -15.3347
      vertex 5 -8.66025 -15.0089
    endloop
  endfacet
  facet normal 0.587786 -0.809017 -4.62509e-08
    outer loop
      vertex 5 -8.66025 -27.3267
      vertex 6.69131 -7.43145 -17.0901
      vertex 5.20451 -8.51167 -15.3347
    endloop
  endfacet
  facet normal 0.587785 -0.809017 0
    outer loop
      vertex 6.69131 -7.43145 -17.0901
      vertex 5 -8.66025 -27.3267
      vertex 6.69131 -7.43145 -27.3267
    endloop
  endfacet
  facet normal 0.743145 -0.669131 -2.04289e-09
    outer loop
      vertex 6.69131 -7.43145 -27.3267
      vertex 8.09017 -5.87785 -18.4203
      vertex 6.8647 -7.23887 -17.3205
    endloop
  endfacet
  facet normal 0.743145 -0.669131 0
    outer loop
      vertex 6.69131 -7.43145 -27.3267
      vertex 6.8647 -7.23887 -17.3205
      vertex 6.69131 -7.43145 -17.0901
    endloop
  endfacet
  facet normal 0.743145 -0.669131 0
    outer loop
      vertex 8.09017 -5.87785 -18.4203
      vertex 6.69131 -7.43145 -27.3267
      vertex 8.09017 -5.87785 -27.3267
    endloop
  endfacet
  facet normal 0.743145 -0.66913 0
    outer loop
      vertex 7.97758 -6.0029 1.23974
      vertex 8.09017 -5.87785 -3.50398
      vertex 8.09017 -5.87785 1.3291
    endloop
  endfacet
  facet normal 0.743145 -0.66913 0
    outer loop
      vertex 8.09017 -5.87785 -3.50398
      vertex 7.97758 -6.0029 1.23974
      vertex 7.97758 -6.0029 -3.58609
    endloop
  endfacet
  facet normal 0.406731 -0.913548 0
    outer loop
      vertex 3.09017 -9.51056 -27.3267
      vertex 3.1312 -9.4923 -12.3406
      vertex 3.09017 -9.51056 -12.265
    endloop
  endfacet
  facet normal 0.406738 -0.913545 -2.18753e-08
    outer loop
      vertex 3.09017 -9.51056 -27.3267
      vertex 3.31357 -9.4111 -12.6763
      vertex 3.1312 -9.4923 -12.3406
    endloop
  endfacet
  facet normal 0.406737 -0.913545 3.33139e-09
    outer loop
      vertex 3.09017 -9.51056 -27.3267
      vertex 5 -8.66025 -15.0089
      vertex 3.31357 -9.4111 -12.6763
    endloop
  endfacet
  facet normal 0.406737 -0.913545 0
    outer loop
      vertex 5 -8.66025 -15.0089
      vertex 3.09017 -9.51056 -27.3267
      vertex 5 -8.66025 -27.3267
    endloop
  endfacet
  facet normal 0.406739 -0.913544 1.16462e-07
    outer loop
      vertex 3.09017 -9.51056 -1.47484
      vertex 3.22718 -9.44957 -8.06947
      vertex 3.22718 -9.44956 -1.42137
    endloop
  endfacet
  facet normal 0.406734 -0.913547 0
    outer loop
      vertex 3.22718 -9.44957 -8.06947
      vertex 3.09017 -9.51056 -1.47484
      vertex 3.09017 -9.51056 -8.22018
    endloop
  endfacet
  facet normal 0.994522 -0.104529 2.55135e-18
    outer loop
      vertex 9.94209 -0.550971 -17.8253
      vertex 10 -4.08832e-16 -27.3267
      vertex 10 -2.35719e-16 -17.5084
    endloop
  endfacet
  facet normal 0.994522 -0.104529 5.22118e-08
    outer loop
      vertex 9.81023 -1.80554 -18.5469
      vertex 10 -4.08832e-16 -27.3267
      vertex 9.94209 -0.550971 -17.8253
    endloop
  endfacet
  facet normal 0.994522 -0.10453 -1.70599e-07
    outer loop
      vertex 9.78148 -2.07912 -18.6339
      vertex 10 -4.08832e-16 -27.3267
      vertex 9.81023 -1.80554 -18.5469
    endloop
  endfacet
  facet normal 0.994522 -0.104529 0
    outer loop
      vertex 10 -4.08832e-16 -27.3267
      vertex 9.78148 -2.07912 -18.6339
      vertex 9.78148 -2.07912 -27.3267
    endloop
  endfacet
  facet normal 0.994522 -0.104529 1.84302e-18
    outer loop
      vertex 10 1.13282e-16 2.28563
      vertex 10 1.63295e-16 5.12212
      vertex 9.92576 -0.706376 4.68498
    endloop
  endfacet
  facet normal 0.994522 -0.104529 1.84302e-18
    outer loop
      vertex 10 1.71595e-17 -3.16609
      vertex 9.89647 -0.985017 -3.79555
      vertex 10 -1.15655e-18 -4.20491
    endloop
  endfacet
  facet normal 0.994522 -0.104529 -6.65731e-08
    outer loop
      vertex 9.78148 -2.07912 -3.2187
      vertex 9.89647 -0.985017 -3.79555
      vertex 10 1.71595e-17 -3.16609
    endloop
  endfacet
  facet normal 0.994522 -0.104529 0
    outer loop
      vertex 9.89647 -0.985017 -3.79555
      vertex 9.78148 -2.07912 -3.2187
      vertex 9.78148 -2.07912 -3.34085
    endloop
  endfacet
  facet normal -0.743145 -0.669131 0
    outer loop
      vertex -6.69131 -7.43145 -27.3267
      vertex -8.09017 -5.87785 -15.2724
      vertex -8.09017 -5.87785 -27.3267
    endloop
  endfacet
  facet normal -0.743145 -0.669131 -1.45283e-08
    outer loop
      vertex -8.09017 -5.87785 -15.2724
      vertex -6.69131 -7.43145 -27.3267
      vertex -7.36113 -6.68753 -14.0602
    endloop
  endfacet
  facet normal -0.743145 -0.669131 0
    outer loop
      vertex -7.36113 -6.68753 -14.0602
      vertex -6.69131 -7.43145 -27.3267
      vertex -6.69131 -7.43145 -12.6003
    endloop
  endfacet
  facet normal -0.743145 -0.669131 -0
    outer loop
      vertex -6.69131 -7.43145 -1.39172
      vertex -8.09017 -5.87785 -5.88448
      vertex -6.69131 -7.43145 -7.9251
    endloop
  endfacet
  facet normal -0.743145 -0.669131 0
    outer loop
      vertex -8.09017 -5.87785 -5.88448
      vertex -6.69131 -7.43145 -1.39172
      vertex -8.09017 -5.87785 -0.61829
    endloop
  endfacet
  facet normal -0.743145 0.669131 0
    outer loop
      vertex -6.69131 7.43145 -27.3267
      vertex -7.35434 6.69508 -14.0473
      vertex -6.69131 7.43145 -12.6002
    endloop
  endfacet
  facet normal -0.743144 0.669131 3.42845e-08
    outer loop
      vertex -6.69131 7.43145 -27.3267
      vertex -7.70682 6.30361 -14.6341
      vertex -7.35434 6.69508 -14.0473
    endloop
  endfacet
  facet normal -0.743145 0.669131 0
    outer loop
      vertex -8.09017 5.87785 -15.2723
      vertex -6.69131 7.43145 -27.3267
      vertex -8.09017 5.87785 -27.3267
    endloop
  endfacet
  facet normal -0.743145 0.669131 -4.08208e-08
    outer loop
      vertex -6.69131 7.43145 -27.3267
      vertex -8.09017 5.87785 -15.2723
      vertex -7.70682 6.30361 -14.6341
    endloop
  endfacet
  facet normal -0.743145 0.669131 -5.2173e-08
    outer loop
      vertex -8.09017 5.87785 -1.16174
      vertex -6.69131 7.43145 -7.9251
      vertex -6.85137 7.25368 -7.69161
    endloop
  endfacet
  facet normal -0.743145 0.669131 0
    outer loop
      vertex -6.69131 7.43145 -7.9251
      vertex -8.09017 5.87785 -1.16174
      vertex -6.69131 7.43145 7.6182
    endloop
  endfacet
  facet normal -0.743144 0.669131 1.24484e-07
    outer loop
      vertex -8.09017 5.87785 -1.16174
      vertex -6.85137 7.25368 -7.69161
      vertex -7.03685 7.04768 -7.42103
    endloop
  endfacet
  facet normal -0.743145 0.669131 0
    outer loop
      vertex -8.09017 5.87785 -1.16174
      vertex -7.03685 7.04768 -7.42103
      vertex -8.09017 5.87785 -5.88448
    endloop
  endfacet
  facet normal -0.743144 0.669131 -4.7661e-08
    outer loop
      vertex -6.69131 7.43145 7.6182
      vertex -8.09017 5.87785 -1.16174
      vertex -6.86155 7.24237 7.48309
    endloop
  endfacet
  facet normal -0.587785 0.809017 0
    outer loop
      vertex -6.69131 7.43145 -12.6002
      vertex -5.96959 7.9558 -11.3987
      vertex -6.69131 7.43145 -27.3267
    endloop
  endfacet
  facet normal -0.587785 0.809017 0
    outer loop
      vertex -5.06664 8.61184 8.52929
      vertex -6.69131 7.43145 -7.9251
      vertex -6.69131 7.43145 7.6182
    endloop
  endfacet
  facet normal -0.587786 0.809017 9.12654e-09
    outer loop
      vertex -6.69131 7.43145 -7.9251
      vertex -5.06664 8.61184 8.52929
      vertex -5.86671 8.03055 -9.128
    endloop
  endfacet
  facet normal -0.587783 0.809018 -1.44047e-07
    outer loop
      vertex -5 8.66025 8.56666
      vertex -5.86671 8.03055 -9.128
      vertex -5.06664 8.61184 8.52929
    endloop
  endfacet
  facet normal -0.587784 0.809018 -1.14232e-07
    outer loop
      vertex -5 8.66025 8.56666
      vertex -5.64243 8.1935 -9.45517
      vertex -5.86671 8.03055 -9.128
    endloop
  endfacet
  facet normal -0.587787 0.809016 5.75976e-08
    outer loop
      vertex -5 8.66025 8.56666
      vertex -5.44687 8.33559 -9.74045
      vertex -5.64243 8.1935 -9.45517
    endloop
  endfacet
  facet normal -0.587784 0.809018 -4.32457e-08
    outer loop
      vertex -5 8.66025 8.56666
      vertex -5.28207 8.45531 -9.98085
      vertex -5.44687 8.33559 -9.74045
    endloop
  endfacet
  facet normal -0.587785 0.809017 -1.56173e-08
    outer loop
      vertex -5 8.66025 -27.3267
      vertex -5.28207 8.45531 -9.98085
      vertex -5 8.66025 8.56666
    endloop
  endfacet
  facet normal -0.587785 0.809017 -1.17341e-10
    outer loop
      vertex -5 8.66025 -27.3267
      vertex -5.78055 8.09315 -11.084
      vertex -5.28207 8.45531 -9.98085
    endloop
  endfacet
  facet normal -0.587787 0.809016 -1.30511e-07
    outer loop
      vertex -5 8.66025 -27.3267
      vertex -5.96959 7.9558 -11.3987
      vertex -5.78055 8.09315 -11.084
    endloop
  endfacet
  facet normal -0.587785 0.809017 -6.06541e-09
    outer loop
      vertex -5.96959 7.9558 -11.3987
      vertex -5 8.66025 -27.3267
      vertex -6.69131 7.43145 -27.3267
    endloop
  endfacet
  facet normal -0.406737 0.913545 0
    outer loop
      vertex -4.9281 8.69227 8.59472
      vertex -3.09017 9.51056 9.31197
      vertex -3.09017 9.51056 -27.3267
    endloop
  endfacet
  facet normal 0.406737 0.913545 1.86985e-06
    outer loop
      vertex 5 8.66025 9.77021
      vertex 3.09017 9.51056 10
      vertex 3.46337 9.3444 10
    endloop
  endfacet
  facet normal 0.406737 0.913545 1.04563e-08
    outer loop
      vertex 3.09017 9.51056 10
      vertex 5 8.66025 9.77021
      vertex 5 8.66025 -27.3267
    endloop
  endfacet
  facet normal 0.207911 0.978148 -0
    outer loop
      vertex 3.09017 9.51056 -27.3267
      vertex 1.04528 9.94522 10
      vertex 3.09017 9.51056 10
    endloop
  endfacet
  facet normal 0.207911 0.978148 0
    outer loop
      vertex 1.04528 9.94522 10
      vertex 3.09017 9.51056 -27.3267
      vertex 1.04528 9.94522 -27.3267
    endloop
  endfacet
  facet normal 0.587785 0.809017 1.51106e-08
    outer loop
      vertex 5 8.66025 -27.3267
      vertex 5 8.66025 9.77021
      vertex 6.65686 7.45647 9.23988
    endloop
  endfacet
  facet normal -0.207911 -0.978148 0
    outer loop
      vertex -3.09017 -9.51056 -27.3267
      vertex -1.04528 -9.94522 -2.23605
      vertex -3.09017 -9.51056 -2.21867
    endloop
  endfacet
  facet normal -0.207911 -0.978148 -0
    outer loop
      vertex -1.04528 -9.94522 -2.23605
      vertex -3.09017 -9.51056 -27.3267
      vertex -1.04528 -9.94522 -27.3267
    endloop
  endfacet
  facet normal 0 0 -1
    outer loop
      vertex 9.78148 -2.07912 -27.3267
      vertex 9.78148 2.07912 -27.3267
      vertex 10 -4.08832e-16 -27.3267
    endloop
  endfacet
  facet normal 0 0 -1
    outer loop
      vertex 9.13545 -4.06737 -27.3267
      vertex 9.78148 2.07912 -27.3267
      vertex 9.78148 -2.07912 -27.3267
    endloop
  endfacet
  facet normal 0 0 -1
    outer loop
      vertex 9.13545 -4.06737 -27.3267
      vertex 9.13545 4.06737 -27.3267
      vertex 9.78148 2.07912 -27.3267
    endloop
  endfacet
  facet normal 0 0 -1
    outer loop
      vertex 8.09017 -5.87785 -27.3267
      vertex 9.13545 4.06737 -27.3267
      vertex 9.13545 -4.06737 -27.3267
    endloop
  endfacet
  facet normal 0 0 -1
    outer loop
      vertex 8.09017 -5.87785 -27.3267
      vertex 8.09017 5.87785 -27.3267
      vertex 9.13545 4.06737 -27.3267
    endloop
  endfacet
  facet normal 0 0 -1
    outer loop
      vertex 6.69131 -7.43145 -27.3267
      vertex 8.09017 5.87785 -27.3267
      vertex 8.09017 -5.87785 -27.3267
    endloop
  endfacet
  facet normal 0 0 -1
    outer loop
      vertex 6.69131 -7.43145 -27.3267
      vertex 6.69131 7.43145 -27.3267
      vertex 8.09017 5.87785 -27.3267
    endloop
  endfacet
  facet normal 0 0 -1
    outer loop
      vertex 5 -8.66025 -27.3267
      vertex 6.69131 7.43145 -27.3267
      vertex 6.69131 -7.43145 -27.3267
    endloop
  endfacet
  facet normal 0 0 -1
    outer loop
      vertex 5 -8.66025 -27.3267
      vertex 5 8.66025 -27.3267
      vertex 6.69131 7.43145 -27.3267
    endloop
  endfacet
  facet normal 0 0 -1
    outer loop
      vertex 3.09017 -9.51056 -27.3267
      vertex 5 8.66025 -27.3267
      vertex 5 -8.66025 -27.3267
    endloop
  endfacet
  facet normal 0 0 -1
    outer loop
      vertex 3.09017 -9.51056 -27.3267
      vertex 3.09017 9.51056 -27.3267
      vertex 5 8.66025 -27.3267
    endloop
  endfacet
  facet normal 0 0 -1
    outer loop
      vertex 1.04528 -9.94522 -27.3267
      vertex 3.09017 9.51056 -27.3267
      vertex 3.09017 -9.51056 -27.3267
    endloop
  endfacet
  facet normal 0 0 -1
    outer loop
      vertex 1.04528 -9.94522 -27.3267
      vertex 1.04528 9.94522 -27.3267
      vertex 3.09017 9.51056 -27.3267
    endloop
  endfacet
  facet normal 0 0 -1
    outer loop
      vertex -1.04528 -9.94522 -27.3267
      vertex 1.04528 9.94522 -27.3267
      vertex 1.04528 -9.94522 -27.3267
    endloop
  endfacet
  facet normal 0 0 -1
    outer loop
      vertex -1.04528 -9.94522 -27.3267
      vertex -1.04528 9.94522 -27.3267
      vertex 1.04528 9.94522 -27.3267
    endloop
  endfacet
  facet normal 0 0 -1
    outer loop
      vertex -3.09017 -9.51056 -27.3267
      vertex -1.04528 9.94522 -27.3267
      vertex -1.04528 -9.94522 -27.3267
    endloop
  endfacet
  facet normal 0 0 -1
    outer loop
      vertex -3.09017 -9.51056 -27.3267
      vertex -3.09017 9.51056 -27.3267
      vertex -1.04528 9.94522 -27.3267
    endloop
  endfacet
  facet normal 0 0 -1
    outer loop
      vertex -5 -8.66025 -27.3267
      vertex -3.09017 9.51056 -27.3267
      vertex -3.09017 -9.51056 -27.3267
    endloop
  endfacet
  facet normal 0 0 -1
    outer loop
      vertex -5 -8.66025 -27.3267
      vertex -5 8.66025 -27.3267
      vertex -3.09017 9.51056 -27.3267
    endloop
  endfacet
  facet normal 0 0 -1
    outer loop
      vertex -6.69131 -7.43145 -27.3267
      vertex -5 8.66025 -27.3267
      vertex -5 -8.66025 -27.3267
    endloop
  endfacet
  facet normal 0 0 -1
    outer loop
      vertex -6.69131 -7.43145 -27.3267
      vertex -6.69131 7.43145 -27.3267
      vertex -5 8.66025 -27.3267
    endloop
  endfacet
  facet normal 0 0 -1
    outer loop
      vertex -8.09017 -5.87785 -27.3267
      vertex -6.69131 7.43145 -27.3267
      vertex -6.69131 -7.43145 -27.3267
    endloop
  endfacet
  facet normal 0 0 -1
    outer loop
      vertex -8.09017 -5.87785 -27.3267
      vertex -8.09017 5.87785 -27.3267
      vertex -6.69131 7.43145 -27.3267
    endloop
  endfacet
  facet normal 0 0 -1
    outer loop
      vertex -9.13545 -4.06737 -27.3267
      vertex -8.09017 5.87785 -27.3267
      vertex -8.09017 -5.87785 -27.3267
    endloop
  endfacet
  facet normal 0 0 -1
    outer loop
      vertex -9.13545 -4.06737 -27.3267
      vertex -9.13545 4.06737 -27.3267
      vertex -8.09017 5.87785 -27.3267
    endloop
  endfacet
  facet normal 0 0 -1
    outer loop
      vertex -9.78148 -2.07912 -27.3267
      vertex -9.13545 4.06737 -27.3267
      vertex -9.13545 -4.06737 -27.3267
    endloop
  endfacet
  facet normal 0 0 -1
    outer loop
      vertex -9.78148 -2.07912 -27.3267
      vertex -9.78148 2.07912 -27.3267
      vertex -9.13545 4.06737 -27.3267
    endloop
  endfacet
  facet normal 0 -0 -1
    outer loop
      vertex -9.78148 2.07912 -27.3267
      vertex -9.78148 -2.07912 -27.3267
      vertex -10 -5.54798e-16 -27.3267
    endloop
  endfacet
  facet normal -0.587785 -0.809017 -3.83816e-08
    outer loop
      vertex -5.86671 -8.03055 -9.128
      vertex -5 -8.66025 -1.93307
      vertex -5.53297 -8.27303 -1.76248
    endloop
  endfacet
  facet normal -0.587785 -0.809017 -7.5527e-08
    outer loop
      vertex -5.56936 -8.24659 -9.56177
      vertex -5 -8.66025 -1.93307
      vertex -5.86671 -8.03055 -9.128
    endloop
  endfacet
  facet normal -0.587784 -0.809018 -1.00517e-07
    outer loop
      vertex -5.36931 -8.39193 -9.85359
      vertex -5 -8.66025 -1.93307
      vertex -5.56936 -8.24659 -9.56177
    endloop
  endfacet
  facet normal -0.587785 -0.809017 -7.39944e-08
    outer loop
      vertex -5.28229 -8.45516 -9.98054
      vertex -5 -8.66025 -1.93307
      vertex -5.36931 -8.39193 -9.85359
    endloop
  endfacet
  facet normal -0.587785 -0.809017 -1.20436e-08
    outer loop
      vertex -5 -8.66025 -27.3267
      vertex -5.96967 -7.95575 -11.4004
      vertex -6.69131 -7.43145 -27.3267
    endloop
  endfacet
  facet normal -0.587785 -0.809017 -6.79353e-10
    outer loop
      vertex -5.96967 -7.95575 -11.4004
      vertex -5 -8.66025 -27.3267
      vertex -5.78876 -8.08718 -11.0996
    endloop
  endfacet
  facet normal -0.587786 -0.809016 -1.10374e-08
    outer loop
      vertex -5.28229 -8.45516 -9.98054
      vertex -5 -8.66025 -27.3267
      vertex -5 -8.66025 -1.93307
    endloop
  endfacet
  facet normal -0.587785 -0.809017 1.7404e-08
    outer loop
      vertex -5.78876 -8.08718 -11.0996
      vertex -5 -8.66025 -27.3267
      vertex -5.28229 -8.45516 -9.98054
    endloop
  endfacet
  facet normal -0.951057 -0.309017 0
    outer loop
      vertex -9.13545 -4.06737 -27.3267
      vertex -9.78148 -2.07912 -18.4965
      vertex -9.78148 -2.07912 -27.3267
    endloop
  endfacet
  facet normal -0.951057 -0.309017 -1.92084e-09
    outer loop
      vertex -9.78148 -2.07912 -18.4965
      vertex -9.13545 -4.06737 -27.3267
      vertex -9.45453 -3.08534 -18.0137
    endloop
  endfacet
  facet normal -0.951057 -0.309017 0
    outer loop
      vertex -9.45453 -3.08534 -18.0137
      vertex -9.13545 -4.06737 -27.3267
      vertex -9.13545 -4.06737 -17.2656
    endloop
  endfacet
  facet normal -0.951056 -0.309018 -0
    outer loop
      vertex -9.13545 -4.06737 0.353425
      vertex -9.17813 -3.93603 0.427907
      vertex -9.13545 -4.06737 -0.293864
    endloop
  endfacet
  facet normal -0.951057 -0.309017 0
    outer loop
      vertex -9.13545 -4.06737 -4.35965
      vertex -9.78148 -2.07912 -3.07244
      vertex -9.78148 -2.07912 -3.41726
    endloop
  endfacet
  facet normal -0.951057 -0.309017 0
    outer loop
      vertex -9.78148 -2.07912 -3.07244
      vertex -9.13545 -4.06737 -4.35965
      vertex -9.13545 -4.06737 -2.11849
    endloop
  endfacet
  facet normal -0.406737 -0.913545 -7.63765e-09
    outer loop
      vertex -5 -8.66025 -27.3267
      vertex -4.38473 -8.93419 -2.02508
      vertex -5 -8.66025 -1.93307
    endloop
  endfacet
  facet normal -0.406737 -0.913545 -6.47531e-09
    outer loop
      vertex -4.38473 -8.93419 -2.02508
      vertex -5 -8.66025 -27.3267
      vertex -3.09017 -9.51056 -27.3267
    endloop
  endfacet
  facet normal -0.406737 -0.913545 -0
    outer loop
      vertex -3.09017 -9.51056 -2.21867
      vertex -4.38473 -8.93419 -2.02508
      vertex -3.09017 -9.51056 -27.3267
    endloop
  endfacet
  facet normal -0.866026 0.499999 0
    outer loop
      vertex -8.09017 5.87785 -27.3267
      vertex -8.59446 5.0044 -16.3882
      vertex -8.09017 5.87785 -15.2723
    endloop
  endfacet
  facet normal -0.866026 0.5 0
    outer loop
      vertex -9.13545 4.06737 -17.2656
      vertex -8.09017 5.87785 -27.3267
      vertex -9.13545 4.06737 -27.3267
    endloop
  endfacet
  facet normal -0.866025 0.5 6.60043e-08
    outer loop
      vertex -8.09017 5.87785 -27.3267
      vertex -9.13545 4.06737 -17.2656
      vertex -8.59446 5.0044 -16.3882
    endloop
  endfacet
  facet normal -0.866025 0.5 0
    outer loop
      vertex -8.09017 5.87785 -5.88448
      vertex -8.3604 5.4098 -4.02339
      vertex -8.09017 5.87785 -1.16174
    endloop
  endfacet
  facet normal -0.866026 0.5 -1.13271e-07
    outer loop
      vertex -9.13545 4.06737 -4.35965
      vertex -8.3604 5.4098 -4.02339
      vertex -8.09017 5.87785 -5.88448
    endloop
  endfacet
  facet normal -0.866026 0.5 0
    outer loop
      vertex -8.3604 5.4098 -4.02339
      vertex -9.13545 4.06737 -4.35965
      vertex -9.13545 4.06737 -4.20961
    endloop
  endfacet
  facet normal -0.406739 0.913545 -1.26606e-07
    outer loop
      vertex -3.09017 9.51056 -27.3267
      vertex -5 8.66025 8.56666
      vertex -4.9281 8.69227 8.59472
    endloop
  endfacet
  facet normal -0.406737 0.913545 -1.08069e-08
    outer loop
      vertex -5 8.66025 8.56666
      vertex -3.09017 9.51056 -27.3267
      vertex -5 8.66025 -27.3267
    endloop
  endfacet
  facet normal 0.587785 0.809017 0
    outer loop
      vertex 5 8.66025 -27.3267
      vertex 6.69131 7.43145 9.22886
      vertex 6.69131 7.43145 -27.3267
    endloop
  endfacet
  facet normal 0.587789 0.809014 -2.76786e-07
    outer loop
      vertex 6.69131 7.43145 9.22886
      vertex 5 8.66025 -27.3267
      vertex 6.65686 7.45647 9.23988
    endloop
  endfacet
  facet normal -0.866026 -0.5 0
    outer loop
      vertex -8.09017 -5.87785 -27.3267
      vertex -9.13545 -4.06737 -17.2656
      vertex -9.13545 -4.06737 -27.3267
    endloop
  endfacet
  facet normal -0.866026 -0.499999 -2.83423e-07
    outer loop
      vertex -9.13545 -4.06737 -17.2656
      vertex -8.09017 -5.87785 -27.3267
      vertex -8.98776 -4.32317 -17.0265
    endloop
  endfacet
  facet normal -0.866025 -0.5 4.6244e-08
    outer loop
      vertex -8.98776 -4.32317 -17.0265
      vertex -8.09017 -5.87785 -27.3267
      vertex -8.59954 -4.9956 -16.3979
    endloop
  endfacet
  facet normal -0.866026 -0.5 0
    outer loop
      vertex -8.59954 -4.9956 -16.3979
      vertex -8.09017 -5.87785 -27.3267
      vertex -8.09017 -5.87785 -15.2724
    endloop
  endfacet
  facet normal -0.866025 -0.500001 0
    outer loop
      vertex -9.13545 -4.06737 -4.35965
      vertex -8.95915 -4.37273 -1.91913
      vertex -9.13545 -4.06737 -2.11849
    endloop
  endfacet
  facet normal -0.866026 -0.5 1.88325e-07
    outer loop
      vertex -8.48142 -5.20019 -5.31375
      vertex -8.95915 -4.37273 -1.91913
      vertex -9.13545 -4.06737 -4.35965
    endloop
  endfacet
  facet normal -0.866026 -0.499999 6.55278e-08
    outer loop
      vertex -8.09017 -5.87785 -0.61829
      vertex -8.95915 -4.37273 -1.91913
      vertex -8.48142 -5.20019 -5.31375
    endloop
  endfacet
  facet normal -0.866026 -0.5 -0
    outer loop
      vertex -8.09017 -5.87785 -0.61829
      vertex -8.48142 -5.20019 -5.31375
      vertex -8.09017 -5.87785 -5.88448
    endloop
  endfacet
  facet normal -0.866026 -0.5 -2.8013e-07
    outer loop
      vertex -8.95915 -4.37273 -1.91913
      vertex -8.09017 -5.87785 -0.61829
      vertex -8.85578 -4.55178 0.0934336
    endloop
  endfacet
  facet normal -0.866026 -0.5 -2.93364e-07
    outer loop
      vertex -8.85578 -4.55178 0.0934336
      vertex -9.13545 -4.06737 -0.293864
      vertex -8.95915 -4.37273 -1.91913
    endloop
  endfacet
  facet normal -0.866026 -0.5 0
    outer loop
      vertex -9.13545 -4.06737 -0.293864
      vertex -8.85578 -4.55178 0.0934336
      vertex -9.13545 -4.06737 0.353425
    endloop
  endfacet
  facet normal -0.587785 -0.809017 0
    outer loop
      vertex -6.69131 -7.43145 -27.3267
      vertex -5.96967 -7.95575 -11.4004
      vertex -6.69131 -7.43145 -12.6003
    endloop
  endfacet
  facet normal -0.587785 -0.809017 0
    outer loop
      vertex -6.69131 -7.43145 -7.9251
      vertex -5.53297 -8.27303 -1.76248
      vertex -6.69131 -7.43145 -1.39172
    endloop
  endfacet
  facet normal -0.587785 -0.809017 -6.34606e-08
    outer loop
      vertex -6.40828 -7.63708 -8.33797
      vertex -5.53297 -8.27303 -1.76248
      vertex -6.69131 -7.43145 -7.9251
    endloop
  endfacet
  facet normal -0.587786 -0.809017 2.30273e-08
    outer loop
      vertex -5.93903 -7.97801 -9.0225
      vertex -5.53297 -8.27303 -1.76248
      vertex -6.40828 -7.63708 -8.33797
    endloop
  endfacet
  facet normal -0.587786 -0.809017 1.83373e-08
    outer loop
      vertex -5.53297 -8.27303 -1.76248
      vertex -5.93903 -7.97801 -9.0225
      vertex -5.86671 -8.03055 -9.128
    endloop
  endfacet
  facet normal -0.994522 -0.104532 1.01226e-07
    outer loop
      vertex -9.78148 -2.07912 -27.3267
      vertex -9.79856 -1.9166 -18.55
      vertex -9.83224 -1.59613 -18.6555
    endloop
  endfacet
  facet normal -0.994522 -0.104526 0
    outer loop
      vertex -9.79856 -1.9166 -18.55
      vertex -9.78148 -2.07912 -27.3267
      vertex -9.78148 -2.07912 -18.4965
    endloop
  endfacet
  facet normal -0.994522 -0.104529 -0
    outer loop
      vertex -9.78148 -2.07912 -3.07244
      vertex -9.8566 -1.36437 -3.30767
      vertex -9.78148 -2.07912 -3.41726
    endloop
  endfacet
  facet normal -0.994522 -0.104529 1.84301e-18
    outer loop
      vertex -10 -5.54798e-16 -27.3267
      vertex -9.89067 -1.04023 -18.8384
      vertex -10 -4.06446e-16 -18.9127
    endloop
  endfacet
  facet normal -0.994522 -0.104528 5.22803e-09
    outer loop
      vertex -9.78148 -2.07912 -27.3267
      vertex -9.89067 -1.04023 -18.8384
      vertex -10 -5.54798e-16 -27.3267
    endloop
  endfacet
  facet normal -0.994522 -0.104527 -1.36637e-07
    outer loop
      vertex -9.89067 -1.04023 -18.8384
      vertex -9.78148 -2.07912 -27.3267
      vertex -9.83224 -1.59613 -18.6555
    endloop
  endfacet
  facet normal -0.10238 -0.515666 0.850651
    outer loop
      vertex 2.50248 -2.53347 -5.15318
      vertex 4.33743 -4.49816 -6.12333
      vertex 4.82702 -3.4172 -5.40913
    endloop
  endfacet
  facet normal -0.10238 -0.515666 0.850651
    outer loop
      vertex 4.33743 -4.49816 -6.12333
      vertex 2.50248 -2.53347 -5.15318
      vertex 2.04233 -3.54942 -5.82443
    endloop
  endfacet
  facet normal 0.929817 -0.353494 -0.10238
    outer loop
      vertex 2.04233 -3.54942 -5.82443
      vertex 2.50248 -2.53347 -5.15318
      vertex 2.28117 -3.64816 -3.31437
    endloop
  endfacet
  facet normal -0.353494 -0.780468 -0.515666
    outer loop
      vertex 2.50248 -2.53347 -5.15318
      vertex 4.59156 -4.60321 -3.45268
      vertex 2.28117 -3.64816 -3.31437
    endloop
  endfacet
  facet normal -0.353494 -0.780468 -0.515666
    outer loop
      vertex 4.59156 -4.60321 -3.45268
      vertex 2.50248 -2.53347 -5.15318
      vertex 4.82702 -3.4172 -5.40913
    endloop
  endfacet
  facet normal -0.929818 0.353494 0.10238
    outer loop
      vertex 4.82702 -3.4172 -5.40913
      vertex 4.33743 -4.49816 -6.12333
      vertex 4.59156 -4.60321 -3.45268
    endloop
  endfacet
  facet normal -0.10238 -0.515666 0.850651
    outer loop
      vertex -5.91196 2.95264 -2.84021
      vertex -4.47115 0.117733 -4.38532
      vertex -3.58742 2.0689 -3.09616
    endloop
  endfacet
  facet normal -0.10238 -0.515666 0.850651
    outer loop
      vertex -4.47115 0.117733 -4.38532
      vertex -5.91196 2.95264 -2.84021
      vertex -6.79569 1.00147 -4.12937
    endloop
  endfacet
  facet normal 0.929818 -0.353493 -0.10238
    outer loop
      vertex -6.05832 2.21546 -1.62415
      vertex -6.79569 1.00147 -4.12937
      vertex -5.91196 2.95264 -2.84021
    endloop
  endfacet
  facet normal 0.929817 -0.353494 -0.10238
    outer loop
      vertex -6.79569 1.00147 -4.12937
      vertex -6.05832 2.21546 -1.62415
      vertex -7.09595 -0.510853 -1.63463
    endloop
  endfacet
  facet normal -0.353494 -0.780468 -0.515666
    outer loop
      vertex -3.58742 2.0689 -3.09616
      vertex -6.05832 2.21546 -1.62415
      vertex -5.91196 2.95264 -2.84021
    endloop
  endfacet
  facet normal -0.353494 -0.780468 -0.515666
    outer loop
      vertex -6.05832 2.21546 -1.62415
      vertex -3.58742 2.0689 -3.09616
      vertex -4.00348 -0.0267355 0.360838
    endloop
  endfacet
  facet normal -0.929817 0.353494 0.10238
    outer loop
      vertex -4.47115 0.117733 -4.38532
      vertex -4.00348 -0.0267355 0.360838
      vertex -3.58742 2.0689 -3.09616
    endloop
  endfacet
  facet normal -0.929817 0.353494 0.10238
    outer loop
      vertex -4.00348 -0.0267355 0.360838
      vertex -4.47115 0.117733 -4.38532
      vertex -5.04111 -2.75305 0.350361
    endloop
  endfacet
  facet normal 0.353494 0.780468 0.515666
    outer loop
      vertex -4.47115 0.117733 -4.38532
      vertex -7.09595 -0.510853 -1.63463
      vertex -5.04111 -2.75305 0.350361
    endloop
  endfacet
  facet normal 0.353494 0.780468 0.515666
    outer loop
      vertex -7.09595 -0.510853 -1.63463
      vertex -4.47115 0.117733 -4.38532
      vertex -6.79569 1.00147 -4.12937
    endloop
  endfacet
  facet normal -0.10238 -0.515665 0.850651
    outer loop
      vertex 5.43632 3.94407 -0.873375
      vertex 7.77281 3.0867 -1.11191
      vertex 5.44826 3.97043 -0.855958
    endloop
  endfacet
  facet normal -0.10238 -0.515666 0.850651
    outer loop
      vertex 7.77281 3.0867 -1.11191
      vertex 5.43632 3.94407 -0.873375
      vertex 7.59823 2.70126 -1.36657
    endloop
  endfacet
  facet normal 0.929817 -0.353495 -0.10238
    outer loop
      vertex 5.43632 3.94407 -0.873375
      vertex 5.44826 3.97043 -0.855958
      vertex 5.43538 3.90556 -0.74894
    endloop
  endfacet
  facet normal -0.353494 -0.780468 -0.515667
    outer loop
      vertex 7.77281 3.0867 -1.11191
      vertex 5.43538 3.90556 -0.74894
      vertex 5.44826 3.97043 -0.855958
    endloop
  endfacet
  facet normal -0.353494 -0.780468 -0.515666
    outer loop
      vertex 5.43538 3.90556 -0.74894
      vertex 7.77281 3.0867 -1.11191
      vertex 7.58447 2.13809 0.452932
    endloop
  endfacet
  facet normal -0.929818 0.353494 0.10238
    outer loop
      vertex 7.77281 3.0867 -1.11191
      vertex 7.59823 2.70126 -1.36657
      vertex 7.58447 2.13809 0.452932
    endloop
  endfacet
  facet normal -0.102377 -0.515668 0.85065
    outer loop
      vertex 8.5472 -5.08626 1.86397
      vertex 7.97758 -6.0029 1.23974
      vertex 8.09017 -5.87785 1.3291
    endloop
  endfacet
  facet normal -0.10238 -0.515666 0.850651
    outer loop
      vertex 1.57848 -1.08016 3.45375
      vertex 7.97758 -6.0029 1.23974
      vertex 8.5472 -5.08626 1.86397
    endloop
  endfacet
  facet normal -0.10238 -0.515666 0.850651
    outer loop
      vertex 1.57848 -1.08016 3.45375
      vertex 0.451296 -2.89173 2.21991
      vertex 7.97758 -6.0029 1.23974
    endloop
  endfacet
  facet normal -0.10238 -0.515666 0.850651
    outer loop
      vertex -2.0352 -2.28248 2.28998
      vertex 0.451296 -2.89173 2.21991
      vertex 1.57848 -1.08016 3.45375
    endloop
  endfacet
  facet normal -0.10238 -0.515666 0.850651
    outer loop
      vertex -2.0352 -2.28248 2.28998
      vertex -3.23265 -6.77924 -0.580086
      vertex 0.451296 -2.89173 2.21991
    endloop
  endfacet
  facet normal -0.10238 -0.515666 0.850651
    outer loop
      vertex -5.22802 -4.37273 0.638593
      vertex -3.23265 -6.77924 -0.580086
      vertex -2.0352 -2.28248 2.28998
    endloop
  endfacet
  facet normal -0.10238 -0.515666 0.850651
    outer loop
      vertex -6.69131 -7.43145 -1.39172
      vertex -3.23265 -6.77924 -0.580086
      vertex -5.22802 -4.37273 0.638593
    endloop
  endfacet
  facet normal -0.10238 -0.515666 0.850651
    outer loop
      vertex -3.23265 -6.77924 -0.580086
      vertex -5 -8.66025 -1.93307
      vertex -4.38473 -8.93419 -2.02508
    endloop
  endfacet
  facet normal -0.10238 -0.515666 0.850651
    outer loop
      vertex -3.23265 -6.77924 -0.580086
      vertex -5.53297 -8.27303 -1.76248
      vertex -5 -8.66025 -1.93307
    endloop
  endfacet
  facet normal -0.10238 -0.515666 0.850651
    outer loop
      vertex -3.23265 -6.77924 -0.580086
      vertex -6.69131 -7.43145 -1.39172
      vertex -5.53297 -8.27303 -1.76248
    endloop
  endfacet
  facet normal -0.10238 -0.515666 0.850651
    outer loop
      vertex -8.09017 -5.87785 -0.61829
      vertex -5.22802 -4.37273 0.638593
      vertex -7.54706 -4.11635 0.514903
    endloop
  endfacet
  facet normal -0.10238 -0.515666 0.850651
    outer loop
      vertex -5.22802 -4.37273 0.638593
      vertex -8.09017 -5.87785 -0.61829
      vertex -6.69131 -7.43145 -1.39172
    endloop
  endfacet
  facet normal -0.10238 -0.515666 0.850651
    outer loop
      vertex -8.09017 -5.87785 -0.61829
      vertex -7.54706 -4.11635 0.514903
      vertex -8.85578 -4.55178 0.0934336
    endloop
  endfacet
  facet normal -0.10238 -0.515665 0.850652
    outer loop
      vertex -3.23265 -6.77924 -0.580086
      vertex 3.09017 -9.51056 -1.47484
      vertex 3.22718 -9.44956 -1.42137
    endloop
  endfacet
  facet normal -0.10238 -0.515666 0.850651
    outer loop
      vertex 3.09017 -9.51056 -1.47484
      vertex -3.23265 -6.77924 -0.580086
      vertex 1.04528 -9.94522 -1.98444
    endloop
  endfacet
  facet normal -0.10238 -0.515666 0.850651
    outer loop
      vertex 1.04528 -9.94522 -1.98444
      vertex -3.23265 -6.77924 -0.580086
      vertex -1.04528 -9.94522 -2.23605
    endloop
  endfacet
  facet normal -0.10238 -0.515666 0.850651
    outer loop
      vertex -1.04528 -9.94522 -2.23605
      vertex -3.23265 -6.77924 -0.580086
      vertex -3.09017 -9.51056 -2.21867
    endloop
  endfacet
  facet normal -0.10238 -0.515666 0.850651
    outer loop
      vertex -3.09017 -9.51056 -2.21867
      vertex -3.23265 -6.77924 -0.580086
      vertex -4.38473 -8.93419 -2.02508
    endloop
  endfacet
  facet normal -0.10238 -0.515666 0.850651
    outer loop
      vertex 7.27755 0.815993 5.28912
      vertex 10 1.63295e-16 5.12212
      vertex 9.82515 1.66361 6.10956
    endloop
  endfacet
  facet normal -0.10238 -0.515666 0.850651
    outer loop
      vertex 10 1.63295e-16 5.12212
      vertex 7.27755 0.815993 5.28912
      vertex 9.92576 -0.706376 4.68498
    endloop
  endfacet
  facet normal -0.10238 -0.515666 0.850651
    outer loop
      vertex -7.54706 -4.11635 0.514903
      vertex -9.13545 -4.06737 0.353425
      vertex -8.85578 -4.55178 0.0934336
    endloop
  endfacet
  facet normal -0.10238 -0.515667 0.85065
    outer loop
      vertex -9.13545 -4.06737 0.353425
      vertex -7.54706 -4.11635 0.514903
      vertex -9.17813 -3.93603 0.427907
    endloop
  endfacet
  facet normal -0.10238 -0.515666 0.850651
    outer loop
      vertex 7.27755 0.815993 5.28912
      vertex 9.78148 2.07912 6.35618
      vertex 9.13545 4.06737 7.48371
    endloop
  endfacet
  facet normal -0.10238 -0.515666 0.850651
    outer loop
      vertex 5.47398 1.85281 5.70057
      vertex 9.13545 4.06737 7.48371
      vertex 8.09017 5.87785 8.45543
    endloop
  endfacet
  facet normal -0.10238 -0.515666 0.850651
    outer loop
      vertex 9.78148 2.07912 6.35618
      vertex 7.27755 0.815993 5.28912
      vertex 9.82515 1.66361 6.10956
    endloop
  endfacet
  facet normal -0.10238 -0.515666 0.850651
    outer loop
      vertex 5.47398 1.85281 5.70057
      vertex 8.09017 5.87785 8.45543
      vertex 6.69131 7.43145 9.22886
    endloop
  endfacet
  facet normal -0.102392 -0.515664 0.850651
    outer loop
      vertex 5.47398 1.85281 5.70057
      vertex 6.69131 7.43145 9.22886
      vertex 6.65686 7.45647 9.23988
    endloop
  endfacet
  facet normal -0.10238 -0.515666 0.850651
    outer loop
      vertex 9.13545 4.06737 7.48371
      vertex 5.47398 1.85281 5.70057
      vertex 7.27755 0.815993 5.28912
    endloop
  endfacet
  facet normal -0.10238 -0.515666 0.850651
    outer loop
      vertex 5 8.66025 9.77021
      vertex 5.47398 1.85281 5.70057
      vertex 6.65686 7.45647 9.23988
    endloop
  endfacet
  facet normal -0.10238 -0.515666 0.850651
    outer loop
      vertex 3.46337 9.3444 10
      vertex 5.47398 1.85281 5.70057
      vertex 5 8.66025 9.77021
    endloop
  endfacet
  facet normal -0.10238 -0.515666 0.850651
    outer loop
      vertex 3.46337 9.3444 10
      vertex 2.77861 0.102964 4.31541
      vertex 5.47398 1.85281 5.70057
    endloop
  endfacet
  facet normal -0.10238 -0.515666 0.850651
    outer loop
      vertex 0.437204 9.94522 10
      vertex 2.77861 0.102964 4.31541
      vertex 3.46337 9.3444 10
    endloop
  endfacet
  facet normal -0.10238 -0.515666 0.850651
    outer loop
      vertex -1.04528 9.94522 9.82158
      vertex 2.77861 0.102964 4.31541
      vertex 0.437204 9.94522 10
    endloop
  endfacet
  facet normal -0.10238 -0.515666 0.850651
    outer loop
      vertex -5.19081 7.05767 7.5722
      vertex 2.77861 0.102964 4.31541
      vertex -1.04528 9.94522 9.82158
    endloop
  endfacet
  facet normal -0.10238 -0.515666 0.850651
    outer loop
      vertex 2.77861 0.102964 4.31541
      vertex -5.19081 7.05767 7.5722
      vertex 1.24844 -0.890435 3.52904
    endloop
  endfacet
  facet normal -0.10238 -0.515666 0.850651
    outer loop
      vertex -1.69162 -2.05755 2.46768
      vertex 1.57848 -1.08016 3.45375
      vertex 1.24844 -0.890435 3.52904
    endloop
  endfacet
  facet normal -0.10238 -0.515667 0.850651
    outer loop
      vertex 1.57848 -1.08016 3.45375
      vertex -1.69162 -2.05755 2.46768
      vertex -2.0352 -2.28248 2.28998
    endloop
  endfacet
  facet normal -0.10238 -0.515666 0.850651
    outer loop
      vertex -5.19081 7.05767 7.5722
      vertex -1.04528 9.94522 9.82158
      vertex -3.09017 9.51056 9.31197
    endloop
  endfacet
  facet normal -0.10238 -0.515666 0.850651
    outer loop
      vertex -5.19081 7.05767 7.5722
      vertex -3.09017 9.51056 9.31197
      vertex -4.9281 8.69227 8.59472
    endloop
  endfacet
  facet normal -0.102391 -0.515648 0.850661
    outer loop
      vertex -5.06664 8.61184 8.52929
      vertex -4.9281 8.69227 8.59472
      vertex -5 8.66025 8.56666
    endloop
  endfacet
  facet normal -0.102376 -0.515667 0.850651
    outer loop
      vertex -4.9281 8.69227 8.59472
      vertex -5.06664 8.61184 8.52929
      vertex -5.19081 7.05767 7.5722
    endloop
  endfacet
  facet normal -0.10238 -0.515666 0.850651
    outer loop
      vertex 1.24844 -0.890435 3.52904
      vertex -5.19081 7.05767 7.5722
      vertex -1.69162 -2.05755 2.46768
    endloop
  endfacet
  facet normal -0.10238 -0.515666 0.850651
    outer loop
      vertex -6.69131 7.43145 7.6182
      vertex -5.19081 7.05767 7.5722
      vertex -5.06664 8.61184 8.52929
    endloop
  endfacet
  facet normal -0.10238 -0.515667 0.85065
    outer loop
      vertex -5.19081 7.05767 7.5722
      vertex -6.69131 7.43145 7.6182
      vertex -6.86155 7.24237 7.48309
    endloop
  endfacet
  facet normal 0.470809 -0.0271697 -0.881817
    outer loop
      vertex 1.24844 -0.890435 3.52904
      vertex -0.739533 0.744528 2.41727
      vertex 2.77861 0.102964 4.31541
    endloop
  endfacet
  facet normal 0.524986 0.811925 0.255278
    outer loop
      vertex 1.57848 -1.08016 3.45375
      vertex -0.739533 0.744528 2.41727
      vertex 1.24844 -0.890435 3.52904
    endloop
  endfacet
  facet normal 0.524986 0.811925 0.255278
    outer loop
      vertex 9.13545 -4.06737 -2.58643
      vertex 1.57848 -1.08016 3.45375
      vertex 8.5472 -5.08626 1.86397
    endloop
  endfacet
  facet normal 0.524986 0.811925 0.255278
    outer loop
      vertex 1.57848 -1.08016 3.45375
      vertex 9.13545 -4.06737 -2.58643
      vertex 3.96855 0.472832 -6.4009
    endloop
  endfacet
  facet normal 0.524985 0.811926 0.255278
    outer loop
      vertex 8.93861 -3.61468 -3.62141
      vertex 9.13545 -4.06737 -2.58643
      vertex 9.18052 -3.92865 -3.1203
    endloop
  endfacet
  facet normal 0.524986 0.811925 0.255278
    outer loop
      vertex 9.13545 -4.06737 -2.58643
      vertex 8.93861 -3.61468 -3.62141
      vertex 3.96855 0.472832 -6.4009
    endloop
  endfacet
  facet normal 0.524986 0.811925 0.255278
    outer loop
      vertex 1.57848 -1.08016 3.45375
      vertex 3.96855 0.472832 -6.4009
      vertex -0.739533 0.744528 2.41727
    endloop
  endfacet
  facet normal 0.470809 -0.0271697 -0.881817
    outer loop
      vertex 2.77861 0.102964 4.31541
      vertex 1.8854 4.80415 3.69366
      vertex 5.47398 1.85281 5.70057
    endloop
  endfacet
  facet normal 0.470809 -0.0271697 -0.881817
    outer loop
      vertex 1.8854 4.80415 3.69366
      vertex 2.77861 0.102964 4.31541
      vertex -0.739533 0.744528 2.41727
    endloop
  endfacet
  facet normal 0.709034 -0.583129 0.396525
    outer loop
      vertex -0.739533 0.744528 2.41727
      vertex 3.96855 0.472832 -6.4009
      vertex 1.8854 4.80415 3.69366
    endloop
  endfacet
  facet normal -0.524986 -0.811925 -0.255278
    outer loop
      vertex 5.43538 3.90556 -0.74894
      vertex 5.47398 1.85281 5.70057
      vertex 1.8854 4.80415 3.69366
    endloop
  endfacet
  facet normal -0.524986 -0.811925 -0.255278
    outer loop
      vertex 5.47398 1.85281 5.70057
      vertex 7.58447 2.13809 0.452932
      vertex 7.27755 0.815993 5.28912
    endloop
  endfacet
  facet normal -0.524986 -0.811925 -0.255278
    outer loop
      vertex 10 1.13282e-16 2.28563
      vertex 7.27755 0.815993 5.28912
      vertex 7.58447 2.13809 0.452932
    endloop
  endfacet
  facet normal -0.524986 -0.811925 -0.255278
    outer loop
      vertex 7.27755 0.815993 5.28912
      vertex 10 1.13282e-16 2.28563
      vertex 9.92576 -0.706376 4.68498
    endloop
  endfacet
  facet normal -0.524986 -0.811925 -0.255278
    outer loop
      vertex 5.47398 1.85281 5.70057
      vertex 5.43538 3.90556 -0.74894
      vertex 7.58447 2.13809 0.452932
    endloop
  endfacet
  facet normal -0.524987 -0.811925 -0.255278
    outer loop
      vertex 1.8854 4.80415 3.69366
      vertex 5.43632 3.94407 -0.873375
      vertex 5.43538 3.90556 -0.74894
    endloop
  endfacet
  facet normal -0.524986 -0.811925 -0.255278
    outer loop
      vertex 6.59349 4.53246 -5.12451
      vertex 7.59823 2.70126 -1.36657
      vertex 5.43632 3.94407 -0.873375
    endloop
  endfacet
  facet normal -0.524986 -0.811925 -0.255278
    outer loop
      vertex 7.59823 2.70126 -1.36657
      vertex 6.59349 4.53246 -5.12451
      vertex 9.80087 1.89462 -3.33079
    endloop
  endfacet
  facet normal -0.524986 -0.811925 -0.255278
    outer loop
      vertex 6.59349 4.53246 -5.12451
      vertex 5.43632 3.94407 -0.873375
      vertex 1.8854 4.80415 3.69366
    endloop
  endfacet
  facet normal -0.524986 -0.811925 -0.255278
    outer loop
      vertex 7.59823 2.70126 -1.36657
      vertex 10 1.13282e-16 2.28563
      vertex 7.58447 2.13809 0.452932
    endloop
  endfacet
  facet normal -0.524986 -0.811925 -0.255278
    outer loop
      vertex 10 1.13282e-16 2.28563
      vertex 7.59823 2.70126 -1.36657
      vertex 9.80087 1.89462 -3.33079
    endloop
  endfacet
  facet normal -0.470809 0.0271695 0.881817
    outer loop
      vertex 9.69648 -2.34071 -3.25602
      vertex 8.93861 -3.61468 -3.62141
      vertex 9.62994 -2.54549 -3.28524
    endloop
  endfacet
  facet normal -0.470809 0.0271696 0.881817
    outer loop
      vertex 3.96855 0.472832 -6.4009
      vertex 9.69648 -2.34071 -3.25602
      vertex 6.59349 4.53246 -5.12451
    endloop
  endfacet
  facet normal -0.470809 0.0271697 0.881817
    outer loop
      vertex 9.69648 -2.34071 -3.25602
      vertex 3.96855 0.472832 -6.4009
      vertex 8.93861 -3.61468 -3.62141
    endloop
  endfacet
  facet normal 0.709034 -0.583129 0.396525
    outer loop
      vertex 3.96855 0.472832 -6.4009
      vertex 6.59349 4.53246 -5.12451
      vertex 1.8854 4.80415 3.69366
    endloop
  endfacet
  facet normal -0.470809 0.0271697 0.881817
    outer loop
      vertex 6.59349 4.53246 -5.12451
      vertex 10 1.71595e-17 -3.16609
      vertex 9.80087 1.89462 -3.33079
    endloop
  endfacet
  facet normal -0.470809 0.0271695 0.881817
    outer loop
      vertex 10 1.71595e-17 -3.16609
      vertex 6.59349 4.53246 -5.12451
      vertex 9.78148 -2.07912 -3.2187
    endloop
  endfacet
  facet normal -0.470808 0.02717 0.881817
    outer loop
      vertex 9.78148 -2.07912 -3.2187
      vertex 6.59349 4.53246 -5.12451
      vertex 9.69648 -2.34071 -3.25602
    endloop
  endfacet
  facet normal 0.762249 -0.315094 -0.565413
    outer loop
      vertex -3.23265 -6.77924 -0.580086
      vertex -3.5677 -1.23039 -4.12404
      vertex 0.451296 -2.89173 2.21991
    endloop
  endfacet
  facet normal 0.762249 -0.315094 -0.565413
    outer loop
      vertex -3.5677 -1.23039 -4.12404
      vertex -3.23265 -6.77924 -0.580086
      vertex -5.4778 -5.85115 -4.12404
    endloop
  endfacet
  facet normal -0.382021 -0.924154 -1.82288e-08
    outer loop
      vertex 4.59156 -4.60321 -3.45268
      vertex 0.451296 -2.89173 2.21991
      vertex 2.28117 -3.64816 -3.31437
    endloop
  endfacet
  facet normal -0.382021 -0.924154 -2.11097e-09
    outer loop
      vertex -3.5677 -1.23039 -4.12404
      vertex 2.28117 -3.64816 -3.31437
      vertex 0.451296 -2.89173 2.21991
    endloop
  endfacet
  facet normal -0.382021 -0.924154 1.52414e-08
    outer loop
      vertex -3.5677 -1.23039 -4.12404
      vertex 2.04233 -3.54942 -5.82443
      vertex 2.28117 -3.64816 -3.31437
    endloop
  endfacet
  facet normal -0.382021 -0.924154 2.45361e-08
    outer loop
      vertex 2.04233 -3.54942 -5.82443
      vertex 4.05479 -4.38133 -9.77817
      vertex 4.33743 -4.49816 -6.12333
    endloop
  endfacet
  facet normal -0.382021 -0.924154 -1.7926e-08
    outer loop
      vertex 4.05479 -4.38133 -9.77817
      vertex 2.04233 -3.54942 -5.82443
      vertex -3.5677 -1.23039 -4.12404
    endloop
  endfacet
  facet normal -0.382021 -0.924154 1.24283e-08
    outer loop
      vertex 0.451296 -2.89173 2.21991
      vertex 4.59156 -4.60321 -3.45268
      vertex 7.97758 -6.0029 1.23974
    endloop
  endfacet
  facet normal -0.382021 -0.924154 0
    outer loop
      vertex 4.59156 -4.60321 -3.45268
      vertex 7.97758 -6.0029 -3.58609
      vertex 7.97758 -6.0029 1.23974
    endloop
  endfacet
  facet normal -0.382021 -0.924154 -8.60329e-08
    outer loop
      vertex 4.33743 -4.49816 -6.12333
      vertex 7.97758 -6.0029 -3.58609
      vertex 4.59156 -4.60321 -3.45268
    endloop
  endfacet
  facet normal -0.382021 -0.924154 3.60567e-08
    outer loop
      vertex 7.97758 -6.0029 -3.58609
      vertex 4.33743 -4.49816 -6.12333
      vertex 4.05479 -4.38133 -9.77817
    endloop
  endfacet
  facet normal 0.522529 -0.216 0.824808
    outer loop
      vertex -3.5677 -1.23039 -4.12404
      vertex 2.14469 -9.00209 -9.77817
      vertex 4.05479 -4.38133 -9.77817
    endloop
  endfacet
  facet normal 0.522529 -0.216 0.824808
    outer loop
      vertex 2.14469 -9.00209 -9.77817
      vertex -3.5677 -1.23039 -4.12404
      vertex -5.4778 -5.85115 -4.12404
    endloop
  endfacet
  facet normal 0.382021 0.924154 -4.61986e-08
    outer loop
      vertex 3.22718 -9.44956 -1.42137
      vertex -5.4778 -5.85115 -4.12404
      vertex -3.23265 -6.77924 -0.580086
    endloop
  endfacet
  facet normal 0.382021 0.924154 -1.46271e-07
    outer loop
      vertex 3.22718 -9.44957 -8.06947
      vertex -5.4778 -5.85115 -4.12404
      vertex 3.22718 -9.44956 -1.42137
    endloop
  endfacet
  facet normal 0.382022 0.924153 1.30482e-06
    outer loop
      vertex 2.97914 -9.34703 -8.46099
      vertex -5.4778 -5.85115 -4.12404
      vertex 3.22718 -9.44957 -8.06947
    endloop
  endfacet
  facet normal 0.382021 0.924154 -1.3267e-07
    outer loop
      vertex -5.4778 -5.85115 -4.12404
      vertex 2.97914 -9.34703 -8.46099
      vertex 2.14469 -9.00209 -9.77817
    endloop
  endfacet
  facet normal -0.553117 0.207415 0.806871
    outer loop
      vertex -4.00348 -0.0267355 0.360838
      vertex -1.69162 -2.05755 2.46768
      vertex -0.796417 5.4098 1.16179
    endloop
  endfacet
  facet normal -0.553117 0.207415 0.806871
    outer loop
      vertex -1.69162 -2.05755 2.46768
      vertex -4.00348 -0.0267355 0.360838
      vertex -2.0352 -2.28248 2.28998
    endloop
  endfacet
  facet normal -0.553117 0.207415 0.806871
    outer loop
      vertex -0.796417 5.4098 1.16179
      vertex -6.05832 2.21546 -1.62415
      vertex -4.00348 -0.0267355 0.360838
    endloop
  endfacet
  facet normal -0.553117 0.207415 0.806871
    outer loop
      vertex -9.13545 4.06737 -4.20961
      vertex -6.05832 2.21546 -1.62415
      vertex -8.3604 5.4098 -4.02339
    endloop
  endfacet
  facet normal -0.553117 0.207415 0.806871
    outer loop
      vertex -8.3604 5.4098 -4.02339
      vertex -6.05832 2.21546 -1.62415
      vertex -0.796417 5.4098 1.16179
    endloop
  endfacet
  facet normal -0.553117 0.207415 0.806871
    outer loop
      vertex -5.04111 -2.75305 0.350361
      vertex -2.0352 -2.28248 2.28998
      vertex -4.00348 -0.0267355 0.360838
    endloop
  endfacet
  facet normal -0.553117 0.207415 0.806871
    outer loop
      vertex -5.04111 -2.75305 0.350361
      vertex -5.22802 -4.37273 0.638593
      vertex -2.0352 -2.28248 2.28998
    endloop
  endfacet
  facet normal -0.553117 0.207415 0.806871
    outer loop
      vertex -9.13545 -4.06737 -2.11849
      vertex -5.04111 -2.75305 0.350361
      vertex -7.09595 -0.510853 -1.63463
    endloop
  endfacet
  facet normal -0.553117 0.207414 0.806871
    outer loop
      vertex -8.95915 -4.37273 -1.91913
      vertex -5.04111 -2.75305 0.350361
      vertex -9.13545 -4.06737 -2.11849
    endloop
  endfacet
  facet normal -0.553118 0.207414 0.806871
    outer loop
      vertex -9.24634 3.72609 -4.19789
      vertex -6.05832 2.21546 -1.62415
      vertex -9.13545 4.06737 -4.20961
    endloop
  endfacet
  facet normal -0.553117 0.207415 0.806871
    outer loop
      vertex -6.05832 2.21546 -1.62415
      vertex -9.24634 3.72609 -4.19789
      vertex -7.09595 -0.510853 -1.63463
    endloop
  endfacet
  facet normal -0.553117 0.207415 0.806871
    outer loop
      vertex -7.09595 -0.510853 -1.63463
      vertex -9.24634 3.72609 -4.19789
      vertex -9.8566 -1.36437 -3.30767
    endloop
  endfacet
  facet normal -0.553117 0.207415 0.806871
    outer loop
      vertex -9.78148 -2.07912 -3.07244
      vertex -7.09595 -0.510853 -1.63463
      vertex -9.8566 -1.36437 -3.30767
    endloop
  endfacet
  facet normal -0.553117 0.207415 0.806871
    outer loop
      vertex -9.13545 -4.06737 -2.11849
      vertex -7.09595 -0.510853 -1.63463
      vertex -9.78148 -2.07912 -3.07244
    endloop
  endfacet
  facet normal -0.553117 0.207415 0.806871
    outer loop
      vertex -5.04111 -2.75305 0.350361
      vertex -8.95915 -4.37273 -1.91913
      vertex -5.22802 -4.37273 0.638593
    endloop
  endfacet
  facet normal -0.824808 7.22139e-09 -0.565413
    outer loop
      vertex -0.796417 5.4098 1.16179
      vertex -1.69162 -2.05755 2.46768
      vertex -5.19081 7.05767 7.5722
    endloop
  endfacet
  facet normal 0.117275 0.978253 -0.171077
    outer loop
      vertex -7.54706 -4.11635 0.514903
      vertex -9.13545 -4.06737 -0.293864
      vertex -9.17813 -3.93603 0.427907
    endloop
  endfacet
  facet normal 0.117275 0.978253 -0.171077
    outer loop
      vertex -8.95915 -4.37273 -1.91913
      vertex -7.54706 -4.11635 0.514903
      vertex -5.22802 -4.37273 0.638593
    endloop
  endfacet
  facet normal 0.117275 0.978253 -0.171077
    outer loop
      vertex -7.54706 -4.11635 0.514903
      vertex -8.95915 -4.37273 -1.91913
      vertex -9.13545 -4.06737 -0.293864
    endloop
  endfacet
  facet normal -0.117275 -0.978253 0.171077
    outer loop
      vertex -8.09017 5.87785 -1.16174
      vertex -5.19081 7.05767 7.5722
      vertex -6.86155 7.24237 7.48309
    endloop
  endfacet
  facet normal -0.117275 -0.978253 0.171077
    outer loop
      vertex -5.19081 7.05767 7.5722
      vertex -8.09017 5.87785 -1.16174
      vertex -0.796417 5.4098 1.16179
    endloop
  endfacet
  facet normal -0.117275 -0.978253 0.171077
    outer loop
      vertex -0.796417 5.4098 1.16179
      vertex -8.09017 5.87785 -1.16174
      vertex -8.3604 5.4098 -4.02339
    endloop
  endfacet
  facet normal 0.47973 -0.311416 0.820292
    outer loop
      vertex 9.81023 -1.80554 -18.5469
      vertex 9.50226 -2.93844 -18.7969
      vertex 9.78148 -2.07912 -18.6339
    endloop
  endfacet
  facet normal 0.479734 -0.311416 0.820289
    outer loop
      vertex 3.30566 0.88328 -13.722
      vertex 9.50226 -2.93844 -18.7969
      vertex 9.81023 -1.80554 -18.5469
    endloop
  endfacet
  facet normal 0.479734 -0.311417 0.820289
    outer loop
      vertex 9.50226 -2.93844 -18.7969
      vertex 3.30566 0.88328 -13.722
      vertex 2.3972 -0.990943 -13.9022
    endloop
  endfacet
  facet normal 0.479734 -0.311416 0.820289
    outer loop
      vertex 9.21881 -3.81082 -18.9623
      vertex 9.50226 -2.93844 -18.7969
      vertex 2.3972 -0.990943 -13.9022
    endloop
  endfacet
  facet normal 0.643534 0.275017 0.714304
    outer loop
      vertex 1.29514 -4.93656 -13.1891
      vertex 6.69131 -7.43145 -17.0901
      vertex 6.8647 -7.23887 -17.3205
    endloop
  endfacet
  facet normal 0.643534 0.275015 0.714305
    outer loop
      vertex 6.69131 -7.43145 -17.0901
      vertex 1.29514 -4.93656 -13.1891
      vertex 5.20451 -8.51167 -15.3347
    endloop
  endfacet
  facet normal 0.643534 0.275015 0.714305
    outer loop
      vertex 5.20451 -8.51167 -15.3347
      vertex 1.29514 -4.93656 -13.1891
      vertex 1.14968 -6.8355 -12.327
    endloop
  endfacet
  facet normal 0.762249 -0.315094 -0.565413
    outer loop
      vertex 2.3972 -0.990943 -13.9022
      vertex 3.30566 0.88328 -13.722
      vertex 4.40277 2.58119 -13.1891
    endloop
  endfacet
  facet normal 0.762249 -0.315094 -0.565413
    outer loop
      vertex 1.76151 -9.79298 -9.854
      vertex 2.3972 -0.990943 -13.9022
      vertex 4.40277 2.58119 -13.1891
    endloop
  endfacet
  facet normal 0.762251 -0.315093 -0.565411
    outer loop
      vertex 2.3972 -0.990943 -13.9022
      vertex 1.76151 -9.79298 -9.854
      vertex 1.72236 -9.8013 -9.90214
    endloop
  endfacet
  facet normal 0.762249 -0.315094 -0.565413
    outer loop
      vertex 6.96506 5.16218 -11.1732
      vertex 8.12286 5.82124 -9.9796
      vertex 8.19893 5.68948 -9.80361
    endloop
  endfacet
  facet normal 0.378903 -0.491007 0.784439
    outer loop
      vertex 3.30566 0.88328 -13.722
      vertex 9.94209 -0.550971 -17.8253
      vertex 4.40277 2.58119 -13.1891
    endloop
  endfacet
  facet normal 0.378903 -0.491008 0.784439
    outer loop
      vertex 9.94209 -0.550971 -17.8253
      vertex 3.30566 0.88328 -13.722
      vertex 9.81023 -1.80554 -18.5469
    endloop
  endfacet
  facet normal 0.76225 -0.315093 -0.565412
    outer loop
      vertex 1.65729 -9.81513 -9.98216
      vertex 1.28712 -8.57342 -11.1732
      vertex 1.14968 -6.8355 -12.327
    endloop
  endfacet
  facet normal 0.762243 -0.3151 -0.565417
    outer loop
      vertex 1.28712 -8.57342 -11.1732
      vertex 1.65729 -9.81513 -9.98216
      vertex 1.63141 -9.82063 -10.014
    endloop
  endfacet
  facet normal 0.762249 -0.315094 -0.565413
    outer loop
      vertex 1.72236 -9.8013 -9.90214
      vertex 1.71712 -2.95957 -13.722
      vertex 2.3972 -0.990943 -13.9022
    endloop
  endfacet
  facet normal 0.762249 -0.315094 -0.565413
    outer loop
      vertex 1.71712 -2.95957 -13.722
      vertex 1.72236 -9.8013 -9.90214
      vertex 1.70204 -9.80562 -9.92713
    endloop
  endfacet
  facet normal 0.762249 -0.315094 -0.565413
    outer loop
      vertex 9.13545 4.06737 -7.63709
      vertex 4.40277 2.58119 -13.1891
      vertex 8.36638 5.39944 -9.41624
    endloop
  endfacet
  facet normal 0.762249 -0.315094 -0.565413
    outer loop
      vertex 9.78148 2.07912 -5.65816
      vertex 4.40277 2.58119 -13.1891
      vertex 9.13545 4.06737 -7.63709
    endloop
  endfacet
  facet normal 0.762249 -0.315094 -0.565413
    outer loop
      vertex 10 -1.15655e-18 -4.20491
      vertex 4.40277 2.58119 -13.1891
      vertex 9.78148 2.07912 -5.65816
    endloop
  endfacet
  facet normal 0.762249 -0.315094 -0.565413
    outer loop
      vertex 4.40277 2.58119 -13.1891
      vertex 10 -1.15655e-18 -4.20491
      vertex 9.89647 -0.985017 -3.79555
    endloop
  endfacet
  facet normal 0.643936 0.45786 0.612952
    outer loop
      vertex 3.31357 -9.4111 -12.6763
      vertex 1.14968 -6.8355 -12.327
      vertex 1.28712 -8.57342 -11.1732
    endloop
  endfacet
  facet normal 0.643936 0.45786 0.612952
    outer loop
      vertex 1.14968 -6.8355 -12.327
      vertex 5 -8.66025 -15.0089
      vertex 5.20451 -8.51167 -15.3347
    endloop
  endfacet
  facet normal 0.643936 0.45786 0.612952
    outer loop
      vertex 1.14968 -6.8355 -12.327
      vertex 3.31357 -9.4111 -12.6763
      vertex 5 -8.66025 -15.0089
    endloop
  endfacet
  facet normal 0.76225 -0.315094 -0.565413
    outer loop
      vertex 7.97758 -6.0029 -3.58609
      vertex 8.93861 -3.61468 -3.62141
      vertex 8.09017 -5.87785 -3.50398
    endloop
  endfacet
  facet normal 0.762249 -0.315094 -0.565413
    outer loop
      vertex 8.93861 -3.61468 -3.62141
      vertex 7.97758 -6.0029 -3.58609
      vertex 4.05479 -4.38133 -9.77817
    endloop
  endfacet
  facet normal 0.762249 -0.315094 -0.565413
    outer loop
      vertex 8.93861 -3.61468 -3.62141
      vertex 9.89647 -0.985017 -3.79555
      vertex 9.78148 -2.07912 -3.34085
    endloop
  endfacet
  facet normal 0.762249 -0.315094 -0.565413
    outer loop
      vertex 8.93861 -3.61468 -3.62141
      vertex 9.78148 -2.07912 -3.34085
      vertex 9.62994 -2.54549 -3.28524
    endloop
  endfacet
  facet normal 0.762249 -0.315094 -0.565413
    outer loop
      vertex 9.89647 -0.985017 -3.79555
      vertex 8.93861 -3.61468 -3.62141
      vertex 4.05479 -4.38133 -9.77817
    endloop
  endfacet
  facet normal 0.762248 -0.315095 -0.565414
    outer loop
      vertex 9.13545 -4.06737 -3.10376
      vertex 8.93861 -3.61468 -3.62141
      vertex 9.18052 -3.92865 -3.1203
    endloop
  endfacet
  facet normal 0.762249 -0.315094 -0.565413
    outer loop
      vertex 8.09017 -5.87785 -3.50398
      vertex 8.93861 -3.61468 -3.62141
      vertex 9.13545 -4.06737 -3.10376
    endloop
  endfacet
  facet normal 0.762249 -0.315094 -0.565413
    outer loop
      vertex 9.89647 -0.985017 -3.79555
      vertex 4.05479 -4.38133 -9.77817
      vertex 4.40277 2.58119 -13.1891
    endloop
  endfacet
  facet normal 0.762249 -0.315094 -0.565413
    outer loop
      vertex 2.14469 -9.00209 -9.77817
      vertex 4.40277 2.58119 -13.1891
      vertex 4.05479 -4.38133 -9.77817
    endloop
  endfacet
  facet normal 0.762249 -0.315094 -0.565413
    outer loop
      vertex 2.4545 -9.64568 -9.00185
      vertex 2.14469 -9.00209 -9.77817
      vertex 2.97914 -9.34703 -8.46099
    endloop
  endfacet
  facet normal 0.762249 -0.315094 -0.565413
    outer loop
      vertex 2.14469 -9.00209 -9.77817
      vertex 1.76151 -9.79298 -9.854
      vertex 4.40277 2.58119 -13.1891
    endloop
  endfacet
  facet normal 0.762249 -0.315094 -0.565413
    outer loop
      vertex 1.76151 -9.79298 -9.854
      vertex 2.14469 -9.00209 -9.77817
      vertex 2.4545 -9.64568 -9.00185
    endloop
  endfacet
  facet normal 0.762249 -0.315093 -0.565414
    outer loop
      vertex 3.09017 -9.51056 -8.22018
      vertex 2.97914 -9.34703 -8.46099
      vertex 3.22718 -9.44957 -8.06947
    endloop
  endfacet
  facet normal 0.762249 -0.315093 -0.565414
    outer loop
      vertex 2.97914 -9.34703 -8.46099
      vertex 3.09017 -9.51056 -8.22018
      vertex 2.4545 -9.64568 -9.00185
    endloop
  endfacet
  facet normal 0.261513 -0.649138 0.714305
    outer loop
      vertex 4.40277 2.58119 -13.1891
      vertex 9.78148 2.07912 -15.6146
      vertex 9.69225 2.35373 -15.3323
    endloop
  endfacet
  facet normal 0.261513 -0.649138 0.714305
    outer loop
      vertex 4.40277 2.58119 -13.1891
      vertex 9.69225 2.35373 -15.3323
      vertex 5.64061 4.02857 -12.327
    endloop
  endfacet
  facet normal 0.261512 -0.649138 0.714304
    outer loop
      vertex 9.78148 2.07912 -15.6146
      vertex 4.40277 2.58119 -13.1891
      vertex 9.97061 0.279587 -17.3192
    endloop
  endfacet
  facet normal 0.559598 -0.118217 0.820289
    outer loop
      vertex 2.3972 -0.990943 -13.9022
      vertex 9.13545 -4.06737 -18.9424
      vertex 9.21881 -3.81082 -18.9623
    endloop
  endfacet
  facet normal 0.559598 -0.118216 0.820289
    outer loop
      vertex 9.13545 -4.06737 -18.9424
      vertex 2.3972 -0.990943 -13.9022
      vertex 8.22247 -5.64871 -18.5474
    endloop
  endfacet
  facet normal 0.559598 -0.118216 0.820289
    outer loop
      vertex 8.22247 -5.64871 -18.5474
      vertex 2.3972 -0.990943 -13.9022
      vertex 1.71712 -2.95957 -13.722
    endloop
  endfacet
  facet normal 0.615005 0.0801504 0.784439
    outer loop
      vertex 1.71712 -2.95957 -13.722
      vertex 8.09017 -5.87785 -18.4203
      vertex 8.22247 -5.64871 -18.5474
    endloop
  endfacet
  facet normal 0.615005 0.0801512 0.784439
    outer loop
      vertex 8.09017 -5.87785 -18.4203
      vertex 1.71712 -2.95957 -13.722
      vertex 6.8647 -7.23887 -17.3205
    endloop
  endfacet
  facet normal 0.615005 0.0801513 0.784439
    outer loop
      vertex 6.8647 -7.23887 -17.3205
      vertex 1.71712 -2.95957 -13.722
      vertex 1.29514 -4.93656 -13.1891
    endloop
  endfacet
  facet normal 0.132693 -0.778899 0.612952
    outer loop
      vertex 5.64061 4.02857 -12.327
      vertex 8.98558 4.32695 -12.6719
      vertex 6.96506 5.16218 -11.1732
    endloop
  endfacet
  facet normal 0.132693 -0.778898 0.612952
    outer loop
      vertex 5.64061 4.02857 -12.327
      vertex 9.13545 4.06737 -13.0342
      vertex 8.98558 4.32695 -12.6719
    endloop
  endfacet
  facet normal 0.132692 -0.778899 0.612952
    outer loop
      vertex 9.13545 4.06737 -13.0342
      vertex 5.64061 4.02857 -12.327
      vertex 9.69225 2.35373 -15.3323
    endloop
  endfacet
  facet normal 0.616196 0.620693 0.484811
    outer loop
      vertex 3.1312 -9.4923 -12.3406
      vertex 3.31357 -9.4111 -12.6763
      vertex 1.28712 -8.57342 -11.1732
    endloop
  endfacet
  facet normal 0.616196 0.620695 0.48481
    outer loop
      vertex 3.09017 -9.51056 -12.265
      vertex 1.28712 -8.57342 -11.1732
      vertex 1.63141 -9.82063 -10.014
    endloop
  endfacet
  facet normal 0.616195 0.6207 0.484804
    outer loop
      vertex 1.28712 -8.57342 -11.1732
      vertex 3.09017 -9.51056 -12.265
      vertex 3.1312 -9.4923 -12.3406
    endloop
  endfacet
  facet normal 0.378887 -0.49101 0.784445
    outer loop
      vertex 9.97061 0.279587 -17.3192
      vertex 9.94209 -0.550971 -17.8253
      vertex 10 -2.35719e-16 -17.5084
    endloop
  endfacet
  facet normal 0.378904 -0.491006 0.784439
    outer loop
      vertex 9.94209 -0.550971 -17.8253
      vertex 9.97061 0.279587 -17.3192
      vertex 4.40277 2.58119 -13.1891
    endloop
  endfacet
  facet normal 0.762249 -0.315094 -0.565413
    outer loop
      vertex 4.40277 2.58119 -13.1891
      vertex 5.64061 4.02857 -12.327
      vertex 6.96506 5.16218 -11.1732
    endloop
  endfacet
  facet normal 0.762249 -0.315092 -0.565414
    outer loop
      vertex 8.36638 5.39944 -9.41624
      vertex 6.96506 5.16218 -11.1732
      vertex 8.19893 5.68948 -9.80361
    endloop
  endfacet
  facet normal 0.762249 -0.315094 -0.565413
    outer loop
      vertex 6.96506 5.16218 -11.1732
      vertex 8.36638 5.39944 -9.41624
      vertex 4.40277 2.58119 -13.1891
    endloop
  endfacet
  facet normal -0.00192686 -0.874617 0.48481
    outer loop
      vertex 6.96506 5.16218 -11.1732
      vertex 8.86987 4.52737 -12.3108
      vertex 8.12286 5.82124 -9.9796
    endloop
  endfacet
  facet normal -0.00192675 -0.874617 0.48481
    outer loop
      vertex 8.98558 4.32695 -12.6719
      vertex 8.86987 4.52737 -12.3108
      vertex 6.96506 5.16218 -11.1732
    endloop
  endfacet
  facet normal 0.762249 -0.315094 -0.565413
    outer loop
      vertex 1.70204 -9.80562 -9.92713
      vertex 1.14968 -6.8355 -12.327
      vertex 1.71712 -2.95957 -13.722
    endloop
  endfacet
  facet normal 0.762253 -0.315091 -0.56541
    outer loop
      vertex 1.14968 -6.8355 -12.327
      vertex 1.70204 -9.80562 -9.92713
      vertex 1.65729 -9.81513 -9.98216
    endloop
  endfacet
  facet normal 0.76225 -0.315094 -0.565413
    outer loop
      vertex 1.14968 -6.8355 -12.327
      vertex 1.29514 -4.93656 -13.1891
      vertex 1.71712 -2.95957 -13.722
    endloop
  endfacet
  facet normal -0.516647 0.406274 0.753669
    outer loop
      vertex -8.98776 -4.32317 -17.0265
      vertex -8.59954 -4.9956 -16.3979
      vertex -3.35002 -4.9956 -12.7993
    endloop
  endfacet
  facet normal -0.553117 0.207414 0.806871
    outer loop
      vertex -2.62462 -1.04023 -13.8575
      vertex -9.83224 -1.59613 -18.6555
      vertex -9.79856 -1.9166 -18.55
    endloop
  endfacet
  facet normal -0.553117 0.207414 0.806871
    outer loop
      vertex -9.83224 -1.59613 -18.6555
      vertex -2.62462 -1.04023 -13.8575
      vertex -9.89067 -1.04023 -18.8384
    endloop
  endfacet
  facet normal -0.824808 1.10597e-06 -0.565412
    outer loop
      vertex -4.92234 -8.08718 -10.5056
      vertex -5.36931 -8.39193 -9.85359
      vertex -4.04432 -6.68753 -11.7865
    endloop
  endfacet
  facet normal -0.824809 3.96666e-06 -0.565412
    outer loop
      vertex -5.36931 -8.39193 -9.85359
      vertex -4.92234 -8.08718 -10.5056
      vertex -5.28229 -8.45516 -9.98054
    endloop
  endfacet
  facet normal -0.82481 1.98923e-06 -0.565411
    outer loop
      vertex -3.35002 -4.9956 -12.7993
      vertex -4.04432 -6.68753 -11.7865
      vertex -2.86979 -3.08534 -13.4998
    endloop
  endfacet
  facet normal -0.824808 -4.48875e-08 -0.565413
    outer loop
      vertex -2.86979 -3.08534 -13.4998
      vertex -8.09017 5.87785 -5.88448
      vertex -7.03685 7.04768 -7.42103
    endloop
  endfacet
  facet normal -0.824808 -1.48955e-07 -0.565413
    outer loop
      vertex -9.24634 3.72609 -4.19789
      vertex -8.09017 5.87785 -5.88448
      vertex -2.86979 -3.08534 -13.4998
    endloop
  endfacet
  facet normal -0.824806 -3.51005e-06 -0.565416
    outer loop
      vertex -8.09017 5.87785 -5.88448
      vertex -9.24634 3.72609 -4.19789
      vertex -9.13545 4.06737 -4.35965
    endloop
  endfacet
  facet normal -0.824808 9.13929e-08 -0.565413
    outer loop
      vertex -9.24634 3.72609 -4.19789
      vertex -2.86979 -3.08534 -13.4998
      vertex -9.8566 -1.36437 -3.30767
    endloop
  endfacet
  facet normal -0.824808 -8.6462e-08 -0.565413
    outer loop
      vertex -9.13545 -4.06737 -4.35965
      vertex -9.8566 -1.36437 -3.30767
      vertex -2.86979 -3.08534 -13.4998
    endloop
  endfacet
  facet normal -0.824808 -2.29026e-07 -0.565413
    outer loop
      vertex -9.8566 -1.36437 -3.30767
      vertex -9.13545 -4.06737 -4.35965
      vertex -9.78148 -2.07912 -3.41726
    endloop
  endfacet
  facet normal -0.824808 1.74611e-07 -0.565413
    outer loop
      vertex -9.13545 -4.06737 -4.35965
      vertex -2.86979 -3.08534 -13.4998
      vertex -8.48142 -5.20019 -5.31375
    endloop
  endfacet
  facet normal -0.552998 -0.208409 0.806697
    outer loop
      vertex -9.4514 3.095 -18.0078
      vertex -2.62522 1.05034 -13.8566
      vertex -2.87157 3.095 -13.4972
    endloop
  endfacet
  facet normal -0.552998 -0.20841 0.806696
    outer loop
      vertex -9.78148 2.07912 -18.4965
      vertex -2.62522 1.05034 -13.8566
      vertex -9.4514 3.095 -18.0078
    endloop
  endfacet
  facet normal -0.552998 -0.208406 0.806697
    outer loop
      vertex -9.83224 1.59616 -18.656
      vertex -2.62522 1.05034 -13.8566
      vertex -9.78148 2.07912 -18.4965
    endloop
  endfacet
  facet normal -0.552998 -0.20841 0.806696
    outer loop
      vertex -2.62522 1.05034 -13.8566
      vertex -9.83224 1.59616 -18.656
      vertex -9.8896 1.05034 -18.8364
    endloop
  endfacet
  facet normal -0.824808 3.32578e-07 -0.565413
    outer loop
      vertex -2.62462 -1.04023 -13.8575
      vertex -7.03685 7.04768 -7.42103
      vertex -6.85137 7.25368 -7.69161
    endloop
  endfacet
  facet normal -0.824808 -2.01692e-07 -0.565413
    outer loop
      vertex -7.03685 7.04768 -7.42103
      vertex -2.62462 -1.04023 -13.8575
      vertex -2.86979 -3.08534 -13.4998
    endloop
  endfacet
  facet normal -0.565413 -0.00050741 0.824808
    outer loop
      vertex -10 -4.06446e-16 -18.9127
      vertex -2.62522 1.05034 -13.8566
      vertex -9.8896 1.05034 -18.8364
    endloop
  endfacet
  facet normal -0.565413 -0.000507774 0.824808
    outer loop
      vertex -2.62522 1.05034 -13.8566
      vertex -10 -4.06446e-16 -18.9127
      vertex -2.62462 -1.04023 -13.8575
    endloop
  endfacet
  facet normal -0.565413 -0.000507758 0.824808
    outer loop
      vertex -2.62462 -1.04023 -13.8575
      vertex -10 -4.06446e-16 -18.9127
      vertex -9.89067 -1.04023 -18.8384
    endloop
  endfacet
  facet normal -0.824808 -1.79914e-07 -0.565413
    outer loop
      vertex -2.86979 -3.08534 -13.4998
      vertex -5.93903 -7.97801 -9.0225
      vertex -6.40828 -7.63708 -8.33797
    endloop
  endfacet
  facet normal -0.824808 -2.13304e-07 -0.565413
    outer loop
      vertex -2.86979 -3.08534 -13.4998
      vertex -8.09017 -5.87785 -5.88448
      vertex -8.48142 -5.20019 -5.31375
    endloop
  endfacet
  facet normal -0.824808 7.61684e-08 -0.565413
    outer loop
      vertex -2.86979 -3.08534 -13.4998
      vertex -6.69131 -7.43145 -7.9251
      vertex -8.09017 -5.87785 -5.88448
    endloop
  endfacet
  facet normal -0.824808 3.59288e-07 -0.565413
    outer loop
      vertex -6.69131 -7.43145 -7.9251
      vertex -2.86979 -3.08534 -13.4998
      vertex -6.40828 -7.63708 -8.33797
    endloop
  endfacet
  facet normal -0.516414 -0.4072 0.753329
    outer loop
      vertex -9.21943 3.80892 -17.4628
      vertex -9.4514 3.095 -18.0078
      vertex -2.87157 3.095 -13.4972
    endloop
  endfacet
  facet normal -0.45726 -0.588196 0.667037
    outer loop
      vertex -7.70682 6.30361 -14.6341
      vertex -3.35289 5.0044 -12.7951
      vertex -4.04816 6.69508 -11.7808
    endloop
  endfacet
  facet normal -0.45726 -0.588196 0.667037
    outer loop
      vertex -8.09017 5.87785 -15.2723
      vertex -3.35289 5.0044 -12.7951
      vertex -7.70682 6.30361 -14.6341
    endloop
  endfacet
  facet normal -0.45726 -0.588196 0.667037
    outer loop
      vertex -3.35289 5.0044 -12.7951
      vertex -8.09017 5.87785 -15.2723
      vertex -8.59446 5.0044 -16.3882
    endloop
  endfacet
  facet normal -0.824808 3.45053e-07 -0.565413
    outer loop
      vertex -4.92699 8.09315 -10.4988
      vertex -5.44687 8.33559 -9.74045
      vertex -5.28207 8.45531 -9.98085
    endloop
  endfacet
  facet normal -0.824808 -8.72838e-08 -0.565413
    outer loop
      vertex -5.44687 8.33559 -9.74045
      vertex -4.92699 8.09315 -10.4988
      vertex -3.35289 5.0044 -12.7951
    endloop
  endfacet
  facet normal -0.824808 -7.63245e-08 -0.565413
    outer loop
      vertex -2.62522 1.05034 -13.8566
      vertex -2.62462 -1.04023 -13.8575
      vertex -3.35289 5.0044 -12.7951
    endloop
  endfacet
  facet normal -0.824809 -1.63417e-06 -0.565412
    outer loop
      vertex -4.04816 6.69508 -11.7808
      vertex -3.35289 5.0044 -12.7951
      vertex -4.92699 8.09315 -10.4988
    endloop
  endfacet
  facet normal -0.824809 -6.68874e-07 -0.565412
    outer loop
      vertex -2.87157 3.095 -13.4972
      vertex -2.62522 1.05034 -13.8566
      vertex -3.35289 5.0044 -12.7951
    endloop
  endfacet
  facet normal -0.516414 -0.407201 0.753329
    outer loop
      vertex -8.59446 5.0044 -16.3882
      vertex -2.87157 3.095 -13.4972
      vertex -3.35289 5.0044 -12.7951
    endloop
  endfacet
  facet normal -0.516414 -0.407201 0.753329
    outer loop
      vertex -9.13545 4.06737 -17.2656
      vertex -2.87157 3.095 -13.4972
      vertex -8.59446 5.0044 -16.3882
    endloop
  endfacet
  facet normal -0.516414 -0.407202 0.753329
    outer loop
      vertex -2.87157 3.095 -13.4972
      vertex -9.13545 4.06737 -17.2656
      vertex -9.21943 3.80892 -17.4628
    endloop
  endfacet
  facet normal -0.553117 0.207415 0.806871
    outer loop
      vertex -2.62462 -1.04023 -13.8575
      vertex -9.45453 -3.08534 -18.0137
      vertex -2.86979 -3.08534 -13.4998
    endloop
  endfacet
  facet normal -0.553117 0.207414 0.806871
    outer loop
      vertex -9.79856 -1.9166 -18.55
      vertex -9.45453 -3.08534 -18.0137
      vertex -2.62462 -1.04023 -13.8575
    endloop
  endfacet
  facet normal -0.553103 0.207422 0.806879
    outer loop
      vertex -9.45453 -3.08534 -18.0137
      vertex -9.79856 -1.9166 -18.55
      vertex -9.78148 -2.07912 -18.4965
    endloop
  endfacet
  facet normal -0.516648 0.406272 0.75367
    outer loop
      vertex -2.86979 -3.08534 -13.4998
      vertex -8.98776 -4.32317 -17.0265
      vertex -3.35002 -4.9956 -12.7993
    endloop
  endfacet
  facet normal -0.516648 0.406272 0.75367
    outer loop
      vertex -2.86979 -3.08534 -13.4998
      vertex -9.13545 -4.06737 -17.2656
      vertex -8.98776 -4.32317 -17.0265
    endloop
  endfacet
  facet normal -0.516647 0.406273 0.75367
    outer loop
      vertex -9.13545 -4.06737 -17.2656
      vertex -2.86979 -3.08534 -13.4998
      vertex -9.45453 -3.08534 -18.0137
    endloop
  endfacet
  facet normal -0.457598 0.587374 0.66753
    outer loop
      vertex -3.35002 -4.9956 -12.7993
      vertex -7.36113 -6.68753 -14.0602
      vertex -4.04432 -6.68753 -11.7865
    endloop
  endfacet
  facet normal -0.457598 0.587374 0.66753
    outer loop
      vertex -3.35002 -4.9956 -12.7993
      vertex -8.09017 -5.87785 -15.2724
      vertex -7.36113 -6.68753 -14.0602
    endloop
  endfacet
  facet normal -0.457598 0.587374 0.66753
    outer loop
      vertex -8.09017 -5.87785 -15.2724
      vertex -3.35002 -4.9956 -12.7993
      vertex -8.59954 -4.9956 -16.3979
    endloop
  endfacet
  facet normal -0.282955 0.865771 0.412767
    outer loop
      vertex -4.92234 -8.08718 -10.5056
      vertex -5.78876 -8.08718 -11.0996
      vertex -5.28229 -8.45516 -9.98054
    endloop
  endfacet
  facet normal -0.45726 -0.588196 0.667037
    outer loop
      vertex -7.35434 6.69508 -14.0473
      vertex -7.70682 6.30361 -14.6341
      vertex -4.04816 6.69508 -11.7808
    endloop
  endfacet
  facet normal -0.378122 -0.743484 0.551593
    outer loop
      vertex -4.04816 6.69508 -11.7808
      vertex -5.78055 8.09315 -11.084
      vertex -5.96959 7.9558 -11.3987
    endloop
  endfacet
  facet normal -0.378122 -0.743484 0.551593
    outer loop
      vertex -5.78055 8.09315 -11.084
      vertex -4.04816 6.69508 -11.7808
      vertex -4.92699 8.09315 -10.4988
    endloop
  endfacet
  facet normal -0.378122 -0.743485 0.551593
    outer loop
      vertex -6.69131 7.43145 -12.6002
      vertex -4.04816 6.69508 -11.7808
      vertex -5.96959 7.9558 -11.3987
    endloop
  endfacet
  facet normal -0.378122 -0.743484 0.551593
    outer loop
      vertex -4.04816 6.69508 -11.7808
      vertex -6.69131 7.43145 -12.6002
      vertex -7.35434 6.69508 -14.0473
    endloop
  endfacet
  facet normal -0.282457 -0.86628 0.412041
    outer loop
      vertex -5.78055 8.09315 -11.084
      vertex -4.92699 8.09315 -10.4988
      vertex -5.28207 8.45531 -9.98085
    endloop
  endfacet
  facet normal -0.824808 -5.93709e-07 -0.565413
    outer loop
      vertex -3.35289 5.0044 -12.7951
      vertex -5.64243 8.1935 -9.45517
      vertex -5.44687 8.33559 -9.74045
    endloop
  endfacet
  facet normal -0.824808 -9.07215e-08 -0.565413
    outer loop
      vertex -5.64243 8.1935 -9.45517
      vertex -3.35289 5.0044 -12.7951
      vertex -2.62462 -1.04023 -13.8575
    endloop
  endfacet
  facet normal -0.824808 -3.76188e-07 -0.565413
    outer loop
      vertex -2.62462 -1.04023 -13.8575
      vertex -5.86671 8.03055 -9.128
      vertex -5.64243 8.1935 -9.45517
    endloop
  endfacet
  facet normal -0.824808 -1.64036e-07 -0.565413
    outer loop
      vertex -5.86671 8.03055 -9.128
      vertex -6.85137 7.25368 -7.69161
      vertex -6.69131 7.43145 -7.9251
    endloop
  endfacet
  facet normal -0.824808 4.56256e-08 -0.565413
    outer loop
      vertex -5.86671 8.03055 -9.128
      vertex -2.62462 -1.04023 -13.8575
      vertex -6.85137 7.25368 -7.69161
    endloop
  endfacet
  facet normal -0.824808 -4.46884e-07 -0.565413
    outer loop
      vertex -4.04432 -6.68753 -11.7865
      vertex -5.36931 -8.39193 -9.85359
      vertex -5.56936 -8.24659 -9.56177
    endloop
  endfacet
  facet normal -0.824808 3.52224e-07 -0.565413
    outer loop
      vertex -4.04432 -6.68753 -11.7865
      vertex -5.93903 -7.97801 -9.0225
      vertex -2.86979 -3.08534 -13.4998
    endloop
  endfacet
  facet normal -0.824808 -2.5556e-07 -0.565413
    outer loop
      vertex -4.04432 -6.68753 -11.7865
      vertex -5.86671 -8.03055 -9.128
      vertex -5.93903 -7.97801 -9.0225
    endloop
  endfacet
  facet normal -0.824808 5.6887e-07 -0.565413
    outer loop
      vertex -5.86671 -8.03055 -9.128
      vertex -4.04432 -6.68753 -11.7865
      vertex -5.56936 -8.24659 -9.56177
    endloop
  endfacet
  facet normal -0.378549 0.742805 0.552215
    outer loop
      vertex -4.04432 -6.68753 -11.7865
      vertex -5.78876 -8.08718 -11.0996
      vertex -4.92234 -8.08718 -10.5056
    endloop
  endfacet
  facet normal -0.378549 0.742805 0.552215
    outer loop
      vertex -5.78876 -8.08718 -11.0996
      vertex -4.04432 -6.68753 -11.7865
      vertex -5.96967 -7.95575 -11.4004
    endloop
  endfacet
  facet normal -0.378549 0.742805 0.552216
    outer loop
      vertex -4.04432 -6.68753 -11.7865
      vertex -6.69131 -7.43145 -12.6003
      vertex -5.96967 -7.95575 -11.4004
    endloop
  endfacet
  facet normal -0.378549 0.742805 0.552215
    outer loop
      vertex -6.69131 -7.43145 -12.6003
      vertex -4.04432 -6.68753 -11.7865
      vertex -7.36113 -6.68753 -14.0602
    endloop
  endfacet
endsolid OpenSCAD_Model
