solid OpenSCAD_Model
  facet normal 0.801715 0.597345 -0.0207978
    outer loop
      vertex -32.4104 -52.549 99.9474
      vertex -52.525 -26.214 80.9509
      vertex -32.4438 -52.5006 100.049
    endloop
  endfacet
  facet normal 0.801714 0.597346 -0.0207968
    outer loop
      vertex -52.525 -26.214 80.9509
      vertex -32.4104 -52.549 99.9474
      vertex -52.5043 -26.2439 80.888
    endloop
  endfacet
  facet normal 0.525739 -0.688183 0.500002
    outer loop
      vertex -32.4438 -52.5006 100.049
      vertex -32.5438 -52.5524 100.083
      vertex -32.4897 -52.6307 99.9183
    endloop
  endfacet
  facet normal 0.801722 0.597334 -0.0208214
    outer loop
      vertex -52.4915 -26.2624 80.8491
      vertex -52.5043 -26.2439 80.888
      vertex -32.4104 -52.549 99.9474
    endloop
  endfacet
  facet normal 0.525733 -0.688188 0.500002
    outer loop
      vertex -32.5438 -52.5524 100.083
      vertex -32.5721 -52.6328 100.002
      vertex -32.4897 -52.6307 99.9183
    endloop
  endfacet
  facet normal -0.022646 0.576254 0.816957
    outer loop
      vertex -52.525 -26.214 80.9509
      vertex -32.5438 -52.5524 100.083
      vertex -32.4438 -52.5006 100.049
    endloop
  endfacet
  facet normal -0.0226216 0.576266 0.816949
    outer loop
      vertex -32.5438 -52.5524 100.083
      vertex -52.525 -26.214 80.9509
      vertex -52.5867 -26.2461 80.9718
    endloop
  endfacet
  facet normal -0.815736 -0.241196 0.525737
    outer loop
      vertex -52.6425 -26.3156 80.9347
      vertex -52.6533 -26.3463 80.9038
      vertex -32.5721 -52.6328 100.002
    endloop
  endfacet
  facet normal -0.815742 -0.241214 0.52572
    outer loop
      vertex -52.6425 -26.3156 80.9347
      vertex -32.5438 -52.5524 100.083
      vertex -52.6249 -26.2659 80.9847
    endloop
  endfacet
  facet normal -0.815739 -0.241204 0.525729
    outer loop
      vertex -32.5438 -52.5524 100.083
      vertex -52.6425 -26.3156 80.9347
      vertex -32.5721 -52.6328 100.002
    endloop
  endfacet
  facet normal -0.0227063 0.576223 0.816977
    outer loop
      vertex -52.5867 -26.2461 80.9718
      vertex -52.6249 -26.2659 80.9847
      vertex -32.5438 -52.5524 100.083
    endloop
  endfacet
  facet normal 0.518156 -0.207078 -0.829839
    outer loop
      vertex -52.5708 -26.3442 80.82
      vertex -32.4104 -52.549 99.9474
      vertex -32.4897 -52.6307 99.9183
    endloop
  endfacet
  facet normal 0.51815 -0.207084 -0.829842
    outer loop
      vertex -32.4104 -52.549 99.9474
      vertex -52.5708 -26.3442 80.82
      vertex -52.5218 -26.2937 80.838
    endloop
  endfacet
  facet normal 0.525737 -0.688184 0.500003
    outer loop
      vertex -32.4438 -52.5006 100.049
      vertex -32.4897 -52.6307 99.9183
      vertex -32.4104 -52.549 99.9474
    endloop
  endfacet
  facet normal 0.51816 -0.207074 -0.829838
    outer loop
      vertex -32.4104 -52.549 99.9474
      vertex -52.5218 -26.2937 80.838
      vertex -52.4915 -26.2624 80.8491
    endloop
  endfacet
  facet normal -0.481463 -0.725307 -0.49206
    outer loop
      vertex -32.4897 -52.6307 99.9183
      vertex -52.6023 -26.345 80.852
      vertex -52.5708 -26.3442 80.82
    endloop
  endfacet
  facet normal -0.481486 -0.725308 -0.492036
    outer loop
      vertex -52.6023 -26.345 80.852
      vertex -32.5721 -52.6328 100.002
      vertex -52.6533 -26.3463 80.9038
    endloop
  endfacet
  facet normal -0.481477 -0.725308 -0.492045
    outer loop
      vertex -32.5721 -52.6328 100.002
      vertex -52.6023 -26.345 80.852
      vertex -32.4897 -52.6307 99.9183
    endloop
  endfacet
  facet normal 0.61503 0.599092 0.512666
    outer loop
      vertex -86.6935 16.4354 51.89
      vertex -151.21 20.1949 124.895
      vertex -151.159 20.1008 124.945
    endloop
  endfacet
  facet normal 0.615184 0.598805 0.512817
    outer loop
      vertex -151.21 20.1949 124.895
      vertex -86.6935 16.4354 51.89
      vertex -86.6948 16.4378 51.8887
    endloop
  endfacet
  facet normal -0.245515 -0.954755 -0.167826
    outer loop
      vertex -151.296 20.0395 124.827
      vertex -88.3457 16.3437 53.7611
      vertex -151.213 20.0048 124.902
    endloop
  endfacet
  facet normal -0.24556 -0.954736 -0.167867
    outer loop
      vertex -88.3457 16.3437 53.7611
      vertex -151.296 20.0395 124.827
      vertex -88.3495 16.3454 53.757
    endloop
  endfacet
  facet normal -0.661705 0.0385026 0.748775
    outer loop
      vertex -151.21 20.1949 124.895
      vertex -151.294 20.1569 124.823
      vertex -151.213 20.0048 124.902
    endloop
  endfacet
  facet normal 0.615047 0.599061 0.512683
    outer loop
      vertex -151.159 20.1008 124.945
      vertex -88.2894 16.4396 53.7997
      vertex -88.3189 16.4975 53.7674
    endloop
  endfacet
  facet normal 0.61501 0.59913 0.512647
    outer loop
      vertex -88.3189 16.4975 53.7674
      vertex -86.6935 16.4354 51.89
      vertex -151.159 20.1008 124.945
    endloop
  endfacet
  facet normal 0.615007 0.599136 0.512644
    outer loop
      vertex -86.6935 16.4354 51.89
      vertex -88.3189 16.4975 53.7674
      vertex -86.6755 16.4018 51.9077
    endloop
  endfacet
  facet normal -0.66169 0.0385176 0.748788
    outer loop
      vertex -151.294 20.1569 124.823
      vertex -151.296 20.0395 124.827
      vertex -151.213 20.0048 124.902
    endloop
  endfacet
  facet normal -0.217808 0.945732 -0.241144
    outer loop
      vertex -86.6969 16.4368 51.8869
      vertex -151.21 20.1949 124.895
      vertex -86.6948 16.4378 51.8887
    endloop
  endfacet
  facet normal -0.217788 0.945741 -0.241128
    outer loop
      vertex -151.21 20.1949 124.895
      vertex -86.6969 16.4368 51.8869
      vertex -151.294 20.1569 124.823
    endloop
  endfacet
  facet normal -0.245521 -0.954752 -0.167831
    outer loop
      vertex -151.296 20.0395 124.827
      vertex -88.4099 16.3725 53.6912
      vertex -88.3495 16.3454 53.757
    endloop
  endfacet
  facet normal -0.245488 -0.954766 -0.167802
    outer loop
      vertex -86.7808 16.2824 51.8207
      vertex -88.4099 16.3725 53.6912
      vertex -151.296 20.0395 124.827
    endloop
  endfacet
  facet normal -0.245455 -0.95478 -0.167772
    outer loop
      vertex -88.4099 16.3725 53.6912
      vertex -86.7808 16.2824 51.8207
      vertex -86.7676 16.2769 51.8327
    endloop
  endfacet
  facet normal 0.597924 -0.575439 0.557994
    outer loop
      vertex -151.213 20.0048 124.902
      vertex -88.2894 16.4396 53.7997
      vertex -151.159 20.1008 124.945
    endloop
  endfacet
  facet normal 0.598238 -0.57487 0.558243
    outer loop
      vertex -88.2894 16.4396 53.7997
      vertex -151.213 20.0048 124.902
      vertex -88.2928 16.4348 53.7984
    endloop
  endfacet
  facet normal -0.661689 0.0385029 0.748789
    outer loop
      vertex -151.21 20.1949 124.895
      vertex -151.213 20.0048 124.902
      vertex -151.159 20.1008 124.945
    endloop
  endfacet
  facet normal 0.597863 -0.575548 0.557946
    outer loop
      vertex -151.213 20.0048 124.902
      vertex -88.3306 16.3824 53.7848
      vertex -88.2928 16.4348 53.7984
    endloop
  endfacet
  facet normal 0.597902 -0.575478 0.557976
    outer loop
      vertex -88.3306 16.3824 53.7848
      vertex -151.213 20.0048 124.902
      vertex -88.3457 16.3437 53.7611
    endloop
  endfacet
  facet normal -0.749633 -0.0146229 -0.661692
    outer loop
      vertex -86.7808 16.2853 51.8206
      vertex -151.296 20.0395 124.827
      vertex -151.294 20.1569 124.823
    endloop
  endfacet
  facet normal -0.749612 -0.0132406 -0.661745
    outer loop
      vertex -151.296 20.0395 124.827
      vertex -86.7808 16.2853 51.8206
      vertex -86.7808 16.2824 51.8207
    endloop
  endfacet
  facet normal -0.749633 -0.0145868 -0.661693
    outer loop
      vertex -86.7808 16.2853 51.8206
      vertex -151.294 20.1569 124.823
      vertex -86.7791 16.3999 51.8162
    endloop
  endfacet
  facet normal -0.217799 0.945736 -0.241137
    outer loop
      vertex -86.7791 16.3999 51.8162
      vertex -151.294 20.1569 124.823
      vertex -86.6969 16.4368 51.8869
    endloop
  endfacet
  facet normal -0.0032488 -0.513087 0.858331
    outer loop
      vertex -87.7776 12.6229 47.9182
      vertex -138.572 -56.219 6.57412
      vertex -87.6925 12.5589 47.8803
    endloop
  endfacet
  facet normal -0.534566 -0.724514 -0.435107
    outer loop
      vertex -138.473 -56.2731 6.54215
      vertex -138.522 -56.1533 6.40286
      vertex -138.442 -56.2325 6.43631
    endloop
  endfacet
  facet normal -0.534556 -0.724518 -0.435114
    outer loop
      vertex -138.473 -56.2731 6.54215
      vertex -138.572 -56.219 6.57412
      vertex -138.522 -56.1533 6.40286
    endloop
  endfacet
  facet normal -0.00369215 -0.512845 0.858473
    outer loop
      vertex -87.6925 12.5589 47.8803
      vertex -138.473 -56.2731 6.54215
      vertex -87.688 12.5556 47.8783
    endloop
  endfacet
  facet normal -0.00324603 -0.513088 0.85833
    outer loop
      vertex -138.473 -56.2731 6.54215
      vertex -87.6925 12.5589 47.8803
      vertex -138.572 -56.219 6.57412
    endloop
  endfacet
  facet normal 0.802749 -0.59628 0.00661905
    outer loop
      vertex -138.473 -56.2731 6.54215
      vertex -87.6475 12.609 47.7801
      vertex -87.6871 12.5568 47.8728
    endloop
  endfacet
  facet normal 0.802756 -0.596271 0.00659706
    outer loop
      vertex -138.473 -56.2731 6.54215
      vertex -87.6871 12.5568 47.8728
      vertex -87.688 12.5556 47.8783
    endloop
  endfacet
  facet normal 0.802739 -0.596293 0.0066533
    outer loop
      vertex -87.6475 12.609 47.7801
      vertex -138.473 -56.2731 6.54215
      vertex -138.442 -56.2325 6.43631
    endloop
  endfacet
  facet normal -0.804844 0.279388 0.52361
    outer loop
      vertex -138.603 -56.1449 6.48803
      vertex -87.8107 12.6876 47.833
      vertex -87.8124 12.691 47.8285
    endloop
  endfacet
  facet normal -0.804762 0.279188 0.523843
    outer loop
      vertex -87.8107 12.6876 47.833
      vertex -138.603 -56.1449 6.48803
      vertex -138.572 -56.219 6.57412
    endloop
  endfacet
  facet normal -0.804756 0.279171 0.523862
    outer loop
      vertex -87.8107 12.6876 47.833
      vertex -138.572 -56.219 6.57412
      vertex -87.7776 12.6229 47.9182
    endloop
  endfacet
  facet normal 0.499392 0.144548 -0.854233
    outer loop
      vertex -87.6517 12.6127 47.7783
      vertex -138.522 -56.1533 6.40286
      vertex -87.731 12.6838 47.744
    endloop
  endfacet
  facet normal -0.494133 0.685628 -0.534553
    outer loop
      vertex -138.522 -56.1533 6.40286
      vertex -87.8124 12.691 47.8285
      vertex -87.7805 12.6792 47.7839
    endloop
  endfacet
  facet normal -0.494111 0.685626 -0.534576
    outer loop
      vertex -138.522 -56.1533 6.40286
      vertex -87.7805 12.6792 47.7839
      vertex -87.731 12.6838 47.744
    endloop
  endfacet
  facet normal -0.494123 0.685627 -0.534563
    outer loop
      vertex -87.8124 12.691 47.8285
      vertex -138.522 -56.1533 6.40286
      vertex -138.603 -56.1449 6.48803
    endloop
  endfacet
  facet normal -0.534594 -0.724489 -0.435114
    outer loop
      vertex -138.572 -56.219 6.57412
      vertex -138.603 -56.1449 6.48803
      vertex -138.522 -56.1533 6.40286
    endloop
  endfacet
  facet normal 0.499371 0.14457 -0.854242
    outer loop
      vertex -138.522 -56.1533 6.40286
      vertex -87.6475 12.609 47.7801
      vertex -138.442 -56.2325 6.43631
    endloop
  endfacet
  facet normal 0.499381 0.144559 -0.854237
    outer loop
      vertex -87.6475 12.609 47.7801
      vertex -138.522 -56.1533 6.40286
      vertex -87.6517 12.6127 47.7783
    endloop
  endfacet
  facet normal -0.52573 0.688191 -0.500001
    outer loop
      vertex -86.6755 16.4018 51.9077
      vertex -87.0989 17.8103 54.2915
      vertex -85.5145 18.9437 54.1857
    endloop
  endfacet
  facet normal -0.52573 0.688191 -0.500001
    outer loop
      vertex -86.6755 16.4018 51.9077
      vertex -85.5145 18.9437 54.1857
      vertex -84.4594 19.4051 53.7114
    endloop
  endfacet
  facet normal -0.525731 0.68819 -0.500001
    outer loop
      vertex -87.0989 17.8103 54.2915
      vertex -86.6755 16.4018 51.9077
      vertex -88.3189 16.4975 53.7674
    endloop
  endfacet
  facet normal -0.525732 0.68819 -0.5
    outer loop
      vertex -86.7676 16.2769 51.8327
      vertex -89.1446 15.0377 52.6264
      vertex -88.4099 16.3725 53.6912
    endloop
  endfacet
  facet normal -0.525732 0.688191 -0.499999
    outer loop
      vertex -86.7676 16.2769 51.8327
      vertex -89.2945 13.8207 51.109
      vertex -89.1446 15.0377 52.6264
    endloop
  endfacet
  facet normal -0.525731 0.688191 -0.5
    outer loop
      vertex -89.2945 13.8207 51.109
      vertex -86.7676 16.2769 51.8327
      vertex -88.9792 13.2795 50.0325
    endloop
  endfacet
  facet normal -0.66167 0.0385034 0.748806
    outer loop
      vertex -84.4594 19.4051 53.7114
      vertex -86.6935 16.4354 51.89
      vertex -86.6755 16.4018 51.9077
    endloop
  endfacet
  facet normal -0.662028 0.038983 0.748464
    outer loop
      vertex -84.4594 19.4051 53.7114
      vertex -86.6948 16.4378 51.8887
      vertex -86.6935 16.4354 51.89
    endloop
  endfacet
  facet normal -0.662795 0.0400105 0.747731
    outer loop
      vertex -84.4594 19.4051 53.7114
      vertex -86.6969 16.4368 51.8869
      vertex -86.6948 16.4378 51.8887
    endloop
  endfacet
  facet normal -0.661694 0.0385343 0.748783
    outer loop
      vertex -84.4594 19.4051 53.7114
      vertex -86.7791 16.3999 51.8162
      vertex -86.6969 16.4368 51.8869
    endloop
  endfacet
  facet normal -0.661696 0.0385374 0.748781
    outer loop
      vertex -88.9792 13.2795 50.0325
      vertex -86.7808 16.2853 51.8206
      vertex -86.7791 16.3999 51.8162
    endloop
  endfacet
  facet normal -0.661677 0.0385134 0.748799
    outer loop
      vertex -86.7808 16.2853 51.8206
      vertex -88.9792 13.2795 50.0325
      vertex -86.7808 16.2824 51.8207
    endloop
  endfacet
  facet normal -0.661693 0.0385349 0.748784
    outer loop
      vertex -89.8573 26.0965 48.5969
      vertex -84.4594 19.4051 53.7114
      vertex -89.7168 26.287 48.7114
    endloop
  endfacet
  facet normal -0.661695 0.0385316 0.748782
    outer loop
      vertex -90.0866 25.7857 48.4103
      vertex -84.4594 19.4051 53.7114
      vertex -89.8573 26.0965 48.5969
    endloop
  endfacet
  facet normal -0.661693 0.0385341 0.748784
    outer loop
      vertex -94.2365 20.1614 45.0325
      vertex -84.4594 19.4051 53.7114
      vertex -90.0866 25.7857 48.4103
    endloop
  endfacet
  facet normal -0.661693 0.0385334 0.748784
    outer loop
      vertex -84.4594 19.4051 53.7114
      vertex -94.2365 20.1614 45.0325
      vertex -86.7791 16.3999 51.8162
    endloop
  endfacet
  facet normal -0.661693 0.0385342 0.748784
    outer loop
      vertex -86.7791 16.3999 51.8162
      vertex -94.2365 20.1614 45.0325
      vertex -88.9792 13.2795 50.0325
    endloop
  endfacet
  facet normal -0.661719 0.0385671 0.74876
    outer loop
      vertex -86.7676 16.2769 51.8327
      vertex -86.7808 16.2824 51.8207
      vertex -88.9792 13.2795 50.0325
    endloop
  endfacet
  facet normal -0.525729 0.688191 -0.500002
    outer loop
      vertex -83.0313 14.6817 45.7085
      vertex -80.8356 18.6713 48.891
      vertex -80.9856 17.4543 47.3736
    endloop
  endfacet
  facet normal -0.525731 0.688191 -0.5
    outer loop
      vertex -80.8356 18.6713 48.891
      vertex -84.6156 13.5482 45.8143
      vertex -81.151 19.2125 49.9675
    endloop
  endfacet
  facet normal -0.525732 0.688191 -0.499999
    outer loop
      vertex -83.0313 14.6817 45.7085
      vertex -80.9856 17.4543 47.3736
      vertex -81.7566 16.0533 46.2561
    endloop
  endfacet
  facet normal -0.52573 0.688191 -0.500001
    outer loop
      vertex -81.151 19.2125 49.9675
      vertex -84.6156 13.5482 45.8143
      vertex -85.6707 13.0868 46.2886
    endloop
  endfacet
  facet normal -0.52573 0.688191 -0.500002
    outer loop
      vertex -80.8356 18.6713 48.891
      vertex -83.0313 14.6817 45.7085
      vertex -84.6156 13.5482 45.8143
    endloop
  endfacet
  facet normal 0.661694 -0.0385343 -0.748783
    outer loop
      vertex -90.928 19.9687 41.2886
      vertex -81.151 19.2125 49.9675
      vertex -85.6707 13.0868 46.2886
    endloop
  endfacet
  facet normal 0.661699 -0.0385272 -0.748779
    outer loop
      vertex -81.151 19.2125 49.9675
      vertex -86.5489 25.9038 44.853
      vertex -86.4083 26.0944 44.9675
    endloop
  endfacet
  facet normal 0.661695 -0.038532 -0.748782
    outer loop
      vertex -81.151 19.2125 49.9675
      vertex -86.7782 25.5931 44.6664
      vertex -86.5489 25.9038 44.853
    endloop
  endfacet
  facet normal 0.661694 -0.0385344 -0.748783
    outer loop
      vertex -81.151 19.2125 49.9675
      vertex -90.928 19.9687 41.2886
      vertex -86.7782 25.5931 44.6664
    endloop
  endfacet
  facet normal 0.39521 0.718102 0.572834
    outer loop
      vertex -87.6495 26.7504 47.1756
      vertex -89.1191 26.5484 48.4427
      vertex -51.3698 -22.866 84.3444
    endloop
  endfacet
  facet normal -0.525728 0.688191 -0.500003
    outer loop
      vertex -89.1191 26.5484 48.4427
      vertex -89.8573 26.0965 48.5969
      vertex -89.7168 26.287 48.7114
    endloop
  endfacet
  facet normal -0.525729 0.688194 -0.499999
    outer loop
      vertex -89.8573 26.0965 48.5969
      vertex -89.1191 26.5484 48.4427
      vertex -87.6495 26.7504 47.1756
    endloop
  endfacet
  facet normal 0.395211 0.718102 0.572833
    outer loop
      vertex -49.9002 -22.664 83.0773
      vertex -87.6495 26.7504 47.1756
      vertex -51.3698 -22.866 84.3444
    endloop
  endfacet
  facet normal -0.653395 -0.703066 -0.280667
    outer loop
      vertex -87.6925 12.5589 47.8803
      vertex -56.3086 -29.5596 80.3245
      vertex -87.7776 12.6229 47.9182
    endloop
  endfacet
  facet normal -0.653392 -0.703067 -0.280672
    outer loop
      vertex -94.0579 19.8548 44.4228
      vertex -87.7776 12.6229 47.9182
      vertex -56.3086 -29.5596 80.3245
    endloop
  endfacet
  facet normal -0.653395 -0.703066 -0.280664
    outer loop
      vertex -94.0579 19.8548 44.4228
      vertex -87.8107 12.6876 47.833
      vertex -87.7776 12.6229 47.9182
    endloop
  endfacet
  facet normal -0.653277 -0.703079 -0.280907
    outer loop
      vertex -94.0579 19.8548 44.4228
      vertex -87.8124 12.691 47.8285
      vertex -87.8107 12.6876 47.833
    endloop
  endfacet
  facet normal -0.653406 -0.703065 -0.280641
    outer loop
      vertex -94.0579 19.8548 44.4228
      vertex -87.7805 12.6792 47.7839
      vertex -87.8124 12.691 47.8285
    endloop
  endfacet
  facet normal -0.653391 -0.703067 -0.280673
    outer loop
      vertex -87.7805 12.6792 47.7839
      vertex -94.0579 19.8548 44.4228
      vertex -92.9953 19.5054 42.8244
    endloop
  endfacet
  facet normal -0.653262 -0.703113 -0.280858
    outer loop
      vertex -87.688 12.5556 47.8783
      vertex -56.3086 -29.5596 80.3245
      vertex -87.6925 12.5589 47.8803
    endloop
  endfacet
  facet normal -0.653392 -0.703066 -0.280671
    outer loop
      vertex -56.3086 -29.5596 80.3245
      vertex -87.688 12.5556 47.8783
      vertex -55.246 -29.9091 78.7261
    endloop
  endfacet
  facet normal -0.653513 -0.703027 -0.280489
    outer loop
      vertex -55.246 -29.9091 78.7261
      vertex -87.688 12.5556 47.8783
      vertex -87.6871 12.5568 47.8728
    endloop
  endfacet
  facet normal 0.544689 -0.179138 -0.819282
    outer loop
      vertex -83.0313 14.6817 45.7085
      vertex -49.2646 -26.4792 77.1578
      vertex -50.5393 -27.8508 76.6102
    endloop
  endfacet
  facet normal 0.544689 -0.179139 -0.819282
    outer loop
      vertex -49.2646 -26.4792 77.1578
      vertex -83.0313 14.6817 45.7085
      vertex -81.7566 16.0533 46.2561
    endloop
  endfacet
  facet normal 0.076864 0.623813 0.777785
    outer loop
      vertex -51.3698 -22.866 84.3444
      vertex -84.4594 19.4051 53.7114
      vertex -53.0225 -23.5888 85.0874
    endloop
  endfacet
  facet normal 0.0768642 0.623813 0.777785
    outer loop
      vertex -89.1191 26.5484 48.4427
      vertex -84.4594 19.4051 53.7114
      vertex -51.3698 -22.866 84.3444
    endloop
  endfacet
  facet normal 0.0768641 0.623813 0.777785
    outer loop
      vertex -84.4594 19.4051 53.7114
      vertex -89.1191 26.5484 48.4427
      vertex -89.7168 26.287 48.7114
    endloop
  endfacet
  facet normal 0.0768643 0.623813 0.777785
    outer loop
      vertex -53.0225 -23.5888 85.0874
      vertex -84.4594 19.4051 53.7114
      vertex -85.5145 18.9437 54.1857
    endloop
  endfacet
  facet normal -0.525731 0.688191 -0.5
    outer loop
      vertex -92.9953 19.5054 42.8244
      vertex -90.0866 25.7857 48.4103
      vertex -86.7782 25.5931 44.6664
    endloop
  endfacet
  facet normal -0.52573 0.688191 -0.500001
    outer loop
      vertex -90.0866 25.7857 48.4103
      vertex -94.0579 19.8548 44.4228
      vertex -94.2365 20.1614 45.0325
    endloop
  endfacet
  facet normal -0.525731 0.688191 -0.5
    outer loop
      vertex -90.0866 25.7857 48.4103
      vertex -92.9953 19.5054 42.8244
      vertex -94.0579 19.8548 44.4228
    endloop
  endfacet
  facet normal -0.525731 0.688191 -0.5
    outer loop
      vertex -86.7782 25.5931 44.6664
      vertex -91.5257 19.7074 41.5573
      vertex -92.9953 19.5054 42.8244
    endloop
  endfacet
  facet normal -0.525733 0.688191 -0.499998
    outer loop
      vertex -91.5257 19.7074 41.5573
      vertex -86.7782 25.5931 44.6664
      vertex -90.928 19.9687 41.2886
    endloop
  endfacet
  facet normal -0.0768645 -0.623813 -0.777785
    outer loop
      vertex -53.7764 -29.7071 77.459
      vertex -84.6156 13.5482 45.8143
      vertex -52.1237 -28.9843 76.716
    endloop
  endfacet
  facet normal -0.0768639 -0.623813 -0.777785
    outer loop
      vertex -53.7764 -29.7071 77.459
      vertex -85.6707 13.0868 46.2886
      vertex -84.6156 13.5482 45.8143
    endloop
  endfacet
  facet normal -0.0768647 -0.623813 -0.777785
    outer loop
      vertex -91.5257 19.7074 41.5573
      vertex -85.6707 13.0868 46.2886
      vertex -53.7764 -29.7071 77.459
    endloop
  endfacet
  facet normal -0.0768648 -0.623813 -0.777785
    outer loop
      vertex -85.6707 13.0868 46.2886
      vertex -91.5257 19.7074 41.5573
      vertex -90.928 19.9687 41.2886
    endloop
  endfacet
  facet normal -0.52573 0.688189 -0.500004
    outer loop
      vertex -87.6495 26.7504 47.1756
      vertex -90.0866 25.7857 48.4103
      vertex -89.8573 26.0965 48.5969
    endloop
  endfacet
  facet normal -0.525735 0.688189 -0.499999
    outer loop
      vertex -86.7782 25.5931 44.6664
      vertex -87.6495 26.7504 47.1756
      vertex -86.5489 25.9038 44.853
    endloop
  endfacet
  facet normal -0.52573 0.688193 -0.499999
    outer loop
      vertex -87.6495 26.7504 47.1756
      vertex -86.7782 25.5931 44.6664
      vertex -90.0866 25.7857 48.4103
    endloop
  endfacet
  facet normal -0.253186 0.434553 0.864327
    outer loop
      vertex -85.5145 18.9437 54.1857
      vertex -54.6069 -24.7223 85.1932
      vertex -53.0225 -23.5888 85.0874
    endloop
  endfacet
  facet normal -0.253185 0.434553 0.864327
    outer loop
      vertex -54.6069 -24.7223 85.1932
      vertex -85.5145 18.9437 54.1857
      vertex -87.0989 17.8103 54.2915
    endloop
  endfacet
  facet normal -0.847171 -0.370473 0.380855
    outer loop
      vertex -89.2945 13.8207 51.109
      vertex -56.6526 -27.4948 83.5281
      vertex -89.1446 15.0377 52.6264
    endloop
  endfacet
  facet normal -0.847171 -0.370473 0.380856
    outer loop
      vertex -56.6526 -27.4948 83.5281
      vertex -89.2945 13.8207 51.109
      vertex -56.8026 -28.7118 82.0107
    endloop
  endfacet
  facet normal -0.812098 -0.580998 0.0542161
    outer loop
      vertex -94.0579 19.8548 44.4228
      vertex -88.9792 13.2795 50.0325
      vertex -94.2365 20.1614 45.0325
    endloop
  endfacet
  facet normal -0.812099 -0.580996 0.0542196
    outer loop
      vertex -56.3086 -29.5596 80.3245
      vertex -88.9792 13.2795 50.0325
      vertex -94.0579 19.8548 44.4228
    endloop
  endfacet
  facet normal -0.812098 -0.580997 0.0542174
    outer loop
      vertex -88.9792 13.2795 50.0325
      vertex -56.3086 -29.5596 80.3245
      vertex -56.8026 -28.7118 82.0107
    endloop
  endfacet
  facet normal -0.812099 -0.580996 0.054219
    outer loop
      vertex -89.2945 13.8207 51.109
      vertex -88.9792 13.2795 50.0325
      vertex -56.8026 -28.7118 82.0107
    endloop
  endfacet
  facet normal -0.753294 -0.103518 0.649486
    outer loop
      vertex -89.1446 15.0377 52.6264
      vertex -88.3495 16.3454 53.757
      vertex -88.4099 16.3725 53.6912
    endloop
  endfacet
  facet normal -0.753209 -0.103638 0.649565
    outer loop
      vertex -88.3495 16.3454 53.757
      vertex -89.1446 15.0377 52.6264
      vertex -88.3457 16.3437 53.7611
    endloop
  endfacet
  facet normal -0.753266 -0.103543 0.649515
    outer loop
      vertex -88.3457 16.3437 53.7611
      vertex -55.8816 -26.0939 84.6456
      vertex -88.3306 16.3824 53.7848
    endloop
  endfacet
  facet normal -0.75327 -0.103552 0.649509
    outer loop
      vertex -89.1446 15.0377 52.6264
      vertex -55.8816 -26.0939 84.6456
      vertex -88.3457 16.3437 53.7611
    endloop
  endfacet
  facet normal -0.75327 -0.103552 0.649509
    outer loop
      vertex -55.8816 -26.0939 84.6456
      vertex -89.1446 15.0377 52.6264
      vertex -56.6526 -27.4948 83.5281
    endloop
  endfacet
  facet normal 0.253186 -0.434553 -0.864327
    outer loop
      vertex -52.1237 -28.9843 76.716
      vertex -83.0313 14.6817 45.7085
      vertex -50.5393 -27.8508 76.6102
    endloop
  endfacet
  facet normal 0.253185 -0.434553 -0.864327
    outer loop
      vertex -83.0313 14.6817 45.7085
      vertex -52.1237 -28.9843 76.716
      vertex -84.6156 13.5482 45.8143
    endloop
  endfacet
  facet normal 0.525731 -0.688191 0.5
    outer loop
      vertex -52.6249 -26.2659 80.9847
      vertex -54.6069 -24.7223 85.1932
      vertex -55.8816 -26.0939 84.6456
    endloop
  endfacet
  facet normal 0.525731 -0.688191 0.5
    outer loop
      vertex -54.6069 -24.7223 85.1932
      vertex -52.6249 -26.2659 80.9847
      vertex -53.0225 -23.5888 85.0874
    endloop
  endfacet
  facet normal 0.525731 -0.688192 0.499999
    outer loop
      vertex -52.6249 -26.2659 80.9847
      vertex -55.8816 -26.0939 84.6456
      vertex -56.6526 -27.4948 83.5281
    endloop
  endfacet
  facet normal 0.525732 -0.688191 0.5
    outer loop
      vertex -53.0225 -23.5888 85.0874
      vertex -52.6249 -26.2659 80.9847
      vertex -51.3698 -22.866 84.3444
    endloop
  endfacet
  facet normal 0.525731 -0.688191 0.500001
    outer loop
      vertex -52.6249 -26.2659 80.9847
      vertex -56.6526 -27.4948 83.5281
      vertex -56.8026 -28.7118 82.0107
    endloop
  endfacet
  facet normal 0.525716 -0.688195 0.50001
    outer loop
      vertex -52.5867 -26.2461 80.9718
      vertex -51.3698 -22.866 84.3444
      vertex -52.6249 -26.2659 80.9847
    endloop
  endfacet
  facet normal 0.525769 -0.68818 0.499976
    outer loop
      vertex -52.525 -26.214 80.9509
      vertex -51.3698 -22.866 84.3444
      vertex -52.5867 -26.2461 80.9718
    endloop
  endfacet
  facet normal 0.525731 -0.688191 0.5
    outer loop
      vertex -56.3086 -29.5596 80.3245
      vertex -52.6249 -26.2659 80.9847
      vertex -56.8026 -28.7118 82.0107
    endloop
  endfacet
  facet normal 0.525743 -0.688199 0.499977
    outer loop
      vertex -52.6249 -26.2659 80.9847
      vertex -56.3086 -29.5596 80.3245
      vertex -52.6425 -26.3156 80.9347
    endloop
  endfacet
  facet normal 0.525724 -0.688186 0.500014
    outer loop
      vertex -52.6425 -26.3156 80.9347
      vertex -56.3086 -29.5596 80.3245
      vertex -52.6533 -26.3463 80.9038
    endloop
  endfacet
  facet normal 0.525732 -0.688191 0.499999
    outer loop
      vertex -55.246 -29.9091 78.7261
      vertex -52.6533 -26.3463 80.9038
      vertex -56.3086 -29.5596 80.3245
    endloop
  endfacet
  facet normal 0.525725 -0.688191 0.500007
    outer loop
      vertex -52.6533 -26.3463 80.9038
      vertex -55.246 -29.9091 78.7261
      vertex -52.6023 -26.345 80.852
    endloop
  endfacet
  facet normal 0.525731 -0.688191 0.5
    outer loop
      vertex -51.3698 -22.866 84.3444
      vertex -52.525 -26.214 80.9509
      vertex -49.9002 -22.664 83.0773
    endloop
  endfacet
  facet normal 0.525696 -0.688189 0.500039
    outer loop
      vertex -52.5043 -26.2439 80.888
      vertex -49.9002 -22.664 83.0773
      vertex -52.525 -26.214 80.9509
    endloop
  endfacet
  facet normal 0.525756 -0.688192 0.499972
    outer loop
      vertex -52.4915 -26.2624 80.8491
      vertex -49.9002 -22.664 83.0773
      vertex -52.5043 -26.2439 80.888
    endloop
  endfacet
  facet normal 0.525731 -0.688191 0.499999
    outer loop
      vertex -49.9002 -22.664 83.0773
      vertex -52.4915 -26.2624 80.8491
      vertex -48.8376 -23.0135 81.4789
    endloop
  endfacet
  facet normal 0.525732 -0.68819 0.5
    outer loop
      vertex -52.1237 -28.9843 76.716
      vertex -52.4915 -26.2624 80.8491
      vertex -52.5218 -26.2937 80.838
    endloop
  endfacet
  facet normal 0.525728 -0.688193 0.500001
    outer loop
      vertex -52.1237 -28.9843 76.716
      vertex -52.5218 -26.2937 80.838
      vertex -52.5708 -26.3442 80.82
    endloop
  endfacet
  facet normal 0.525731 -0.688191 0.5
    outer loop
      vertex -52.4915 -26.2624 80.8491
      vertex -48.3437 -23.8613 79.7927
      vertex -48.8376 -23.0135 81.4789
    endloop
  endfacet
  facet normal 0.52574 -0.688192 0.499989
    outer loop
      vertex -52.6023 -26.345 80.852
      vertex -55.246 -29.9091 78.7261
      vertex -52.5708 -26.3442 80.82
    endloop
  endfacet
  facet normal 0.525731 -0.688191 0.5
    outer loop
      vertex -53.7764 -29.7071 77.459
      vertex -52.5708 -26.3442 80.82
      vertex -55.246 -29.9091 78.7261
    endloop
  endfacet
  facet normal 0.525731 -0.688191 0.5
    outer loop
      vertex -52.1237 -28.9843 76.716
      vertex -52.5708 -26.3442 80.82
      vertex -53.7764 -29.7071 77.459
    endloop
  endfacet
  facet normal 0.525731 -0.688191 0.5
    outer loop
      vertex -52.4915 -26.2624 80.8491
      vertex -52.1237 -28.9843 76.716
      vertex -50.5393 -27.8508 76.6102
    endloop
  endfacet
  facet normal 0.525731 -0.688191 0.5
    outer loop
      vertex -52.4915 -26.2624 80.8491
      vertex -50.5393 -27.8508 76.6102
      vertex -48.4936 -25.0783 78.2753
    endloop
  endfacet
  facet normal 0.525731 -0.68819 0.500001
    outer loop
      vertex -52.4915 -26.2624 80.8491
      vertex -48.4936 -25.0783 78.2753
      vertex -48.3437 -23.8613 79.7927
    endloop
  endfacet
  facet normal 0.525734 -0.688191 0.499996
    outer loop
      vertex -48.4936 -25.0783 78.2753
      vertex -50.5393 -27.8508 76.6102
      vertex -49.2646 -26.4792 77.1578
    endloop
  endfacet
  facet normal -0.39521 -0.718102 -0.572834
    outer loop
      vertex -87.7805 12.6792 47.7839
      vertex -92.9953 19.5054 42.8244
      vertex -87.731 12.6838 47.744
    endloop
  endfacet
  facet normal -0.39521 -0.718102 -0.572834
    outer loop
      vertex -87.6871 12.5568 47.8728
      vertex -53.7764 -29.7071 77.459
      vertex -55.246 -29.9091 78.7261
    endloop
  endfacet
  facet normal -0.395203 -0.718101 -0.572841
    outer loop
      vertex -87.6475 12.609 47.7801
      vertex -53.7764 -29.7071 77.459
      vertex -87.6871 12.5568 47.8728
    endloop
  endfacet
  facet normal 0.373603 -0.0310873 -0.927068
    outer loop
      vertex -87.731 12.6838 47.744
      vertex -87.6475 12.609 47.7801
      vertex -87.6517 12.6127 47.7783
    endloop
  endfacet
  facet normal -0.395211 -0.718102 -0.572833
    outer loop
      vertex -91.5257 19.7074 41.5573
      vertex -87.731 12.6838 47.744
      vertex -92.9953 19.5054 42.8244
    endloop
  endfacet
  facet normal -0.39519 -0.718103 -0.572847
    outer loop
      vertex -87.731 12.6838 47.744
      vertex -91.5257 19.7074 41.5573
      vertex -87.6475 12.609 47.7801
    endloop
  endfacet
  facet normal -0.395211 -0.718102 -0.572833
    outer loop
      vertex -87.6475 12.609 47.7801
      vertex -91.5257 19.7074 41.5573
      vertex -53.7764 -29.7071 77.459
    endloop
  endfacet
  facet normal 0.812098 0.580997 -0.0542161
    outer loop
      vertex -86.5869 26.4009 45.5772
      vertex -81.151 19.2125 49.9675
      vertex -86.4083 26.0944 44.9675
    endloop
  endfacet
  facet normal 0.812098 0.580996 -0.0542184
    outer loop
      vertex -48.8376 -23.0135 81.4789
      vertex -81.151 19.2125 49.9675
      vertex -86.5869 26.4009 45.5772
    endloop
  endfacet
  facet normal 0.812099 0.580996 -0.0542193
    outer loop
      vertex -48.3437 -23.8613 79.7927
      vertex -81.151 19.2125 49.9675
      vertex -48.8376 -23.0135 81.4789
    endloop
  endfacet
  facet normal 0.812099 0.580996 -0.054219
    outer loop
      vertex -81.151 19.2125 49.9675
      vertex -48.3437 -23.8613 79.7927
      vertex -80.8356 18.6713 48.891
    endloop
  endfacet
  facet normal 0.75327 0.103551 -0.649509
    outer loop
      vertex -48.4936 -25.0783 78.2753
      vertex -81.7566 16.0533 46.2561
      vertex -80.9856 17.4543 47.3736
    endloop
  endfacet
  facet normal 0.75327 0.103552 -0.649509
    outer loop
      vertex -81.7566 16.0533 46.2561
      vertex -48.4936 -25.0783 78.2753
      vertex -49.2646 -26.4792 77.1578
    endloop
  endfacet
  facet normal -0.544706 0.179157 0.819267
    outer loop
      vertex -87.0989 17.8103 54.2915
      vertex -88.3189 16.4975 53.7674
      vertex -88.2894 16.4396 53.7997
    endloop
  endfacet
  facet normal -0.54469 0.179137 0.819282
    outer loop
      vertex -88.3306 16.3824 53.7848
      vertex -54.6069 -24.7223 85.1932
      vertex -87.0989 17.8103 54.2915
    endloop
  endfacet
  facet normal -0.542952 0.177052 0.820887
    outer loop
      vertex -88.2928 16.4348 53.7984
      vertex -87.0989 17.8103 54.2915
      vertex -88.2894 16.4396 53.7997
    endloop
  endfacet
  facet normal -0.544832 0.179307 0.81915
    outer loop
      vertex -88.3306 16.3824 53.7848
      vertex -87.0989 17.8103 54.2915
      vertex -88.2928 16.4348 53.7984
    endloop
  endfacet
  facet normal -0.544689 0.179138 0.819282
    outer loop
      vertex -54.6069 -24.7223 85.1932
      vertex -88.3306 16.3824 53.7848
      vertex -55.8816 -26.0939 84.6456
    endloop
  endfacet
  facet normal 0.653393 0.703066 0.28067
    outer loop
      vertex -86.5869 26.4009 45.5772
      vertex -87.6495 26.7504 47.1756
      vertex -48.8376 -23.0135 81.4789
    endloop
  endfacet
  facet normal 0.653391 0.703067 0.280672
    outer loop
      vertex -48.8376 -23.0135 81.4789
      vertex -87.6495 26.7504 47.1756
      vertex -49.9002 -22.664 83.0773
    endloop
  endfacet
  facet normal 0.847171 0.370475 -0.380853
    outer loop
      vertex -48.3437 -23.8613 79.7927
      vertex -80.9856 17.4543 47.3736
      vertex -80.8356 18.6713 48.891
    endloop
  endfacet
  facet normal 0.847171 0.370474 -0.380854
    outer loop
      vertex -80.9856 17.4543 47.3736
      vertex -48.3437 -23.8613 79.7927
      vertex -48.4936 -25.0783 78.2753
    endloop
  endfacet
  facet normal -0.52572 0.688196 -0.500004
    outer loop
      vertex -86.5489 25.9038 44.853
      vertex -86.5869 26.4009 45.5772
      vertex -86.4083 26.0944 44.9675
    endloop
  endfacet
  facet normal -0.525736 0.688188 -0.499999
    outer loop
      vertex -86.5869 26.4009 45.5772
      vertex -86.5489 25.9038 44.853
      vertex -87.6495 26.7504 47.1756
    endloop
  endfacet
endsolid OpenSCAD_Model
