solid OpenSCAD_Model
  facet normal -1 0 0
    outer loop
      vertex -6.56667 -0.9 -19.5
      vertex -6.56667 0.9 19.5
      vertex -6.56667 0.9 -19.5
    endloop
  endfacet
  facet normal -1 -0 0
    outer loop
      vertex -6.56667 0.9 19.5
      vertex -6.56667 -0.9 -19.5
      vertex -6.56667 -0.9 19.5
    endloop
  endfacet
  facet normal 0 0 1
    outer loop
      vertex -0.9 4.72098 19.5
      vertex 0.9 4.72098 19.5
      vertex 0.9 6.46667 19.5
    endloop
  endfacet
  facet normal 0 0 1
    outer loop
      vertex -0.9 4.72098 19.5
      vertex 0.9 6.46667 19.5
      vertex -0.9 6.46667 19.5
    endloop
  endfacet
  facet normal 0 0 1
    outer loop
      vertex -4.72098 -0.9 19.5
      vertex 0.9 4.72098 19.5
      vertex -0.9 4.72098 19.5
    endloop
  endfacet
  facet normal 0 0 1
    outer loop
      vertex -3.46482 3.46482 19.5
      vertex -0.9 4.72098 19.5
      vertex -1.87515 4.52701 19.5
    endloop
  endfacet
  facet normal 0 0 1
    outer loop
      vertex -4.72098 -0.9 19.5
      vertex -0.9 4.72098 19.5
      vertex -4.72098 0.9 19.5
    endloop
  endfacet
  facet normal 0 0 1
    outer loop
      vertex -0.9 4.72098 19.5
      vertex -3.46482 3.46482 19.5
      vertex -4.72098 0.9 19.5
    endloop
  endfacet
  facet normal 0 0 1
    outer loop
      vertex 0.9 4.72098 19.5
      vertex -4.72098 -0.9 19.5
      vertex 0 -4.9 19.5
    endloop
  endfacet
  facet normal 0 0 1
    outer loop
      vertex -4.72098 0.9 19.5
      vertex -3.46482 3.46482 19.5
      vertex -4.52701 1.87515 19.5
    endloop
  endfacet
  facet normal 0 0 1
    outer loop
      vertex 0 -4.9 19.5
      vertex -4.72098 -0.9 19.5
      vertex -1.87515 -4.52701 19.5
    endloop
  endfacet
  facet normal 0 0 1
    outer loop
      vertex -1.87515 -4.52701 19.5
      vertex -4.72098 -0.9 19.5
      vertex -3.46482 -3.46482 19.5
    endloop
  endfacet
  facet normal 0 0 1
    outer loop
      vertex -3.46482 -3.46482 19.5
      vertex -4.72098 -0.9 19.5
      vertex -4.52701 -1.87515 19.5
    endloop
  endfacet
  facet normal -0 0 1
    outer loop
      vertex -6.56667 0.9 19.5
      vertex -4.72098 -0.9 19.5
      vertex -4.72098 0.9 19.5
    endloop
  endfacet
  facet normal 0 0 1
    outer loop
      vertex -4.72098 -0.9 19.5
      vertex -6.56667 0.9 19.5
      vertex -6.56667 -0.9 19.5
    endloop
  endfacet
  facet normal -0 0 1
    outer loop
      vertex 4.72098 0.9 19.5
      vertex 6.56667 -0.9 19.5
      vertex 6.56667 0.9 19.5
    endloop
  endfacet
  facet normal 0 0 1
    outer loop
      vertex 4.72098 0.9 19.5
      vertex 4.72098 -0.9 19.5
      vertex 6.56667 -0.9 19.5
    endloop
  endfacet
  facet normal 0 0 1
    outer loop
      vertex 3.46482 3.46482 19.5
      vertex 4.72098 0.9 19.5
      vertex 4.52701 1.87515 19.5
    endloop
  endfacet
  facet normal 0 0 1
    outer loop
      vertex 4.72098 0.9 19.5
      vertex 0.9 4.72098 19.5
      vertex 4.72098 -0.9 19.5
    endloop
  endfacet
  facet normal 0 0 1
    outer loop
      vertex 4.72098 0.9 19.5
      vertex 3.46482 3.46482 19.5
      vertex 0.9 4.72098 19.5
    endloop
  endfacet
  facet normal 0 0 1
    outer loop
      vertex 0 -4.9 19.5
      vertex 4.72098 -0.9 19.5
      vertex 0.9 4.72098 19.5
    endloop
  endfacet
  facet normal 0 0 1
    outer loop
      vertex 0.9 4.72098 19.5
      vertex 3.46482 3.46482 19.5
      vertex 1.87515 4.52701 19.5
    endloop
  endfacet
  facet normal 0 0 1
    outer loop
      vertex 4.72098 -0.9 19.5
      vertex 3.46482 -3.46482 19.5
      vertex 4.52701 -1.87515 19.5
    endloop
  endfacet
  facet normal 0 0 1
    outer loop
      vertex 4.72098 -0.9 19.5
      vertex 1.87515 -4.52701 19.5
      vertex 3.46482 -3.46482 19.5
    endloop
  endfacet
  facet normal 0 0 1
    outer loop
      vertex 4.72098 -0.9 19.5
      vertex 0 -4.9 19.5
      vertex 1.87515 -4.52701 19.5
    endloop
  endfacet
  facet normal 1 -0 0
    outer loop
      vertex 6.56667 -0.9 19.5
      vertex 6.56667 0.9 -19.5
      vertex 6.56667 0.9 19.5
    endloop
  endfacet
  facet normal 1 0 0
    outer loop
      vertex 6.56667 0.9 -19.5
      vertex 6.56667 -0.9 19.5
      vertex 6.56667 -0.9 -19.5
    endloop
  endfacet
  facet normal 0 1 0
    outer loop
      vertex 6.56667 0.9 19.5
      vertex 4.72098 0.9 0
      vertex 4.72098 0.9 19.5
    endloop
  endfacet
  facet normal 0 1 -0
    outer loop
      vertex 6.56667 0.9 -19.5
      vertex 4.72098 0.9 0
      vertex 6.56667 0.9 19.5
    endloop
  endfacet
  facet normal 0 1 0
    outer loop
      vertex 0.9 0.9 -19.5
      vertex 4.72098 0.9 0
      vertex 6.56667 0.9 -19.5
    endloop
  endfacet
  facet normal 0 1 0
    outer loop
      vertex 4.72098 0.9 0
      vertex 0.9 0.9 -19.5
      vertex 0.9 0.9 0
    endloop
  endfacet
  facet normal 0 1 0
    outer loop
      vertex -0.9 0.9 0
      vertex -0.9 0.9 -19.5
      vertex -4.72098 0.9 0
    endloop
  endfacet
  facet normal 0 1 -0
    outer loop
      vertex -4.72098 0.9 0
      vertex -6.56667 0.9 19.5
      vertex -4.72098 0.9 19.5
    endloop
  endfacet
  facet normal 0 1 0
    outer loop
      vertex -4.72098 0.9 0
      vertex -6.56667 0.9 -19.5
      vertex -6.56667 0.9 19.5
    endloop
  endfacet
  facet normal 0 1 0
    outer loop
      vertex -6.56667 0.9 -19.5
      vertex -4.72098 0.9 0
      vertex -0.9 0.9 -19.5
    endloop
  endfacet
  facet normal 0 0 -1
    outer loop
      vertex 6.56667 -0.9 -19.5
      vertex 0.9 0.9 -19.5
      vertex 6.56667 0.9 -19.5
    endloop
  endfacet
  facet normal 0 0 -1
    outer loop
      vertex 0.9 0.9 -19.5
      vertex -0.9 0.9 -19.5
      vertex 0.9 6.46667 -19.5
    endloop
  endfacet
  facet normal 0 0 -1
    outer loop
      vertex 6.56667 -0.9 -19.5
      vertex -0.9 0.9 -19.5
      vertex 0.9 0.9 -19.5
    endloop
  endfacet
  facet normal 0 0 -1
    outer loop
      vertex -6.56667 -0.9 -19.5
      vertex -0.9 0.9 -19.5
      vertex 6.56667 -0.9 -19.5
    endloop
  endfacet
  facet normal -0 0 -1
    outer loop
      vertex -0.9 0.9 -19.5
      vertex -6.56667 -0.9 -19.5
      vertex -6.56667 0.9 -19.5
    endloop
  endfacet
  facet normal -0 0 -1
    outer loop
      vertex 0.9 6.46667 -19.5
      vertex -0.9 0.9 -19.5
      vertex -0.9 6.46667 -19.5
    endloop
  endfacet
  facet normal 0 -1 0
    outer loop
      vertex -6.56667 -0.9 19.5
      vertex -4.72098 -0.9 0
      vertex -4.72098 -0.9 19.5
    endloop
  endfacet
  facet normal 0 -1 -0
    outer loop
      vertex -4.72098 -0.9 0
      vertex -6.56667 -0.9 -19.5
      vertex 4.72098 -0.9 0
    endloop
  endfacet
  facet normal 0 -1 0
    outer loop
      vertex -6.56667 -0.9 -19.5
      vertex -4.72098 -0.9 0
      vertex -6.56667 -0.9 19.5
    endloop
  endfacet
  facet normal 0 -1 0
    outer loop
      vertex 4.72098 -0.9 0
      vertex 6.56667 -0.9 19.5
      vertex 4.72098 -0.9 19.5
    endloop
  endfacet
  facet normal 0 -1 0
    outer loop
      vertex 4.72098 -0.9 0
      vertex 6.56667 -0.9 -19.5
      vertex 6.56667 -0.9 19.5
    endloop
  endfacet
  facet normal 0 -1 0
    outer loop
      vertex 6.56667 -0.9 -19.5
      vertex 4.72098 -0.9 0
      vertex -6.56667 -0.9 -19.5
    endloop
  endfacet
  facet normal -1 0 0
    outer loop
      vertex -0.9 6.46667 -19.5
      vertex -0.9 4.72098 0
      vertex -0.9 6.46667 19.5
    endloop
  endfacet
  facet normal -1 0 0
    outer loop
      vertex -0.9 0.9 -19.5
      vertex -0.9 4.72098 0
      vertex -0.9 6.46667 -19.5
    endloop
  endfacet
  facet normal -1 -0 0
    outer loop
      vertex -0.9 4.72098 0
      vertex -0.9 0.9 -19.5
      vertex -0.9 0.9 0
    endloop
  endfacet
  facet normal -1 -0 0
    outer loop
      vertex -0.9 6.46667 19.5
      vertex -0.9 4.72098 0
      vertex -0.9 4.72098 19.5
    endloop
  endfacet
  facet normal 1 0 0
    outer loop
      vertex 0.9 4.72098 0
      vertex 0.9 6.46667 19.5
      vertex 0.9 4.72098 19.5
    endloop
  endfacet
  facet normal 1 0 0
    outer loop
      vertex 0.9 6.46667 19.5
      vertex 0.9 4.72098 0
      vertex 0.9 6.46667 -19.5
    endloop
  endfacet
  facet normal 1 0 0
    outer loop
      vertex 0.9 0.9 -19.5
      vertex 0.9 4.72098 0
      vertex 0.9 0.9 0
    endloop
  endfacet
  facet normal 1 0 0
    outer loop
      vertex 0.9 4.72098 0
      vertex 0.9 0.9 -19.5
      vertex 0.9 6.46667 -19.5
    endloop
  endfacet
  facet normal 0 1 -0
    outer loop
      vertex 0.9 6.46667 -19.5
      vertex -0.9 6.46667 19.5
      vertex 0.9 6.46667 19.5
    endloop
  endfacet
  facet normal 0 1 0
    outer loop
      vertex -0.9 6.46667 19.5
      vertex 0.9 6.46667 -19.5
      vertex -0.9 6.46667 -19.5
    endloop
  endfacet
  facet normal 0.980785 0.19509 0
    outer loop
      vertex 4.72098 0.9 19.5
      vertex 4.52701 1.87515 0
      vertex 4.52701 1.87515 19.5
    endloop
  endfacet
  facet normal 0.980785 0.19509 0
    outer loop
      vertex 4.52701 1.87515 0
      vertex 4.72098 0.9 19.5
      vertex 4.72098 0.9 0
    endloop
  endfacet
  facet normal -0.980785 0.19509 0
    outer loop
      vertex -4.72098 0.9 0
      vertex -4.52701 1.87515 19.5
      vertex -4.52701 1.87515 0
    endloop
  endfacet
  facet normal -0.980785 0.19509 0
    outer loop
      vertex -4.52701 1.87515 19.5
      vertex -4.72098 0.9 0
      vertex -4.72098 0.9 19.5
    endloop
  endfacet
  facet normal 0.19509 0.980785 -0
    outer loop
      vertex 1.87515 4.52701 0
      vertex 0.9 4.72098 19.5
      vertex 1.87515 4.52701 19.5
    endloop
  endfacet
  facet normal 0.19509 0.980785 0
    outer loop
      vertex 0.9 4.72098 19.5
      vertex 1.87515 4.52701 0
      vertex 0.9 4.72098 0
    endloop
  endfacet
  facet normal 0.83147 0.55557 0
    outer loop
      vertex 4.52701 1.87515 19.5
      vertex 3.46482 3.46482 0
      vertex 3.46482 3.46482 19.5
    endloop
  endfacet
  facet normal 0.83147 0.55557 0
    outer loop
      vertex 3.46482 3.46482 0
      vertex 4.52701 1.87515 19.5
      vertex 4.52701 1.87515 0
    endloop
  endfacet
  facet normal 0.83147 -0.55557 0
    outer loop
      vertex 3.46482 -3.46482 19.5
      vertex 4.52701 -1.87515 0
      vertex 4.52701 -1.87515 19.5
    endloop
  endfacet
  facet normal 0.83147 -0.55557 0
    outer loop
      vertex 4.52701 -1.87515 0
      vertex 3.46482 -3.46482 19.5
      vertex 3.46482 -3.46482 0
    endloop
  endfacet
  facet normal -0.19509 -0.980785 0
    outer loop
      vertex -1.87515 -4.52701 0
      vertex 0 -4.9 19.5
      vertex -1.87515 -4.52701 19.5
    endloop
  endfacet
  facet normal -0.19509 -0.980785 -0
    outer loop
      vertex 0 -4.9 19.5
      vertex -1.87515 -4.52701 0
      vertex 0 -4.9 0
    endloop
  endfacet
  facet normal -0.19509 0.980785 0
    outer loop
      vertex -0.9 4.72098 0
      vertex -1.87515 4.52701 19.5
      vertex -0.9 4.72098 19.5
    endloop
  endfacet
  facet normal -0.19509 0.980785 0
    outer loop
      vertex -1.87515 4.52701 19.5
      vertex -0.9 4.72098 0
      vertex -1.87515 4.52701 0
    endloop
  endfacet
  facet normal -0.55557 0.83147 0
    outer loop
      vertex -1.87515 4.52701 0
      vertex -3.46482 3.46482 19.5
      vertex -1.87515 4.52701 19.5
    endloop
  endfacet
  facet normal -0.55557 0.83147 0
    outer loop
      vertex -3.46482 3.46482 19.5
      vertex -1.87515 4.52701 0
      vertex -3.46482 3.46482 0
    endloop
  endfacet
  facet normal -0.980785 -0.19509 0
    outer loop
      vertex -4.52701 -1.87515 0
      vertex -4.72098 -0.9 19.5
      vertex -4.72098 -0.9 0
    endloop
  endfacet
  facet normal -0.980785 -0.19509 0
    outer loop
      vertex -4.72098 -0.9 19.5
      vertex -4.52701 -1.87515 0
      vertex -4.52701 -1.87515 19.5
    endloop
  endfacet
  facet normal -0.55557 -0.83147 0
    outer loop
      vertex -3.46482 -3.46482 0
      vertex -1.87515 -4.52701 19.5
      vertex -3.46482 -3.46482 19.5
    endloop
  endfacet
  facet normal -0.55557 -0.83147 -0
    outer loop
      vertex -1.87515 -4.52701 19.5
      vertex -3.46482 -3.46482 0
      vertex -1.87515 -4.52701 0
    endloop
  endfacet
  facet normal 0 0 -1
    outer loop
      vertex 0.9 0.9 0
      vertex 4.52701 1.87515 0
      vertex 4.72098 0.9 0
    endloop
  endfacet
  facet normal -0 0 -1
    outer loop
      vertex 4.52701 1.87515 0
      vertex 0.9 0.9 0
      vertex 3.46482 3.46482 0
    endloop
  endfacet
  facet normal -0 0 -1
    outer loop
      vertex 3.46482 3.46482 0
      vertex 0.9 0.9 0
      vertex 1.87515 4.52701 0
    endloop
  endfacet
  facet normal -0 0 -1
    outer loop
      vertex 1.87515 4.52701 0
      vertex 0.9 0.9 0
      vertex 0.9 4.72098 0
    endloop
  endfacet
  facet normal 0 0 -1
    outer loop
      vertex -0.9 0.9 0
      vertex -1.87515 4.52701 0
      vertex -0.9 4.72098 0
    endloop
  endfacet
  facet normal 0 0 -1
    outer loop
      vertex -0.9 0.9 0
      vertex -3.46482 3.46482 0
      vertex -1.87515 4.52701 0
    endloop
  endfacet
  facet normal 0 0 -1
    outer loop
      vertex -0.9 0.9 0
      vertex -4.52701 1.87515 0
      vertex -3.46482 3.46482 0
    endloop
  endfacet
  facet normal 0 -0 -1
    outer loop
      vertex -4.52701 1.87515 0
      vertex -0.9 0.9 0
      vertex -4.72098 0.9 0
    endloop
  endfacet
  facet normal 0 0 -1
    outer loop
      vertex 3.46482 -3.46482 0
      vertex 4.72098 -0.9 0
      vertex 4.52701 -1.87515 0
    endloop
  endfacet
  facet normal 0 0 -1
    outer loop
      vertex 1.87515 -4.52701 0
      vertex 4.72098 -0.9 0
      vertex 3.46482 -3.46482 0
    endloop
  endfacet
  facet normal 0 0 -1
    outer loop
      vertex 0 -4.9 0
      vertex 4.72098 -0.9 0
      vertex 1.87515 -4.52701 0
    endloop
  endfacet
  facet normal 0 0 -1
    outer loop
      vertex -1.87515 -4.52701 0
      vertex 4.72098 -0.9 0
      vertex 0 -4.9 0
    endloop
  endfacet
  facet normal 0 0 -1
    outer loop
      vertex -4.72098 -0.9 0
      vertex -1.87515 -4.52701 0
      vertex -3.46482 -3.46482 0
    endloop
  endfacet
  facet normal 0 0 -1
    outer loop
      vertex -4.72098 -0.9 0
      vertex -3.46482 -3.46482 0
      vertex -4.52701 -1.87515 0
    endloop
  endfacet
  facet normal 0 0 -1
    outer loop
      vertex -1.87515 -4.52701 0
      vertex -4.72098 -0.9 0
      vertex 4.72098 -0.9 0
    endloop
  endfacet
  facet normal -0.83147 -0.55557 0
    outer loop
      vertex -3.46482 -3.46482 0
      vertex -4.52701 -1.87515 19.5
      vertex -4.52701 -1.87515 0
    endloop
  endfacet
  facet normal -0.83147 -0.55557 0
    outer loop
      vertex -4.52701 -1.87515 19.5
      vertex -3.46482 -3.46482 0
      vertex -3.46482 -3.46482 19.5
    endloop
  endfacet
  facet normal 0.55557 0.83147 -0
    outer loop
      vertex 3.46482 3.46482 0
      vertex 1.87515 4.52701 19.5
      vertex 3.46482 3.46482 19.5
    endloop
  endfacet
  facet normal 0.55557 0.83147 0
    outer loop
      vertex 1.87515 4.52701 19.5
      vertex 3.46482 3.46482 0
      vertex 1.87515 4.52701 0
    endloop
  endfacet
  facet normal -0.83147 0.55557 0
    outer loop
      vertex -4.52701 1.87515 0
      vertex -3.46482 3.46482 19.5
      vertex -3.46482 3.46482 0
    endloop
  endfacet
  facet normal -0.83147 0.55557 0
    outer loop
      vertex -3.46482 3.46482 19.5
      vertex -4.52701 1.87515 0
      vertex -4.52701 1.87515 19.5
    endloop
  endfacet
  facet normal 0.19509 -0.980785 0
    outer loop
      vertex 0 -4.9 0
      vertex 1.87515 -4.52701 19.5
      vertex 0 -4.9 19.5
    endloop
  endfacet
  facet normal 0.19509 -0.980785 0
    outer loop
      vertex 1.87515 -4.52701 19.5
      vertex 0 -4.9 0
      vertex 1.87515 -4.52701 0
    endloop
  endfacet
  facet normal 0.980785 -0.19509 0
    outer loop
      vertex 4.52701 -1.87515 19.5
      vertex 4.72098 -0.9 0
      vertex 4.72098 -0.9 19.5
    endloop
  endfacet
  facet normal 0.980785 -0.19509 0
    outer loop
      vertex 4.72098 -0.9 0
      vertex 4.52701 -1.87515 19.5
      vertex 4.52701 -1.87515 0
    endloop
  endfacet
  facet normal 0.55557 -0.83147 0
    outer loop
      vertex 1.87515 -4.52701 0
      vertex 3.46482 -3.46482 19.5
      vertex 1.87515 -4.52701 19.5
    endloop
  endfacet
  facet normal 0.55557 -0.83147 0
    outer loop
      vertex 3.46482 -3.46482 19.5
      vertex 1.87515 -4.52701 0
      vertex 3.46482 -3.46482 0
    endloop
  endfacet
endsolid OpenSCAD_Model
