solid OpenSCAD_Model
  facet normal -1 0 0
    outer loop
      vertex -6.51667 -0.849999 13.576
      vertex -6.51667 0.849999 13.576
      vertex -6.51667 0.849999 -19.25
    endloop
  endfacet
  facet normal -1 0 0
    outer loop
      vertex -6.51667 -0.849999 13.576
      vertex -6.51667 0.849999 -19.25
      vertex -6.51667 -0.849999 -19.25
    endloop
  endfacet
  facet normal -1 0 0
    outer loop
      vertex -6.51667 0.849999 13.576
      vertex -6.51667 -0.849999 13.576
      vertex -6.51667 0 13.9333
    endloop
  endfacet
  facet normal 0 0 -1
    outer loop
      vertex -0.849999 -4.68092 -19.25
      vertex 0.849999 -4.68092 -19.25
      vertex 0.849999 -6.36667 -19.25
    endloop
  endfacet
  facet normal 0 0 -1
    outer loop
      vertex -0.849999 -4.68092 -19.25
      vertex 0.849999 -6.36667 -19.25
      vertex -0.849999 -6.36667 -19.25
    endloop
  endfacet
  facet normal 0 0 -1
    outer loop
      vertex -4.68092 0.849999 -19.25
      vertex 0.849999 -4.68092 -19.25
      vertex -0.849999 -4.68092 -19.25
    endloop
  endfacet
  facet normal 0 0 -1
    outer loop
      vertex -3.42947 -3.42947 -19.25
      vertex -0.849999 -4.68092 -19.25
      vertex -1.85601 -4.48081 -19.25
    endloop
  endfacet
  facet normal 0 0 -1
    outer loop
      vertex -4.68092 0.849999 -19.25
      vertex -0.849999 -4.68092 -19.25
      vertex -4.68092 -0.849999 -19.25
    endloop
  endfacet
  facet normal 0 0 -1
    outer loop
      vertex -0.849999 -4.68092 -19.25
      vertex -3.42947 -3.42947 -19.25
      vertex -4.68092 -0.849999 -19.25
    endloop
  endfacet
  facet normal 0 0 -1
    outer loop
      vertex 0.849999 -4.68092 -19.25
      vertex -4.68092 0.849999 -19.25
      vertex 0 4.85 -19.25
    endloop
  endfacet
  facet normal 0 0 -1
    outer loop
      vertex -4.68092 -0.849999 -19.25
      vertex -3.42947 -3.42947 -19.25
      vertex -4.48081 -1.85601 -19.25
    endloop
  endfacet
  facet normal 0 0 -1
    outer loop
      vertex 0 4.85 -19.25
      vertex -4.68092 0.849999 -19.25
      vertex -1.85601 4.48081 -19.25
    endloop
  endfacet
  facet normal 0 0 -1
    outer loop
      vertex -1.85601 4.48081 -19.25
      vertex -4.68092 0.849999 -19.25
      vertex -3.42947 3.42947 -19.25
    endloop
  endfacet
  facet normal 0 0 -1
    outer loop
      vertex -3.42947 3.42947 -19.25
      vertex -4.68092 0.849999 -19.25
      vertex -4.48081 1.85601 -19.25
    endloop
  endfacet
  facet normal 0 0 -1
    outer loop
      vertex -6.51667 -0.849999 -19.25
      vertex -4.68092 0.849999 -19.25
      vertex -4.68092 -0.849999 -19.25
    endloop
  endfacet
  facet normal -0 0 -1
    outer loop
      vertex -4.68092 0.849999 -19.25
      vertex -6.51667 -0.849999 -19.25
      vertex -6.51667 0.849999 -19.25
    endloop
  endfacet
  facet normal 0 0 -1
    outer loop
      vertex 4.68092 -0.849999 -19.25
      vertex 6.51667 0.849999 -19.25
      vertex 6.51667 -0.849999 -19.25
    endloop
  endfacet
  facet normal 0 0 -1
    outer loop
      vertex 4.68092 -0.849999 -19.25
      vertex 4.68092 0.849999 -19.25
      vertex 6.51667 0.849999 -19.25
    endloop
  endfacet
  facet normal 0 0 -1
    outer loop
      vertex 3.42947 -3.42947 -19.25
      vertex 4.68092 -0.849999 -19.25
      vertex 4.48081 -1.85601 -19.25
    endloop
  endfacet
  facet normal -0 0 -1
    outer loop
      vertex 4.68092 -0.849999 -19.25
      vertex 0.849999 -4.68092 -19.25
      vertex 4.68092 0.849999 -19.25
    endloop
  endfacet
  facet normal 0 0 -1
    outer loop
      vertex 4.68092 -0.849999 -19.25
      vertex 3.42947 -3.42947 -19.25
      vertex 0.849999 -4.68092 -19.25
    endloop
  endfacet
  facet normal 0 0 -1
    outer loop
      vertex 0 4.85 -19.25
      vertex 4.68092 0.849999 -19.25
      vertex 0.849999 -4.68092 -19.25
    endloop
  endfacet
  facet normal 0 0 -1
    outer loop
      vertex 0.849999 -4.68092 -19.25
      vertex 3.42947 -3.42947 -19.25
      vertex 1.85601 -4.48081 -19.25
    endloop
  endfacet
  facet normal 0 0 -1
    outer loop
      vertex 4.68092 0.849999 -19.25
      vertex 3.42947 3.42947 -19.25
      vertex 4.48081 1.85601 -19.25
    endloop
  endfacet
  facet normal 0 0 -1
    outer loop
      vertex 4.68092 0.849999 -19.25
      vertex 1.85601 4.48081 -19.25
      vertex 3.42947 3.42947 -19.25
    endloop
  endfacet
  facet normal 0 0 -1
    outer loop
      vertex 4.68092 0.849999 -19.25
      vertex 0 4.85 -19.25
      vertex 1.85601 4.48081 -19.25
    endloop
  endfacet
  facet normal 1 0 0
    outer loop
      vertex 6.51667 -0.849999 13.576
      vertex 6.51667 0.849999 13.576
      vertex 6.51667 0 13.9333
    endloop
  endfacet
  facet normal 1 0 0
    outer loop
      vertex 6.51667 0.849999 13.576
      vertex 6.51667 -0.849999 13.576
      vertex 6.51667 0.849999 -19.25
    endloop
  endfacet
  facet normal 1 0 0
    outer loop
      vertex 6.51667 0.849999 -19.25
      vertex 6.51667 -0.849999 13.576
      vertex 6.51667 -0.849999 -19.25
    endloop
  endfacet
  facet normal 0 -1 0
    outer loop
      vertex 0.849999 -0.849999 19.25
      vertex 6.51667 -0.849999 13.576
      vertex 5.09816 -0.849999 19.25
    endloop
  endfacet
  facet normal 0 -1 0
    outer loop
      vertex 0.849999 -0.849999 1.04095e-16
      vertex 6.51667 -0.849999 13.576
      vertex 0.849999 -0.849999 19.25
    endloop
  endfacet
  facet normal 0 -1 0
    outer loop
      vertex 4.68092 -0.849999 1.04095e-16
      vertex 6.51667 -0.849999 13.576
      vertex 0.849999 -0.849999 1.04095e-16
    endloop
  endfacet
  facet normal 0 -1 0
    outer loop
      vertex 6.51667 -0.849999 -19.25
      vertex 4.68092 -0.849999 1.04095e-16
      vertex 4.68092 -0.849999 -19.25
    endloop
  endfacet
  facet normal 0 -1 0
    outer loop
      vertex 4.68092 -0.849999 1.04095e-16
      vertex 6.51667 -0.849999 -19.25
      vertex 6.51667 -0.849999 13.576
    endloop
  endfacet
  facet normal 0 -1 0
    outer loop
      vertex -6.51667 -0.849999 -19.25
      vertex -4.68092 -0.849999 1.04095e-16
      vertex -6.51667 -0.849999 13.576
    endloop
  endfacet
  facet normal 0 -1 -0
    outer loop
      vertex -4.68092 -0.849999 1.04095e-16
      vertex -6.51667 -0.849999 -19.25
      vertex -4.68092 -0.849999 -19.25
    endloop
  endfacet
  facet normal 0 -1 0
    outer loop
      vertex -6.51667 -0.849999 13.576
      vertex -0.849999 -0.849999 19.25
      vertex -5.09816 -0.849999 19.25
    endloop
  endfacet
  facet normal 0 -1 0
    outer loop
      vertex -0.849999 -0.849999 1.04095e-16
      vertex -6.51667 -0.849999 13.576
      vertex -4.68092 -0.849999 1.04095e-16
    endloop
  endfacet
  facet normal 0 -1 0
    outer loop
      vertex -6.51667 -0.849999 13.576
      vertex -0.849999 -0.849999 1.04095e-16
      vertex -0.849999 -0.849999 19.25
    endloop
  endfacet
  facet normal 0 0 1
    outer loop
      vertex 0.849999 -0.849999 19.25
      vertex 5.1875 0 19.25
      vertex 5.09816 0.849999 19.25
    endloop
  endfacet
  facet normal 0 0 1
    outer loop
      vertex 5.1875 0 19.25
      vertex 0.849999 -0.849999 19.25
      vertex 5.09816 -0.849999 19.25
    endloop
  endfacet
  facet normal 0 0 1
    outer loop
      vertex 0.849999 -0.849999 19.25
      vertex 0.542241 -5.15908 19.25
      vertex 0.849999 -5.09367 19.25
    endloop
  endfacet
  facet normal 0 0 1
    outer loop
      vertex 0.849999 -0.849999 19.25
      vertex -0.542241 -5.15908 19.25
      vertex 0.542241 -5.15908 19.25
    endloop
  endfacet
  facet normal 0 0 1
    outer loop
      vertex 0.849999 -0.849999 19.25
      vertex -0.849999 -0.849999 19.25
      vertex -0.542241 -5.15908 19.25
    endloop
  endfacet
  facet normal 0 0 1
    outer loop
      vertex 5.09816 0.849999 19.25
      vertex -0.849999 -0.849999 19.25
      vertex 0.849999 -0.849999 19.25
    endloop
  endfacet
  facet normal -0 0 1
    outer loop
      vertex -5.09816 0.849999 19.25
      vertex -0.849999 -0.849999 19.25
      vertex 5.09816 0.849999 19.25
    endloop
  endfacet
  facet normal -0 0 1
    outer loop
      vertex -5.1875 0 19.25
      vertex -0.849999 -0.849999 19.25
      vertex -5.09816 0.849999 19.25
    endloop
  endfacet
  facet normal 0 0 1
    outer loop
      vertex -0.849999 -0.849999 19.25
      vertex -5.1875 0 19.25
      vertex -5.09816 -0.849999 19.25
    endloop
  endfacet
  facet normal 0 0 1
    outer loop
      vertex -0.542241 -5.15908 19.25
      vertex -0.849999 -0.849999 19.25
      vertex -0.849999 -5.09367 19.25
    endloop
  endfacet
  facet normal 0 1 0
    outer loop
      vertex 6.51667 0.849999 13.576
      vertex -5.09816 0.849999 19.25
      vertex 5.09816 0.849999 19.25
    endloop
  endfacet
  facet normal 0 1 0
    outer loop
      vertex 6.51667 0.849999 13.576
      vertex -6.51667 0.849999 13.576
      vertex -5.09816 0.849999 19.25
    endloop
  endfacet
  facet normal 0 1 0
    outer loop
      vertex 6.51667 0.849999 13.576
      vertex 4.68092 0.849999 -1.04095e-16
      vertex -6.51667 0.849999 13.576
    endloop
  endfacet
  facet normal 0 1 -0
    outer loop
      vertex 6.51667 0.849999 -19.25
      vertex 4.68092 0.849999 -1.04095e-16
      vertex 6.51667 0.849999 13.576
    endloop
  endfacet
  facet normal 0 1 0
    outer loop
      vertex 4.68092 0.849999 -1.04095e-16
      vertex 6.51667 0.849999 -19.25
      vertex 4.68092 0.849999 -19.25
    endloop
  endfacet
  facet normal 0 1 -0
    outer loop
      vertex -4.68092 0.849999 -1.04095e-16
      vertex -6.51667 0.849999 13.576
      vertex 4.68092 0.849999 -1.04095e-16
    endloop
  endfacet
  facet normal 0 1 0
    outer loop
      vertex -6.51667 0.849999 -19.25
      vertex -4.68092 0.849999 -1.04095e-16
      vertex -4.68092 0.849999 -19.25
    endloop
  endfacet
  facet normal 0 1 0
    outer loop
      vertex -4.68092 0.849999 -1.04095e-16
      vertex -6.51667 0.849999 -19.25
      vertex -6.51667 0.849999 13.576
    endloop
  endfacet
  facet normal -1 0 0
    outer loop
      vertex -0.849999 -6.36667 -19.25
      vertex -0.849999 -4.68092 5.73248e-16
      vertex -0.849999 -4.68092 -19.25
    endloop
  endfacet
  facet normal -1 -0 0
    outer loop
      vertex -0.849999 -4.68092 5.73248e-16
      vertex -0.849999 -6.36667 -19.25
      vertex -0.849999 -6.36667 14.2418
    endloop
  endfacet
  facet normal -1 0 0
    outer loop
      vertex -0.849999 -4.68092 5.73248e-16
      vertex -0.849999 -6.36667 14.2418
      vertex -0.849999 -5.09367 19.25
    endloop
  endfacet
  facet normal -1 0 0
    outer loop
      vertex -0.849999 -4.68092 5.73248e-16
      vertex -0.849999 -0.849999 19.25
      vertex -0.849999 -0.849999 1.04095e-16
    endloop
  endfacet
  facet normal -1 -0 0
    outer loop
      vertex -0.849999 -0.849999 19.25
      vertex -0.849999 -4.68092 5.73248e-16
      vertex -0.849999 -5.09367 19.25
    endloop
  endfacet
  facet normal 1 -0 0
    outer loop
      vertex 0.849999 -6.36667 14.2418
      vertex 0.849999 -0.849999 1.04095e-16
      vertex 0.849999 -0.849999 19.25
    endloop
  endfacet
  facet normal 1 0 0
    outer loop
      vertex 0.849999 -6.36667 14.2418
      vertex 0.849999 -0.849999 19.25
      vertex 0.849999 -5.09367 19.25
    endloop
  endfacet
  facet normal 1 0 0
    outer loop
      vertex 0.849999 -0.849999 1.04095e-16
      vertex 0.849999 -6.36667 14.2418
      vertex 0.849999 -4.68092 5.73248e-16
    endloop
  endfacet
  facet normal 1 0 0
    outer loop
      vertex 0.849999 -6.36667 -19.25
      vertex 0.849999 -4.68092 5.73248e-16
      vertex 0.849999 -6.36667 14.2418
    endloop
  endfacet
  facet normal 1 0 0
    outer loop
      vertex 0.849999 -4.68092 5.73248e-16
      vertex 0.849999 -6.36667 -19.25
      vertex 0.849999 -4.68092 -19.25
    endloop
  endfacet
  facet normal 0 -1 0
    outer loop
      vertex -0.849999 -6.36667 14.2418
      vertex 0.669163 -6.36667 14.3931
      vertex -0.669163 -6.36667 14.3931
    endloop
  endfacet
  facet normal 0 -1 0
    outer loop
      vertex -0.849999 -6.36667 14.2418
      vertex 0.849999 -6.36667 14.2418
      vertex 0.669163 -6.36667 14.3931
    endloop
  endfacet
  facet normal 0 -1 0
    outer loop
      vertex -0.849999 -6.36667 -19.25
      vertex 0.849999 -6.36667 14.2418
      vertex -0.849999 -6.36667 14.2418
    endloop
  endfacet
  facet normal 0 -1 -0
    outer loop
      vertex 0.849999 -6.36667 14.2418
      vertex -0.849999 -6.36667 -19.25
      vertex 0.849999 -6.36667 -19.25
    endloop
  endfacet
  facet normal 0.980785 -0.195091 0
    outer loop
      vertex 4.48081 -1.85601 2.27296e-16
      vertex 4.68092 -0.849999 -19.25
      vertex 4.68092 -0.849999 1.04095e-16
    endloop
  endfacet
  facet normal 0.980785 -0.195091 0
    outer loop
      vertex 4.68092 -0.849999 -19.25
      vertex 4.48081 -1.85601 2.27296e-16
      vertex 4.48081 -1.85601 -19.25
    endloop
  endfacet
  facet normal -0.980785 -0.195091 0
    outer loop
      vertex -4.48081 -1.85601 -19.25
      vertex -4.68092 -0.849999 1.04095e-16
      vertex -4.68092 -0.849999 -19.25
    endloop
  endfacet
  facet normal -0.980785 -0.195091 0
    outer loop
      vertex -4.68092 -0.849999 1.04095e-16
      vertex -4.48081 -1.85601 -19.25
      vertex -4.48081 -1.85601 2.27296e-16
    endloop
  endfacet
  facet normal 0.195091 -0.980785 0
    outer loop
      vertex 0.849999 -4.68092 -19.25
      vertex 1.85601 -4.48081 5.48742e-16
      vertex 0.849999 -4.68092 5.73248e-16
    endloop
  endfacet
  facet normal 0.195091 -0.980785 0
    outer loop
      vertex 1.85601 -4.48081 5.48742e-16
      vertex 0.849999 -4.68092 -19.25
      vertex 1.85601 -4.48081 -19.25
    endloop
  endfacet
  facet normal 0.83147 -0.55557 0
    outer loop
      vertex 3.42947 -3.42947 4.19989e-16
      vertex 4.48081 -1.85601 -19.25
      vertex 4.48081 -1.85601 2.27296e-16
    endloop
  endfacet
  facet normal 0.83147 -0.55557 0
    outer loop
      vertex 4.48081 -1.85601 -19.25
      vertex 3.42947 -3.42947 4.19989e-16
      vertex 3.42947 -3.42947 -19.25
    endloop
  endfacet
  facet normal -0 1.22465e-16 1
    outer loop
      vertex 0.849999 -0.849999 1.04095e-16
      vertex 4.48081 -1.85601 2.27296e-16
      vertex 4.68092 -0.849999 1.04095e-16
    endloop
  endfacet
  facet normal 4.38424e-24 1.22465e-16 1
    outer loop
      vertex 4.48081 -1.85601 2.27296e-16
      vertex 0.849999 -0.849999 1.04095e-16
      vertex 3.42947 -3.42947 4.19989e-16
    endloop
  endfacet
  facet normal -4.86724e-24 1.22465e-16 1
    outer loop
      vertex 3.42947 -3.42947 4.19989e-16
      vertex 0.849999 -0.849999 1.04095e-16
      vertex 1.85601 -4.48081 5.48742e-16
    endloop
  endfacet
  facet normal 1.83916e-23 1.22465e-16 1
    outer loop
      vertex 1.85601 -4.48081 5.48742e-16
      vertex 0.849999 -0.849999 1.04095e-16
      vertex 0.849999 -4.68092 5.73248e-16
    endloop
  endfacet
  facet normal -1.83916e-23 1.22465e-16 1
    outer loop
      vertex -0.849999 -0.849999 1.04095e-16
      vertex -1.85601 -4.48081 5.48742e-16
      vertex -0.849999 -4.68092 5.73248e-16
    endloop
  endfacet
  facet normal 4.86724e-24 1.22465e-16 1
    outer loop
      vertex -0.849999 -0.849999 1.04095e-16
      vertex -3.42947 -3.42947 4.19989e-16
      vertex -1.85601 -4.48081 5.48742e-16
    endloop
  endfacet
  facet normal -4.38424e-24 1.22465e-16 1
    outer loop
      vertex -0.849999 -0.849999 1.04095e-16
      vertex -4.48081 -1.85601 2.27296e-16
      vertex -3.42947 -3.42947 4.19989e-16
    endloop
  endfacet
  facet normal 0 1.22465e-16 1
    outer loop
      vertex -4.48081 -1.85601 2.27296e-16
      vertex -0.849999 -0.849999 1.04095e-16
      vertex -4.68092 -0.849999 1.04095e-16
    endloop
  endfacet
  facet normal -3.99616e-23 1.22465e-16 1
    outer loop
      vertex 3.42947 3.42947 -4.19989e-16
      vertex 4.68092 0.849999 -1.04095e-16
      vertex 4.48081 1.85601 -2.27296e-16
    endloop
  endfacet
  facet normal 1.20141e-23 1.22465e-16 1
    outer loop
      vertex 1.85601 4.48081 -5.48742e-16
      vertex 4.68092 0.849999 -1.04095e-16
      vertex 3.42947 3.42947 -4.19989e-16
    endloop
  endfacet
  facet normal -1.12254e-23 1.22465e-16 1
    outer loop
      vertex 0 4.85 -5.93954e-16
      vertex 4.68092 0.849999 -1.04095e-16
      vertex 1.85601 4.48081 -5.48742e-16
    endloop
  endfacet
  facet normal 6.98623e-24 1.22465e-16 1
    outer loop
      vertex -1.85601 4.48081 -5.48742e-16
      vertex 4.68092 0.849999 -1.04095e-16
      vertex 0 4.85 -5.93954e-16
    endloop
  endfacet
  facet normal -1.20141e-23 1.22465e-16 1
    outer loop
      vertex -4.68092 0.849999 -1.04095e-16
      vertex -1.85601 4.48081 -5.48742e-16
      vertex -3.42947 3.42947 -4.19989e-16
    endloop
  endfacet
  facet normal 3.99616e-23 1.22465e-16 1
    outer loop
      vertex -4.68092 0.849999 -1.04095e-16
      vertex -3.42947 3.42947 -4.19989e-16
      vertex -4.48081 1.85601 -2.27296e-16
    endloop
  endfacet
  facet normal 0 1.22465e-16 1
    outer loop
      vertex -1.85601 4.48081 -5.48742e-16
      vertex -4.68092 0.849999 -1.04095e-16
      vertex 4.68092 0.849999 -1.04095e-16
    endloop
  endfacet
  facet normal 0.55557 -0.83147 0
    outer loop
      vertex 1.85601 -4.48081 -19.25
      vertex 3.42947 -3.42947 4.19989e-16
      vertex 1.85601 -4.48081 5.48742e-16
    endloop
  endfacet
  facet normal 0.55557 -0.83147 0
    outer loop
      vertex 3.42947 -3.42947 4.19989e-16
      vertex 1.85601 -4.48081 -19.25
      vertex 3.42947 -3.42947 -19.25
    endloop
  endfacet
  facet normal -0.55557 -0.83147 0
    outer loop
      vertex -3.42947 -3.42947 -19.25
      vertex -1.85601 -4.48081 5.48742e-16
      vertex -3.42947 -3.42947 4.19989e-16
    endloop
  endfacet
  facet normal -0.55557 -0.83147 -0
    outer loop
      vertex -1.85601 -4.48081 5.48742e-16
      vertex -3.42947 -3.42947 -19.25
      vertex -1.85601 -4.48081 -19.25
    endloop
  endfacet
  facet normal -0.83147 -0.55557 0
    outer loop
      vertex -3.42947 -3.42947 -19.25
      vertex -4.48081 -1.85601 2.27296e-16
      vertex -4.48081 -1.85601 -19.25
    endloop
  endfacet
  facet normal -0.83147 -0.55557 0
    outer loop
      vertex -4.48081 -1.85601 2.27296e-16
      vertex -3.42947 -3.42947 -19.25
      vertex -3.42947 -3.42947 4.19989e-16
    endloop
  endfacet
  facet normal -0.195091 -0.980785 0
    outer loop
      vertex -1.85601 -4.48081 -19.25
      vertex -0.849999 -4.68092 5.73248e-16
      vertex -1.85601 -4.48081 5.48742e-16
    endloop
  endfacet
  facet normal -0.195091 -0.980785 -0
    outer loop
      vertex -0.849999 -4.68092 5.73248e-16
      vertex -1.85601 -4.48081 -19.25
      vertex -0.849999 -4.68092 -19.25
    endloop
  endfacet
  facet normal -0.55557 0.83147 0
    outer loop
      vertex -1.85601 4.48081 -19.25
      vertex -3.42947 3.42947 -4.19989e-16
      vertex -1.85601 4.48081 -5.48742e-16
    endloop
  endfacet
  facet normal -0.55557 0.83147 0
    outer loop
      vertex -3.42947 3.42947 -4.19989e-16
      vertex -1.85601 4.48081 -19.25
      vertex -3.42947 3.42947 -19.25
    endloop
  endfacet
  facet normal -0.980785 0.195091 0
    outer loop
      vertex -4.68092 0.849999 -19.25
      vertex -4.48081 1.85601 -2.27296e-16
      vertex -4.48081 1.85601 -19.25
    endloop
  endfacet
  facet normal -0.980785 0.195091 0
    outer loop
      vertex -4.48081 1.85601 -2.27296e-16
      vertex -4.68092 0.849999 -19.25
      vertex -4.68092 0.849999 -1.04095e-16
    endloop
  endfacet
  facet normal 0.83147 0.55557 0
    outer loop
      vertex 4.48081 1.85601 -2.27296e-16
      vertex 3.42947 3.42947 -19.25
      vertex 3.42947 3.42947 -4.19989e-16
    endloop
  endfacet
  facet normal 0.83147 0.55557 0
    outer loop
      vertex 3.42947 3.42947 -19.25
      vertex 4.48081 1.85601 -2.27296e-16
      vertex 4.48081 1.85601 -19.25
    endloop
  endfacet
  facet normal 0.19509 0.980785 -0
    outer loop
      vertex 1.85601 4.48081 -19.25
      vertex 0 4.85 -5.93954e-16
      vertex 1.85601 4.48081 -5.48742e-16
    endloop
  endfacet
  facet normal 0.19509 0.980785 0
    outer loop
      vertex 0 4.85 -5.93954e-16
      vertex 1.85601 4.48081 -19.25
      vertex 0 4.85 -19.25
    endloop
  endfacet
  facet normal -0.19509 0.980785 0
    outer loop
      vertex 0 4.85 -19.25
      vertex -1.85601 4.48081 -5.48742e-16
      vertex 0 4.85 -5.93954e-16
    endloop
  endfacet
  facet normal -0.19509 0.980785 0
    outer loop
      vertex -1.85601 4.48081 -5.48742e-16
      vertex 0 4.85 -19.25
      vertex -1.85601 4.48081 -19.25
    endloop
  endfacet
  facet normal -0.83147 0.55557 0
    outer loop
      vertex -4.48081 1.85601 -19.25
      vertex -3.42947 3.42947 -4.19989e-16
      vertex -3.42947 3.42947 -19.25
    endloop
  endfacet
  facet normal -0.83147 0.55557 0
    outer loop
      vertex -3.42947 3.42947 -4.19989e-16
      vertex -4.48081 1.85601 -19.25
      vertex -4.48081 1.85601 -2.27296e-16
    endloop
  endfacet
  facet normal 0.980785 0.195091 0
    outer loop
      vertex 4.68092 0.849999 -1.04095e-16
      vertex 4.48081 1.85601 -19.25
      vertex 4.48081 1.85601 -2.27296e-16
    endloop
  endfacet
  facet normal 0.980785 0.195091 0
    outer loop
      vertex 4.48081 1.85601 -19.25
      vertex 4.68092 0.849999 -1.04095e-16
      vertex 4.68092 0.849999 -19.25
    endloop
  endfacet
  facet normal 0.55557 0.83147 -0
    outer loop
      vertex 3.42947 3.42947 -19.25
      vertex 1.85601 4.48081 -5.48742e-16
      vertex 3.42947 3.42947 -4.19989e-16
    endloop
  endfacet
  facet normal 0.55557 0.83147 0
    outer loop
      vertex 1.85601 4.48081 -5.48742e-16
      vertex 3.42947 3.42947 -19.25
      vertex 1.85601 4.48081 -19.25
    endloop
  endfacet
  facet normal 0.965138 0.10144 0.241285
    outer loop
      vertex 6.51667 0 13.9333
      vertex 5.09816 0.849999 19.25
      vertex 5.1875 0 19.25
    endloop
  endfacet
  facet normal 0.965138 0.10144 0.241285
    outer loop
      vertex 5.09816 0.849999 19.25
      vertex 6.51667 0 13.9333
      vertex 6.51667 0.849999 13.576
    endloop
  endfacet
  facet normal -0.965138 -0.10144 0.241285
    outer loop
      vertex -5.09816 -0.849999 19.25
      vertex -6.51667 0 13.9333
      vertex -6.51667 -0.849999 13.576
    endloop
  endfacet
  facet normal -0.965138 -0.10144 0.241285
    outer loop
      vertex -6.51667 0 13.9333
      vertex -5.09816 -0.849999 19.25
      vertex -5.1875 0 19.25
    endloop
  endfacet
  facet normal 0 -0.970454 0.241285
    outer loop
      vertex -0.669163 -6.36667 14.3931
      vertex 0.542241 -5.15908 19.25
      vertex -0.542241 -5.15908 19.25
    endloop
  endfacet
  facet normal 0 -0.970454 0.241285
    outer loop
      vertex 0.542241 -5.15908 19.25
      vertex -0.669163 -6.36667 14.3931
      vertex 0.669163 -6.36667 14.3931
    endloop
  endfacet
  facet normal -0.965138 0.10144 0.241285
    outer loop
      vertex -6.51667 0 13.9333
      vertex -5.09816 0.849999 19.25
      vertex -6.51667 0.849999 13.576
    endloop
  endfacet
  facet normal -0.965138 0.10144 0.241285
    outer loop
      vertex -5.09816 0.849999 19.25
      vertex -6.51667 0 13.9333
      vertex -5.1875 0 19.25
    endloop
  endfacet
  facet normal -0.201768 -0.949248 0.241285
    outer loop
      vertex -0.849999 -5.09367 19.25
      vertex -0.669163 -6.36667 14.3931
      vertex -0.542241 -5.15908 19.25
    endloop
  endfacet
  facet normal -0.201768 -0.949248 0.241285
    outer loop
      vertex -0.669163 -6.36667 14.3931
      vertex -0.849999 -5.09367 19.25
      vertex -0.849999 -6.36667 14.2418
    endloop
  endfacet
  facet normal 0.201768 -0.949248 0.241285
    outer loop
      vertex 0.669163 -6.36667 14.3931
      vertex 0.849999 -5.09367 19.25
      vertex 0.542241 -5.15908 19.25
    endloop
  endfacet
  facet normal 0.201768 -0.949248 0.241285
    outer loop
      vertex 0.849999 -5.09367 19.25
      vertex 0.669163 -6.36667 14.3931
      vertex 0.849999 -6.36667 14.2418
    endloop
  endfacet
  facet normal 0.965138 -0.10144 0.241285
    outer loop
      vertex 5.09816 -0.849999 19.25
      vertex 6.51667 0 13.9333
      vertex 5.1875 0 19.25
    endloop
  endfacet
  facet normal 0.965138 -0.10144 0.241285
    outer loop
      vertex 6.51667 0 13.9333
      vertex 5.09816 -0.849999 19.25
      vertex 6.51667 -0.849999 13.576
    endloop
  endfacet
endsolid OpenSCAD_Model
