solid OpenSCAD_Model
  facet normal -0.304277 -0.536692 0.787005
    outer loop
      vertex 21.581 -0.767704 -5.02204
      vertex 21.638 -0.767704 -5
      vertex 21.5725 -0.73055 -5
    endloop
  endfacet
  facet normal -0.19354 0.843774 0.500587
    outer loop
      vertex 21.638 -0.767704 -5
      vertex 21.581 -0.767704 -5.02204
      vertex 21.5725 -0.782736 -5
    endloop
  endfacet
  facet normal -0.333265 -0.382021 0.861971
    outer loop
      vertex 23.147 1.86914 -9.07242
      vertex 25 1.46484 -8.53516
      vertex 25 1.86914 -8.35598
    endloop
  endfacet
  facet normal -0.333265 -0.382021 0.861971
    outer loop
      vertex 25 1.46484 -8.53516
      vertex 23.4914 -0.441243 -9.96321
      vertex 25 -0.441243 -9.37993
    endloop
  endfacet
  facet normal -0.333265 -0.382021 0.861971
    outer loop
      vertex 25 1.46484 -8.53516
      vertex 23.147 1.86914 -9.07242
      vertex 23.4914 -0.441243 -9.96321
    endloop
  endfacet
  facet normal 0.333264 0.382021 -0.861971
    outer loop
      vertex 22.6582 -1.3963 -7.80828
      vertex 25 0.914088 -5.87892
      vertex 25 -1.3963 -6.90287
    endloop
  endfacet
  facet normal 0.333264 0.382021 -0.861971
    outer loop
      vertex 25 0.914088 -5.87892
      vertex 22.6582 -1.3963 -7.80828
      vertex 22.3138 0.914088 -6.91749
    endloop
  endfacet
  facet normal -0.137763 0.924154 0.356317
    outer loop
      vertex 25 -0.441243 -9.37993
      vertex 22.6582 -1.3963 -7.80828
      vertex 25 -1.3963 -6.90287
    endloop
  endfacet
  facet normal -0.137763 0.924154 0.356316
    outer loop
      vertex 22.6582 -1.3963 -7.80828
      vertex 25 -0.441243 -9.37993
      vertex 23.4914 -0.441243 -9.96321
    endloop
  endfacet
  facet normal 0.137763 -0.924154 -0.356317
    outer loop
      vertex 22.3138 0.914088 -6.91749
      vertex 25 1.8065 -8.1935
      vertex 25 0.914088 -5.87892
    endloop
  endfacet
  facet normal 0.137763 -0.924154 -0.356316
    outer loop
      vertex 23.147 1.86914 -9.07242
      vertex 25 1.8065 -8.1935
      vertex 22.3138 0.914088 -6.91749
    endloop
  endfacet
  facet normal 0.137763 -0.924154 -0.356316
    outer loop
      vertex 25 1.8065 -8.1935
      vertex 23.147 1.86914 -9.07242
      vertex 25 1.86914 -8.35598
    endloop
  endfacet
  facet normal -0.994522 0.10453 0
    outer loop
      vertex 15.2185 2.07912 -27.3267
      vertex 15.1908 1.81531 -14.3358
      vertex 15.2185 2.07912 -14.2415
    endloop
  endfacet
  facet normal -0.994522 0.104529 -2.22699e-08
    outer loop
      vertex 15.1908 1.81531 -14.3358
      vertex 15.2185 2.07912 -27.3267
      vertex 15.1428 1.35868 -14.3925
    endloop
  endfacet
  facet normal -0.994522 0.104528 5.66962e-18
    outer loop
      vertex 15 1.08351e-15 -14.5613
      vertex 15.2185 2.07912 -27.3267
      vertex 15 1.7759e-15 -27.3267
    endloop
  endfacet
  facet normal -0.994522 0.104528 -7.38227e-08
    outer loop
      vertex 15.2185 2.07912 -27.3267
      vertex 15 1.08351e-15 -14.5613
      vertex 15.1428 1.35868 -14.3925
    endloop
  endfacet
  facet normal 0.406738 -0.913545 0
    outer loop
      vertex 28.0902 -9.51056 -27.3267
      vertex 28.3136 -9.4111 -9.748
      vertex 28.0902 -9.51056 -9.42128
    endloop
  endfacet
  facet normal 0.406737 -0.913545 2.11931e-08
    outer loop
      vertex 28.0902 -9.51056 -27.3267
      vertex 30 -8.66025 -11.5315
      vertex 28.3136 -9.4111 -9.748
    endloop
  endfacet
  facet normal 0.406737 -0.913545 0
    outer loop
      vertex 30 -8.66025 -11.5315
      vertex 28.0902 -9.51056 -27.3267
      vertex 30 -8.66025 -27.3267
    endloop
  endfacet
  facet normal 0 1 -0
    outer loop
      vertex 26.0453 9.94522 -27.3267
      vertex 23.9547 9.94522 -5
      vertex 26.0453 9.94522 -5
    endloop
  endfacet
  facet normal 0 1 0
    outer loop
      vertex 23.9547 9.94522 -5
      vertex 26.0453 9.94522 -27.3267
      vertex 23.9547 9.94522 -27.3267
    endloop
  endfacet
  facet normal -0.951056 0.309018 0
    outer loop
      vertex 15.8645 4.06737 -27.3267
      vertex 15.7842 3.82021 -13.4713
      vertex 15.8645 4.06737 -13.2966
    endloop
  endfacet
  facet normal -0.951057 0.309017 0
    outer loop
      vertex 15.2185 2.07912 -14.2415
      vertex 15.8645 4.06737 -27.3267
      vertex 15.2185 2.07912 -27.3267
    endloop
  endfacet
  facet normal -0.951057 0.309017 -3.31117e-08
    outer loop
      vertex 15.8645 4.06737 -27.3267
      vertex 15.2185 2.07912 -14.2415
      vertex 15.7842 3.82021 -13.4713
    endloop
  endfacet
  facet normal -0.587785 0.809017 -5.5794e-08
    outer loop
      vertex 20 8.66025 -27.3267
      vertex 19.8106 8.52265 -7.61484
      vertex 20 8.66025 -7.23289
    endloop
  endfacet
  facet normal -0.587786 0.809017 -6.3839e-08
    outer loop
      vertex 20 8.66025 -27.3267
      vertex 19.1606 8.0504 -8.52502
      vertex 19.8106 8.52265 -7.61484
    endloop
  endfacet
  facet normal -0.587785 0.809017 -2.5416e-08
    outer loop
      vertex 19.1606 8.0504 -8.52502
      vertex 20 8.66025 -27.3267
      vertex 18.3087 7.43145 -27.3267
    endloop
  endfacet
  facet normal 0.406736 0.913546 -0
    outer loop
      vertex 30 8.66025 -27.3267
      vertex 28.8576 9.16886 -5
      vertex 30 8.66025 -5
    endloop
  endfacet
  facet normal 0.951057 -0.309015 0
    outer loop
      vertex 34.6399 -2.51471 -14.3841
      vertex 34.7815 -2.07912 -27.3267
      vertex 34.7815 -2.07912 -14.3189
    endloop
  endfacet
  facet normal 0.951056 -0.309018 -1.19615e-07
    outer loop
      vertex 34.2188 -3.81082 -14.5782
      vertex 34.7815 -2.07912 -27.3267
      vertex 34.6399 -2.51471 -14.3841
    endloop
  endfacet
  facet normal 0.951056 -0.30902 0
    outer loop
      vertex 34.1355 -4.06737 -27.3267
      vertex 34.2188 -3.81082 -14.5782
      vertex 34.1355 -4.06737 -14.556
    endloop
  endfacet
  facet normal 0.951056 -0.309018 -5.20018e-08
    outer loop
      vertex 34.2188 -3.81082 -14.5782
      vertex 34.1355 -4.06737 -27.3267
      vertex 34.7815 -2.07912 -27.3267
    endloop
  endfacet
  facet normal 0.587786 -0.809016 0
    outer loop
      vertex 30 -8.66025 -27.3267
      vertex 30.2045 -8.51167 -11.7906
      vertex 30 -8.66025 -11.5315
    endloop
  endfacet
  facet normal 0.587785 -0.809017 1.98378e-08
    outer loop
      vertex 30 -8.66025 -27.3267
      vertex 31.6913 -7.43145 -13.1318
      vertex 30.2045 -8.51167 -11.7906
    endloop
  endfacet
  facet normal 0.587785 -0.809017 0
    outer loop
      vertex 31.6913 -7.43145 -13.1318
      vertex 30 -8.66025 -27.3267
      vertex 31.6913 -7.43145 -27.3267
    endloop
  endfacet
  facet normal 0.866026 -0.499999 7.50988e-08
    outer loop
      vertex 33.0902 -5.87785 -27.3267
      vertex 34.1355 -4.06737 -14.556
      vertex 33.5863 -5.01845 -14.3776
    endloop
  endfacet
  facet normal 0.866027 -0.499997 -4.25763e-08
    outer loop
      vertex 33.0902 -5.87785 -27.3267
      vertex 33.5863 -5.01845 -14.3776
      vertex 33.2225 -5.64871 -14.2594
    endloop
  endfacet
  facet normal 0.866026 -0.499999 0
    outer loop
      vertex 33.0902 -5.87785 -27.3267
      vertex 33.2225 -5.64871 -14.2594
      vertex 33.0902 -5.87785 -14.1546
    endloop
  endfacet
  facet normal 0.866026 -0.499998 0
    outer loop
      vertex 34.1355 -4.06737 -14.556
      vertex 33.0902 -5.87785 -27.3267
      vertex 34.1355 -4.06737 -27.3267
    endloop
  endfacet
  facet normal -0.587785 -0.809017 -5.94096e-08
    outer loop
      vertex 20 -8.66025 -27.3267
      vertex 19.1606 -8.05041 -8.52472
      vertex 18.3087 -7.43145 -27.3267
    endloop
  endfacet
  facet normal -0.587785 -0.809017 -5.58343e-08
    outer loop
      vertex 19.1606 -8.05041 -8.52472
      vertex 20 -8.66025 -27.3267
      vertex 20 -8.66025 -7.2474
    endloop
  endfacet
  facet normal -0.207911 -0.978148 0
    outer loop
      vertex 21.9098 -9.51056 -27.3267
      vertex 23.9547 -9.94522 -5
      vertex 21.9098 -9.51056 -5
    endloop
  endfacet
  facet normal -0.207911 -0.978148 -0
    outer loop
      vertex 23.9547 -9.94522 -5
      vertex 21.9098 -9.51056 -27.3267
      vertex 23.9547 -9.94522 -27.3267
    endloop
  endfacet
  facet normal 0 -1 0
    outer loop
      vertex 23.9547 -9.94522 -5
      vertex 25.4283 -9.94522 -6.09879
      vertex 24.568 -9.94522 -5
    endloop
  endfacet
  facet normal 0 -1 0
    outer loop
      vertex 23.9547 -9.94522 -5
      vertex 26.0453 -9.94522 -6.88684
      vertex 25.4283 -9.94522 -6.09879
    endloop
  endfacet
  facet normal 0 -1 0
    outer loop
      vertex 23.9547 -9.94522 -27.3267
      vertex 26.0453 -9.94522 -6.88684
      vertex 23.9547 -9.94522 -5
    endloop
  endfacet
  facet normal 0 -1 -0
    outer loop
      vertex 26.0453 -9.94522 -6.88684
      vertex 23.9547 -9.94522 -27.3267
      vertex 26.0453 -9.94522 -27.3267
    endloop
  endfacet
  facet normal 0.994522 0.10453 0
    outer loop
      vertex 34.9706 0.279587 -13.3157
      vertex 34.7815 2.07912 -27.3267
      vertex 34.7815 2.07912 -11.9977
    endloop
  endfacet
  facet normal 0.994522 0.104525 -6.54048e-07
    outer loop
      vertex 35 4.36019e-16 -13.4536
      vertex 34.7815 2.07912 -27.3267
      vertex 34.9706 0.279587 -13.3157
    endloop
  endfacet
  facet normal 0.994522 0.104529 5.74204e-18
    outer loop
      vertex 34.7815 2.07912 -27.3267
      vertex 35 4.36019e-16 -13.4536
      vertex 35 1.18849e-15 -27.3267
    endloop
  endfacet
  facet normal 0.866027 0.499997 0
    outer loop
      vertex 33.4777 5.20666 -8.52074
      vertex 33.0902 5.87785 -27.3267
      vertex 33.0902 5.87785 -7.58625
    endloop
  endfacet
  facet normal 0.866025 0.500001 1.93507e-07
    outer loop
      vertex 33.9856 4.32695 -9.74552
      vertex 33.0902 5.87785 -27.3267
      vertex 33.4777 5.20666 -8.52074
    endloop
  endfacet
  facet normal 0.866029 0.499993 -6.91167e-07
    outer loop
      vertex 34.1355 4.06737 -10.0137
      vertex 33.0902 5.87785 -27.3267
      vertex 33.9856 4.32695 -9.74552
    endloop
  endfacet
  facet normal 0.866026 0.499998 0
    outer loop
      vertex 33.0902 5.87785 -27.3267
      vertex 34.1355 4.06737 -10.0137
      vertex 34.1355 4.06737 -27.3267
    endloop
  endfacet
  facet normal 0.587786 0.809017 -0
    outer loop
      vertex 30 8.66025 -27.3267
      vertex 30 8.66025 -5
      vertex 31.0116 7.92525 -5
    endloop
  endfacet
  facet normal 0.207911 -0.978148 0
    outer loop
      vertex 26.0453 -9.94522 -27.3267
      vertex 26.2723 -9.89696 -7.2771
      vertex 26.0453 -9.94522 -6.88684
    endloop
  endfacet
  facet normal 0.207912 -0.978148 -8.24892e-09
    outer loop
      vertex 26.0453 -9.94522 -27.3267
      vertex 27.3266 -9.67287 -8.52062
      vertex 26.2723 -9.89696 -7.2771
    endloop
  endfacet
  facet normal 0.207911 -0.978148 1.67914e-08
    outer loop
      vertex 26.0453 -9.94522 -27.3267
      vertex 28.0902 -9.51056 -9.42128
      vertex 27.3266 -9.67287 -8.52062
    endloop
  endfacet
  facet normal 0.207911 -0.978148 0
    outer loop
      vertex 28.0902 -9.51056 -9.42128
      vertex 26.0453 -9.94522 -27.3267
      vertex 28.0902 -9.51056 -27.3267
    endloop
  endfacet
  facet normal 0.743144 -0.669132 3.28014e-08
    outer loop
      vertex 31.6913 -7.43145 -27.3267
      vertex 33.0902 -5.87785 -14.1546
      vertex 31.8647 -7.23887 -13.3165
    endloop
  endfacet
  facet normal 0.743145 -0.66913 0
    outer loop
      vertex 31.6913 -7.43145 -27.3267
      vertex 31.8647 -7.23887 -13.3165
      vertex 31.6913 -7.43145 -13.1318
    endloop
  endfacet
  facet normal 0.743144 -0.669131 0
    outer loop
      vertex 33.0902 -5.87785 -14.1546
      vertex 31.6913 -7.43145 -27.3267
      vertex 33.0902 -5.87785 -27.3267
    endloop
  endfacet
  facet normal 0.994522 -0.104528 -4.40805e-18
    outer loop
      vertex 34.8102 -1.80554 -14.259
      vertex 35 1.18849e-15 -27.3267
      vertex 35 4.36019e-16 -13.4536
    endloop
  endfacet
  facet normal 0.994521 -0.104533 -5.836e-07
    outer loop
      vertex 34.7815 -2.07912 -14.3189
      vertex 35 1.18849e-15 -27.3267
      vertex 34.8102 -1.80554 -14.259
    endloop
  endfacet
  facet normal 0.994522 -0.104529 0
    outer loop
      vertex 35 1.18849e-15 -27.3267
      vertex 34.7815 -2.07912 -14.3189
      vertex 34.7815 -2.07912 -27.3267
    endloop
  endfacet
  facet normal -0.406737 0.913545 1.45554e-07
    outer loop
      vertex 21.9098 9.51056 -5
      vertex 21.5861 9.36643 -5.03526
      vertex 21.5725 9.36036 -5
    endloop
  endfacet
  facet normal -0.406737 0.913545 1.29184e-07
    outer loop
      vertex 21.9098 9.51056 -5
      vertex 20.8234 9.02684 -6.09208
      vertex 21.5861 9.36643 -5.03526
    endloop
  endfacet
  facet normal -0.406737 0.913545 0
    outer loop
      vertex 20.8234 9.02684 -6.09208
      vertex 21.9098 9.51056 -5
      vertex 21.9098 9.51056 -27.3267
    endloop
  endfacet
  facet normal -0.207911 0.978148 0
    outer loop
      vertex 23.9547 9.94522 -27.3267
      vertex 21.9098 9.51056 -5
      vertex 23.9547 9.94522 -5
    endloop
  endfacet
  facet normal -0.207911 0.978148 0
    outer loop
      vertex 21.9098 9.51056 -5
      vertex 23.9547 9.94522 -27.3267
      vertex 21.9098 9.51056 -27.3267
    endloop
  endfacet
  facet normal -0.866024 0.500002 0
    outer loop
      vertex 16.9098 5.87785 -27.3267
      vertex 16.783 5.65815 -12.0171
      vertex 16.9098 5.87785 -11.7672
    endloop
  endfacet
  facet normal -0.866026 0.5 0
    outer loop
      vertex 15.8645 4.06737 -13.2966
      vertex 16.9098 5.87785 -27.3267
      vertex 15.8645 4.06737 -27.3267
    endloop
  endfacet
  facet normal -0.866026 0.499999 -4.62086e-08
    outer loop
      vertex 16.9098 5.87785 -27.3267
      vertex 15.8645 4.06737 -13.2966
      vertex 16.783 5.65815 -12.0171
    endloop
  endfacet
  facet normal 0.951057 0.309017 0
    outer loop
      vertex 34.6922 2.35373 -11.7892
      vertex 34.1355 4.06737 -27.3267
      vertex 34.1355 4.06737 -10.0137
    endloop
  endfacet
  facet normal 0.951055 0.309022 5.60431e-07
    outer loop
      vertex 34.7815 2.07912 -11.9977
      vertex 34.1355 4.06737 -27.3267
      vertex 34.6922 2.35373 -11.7892
    endloop
  endfacet
  facet normal 0.951056 0.309018 0
    outer loop
      vertex 34.1355 4.06737 -27.3267
      vertex 34.7815 2.07912 -11.9977
      vertex 34.7815 2.07912 -27.3267
    endloop
  endfacet
  facet normal 0.406737 0.913545 2.75183e-08
    outer loop
      vertex 28.0902 9.51056 -27.3267
      vertex 28.8576 9.16886 -5
      vertex 30 8.66025 -27.3267
    endloop
  endfacet
  facet normal 0.406737 0.913545 0
    outer loop
      vertex 28.8576 9.16886 -5
      vertex 28.0902 9.51056 -27.3267
      vertex 28.0902 9.51056 -5
    endloop
  endfacet
  facet normal 0.743141 0.669134 -4.82829e-06
    outer loop
      vertex 32.3077 6.74686 -6.09252
      vertex 31.6913 7.43145 -5
      vertex 31.7807 7.33218 -5
    endloop
  endfacet
  facet normal 0.743145 0.66913 0
    outer loop
      vertex 31.6913 7.43145 -5
      vertex 32.3077 6.74686 -6.09252
      vertex 31.6913 7.43145 -27.3267
    endloop
  endfacet
  facet normal 0.743145 0.66913 1.95821e-08
    outer loop
      vertex 32.8766 6.11502 -7.27187
      vertex 31.6913 7.43145 -27.3267
      vertex 32.3077 6.74686 -6.09252
    endloop
  endfacet
  facet normal 0.743139 0.669137 8.19447e-07
    outer loop
      vertex 33.0902 5.87785 -7.58625
      vertex 31.6913 7.43145 -27.3267
      vertex 32.8766 6.11502 -7.27187
    endloop
  endfacet
  facet normal 0.743144 0.669131 0
    outer loop
      vertex 31.6913 7.43145 -27.3267
      vertex 33.0902 5.87785 -7.58625
      vertex 33.0902 5.87785 -27.3267
    endloop
  endfacet
  facet normal 0 0 -1
    outer loop
      vertex 34.7815 -2.07912 -27.3267
      vertex 34.7815 2.07912 -27.3267
      vertex 35 1.18849e-15 -27.3267
    endloop
  endfacet
  facet normal 0 0 -1
    outer loop
      vertex 34.1355 -4.06737 -27.3267
      vertex 34.7815 2.07912 -27.3267
      vertex 34.7815 -2.07912 -27.3267
    endloop
  endfacet
  facet normal 0 0 -1
    outer loop
      vertex 34.1355 -4.06737 -27.3267
      vertex 34.1355 4.06737 -27.3267
      vertex 34.7815 2.07912 -27.3267
    endloop
  endfacet
  facet normal 0 0 -1
    outer loop
      vertex 33.0902 -5.87785 -27.3267
      vertex 34.1355 4.06737 -27.3267
      vertex 34.1355 -4.06737 -27.3267
    endloop
  endfacet
  facet normal 0 0 -1
    outer loop
      vertex 33.0902 -5.87785 -27.3267
      vertex 33.0902 5.87785 -27.3267
      vertex 34.1355 4.06737 -27.3267
    endloop
  endfacet
  facet normal 0 0 -1
    outer loop
      vertex 31.6913 -7.43145 -27.3267
      vertex 33.0902 5.87785 -27.3267
      vertex 33.0902 -5.87785 -27.3267
    endloop
  endfacet
  facet normal 0 0 -1
    outer loop
      vertex 31.6913 -7.43145 -27.3267
      vertex 31.6913 7.43145 -27.3267
      vertex 33.0902 5.87785 -27.3267
    endloop
  endfacet
  facet normal 0 0 -1
    outer loop
      vertex 30 -8.66025 -27.3267
      vertex 31.6913 7.43145 -27.3267
      vertex 31.6913 -7.43145 -27.3267
    endloop
  endfacet
  facet normal 0 0 -1
    outer loop
      vertex 30 -8.66025 -27.3267
      vertex 30 8.66025 -27.3267
      vertex 31.6913 7.43145 -27.3267
    endloop
  endfacet
  facet normal 0 0 -1
    outer loop
      vertex 28.0902 -9.51056 -27.3267
      vertex 30 8.66025 -27.3267
      vertex 30 -8.66025 -27.3267
    endloop
  endfacet
  facet normal 0 0 -1
    outer loop
      vertex 28.0902 -9.51056 -27.3267
      vertex 28.0902 9.51056 -27.3267
      vertex 30 8.66025 -27.3267
    endloop
  endfacet
  facet normal 0 0 -1
    outer loop
      vertex 26.0453 -9.94522 -27.3267
      vertex 28.0902 9.51056 -27.3267
      vertex 28.0902 -9.51056 -27.3267
    endloop
  endfacet
  facet normal 0 0 -1
    outer loop
      vertex 26.0453 -9.94522 -27.3267
      vertex 26.0453 9.94522 -27.3267
      vertex 28.0902 9.51056 -27.3267
    endloop
  endfacet
  facet normal 0 0 -1
    outer loop
      vertex 23.9547 -9.94522 -27.3267
      vertex 26.0453 9.94522 -27.3267
      vertex 26.0453 -9.94522 -27.3267
    endloop
  endfacet
  facet normal 0 0 -1
    outer loop
      vertex 23.9547 -9.94522 -27.3267
      vertex 23.9547 9.94522 -27.3267
      vertex 26.0453 9.94522 -27.3267
    endloop
  endfacet
  facet normal 0 0 -1
    outer loop
      vertex 21.9098 -9.51056 -27.3267
      vertex 23.9547 9.94522 -27.3267
      vertex 23.9547 -9.94522 -27.3267
    endloop
  endfacet
  facet normal 0 0 -1
    outer loop
      vertex 21.9098 -9.51056 -27.3267
      vertex 21.9098 9.51056 -27.3267
      vertex 23.9547 9.94522 -27.3267
    endloop
  endfacet
  facet normal 0 0 -1
    outer loop
      vertex 20 -8.66025 -27.3267
      vertex 21.9098 9.51056 -27.3267
      vertex 21.9098 -9.51056 -27.3267
    endloop
  endfacet
  facet normal 0 0 -1
    outer loop
      vertex 20 -8.66025 -27.3267
      vertex 20 8.66025 -27.3267
      vertex 21.9098 9.51056 -27.3267
    endloop
  endfacet
  facet normal 0 0 -1
    outer loop
      vertex 18.3087 -7.43145 -27.3267
      vertex 20 8.66025 -27.3267
      vertex 20 -8.66025 -27.3267
    endloop
  endfacet
  facet normal 0 0 -1
    outer loop
      vertex 18.3087 -7.43145 -27.3267
      vertex 18.3087 7.43145 -27.3267
      vertex 20 8.66025 -27.3267
    endloop
  endfacet
  facet normal 0 0 -1
    outer loop
      vertex 16.9098 -5.87785 -27.3267
      vertex 18.3087 7.43145 -27.3267
      vertex 18.3087 -7.43145 -27.3267
    endloop
  endfacet
  facet normal 0 0 -1
    outer loop
      vertex 16.9098 -5.87785 -27.3267
      vertex 16.9098 5.87785 -27.3267
      vertex 18.3087 7.43145 -27.3267
    endloop
  endfacet
  facet normal 0 0 -1
    outer loop
      vertex 15.8645 -4.06737 -27.3267
      vertex 16.9098 5.87785 -27.3267
      vertex 16.9098 -5.87785 -27.3267
    endloop
  endfacet
  facet normal 0 0 -1
    outer loop
      vertex 15.8645 -4.06737 -27.3267
      vertex 15.8645 4.06737 -27.3267
      vertex 16.9098 5.87785 -27.3267
    endloop
  endfacet
  facet normal 0 0 -1
    outer loop
      vertex 15.2185 -2.07912 -27.3267
      vertex 15.8645 4.06737 -27.3267
      vertex 15.8645 -4.06737 -27.3267
    endloop
  endfacet
  facet normal 0 0 -1
    outer loop
      vertex 15.2185 -2.07912 -27.3267
      vertex 15.2185 2.07912 -27.3267
      vertex 15.8645 4.06737 -27.3267
    endloop
  endfacet
  facet normal 0 -0 -1
    outer loop
      vertex 15.2185 2.07912 -27.3267
      vertex 15.2185 -2.07912 -27.3267
      vertex 15 1.7759e-15 -27.3267
    endloop
  endfacet
  facet normal -0.406739 -0.913545 2.00184e-06
    outer loop
      vertex 20.8244 -9.02729 -6.11214
      vertex 21.9098 -9.51056 -5
      vertex 21.5459 -9.34853 -5
    endloop
  endfacet
  facet normal -0.406737 -0.913545 -0
    outer loop
      vertex 21.9098 -9.51056 -5
      vertex 20.8244 -9.02729 -6.11214
      vertex 21.9098 -9.51056 -27.3267
    endloop
  endfacet
  facet normal -0.406737 -0.913545 -3.86364e-08
    outer loop
      vertex 21.9098 -9.51056 -27.3267
      vertex 20 -8.66025 -7.2474
      vertex 20 -8.66025 -27.3267
    endloop
  endfacet
  facet normal -0.406736 -0.913546 1.24258e-07
    outer loop
      vertex 20 -8.66025 -7.2474
      vertex 21.9098 -9.51056 -27.3267
      vertex 20.295 -8.79159 -6.92815
    endloop
  endfacet
  facet normal -0.406737 -0.913545 -1.43556e-08
    outer loop
      vertex 20.295 -8.79159 -6.92815
      vertex 21.9098 -9.51056 -27.3267
      vertex 20.8244 -9.02729 -6.11214
    endloop
  endfacet
  facet normal -0.587786 -0.809017 1.22512e-10
    outer loop
      vertex 18.5527 -7.60871 -9.44987
      vertex 18.3087 -7.43145 -27.3267
      vertex 19.1606 -8.05041 -8.52472
    endloop
  endfacet
  facet normal -0.587786 -0.809017 0
    outer loop
      vertex 18.3087 -7.43145 -27.3267
      vertex 18.5527 -7.60871 -9.44987
      vertex 18.3087 -7.43145 -9.72482
    endloop
  endfacet
  facet normal -0.866026 -0.5 0
    outer loop
      vertex 16.9098 -5.87785 -27.3267
      vertex 15.8645 -4.06737 -13.2986
      vertex 15.8645 -4.06737 -27.3267
    endloop
  endfacet
  facet normal -0.866026 -0.499998 -2.40458e-07
    outer loop
      vertex 15.8645 -4.06737 -13.2986
      vertex 16.9098 -5.87785 -27.3267
      vertex 16.0055 -4.31158 -13.1512
    endloop
  endfacet
  facet normal -0.866025 -0.5 0
    outer loop
      vertex 16.0055 -4.31158 -13.1512
      vertex 16.9098 -5.87785 -27.3267
      vertex 16.9098 -5.87785 -11.7709
    endloop
  endfacet
  facet normal -0.587785 0.809017 0
    outer loop
      vertex 18.3087 7.43145 -9.71794
      vertex 19.1606 8.0504 -8.52502
      vertex 18.3087 7.43145 -27.3267
    endloop
  endfacet
  facet normal -0.743144 0.669132 0
    outer loop
      vertex 18.3087 7.43145 -27.3267
      vertex 18.1442 7.24881 -10.0363
      vertex 18.3087 7.43145 -9.71794
    endloop
  endfacet
  facet normal -0.743145 0.669131 0
    outer loop
      vertex 16.9098 5.87785 -11.7672
      vertex 18.3087 7.43145 -27.3267
      vertex 16.9098 5.87785 -27.3267
    endloop
  endfacet
  facet normal -0.743145 0.669131 -1.56927e-08
    outer loop
      vertex 18.3087 7.43145 -27.3267
      vertex 16.9098 5.87785 -11.7672
      vertex 18.1442 7.24881 -10.0363
    endloop
  endfacet
  facet normal -0.406737 0.913545 1.22769e-08
    outer loop
      vertex 21.9098 9.51056 -27.3267
      vertex 20 8.66025 -7.23289
      vertex 20.8234 9.02684 -6.09208
    endloop
  endfacet
  facet normal -0.406737 0.913545 -3.86085e-08
    outer loop
      vertex 20 8.66025 -7.23289
      vertex 21.9098 9.51056 -27.3267
      vertex 20 8.66025 -27.3267
    endloop
  endfacet
  facet normal 0.207911 0.978148 -0
    outer loop
      vertex 28.0902 9.51056 -27.3267
      vertex 26.0453 9.94522 -5
      vertex 28.0902 9.51056 -5
    endloop
  endfacet
  facet normal 0.207911 0.978148 0
    outer loop
      vertex 26.0453 9.94522 -5
      vertex 28.0902 9.51056 -27.3267
      vertex 26.0453 9.94522 -27.3267
    endloop
  endfacet
  facet normal 0.587785 0.809017 -0
    outer loop
      vertex 31.6913 7.43145 -27.3267
      vertex 31.0116 7.92525 -5
      vertex 31.6913 7.43145 -5
    endloop
  endfacet
  facet normal 0.587785 0.809017 1.74079e-08
    outer loop
      vertex 31.0116 7.92525 -5
      vertex 31.6913 7.43145 -27.3267
      vertex 30 8.66025 -27.3267
    endloop
  endfacet
  facet normal -0.743145 -0.669131 0
    outer loop
      vertex 18.3087 -7.43145 -27.3267
      vertex 16.9098 -5.87785 -11.7709
      vertex 16.9098 -5.87785 -27.3267
    endloop
  endfacet
  facet normal -0.743146 -0.669129 -3.37198e-07
    outer loop
      vertex 16.9098 -5.87785 -11.7709
      vertex 18.3087 -7.43145 -27.3267
      vertex 17.1038 -6.0933 -11.5541
    endloop
  endfacet
  facet normal -0.743144 -0.669131 0
    outer loop
      vertex 17.1038 -6.0933 -11.5541
      vertex 18.3087 -7.43145 -27.3267
      vertex 18.3087 -7.43145 -9.72482
    endloop
  endfacet
  facet normal -0.951057 -0.309017 0
    outer loop
      vertex 15.8645 -4.06737 -27.3267
      vertex 15.2185 -2.07912 -14.2424
      vertex 15.2185 -2.07912 -27.3267
    endloop
  endfacet
  facet normal -0.951056 -0.309018 1.45048e-07
    outer loop
      vertex 15.2185 -2.07912 -14.2424
      vertex 15.8645 -4.06737 -27.3267
      vertex 15.3038 -2.34142 -14.1722
    endloop
  endfacet
  facet normal -0.951057 -0.309017 0
    outer loop
      vertex 15.3038 -2.34142 -14.1722
      vertex 15.8645 -4.06737 -27.3267
      vertex 15.8645 -4.06737 -13.2986
    endloop
  endfacet
  facet normal -0.994522 -0.104529 -0
    outer loop
      vertex 15.2185 -2.07912 -14.2424
      vertex 15.1427 -1.35765 -14.3741
      vertex 15.2185 -2.07912 -27.3267
    endloop
  endfacet
  facet normal -0.994522 -0.104527 -5.66956e-18
    outer loop
      vertex 15 1.7759e-15 -27.3267
      vertex 15.0283 -0.268935 -14.5729
      vertex 15 1.08351e-15 -14.5613
    endloop
  endfacet
  facet normal -0.994522 -0.104528 -2.17102e-08
    outer loop
      vertex 15.2185 -2.07912 -27.3267
      vertex 15.0283 -0.268935 -14.5729
      vertex 15 1.7759e-15 -27.3267
    endloop
  endfacet
  facet normal -0.994522 -0.104528 -6.89603e-08
    outer loop
      vertex 15.0283 -0.268935 -14.5729
      vertex 15.2185 -2.07912 -27.3267
      vertex 15.1427 -1.35765 -14.3741
    endloop
  endfacet
  facet normal 0 0 1
    outer loop
      vertex 29.2081 7.9421 -5
      vertex 31.6913 7.43145 -5
      vertex 31.0116 7.92525 -5
    endloop
  endfacet
  facet normal -0 0 1
    outer loop
      vertex 29.2081 7.9421 -5
      vertex 31.0116 7.92525 -5
      vertex 30 8.66025 -5
    endloop
  endfacet
  facet normal 0 0 1
    outer loop
      vertex 31.6913 7.43145 -5
      vertex 29.2081 7.9421 -5
      vertex 31.7807 7.33218 -5
    endloop
  endfacet
  facet normal 0 0 1
    outer loop
      vertex 28.8576 9.16886 -5
      vertex 29.2081 7.9421 -5
      vertex 30 8.66025 -5
    endloop
  endfacet
  facet normal 0 0 1
    outer loop
      vertex 27.4462 8.3598 -5
      vertex 28.8576 9.16886 -5
      vertex 28.0902 9.51056 -5
    endloop
  endfacet
  facet normal 0 0 1
    outer loop
      vertex 28.8576 9.16886 -5
      vertex 27.4462 8.3598 -5
      vertex 29.2081 7.9421 -5
    endloop
  endfacet
  facet normal 0 0 1
    outer loop
      vertex 26.0453 9.94522 -5
      vertex 27.4462 8.3598 -5
      vertex 28.0902 9.51056 -5
    endloop
  endfacet
  facet normal 0 0 1
    outer loop
      vertex 27.4462 8.3598 -5
      vertex 26.0453 9.94522 -5
      vertex 26.1868 8.53181 -5
    endloop
  endfacet
  facet normal -0 0 1
    outer loop
      vertex 23.9547 9.94522 -5
      vertex 26.1868 8.53181 -5
      vertex 26.0453 9.94522 -5
    endloop
  endfacet
  facet normal 0 0 1
    outer loop
      vertex 23.9547 9.94522 -5
      vertex 22.6425 9.01589 -5
      vertex 26.1868 8.53181 -5
    endloop
  endfacet
  facet normal -0 0 1
    outer loop
      vertex 21.9098 9.51056 -5
      vertex 22.6425 9.01589 -5
      vertex 23.9547 9.94522 -5
    endloop
  endfacet
  facet normal 0 0 1
    outer loop
      vertex 21.5725 9.02771 -5
      vertex 21.9098 9.51056 -5
      vertex 21.5725 9.36036 -5
    endloop
  endfacet
  facet normal 0 0 1
    outer loop
      vertex 21.9098 9.51056 -5
      vertex 21.5725 9.02771 -5
      vertex 22.6425 9.01589 -5
    endloop
  endfacet
  facet normal 0 0 1
    outer loop
      vertex 22.372 -8.59525 -5
      vertex 23.9547 -9.94522 -5
      vertex 24.568 -9.94522 -5
    endloop
  endfacet
  facet normal 0 0 1
    outer loop
      vertex 22.372 -8.59525 -5
      vertex 21.9098 -9.51056 -5
      vertex 23.9547 -9.94522 -5
    endloop
  endfacet
  facet normal 0 0 1
    outer loop
      vertex 21.5725 -9.34458 -5
      vertex 22.372 -8.59525 -5
      vertex 21.5725 -8.10376 -5
    endloop
  endfacet
  facet normal 0 0 1
    outer loop
      vertex 22.372 -8.59525 -5
      vertex 21.5725 -9.34458 -5
      vertex 21.9098 -9.51056 -5
    endloop
  endfacet
  facet normal 0 0 1
    outer loop
      vertex 21.9098 -9.51056 -5
      vertex 21.5725 -9.34458 -5
      vertex 21.5459 -9.34853 -5
    endloop
  endfacet
  facet normal 0.291504 -0.233609 0.927606
    outer loop
      vertex 34.8102 -1.80554 -14.259
      vertex 34.6399 -2.51471 -14.3841
      vertex 34.7815 -2.07912 -14.3189
    endloop
  endfacet
  facet normal 0.291507 -0.233609 0.927605
    outer loop
      vertex 25 0.813818 -10.5164
      vertex 34.8102 -1.80554 -14.259
      vertex 25 2.24975 -10.1548
    endloop
  endfacet
  facet normal 0.291506 -0.233609 0.927605
    outer loop
      vertex 34.8102 -1.80554 -14.259
      vertex 25 0.813818 -10.5164
      vertex 34.6399 -2.51471 -14.3841
    endloop
  endfacet
  facet normal 0.291507 -0.233608 0.927605
    outer loop
      vertex 25 -5.47311e-08 -10.7214
      vertex 34.6399 -2.51471 -14.3841
      vertex 25 0.813818 -10.5164
    endloop
  endfacet
  facet normal 0.291507 -0.233609 0.927605
    outer loop
      vertex 34.6399 -2.51471 -14.3841
      vertex 25 -5.47311e-08 -10.7214
      vertex 34.2188 -3.81082 -14.5782
    endloop
  endfacet
  facet normal 0.198902 -0.416599 0.887064
    outer loop
      vertex 34.9706 0.279587 -13.3157
      vertex 34.8102 -1.80554 -14.259
      vertex 35 4.36019e-16 -13.4536
    endloop
  endfacet
  facet normal 0.198902 -0.416599 0.887064
    outer loop
      vertex 25 2.24975 -10.1548
      vertex 34.9706 0.279587 -13.3157
      vertex 25 4.40118 -9.14442
    endloop
  endfacet
  facet normal 0.198902 -0.416599 0.887064
    outer loop
      vertex 34.9706 0.279587 -13.3157
      vertex 25 2.24975 -10.1548
      vertex 34.8102 -1.80554 -14.259
    endloop
  endfacet
  facet normal 0.198901 -0.416602 0.887063
    outer loop
      vertex 22.8825 5 -8.3884
      vertex 23.5514 5 -8.53838
      vertex 22.8226 5.30125 -8.23349
    endloop
  endfacet
  facet normal -0.113173 -0.828631 0.548236
    outer loop
      vertex 33.4777 5.20666 -8.52074
      vertex 27.4462 8.3598 -5
      vertex 26.1868 8.53181 -5
    endloop
  endfacet
  facet normal -0.113174 -0.828631 0.548235
    outer loop
      vertex 27.4462 8.3598 -5
      vertex 33.4777 5.20666 -8.52074
      vertex 32.8766 6.11502 -7.27187
    endloop
  endfacet
  facet normal -0.113165 -0.82863 0.548239
    outer loop
      vertex 32.8766 6.11502 -7.27187
      vertex 33.4777 5.20666 -8.52074
      vertex 33.0902 5.87785 -7.58625
    endloop
  endfacet
  facet normal 0.504949 0.666681 0.548236
    outer loop
      vertex 26.2723 -9.89696 -7.2771
      vertex 21.9612 -7.67735 -6.00553
      vertex 21.7158 -8.01342 -5.37083
    endloop
  endfacet
  facet normal 0.504949 0.666681 0.548236
    outer loop
      vertex 21.9612 -7.67735 -6.00553
      vertex 26.2723 -9.89696 -7.2771
      vertex 27.3266 -9.67287 -8.52062
    endloop
  endfacet
  facet normal -0.213442 -0.900289 0.37937
    outer loop
      vertex 32.3077 6.74686 -6.09252
      vertex 31.7807 7.33218 -5
      vertex 29.2081 7.9421 -5
    endloop
  endfacet
  facet normal 0.0976053 -0.581383 0.807755
    outer loop
      vertex 22.1723 7.52917 -6.55136
      vertex 23.5514 5 -8.53838
      vertex 25 5 -8.71342
    endloop
  endfacet
  facet normal 0.0976052 -0.581383 0.807755
    outer loop
      vertex 23.5514 5 -8.53838
      vertex 22.1723 7.52917 -6.55136
      vertex 22.8226 5.30125 -8.23349
    endloop
  endfacet
  facet normal 0.0976051 -0.581383 0.807755
    outer loop
      vertex 22.1723 7.52917 -6.55136
      vertex 25 5 -8.71342
      vertex 34.6922 2.35373 -11.7892
    endloop
  endfacet
  facet normal 0.0976035 -0.581383 0.807755
    outer loop
      vertex 34.6922 2.35373 -11.7892
      vertex 34.9706 0.279587 -13.3157
      vertex 34.7815 2.07912 -11.9977
    endloop
  endfacet
  facet normal 0.0976049 -0.581383 0.807754
    outer loop
      vertex 25 4.40118 -9.14442
      vertex 34.6922 2.35373 -11.7892
      vertex 25 5 -8.71342
    endloop
  endfacet
  facet normal 0.0976051 -0.581383 0.807755
    outer loop
      vertex 34.6922 2.35373 -11.7892
      vertex 25 4.40118 -9.14442
      vertex 34.9706 0.279587 -13.3157
    endloop
  endfacet
  facet normal 0.484544 0.788223 0.37937
    outer loop
      vertex 24.568 -9.94522 -5
      vertex 25.4283 -9.94522 -6.09879
      vertex 22.372 -8.59525 -5
    endloop
  endfacet
  facet normal 0.484544 0.788223 0.37937
    outer loop
      vertex 22.372 -8.59525 -5
      vertex 21.7158 -8.01342 -5.37083
      vertex 21.5725 -8.10376 -5
    endloop
  endfacet
  facet normal 0.484544 0.788223 0.37937
    outer loop
      vertex 25.4283 -9.94522 -6.09879
      vertex 21.7158 -8.01342 -5.37083
      vertex 22.372 -8.59525 -5
    endloop
  endfacet
  facet normal 0.484544 0.788223 0.379369
    outer loop
      vertex 26.0453 -9.94522 -6.88684
      vertex 21.7158 -8.01342 -5.37083
      vertex 25.4283 -9.94522 -6.09879
    endloop
  endfacet
  facet normal 0.484545 0.788223 0.37937
    outer loop
      vertex 21.7158 -8.01342 -5.37083
      vertex 26.0453 -9.94522 -6.88684
      vertex 26.2723 -9.89696 -7.2771
    endloop
  endfacet
  facet normal 0.504949 0.666681 0.548236
    outer loop
      vertex 27.3266 -9.67287 -8.52062
      vertex 22.4616 -6.99205 -7.29977
      vertex 21.9612 -7.67735 -6.00553
    endloop
  endfacet
  facet normal 0.504949 0.666681 0.548236
    outer loop
      vertex 28.0902 -9.51056 -9.42128
      vertex 22.4616 -6.99205 -7.29977
      vertex 27.3266 -9.67287 -8.52062
    endloop
  endfacet
  facet normal 0.504949 0.666681 0.548236
    outer loop
      vertex 22.4616 -6.99205 -7.29977
      vertex 28.0902 -9.51056 -9.42128
      vertex 28.3136 -9.4111 -9.748
    endloop
  endfacet
  facet normal 0.479626 0.34277 0.807755
    outer loop
      vertex 25 -5 -10.1904
      vertex 31.6913 -7.43145 -13.1318
      vertex 31.8647 -7.23887 -13.3165
    endloop
  endfacet
  facet normal 0.479626 0.342771 0.807754
    outer loop
      vertex 25 -5 -10.1904
      vertex 31.8647 -7.23887 -13.3165
      vertex 25 -4.40118 -10.4445
    endloop
  endfacet
  facet normal 0.479626 0.34277 0.807755
    outer loop
      vertex 31.6913 -7.43145 -13.1318
      vertex 25 -5 -10.1904
      vertex 30.2045 -8.51167 -11.7906
    endloop
  endfacet
  facet normal 0.479626 0.342769 0.807755
    outer loop
      vertex 23.0388 -5.54956 -8.79273
      vertex 25 -5 -10.1904
      vertex 23.1559 -5 -9.09543
    endloop
  endfacet
  facet normal 0.479626 0.34277 0.807755
    outer loop
      vertex 25 -5 -10.1904
      vertex 23.0388 -5.54956 -8.79273
      vertex 30.2045 -8.51167 -11.7906
    endloop
  endfacet
  facet normal -0.113173 -0.828631 0.548236
    outer loop
      vertex 33.9856 4.32695 -9.74552
      vertex 26.1868 8.53181 -5
      vertex 22.6425 9.01589 -5
    endloop
  endfacet
  facet normal -0.113173 -0.828631 0.548236
    outer loop
      vertex 26.1868 8.53181 -5
      vertex 33.9856 4.32695 -9.74552
      vertex 33.4777 5.20666 -8.52074
    endloop
  endfacet
  facet normal -0.00795851 -0.720757 0.693142
    outer loop
      vertex 22.1723 7.52917 -6.55136
      vertex 22.6425 9.01589 -5
      vertex 21.5725 9.02771 -5
    endloop
  endfacet
  facet normal -0.00795843 -0.720758 0.693142
    outer loop
      vertex 22.1723 7.52917 -6.55136
      vertex 33.9856 4.32695 -9.74552
      vertex 22.6425 9.01589 -5
    endloop
  endfacet
  facet normal -0.00795838 -0.720757 0.693142
    outer loop
      vertex 34.6922 2.35373 -11.7892
      vertex 33.9856 4.32695 -9.74552
      vertex 22.1723 7.52917 -6.55136
    endloop
  endfacet
  facet normal -0.00795544 -0.720757 0.693142
    outer loop
      vertex 33.9856 4.32695 -9.74552
      vertex 34.6922 2.35373 -11.7892
      vertex 34.1355 4.06737 -10.0137
    endloop
  endfacet
  facet normal -0.213443 -0.900289 0.379369
    outer loop
      vertex 32.8766 6.11502 -7.27187
      vertex 29.2081 7.9421 -5
      vertex 27.4462 8.3598 -5
    endloop
  endfacet
  facet normal -0.213443 -0.900289 0.37937
    outer loop
      vertex 29.2081 7.9421 -5
      vertex 32.8766 6.11502 -7.27187
      vertex 32.3077 6.74686 -6.09252
    endloop
  endfacet
  facet normal 0.503286 0.516003 0.693141
    outer loop
      vertex 23.0388 -5.54956 -8.79273
      vertex 30 -8.66025 -11.5315
      vertex 30.2045 -8.51167 -11.7906
    endloop
  endfacet
  facet normal 0.503286 0.516002 0.693142
    outer loop
      vertex 30 -8.66025 -11.5315
      vertex 23.0388 -5.54956 -8.79273
      vertex 28.3136 -9.4111 -9.748
    endloop
  endfacet
  facet normal 0.503286 0.516002 0.693142
    outer loop
      vertex 28.3136 -9.4111 -9.748
      vertex 23.0388 -5.54956 -8.79273
      vertex 22.4616 -6.99205 -7.29977
    endloop
  endfacet
  facet normal 0.435004 0.154557 0.887065
    outer loop
      vertex 25 -4.40118 -10.4445
      vertex 33.0902 -5.87785 -14.1546
      vertex 33.2225 -5.64871 -14.2594
    endloop
  endfacet
  facet normal 0.435004 0.154559 0.887064
    outer loop
      vertex 25 -4.40118 -10.4445
      vertex 33.2225 -5.64871 -14.2594
      vertex 25 -2.24975 -10.8194
    endloop
  endfacet
  facet normal 0.435004 0.154559 0.887064
    outer loop
      vertex 33.0902 -5.87785 -14.1546
      vertex 25 -4.40118 -10.4445
      vertex 31.8647 -7.23887 -13.3165
    endloop
  endfacet
  facet normal 0.371382 -0.0404141 0.9276
    outer loop
      vertex 34.2188 -3.81082 -14.5782
      vertex 33.5863 -5.01845 -14.3776
      vertex 34.1355 -4.06737 -14.556
    endloop
  endfacet
  facet normal 0.371371 -0.0404086 0.927605
    outer loop
      vertex 25 -0.754251 -10.7543
      vertex 34.2188 -3.81082 -14.5782
      vertex 25 -5.47311e-08 -10.7214
    endloop
  endfacet
  facet normal 0.371372 -0.0404053 0.927605
    outer loop
      vertex 25 -0.85492 -10.7586
      vertex 34.2188 -3.81082 -14.5782
      vertex 25 -0.754251 -10.7543
    endloop
  endfacet
  facet normal 0.371371 -0.0404076 0.927605
    outer loop
      vertex 34.2188 -3.81082 -14.5782
      vertex 25 -0.85492 -10.7586
      vertex 33.5863 -5.01845 -14.3776
    endloop
  endfacet
  facet normal 0.371371 -0.0404075 0.927605
    outer loop
      vertex 25 -2.24975 -10.8194
      vertex 33.5863 -5.01845 -14.3776
      vertex 25 -0.85492 -10.7586
    endloop
  endfacet
  facet normal 0.371371 -0.0404061 0.927605
    outer loop
      vertex 33.5863 -5.01845 -14.3776
      vertex 25 -2.24975 -10.8194
      vertex 33.2225 -5.64871 -14.2594
    endloop
  endfacet
  facet normal 1 0 0
    outer loop
      vertex 25 5 -5
      vertex 25 0.914088 -5.87892
      vertex 25 1.8065 -8.1935
    endloop
  endfacet
  facet normal 1 0 0
    outer loop
      vertex 25 -1.3963 -6.90287
      vertex 25 -4.40118 -10.4445
      vertex 25 -2.24975 -10.8194
    endloop
  endfacet
  facet normal 1 0 0
    outer loop
      vertex 25 -5 -5
      vertex 25 0.914088 -5.87892
      vertex 25 5 -5
    endloop
  endfacet
  facet normal 1 0 0
    outer loop
      vertex 25 -5 -5
      vertex 25 -1.3963 -6.90287
      vertex 25 0.914088 -5.87892
    endloop
  endfacet
  facet normal 1 0 0
    outer loop
      vertex 25 -5 -10.1904
      vertex 25 -1.3963 -6.90287
      vertex 25 -5 -5
    endloop
  endfacet
  facet normal 1 0 0
    outer loop
      vertex 25 -1.3963 -6.90287
      vertex 25 -5 -10.1904
      vertex 25 -4.40118 -10.4445
    endloop
  endfacet
  facet normal 1 -0 0
    outer loop
      vertex 25 -0.441243 -9.37993
      vertex 25 -0.754251 -10.7543
      vertex 25 1.46484 -8.53516
    endloop
  endfacet
  facet normal 1 0 0
    outer loop
      vertex 25 -0.441243 -9.37993
      vertex 25 -0.85492 -10.7586
      vertex 25 -0.754251 -10.7543
    endloop
  endfacet
  facet normal 1 0 0
    outer loop
      vertex 25 -2.24975 -10.8194
      vertex 25 -0.441243 -9.37993
      vertex 25 -1.3963 -6.90287
    endloop
  endfacet
  facet normal 1 0 0
    outer loop
      vertex 25 -0.441243 -9.37993
      vertex 25 -2.24975 -10.8194
      vertex 25 -0.85492 -10.7586
    endloop
  endfacet
  facet normal 1 -0 0
    outer loop
      vertex 25 1.8065 -8.1935
      vertex 25 5 -8.71342
      vertex 25 5 -5
    endloop
  endfacet
  facet normal 1 0 0
    outer loop
      vertex 25 5 -8.71342
      vertex 25 1.8065 -8.1935
      vertex 25 4.40118 -9.14442
    endloop
  endfacet
  facet normal 1 0 0
    outer loop
      vertex 25 4.40118 -9.14442
      vertex 25 1.86914 -8.35598
      vertex 25 2.24975 -10.1548
    endloop
  endfacet
  facet normal 1 0 0
    outer loop
      vertex 25 4.40118 -9.14442
      vertex 25 1.8065 -8.1935
      vertex 25 1.86914 -8.35598
    endloop
  endfacet
  facet normal 1 -0 0
    outer loop
      vertex 25 1.46484 -8.53516
      vertex 25 2.24975 -10.1548
      vertex 25 1.86914 -8.35598
    endloop
  endfacet
  facet normal 1 0 0
    outer loop
      vertex 25 1.46484 -8.53516
      vertex 25 0.813818 -10.5164
      vertex 25 2.24975 -10.1548
    endloop
  endfacet
  facet normal 1 0 0
    outer loop
      vertex 25 1.46484 -8.53516
      vertex 25 -5.47311e-08 -10.7214
      vertex 25 0.813818 -10.5164
    endloop
  endfacet
  facet normal 1 0 -0
    outer loop
      vertex 25 -5.47311e-08 -10.7214
      vertex 25 1.46484 -8.53516
      vertex 25 -0.754251 -10.7543
    endloop
  endfacet
  facet normal 1.39119e-07 -0 1
    outer loop
      vertex 21.5725 1.85509 -5
      vertex 25 5 -5
      vertex 21.5725 5 -5
    endloop
  endfacet
  facet normal 9.53674e-08 4.76837e-08 1
    outer loop
      vertex 25 5 -5
      vertex 21.5725 1.85509 -5
      vertex 25 -5 -5
    endloop
  endfacet
  facet normal 0 1 0
    outer loop
      vertex 25 5 -5
      vertex 22.8825 5 -8.3884
      vertex 21.5725 5 -5
    endloop
  endfacet
  facet normal 0 1 0
    outer loop
      vertex 25 5 -5
      vertex 23.5514 5 -8.53838
      vertex 22.8825 5 -8.3884
    endloop
  endfacet
  facet normal -0 1 0
    outer loop
      vertex 23.5514 5 -8.53838
      vertex 25 5 -5
      vertex 25 5 -8.71342
    endloop
  endfacet
  facet normal 0 0 1
    outer loop
      vertex 21.5725 1.85509 -5
      vertex 21.638 -0.767704 -5
      vertex 25 -5 -5
    endloop
  endfacet
  facet normal 0 0 1
    outer loop
      vertex 21.638 -0.767704 -5
      vertex 21.5725 1.85509 -5
      vertex 21.5725 -0.73055 -5
    endloop
  endfacet
  facet normal 0 0 1
    outer loop
      vertex 21.5725 -5 -5
      vertex 21.638 -0.767704 -5
      vertex 21.5725 -0.782736 -5
    endloop
  endfacet
  facet normal 0 0 1
    outer loop
      vertex 21.638 -0.767704 -5
      vertex 21.5725 -5 -5
      vertex 25 -5 -5
    endloop
  endfacet
  facet normal 0 -1 0
    outer loop
      vertex 23.1559 -5 -9.09543
      vertex 25 -5 -5
      vertex 21.5725 -5 -5
    endloop
  endfacet
  facet normal -2.04021e-07 -1 9.18685e-08
    outer loop
      vertex 25 -5 -5
      vertex 23.1559 -5 -9.09543
      vertex 25 -5 -10.1904
    endloop
  endfacet
  facet normal -0.261403 0.688874 0.676107
    outer loop
      vertex 23.1958 -6.0933 -9.19873
      vertex 18.5527 -7.60871 -9.44987
      vertex 22.6765 -7.60871 -7.85549
    endloop
  endfacet
  facet normal -0.261403 0.688874 0.676107
    outer loop
      vertex 23.1958 -6.0933 -9.19873
      vertex 18.3087 -7.43145 -9.72482
      vertex 18.5527 -7.60871 -9.44987
    endloop
  endfacet
  facet normal -0.261403 0.688874 0.676107
    outer loop
      vertex 18.3087 -7.43145 -9.72482
      vertex 23.1958 -6.0933 -9.19873
      vertex 17.1038 -6.0933 -11.5541
    endloop
  endfacet
  facet normal -0.359524 -0.0777437 0.929891
    outer loop
      vertex 15.1428 1.35868 -14.3925
      vertex 23.8827 1.81531 -10.9753
      vertex 15.1908 1.81531 -14.3358
    endloop
  endfacet
  facet normal -0.359524 -0.0777444 0.929891
    outer loop
      vertex 23.8827 1.81531 -10.9753
      vertex 15.1428 1.35868 -14.3925
      vertex 23.9413 -0.268935 -11.1268
    endloop
  endfacet
  facet normal -0.359524 -0.0777446 0.929891
    outer loop
      vertex 15.1428 1.35868 -14.3925
      vertex 15.0283 -0.268935 -14.5729
      vertex 23.9413 -0.268935 -11.1268
    endloop
  endfacet
  facet normal -0.359533 -0.0777437 0.929888
    outer loop
      vertex 15.0283 -0.268935 -14.5729
      vertex 15.1428 1.35868 -14.3925
      vertex 15 1.08351e-15 -14.5613
    endloop
  endfacet
  facet normal -0.30734 0.523109 0.79492
    outer loop
      vertex 23.5902 -4.31158 -10.2187
      vertex 17.1038 -6.0933 -11.5541
      vertex 23.1958 -6.0933 -9.19873
    endloop
  endfacet
  facet normal -0.307341 0.52311 0.79492
    outer loop
      vertex 23.5902 -4.31158 -10.2187
      vertex 16.9098 -5.87785 -11.7709
      vertex 17.1038 -6.0933 -11.5541
    endloop
  endfacet
  facet normal -0.307341 0.52311 0.79492
    outer loop
      vertex 16.9098 -5.87785 -11.7709
      vertex 23.5902 -4.31158 -10.2187
      vertex 16.0055 -4.31158 -13.1512
    endloop
  endfacet
  facet normal -0.357497 0.131236 0.924647
    outer loop
      vertex 23.9413 -0.268935 -11.1268
      vertex 15.3038 -2.34142 -14.1722
      vertex 23.8423 -2.34142 -10.871
    endloop
  endfacet
  facet normal -0.357497 0.131236 0.924648
    outer loop
      vertex 15.1427 -1.35765 -14.3741
      vertex 15.3038 -2.34142 -14.1722
      vertex 23.9413 -0.268935 -11.1268
    endloop
  endfacet
  facet normal -0.357502 0.131235 0.924646
    outer loop
      vertex 15.3038 -2.34142 -14.1722
      vertex 15.1427 -1.35765 -14.3741
      vertex 15.2185 -2.07912 -14.2424
    endloop
  endfacet
  facet normal -0.357497 0.131236 0.924647
    outer loop
      vertex 15.1427 -1.35765 -14.3741
      vertex 23.9413 -0.268935 -11.1268
      vertex 15.0283 -0.268935 -14.5729
    endloop
  endfacet
  facet normal -0.13776 0.924154 0.356318
    outer loop
      vertex 22.0549 -8.79159 -6.24773
      vertex 21.5459 -9.34853 -5
      vertex 21.5725 -9.34458 -5
    endloop
  endfacet
  facet normal -0.137763 0.924154 0.356316
    outer loop
      vertex 21.5459 -9.34853 -5
      vertex 22.0549 -8.79159 -6.24773
      vertex 20.8244 -9.02729 -6.11214
    endloop
  endfacet
  facet normal -0.137763 0.924154 0.356316
    outer loop
      vertex 20.8244 -9.02729 -6.11214
      vertex 22.0549 -8.79159 -6.24773
      vertex 20.295 -8.79159 -6.92815
    endloop
  endfacet
  facet normal -0.317039 -0.476529 0.820004
    outer loop
      vertex 16.783 5.65815 -12.0171
      vertex 23.6691 3.82021 -10.4228
      vertex 23.3098 5.65815 -9.49361
    endloop
  endfacet
  facet normal -0.317039 -0.476529 0.820004
    outer loop
      vertex 15.8645 4.06737 -13.2966
      vertex 23.6691 3.82021 -10.4228
      vertex 16.783 5.65815 -12.0171
    endloop
  endfacet
  facet normal -0.317039 -0.476528 0.820005
    outer loop
      vertex 23.6691 3.82021 -10.4228
      vertex 15.8645 4.06737 -13.2966
      vertex 15.7842 3.82021 -13.4713
    endloop
  endfacet
  facet normal -0.219734 -0.792917 0.568331
    outer loop
      vertex 19.8106 8.52265 -7.61484
      vertex 22.8206 7.24881 -8.22831
      vertex 22.2228 8.52265 -6.6822
    endloop
  endfacet
  facet normal -0.219734 -0.792917 0.568331
    outer loop
      vertex 19.1606 8.0504 -8.52502
      vertex 22.8206 7.24881 -8.22831
      vertex 19.8106 8.52265 -7.61484
    endloop
  endfacet
  facet normal -0.219734 -0.792917 0.568331
    outer loop
      vertex 18.3087 7.43145 -9.71794
      vertex 22.8206 7.24881 -8.22831
      vertex 19.1606 8.0504 -8.52502
    endloop
  endfacet
  facet normal -0.219734 -0.792917 0.568331
    outer loop
      vertex 22.8206 7.24881 -8.22831
      vertex 18.3087 7.43145 -9.71794
      vertex 18.1442 7.24881 -10.0363
    endloop
  endfacet
  facet normal -0.204042 0.824532 0.527744
    outer loop
      vertex 22.6765 -7.60871 -7.85549
      vertex 20.295 -8.79159 -6.92815
      vertex 22.0549 -8.79159 -6.24773
    endloop
  endfacet
  facet normal -0.204042 0.824532 0.527744
    outer loop
      vertex 20.295 -8.79159 -6.92815
      vertex 22.6765 -7.60871 -7.85549
      vertex 20 -8.66025 -7.2474
    endloop
  endfacet
  facet normal -0.204042 0.824532 0.527744
    outer loop
      vertex 22.6765 -7.60871 -7.85549
      vertex 19.1606 -8.05041 -8.52472
      vertex 20 -8.66025 -7.2474
    endloop
  endfacet
  facet normal -0.204042 0.824532 0.527744
    outer loop
      vertex 19.1606 -8.05041 -8.52472
      vertex 22.6765 -7.60871 -7.85549
      vertex 18.5527 -7.60871 -9.44987
    endloop
  endfacet
  facet normal -0.339845 0.334483 0.878992
    outer loop
      vertex 23.8423 -2.34142 -10.871
      vertex 16.0055 -4.31158 -13.1512
      vertex 23.5902 -4.31158 -10.2187
    endloop
  endfacet
  facet normal -0.339845 0.334482 0.878992
    outer loop
      vertex 23.8423 -2.34142 -10.871
      vertex 15.8645 -4.06737 -13.2986
      vertex 16.0055 -4.31158 -13.1512
    endloop
  endfacet
  facet normal -0.339845 0.334483 0.878992
    outer loop
      vertex 15.8645 -4.06737 -13.2986
      vertex 23.8423 -2.34142 -10.871
      vertex 15.3038 -2.34142 -14.1722
    endloop
  endfacet
  facet normal -0.345839 -0.283328 0.894495
    outer loop
      vertex 15.7842 3.82021 -13.4713
      vertex 23.8827 1.81531 -10.9753
      vertex 23.6691 3.82021 -10.4228
    endloop
  endfacet
  facet normal -0.345839 -0.283328 0.894495
    outer loop
      vertex 15.2185 2.07912 -14.2415
      vertex 23.8827 1.81531 -10.9753
      vertex 15.7842 3.82021 -13.4713
    endloop
  endfacet
  facet normal -0.345839 -0.283326 0.894495
    outer loop
      vertex 23.8827 1.81531 -10.9753
      vertex 15.2185 2.07912 -14.2415
      vertex 15.1908 1.81531 -14.3358
    endloop
  endfacet
  facet normal -0.274382 -0.648903 0.709676
    outer loop
      vertex 18.1442 7.24881 -10.0363
      vertex 23.3098 5.65815 -9.49361
      vertex 22.8206 7.24881 -8.22831
    endloop
  endfacet
  facet normal -0.274382 -0.648903 0.709676
    outer loop
      vertex 16.9098 5.87785 -11.7672
      vertex 23.3098 5.65815 -9.49361
      vertex 18.1442 7.24881 -10.0363
    endloop
  endfacet
  facet normal -0.274382 -0.648902 0.709676
    outer loop
      vertex 23.3098 5.65815 -9.49361
      vertex 16.9098 5.87785 -11.7672
      vertex 16.783 5.65815 -12.0171
    endloop
  endfacet
  facet normal -0.155482 -0.902277 0.402147
    outer loop
      vertex 20.8234 9.02684 -6.09208
      vertex 22.2228 8.52265 -6.6822
      vertex 21.5861 9.36643 -5.03526
    endloop
  endfacet
  facet normal -0.155482 -0.902277 0.402147
    outer loop
      vertex 20 8.66025 -7.23289
      vertex 22.2228 8.52265 -6.6822
      vertex 20.8234 9.02684 -6.09208
    endloop
  endfacet
  facet normal -0.155482 -0.902277 0.402147
    outer loop
      vertex 22.2228 8.52265 -6.6822
      vertex 20 8.66025 -7.23289
      vertex 19.8106 8.52265 -7.61484
    endloop
  endfacet
  facet normal -0.932715 -1.45928e-07 -0.360615
    outer loop
      vertex 23.1958 -6.0933 -9.19873
      vertex 23.1559 -5 -9.09543
      vertex 23.5902 -4.31158 -10.2187
    endloop
  endfacet
  facet normal -0.932713 1.77428e-07 -0.360618
    outer loop
      vertex 23.1559 -5 -9.09543
      vertex 23.1958 -6.0933 -9.19873
      vertex 23.0388 -5.54956 -8.79273
    endloop
  endfacet
  facet normal -0.932714 -1.19684e-06 -0.360617
    outer loop
      vertex 23.1958 -6.0933 -9.19873
      vertex 22.4616 -6.99205 -7.29977
      vertex 23.0388 -5.54956 -8.79273
    endloop
  endfacet
  facet normal -0.932714 8.62248e-07 -0.360616
    outer loop
      vertex 22.6765 -7.60871 -7.85549
      vertex 22.4616 -6.99205 -7.29977
      vertex 23.1958 -6.0933 -9.19873
    endloop
  endfacet
  facet normal -0.932715 1.37067e-07 -0.360615
    outer loop
      vertex 22.6765 -7.60871 -7.85549
      vertex 21.9612 -7.67735 -6.00553
      vertex 22.4616 -6.99205 -7.29977
    endloop
  endfacet
  facet normal -0.932715 1.249e-06 -0.360615
    outer loop
      vertex 22.0549 -8.79159 -6.24773
      vertex 21.9612 -7.67735 -6.00553
      vertex 22.6765 -7.60871 -7.85549
    endloop
  endfacet
  facet normal -0.932715 1.25144e-06 -0.360615
    outer loop
      vertex 21.9612 -7.67735 -6.00553
      vertex 22.0549 -8.79159 -6.24773
      vertex 21.7158 -8.01342 -5.37083
    endloop
  endfacet
  facet normal -0.932715 1.32705e-06 -0.360615
    outer loop
      vertex 21.5725 -9.34458 -5
      vertex 21.7158 -8.01342 -5.37083
      vertex 22.0549 -8.79159 -6.24773
    endloop
  endfacet
  facet normal -0.932713 0 -0.360619
    outer loop
      vertex 21.7158 -8.01342 -5.37083
      vertex 21.5725 -9.34458 -5
      vertex 21.5725 -8.10376 -5
    endloop
  endfacet
  facet normal -0.932714 2.51537e-07 -0.360616
    outer loop
      vertex 23.8827 1.81531 -10.9753
      vertex 23.147 1.86914 -9.07242
      vertex 23.6691 3.82021 -10.4228
    endloop
  endfacet
  facet normal -0.932714 -4.36428e-09 -0.360616
    outer loop
      vertex 23.4914 -0.441243 -9.96321
      vertex 23.8827 1.81531 -10.9753
      vertex 23.9413 -0.268935 -11.1268
    endloop
  endfacet
  facet normal -0.932714 -2.64269e-07 -0.360616
    outer loop
      vertex 23.8827 1.81531 -10.9753
      vertex 23.4914 -0.441243 -9.96321
      vertex 23.147 1.86914 -9.07242
    endloop
  endfacet
  facet normal -0.932714 -6.09381e-08 -0.360616
    outer loop
      vertex 23.8423 -2.34142 -10.871
      vertex 23.4914 -0.441243 -9.96321
      vertex 23.9413 -0.268935 -11.1268
    endloop
  endfacet
  facet normal -0.932714 1.92317e-07 -0.360616
    outer loop
      vertex 23.4914 -0.441243 -9.96321
      vertex 23.8423 -2.34142 -10.871
      vertex 22.6582 -1.3963 -7.80828
    endloop
  endfacet
  facet normal -0.932707 0 -0.360636
    outer loop
      vertex 21.5861 9.36643 -5.03526
      vertex 21.5725 9.02771 -5
      vertex 21.5725 9.36036 -5
    endloop
  endfacet
  facet normal -0.932714 2.26941e-06 -0.360617
    outer loop
      vertex 22.2228 8.52265 -6.6822
      vertex 21.5725 9.02771 -5
      vertex 21.5861 9.36643 -5.03526
    endloop
  endfacet
  facet normal -0.932714 3.3775e-07 -0.360617
    outer loop
      vertex 22.2228 8.52265 -6.6822
      vertex 22.1723 7.52917 -6.55136
      vertex 21.5725 9.02771 -5
    endloop
  endfacet
  facet normal -0.932715 4.87652e-07 -0.360616
    outer loop
      vertex 22.8206 7.24881 -8.22831
      vertex 22.1723 7.52917 -6.55136
      vertex 22.2228 8.52265 -6.6822
    endloop
  endfacet
  facet normal -0.932714 -8.31494e-07 -0.360616
    outer loop
      vertex 22.8226 5.30125 -8.23349
      vertex 22.8206 7.24881 -8.22831
      vertex 23.3098 5.65815 -9.49361
    endloop
  endfacet
  facet normal -0.932715 -8.34274e-07 -0.360615
    outer loop
      vertex 22.8206 7.24881 -8.22831
      vertex 22.8226 5.30125 -8.23349
      vertex 22.1723 7.52917 -6.55136
    endloop
  endfacet
  facet normal -0.932715 5.0899e-06 -0.360615
    outer loop
      vertex 23.3098 5.65815 -9.49361
      vertex 22.8825 5 -8.3884
      vertex 22.8226 5.30125 -8.23349
    endloop
  endfacet
  facet normal -0.932714 9.22383e-07 -0.360617
    outer loop
      vertex 23.6691 3.82021 -10.4228
      vertex 22.8825 5 -8.3884
      vertex 23.3098 5.65815 -9.49361
    endloop
  endfacet
  facet normal -0.932714 5.90697e-08 -0.360616
    outer loop
      vertex 23.147 1.86914 -9.07242
      vertex 22.8825 5 -8.3884
      vertex 23.6691 3.82021 -10.4228
    endloop
  endfacet
  facet normal -0.932715 -1.75965e-07 -0.360616
    outer loop
      vertex 22.3138 0.914088 -6.91749
      vertex 22.8825 5 -8.3884
      vertex 23.147 1.86914 -9.07242
    endloop
  endfacet
  facet normal -0.932714 -4.36058e-07 -0.360616
    outer loop
      vertex 21.5725 1.85509 -5
      vertex 22.8825 5 -8.3884
      vertex 22.3138 0.914088 -6.91749
    endloop
  endfacet
  facet normal -0.932714 0 -0.360616
    outer loop
      vertex 22.8825 5 -8.3884
      vertex 21.5725 1.85509 -5
      vertex 21.5725 5 -5
    endloop
  endfacet
  facet normal -0.932714 0 -0.360616
    outer loop
      vertex 22.3138 0.914088 -6.91749
      vertex 21.5725 -0.73055 -5
      vertex 21.5725 1.85509 -5
    endloop
  endfacet
  facet normal -0.932714 1.98382e-07 -0.360616
    outer loop
      vertex 22.3138 0.914088 -6.91749
      vertex 21.581 -0.767704 -5.02204
      vertex 21.5725 -0.73055 -5
    endloop
  endfacet
  facet normal -0.932714 4.78025e-07 -0.360616
    outer loop
      vertex 22.6582 -1.3963 -7.80828
      vertex 21.581 -0.767704 -5.02204
      vertex 22.3138 0.914088 -6.91749
    endloop
  endfacet
  facet normal -0.932714 2.37733e-08 -0.360616
    outer loop
      vertex 22.6582 -1.3963 -7.80828
      vertex 21.5725 -0.782736 -5
      vertex 21.581 -0.767704 -5.02204
    endloop
  endfacet
  facet normal -0.932714 9.59212e-08 -0.360616
    outer loop
      vertex 23.5902 -4.31158 -10.2187
      vertex 22.6582 -1.3963 -7.80828
      vertex 23.8423 -2.34142 -10.871
    endloop
  endfacet
  facet normal -0.932715 -4.8903e-07 -0.360616
    outer loop
      vertex 22.6582 -1.3963 -7.80828
      vertex 23.5902 -4.31158 -10.2187
      vertex 23.1559 -5 -9.09543
    endloop
  endfacet
  facet normal -0.932714 -2.35993e-07 -0.360616
    outer loop
      vertex 21.5725 -5 -5
      vertex 22.6582 -1.3963 -7.80828
      vertex 23.1559 -5 -9.09543
    endloop
  endfacet
  facet normal -0.932714 0 -0.360616
    outer loop
      vertex 22.6582 -1.3963 -7.80828
      vertex 21.5725 -5 -5
      vertex 21.5725 -0.782736 -5
    endloop
  endfacet
endsolid OpenSCAD_Model
